<?xml version="1.0" encoding="UTF-8" standalone="no"?>
<!-- Created with Inkscape (http://www.inkscape.org/) -->

<svg
   xmlns:dc="http://purl.org/dc/elements/1.1/"
   xmlns:cc="http://creativecommons.org/ns#"
   xmlns:rdf="http://www.w3.org/1999/02/22-rdf-syntax-ns#"
   xmlns:svg="http://www.w3.org/2000/svg"
   xmlns="http://www.w3.org/2000/svg"
   xmlns:sodipodi="http://sodipodi.sourceforge.net/DTD/sodipodi-0.dtd"
   xmlns:inkscape="http://www.inkscape.org/namespaces/inkscape"
   width="249.15488"
   height="265.14774"
   id="svg4132"
   version="1.1"
   inkscape:version="0.47 r22583"
   sodipodi:docname="fred.svg"
   inkscape:export-filename="/home/rick/aptosid-art/kdm themes/hypnos/fred.png"
   inkscape:export-xdpi="33.94334"
   inkscape:export-ydpi="33.94334">
  <defs
     id="defs4134">
    <mask
       maskUnits="userSpaceOnUse"
       id="mask7413">
      <path
         sodipodi:type="arc"
         style="fill:#ffffff;fill-opacity:1;fill-rule:nonzero;stroke:none;filter:url(#filter7409)"
         id="path7415"
         sodipodi:cx="971.66669"
         sodipodi:cy="902"
         sodipodi:rx="185.66667"
         sodipodi:ry="150.66667"
         d="m 1157.3334,902 a 185.66667,150.66667 0 1 1 -371.33338,0 185.66667,150.66667 0 1 1 371.33338,0 z"
         transform="matrix(0.93357271,0,0,1,76.878515,-147.63782)" />
    </mask>
    <filter
       inkscape:collect="always"
       id="filter7409"
       color-interpolation-filters="sRGB">
      <feGaussianBlur
         inkscape:collect="always"
         stdDeviation="5.0299331"
         id="feGaussianBlur7411" />
    </filter>
    <mask
       maskUnits="userSpaceOnUse"
       id="mask7360">
      <path
         style="fill:#ffffff;fill-opacity:1;fill-rule:nonzero;stroke:#ffffff;stroke-width:1.5;stroke-linecap:square;stroke-linejoin:bevel;stroke-miterlimit:1;stroke-opacity:1;stroke-dasharray:none;stroke-dashoffset:0"
         d="m 773,620.36218 0,444.00002 436,0 0,-444.00002 -436,0 z m 198.96875,110.5625 c 5.00329,-0.0894 10.13026,1.93793 14.84375,7.65625 L 993,743.61218 c 0,0 6.13564,-22.35598 28.4688,8.6875 0,0 -9.6602,-7.59963 -14.3438,-0.125 -4.6826,7.47634 -14.34375,-2.53125 -14.34375,-2.53125 0,0 -29.27742,9.346 -36.8125,7.6875 0,0 -8.71231,23.00738 -17.40625,21.09375 0,0 -1.61991,5.41808 -3.96875,12.09375 12.57513,-10.27933 28.69151,-16.4375 46.25,-16.4375 36.57015,0 66.94515,26.8107 71.84375,61.59375 8.3633,1.2945 24.191,4.63462 21.4375,11.125 l 1.4688,2.6875 c -1e-4,0 7.4537,2.6836 5.9687,7.0625 -0.5585,1.6456 -3.5972,4.3741 -7.1563,7.0937 6.5886,2.4986 11.2703,5.8964 9.3438,10.4376 l 2.0312,3.7187 c 1e-4,0 10.2292,3.7035 8.1876,9.7187 -1.8477,5.4436 -19.8789,17.03 -23.4376,19.2813 2.1005,8.477 1.391,16.4741 -2,21.8437 -0.5194,-3.9286 -1.9075,-8.2451 -4.2187,-12.4374 -6.163,-11.1796 -16.4446,-17.3748 -22.9063,-13.8126 -6.4399,3.5504 -6.6626,15.4463 -0.5624,26.5938 -4.2477,-3.409 -8.1805,-8.0628 -11.2813,-13.6875 -2.3478,-4.2587 -3.9556,-8.6215 -4.875,-12.8437 -3.8017,2.8494 -7.8858,5.33 -12.2187,7.4062 0.303,0.1686 0.604,0.3573 0.9062,0.5312 7.6701,4.4149 14.0052,9.9364 18.5938,15.875 -15.2026,-8.687 -31.6015,-8.6569 -36.6563,0.125 -5.07172,8.8115 3.16105,23.1002 18.4063,31.875 5.7168,3.2906 11.6322,5.3408 17.0312,6.1563 -10.8613,6.5818 -29.1457,5.3082 -45.96875,-4.375 -17.36489,-9.9949 -27.82445,-25.8403 -26.875,-38.7813 -9.03972,4.6848 -22.125,6.5 -22.125,6.5 l 11.5625,20.8126 c 1.7e-4,0 -23.58595,-16.1723 -25.4375,-22.1876 -1.85137,-6.0153 7.40625,-9.7187 7.40625,-9.7187 l 1.875,-3.7187 c -1.5845,-4.1199 1.74719,-7.3265 6.84375,-9.75 -1.23249,-0.8901 -2.42185,-1.8183 -3.59375,-2.7813 -9.25954,8.4277 -35.5625,11.5313 -35.5625,11.5313 l 14.6875,22.3124 c 0,10e-5 -29.9627,-17.3669 -32.3125,-23.8124 -1.98666,-5.4527 6.05161,-9.0902 8.59375,-10.0938 -6.97092,-5.24 -15.85845,-12.4553 -16.96875,-16.0625 -1.85149,-6.0153 7.40625,-9.7187 7.40625,-9.7187 l 1.84375,-3.7188 c -3.45011,-8.9706 16.50133,-13.5552 26.875,-15.3125 -0.46682,-3.26948 -0.71875,-6.60502 -0.71875,-10 0,-11.49948 2.77173,-22.37062 7.6875,-32 l -6.125,-1.34375 c 0,0 -5.08185,-32.10445 14.53125,-41.15625 0,0 -0.11418,-40.74329 20.96875,-23.34375 0,0 12.79206,-16.53405 26.625,-16.78125 z m 0.1875,3.3125 c -5.03371,0.15774 -11.73597,2.87097 -20.5,10.875 0,0 29.21563,0.75715 33.625,-2.0625 0,2e-4 -3.51484,-9.11362 -13.125,-8.8125 z m -32.875,13.46875 c -4.01488,0.12508 -10.21274,3.3173 -12.21875,20.90625 0,0 3.34321,2.1369 5.71875,4.03125 -1.63471,-2.14045 -3.10195,-5.30431 -0.53125,-8.09375 l 10.625,-16.125 c 0,0 -1.49071,-0.78425 -3.59375,-0.71875 z m -6.5,24.9375 c 1.13504,1.4859 2.34375,2.46875 2.34375,2.46875 -0.0538,-0.50885 -1.06624,-1.4501 -2.34375,-2.46875 z m -8,2.09375 c 0,0 -13.46662,11.7028 -11.96875,32.875 l 10.53125,-4.78125 c 0,-3e-4 -3.2715,-23.91887 1.4375,-28.09375 z m 56.0625,9.0625 c -34.79066,0 -62.84375,27.6469 -62.84375,61.75 0,0.0447 -6e-5,0.11135 0,0.15625 2.31173,-6.32462 11.6717,-25.38373 36.71875,-7.78125 26.39436,18.5492 71.86205,34.3391 88.93745,9.09375 0.011,-0.48969 0.031,-0.9763 0.031,-1.46875 -2e-4,-34.1031 -28.0533,-61.75 -62.84375,-61.75 z m -7.625,39.875 c 0,0 41.65175,13.09017 34.06245,25.96875 l -34.06245,-25.96875 z m 57.15625,2.09375 c 0.6105,0.0196 1.2789,0.33388 1.9688,0.9375 l -10.125,23.46875 c -10e-5,0 2.2541,-24.59512 8.1562,-24.40625 z m 22.3125,11.65625 c -1.2343,0.005 -2.4898,0.076 -3.8125,0.28125 l 0.5625,4.5625 c 0,0 18.7263,7.75 22.625,7.75 l 0.1875,-4.21875 c 0,0 -7.6315,-8.4229 -19.5625,-8.375 z m -107.3125,13.3125 c -1.75625,0.0436 -3.24546,0.74627 -3.9375,2.6875 -2.45953,6.9022 1.64092,17.67 6.5625,18.4375 4.92169,0.7675 85.2989,4.6113 93.5,-16.0938 0,0 -29.5457,21.4589 -85.3125,-0.7812 0,0 -6.32423,-4.36147 -10.8125,-4.25 z m 129.6562,0.78125 3.7188,3.71875 c 4.8274,-1.5142 -3.7188,-3.71875 -3.7188,-3.71875 z M 1053,853.01838 c -0.1963,1.856 -0.443,3.6889 -0.7812,5.5 3.9963,0.5611 9.8735,1.5331 15.7187,3.0938 l 2.4687,-4.0625 c 0,0 -10.1679,-1.2413 -17.4062,-4.5313 z m -144.1875,4.9376 c -14.86621,-0.0657 -24.375,11.5312 -24.375,11.5312 l 0.21875,5.7812 c 4.85771,10e-5 28.21875,-10.6562 28.21875,-10.6562 l 0.6875,-6.2188 c -1.64825,-0.2819 -3.21208,-0.4305 -4.75,-0.4374 z m 145.5,3.2187 c -1.6963,0.007 -3.432,0.1555 -5.25,0.4375 l 0.75,6.25 c 0,0 25.7661,10.625 31.125,10.625 l 0.2813,-5.7812 c 0,-10e-5 -10.5093,-11.5969 -26.9063,-11.5313 z m -15.6563,6.5937 c 1e-4,0 -62.07208,20.1207 -74.06245,13.875 0,0 -4.90625,3.4548 -4.90625,8.3126 0,4.8577 9.15096,9.0376 10.5625,8.3437 1.41155,-0.6939 59.2361,-18.7339 68.4062,-30.5313 z m -123.93745,7.2188 c -7.34652,7.8178 -27.96875,10.6875 -27.96875,10.6875 l 6,10.8125 0.25,-0.4062 c -3.49513,-7.6694 11.93014,-12.338 25,-14.875 -1.18209,-2.0127 -2.29912,-4.0888 -3.28125,-6.2188 z m 131.56245,1.4375 c -0.027,0.0535 -0.068,0.1029 -0.094,0.1563 0.082,0.0309 0.168,0.062 0.25,0.0937 -0.062,-0.086 -0.097,-0.163 -0.1563,-0.25 z m -165.31245,0.9063 c 0,-10e-5 -10.6403,3.0118 -4.625,5.0937 l 4.625,-5.0937 z m 204.06245,3.25 5.0938,5.0937 c 6.6343,-2.0819 -5.0938,-5.0937 -5.0938,-5.0937 z m -158.1562,1.6562 c -18.86993,-0.0705 -30.9375,12.3438 -30.9375,12.3438 l 0.3125,6.2187 c 6.16682,0 35.8125,-11.4063 35.8125,-11.4063 l 0.875,-6.6874 c -2.09214,-0.3022 -4.11056,-0.4608 -6.0625,-0.4688 z m 103.1875,0.0312 c 0,10e-5 -6.9687,5.8272 -3.0937,18.7813 3.8748,12.9541 9.125,20.4063 9.125,20.4063 0,0 -10.0755,-28.5484 -6.0313,-39.1876 z m 27,1.3438 c 3.3309,3.1382 6.3966,7.0723 8.9063,11.625 1.8958,3.4386 3.2929,6.9287 4.25,10.375 l 8.4374,-16.7188 c 1e-4,0 -11.9326,-1.4871 -21.5937,-5.2812 z m -99.21875,16.4375 C 942.97738,899.98418 933.5,911.58098 933.5,911.58098 l 0.1875,5.7812 c 4.85771,0 28.21875,-10.625 28.21875,-10.625 l 0.71875,-6.25 c -1.64819,-0.2819 -3.24338,-0.4305 -4.78125,-0.4375 z m 103.43745,0.8125 c -3.3105,0.1739 -5.5544,2.0216 -5.1562,1.7188 0,-10e-5 2.9955,0.9696 6.1875,4.5937 3.1918,3.6243 4.875,10.7813 4.875,10.7813 0,-10e-5 1.2704,-8.0611 -2.5313,-16.625 -0.943,-0.3012 -1.839,-0.4532 -2.6874,-0.4688 -0.2297,-0.006 -0.4667,-0.0114 -0.6876,0 z m -169.74995,2.1562 c 0,0 -13.4788,3.2058 -5.84375,5.4376 l 5.84375,-5.4376 z m 109.15625,10.125 c -9.75905,0.2753 -5.16613,10.6368 -5.5625,9.8438 0,0 1.61979,-2.8628 6.5312,-4.5 4.9116,-1.6371 13.9376,0.4062 13.9376,0.4062 0,0 -2.8867,-5.3407 -13.9376,-5.75 -0.3451,-0.0126 -0.6539,-0.008 -0.9687,0 z m -39.53125,2.0626 c 0,0 -4.15233,19.9535 16.625,34.0624 20.77742,14.1089 37.37495,17.5313 37.37495,17.5313 10e-5,0 -48.18238,-28.7276 -53.99995,-51.5937 z M 930,919.45598 c 0,0 -10.64036,3.0118 -4.625,5.0937 l 4.625,-5.0937 z"
         id="path7362"
         inkscape:connector-curvature="0" />
    </mask>
    <filter
       inkscape:collect="always"
       id="filter7213"
       color-interpolation-filters="sRGB">
      <feGaussianBlur
         inkscape:collect="always"
         stdDeviation="5.7399847"
         id="feGaussianBlur7215" />
    </filter>
    <mask
       maskUnits="userSpaceOnUse"
       id="mask7364">
      <path
         id="path7366"
         d="m 773,620.36218 0,444.00002 436,0 0,-444.00002 -436,0 z m 198.96875,110.5625 c 5.00329,-0.0894 10.13026,1.93793 14.84375,7.65625 L 993,743.61218 c 0,0 6.13564,-22.35598 28.4688,8.6875 0,0 -9.6602,-7.59963 -14.3438,-0.125 -4.6826,7.47634 -14.34375,-2.53125 -14.34375,-2.53125 0,0 -29.27742,9.346 -36.8125,7.6875 0,0 -8.71231,23.00738 -17.40625,21.09375 0,0 -1.61991,5.41808 -3.96875,12.09375 12.57513,-10.27933 28.69151,-16.4375 46.25,-16.4375 36.57015,0 66.94515,26.8107 71.84375,61.59375 8.3633,1.2945 24.191,4.63462 21.4375,11.125 l 1.4688,2.6875 c -1e-4,0 7.4537,2.6836 5.9687,7.0625 -0.5585,1.6456 -3.5972,4.3741 -7.1563,7.0937 6.5886,2.4986 11.2703,5.8964 9.3438,10.4376 l 2.0312,3.7187 c 1e-4,0 10.2292,3.7035 8.1876,9.7187 -1.8477,5.4436 -19.8789,17.03 -23.4376,19.2813 2.1005,8.477 1.391,16.4741 -2,21.8437 -0.5194,-3.9286 -1.9075,-8.2451 -4.2187,-12.4374 -6.163,-11.1796 -16.4446,-17.3748 -22.9063,-13.8126 -6.4399,3.5504 -6.6626,15.4463 -0.5624,26.5938 -4.2477,-3.409 -8.1805,-8.0628 -11.2813,-13.6875 -2.3478,-4.2587 -3.9556,-8.6215 -4.875,-12.8437 -3.8017,2.8494 -7.8858,5.33 -12.2187,7.4062 0.303,0.1686 0.604,0.3573 0.9062,0.5312 7.6701,4.4149 14.0052,9.9364 18.5938,15.875 -15.2026,-8.687 -31.6015,-8.6569 -36.6563,0.125 -5.07172,8.8115 3.16105,23.1002 18.4063,31.875 5.7168,3.2906 11.6322,5.3408 17.0312,6.1563 -10.8613,6.5818 -29.1457,5.3082 -45.96875,-4.375 -17.36489,-9.9949 -27.82445,-25.8403 -26.875,-38.7813 -9.03972,4.6848 -22.125,6.5 -22.125,6.5 l 11.5625,20.8126 c 1.7e-4,0 -23.58595,-16.1723 -25.4375,-22.1876 -1.85137,-6.0153 7.40625,-9.7187 7.40625,-9.7187 l 1.875,-3.7187 c -1.5845,-4.1199 1.74719,-7.3265 6.84375,-9.75 -1.23249,-0.8901 -2.42185,-1.8183 -3.59375,-2.7813 -9.25954,8.4277 -35.5625,11.5313 -35.5625,11.5313 l 14.6875,22.3124 c 0,10e-5 -29.9627,-17.3669 -32.3125,-23.8124 -1.98666,-5.4527 6.05161,-9.0902 8.59375,-10.0938 -6.97092,-5.24 -15.85845,-12.4553 -16.96875,-16.0625 -1.85149,-6.0153 7.40625,-9.7187 7.40625,-9.7187 l 1.84375,-3.7188 c -3.45011,-8.9706 16.50133,-13.5552 26.875,-15.3125 -0.46682,-3.26948 -0.71875,-6.60502 -0.71875,-10 0,-11.49948 2.77173,-22.37062 7.6875,-32 l -6.125,-1.34375 c 0,0 -5.08185,-32.10445 14.53125,-41.15625 0,0 -0.11418,-40.74329 20.96875,-23.34375 0,0 12.79206,-16.53405 26.625,-16.78125 z m 0.1875,3.3125 c -5.03371,0.15774 -11.73597,2.87097 -20.5,10.875 0,0 29.21563,0.75715 33.625,-2.0625 0,2e-4 -3.51484,-9.11362 -13.125,-8.8125 z m -32.875,13.46875 c -4.01488,0.12508 -10.21274,3.3173 -12.21875,20.90625 0,0 3.34321,2.1369 5.71875,4.03125 -1.63471,-2.14045 -3.10195,-5.30431 -0.53125,-8.09375 l 10.625,-16.125 c 0,0 -1.49071,-0.78425 -3.59375,-0.71875 z m -6.5,24.9375 c 1.13504,1.4859 2.34375,2.46875 2.34375,2.46875 -0.0538,-0.50885 -1.06624,-1.4501 -2.34375,-2.46875 z m -8,2.09375 c 0,0 -13.46662,11.7028 -11.96875,32.875 l 10.53125,-4.78125 c 0,-3e-4 -3.2715,-23.91887 1.4375,-28.09375 z m 56.0625,9.0625 c -34.79066,0 -62.84375,27.6469 -62.84375,61.75 0,0.0447 -6e-5,0.11135 0,0.15625 2.31173,-6.32462 11.6717,-25.38373 36.71875,-7.78125 26.39436,18.5492 71.86205,34.3391 88.93745,9.09375 0.011,-0.48969 0.031,-0.9763 0.031,-1.46875 -2e-4,-34.1031 -28.0533,-61.75 -62.84375,-61.75 z m -7.625,39.875 c 0,0 41.65175,13.09017 34.06245,25.96875 l -34.06245,-25.96875 z m 57.15625,2.09375 c 0.6105,0.0196 1.2789,0.33388 1.9688,0.9375 l -10.125,23.46875 c -10e-5,0 2.2541,-24.59512 8.1562,-24.40625 z m 22.3125,11.65625 c -1.2343,0.005 -2.4898,0.076 -3.8125,0.28125 l 0.5625,4.5625 c 0,0 18.7263,7.75 22.625,7.75 l 0.1875,-4.21875 c 0,0 -7.6315,-8.4229 -19.5625,-8.375 z m -107.3125,13.3125 c -1.75625,0.0436 -3.24546,0.74627 -3.9375,2.6875 -2.45953,6.9022 1.64092,17.67 6.5625,18.4375 4.92169,0.7675 85.2989,4.6113 93.5,-16.0938 0,0 -29.5457,21.4589 -85.3125,-0.7812 0,0 -6.32423,-4.36147 -10.8125,-4.25 z m 129.6562,0.78125 3.7188,3.71875 c 4.8274,-1.5142 -3.7188,-3.71875 -3.7188,-3.71875 z M 1053,853.01838 c -0.1963,1.856 -0.443,3.6889 -0.7812,5.5 3.9963,0.5611 9.8735,1.5331 15.7187,3.0938 l 2.4687,-4.0625 c 0,0 -10.1679,-1.2413 -17.4062,-4.5313 z m -144.1875,4.9376 c -14.86621,-0.0657 -24.375,11.5312 -24.375,11.5312 l 0.21875,5.7812 c 4.85771,10e-5 28.21875,-10.6562 28.21875,-10.6562 l 0.6875,-6.2188 c -1.64825,-0.2819 -3.21208,-0.4305 -4.75,-0.4374 z m 145.5,3.2187 c -1.6963,0.007 -3.432,0.1555 -5.25,0.4375 l 0.75,6.25 c 0,0 25.7661,10.625 31.125,10.625 l 0.2813,-5.7812 c 0,-10e-5 -10.5093,-11.5969 -26.9063,-11.5313 z m -15.6563,6.5937 c 1e-4,0 -62.07208,20.1207 -74.06245,13.875 0,0 -4.90625,3.4548 -4.90625,8.3126 0,4.8577 9.15096,9.0376 10.5625,8.3437 1.41155,-0.6939 59.2361,-18.7339 68.4062,-30.5313 z m -123.93745,7.2188 c -7.34652,7.8178 -27.96875,10.6875 -27.96875,10.6875 l 6,10.8125 0.25,-0.4062 c -3.49513,-7.6694 11.93014,-12.338 25,-14.875 -1.18209,-2.0127 -2.29912,-4.0888 -3.28125,-6.2188 z m 131.56245,1.4375 c -0.027,0.0535 -0.068,0.1029 -0.094,0.1563 0.082,0.0309 0.168,0.062 0.25,0.0937 -0.062,-0.086 -0.097,-0.163 -0.1563,-0.25 z m -165.31245,0.9063 c 0,-10e-5 -10.6403,3.0118 -4.625,5.0937 l 4.625,-5.0937 z m 204.06245,3.25 5.0938,5.0937 c 6.6343,-2.0819 -5.0938,-5.0937 -5.0938,-5.0937 z m -158.1562,1.6562 c -18.86993,-0.0705 -30.9375,12.3438 -30.9375,12.3438 l 0.3125,6.2187 c 6.16682,0 35.8125,-11.4063 35.8125,-11.4063 l 0.875,-6.6874 c -2.09214,-0.3022 -4.11056,-0.4608 -6.0625,-0.4688 z m 103.1875,0.0312 c 0,10e-5 -6.9687,5.8272 -3.0937,18.7813 3.8748,12.9541 9.125,20.4063 9.125,20.4063 0,0 -10.0755,-28.5484 -6.0313,-39.1876 z m 27,1.3438 c 3.3309,3.1382 6.3966,7.0723 8.9063,11.625 1.8958,3.4386 3.2929,6.9287 4.25,10.375 l 8.4374,-16.7188 c 1e-4,0 -11.9326,-1.4871 -21.5937,-5.2812 z m -99.21875,16.4375 C 942.97738,899.98418 933.5,911.58098 933.5,911.58098 l 0.1875,5.7812 c 4.85771,0 28.21875,-10.625 28.21875,-10.625 l 0.71875,-6.25 c -1.64819,-0.2819 -3.24338,-0.4305 -4.78125,-0.4375 z m 103.43745,0.8125 c -3.3105,0.1739 -5.5544,2.0216 -5.1562,1.7188 0,-10e-5 2.9955,0.9696 6.1875,4.5937 3.1918,3.6243 4.875,10.7813 4.875,10.7813 0,-10e-5 1.2704,-8.0611 -2.5313,-16.625 -0.943,-0.3012 -1.839,-0.4532 -2.6874,-0.4688 -0.2297,-0.006 -0.4667,-0.0114 -0.6876,0 z m -169.74995,2.1562 c 0,0 -13.4788,3.2058 -5.84375,5.4376 l 5.84375,-5.4376 z m 109.15625,10.125 c -9.75905,0.2753 -5.16613,10.6368 -5.5625,9.8438 0,0 1.61979,-2.8628 6.5312,-4.5 4.9116,-1.6371 13.9376,0.4062 13.9376,0.4062 0,0 -2.8867,-5.3407 -13.9376,-5.75 -0.3451,-0.0126 -0.6539,-0.008 -0.9687,0 z m -39.53125,2.0626 c 0,0 -4.15233,19.9535 16.625,34.0624 20.77742,14.1089 37.37495,17.5313 37.37495,17.5313 10e-5,0 -48.18238,-28.7276 -53.99995,-51.5937 z M 930,919.45598 c 0,0 -10.64036,3.0118 -4.625,5.0937 l 4.625,-5.0937 z"
         style="fill:#ffffff;fill-opacity:1;fill-rule:nonzero;stroke:#ffffff;stroke-width:1.5;stroke-linecap:square;stroke-linejoin:bevel;stroke-miterlimit:1;stroke-opacity:1;stroke-dasharray:none;stroke-dashoffset:0"
         inkscape:connector-curvature="0" />
    </mask>
    <mask
       maskUnits="userSpaceOnUse"
       id="mask7368">
      <path
         style="fill:#ffffff;fill-opacity:1;fill-rule:nonzero;stroke:#ffffff;stroke-width:1.5;stroke-linecap:square;stroke-linejoin:bevel;stroke-miterlimit:1;stroke-opacity:1;stroke-dasharray:none;stroke-dashoffset:0"
         d="m 773,620.36218 0,444.00002 436,0 0,-444.00002 -436,0 z m 198.96875,110.5625 c 5.00329,-0.0894 10.13026,1.93793 14.84375,7.65625 L 993,743.61218 c 0,0 6.13564,-22.35598 28.4688,8.6875 0,0 -9.6602,-7.59963 -14.3438,-0.125 -4.6826,7.47634 -14.34375,-2.53125 -14.34375,-2.53125 0,0 -29.27742,9.346 -36.8125,7.6875 0,0 -8.71231,23.00738 -17.40625,21.09375 0,0 -1.61991,5.41808 -3.96875,12.09375 12.57513,-10.27933 28.69151,-16.4375 46.25,-16.4375 36.57015,0 66.94515,26.8107 71.84375,61.59375 8.3633,1.2945 24.191,4.63462 21.4375,11.125 l 1.4688,2.6875 c -1e-4,0 7.4537,2.6836 5.9687,7.0625 -0.5585,1.6456 -3.5972,4.3741 -7.1563,7.0937 6.5886,2.4986 11.2703,5.8964 9.3438,10.4376 l 2.0312,3.7187 c 1e-4,0 10.2292,3.7035 8.1876,9.7187 -1.8477,5.4436 -19.8789,17.03 -23.4376,19.2813 2.1005,8.477 1.391,16.4741 -2,21.8437 -0.5194,-3.9286 -1.9075,-8.2451 -4.2187,-12.4374 -6.163,-11.1796 -16.4446,-17.3748 -22.9063,-13.8126 -6.4399,3.5504 -6.6626,15.4463 -0.5624,26.5938 -4.2477,-3.409 -8.1805,-8.0628 -11.2813,-13.6875 -2.3478,-4.2587 -3.9556,-8.6215 -4.875,-12.8437 -3.8017,2.8494 -7.8858,5.33 -12.2187,7.4062 0.303,0.1686 0.604,0.3573 0.9062,0.5312 7.6701,4.4149 14.0052,9.9364 18.5938,15.875 -15.2026,-8.687 -31.6015,-8.6569 -36.6563,0.125 -5.07172,8.8115 3.16105,23.1002 18.4063,31.875 5.7168,3.2906 11.6322,5.3408 17.0312,6.1563 -10.8613,6.5818 -29.1457,5.3082 -45.96875,-4.375 -17.36489,-9.9949 -27.82445,-25.8403 -26.875,-38.7813 -9.03972,4.6848 -22.125,6.5 -22.125,6.5 l 11.5625,20.8126 c 1.7e-4,0 -23.58595,-16.1723 -25.4375,-22.1876 -1.85137,-6.0153 7.40625,-9.7187 7.40625,-9.7187 l 1.875,-3.7187 c -1.5845,-4.1199 1.74719,-7.3265 6.84375,-9.75 -1.23249,-0.8901 -2.42185,-1.8183 -3.59375,-2.7813 -9.25954,8.4277 -35.5625,11.5313 -35.5625,11.5313 l 14.6875,22.3124 c 0,10e-5 -29.9627,-17.3669 -32.3125,-23.8124 -1.98666,-5.4527 6.05161,-9.0902 8.59375,-10.0938 -6.97092,-5.24 -15.85845,-12.4553 -16.96875,-16.0625 -1.85149,-6.0153 7.40625,-9.7187 7.40625,-9.7187 l 1.84375,-3.7188 c -3.45011,-8.9706 16.50133,-13.5552 26.875,-15.3125 -0.46682,-3.26948 -0.71875,-6.60502 -0.71875,-10 0,-11.49948 2.77173,-22.37062 7.6875,-32 l -6.125,-1.34375 c 0,0 -5.08185,-32.10445 14.53125,-41.15625 0,0 -0.11418,-40.74329 20.96875,-23.34375 0,0 12.79206,-16.53405 26.625,-16.78125 z m 0.1875,3.3125 c -5.03371,0.15774 -11.73597,2.87097 -20.5,10.875 0,0 29.21563,0.75715 33.625,-2.0625 0,2e-4 -3.51484,-9.11362 -13.125,-8.8125 z m -32.875,13.46875 c -4.01488,0.12508 -10.21274,3.3173 -12.21875,20.90625 0,0 3.34321,2.1369 5.71875,4.03125 -1.63471,-2.14045 -3.10195,-5.30431 -0.53125,-8.09375 l 10.625,-16.125 c 0,0 -1.49071,-0.78425 -3.59375,-0.71875 z m -6.5,24.9375 c 1.13504,1.4859 2.34375,2.46875 2.34375,2.46875 -0.0538,-0.50885 -1.06624,-1.4501 -2.34375,-2.46875 z m -8,2.09375 c 0,0 -13.46662,11.7028 -11.96875,32.875 l 10.53125,-4.78125 c 0,-3e-4 -3.2715,-23.91887 1.4375,-28.09375 z m 56.0625,9.0625 c -34.79066,0 -62.84375,27.6469 -62.84375,61.75 0,0.0447 -6e-5,0.11135 0,0.15625 2.31173,-6.32462 11.6717,-25.38373 36.71875,-7.78125 26.39436,18.5492 71.86205,34.3391 88.93745,9.09375 0.011,-0.48969 0.031,-0.9763 0.031,-1.46875 -2e-4,-34.1031 -28.0533,-61.75 -62.84375,-61.75 z m -7.625,39.875 c 0,0 41.65175,13.09017 34.06245,25.96875 l -34.06245,-25.96875 z m 57.15625,2.09375 c 0.6105,0.0196 1.2789,0.33388 1.9688,0.9375 l -10.125,23.46875 c -10e-5,0 2.2541,-24.59512 8.1562,-24.40625 z m 22.3125,11.65625 c -1.2343,0.005 -2.4898,0.076 -3.8125,0.28125 l 0.5625,4.5625 c 0,0 18.7263,7.75 22.625,7.75 l 0.1875,-4.21875 c 0,0 -7.6315,-8.4229 -19.5625,-8.375 z m -107.3125,13.3125 c -1.75625,0.0436 -3.24546,0.74627 -3.9375,2.6875 -2.45953,6.9022 1.64092,17.67 6.5625,18.4375 4.92169,0.7675 85.2989,4.6113 93.5,-16.0938 0,0 -29.5457,21.4589 -85.3125,-0.7812 0,0 -6.32423,-4.36147 -10.8125,-4.25 z m 129.6562,0.78125 3.7188,3.71875 c 4.8274,-1.5142 -3.7188,-3.71875 -3.7188,-3.71875 z M 1053,853.01838 c -0.1963,1.856 -0.443,3.6889 -0.7812,5.5 3.9963,0.5611 9.8735,1.5331 15.7187,3.0938 l 2.4687,-4.0625 c 0,0 -10.1679,-1.2413 -17.4062,-4.5313 z m -144.1875,4.9376 c -14.86621,-0.0657 -24.375,11.5312 -24.375,11.5312 l 0.21875,5.7812 c 4.85771,10e-5 28.21875,-10.6562 28.21875,-10.6562 l 0.6875,-6.2188 c -1.64825,-0.2819 -3.21208,-0.4305 -4.75,-0.4374 z m 145.5,3.2187 c -1.6963,0.007 -3.432,0.1555 -5.25,0.4375 l 0.75,6.25 c 0,0 25.7661,10.625 31.125,10.625 l 0.2813,-5.7812 c 0,-10e-5 -10.5093,-11.5969 -26.9063,-11.5313 z m -15.6563,6.5937 c 1e-4,0 -62.07208,20.1207 -74.06245,13.875 0,0 -4.90625,3.4548 -4.90625,8.3126 0,4.8577 9.15096,9.0376 10.5625,8.3437 1.41155,-0.6939 59.2361,-18.7339 68.4062,-30.5313 z m -123.93745,7.2188 c -7.34652,7.8178 -27.96875,10.6875 -27.96875,10.6875 l 6,10.8125 0.25,-0.4062 c -3.49513,-7.6694 11.93014,-12.338 25,-14.875 -1.18209,-2.0127 -2.29912,-4.0888 -3.28125,-6.2188 z m 131.56245,1.4375 c -0.027,0.0535 -0.068,0.1029 -0.094,0.1563 0.082,0.0309 0.168,0.062 0.25,0.0937 -0.062,-0.086 -0.097,-0.163 -0.1563,-0.25 z m -165.31245,0.9063 c 0,-10e-5 -10.6403,3.0118 -4.625,5.0937 l 4.625,-5.0937 z m 204.06245,3.25 5.0938,5.0937 c 6.6343,-2.0819 -5.0938,-5.0937 -5.0938,-5.0937 z m -158.1562,1.6562 c -18.86993,-0.0705 -30.9375,12.3438 -30.9375,12.3438 l 0.3125,6.2187 c 6.16682,0 35.8125,-11.4063 35.8125,-11.4063 l 0.875,-6.6874 c -2.09214,-0.3022 -4.11056,-0.4608 -6.0625,-0.4688 z m 103.1875,0.0312 c 0,10e-5 -6.9687,5.8272 -3.0937,18.7813 3.8748,12.9541 9.125,20.4063 9.125,20.4063 0,0 -10.0755,-28.5484 -6.0313,-39.1876 z m 27,1.3438 c 3.3309,3.1382 6.3966,7.0723 8.9063,11.625 1.8958,3.4386 3.2929,6.9287 4.25,10.375 l 8.4374,-16.7188 c 1e-4,0 -11.9326,-1.4871 -21.5937,-5.2812 z m -99.21875,16.4375 C 942.97738,899.98418 933.5,911.58098 933.5,911.58098 l 0.1875,5.7812 c 4.85771,0 28.21875,-10.625 28.21875,-10.625 l 0.71875,-6.25 c -1.64819,-0.2819 -3.24338,-0.4305 -4.78125,-0.4375 z m 103.43745,0.8125 c -3.3105,0.1739 -5.5544,2.0216 -5.1562,1.7188 0,-10e-5 2.9955,0.9696 6.1875,4.5937 3.1918,3.6243 4.875,10.7813 4.875,10.7813 0,-10e-5 1.2704,-8.0611 -2.5313,-16.625 -0.943,-0.3012 -1.839,-0.4532 -2.6874,-0.4688 -0.2297,-0.006 -0.4667,-0.0114 -0.6876,0 z m -169.74995,2.1562 c 0,0 -13.4788,3.2058 -5.84375,5.4376 l 5.84375,-5.4376 z m 109.15625,10.125 c -9.75905,0.2753 -5.16613,10.6368 -5.5625,9.8438 0,0 1.61979,-2.8628 6.5312,-4.5 4.9116,-1.6371 13.9376,0.4062 13.9376,0.4062 0,0 -2.8867,-5.3407 -13.9376,-5.75 -0.3451,-0.0126 -0.6539,-0.008 -0.9687,0 z m -39.53125,2.0626 c 0,0 -4.15233,19.9535 16.625,34.0624 20.77742,14.1089 37.37495,17.5313 37.37495,17.5313 10e-5,0 -48.18238,-28.7276 -53.99995,-51.5937 z M 930,919.45598 c 0,0 -10.64036,3.0118 -4.625,5.0937 l 4.625,-5.0937 z"
         id="path7370"
         inkscape:connector-curvature="0" />
    </mask>
  </defs>
  <sodipodi:namedview
     id="base"
     pagecolor="#ffffff"
     bordercolor="#666666"
     borderopacity="1.0"
     inkscape:pageopacity="0.0"
     inkscape:pageshadow="2"
     inkscape:zoom="1"
     inkscape:cx="152.00601"
     inkscape:cy="134.85958"
     inkscape:document-units="px"
     inkscape:current-layer="layer1"
     showgrid="false"
     inkscape:window-width="739"
     inkscape:window-height="553"
     inkscape:window-x="695"
     inkscape:window-y="389"
     inkscape:window-maximized="0" />
  <metadata
     id="metadata4137">
    <rdf:RDF>
      <cc:Work
         rdf:about="">
        <dc:format>image/svg+xml</dc:format>
        <dc:type
           rdf:resource="http://purl.org/dc/dcmitype/StillImage" />
        <dc:title />
      </cc:Work>
    </rdf:RDF>
  </metadata>
  <g
     inkscape:label="Layer 1"
     inkscape:groupmode="layer"
     id="layer1"
     transform="translate(-263.99399,-474.07402)">
    <path
       transform="translate(-594.85723,-243.07542)"
       inkscape:connector-curvature="0"
       id="fred-shadow-3"
       d="m 971.95577,730.92821 c -13.83294,0.2472 -26.62113,16.77129 -26.62113,16.77129 -21.08293,-17.39954 -20.95075,23.34667 -20.95075,23.34667 -19.6131,9.0518 -14.53516,41.15622 -14.53516,41.15622 l 6.12288,1.35766 c -4.91577,9.62938 -7.69348,20.49909 -7.69348,31.99857 0,3.39498 0.25191,6.71339 0.71873,9.98287 -10.37367,1.75733 -30.33734,6.36318 -26.88723,15.33375 l -1.83688,3.70034 c 0,0 -9.25211,3.70136 -7.40062,9.71666 1.1103,3.6072 10.01328,10.83918 16.9842,16.07918 -2.54214,1.00356 -10.58529,4.63662 -8.59863,10.08931 2.3498,6.44555 32.29144,23.7993 32.29144,23.7993 L 898.8809,911.95154 c 0,0 26.30624,-3.09924 35.56578,-11.5269 1.1719,0.96303 2.36135,1.90512 3.59384,2.79518 -5.09656,2.4235 -8.4528,5.6235 -6.8683,9.74331 l -1.86341,3.70034 c 0,0 -9.25211,3.70142 -7.40074,9.71672 1.85155,6.01524 25.44993,22.202 25.44976,22.202 L 935.7777,927.76444 c 0,0 13.08236,-1.81084 22.12208,-6.49554 -0.94945,12.94096 9.52251,28.792 26.8874,38.7869 16.82302,9.6832 35.11322,10.9477 45.97452,4.3659 -5.399,-0.8155 -11.3206,-2.859 -17.0374,-6.1495 -15.2452,-8.77481 -23.49357,-23.05398 -18.42185,-31.86543 5.05475,-8.78199 21.45475,-8.82013 36.65725,-0.13308 -4.5885,-5.93861 -10.9114,-11.47793 -18.5815,-15.89282 -0.3022,-0.1739 -0.602,-0.33721 -0.9051,-0.50579 4.333,-2.07616 8.4173,-4.57777 12.219,-7.42727 0.9194,4.22225 2.5239,8.5993 4.8717,12.85799 3.1008,5.62475 7.0396,10.2743 11.2873,13.68329 -6.1001,-11.14749 -5.881,-23.04418 0.559,-26.59449 6.4616,-3.56224 16.7311,2.63679 22.8941,13.81629 2.3112,4.19231 3.7134,8.50351 4.2328,12.43212 3.3909,-5.36961 4.097,-13.35235 1.9966,-21.82934 3.5586,-2.25132 21.5791,-13.85676 23.4267,-19.3003 2.0417,-6.01524 -8.1728,-9.71666 -8.1728,-9.71666 l -2.0233,-3.70035 c 1.9265,-4.54113 -2.7821,-7.96352 -9.3706,-10.46209 3.5591,-2.7197 6.6027,-5.43563 7.1612,-7.08118 1.485,-4.3789 -5.9632,-7.05454 -5.9632,-7.05454 l -1.4642,-2.68876 c 2.7535,-6.49038 -13.0666,-9.8331 -21.4299,-11.1276 -4.8986,-34.78305 -35.2801,-61.60119 -71.85024,-61.60119 -17.55849,0 -33.69244,6.1725 -46.26757,16.45183 2.34884,-6.67567 3.99326,-12.11262 3.99326,-12.11262 8.69394,1.91363 17.3835,-21.08388 17.3835,-21.08388 7.53508,1.6585 36.81709,-7.6935 36.81709,-7.6935 0,0 9.66606,10.00535 14.34866,2.52901 4.6836,-7.47463 14.3487,0.13311 14.3487,0.13311 -22.33311,-31.04348 -28.45785,-8.7051 -28.45785,-8.7051 l -6.20263,-5.00476 c -4.71349,-5.71832 -9.85136,-7.75629 -14.85465,-7.66688 z m 0.21288,3.30102 c 9.61016,-0.30112 13.12426,8.81179 13.12426,8.81159 -4.40937,2.81965 -33.62233,2.07643 -33.62233,2.07643 8.76403,-8.00403 15.46436,-10.73028 20.49807,-10.88802 z m -32.87696,13.47027 c 2.10304,-0.0655 3.59378,0.71876 3.59378,0.71876 l -10.64844,16.13238 c -2.5707,2.78944 -1.10223,5.95238 0.53248,8.09283 1.27751,1.01865 2.2888,1.96691 2.34262,2.47576 0,0 -1.20758,-0.98986 -2.34262,-2.47576 -2.37554,-1.89435 -5.69682,-4.01978 -5.69682,-4.01978 2.00601,-17.58895 8.20412,-20.79911 12.219,-20.92419 z m -14.50851,27.04701 c -4.709,4.17488 -1.43753,28.08493 -1.43753,28.08523 l -10.54189,4.79179 c -1.49787,-21.1722 11.97942,-32.87702 11.97942,-32.87702 z m 56.06408,9.05121 c 34.79044,0 62.82554,27.6578 62.82574,61.7609 0,0.49245 -0.015,0.97442 -0.026,1.46411 -17.0755,25.24537 -62.52007,9.44481 -88.91443,-9.10437 -25.04705,-17.60248 -34.42535,1.44872 -36.73708,7.77334 -6e-5,-0.0449 0,-0.0884 0,-0.13308 0,-34.1031 28.06181,-61.7609 62.85247,-61.7609 z m -7.61374,39.87835 34.04838,25.98219 c 7.5893,-12.87858 -34.04838,-25.98219 -34.04838,-25.98219 z m 57.15558,2.10304 c -5.9021,-0.18887 -8.1728,24.38495 -8.1728,24.38495 l 10.1161,-23.45322 c -0.6898,-0.60362 -1.3328,-0.91216 -1.9433,-0.93173 z m 22.3084,11.63346 c 11.931,-0.0479 19.5664,8.38563 19.5664,8.38563 l -0.1863,4.20614 c -3.8987,0 -22.6545,-7.74676 -22.6545,-7.74676 l -0.559,-4.55222 c 1.3227,-0.20521 2.5991,-0.28788 3.8334,-0.29279 z m -107.33621,13.3105 c 4.48827,-0.11147 10.8348,4.25935 10.8348,4.25935 55.76681,22.24013 85.29381,0.77201 85.29381,0.77201 -8.2011,20.70509 -88.57151,16.87328 -93.4932,16.10576 -4.92158,-0.76752 -9.00817,-11.5196 -6.54864,-18.42179 0.69204,-1.94123 2.15698,-2.67169 3.91323,-2.71533 z m 129.67121,0.79865 c 0,0 8.5543,2.18613 3.7269,3.70034 l -3.7269,-3.70034 z m -22.0422,1.49074 c 7.2383,3.28991 17.4102,4.55222 17.4102,4.55222 l -2.4758,4.04641 c -5.8452,-1.56066 -11.7101,-2.52699 -15.7064,-3.08804 0.3383,-1.81114 0.5757,-3.65467 0.772,-5.51059 z m -144.17974,4.95157 c 1.53792,0.007 3.11696,0.14398 4.76521,0.42594 l -0.69221,6.22931 c 0,0 -23.36061,10.64846 -28.21832,10.64846 l -0.23969,-5.77681 c 0,0 9.5188,-11.59251 24.38501,-11.5269 z m 145.51084,3.22112 c 16.397,-0.0656 26.8873,11.52691 26.8873,11.52691 l -0.2662,5.7768 c -5.3589,0 -31.1201,-10.62181 -31.1201,-10.62181 l -0.7721,-6.25596 c 1.818,-0.28196 3.5748,-0.41916 5.2711,-0.42594 z m -15.6532,6.5754 c -9.1701,11.79737 -67.00468,29.84046 -68.41623,30.53441 -1.41154,0.69395 -10.56853,-3.47466 -10.56853,-8.33242 0,-4.85776 4.92487,-8.33241 4.92487,-8.33241 11.99037,6.24566 74.05989,-13.86958 74.05989,-13.86958 z m -123.94775,7.24096 c 0.98213,2.13004 2.09231,4.19004 3.2744,6.20268 -13.06986,2.537 -28.49232,7.21193 -24.99719,14.88123 l -0.23963,0.39929 -6.01632,-10.80816 c 0,0 20.63222,-2.85727 27.97874,-10.67504 z m 131.56125,1.41089 c 0.059,0.087 0.098,0.18025 0.1599,0.26622 -0.082,-0.0317 -0.1579,-0.0756 -0.2397,-0.1065 0.026,-0.0533 0.053,-0.1062 0.08,-0.15972 z m -165.31674,0.93173 -4.63213,5.08465 c -6.0153,-2.0819 4.63213,-5.08465 4.63213,-5.08465 z m 204.07714,3.24777 c 0,0 11.7191,3.00274 5.0848,5.08465 l -5.0848,-5.08465 z m -158.18234,1.65052 c 1.95194,0.008 3.97739,0.15044 6.06953,0.45258 l -0.8785,6.70847 c 0,0 -29.63866,11.39382 -35.80548,11.39382 l -0.29274,-6.20267 c 0,0 12.03726,-12.42272 30.90719,-12.3522 z m 103.20984,0.0263 c -4.0442,10.63912 6.0163,39.1862 6.0163,39.1862 0,0 -5.2294,-7.43762 -9.1043,-20.39169 -3.875,-12.95413 3.088,-18.79451 3.088,-18.79451 z m 26.9937,1.35767 c 9.6611,3.79409 21.5896,5.27101 21.5896,5.27101 l -8.4387,16.71804 c -0.957,-3.44633 -2.337,-6.94362 -4.2329,-10.38223 -2.5096,-4.55269 -5.5871,-8.46867 -8.918,-11.60682 z m -99.21669,16.42519 c 1.53787,0.007 3.11697,0.14403 4.76516,0.42593 l -0.69222,6.25596 c 0,0 -23.36054,10.62187 -28.21825,10.62187 l -0.21305,-5.7768 c 0,0 9.49199,-11.59251 24.35836,-11.52696 z m 103.44939,0.82529 c 0.2208,-0.0114 0.4359,-0.006 0.6655,0 0.8484,0.0156 1.7457,0.1514 2.6888,0.45258 3.8016,8.56397 2.529,16.63813 2.529,16.63813 0,0 -1.6798,-7.15728 -4.8716,-10.78153 -3.192,-3.62408 -6.1761,-4.60544 -6.1761,-4.60544 -0.3982,0.30286 1.8538,-1.52983 5.1644,-1.70374 z m -169.7625,2.15632 -5.85661,5.43066 c -7.63505,-2.23174 5.85661,-5.43066 5.85661,-5.43066 z m 109.1464,10.11602 c 0.3148,-0.008 0.6398,-0.0126 0.985,0 11.0509,0.40923 13.9228,5.75016 13.9228,5.75016 0,0 -9.0112,-2.06311 -13.9228,-0.42599 -4.91146,1.63723 -6.54869,4.49898 -6.54869,4.49898 0.39637,0.79303 -4.19536,-9.5479 5.56369,-9.82315 z m -39.53224,2.04982 c 5.81757,22.86618 54.01414,51.59153 54.01414,51.59153 0,0 -16.59859,-3.4077 -37.37601,-17.51657 -20.77733,-14.10891 -16.63813,-34.07496 -16.63813,-34.07496 z m -31.14676,4.25935 -4.63201,5.08465 c -6.01536,-2.08191 4.63201,-5.08465 4.63201,-5.08465 z"
       style="color:#000000;fill:#000000;fill-opacity:1;stroke:none;stroke-width:1;marker:none;visibility:visible;display:inline;overflow:visible;filter:url(#filter7213);enable-background:new"
       mask="url(#mask7368)" />
    <path
       transform="translate(-594.85723,-243.07542)"
       style="color:#000000;fill:#000000;fill-opacity:1;stroke:none;stroke-width:1;marker:none;visibility:visible;display:inline;overflow:visible;filter:url(#filter7213);enable-background:new"
       d="m 971.95577,730.92821 c -13.83294,0.2472 -26.62113,16.77129 -26.62113,16.77129 -21.08293,-17.39954 -20.95075,23.34667 -20.95075,23.34667 -19.6131,9.0518 -14.53516,41.15622 -14.53516,41.15622 l 6.12288,1.35766 c -4.91577,9.62938 -7.69348,20.49909 -7.69348,31.99857 0,3.39498 0.25191,6.71339 0.71873,9.98287 -10.37367,1.75733 -30.33734,6.36318 -26.88723,15.33375 l -1.83688,3.70034 c 0,0 -9.25211,3.70136 -7.40062,9.71666 1.1103,3.6072 10.01328,10.83918 16.9842,16.07918 -2.54214,1.00356 -10.58529,4.63662 -8.59863,10.08931 2.3498,6.44555 32.29144,23.7993 32.29144,23.7993 L 898.8809,911.95154 c 0,0 26.30624,-3.09924 35.56578,-11.5269 1.1719,0.96303 2.36135,1.90512 3.59384,2.79518 -5.09656,2.4235 -8.4528,5.6235 -6.8683,9.74331 l -1.86341,3.70034 c 0,0 -9.25211,3.70142 -7.40074,9.71672 1.85155,6.01524 25.44993,22.202 25.44976,22.202 L 935.7777,927.76444 c 0,0 13.08236,-1.81084 22.12208,-6.49554 -0.94945,12.94096 9.52251,28.792 26.8874,38.7869 16.82302,9.6832 35.11322,10.9477 45.97452,4.3659 -5.399,-0.8155 -11.3206,-2.859 -17.0374,-6.1495 -15.2452,-8.77481 -23.49357,-23.05398 -18.42185,-31.86543 5.05475,-8.78199 21.45475,-8.82013 36.65725,-0.13308 -4.5885,-5.93861 -10.9114,-11.47793 -18.5815,-15.89282 -0.3022,-0.1739 -0.602,-0.33721 -0.9051,-0.50579 4.333,-2.07616 8.4173,-4.57777 12.219,-7.42727 0.9194,4.22225 2.5239,8.5993 4.8717,12.85799 3.1008,5.62475 7.0396,10.2743 11.2873,13.68329 -6.1001,-11.14749 -5.881,-23.04418 0.559,-26.59449 6.4616,-3.56224 16.7311,2.63679 22.8941,13.81629 2.3112,4.19231 3.7134,8.50351 4.2328,12.43212 3.3909,-5.36961 4.097,-13.35235 1.9966,-21.82934 3.5586,-2.25132 21.5791,-13.85676 23.4267,-19.3003 2.0417,-6.01524 -8.1728,-9.71666 -8.1728,-9.71666 l -2.0233,-3.70035 c 1.9265,-4.54113 -2.7821,-7.96352 -9.3706,-10.46209 3.5591,-2.7197 6.6027,-5.43563 7.1612,-7.08118 1.485,-4.3789 -5.9632,-7.05454 -5.9632,-7.05454 l -1.4642,-2.68876 c 2.7535,-6.49038 -13.0666,-9.8331 -21.4299,-11.1276 -4.8986,-34.78305 -35.2801,-61.60119 -71.85024,-61.60119 -17.55849,0 -33.69244,6.1725 -46.26757,16.45183 2.34884,-6.67567 3.99326,-12.11262 3.99326,-12.11262 8.69394,1.91363 17.3835,-21.08388 17.3835,-21.08388 7.53508,1.6585 36.81709,-7.6935 36.81709,-7.6935 0,0 9.66606,10.00535 14.34866,2.52901 4.6836,-7.47463 14.3487,0.13311 14.3487,0.13311 -22.33311,-31.04348 -28.45785,-8.7051 -28.45785,-8.7051 l -6.20263,-5.00476 c -4.71349,-5.71832 -9.85136,-7.75629 -14.85465,-7.66688 z m 0.21288,3.30102 c 9.61016,-0.30112 13.12426,8.81179 13.12426,8.81159 -4.40937,2.81965 -33.62233,2.07643 -33.62233,2.07643 8.76403,-8.00403 15.46436,-10.73028 20.49807,-10.88802 z m -32.87696,13.47027 c 2.10304,-0.0655 3.59378,0.71876 3.59378,0.71876 l -10.64844,16.13238 c -2.5707,2.78944 -1.10223,5.95238 0.53248,8.09283 1.27751,1.01865 2.2888,1.96691 2.34262,2.47576 0,0 -1.20758,-0.98986 -2.34262,-2.47576 -2.37554,-1.89435 -5.69682,-4.01978 -5.69682,-4.01978 2.00601,-17.58895 8.20412,-20.79911 12.219,-20.92419 z m -14.50851,27.04701 c -4.709,4.17488 -1.43753,28.08493 -1.43753,28.08523 l -10.54189,4.79179 c -1.49787,-21.1722 11.97942,-32.87702 11.97942,-32.87702 z m 56.06408,9.05121 c 34.79044,0 62.82554,27.6578 62.82574,61.7609 0,0.49245 -0.015,0.97442 -0.026,1.46411 -17.0755,25.24537 -62.52007,9.44481 -88.91443,-9.10437 -25.04705,-17.60248 -34.42535,1.44872 -36.73708,7.77334 -6e-5,-0.0449 0,-0.0884 0,-0.13308 0,-34.1031 28.06181,-61.7609 62.85247,-61.7609 z m -7.61374,39.87835 34.04838,25.98219 c 7.5893,-12.87858 -34.04838,-25.98219 -34.04838,-25.98219 z m 57.15558,2.10304 c -5.9021,-0.18887 -8.1728,24.38495 -8.1728,24.38495 l 10.1161,-23.45322 c -0.6898,-0.60362 -1.3328,-0.91216 -1.9433,-0.93173 z m 22.3084,11.63346 c 11.931,-0.0479 19.5664,8.38563 19.5664,8.38563 l -0.1863,4.20614 c -3.8987,0 -22.6545,-7.74676 -22.6545,-7.74676 l -0.559,-4.55222 c 1.3227,-0.20521 2.5991,-0.28788 3.8334,-0.29279 z m -107.33621,13.3105 c 4.48827,-0.11147 10.8348,4.25935 10.8348,4.25935 55.76681,22.24013 85.29381,0.77201 85.29381,0.77201 -8.2011,20.70509 -88.57151,16.87328 -93.4932,16.10576 -4.92158,-0.76752 -9.00817,-11.5196 -6.54864,-18.42179 0.69204,-1.94123 2.15698,-2.67169 3.91323,-2.71533 z m 129.67121,0.79865 c 0,0 8.5543,2.18613 3.7269,3.70034 l -3.7269,-3.70034 z m -22.0422,1.49074 c 7.2383,3.28991 17.4102,4.55222 17.4102,4.55222 l -2.4758,4.04641 c -5.8452,-1.56066 -11.7101,-2.52699 -15.7064,-3.08804 0.3383,-1.81114 0.5757,-3.65467 0.772,-5.51059 z m -144.17974,4.95157 c 1.53792,0.007 3.11696,0.14398 4.76521,0.42594 l -0.69221,6.22931 c 0,0 -23.36061,10.64846 -28.21832,10.64846 l -0.23969,-5.77681 c 0,0 9.5188,-11.59251 24.38501,-11.5269 z m 145.51084,3.22112 c 16.397,-0.0656 26.8873,11.52691 26.8873,11.52691 l -0.2662,5.7768 c -5.3589,0 -31.1201,-10.62181 -31.1201,-10.62181 l -0.7721,-6.25596 c 1.818,-0.28196 3.5748,-0.41916 5.2711,-0.42594 z m -15.6532,6.5754 c -9.1701,11.79737 -67.00468,29.84046 -68.41623,30.53441 -1.41154,0.69395 -10.56853,-3.47466 -10.56853,-8.33242 0,-4.85776 4.92487,-8.33241 4.92487,-8.33241 11.99037,6.24566 74.05989,-13.86958 74.05989,-13.86958 z m -123.94775,7.24096 c 0.98213,2.13004 2.09231,4.19004 3.2744,6.20268 -13.06986,2.537 -28.49232,7.21193 -24.99719,14.88123 l -0.23963,0.39929 -6.01632,-10.80816 c 0,0 20.63222,-2.85727 27.97874,-10.67504 z m 131.56125,1.41089 c 0.059,0.087 0.098,0.18025 0.1599,0.26622 -0.082,-0.0317 -0.1579,-0.0756 -0.2397,-0.1065 0.026,-0.0533 0.053,-0.1062 0.08,-0.15972 z m -165.31674,0.93173 -4.63213,5.08465 c -6.0153,-2.0819 4.63213,-5.08465 4.63213,-5.08465 z m 204.07714,3.24777 c 0,0 11.7191,3.00274 5.0848,5.08465 l -5.0848,-5.08465 z m -158.18234,1.65052 c 1.95194,0.008 3.97739,0.15044 6.06953,0.45258 l -0.8785,6.70847 c 0,0 -29.63866,11.39382 -35.80548,11.39382 l -0.29274,-6.20267 c 0,0 12.03726,-12.42272 30.90719,-12.3522 z m 103.20984,0.0263 c -4.0442,10.63912 6.0163,39.1862 6.0163,39.1862 0,0 -5.2294,-7.43762 -9.1043,-20.39169 -3.875,-12.95413 3.088,-18.79451 3.088,-18.79451 z m 26.9937,1.35767 c 9.6611,3.79409 21.5896,5.27101 21.5896,5.27101 l -8.4387,16.71804 c -0.957,-3.44633 -2.337,-6.94362 -4.2329,-10.38223 -2.5096,-4.55269 -5.5871,-8.46867 -8.918,-11.60682 z m -99.21669,16.42519 c 1.53787,0.007 3.11697,0.14403 4.76516,0.42593 l -0.69222,6.25596 c 0,0 -23.36054,10.62187 -28.21825,10.62187 l -0.21305,-5.7768 c 0,0 9.49199,-11.59251 24.35836,-11.52696 z m 103.44939,0.82529 c 0.2208,-0.0114 0.4359,-0.006 0.6655,0 0.8484,0.0156 1.7457,0.1514 2.6888,0.45258 3.8016,8.56397 2.529,16.63813 2.529,16.63813 0,0 -1.6798,-7.15728 -4.8716,-10.78153 -3.192,-3.62408 -6.1761,-4.60544 -6.1761,-4.60544 -0.3982,0.30286 1.8538,-1.52983 5.1644,-1.70374 z m -169.7625,2.15632 -5.85661,5.43066 c -7.63505,-2.23174 5.85661,-5.43066 5.85661,-5.43066 z m 109.1464,10.11602 c 0.3148,-0.008 0.6398,-0.0126 0.985,0 11.0509,0.40923 13.9228,5.75016 13.9228,5.75016 0,0 -9.0112,-2.06311 -13.9228,-0.42599 -4.91146,1.63723 -6.54869,4.49898 -6.54869,4.49898 0.39637,0.79303 -4.19536,-9.5479 5.56369,-9.82315 z m -39.53224,2.04982 c 5.81757,22.86618 54.01414,51.59153 54.01414,51.59153 0,0 -16.59859,-3.4077 -37.37601,-17.51657 -20.77733,-14.10891 -16.63813,-34.07496 -16.63813,-34.07496 z m -31.14676,4.25935 -4.63201,5.08465 c -6.01536,-2.08191 4.63201,-5.08465 4.63201,-5.08465 z"
       id="fred-shadow-2"
       inkscape:connector-curvature="0"
       mask="url(#mask7364)" />
    <path
       transform="translate(-594.85723,-243.07542)"
       inkscape:connector-curvature="0"
       id="fred-shadow-1"
       d="m 971.95577,730.92821 c -13.83294,0.2472 -26.62113,16.77129 -26.62113,16.77129 -21.08293,-17.39954 -20.95075,23.34667 -20.95075,23.34667 -19.6131,9.0518 -14.53516,41.15622 -14.53516,41.15622 l 6.12288,1.35766 c -4.91577,9.62938 -7.69348,20.49909 -7.69348,31.99857 0,3.39498 0.25191,6.71339 0.71873,9.98287 -10.37367,1.75733 -30.33734,6.36318 -26.88723,15.33375 l -1.83688,3.70034 c 0,0 -9.25211,3.70136 -7.40062,9.71666 1.1103,3.6072 10.01328,10.83918 16.9842,16.07918 -2.54214,1.00356 -10.58529,4.63662 -8.59863,10.08931 2.3498,6.44555 32.29144,23.7993 32.29144,23.7993 L 898.8809,911.95154 c 0,0 26.30624,-3.09924 35.56578,-11.5269 1.1719,0.96303 2.36135,1.90512 3.59384,2.79518 -5.09656,2.4235 -8.4528,5.6235 -6.8683,9.74331 l -1.86341,3.70034 c 0,0 -9.25211,3.70142 -7.40074,9.71672 1.85155,6.01524 25.44993,22.202 25.44976,22.202 L 935.7777,927.76444 c 0,0 13.08236,-1.81084 22.12208,-6.49554 -0.94945,12.94096 9.52251,28.792 26.8874,38.7869 16.82302,9.6832 35.11322,10.9477 45.97452,4.3659 -5.399,-0.8155 -11.3206,-2.859 -17.0374,-6.1495 -15.2452,-8.77481 -23.49357,-23.05398 -18.42185,-31.86543 5.05475,-8.78199 21.45475,-8.82013 36.65725,-0.13308 -4.5885,-5.93861 -10.9114,-11.47793 -18.5815,-15.89282 -0.3022,-0.1739 -0.602,-0.33721 -0.9051,-0.50579 4.333,-2.07616 8.4173,-4.57777 12.219,-7.42727 0.9194,4.22225 2.5239,8.5993 4.8717,12.85799 3.1008,5.62475 7.0396,10.2743 11.2873,13.68329 -6.1001,-11.14749 -5.881,-23.04418 0.559,-26.59449 6.4616,-3.56224 16.7311,2.63679 22.8941,13.81629 2.3112,4.19231 3.7134,8.50351 4.2328,12.43212 3.3909,-5.36961 4.097,-13.35235 1.9966,-21.82934 3.5586,-2.25132 21.5791,-13.85676 23.4267,-19.3003 2.0417,-6.01524 -8.1728,-9.71666 -8.1728,-9.71666 l -2.0233,-3.70035 c 1.9265,-4.54113 -2.7821,-7.96352 -9.3706,-10.46209 3.5591,-2.7197 6.6027,-5.43563 7.1612,-7.08118 1.485,-4.3789 -5.9632,-7.05454 -5.9632,-7.05454 l -1.4642,-2.68876 c 2.7535,-6.49038 -13.0666,-9.8331 -21.4299,-11.1276 -4.8986,-34.78305 -35.2801,-61.60119 -71.85024,-61.60119 -17.55849,0 -33.69244,6.1725 -46.26757,16.45183 2.34884,-6.67567 3.99326,-12.11262 3.99326,-12.11262 8.69394,1.91363 17.3835,-21.08388 17.3835,-21.08388 7.53508,1.6585 36.81709,-7.6935 36.81709,-7.6935 0,0 9.66606,10.00535 14.34866,2.52901 4.6836,-7.47463 14.3487,0.13311 14.3487,0.13311 -22.33311,-31.04348 -28.45785,-8.7051 -28.45785,-8.7051 l -6.20263,-5.00476 c -4.71349,-5.71832 -9.85136,-7.75629 -14.85465,-7.66688 z m 0.21288,3.30102 c 9.61016,-0.30112 13.12426,8.81179 13.12426,8.81159 -4.40937,2.81965 -33.62233,2.07643 -33.62233,2.07643 8.76403,-8.00403 15.46436,-10.73028 20.49807,-10.88802 z m -32.87696,13.47027 c 2.10304,-0.0655 3.59378,0.71876 3.59378,0.71876 l -10.64844,16.13238 c -2.5707,2.78944 -1.10223,5.95238 0.53248,8.09283 1.27751,1.01865 2.2888,1.96691 2.34262,2.47576 0,0 -1.20758,-0.98986 -2.34262,-2.47576 -2.37554,-1.89435 -5.69682,-4.01978 -5.69682,-4.01978 2.00601,-17.58895 8.20412,-20.79911 12.219,-20.92419 z m -14.50851,27.04701 c -4.709,4.17488 -1.43753,28.08493 -1.43753,28.08523 l -10.54189,4.79179 c -1.49787,-21.1722 11.97942,-32.87702 11.97942,-32.87702 z m 56.06408,9.05121 c 34.79044,0 62.82554,27.6578 62.82574,61.7609 0,0.49245 -0.015,0.97442 -0.026,1.46411 -17.0755,25.24537 -62.52007,9.44481 -88.91443,-9.10437 -25.04705,-17.60248 -34.42535,1.44872 -36.73708,7.77334 -6e-5,-0.0449 0,-0.0884 0,-0.13308 0,-34.1031 28.06181,-61.7609 62.85247,-61.7609 z m -7.61374,39.87835 34.04838,25.98219 c 7.5893,-12.87858 -34.04838,-25.98219 -34.04838,-25.98219 z m 57.15558,2.10304 c -5.9021,-0.18887 -8.1728,24.38495 -8.1728,24.38495 l 10.1161,-23.45322 c -0.6898,-0.60362 -1.3328,-0.91216 -1.9433,-0.93173 z m 22.3084,11.63346 c 11.931,-0.0479 19.5664,8.38563 19.5664,8.38563 l -0.1863,4.20614 c -3.8987,0 -22.6545,-7.74676 -22.6545,-7.74676 l -0.559,-4.55222 c 1.3227,-0.20521 2.5991,-0.28788 3.8334,-0.29279 z m -107.33621,13.3105 c 4.48827,-0.11147 10.8348,4.25935 10.8348,4.25935 55.76681,22.24013 85.29381,0.77201 85.29381,0.77201 -8.2011,20.70509 -88.57151,16.87328 -93.4932,16.10576 -4.92158,-0.76752 -9.00817,-11.5196 -6.54864,-18.42179 0.69204,-1.94123 2.15698,-2.67169 3.91323,-2.71533 z m 129.67121,0.79865 c 0,0 8.5543,2.18613 3.7269,3.70034 l -3.7269,-3.70034 z m -22.0422,1.49074 c 7.2383,3.28991 17.4102,4.55222 17.4102,4.55222 l -2.4758,4.04641 c -5.8452,-1.56066 -11.7101,-2.52699 -15.7064,-3.08804 0.3383,-1.81114 0.5757,-3.65467 0.772,-5.51059 z m -144.17974,4.95157 c 1.53792,0.007 3.11696,0.14398 4.76521,0.42594 l -0.69221,6.22931 c 0,0 -23.36061,10.64846 -28.21832,10.64846 l -0.23969,-5.77681 c 0,0 9.5188,-11.59251 24.38501,-11.5269 z m 145.51084,3.22112 c 16.397,-0.0656 26.8873,11.52691 26.8873,11.52691 l -0.2662,5.7768 c -5.3589,0 -31.1201,-10.62181 -31.1201,-10.62181 l -0.7721,-6.25596 c 1.818,-0.28196 3.5748,-0.41916 5.2711,-0.42594 z m -15.6532,6.5754 c -9.1701,11.79737 -67.00468,29.84046 -68.41623,30.53441 -1.41154,0.69395 -10.56853,-3.47466 -10.56853,-8.33242 0,-4.85776 4.92487,-8.33241 4.92487,-8.33241 11.99037,6.24566 74.05989,-13.86958 74.05989,-13.86958 z m -123.94775,7.24096 c 0.98213,2.13004 2.09231,4.19004 3.2744,6.20268 -13.06986,2.537 -28.49232,7.21193 -24.99719,14.88123 l -0.23963,0.39929 -6.01632,-10.80816 c 0,0 20.63222,-2.85727 27.97874,-10.67504 z m 131.56125,1.41089 c 0.059,0.087 0.098,0.18025 0.1599,0.26622 -0.082,-0.0317 -0.1579,-0.0756 -0.2397,-0.1065 0.026,-0.0533 0.053,-0.1062 0.08,-0.15972 z m -165.31674,0.93173 -4.63213,5.08465 c -6.0153,-2.0819 4.63213,-5.08465 4.63213,-5.08465 z m 204.07714,3.24777 c 0,0 11.7191,3.00274 5.0848,5.08465 l -5.0848,-5.08465 z m -158.18234,1.65052 c 1.95194,0.008 3.97739,0.15044 6.06953,0.45258 l -0.8785,6.70847 c 0,0 -29.63866,11.39382 -35.80548,11.39382 l -0.29274,-6.20267 c 0,0 12.03726,-12.42272 30.90719,-12.3522 z m 103.20984,0.0263 c -4.0442,10.63912 6.0163,39.1862 6.0163,39.1862 0,0 -5.2294,-7.43762 -9.1043,-20.39169 -3.875,-12.95413 3.088,-18.79451 3.088,-18.79451 z m 26.9937,1.35767 c 9.6611,3.79409 21.5896,5.27101 21.5896,5.27101 l -8.4387,16.71804 c -0.957,-3.44633 -2.337,-6.94362 -4.2329,-10.38223 -2.5096,-4.55269 -5.5871,-8.46867 -8.918,-11.60682 z m -99.21669,16.42519 c 1.53787,0.007 3.11697,0.14403 4.76516,0.42593 l -0.69222,6.25596 c 0,0 -23.36054,10.62187 -28.21825,10.62187 l -0.21305,-5.7768 c 0,0 9.49199,-11.59251 24.35836,-11.52696 z m 103.44939,0.82529 c 0.2208,-0.0114 0.4359,-0.006 0.6655,0 0.8484,0.0156 1.7457,0.1514 2.6888,0.45258 3.8016,8.56397 2.529,16.63813 2.529,16.63813 0,0 -1.6798,-7.15728 -4.8716,-10.78153 -3.192,-3.62408 -6.1761,-4.60544 -6.1761,-4.60544 -0.3982,0.30286 1.8538,-1.52983 5.1644,-1.70374 z m -169.7625,2.15632 -5.85661,5.43066 c -7.63505,-2.23174 5.85661,-5.43066 5.85661,-5.43066 z m 109.1464,10.11602 c 0.3148,-0.008 0.6398,-0.0126 0.985,0 11.0509,0.40923 13.9228,5.75016 13.9228,5.75016 0,0 -9.0112,-2.06311 -13.9228,-0.42599 -4.91146,1.63723 -6.54869,4.49898 -6.54869,4.49898 0.39637,0.79303 -4.19536,-9.5479 5.56369,-9.82315 z m -39.53224,2.04982 c 5.81757,22.86618 54.01414,51.59153 54.01414,51.59153 0,0 -16.59859,-3.4077 -37.37601,-17.51657 -20.77733,-14.10891 -16.63813,-34.07496 -16.63813,-34.07496 z m -31.14676,4.25935 -4.63201,5.08465 c -6.01536,-2.08191 4.63201,-5.08465 4.63201,-5.08465 z"
       style="color:#000000;fill:#000000;fill-opacity:1;stroke:none;stroke-width:1;marker:none;visibility:visible;display:inline;overflow:visible;filter:url(#filter7213);enable-background:new"
       mask="url(#mask7360)" />
    <path
       style="opacity:0.25;color:#000000;fill:#ffffff;fill-opacity:1;stroke:none;stroke-width:1.5;marker:none;visibility:visible;display:inline;overflow:visible;enable-background:new"
       d="m 377.09854,487.85279 c -13.83294,0.2472 -26.62113,16.77129 -26.62113,16.77129 -21.08293,-17.39954 -20.95075,23.34667 -20.95075,23.34667 -19.6131,9.0518 -14.53516,41.15622 -14.53516,41.15622 l 6.12288,1.35766 c -4.91577,9.62938 -7.69348,20.49909 -7.69348,31.99857 0,3.39498 0.25191,6.71339 0.71873,9.98287 -10.37367,1.75733 -30.33734,6.36318 -26.88723,15.33375 l -1.83688,3.70034 c 0,0 -9.25211,3.70136 -7.40062,9.71666 1.1103,3.6072 10.01328,10.83918 16.9842,16.07918 -2.54214,1.00356 -10.58529,4.63662 -8.59863,10.08931 2.3498,6.44555 32.29144,23.7993 32.29144,23.7993 l -14.66824,-22.30849 c 0,0 26.30624,-3.09924 35.56578,-11.5269 1.1719,0.96303 2.36135,1.90512 3.59384,2.79518 -5.09656,2.4235 -8.4528,5.6235 -6.8683,9.74331 l -1.86341,3.70034 c 0,0 -9.25211,3.70142 -7.40074,9.71672 1.85155,6.01524 25.44993,22.202 25.44976,22.202 l -11.58013,-20.81775 c 0,0 13.08236,-1.81084 22.12208,-6.49554 -0.94945,12.94096 9.52251,28.792 26.8874,38.7869 16.82302,9.6832 35.11322,10.9477 45.97452,4.3659 -5.399,-0.8155 -11.3206,-2.859 -17.0374,-6.1495 -15.2452,-8.77481 -23.49357,-23.05398 -18.42185,-31.86543 5.05475,-8.78199 21.45475,-8.82013 36.65725,-0.13308 -4.5885,-5.93861 -10.9114,-11.47793 -18.5815,-15.89282 -0.3022,-0.1739 -0.602,-0.33721 -0.9051,-0.50579 4.333,-2.07616 8.4173,-4.57777 12.219,-7.42727 0.9194,4.22225 2.5239,8.5993 4.8717,12.85799 3.1008,5.62475 7.0396,10.2743 11.2873,13.68329 -6.1001,-11.14749 -5.881,-23.04418 0.559,-26.59449 6.4616,-3.56224 16.7311,2.63679 22.8941,13.81629 2.3112,4.19231 3.7134,8.50351 4.2328,12.43212 3.3909,-5.36961 4.097,-13.35235 1.9966,-21.82934 3.5586,-2.25132 21.5791,-13.85676 23.4267,-19.3003 2.0417,-6.01524 -8.1728,-9.71666 -8.1728,-9.71666 l -2.0233,-3.70035 c 1.9265,-4.54113 -2.7821,-7.96352 -9.3706,-10.46209 3.5591,-2.7197 6.6027,-5.43563 7.1612,-7.08118 1.485,-4.3789 -5.9632,-7.05454 -5.9632,-7.05454 l -1.4642,-2.68876 c 2.7535,-6.49038 -13.0666,-9.8331 -21.4299,-11.1276 -4.8986,-34.78305 -35.2801,-61.60119 -71.85024,-61.60119 -17.55849,0 -33.69244,6.1725 -46.26757,16.45183 2.34884,-6.67567 3.99326,-12.11262 3.99326,-12.11262 8.69394,1.91363 17.3835,-21.08388 17.3835,-21.08388 7.53508,1.6585 36.81709,-7.6935 36.81709,-7.6935 0,0 9.66606,10.00535 14.34866,2.52901 4.6836,-7.47463 14.3487,0.13311 14.3487,0.13311 -22.33311,-31.04348 -28.45785,-8.7051 -28.45785,-8.7051 l -6.20263,-5.00476 c -4.71349,-5.71832 -9.85136,-7.75629 -14.85465,-7.66688 z m 0.21288,3.30102 c 9.61016,-0.30112 13.12426,8.81179 13.12426,8.81159 -4.40937,2.81965 -33.62233,2.07643 -33.62233,2.07643 8.76403,-8.00403 15.46436,-10.73028 20.49807,-10.88802 z m -32.87696,13.47027 c 2.10304,-0.0655 3.59378,0.71876 3.59378,0.71876 l -10.64844,16.13238 c -2.5707,2.78944 -1.10223,5.95238 0.53248,8.09283 1.27751,1.01865 2.2888,1.96691 2.34262,2.47576 0,0 -1.20758,-0.98986 -2.34262,-2.47576 -2.37554,-1.89435 -5.69682,-4.01978 -5.69682,-4.01978 2.00601,-17.58895 8.20412,-20.79911 12.219,-20.92419 z m -14.50851,27.04701 c -4.709,4.17488 -1.43753,28.08493 -1.43753,28.08523 l -10.54189,4.79179 c -1.49787,-21.1722 11.97942,-32.87702 11.97942,-32.87702 z m 56.06408,9.05121 c 34.79044,0 62.82554,27.6578 62.82574,61.7609 0,0.49245 -0.015,0.97442 -0.026,1.46411 -17.0755,25.24537 -62.52007,9.44481 -88.91443,-9.10437 -25.04705,-17.60248 -34.42535,1.44872 -36.73708,7.77334 -6e-5,-0.0449 0,-0.0884 0,-0.13308 0,-34.1031 28.06181,-61.7609 62.85247,-61.7609 z m -7.61374,39.87835 34.04838,25.98219 c 7.5893,-12.87858 -34.04838,-25.98219 -34.04838,-25.98219 z m 57.15558,2.10304 c -5.9021,-0.18887 -8.1728,24.38495 -8.1728,24.38495 l 10.1161,-23.45322 c -0.6898,-0.60362 -1.3328,-0.91216 -1.9433,-0.93173 z m 22.3084,11.63346 c 11.931,-0.0479 19.5664,8.38563 19.5664,8.38563 l -0.1863,4.20614 c -3.8987,0 -22.6545,-7.74676 -22.6545,-7.74676 l -0.559,-4.55222 c 1.3227,-0.20521 2.5991,-0.28788 3.8334,-0.29279 z m -107.33621,13.3105 c 4.48827,-0.11147 10.8348,4.25935 10.8348,4.25935 55.76681,22.24013 85.29381,0.77201 85.29381,0.77201 -8.2011,20.70509 -88.57151,16.87328 -93.4932,16.10576 -4.92158,-0.76752 -9.00817,-11.5196 -6.54864,-18.42179 0.69204,-1.94123 2.15698,-2.67169 3.91323,-2.71533 z m 129.67121,0.79865 c 0,0 8.5543,2.18613 3.7269,3.70034 l -3.7269,-3.70034 z m -22.0422,1.49074 c 7.2383,3.28991 17.4102,4.55222 17.4102,4.55222 l -2.4758,4.04641 c -5.8452,-1.56066 -11.7101,-2.52699 -15.7064,-3.08804 0.3383,-1.81114 0.5757,-3.65467 0.772,-5.51059 z m -144.17974,4.95157 c 1.53792,0.007 3.11696,0.14398 4.76521,0.42594 l -0.69221,6.22931 c 0,0 -23.36061,10.64846 -28.21832,10.64846 l -0.23969,-5.77681 c 0,0 9.5188,-11.59251 24.38501,-11.5269 z m 145.51084,3.22112 c 16.397,-0.0656 26.8873,11.52691 26.8873,11.52691 l -0.2662,5.7768 c -5.3589,0 -31.1201,-10.62181 -31.1201,-10.62181 l -0.7721,-6.25596 c 1.818,-0.28196 3.5748,-0.41916 5.2711,-0.42594 z m -15.6532,6.5754 c -9.1701,11.79737 -67.00468,29.84046 -68.41623,30.53441 -1.41154,0.69395 -10.56853,-3.47466 -10.56853,-8.33242 0,-4.85776 4.92487,-8.33241 4.92487,-8.33241 11.99037,6.24566 74.05989,-13.86958 74.05989,-13.86958 z m -123.94775,7.24096 c 0.98213,2.13004 2.09231,4.19004 3.2744,6.20268 -13.06986,2.537 -28.49232,7.21193 -24.99719,14.88123 l -0.23963,0.39929 -6.01632,-10.80816 c 0,0 20.63222,-2.85727 27.97874,-10.67504 z m 131.56125,1.41089 c 0.059,0.087 0.098,0.18025 0.1599,0.26622 -0.082,-0.0317 -0.1579,-0.0756 -0.2397,-0.1065 0.026,-0.0533 0.053,-0.1062 0.08,-0.15972 z m -165.31674,0.93173 -4.63213,5.08465 c -6.0153,-2.0819 4.63213,-5.08465 4.63213,-5.08465 z m 204.07714,3.24777 c 0,0 11.7191,3.00274 5.0848,5.08465 l -5.0848,-5.08465 z M 332.00253,639.167 c 1.95194,0.008 3.97739,0.15044 6.06953,0.45258 l -0.8785,6.70847 c 0,0 -29.63866,11.39382 -35.80548,11.39382 l -0.29274,-6.20267 c 0,0 12.03726,-12.42272 30.90719,-12.3522 z m 103.20984,0.0263 c -4.0442,10.63912 6.0163,39.1862 6.0163,39.1862 0,0 -5.2294,-7.43762 -9.1043,-20.39169 -3.875,-12.95413 3.088,-18.79451 3.088,-18.79451 z m 26.9937,1.35767 c 9.6611,3.79409 21.5896,5.27101 21.5896,5.27101 l -8.4387,16.71804 c -0.957,-3.44633 -2.337,-6.94362 -4.2329,-10.38223 -2.5096,-4.55269 -5.5871,-8.46867 -8.918,-11.60682 z m -99.21669,16.42519 c 1.53787,0.007 3.11697,0.14403 4.76516,0.42593 l -0.69222,6.25596 c 0,0 -23.36054,10.62187 -28.21825,10.62187 l -0.21305,-5.7768 c 0,0 9.49199,-11.59251 24.35836,-11.52696 z m 103.44939,0.82529 c 0.2208,-0.0114 0.4359,-0.006 0.6655,0 0.8484,0.0156 1.7457,0.1514 2.6888,0.45258 3.8016,8.56397 2.529,16.63813 2.529,16.63813 0,0 -1.6798,-7.15728 -4.8716,-10.78153 -3.192,-3.62408 -6.1761,-4.60544 -6.1761,-4.60544 -0.3982,0.30286 1.8538,-1.52983 5.1644,-1.70374 z m -169.7625,2.15632 -5.85661,5.43066 c -7.63505,-2.23174 5.85661,-5.43066 5.85661,-5.43066 z m 109.1464,10.11602 c 0.3148,-0.008 0.6398,-0.0126 0.985,0 11.0509,0.40923 13.9228,5.75016 13.9228,5.75016 0,0 -9.0112,-2.06311 -13.9228,-0.42599 -4.91146,1.63723 -6.54869,4.49898 -6.54869,4.49898 0.39637,0.79303 -4.19536,-9.5479 5.56369,-9.82315 z m -39.53224,2.04982 c 5.81757,22.86618 54.01414,51.59153 54.01414,51.59153 0,0 -16.59859,-3.4077 -37.37601,-17.51657 -20.77733,-14.10891 -16.63813,-34.07496 -16.63813,-34.07496 z m -31.14676,4.25935 -4.63201,5.08465 c -6.01536,-2.08191 4.63201,-5.08465 4.63201,-5.08465 z"
       id="fred"
       inkscape:connector-curvature="0" />
    <path
       transform="translate(-594.85723,-243.07542)"
       inkscape:connector-curvature="0"
       id="fred-top-mask"
       d="m 971.95577,730.92821 c -13.83294,0.2472 -26.62113,16.77129 -26.62113,16.77129 -21.08293,-17.39954 -20.95075,23.34667 -20.95075,23.34667 -19.6131,9.0518 -14.53516,41.15622 -14.53516,41.15622 l 6.12288,1.35766 c -4.91577,9.62938 -7.69348,20.49909 -7.69348,31.99857 0,3.39498 0.25191,6.71339 0.71873,9.98287 -10.37367,1.75733 -30.33734,6.36318 -26.88723,15.33375 l -1.83688,3.70034 c 0,0 -9.25211,3.70136 -7.40062,9.71666 1.1103,3.6072 10.01328,10.83918 16.9842,16.07918 -2.54214,1.00356 -10.58529,4.63662 -8.59863,10.08931 2.3498,6.44555 32.29144,23.7993 32.29144,23.7993 L 898.8809,911.95154 c 0,0 26.30624,-3.09924 35.56578,-11.5269 1.1719,0.96303 2.36135,1.90512 3.59384,2.79518 -5.09656,2.4235 -8.4528,5.6235 -6.8683,9.74331 l -1.86341,3.70034 c 0,0 -9.25211,3.70142 -7.40074,9.71672 1.85155,6.01524 25.44993,22.202 25.44976,22.202 L 935.7777,927.76444 c 0,0 13.08236,-1.81084 22.12208,-6.49554 -0.94945,12.94096 9.52251,28.792 26.8874,38.7869 16.82302,9.6832 35.11322,10.9477 45.97452,4.3659 -5.399,-0.8155 -11.3206,-2.859 -17.0374,-6.1495 -15.2452,-8.77481 -23.49357,-23.05398 -18.42185,-31.86543 5.05475,-8.78199 21.45475,-8.82013 36.65725,-0.13308 -4.5885,-5.93861 -10.9114,-11.47793 -18.5815,-15.89282 -0.3022,-0.1739 -0.602,-0.33721 -0.9051,-0.50579 4.333,-2.07616 8.4173,-4.57777 12.219,-7.42727 0.9194,4.22225 2.5239,8.5993 4.8717,12.85799 3.1008,5.62475 7.0396,10.2743 11.2873,13.68329 -6.1001,-11.14749 -5.881,-23.04418 0.559,-26.59449 6.4616,-3.56224 16.7311,2.63679 22.8941,13.81629 2.3112,4.19231 3.7134,8.50351 4.2328,12.43212 3.3909,-5.36961 4.097,-13.35235 1.9966,-21.82934 3.5586,-2.25132 21.5791,-13.85676 23.4267,-19.3003 2.0417,-6.01524 -8.1728,-9.71666 -8.1728,-9.71666 l -2.0233,-3.70035 c 1.9265,-4.54113 -2.7821,-7.96352 -9.3706,-10.46209 3.5591,-2.7197 6.6027,-5.43563 7.1612,-7.08118 1.485,-4.3789 -5.9632,-7.05454 -5.9632,-7.05454 l -1.4642,-2.68876 c 2.7535,-6.49038 -13.0666,-9.8331 -21.4299,-11.1276 -4.8986,-34.78305 -35.2801,-61.60119 -71.85024,-61.60119 -17.55849,0 -33.69244,6.1725 -46.26757,16.45183 2.34884,-6.67567 3.99326,-12.11262 3.99326,-12.11262 8.69394,1.91363 17.3835,-21.08388 17.3835,-21.08388 7.53508,1.6585 36.81709,-7.6935 36.81709,-7.6935 0,0 9.66606,10.00535 14.34866,2.52901 4.6836,-7.47463 14.3487,0.13311 14.3487,0.13311 -22.33311,-31.04348 -28.45785,-8.7051 -28.45785,-8.7051 l -6.20263,-5.00476 c -4.71349,-5.71832 -9.85136,-7.75629 -14.85465,-7.66688 z m 0.21288,3.30102 c 9.61016,-0.30112 13.12426,8.81179 13.12426,8.81159 -4.40937,2.81965 -33.62233,2.07643 -33.62233,2.07643 8.76403,-8.00403 15.46436,-10.73028 20.49807,-10.88802 z m -32.87696,13.47027 c 2.10304,-0.0655 3.59378,0.71876 3.59378,0.71876 l -10.64844,16.13238 c -2.5707,2.78944 -1.10223,5.95238 0.53248,8.09283 1.27751,1.01865 2.2888,1.96691 2.34262,2.47576 0,0 -1.20758,-0.98986 -2.34262,-2.47576 -2.37554,-1.89435 -5.69682,-4.01978 -5.69682,-4.01978 2.00601,-17.58895 8.20412,-20.79911 12.219,-20.92419 z m -14.50851,27.04701 c -4.709,4.17488 -1.43753,28.08493 -1.43753,28.08523 l -10.54189,4.79179 c -1.49787,-21.1722 11.97942,-32.87702 11.97942,-32.87702 z m 56.06408,9.05121 c 34.79044,0 62.82554,27.6578 62.82574,61.7609 0,0.49245 -0.015,0.97442 -0.026,1.46411 -17.0755,25.24537 -62.52007,9.44481 -88.91443,-9.10437 -25.04705,-17.60248 -34.42535,1.44872 -36.73708,7.77334 -6e-5,-0.0449 0,-0.0884 0,-0.13308 0,-34.1031 28.06181,-61.7609 62.85247,-61.7609 z m -7.61374,39.87835 34.04838,25.98219 c 7.5893,-12.87858 -34.04838,-25.98219 -34.04838,-25.98219 z m 57.15558,2.10304 c -5.9021,-0.18887 -8.1728,24.38495 -8.1728,24.38495 l 10.1161,-23.45322 c -0.6898,-0.60362 -1.3328,-0.91216 -1.9433,-0.93173 z m 22.3084,11.63346 c 11.931,-0.0479 19.5664,8.38563 19.5664,8.38563 l -0.1863,4.20614 c -3.8987,0 -22.6545,-7.74676 -22.6545,-7.74676 l -0.559,-4.55222 c 1.3227,-0.20521 2.5991,-0.28788 3.8334,-0.29279 z m -107.33621,13.3105 c 4.48827,-0.11147 10.8348,4.25935 10.8348,4.25935 55.76681,22.24013 85.29381,0.77201 85.29381,0.77201 -8.2011,20.70509 -88.57151,16.87328 -93.4932,16.10576 -4.92158,-0.76752 -9.00817,-11.5196 -6.54864,-18.42179 0.69204,-1.94123 2.15698,-2.67169 3.91323,-2.71533 z m 129.67121,0.79865 c 0,0 8.5543,2.18613 3.7269,3.70034 l -3.7269,-3.70034 z m -22.0422,1.49074 c 7.2383,3.28991 17.4102,4.55222 17.4102,4.55222 l -2.4758,4.04641 c -5.8452,-1.56066 -11.7101,-2.52699 -15.7064,-3.08804 0.3383,-1.81114 0.5757,-3.65467 0.772,-5.51059 z m -144.17974,4.95157 c 1.53792,0.007 3.11696,0.14398 4.76521,0.42594 l -0.69221,6.22931 c 0,0 -23.36061,10.64846 -28.21832,10.64846 l -0.23969,-5.77681 c 0,0 9.5188,-11.59251 24.38501,-11.5269 z m 145.51084,3.22112 c 16.397,-0.0656 26.8873,11.52691 26.8873,11.52691 l -0.2662,5.7768 c -5.3589,0 -31.1201,-10.62181 -31.1201,-10.62181 l -0.7721,-6.25596 c 1.818,-0.28196 3.5748,-0.41916 5.2711,-0.42594 z m -15.6532,6.5754 c -9.1701,11.79737 -67.00468,29.84046 -68.41623,30.53441 -1.41154,0.69395 -10.56853,-3.47466 -10.56853,-8.33242 0,-4.85776 4.92487,-8.33241 4.92487,-8.33241 11.99037,6.24566 74.05989,-13.86958 74.05989,-13.86958 z m -123.94775,7.24096 c 0.98213,2.13004 2.09231,4.19004 3.2744,6.20268 -13.06986,2.537 -28.49232,7.21193 -24.99719,14.88123 l -0.23963,0.39929 -6.01632,-10.80816 c 0,0 20.63222,-2.85727 27.97874,-10.67504 z m 131.56125,1.41089 c 0.059,0.087 0.098,0.18025 0.1599,0.26622 -0.082,-0.0317 -0.1579,-0.0756 -0.2397,-0.1065 0.026,-0.0533 0.053,-0.1062 0.08,-0.15972 z m -165.31674,0.93173 -4.63213,5.08465 c -6.0153,-2.0819 4.63213,-5.08465 4.63213,-5.08465 z m 204.07714,3.24777 c 0,0 11.7191,3.00274 5.0848,5.08465 l -5.0848,-5.08465 z m -158.18234,1.65052 c 1.95194,0.008 3.97739,0.15044 6.06953,0.45258 l -0.8785,6.70847 c 0,0 -29.63866,11.39382 -35.80548,11.39382 l -0.29274,-6.20267 c 0,0 12.03726,-12.42272 30.90719,-12.3522 z m 103.20984,0.0263 c -4.0442,10.63912 6.0163,39.1862 6.0163,39.1862 0,0 -5.2294,-7.43762 -9.1043,-20.39169 -3.875,-12.95413 3.088,-18.79451 3.088,-18.79451 z m 26.9937,1.35767 c 9.6611,3.79409 21.5896,5.27101 21.5896,5.27101 l -8.4387,16.71804 c -0.957,-3.44633 -2.337,-6.94362 -4.2329,-10.38223 -2.5096,-4.55269 -5.5871,-8.46867 -8.918,-11.60682 z m -99.21669,16.42519 c 1.53787,0.007 3.11697,0.14403 4.76516,0.42593 l -0.69222,6.25596 c 0,0 -23.36054,10.62187 -28.21825,10.62187 l -0.21305,-5.7768 c 0,0 9.49199,-11.59251 24.35836,-11.52696 z m 103.44939,0.82529 c 0.2208,-0.0114 0.4359,-0.006 0.6655,0 0.8484,0.0156 1.7457,0.1514 2.6888,0.45258 3.8016,8.56397 2.529,16.63813 2.529,16.63813 0,0 -1.6798,-7.15728 -4.8716,-10.78153 -3.192,-3.62408 -6.1761,-4.60544 -6.1761,-4.60544 -0.3982,0.30286 1.8538,-1.52983 5.1644,-1.70374 z m -169.7625,2.15632 -5.85661,5.43066 c -7.63505,-2.23174 5.85661,-5.43066 5.85661,-5.43066 z m 109.1464,10.11602 c 0.3148,-0.008 0.6398,-0.0126 0.985,0 11.0509,0.40923 13.9228,5.75016 13.9228,5.75016 0,0 -9.0112,-2.06311 -13.9228,-0.42599 -4.91146,1.63723 -6.54869,4.49898 -6.54869,4.49898 0.39637,0.79303 -4.19536,-9.5479 5.56369,-9.82315 z m -39.53224,2.04982 c 5.81757,22.86618 54.01414,51.59153 54.01414,51.59153 0,0 -16.59859,-3.4077 -37.37601,-17.51657 -20.77733,-14.10891 -16.63813,-34.07496 -16.63813,-34.07496 z m -31.14676,4.25935 -4.63201,5.08465 c -6.01536,-2.08191 4.63201,-5.08465 4.63201,-5.08465 z"
       style="opacity:0.4;color:#000000;fill:#ffffff;fill-opacity:1;stroke:none;stroke-width:1.5;marker:none;visibility:visible;display:inline;overflow:visible;enable-background:new"
       mask="url(#mask7413)" />
    <path
       inkscape:connector-curvature="0"
       id="path7417"
       d="m 377.09854,487.85279 c -13.83294,0.2472 -26.62113,16.77129 -26.62113,16.77129 -21.08293,-17.39954 -20.95075,23.34667 -20.95075,23.34667 -19.6131,9.0518 -14.53516,41.15622 -14.53516,41.15622 l 6.12288,1.35766 c -4.91577,9.62938 -7.69348,20.49909 -7.69348,31.99857 0,3.39498 0.25191,6.71339 0.71873,9.98287 -10.37367,1.75733 -30.33734,6.36318 -26.88723,15.33375 l -1.83688,3.70034 c 0,0 -9.25211,3.70136 -7.40062,9.71666 1.1103,3.6072 10.01328,10.83918 16.9842,16.07918 -2.54214,1.00356 -10.58529,4.63662 -8.59863,10.08931 2.3498,6.44555 32.29144,23.7993 32.29144,23.7993 l -14.66824,-22.30849 c 0,0 26.30624,-3.09924 35.56578,-11.5269 1.1719,0.96303 2.36135,1.90512 3.59384,2.79518 -5.09656,2.4235 -8.4528,5.6235 -6.8683,9.74331 l -1.86341,3.70034 c 0,0 -9.25211,3.70142 -7.40074,9.71672 1.85155,6.01524 25.44993,22.202 25.44976,22.202 l -11.58013,-20.81775 c 0,0 13.08236,-1.81084 22.12208,-6.49554 -0.94945,12.94096 9.52251,28.792 26.8874,38.7869 16.82302,9.6832 35.11322,10.9477 45.97452,4.3659 -5.399,-0.8155 -11.3206,-2.859 -17.0374,-6.1495 -15.2452,-8.77481 -23.49357,-23.05398 -18.42185,-31.86543 5.05475,-8.78199 21.45475,-8.82013 36.65725,-0.13308 -4.5885,-5.93861 -10.9114,-11.47793 -18.5815,-15.89282 -0.3022,-0.1739 -0.602,-0.33721 -0.9051,-0.50579 4.333,-2.07616 8.4173,-4.57777 12.219,-7.42727 0.9194,4.22225 2.5239,8.5993 4.8717,12.85799 3.1008,5.62475 7.0396,10.2743 11.2873,13.68329 -6.1001,-11.14749 -5.881,-23.04418 0.559,-26.59449 6.4616,-3.56224 16.7311,2.63679 22.8941,13.81629 2.3112,4.19231 3.7134,8.50351 4.2328,12.43212 3.3909,-5.36961 4.097,-13.35235 1.9966,-21.82934 3.5586,-2.25132 21.5791,-13.85676 23.4267,-19.3003 2.0417,-6.01524 -8.1728,-9.71666 -8.1728,-9.71666 l -2.0233,-3.70035 c 1.9265,-4.54113 -2.7821,-7.96352 -9.3706,-10.46209 3.5591,-2.7197 6.6027,-5.43563 7.1612,-7.08118 1.485,-4.3789 -5.9632,-7.05454 -5.9632,-7.05454 l -1.4642,-2.68876 c 2.7535,-6.49038 -13.0666,-9.8331 -21.4299,-11.1276 -4.8986,-34.78305 -35.2801,-61.60119 -71.85024,-61.60119 -17.55849,0 -33.69244,6.1725 -46.26757,16.45183 2.34884,-6.67567 3.99326,-12.11262 3.99326,-12.11262 8.69394,1.91363 17.3835,-21.08388 17.3835,-21.08388 7.53508,1.6585 36.81709,-7.6935 36.81709,-7.6935 0,0 9.66606,10.00535 14.34866,2.52901 4.6836,-7.47463 14.3487,0.13311 14.3487,0.13311 -22.33311,-31.04348 -28.45785,-8.7051 -28.45785,-8.7051 l -6.20263,-5.00476 c -4.71349,-5.71832 -9.85136,-7.75629 -14.85465,-7.66688 z m 0.21288,3.30102 c 9.61016,-0.30112 13.12426,8.81179 13.12426,8.81159 -4.40937,2.81965 -33.62233,2.07643 -33.62233,2.07643 8.76403,-8.00403 15.46436,-10.73028 20.49807,-10.88802 z m -32.87696,13.47027 c 2.10304,-0.0655 3.59378,0.71876 3.59378,0.71876 l -10.64844,16.13238 c -2.5707,2.78944 -1.10223,5.95238 0.53248,8.09283 1.27751,1.01865 2.2888,1.96691 2.34262,2.47576 0,0 -1.20758,-0.98986 -2.34262,-2.47576 -2.37554,-1.89435 -5.69682,-4.01978 -5.69682,-4.01978 2.00601,-17.58895 8.20412,-20.79911 12.219,-20.92419 z m -14.50851,27.04701 c -4.709,4.17488 -1.43753,28.08493 -1.43753,28.08523 l -10.54189,4.79179 c -1.49787,-21.1722 11.97942,-32.87702 11.97942,-32.87702 z m 56.06408,9.05121 c 34.79044,0 62.82554,27.6578 62.82574,61.7609 0,0.49245 -0.015,0.97442 -0.026,1.46411 -17.0755,25.24537 -62.52007,9.44481 -88.91443,-9.10437 -25.04705,-17.60248 -34.42535,1.44872 -36.73708,7.77334 -6e-5,-0.0449 0,-0.0884 0,-0.13308 0,-34.1031 28.06181,-61.7609 62.85247,-61.7609 z m -7.61374,39.87835 34.04838,25.98219 c 7.5893,-12.87858 -34.04838,-25.98219 -34.04838,-25.98219 z m 57.15558,2.10304 c -5.9021,-0.18887 -8.1728,24.38495 -8.1728,24.38495 l 10.1161,-23.45322 c -0.6898,-0.60362 -1.3328,-0.91216 -1.9433,-0.93173 z m 22.3084,11.63346 c 11.931,-0.0479 19.5664,8.38563 19.5664,8.38563 l -0.1863,4.20614 c -3.8987,0 -22.6545,-7.74676 -22.6545,-7.74676 l -0.559,-4.55222 c 1.3227,-0.20521 2.5991,-0.28788 3.8334,-0.29279 z m -107.33621,13.3105 c 4.48827,-0.11147 10.8348,4.25935 10.8348,4.25935 55.76681,22.24013 85.29381,0.77201 85.29381,0.77201 -8.2011,20.70509 -88.57151,16.87328 -93.4932,16.10576 -4.92158,-0.76752 -9.00817,-11.5196 -6.54864,-18.42179 0.69204,-1.94123 2.15698,-2.67169 3.91323,-2.71533 z m 129.67121,0.79865 c 0,0 8.5543,2.18613 3.7269,3.70034 l -3.7269,-3.70034 z m -22.0422,1.49074 c 7.2383,3.28991 17.4102,4.55222 17.4102,4.55222 l -2.4758,4.04641 c -5.8452,-1.56066 -11.7101,-2.52699 -15.7064,-3.08804 0.3383,-1.81114 0.5757,-3.65467 0.772,-5.51059 z m -144.17974,4.95157 c 1.53792,0.007 3.11696,0.14398 4.76521,0.42594 l -0.69221,6.22931 c 0,0 -23.36061,10.64846 -28.21832,10.64846 l -0.23969,-5.77681 c 0,0 9.5188,-11.59251 24.38501,-11.5269 z m 145.51084,3.22112 c 16.397,-0.0656 26.8873,11.52691 26.8873,11.52691 l -0.2662,5.7768 c -5.3589,0 -31.1201,-10.62181 -31.1201,-10.62181 l -0.7721,-6.25596 c 1.818,-0.28196 3.5748,-0.41916 5.2711,-0.42594 z m -15.6532,6.5754 c -9.1701,11.79737 -67.00468,29.84046 -68.41623,30.53441 -1.41154,0.69395 -10.56853,-3.47466 -10.56853,-8.33242 0,-4.85776 4.92487,-8.33241 4.92487,-8.33241 11.99037,6.24566 74.05989,-13.86958 74.05989,-13.86958 z m -123.94775,7.24096 c 0.98213,2.13004 2.09231,4.19004 3.2744,6.20268 -13.06986,2.537 -28.49232,7.21193 -24.99719,14.88123 l -0.23963,0.39929 -6.01632,-10.80816 c 0,0 20.63222,-2.85727 27.97874,-10.67504 z m 131.56125,1.41089 c 0.059,0.087 0.098,0.18025 0.1599,0.26622 -0.082,-0.0317 -0.1579,-0.0756 -0.2397,-0.1065 0.026,-0.0533 0.053,-0.1062 0.08,-0.15972 z m -165.31674,0.93173 -4.63213,5.08465 c -6.0153,-2.0819 4.63213,-5.08465 4.63213,-5.08465 z m 204.07714,3.24777 c 0,0 11.7191,3.00274 5.0848,5.08465 l -5.0848,-5.08465 z M 332.00253,639.167 c 1.95194,0.008 3.97739,0.15044 6.06953,0.45258 l -0.8785,6.70847 c 0,0 -29.63866,11.39382 -35.80548,11.39382 l -0.29274,-6.20267 c 0,0 12.03726,-12.42272 30.90719,-12.3522 z m 103.20984,0.0263 c -4.0442,10.63912 6.0163,39.1862 6.0163,39.1862 0,0 -5.2294,-7.43762 -9.1043,-20.39169 -3.875,-12.95413 3.088,-18.79451 3.088,-18.79451 z m 26.9937,1.35767 c 9.6611,3.79409 21.5896,5.27101 21.5896,5.27101 l -8.4387,16.71804 c -0.957,-3.44633 -2.337,-6.94362 -4.2329,-10.38223 -2.5096,-4.55269 -5.5871,-8.46867 -8.918,-11.60682 z m -99.21669,16.42519 c 1.53787,0.007 3.11697,0.14403 4.76516,0.42593 l -0.69222,6.25596 c 0,0 -23.36054,10.62187 -28.21825,10.62187 l -0.21305,-5.7768 c 0,0 9.49199,-11.59251 24.35836,-11.52696 z m 103.44939,0.82529 c 0.2208,-0.0114 0.4359,-0.006 0.6655,0 0.8484,0.0156 1.7457,0.1514 2.6888,0.45258 3.8016,8.56397 2.529,16.63813 2.529,16.63813 0,0 -1.6798,-7.15728 -4.8716,-10.78153 -3.192,-3.62408 -6.1761,-4.60544 -6.1761,-4.60544 -0.3982,0.30286 1.8538,-1.52983 5.1644,-1.70374 z m -169.7625,2.15632 -5.85661,5.43066 c -7.63505,-2.23174 5.85661,-5.43066 5.85661,-5.43066 z m 109.1464,10.11602 c 0.3148,-0.008 0.6398,-0.0126 0.985,0 11.0509,0.40923 13.9228,5.75016 13.9228,5.75016 0,0 -9.0112,-2.06311 -13.9228,-0.42599 -4.91146,1.63723 -6.54869,4.49898 -6.54869,4.49898 0.39637,0.79303 -4.19536,-9.5479 5.56369,-9.82315 z m -39.53224,2.04982 c 5.81757,22.86618 54.01414,51.59153 54.01414,51.59153 0,0 -16.59859,-3.4077 -37.37601,-17.51657 -20.77733,-14.10891 -16.63813,-34.07496 -16.63813,-34.07496 z m -31.14676,4.25935 -4.63201,5.08465 c -6.01536,-2.08191 4.63201,-5.08465 4.63201,-5.08465 z"
       style="color:#000000;fill:none;stroke:#999999;stroke-width:1.5;stroke-linecap:square;stroke-linejoin:bevel;stroke-miterlimit:1;stroke-opacity:0.6;stroke-dasharray:none;marker:none;visibility:visible;display:inline;overflow:visible;enable-background:new" />
  </g>
</svg>
