<?xml version="1.0" encoding="UTF-8" standalone="no"?>
<!-- Created with Inkscape (http://www.inkscape.org/) -->

<svg
   xmlns:i="http://ns.adobe.com/AdobeIllustrator/10.0/"
   xmlns:dc="http://purl.org/dc/elements/1.1/"
   xmlns:cc="http://creativecommons.org/ns#"
   xmlns:rdf="http://www.w3.org/1999/02/22-rdf-syntax-ns#"
   xmlns:svg="http://www.w3.org/2000/svg"
   xmlns="http://www.w3.org/2000/svg"
   xmlns:xlink="http://www.w3.org/1999/xlink"
   xmlns:sodipodi="http://sodipodi.sourceforge.net/DTD/sodipodi-0.dtd"
   xmlns:inkscape="http://www.inkscape.org/namespaces/inkscape"
   width="1600"
   height="1200"
   id="svg2"
   version="1.1"
   inkscape:version="0.48+devel r"
   sodipodi:docname="keres-xfce-splash.svg"
   inkscape:export-filename="keres-xfce-splash.png"
   inkscape:export-xdpi="45"
   inkscape:export-ydpi="45"
   style="display:inline;enable-background:new">
  <sodipodi:namedview
     id="base"
     pagecolor="#000000"
     bordercolor="#666666"
     borderopacity="1.0"
     inkscape:pageopacity="1"
     inkscape:pageshadow="2"
     inkscape:zoom="0.5"
     inkscape:cx="817.16077"
     inkscape:cy="579.37472"
     inkscape:document-units="px"
     inkscape:current-layer="Text"
     showgrid="false"
     borderlayer="true"
     inkscape:window-width="1600"
     inkscape:window-height="1145"
     inkscape:window-x="-4"
     inkscape:window-y="-3"
     inkscape:window-maximized="1"
     showguides="true"
     inkscape:snap-global="false">
    <inkscape:grid
       type="xygrid"
       id="grid25669"
       empspacing="5"
       visible="true"
       enabled="true"
       snapvisiblegridlinesonly="true" />
  </sodipodi:namedview>
  <defs
     id="defs4">
    <linearGradient
       inkscape:collect="always"
       id="linearGradient4026">
      <stop
         style="stop-color:#ff0000;stop-opacity:1;"
         offset="0"
         id="stop4028" />
      <stop
         style="stop-color:#ff0000;stop-opacity:0;"
         offset="1"
         id="stop4030" />
    </linearGradient>
    <linearGradient
       id="linearGradient5768">
      <stop
         style="stop-color:#000000;stop-opacity:0;"
         offset="0"
         id="stop5770" />
      <stop
         id="stop5776"
         offset="0.5"
         style="stop-color:#000000;stop-opacity:0;" />
      <stop
         style="stop-color:#000000;stop-opacity:1;"
         offset="1"
         id="stop5772" />
    </linearGradient>
    <filter
       inkscape:collect="always"
       id="filter6865"
       color-interpolation-filters="sRGB">
      <feBlend
         inkscape:collect="always"
         mode="screen"
         in2="BackgroundImage"
         id="feBlend6867" />
    </filter>
    <filter
       inkscape:collect="always"
       id="filter6965"
       color-interpolation-filters="sRGB">
      <feGaussianBlur
         inkscape:collect="always"
         stdDeviation="0.48893527"
         id="feGaussianBlur6967" />
    </filter>
    <filter
       inkscape:collect="always"
       id="filter6977"
       color-interpolation-filters="sRGB">
      <feGaussianBlur
         inkscape:collect="always"
         stdDeviation="0.97787055"
         id="feGaussianBlur6979" />
    </filter>
    <filter
       inkscape:collect="always"
       id="filter5745"
       color-interpolation-filters="sRGB">
      <feGaussianBlur
         inkscape:collect="always"
         stdDeviation="1.5700981"
         id="feGaussianBlur5747" />
    </filter>
    <filter
       inkscape:collect="always"
       id="filter5749"
       color-interpolation-filters="sRGB">
      <feGaussianBlur
         inkscape:collect="always"
         stdDeviation="3.4516385"
         id="feGaussianBlur5751" />
    </filter>
    <filter
       inkscape:collect="always"
       id="filter5757"
       color-interpolation-filters="sRGB">
      <feGaussianBlur
         inkscape:collect="always"
         stdDeviation="6.6935245"
         id="feGaussianBlur5759" />
    </filter>
    <filter
       inkscape:collect="always"
       id="filter5761"
       x="-0.20370407"
       width="1.4074082"
       y="-0.062797301"
       height="1.1255946"
       color-interpolation-filters="sRGB">
      <feGaussianBlur
         inkscape:collect="always"
         stdDeviation="11.352868"
         id="feGaussianBlur5763" />
    </filter>
    <radialGradient
       inkscape:collect="always"
       xlink:href="#linearGradient5768"
       id="radialGradient5774"
       cx="762.62964"
       cy="536.02679"
       fx="762.62964"
       fy="536.02679"
       r="765.7616"
       gradientTransform="matrix(1.0447116,0,0,0.78353367,3.2719836,180.00495)"
       gradientUnits="userSpaceOnUse" />
    <filter
       color-interpolation-filters="sRGB"
       inkscape:menu-tooltip="Inky splotches underneath the object"
       inkscape:menu="Protrusions"
       inkscape:label="Ink bleed"
       id="filter3814">
      <feGaussianBlur
         stdDeviation="4.2000000000000002"
         in="SourceGraphic"
         result="result1"
         id="feGaussianBlur3816" />
      <feTurbulence
         baseFrequency="0.042000000000000003"
         numOctaves="4"
         result="result0"
         id="feTurbulence3818" />
      <feDisplacementMap
         in="result1"
         xChannelSelector="R"
         yChannelSelector="G"
         scale="42"
         result="result2"
         in2="result0"
         id="feDisplacementMap3820" />
      <feColorMatrix
         result="result3"
         values="2 0 0 0 0 0 2 0 0 0 0 0 2 0 0 0 0 0 0.7 0"
         id="feColorMatrix3822" />
      <feGaussianBlur
         stdDeviation="42"
         in="SourceGraphic"
         result="result4"
         id="feGaussianBlur3824" />
      <feComposite
         in="result4"
         in2="result3"
         id="feComposite3826" />
    </filter>
    <filter
       id="filter4202"
       inkscape:label="Motion blur, vertical"
       inkscape:menu="Blurs"
       inkscape:menu-tooltip="Blur as if the object flies vertically; adjust Standard Deviation to vary force"
       color-interpolation-filters="sRGB"
       width="2"
       height="4"
       y="-1.5"
       x="-0.5">
      <feTurbulence
         id="feTurbulence4204"
         baseFrequency="0.14299516908212559"
         numOctaves="2"
         type="fractalNoise" />
      <feColorMatrix
         id="feColorMatrix4206"
         values="1 0 0 0 0 0 1 0 0 0 0 0 1 0 0 0 0 0 6 -3.5 "
         result="result5" />
      <feComposite
         id="feComposite4208"
         in2="result5"
         operator="in"
         in="SourceGraphic"
         result="result6" />
      <feMorphology
         id="feMorphology4210"
         result="result3"
         radius="5"
         operator="dilate"
         in="result6" />
      <feDisplacementMap
         id="feDisplacementMap4212"
         in2="result3"
         result="result4"
         scale="35.507246"
         yChannelSelector="A"
         xChannelSelector="R"
         in="result3" />
      <feComposite
         k4="0"
         k2="0"
         id="feComposite4214"
         in2="result4"
         operator="arithmetic"
         result="result2"
         k1="1"
         k3="1" />
      <feBlend
         id="feBlend4216"
         in2="result2"
         mode="darken"
         in="result2" />
      <feConvolveMatrix
         id="feConvolveMatrix4218"
         order="3 3"
         kernelMatrix="2 0 0 0 1 0 0 0 -1 "
         targetX="1"
         targetY="1"
         divisor="2"
         edgeMode="none"
         result="fbSourceGraphic" />
      <feColorMatrix
         result="fbSourceGraphicAlpha"
         in="fbSourceGraphic"
         values="0 0 0 -1 0 0 0 0 -1 0 0 0 0 -1 0 0 0 0 1 0"
         id="feColorMatrix4220" />
      <feGaussianBlur
         id="feGaussianBlur4222"
         result="result1"
         in="fbSourceGraphic"
         stdDeviation="5" />
      <feTurbulence
         id="feTurbulence4224"
         result="result0"
         numOctaves="8"
         baseFrequency="0.02" />
      <feDisplacementMap
         id="feDisplacementMap4226"
         in2="result0"
         result="result2"
         scale="40"
         yChannelSelector="G"
         xChannelSelector="R"
         in="result1" />
      <feColorMatrix
         id="feColorMatrix4229"
         values="2 0 0 0 0 0 2 0 0 0 0 0 2 0 0 0 0 0 0.7 0"
         result="result3" />
      <feGaussianBlur
         id="feGaussianBlur4231"
         result="result4"
         in="fbSourceGraphic"
         stdDeviation="1.1" />
      <feComposite
         id="feComposite4233"
         in2="result3"
         in="result4"
         result="fbSourceGraphic" />
      <feColorMatrix
         result="fbSourceGraphicAlpha"
         in="fbSourceGraphic"
         values="0 0 0 -1 0 0 0 0 -1 0 0 0 0 -1 0 0 0 0 1 0"
         id="feColorMatrix4268" />
      <feGaussianBlur
         id="feGaussianBlur4270"
         stdDeviation="0.01"
         result="result1"
         in="fbSourceGraphic" />
      <feBlend
         id="feBlend4272"
         in2="result1"
         result="fbSourceGraphic"
         mode="multiply" />
      <feTurbulence
         id="feTurbulence4274"
         baseFrequency="0.8"
         type="fractalNoise"
         seed="0"
         numOctaves="3"
         result="result3" />
      <feDisplacementMap
         id="feDisplacementMap4276"
         in2="result3"
         in="fbSourceGraphic"
         xChannelSelector="R"
         yChannelSelector="G"
         scale="50"
         result="result2" />
      <feMorphology
         id="feMorphology4278"
         radius="1"
         operator="dilate"
         result="result4" />
      <feBlend
         id="feBlend4280"
         in2="result2"
         mode="screen"
         result="fbSourceGraphic" />
      <feColorMatrix
         result="fbSourceGraphicAlpha"
         in="fbSourceGraphic"
         values="0 0 0 -1 0 0 0 0 -1 0 0 0 0 -1 0 0 0 0 1 0"
         id="feColorMatrix4282" />
      <feGaussianBlur
         id="feGaussianBlur4284"
         in="fbSourceGraphic"
         stdDeviation="0.01 60" />
    </filter>
    <linearGradient
       inkscape:collect="always"
       xlink:href="#linearGradient5088"
       id="linearGradient5094"
       x1="1667.4966"
       y1="281.86401"
       x2="1667.4966"
       y2="104.32729"
       gradientUnits="userSpaceOnUse" />
    <linearGradient
       inkscape:collect="always"
       id="linearGradient5088">
      <stop
         style="stop-color:#af0000;stop-opacity:1;"
         offset="0"
         id="stop5090" />
      <stop
         style="stop-color:#af0000;stop-opacity:0;"
         offset="1"
         id="stop5092" />
    </linearGradient>
    <linearGradient
       y2="104.32729"
       x2="1667.4966"
       y1="281.86401"
       x1="1667.4966"
       gradientUnits="userSpaceOnUse"
       id="linearGradient3206"
       xlink:href="#linearGradient5088"
       inkscape:collect="always" />
    <linearGradient
       inkscape:collect="always"
       xlink:href="#linearGradient4026"
       id="linearGradient4032"
       x1="533.05945"
       y1="1580.4772"
       x2="533.05945"
       y2="1457.4054"
       gradientUnits="userSpaceOnUse" />
    <linearGradient
       inkscape:collect="always"
       xlink:href="#linearGradient4026"
       id="linearGradient4034"
       gradientUnits="userSpaceOnUse"
       x1="533.05945"
       y1="1580.4772"
       x2="533.05945"
       y2="1457.4054" />
    <linearGradient
       y2="1457.2866"
       x2="533.05945"
       y1="1583.1045"
       x1="533.05945"
       gradientUnits="userSpaceOnUse"
       id="linearGradient3987"
       xlink:href="#linearGradient5088-4"
       inkscape:collect="always" />
    <linearGradient
       y2="1457.2866"
       x2="533.05945"
       y1="1583.1045"
       x1="533.05945"
       gradientUnits="userSpaceOnUse"
       id="linearGradient3985"
       xlink:href="#linearGradient5088-4"
       inkscape:collect="always" />
    <linearGradient
       y2="1457.2866"
       x2="533.05945"
       y1="1583.1045"
       x1="533.05945"
       gradientUnits="userSpaceOnUse"
       id="linearGradient3983"
       xlink:href="#linearGradient5088-4"
       inkscape:collect="always" />
    <linearGradient
       y2="1457.2866"
       x2="533.05945"
       y1="1583.1045"
       x1="533.05945"
       gradientUnits="userSpaceOnUse"
       id="linearGradient3981"
       xlink:href="#linearGradient5088-4"
       inkscape:collect="always" />
    <linearGradient
       y2="1457.2866"
       x2="533.05945"
       y1="1583.1045"
       x1="533.05945"
       gradientUnits="userSpaceOnUse"
       id="linearGradient3979"
       xlink:href="#linearGradient5088-4"
       inkscape:collect="always" />
    <linearGradient
       y2="1457.2866"
       x2="533.05945"
       y1="1583.1045"
       x1="533.05945"
       gradientUnits="userSpaceOnUse"
       id="linearGradient3977"
       xlink:href="#linearGradient5088-4"
       inkscape:collect="always" />
    <linearGradient
       y2="1457.2866"
       x2="533.05945"
       y1="1583.1045"
       x1="533.05945"
       gradientUnits="userSpaceOnUse"
       id="linearGradient3975"
       xlink:href="#linearGradient5088-4"
       inkscape:collect="always" />
    <linearGradient
       id="linearGradient5088-4"
       inkscape:collect="always">
      <stop
         id="stop5090-3"
         offset="0"
         style="stop-color:#af0000;stop-opacity:1;" />
      <stop
         id="stop5092-1"
         offset="1"
         style="stop-color:#af0000;stop-opacity:0;" />
    </linearGradient>
    <linearGradient
       gradientUnits="userSpaceOnUse"
       y2="1457.2866"
       x2="533.05945"
       y1="1583.1045"
       x1="533.05945"
       id="linearGradient3952"
       xlink:href="#linearGradient5088-4"
       inkscape:collect="always" />
    <filter
       x="-0.5"
       y="-1.5"
       height="4"
       width="2"
       color-interpolation-filters="sRGB"
       inkscape:menu-tooltip="Blur as if the object flies vertically; adjust Standard Deviation to vary force"
       inkscape:menu="Blurs"
       inkscape:label="Motion blur, vertical"
       id="filter4202-5">
      <feTurbulence
         type="fractalNoise"
         numOctaves="2"
         baseFrequency="0.14299516908212559"
         id="feTurbulence4204-5" />
      <feColorMatrix
         result="result5"
         values="1 0 0 0 0 0 1 0 0 0 0 0 1 0 0 0 0 0 6 -3.5 "
         id="feColorMatrix4206-4" />
      <feComposite
         result="result6"
         in="SourceGraphic"
         operator="in"
         in2="result5"
         id="feComposite4208-7" />
      <feMorphology
         in="result6"
         operator="dilate"
         radius="5"
         result="result3"
         id="feMorphology4210-6" />
      <feDisplacementMap
         in="result3"
         xChannelSelector="R"
         yChannelSelector="A"
         scale="10"
         result="result4"
         in2="result3"
         id="feDisplacementMap4212-5" />
      <feComposite
         k3="1"
         k1="1"
         result="result2"
         operator="arithmetic"
         in2="result4"
         id="feComposite4214-6"
         k2="0"
         k4="0" />
      <feBlend
         in="result2"
         mode="darken"
         in2="result2"
         id="feBlend4216-9" />
      <feConvolveMatrix
         result="fbSourceGraphic"
         edgeMode="none"
         divisor="2"
         targetY="1"
         targetX="1"
         kernelMatrix="2 0 0 0 1 0 0 0 -1 "
         order="3 3"
         id="feConvolveMatrix4218-3" />
      <feColorMatrix
         id="feColorMatrix4220-7"
         values="0 0 0 -1 0 0 0 0 -1 0 0 0 0 -1 0 0 0 0 1 0"
         in="fbSourceGraphic"
         result="fbSourceGraphicAlpha" />
      <feGaussianBlur
         stdDeviation="5"
         in="fbSourceGraphic"
         result="result1"
         id="feGaussianBlur4222-4" />
      <feTurbulence
         baseFrequency="0.02"
         numOctaves="4"
         result="result0"
         id="feTurbulence4224-5" />
      <feDisplacementMap
         in="result1"
         xChannelSelector="R"
         yChannelSelector="G"
         scale="20"
         result="result2"
         in2="result0"
         id="feDisplacementMap4226-2" />
      <feColorMatrix
         result="result3"
         values="2 0 0 0 0 0 2 0 0 0 0 0 2 0 0 0 0 0 0.7 0"
         id="feColorMatrix4229-5" />
      <feGaussianBlur
         stdDeviation="1.1"
         in="fbSourceGraphic"
         result="result4"
         id="feGaussianBlur4231-4" />
      <feComposite
         result="fbSourceGraphic"
         in="result4"
         in2="result3"
         id="feComposite4233-7" />
      <feColorMatrix
         id="feColorMatrix4268-4"
         values="0 0 0 -1 0 0 0 0 -1 0 0 0 0 -1 0 0 0 0 1 0"
         in="fbSourceGraphic"
         result="fbSourceGraphicAlpha" />
      <feGaussianBlur
         in="fbSourceGraphic"
         result="result1"
         stdDeviation="0.01"
         id="feGaussianBlur4270-4" />
      <feBlend
         mode="multiply"
         result="fbSourceGraphic"
         in2="result1"
         id="feBlend4272-3" />
      <feTurbulence
         result="result3"
         numOctaves="3"
         seed="0"
         type="fractalNoise"
         baseFrequency="0.20000000000000001"
         id="feTurbulence4274-0" />
      <feDisplacementMap
         result="result2"
         scale="30"
         yChannelSelector="G"
         xChannelSelector="R"
         in="fbSourceGraphic"
         in2="result3"
         id="feDisplacementMap4276-7" />
      <feMorphology
         result="result4"
         operator="dilate"
         radius="1"
         id="feMorphology4278-8" />
      <feBlend
         result="fbSourceGraphic"
         mode="screen"
         in2="result2"
         id="feBlend4280-6" />
      <feColorMatrix
         id="feColorMatrix4282-8"
         values="0 0 0 -1 0 0 0 0 -1 0 0 0 0 -1 0 0 0 0 1 0"
         in="fbSourceGraphic"
         result="fbSourceGraphicAlpha" />
      <feGaussianBlur
         stdDeviation="0.01 60"
         in="fbSourceGraphic"
         id="feGaussianBlur4284-8" />
    </filter>
  </defs>
  <metadata
     id="metadata7">
    <rdf:RDF>
      <cc:Work
         rdf:about="">
        <dc:format>image/svg+xml</dc:format>
        <dc:type
           rdf:resource="http://purl.org/dc/dcmitype/StillImage" />
        <dc:title></dc:title>
      </cc:Work>
    </rdf:RDF>
  </metadata>
  <g
     inkscape:groupmode="layer"
     id="Background"
     inkscape:label="Background"
     style="display:inline"
     sodipodi:insensitive="true">
    <g
       transform="matrix(0.69548473,0,0,0.69548473,52.143093,454.64845)"
       id="layer1"
       inkscape:label="Layer 1">
      <path
         inkscape:connector-curvature="0"
         id="outline"
         d="m 1162.8796,-980.33996 c 140.2135,2.50566 269.837,169.99699 269.837,169.99699 213.7008,-176.36501 212.3611,236.6464 212.3611,236.6464 198.8021,91.75088 147.3311,417.16757 147.3311,417.16757 l -62.0628,13.76157 c 49.8273,97.605245 77.9826,207.782774 77.9826,324.34379 0,34.41212 -2.5533,68.04815 -7.2851,101.18841 105.1496,17.81255 307.5052,64.49836 272.5342,155.42582 l 18.6191,37.50739 c 0,0 93.7813,37.51772 75.0142,98.48999 -11.2544,36.56321 -101.4967,109.86804 -172.1554,162.98167 25.7678,10.17236 107.2948,46.99771 87.1575,102.2673 -23.818,65.33327 -327.3123,241.23416 -327.3123,241.23416 l 148.68,-226.12302 c 0,0 -266.6452,-31.4146 -360.5017,-116.83901 -11.8787,9.76158 -23.935,19.31075 -36.4279,28.33263 51.6598,24.56499 85.6792,57.00071 69.6186,98.75995 l 18.8878,37.50756 c 0,0 93.7812,37.5182 75.0154,98.49049 -18.7675,60.9716 -257.9655,225.0437 -257.9636,225.0437 l 117.3783,-211.0127 c 0,0 -132.6055,-18.35499 -224.2337,-65.83999 9.6237,131.17199 -96.5222,291.84129 -272.5361,393.15239 -170.5216,98.15 -355.91411,110.9679 -466.00663,44.253 54.7258,-8.2659 114.74851,-28.9788 172.69469,-62.3327 154.52833,-88.9432 238.13554,-233.6798 186.72752,-322.9943 -51.23621,-89.01599 -217.46922,-89.40249 -371.56546,-1.34889 46.51053,-60.1951 110.6004,-116.3426 188.34642,-161.0928 3.0625,-1.76274 6.10201,-3.41802 9.17358,-5.12673 -43.91942,-21.04442 -85.31943,-46.40129 -123.8541,-75.28427 -9.31867,42.7975 -25.58262,87.16416 -49.37995,130.3312 -31.43096,57.0134 -71.35533,104.1423 -114.41055,138.69629 61.83135,-112.99299 59.61064,-233.58015 -5.66639,-269.56692 -65.49659,-36.10751 -169.58957,26.72701 -232.05951,140.04483 -23.42725,42.494 -37.63967,86.1932 -42.90425,126.01409 C 149.54242,969.30861 142.38522,888.39401 163.67534,802.4696 127.60485,779.64973 -55.053453,662.01468 -73.780461,606.83793 -94.475913,545.86628 9.059584,508.34797 9.059584,508.34797 L 29.567537,470.84058 C 10.040795,424.81071 57.767878,390.12066 124.54961,364.79474 88.47367,337.2273 57.623443,309.69811 51.962626,293.01845 36.91041,248.63299 112.40639,221.51216 112.40639,221.51216 l 14.84105,-27.25372 C 99.33717,128.47062 259.69255,94.588254 344.46593,81.466844 394.119,-271.10096 702.07191,-542.93495 1072.7537,-542.93495 c 177.9762,0 341.5133,62.56571 468.9772,166.75898 -23.8085,-67.66586 -40.4766,-122.77583 -40.4766,-122.77583 -88.1233,19.39688 -176.2025,-213.71029 -176.2025,-213.71029 -76.3771,16.81091 -373.18475,-77.98282 -373.18475,-77.98282 0,0 -97.97724,101.41608 -145.44091,25.63454 -47.47349,-75.76429 -145.44166,1.34916 -145.44166,1.34916 226.37321,-314.66279 288.45471,-88.23655 288.45471,-88.23655 l 62.87081,-50.72921 c 47.7768,-57.96208 99.8552,-78.61923 150.5696,-77.71299 z m -2.1578,33.45975 c -97.4105,-3.0522 -133.0302,89.31799 -133.0302,89.31592 44.6943,28.58062 340.8027,21.04722 340.8027,21.04722 -88.8341,-81.13047 -156.7499,-108.76428 -207.7725,-110.36314 z m 333.2473,136.53724 c -21.3166,-0.66402 -36.4272,7.28558 -36.4272,7.28558 l 107.9349,163.52082 c 26.0569,28.27435 11.1723,60.33451 -5.3976,82.03057 -12.9491,10.32529 -23.1998,19.93696 -23.7453,25.09475 0,0 12.2404,-10.03342 23.7453,-25.09475 24.0789,-19.2015 57.7442,-40.74526 57.7442,-40.74526 -20.3334,-178.28505 -83.1588,-210.82385 -123.8543,-212.09171 z m 147.0611,274.15379 c 47.7315,42.31746 14.5711,284.67444 14.5711,284.67748 l 106.8547,48.57054 c 15.1826,-214.60567 -121.4258,-333.24802 -121.4258,-333.24802 z m -568.2765,91.74481 c -352.64275,0 -636.8124,280.34496 -636.81425,626.02073 0,4.99153 0.15749,9.87686 0.267,14.84047 173.08064,255.89213 633.71605,95.73451 901.25425,-92.28365 253.882,-178.422254 348.9424,14.6845 372.3745,78.79209 6e-4,-0.45508 0,-0.89564 0,-1.34891 0,-345.67577 -284.4402,-626.02073 -637.0852,-626.02073 z M 1149.9281,-40.229505 804.80707,223.13111 C 727.88096,92.591274 1149.9281,-40.229505 1149.9281,-40.229505 z m -579.33948,21.316799 c 59.82409,-1.91444 82.84061,247.170636 82.84061,247.170636 L 550.89067,-9.4684957 c 6.99215,-6.1183403 13.50922,-9.2457803 19.69795,-9.4442103 z M 344.46593,99.006334 C 223.5305,98.520914 146.13586,184.00477 146.13586,184.00477 l 1.88895,42.63424 c 39.51771,0 229.6305,-78.52269 229.6305,-78.52269 l 5.66695,-46.14214 C 369.9144,99.894094 356.97698,99.056104 344.46593,99.006334 z M 1432.4465,233.92422 c -45.494,-1.12987 -109.8237,43.17365 -109.8237,43.17365 -565.26311,225.43028 -864.55512,7.82529 -864.55512,7.82529 83.12818,209.87075 897.77862,171.03083 947.66592,163.25108 49.886,-7.77975 91.3084,-116.76491 66.3781,-186.72689 -7.0145,-19.67663 -21.8635,-27.08079 -39.6652,-27.52313 z M 118.07326,242.0195 c 0,0 -86.707174,22.15905 -37.77681,37.5074 l 37.77681,-37.5074 z m 223.42486,15.11049 c -73.36981,33.34719 -176.47387,46.14213 -176.47387,46.14213 l 25.09535,41.01528 c 59.24775,-15.81922 118.69571,-25.61414 159.20318,-31.30105 -3.42899,-18.35808 -5.83556,-37.04442 -7.82466,-55.85636 z m 1461.43378,50.19008 c -15.5886,0.0728 -31.5943,1.45934 -48.3011,4.31736 l 7.0163,63.14157 c 0,0 236.7879,107.93478 286.0265,107.93478 l 2.4296,-58.55478 c 0,0 -96.4846,-117.50399 -247.1713,-116.83893 z M 328.00539,339.97003 C 161.80278,339.30498 55.471136,456.80898 55.471136,456.80898 l 2.697823,58.55479 c 54.318121,0 315.439591,-107.66478 315.439591,-107.66478 l 7.82541,-63.41159 c -18.42666,-2.85801 -36.23446,-4.2488 -53.42857,-4.31737 z m 158.66422,66.64947 c 92.94938,119.58046 679.17239,302.46874 693.48009,309.50274 14.3076,7.03402 107.1247,-35.21977 107.1247,-84.45898 0,-49.23922 -49.9195,-84.45899 -49.9195,-84.45899 C 1115.8182,610.5115 486.66961,406.6195 486.66961,406.6195 z m 1256.35849,73.39586 c -9.955,21.59047 -21.2081,42.47099 -33.19,62.87154 132.4786,25.7155 288.8036,73.10155 253.3763,150.83903 l 2.4292,4.04736 60.9826,-109.55373 c 0,0 -209.1323,-28.96186 -283.5981,-108.2042 z M 409.49707,494.31637 c -0.5946,0.88168 -0.99334,1.82707 -1.62018,2.69843 0.82899,-0.3216 1.60018,-0.76639 2.42898,-1.07949 -0.267,-0.54006 -0.53993,-1.07645 -0.81175,-1.61894 z m 1675.68313,9.4442 46.9524,51.53898 c 60.9723,-21.1026 -46.9524,-51.53898 -46.9524,-51.53898 z m -2068.565361,32.92 c 0,0 -118.785549,30.43639 -51.539602,51.53899 L 16.614839,536.68057 z M 1619.9817,553.4106 c -19.7852,0.079 -40.3158,1.52488 -61.5221,4.58739 l 8.9049,67.99838 c 0,0 300.4233,115.49004 362.9313,115.49004 l 2.9672,-62.87157 c 0,0 -122.012,-125.91906 -313.2813,-125.20424 z m -1046.15529,0.26699 c 40.99292,107.84013 -60.98253,397.19902 -60.98253,397.19902 0,0 53.00628,-75.3892 92.2836,-206.69421 C 644.40554,612.8768 573.82641,553.67759 573.82641,553.67759 z M 300.21279,567.43916 C 202.2859,605.8968 81.37596,620.8671 81.37596,620.8671 l 85.53726,169.45748 c 9.69967,-34.93281 23.68757,-70.38195 42.90486,-105.23641 25.43818,-46.14698 56.63185,-85.84007 90.39471,-117.64901 z M 1305.8928,733.92813 c -15.5882,0.0728 -31.5942,1.45994 -48.3005,4.31736 l 7.0164,63.41161 c 0,0 236.7871,107.66531 286.0256,107.66531 l 2.1596,-58.55473 c 0,0 -96.2125,-117.50401 -246.9011,-116.83955 z m -1048.58366,8.3653 c -2.23727,-0.11529 -4.4175,-0.0605 -6.74579,0 -8.59892,0.1577 -17.69423,1.53459 -27.25433,4.58739 -38.5341,86.80604 -25.63418,168.64739 -25.63418,168.64739 0,0 17.02674,-72.54763 49.38,-109.28368 32.35456,-36.73439 62.60151,-46.68163 62.60151,-46.68163 4.03713,3.06981 -18.79076,-15.50671 -52.34721,-17.26947 z m 1720.74636,21.85686 59.3637,55.0463 c 77.3905,-22.62146 -59.3637,-55.0463 -59.3637,-55.0463 z M 871.7267,866.68823 c -3.19127,-0.0855 -6.48557,-0.12752 -9.98368,0 -112.01436,4.14811 -141.12492,58.28478 -141.12492,58.28478 0,0 91.33898,-20.9121 141.12492,-4.3179 49.78278,16.5952 66.37821,45.6025 66.37821,45.6025 -4.01767,8.0384 42.52487,-96.77935 -56.39453,-99.56938 z m 400.7061,20.77738 c -58.9681,231.77609 -547.49724,522.94269 -547.49724,522.94269 0,0 168.24621,-34.5414 378.84984,-177.5521 210.6033,-143.0107 168.6474,-345.39059 168.6474,-345.39059 z m 315.7095,43.1737 46.9511,51.539 c 60.9728,-21.1026 -46.9511,-51.539 -46.9511,-51.539 z"
         style="opacity:0.2;color:#000000;fill:#ffffff;fill-opacity:1;stroke:none;stroke-width:7;marker:none;visibility:visible;display:inline;overflow:visible;filter:url(#filter3814)" />
    </g>
  </g>
  <g
     inkscape:groupmode="layer"
     id="Swirl"
     inkscape:label="Swirl"
     style="display:none;filter:url(#filter6865)"
     sodipodi:insensitive="true">
    <g
       style="fill:#ffffff;fill-opacity:0.11764706;stroke:none;display:inline;enable-background:new"
       i:rgbTrio="#4F008000FFFF"
       i:dimmedPercent="50"
       i:layer="yes"
       id="Layer_1"
       transform="matrix(2.8441849,0,0,2.8441849,653.671,460.7755)">
      <g
         id="g4910"
         style="fill:#ffffff;fill-opacity:0.11764706;stroke:none">
        <path
           id="path4912"
           d="m 51.986,57.297 c -1.797,0.025 0.34,0.926 2.686,1.287 0.648,-0.506 1.236,-1.018 1.76,-1.516 -1.461,0.358 -2.948,0.366 -4.446,0.229"
           i:knockout="Off"
           style="fill:#ffffff;fill-opacity:0.11764706;stroke:none"
           inkscape:connector-curvature="0" />
        <path
           id="path4914"
           d="m 61.631,54.893 c 1.07,-1.477 1.85,-3.094 2.125,-4.766 -0.24,1.192 -0.887,2.221 -1.496,3.307 -3.359,2.115 -0.316,-1.256 -0.002,-2.537 -3.612,4.546 -0.496,2.726 -0.627,3.996"
           i:knockout="Off"
           style="fill:#ffffff;fill-opacity:0.11764706;stroke:none"
           inkscape:connector-curvature="0" />
        <path
           id="path4916"
           d="m 65.191,45.629 c 0.217,-3.236 -0.637,-2.213 -0.924,-0.978 0.335,0.174 0.6,2.281 0.924,0.978"
           i:knockout="Off"
           style="fill:#ffffff;fill-opacity:0.11764706;stroke:none"
           inkscape:connector-curvature="0" />
        <path
           id="path4918"
           d="m 45.172,1.399 c 0.959,0.172 2.072,0.304 1.916,0.533 1.049,-0.23 1.287,-0.442 -1.916,-0.533"
           i:knockout="Off"
           style="fill:#ffffff;fill-opacity:0.11764706;stroke:none"
           inkscape:connector-curvature="0" />
        <path
           id="path4920"
           d="M 47.088,1.932 46.41,2.072 47.041,2.016 47.088,1.932"
           i:knockout="Off"
           style="fill:#ffffff;fill-opacity:0.11764706;stroke:none"
           inkscape:connector-curvature="0" />
        <path
           id="path4922"
           d="m 76.992,46.856 c 0.107,2.906 -0.85,4.316 -1.713,6.812 l -1.553,0.776 c -1.271,2.468 0.123,1.567 -0.787,3.53 -1.984,1.764 -6.021,5.52 -7.313,5.863 -0.943,-0.021 0.639,-1.113 0.846,-1.541 -2.656,1.824 -2.131,2.738 -6.193,3.846 L 60.16,65.878 C 50.142,70.591 36.226,61.251 36.409,48.507 c -0.107,0.809 -0.304,0.607 -0.526,0.934 -0.517,-6.557 3.028,-13.143 9.007,-15.832 5.848,-2.895 12.704,-1.707 16.893,2.197 -2.301,-3.014 -6.881,-6.209 -12.309,-5.91 -5.317,0.084 -10.291,3.463 -11.951,7.131 -2.724,1.715 -3.04,6.611 -4.227,7.507 -1.597,11.737 3.004,16.808 10.787,22.773 1.225,0.826 0.345,0.951 0.511,1.58 -2.586,-1.211 -4.954,-3.039 -6.901,-5.277 1.033,1.512 2.148,2.982 3.589,4.137 -2.438,-0.826 -5.695,-5.908 -6.646,-6.115 4.203,7.525 17.052,13.197 23.78,10.383 -3.113,0.115 -7.068,0.064 -10.566,-1.229 -1.469,-0.756 -3.467,-2.322 -3.11,-2.615 9.182,3.43 18.667,2.598 26.612,-3.771 2.021,-1.574 4.229,-4.252 4.867,-4.289 -0.961,1.445 0.164,0.695 -0.574,1.971 2.014,-3.248 -0.875,-1.322 2.082,-5.609 l 1.092,1.504 c -0.406,-2.696 3.348,-5.97 2.967,-10.234 0.861,-1.304 0.961,1.403 0.047,4.403 1.268,-3.328 0.334,-3.863 0.66,-6.609 0.352,0.923 0.814,1.904 1.051,2.878 -0.826,-3.216 0.848,-5.416 1.262,-7.285 -0.408,-0.181 -1.275,1.422 -1.473,-2.377 0.029,-1.65 0.459,-0.865 0.625,-1.271 -0.324,-0.186 -1.174,-1.451 -1.691,-3.877 0.375,-0.57 1.002,1.478 1.512,1.562 -0.328,-1.929 -0.893,-3.4 -0.916,-4.88 -1.49,-3.114 -0.527,0.415 -1.736,-1.337 -1.586,-4.947 1.316,-1.148 1.512,-3.396 2.404,3.483 3.775,8.881 4.404,11.117 -0.48,-2.726 -1.256,-5.367 -2.203,-7.922 0.73,0.307 -1.176,-5.609 0.949,-1.691 C 83.519,18.706 76.074,10.902 69.225,7.24 70.063,8.007 71.121,8.97 70.741,9.121 67.335,7.093 67.934,6.935 67.446,6.078 64.671,4.949 64.489,6.169 62.651,6.08 57.421,3.306 56.413,3.601 51.6,1.863 l 0.219,1.023 c -3.465,-1.154 -4.037,0.438 -7.782,0.004 -0.228,-0.178 1.2,-0.644 2.375,-0.815 -3.35,0.442 -3.193,-0.66 -6.471,0.122 0.808,-0.567 1.662,-0.942 2.524,-1.424 -2.732,0.166 -6.522,1.59 -5.352,0.295 -4.456,1.988 -12.37,4.779 -16.811,8.943 l -0.14,-0.933 c -2.035,2.443 -8.874,7.296 -9.419,10.46 l -0.544,0.127 c -1.059,1.793 -1.744,3.825 -2.584,5.67 -1.385,2.36 -2.03,0.908 -1.833,1.278 -2.724,5.523 -4.077,10.164 -5.246,13.97 0.833,1.245 0.02,7.495 0.335,12.497 -1.368,24.704 17.338,48.69 37.785,54.228 2.997,1.072 7.454,1.031 11.245,1.141 -4.473,-1.279 -5.051,-0.678 -9.408,-2.197 -3.143,-1.48 -3.832,-3.17 -6.058,-5.102 l 0.881,1.557 c -4.366,-1.545 -2.539,-1.912 -6.091,-3.037 l 0.941,-1.229 C 28.751,98.334 26.418,96.056 25.78,94.795 l -1.548,0.061 c -1.86,-2.295 -2.851,-3.949 -2.779,-5.23 l -0.5,0.891 c -0.567,-0.973 -6.843,-8.607 -3.587,-6.83 -0.605,-0.553 -1.409,-0.9 -2.281,-2.484 l 0.663,-0.758 c -1.567,-2.016 -2.884,-4.6 -2.784,-5.461 0.836,1.129 1.416,1.34 1.99,1.533 -3.957,-9.818 -4.179,-0.541 -7.176,-9.994 L 8.412,66.472 C 7.926,65.74 7.631,64.945 7.24,64.165 l 0.276,-2.75 C 4.667,58.121 6.719,47.409 7.13,41.534 7.415,39.145 9.508,36.602 11.1,32.614 l -0.97,-0.167 c 1.854,-3.234 10.586,-12.988 14.63,-12.486 1.959,-2.461 -0.389,-0.009 -0.772,-0.629 4.303,-4.453 5.656,-3.146 8.56,-3.947 3.132,-1.859 -2.688,0.725 -1.203,-0.709 5.414,-1.383 3.837,-3.144 10.9,-3.846 0.745,0.424 -1.729,0.655 -2.35,1.205 4.511,-2.207 14.275,-1.705 20.617,1.225 7.359,3.439 15.627,13.605 15.953,23.17 l 0.371,0.1 c -0.188,3.802 0.582,8.199 -0.752,12.238 l 0.908,-1.912"
           i:knockout="Off"
           style="fill:#ffffff;fill-opacity:0.11764706;stroke:none"
           inkscape:connector-curvature="0" />
        <path
           id="path4924"
           d="m 32.372,59.764 -0.252,1.26 c 1.181,1.604 2.118,3.342 3.626,4.596 -1.085,-2.118 -1.891,-2.993 -3.374,-5.856"
           i:knockout="Off"
           style="fill:#ffffff;fill-opacity:0.11764706;stroke:none"
           inkscape:connector-curvature="0" />
        <path
           id="path4926"
           d="m 35.164,59.654 c -0.625,-0.691 -0.995,-1.523 -1.409,-2.352 0.396,1.457 1.207,2.709 1.962,3.982 l -0.553,-1.63"
           i:knockout="Off"
           style="fill:#ffffff;fill-opacity:0.11764706;stroke:none"
           inkscape:connector-curvature="0" />
        <path
           id="path4928"
           d="m 84.568,48.916 -0.264,0.662 c -0.484,3.438 -1.529,6.84 -3.131,9.994 1.77,-3.328 2.915,-6.968 3.395,-10.656"
           i:knockout="Off"
           style="fill:#ffffff;fill-opacity:0.11764706;stroke:none"
           inkscape:connector-curvature="0" />
        <path
           id="path4930"
           d="M 45.527,0.537 C 46.742,0.092 48.514,0.293 49.803,0 48.123,0.141 46.451,0.225 44.8,0.438 l 0.727,0.099"
           i:knockout="Off"
           style="fill:#ffffff;fill-opacity:0.11764706;stroke:none"
           inkscape:connector-curvature="0" />
        <path
           id="path4932"
           d="m 2.872,23.219 c 0.28,2.592 -1.95,3.598 0.494,1.889 1.31,-2.951 -0.512,-0.815 -0.494,-1.889"
           i:knockout="Off"
           style="fill:#ffffff;fill-opacity:0.11764706;stroke:none"
           inkscape:connector-curvature="0" />
        <path
           id="path4934"
           d="M 0,35.215 C 0.563,33.487 0.665,32.449 0.88,31.449 -0.676,33.438 0.164,33.862 0,35.215"
           i:knockout="Off"
           style="fill:#ffffff;fill-opacity:0.11764706;stroke:none"
           inkscape:connector-curvature="0" />
      </g>
    </g>
    <g
       transform="matrix(0,9.191127,-9.191127,0,1226.9197,94.89305)"
       id="g4275"
       i:layer="yes"
       i:dimmedPercent="50"
       i:rgbTrio="#4F008000FFFF"
       style="fill:#ffffff;fill-opacity:0.07843137;stroke:none;display:inline;filter:url(#filter6977);enable-background:new">
      <g
         style="fill:#ffffff;fill-opacity:0.07843137;stroke:none"
         id="g4277">
        <path
           inkscape:connector-curvature="0"
           style="fill:#ffffff;fill-opacity:0.07843137;stroke:none"
           i:knockout="Off"
           d="m 51.986,57.297 c -1.797,0.025 0.34,0.926 2.686,1.287 0.648,-0.506 1.236,-1.018 1.76,-1.516 -1.461,0.358 -2.948,0.366 -4.446,0.229"
           id="path4279" />
        <path
           inkscape:connector-curvature="0"
           style="fill:#ffffff;fill-opacity:0.07843137;stroke:none"
           i:knockout="Off"
           d="m 65.191,45.629 c 0.217,-3.236 -0.637,-2.213 -0.924,-0.978 0.335,0.174 0.6,2.281 0.924,0.978"
           id="path4284" />
        <path
           inkscape:connector-curvature="0"
           style="fill:#ffffff;fill-opacity:0.07843137;stroke:none"
           i:knockout="Off"
           d="m 45.172,1.399 c 0.959,0.172 2.072,0.304 1.916,0.533 1.049,-0.23 1.287,-0.442 -1.916,-0.533"
           id="path4286" />
        <path
           inkscape:connector-curvature="0"
           style="fill:#ffffff;fill-opacity:0.07843137;stroke:none"
           i:knockout="Off"
           d="M 47.088,1.932 46.41,2.072 47.041,2.016 47.088,1.932"
           id="path4288" />
        <path
           inkscape:connector-curvature="0"
           style="fill:#ffffff;fill-opacity:0.07843137;stroke:none"
           i:knockout="Off"
           d="m 76.992,46.856 c 0.107,2.906 -0.85,4.316 -1.713,6.812 l -1.553,0.776 c -1.271,2.468 0.123,1.567 -0.787,3.53 -1.984,1.764 -6.021,5.52 -7.313,5.863 -0.943,-0.021 0.639,-1.113 0.846,-1.541 -2.656,1.824 -2.131,2.738 -6.193,3.846 L 60.16,65.878 C 50.142,70.591 36.226,61.251 36.409,48.507 c -0.107,0.809 -0.304,0.607 -0.526,0.934 -0.517,-6.557 3.028,-13.143 9.007,-15.832 5.848,-2.895 12.704,-1.707 16.893,2.197 -2.301,-3.014 -6.881,-6.209 -12.309,-5.91 -5.317,0.084 -10.291,3.463 -11.951,7.131 -2.724,1.715 -3.04,6.611 -4.227,7.507 -1.597,11.737 3.004,16.808 10.787,22.773 1.225,0.826 0.345,0.951 0.511,1.58 -2.586,-1.211 -4.954,-3.039 -6.901,-5.277 1.033,1.512 2.148,2.982 3.589,4.137 -2.438,-0.826 -5.695,-5.908 -6.646,-6.115 4.203,7.525 17.052,13.197 23.78,10.383 -3.113,0.115 -7.068,0.064 -10.566,-1.229 -1.469,-0.756 -3.467,-2.322 -3.11,-2.615 9.182,3.43 18.667,2.598 26.612,-3.771 2.021,-1.574 4.229,-4.252 4.867,-4.289 -0.961,1.445 0.164,0.695 -0.574,1.971 2.014,-3.248 -0.875,-1.322 2.082,-5.609 l 1.092,1.504 c -0.406,-2.696 3.348,-5.97 2.967,-10.234 0.861,-1.304 0.961,1.403 0.047,4.403 1.268,-3.328 0.334,-3.863 0.66,-6.609 0.352,0.923 0.814,1.904 1.051,2.878 -0.826,-3.216 0.848,-5.416 1.262,-7.285 -0.408,-0.181 -1.275,1.422 -1.473,-2.377 0.029,-1.65 0.459,-0.865 0.625,-1.271 -0.324,-0.186 -1.174,-1.451 -1.691,-3.877 0.375,-0.57 1.002,1.478 1.512,1.562 -0.328,-1.929 -0.893,-3.4 -0.916,-4.88 -1.49,-3.114 -0.527,0.415 -1.736,-1.337 -1.586,-4.947 1.316,-1.148 1.512,-3.396 2.404,3.483 3.775,8.881 4.404,11.117 -0.48,-2.726 -1.256,-5.367 -2.203,-7.922 0.73,0.307 -1.176,-5.609 0.949,-1.691 C 83.519,18.706 76.074,10.902 69.225,7.24 70.063,8.007 71.121,8.97 70.741,9.121 67.335,7.093 67.934,6.935 67.446,6.078 64.671,4.949 64.489,6.169 62.651,6.08 57.421,3.306 56.413,3.601 51.6,1.863 l 0.219,1.023 c -3.465,-1.154 -4.037,0.438 -7.782,0.004 -0.228,-0.178 1.2,-0.644 2.375,-0.815 -3.35,0.442 -3.193,-0.66 -6.471,0.122 0.808,-0.567 1.662,-0.942 2.524,-1.424 -2.732,0.166 -6.522,1.59 -5.352,0.295 -4.456,1.988 -12.37,4.779 -16.811,8.943 l -0.14,-0.933 c -2.035,2.443 -8.874,7.296 -9.419,10.46 l -0.544,0.127 c -1.059,1.793 -1.744,3.825 -2.584,5.67 -1.385,2.36 -2.03,0.908 -1.833,1.278 -2.724,5.523 -4.077,10.164 -5.246,13.97 0.833,1.245 0.02,7.495 0.335,12.497 -1.368,24.704 17.338,48.69 37.785,54.228 2.997,1.072 7.454,1.031 11.245,1.141 -4.473,-1.279 -5.051,-0.678 -9.408,-2.197 -3.143,-1.48 -3.832,-3.17 -6.058,-5.102 l 0.881,1.557 c -4.366,-1.545 -2.539,-1.912 -6.091,-3.037 l 0.941,-1.229 C 28.751,98.334 26.418,96.056 25.78,94.795 l -1.548,0.061 c -1.86,-2.295 -2.851,-3.949 -2.779,-5.23 l -0.5,0.891 c -0.567,-0.973 -6.843,-8.607 -3.587,-6.83 -0.605,-0.553 -1.409,-0.9 -2.281,-2.484 l 0.663,-0.758 c -1.567,-2.016 -2.884,-4.6 -2.784,-5.461 0.836,1.129 1.416,1.34 1.99,1.533 -3.957,-9.818 -4.179,-0.541 -7.176,-9.994 L 8.412,66.472 C 7.926,65.74 7.631,64.945 7.24,64.165 l 0.276,-2.75 C 4.667,58.121 6.719,47.409 7.13,41.534 7.415,39.145 9.508,36.602 11.1,32.614 l -0.97,-0.167 c 1.854,-3.234 10.586,-12.988 14.63,-12.486 1.959,-2.461 -0.389,-0.009 -0.772,-0.629 4.303,-4.453 5.656,-3.146 8.56,-3.947 3.132,-1.859 -2.688,0.725 -1.203,-0.709 5.414,-1.383 3.837,-3.144 10.9,-3.846 0.745,0.424 -1.729,0.655 -2.35,1.205 4.511,-2.207 14.275,-1.705 20.617,1.225 7.359,3.439 15.627,13.605 15.953,23.17 l 0.371,0.1 c -0.188,3.802 0.582,8.199 -0.752,12.238 l 0.908,-1.912"
           id="path4290" />
        <path
           inkscape:connector-curvature="0"
           style="fill:#ffffff;fill-opacity:0.07843137;stroke:none"
           i:knockout="Off"
           d="m 32.372,59.764 -0.252,1.26 c 1.181,1.604 2.118,3.342 3.626,4.596 -1.085,-2.118 -1.891,-2.993 -3.374,-5.856"
           id="path4292" />
        <path
           inkscape:connector-curvature="0"
           style="fill:#ffffff;fill-opacity:0.07843137;stroke:none"
           i:knockout="Off"
           d="m 35.164,59.654 c -0.625,-0.691 -0.995,-1.523 -1.409,-2.352 0.396,1.457 1.207,2.709 1.962,3.982 l -0.553,-1.63"
           id="path4294" />
        <path
           inkscape:connector-curvature="0"
           style="fill:#ffffff;fill-opacity:0.07843137;stroke:none"
           i:knockout="Off"
           d="m 84.568,48.916 -0.264,0.662 c -0.484,3.438 -1.529,6.84 -3.131,9.994 1.77,-3.328 2.915,-6.968 3.395,-10.656"
           id="path4296" />
        <path
           inkscape:connector-curvature="0"
           style="fill:#ffffff;fill-opacity:0.07843137;stroke:none"
           i:knockout="Off"
           d="M 45.527,0.537 C 46.742,0.092 48.514,0.293 49.803,0 48.123,0.141 46.451,0.225 44.8,0.438 l 0.727,0.099"
           id="path4298" />
        <path
           inkscape:connector-curvature="0"
           style="fill:#ffffff;fill-opacity:0.07843137;stroke:none"
           i:knockout="Off"
           d="m 2.872,23.219 c 0.28,2.592 -1.95,3.598 0.494,1.889 1.31,-2.951 -0.512,-0.815 -0.494,-1.889"
           id="path4300" />
        <path
           inkscape:connector-curvature="0"
           style="fill:#ffffff;fill-opacity:0.07843137;stroke:none"
           i:knockout="Off"
           d="M 0,35.215 C 0.563,33.487 0.665,32.449 0.88,31.449 -0.676,33.438 0.164,33.862 0,35.215"
           id="path4302" />
      </g>
    </g>
    <g
       style="fill:#ffffff;fill-opacity:0.03921569;stroke:none;display:inline;filter:url(#filter6965);enable-background:new"
       i:rgbTrio="#4F008000FFFF"
       i:dimmedPercent="50"
       i:layer="yes"
       id="g5090"
       transform="matrix(-10.980693,0,0,-10.980693,1384.0338,1067.9226)">
      <g
         id="g5092"
         style="fill:#ffffff;fill-opacity:0.03921569;stroke:none">
        <path
           id="path5098"
           d="m 65.191,45.629 c 0.217,-3.236 -0.637,-2.213 -0.924,-0.978 0.335,0.174 0.6,2.281 0.924,0.978"
           i:knockout="Off"
           style="fill:#ffffff;fill-opacity:0.03921569;stroke:none"
           inkscape:connector-curvature="0" />
        <path
           id="path5100"
           d="m 45.172,1.399 c 0.959,0.172 2.072,0.304 1.916,0.533 1.049,-0.23 1.287,-0.442 -1.916,-0.533"
           i:knockout="Off"
           style="fill:#ffffff;fill-opacity:0.03921569;stroke:none"
           inkscape:connector-curvature="0" />
        <path
           id="path5102"
           d="M 47.088,1.932 46.41,2.072 47.041,2.016 47.088,1.932"
           i:knockout="Off"
           style="fill:#ffffff;fill-opacity:0.03921569;stroke:none"
           inkscape:connector-curvature="0" />
        <path
           id="path5104"
           d="m 76.992,46.856 c 0.107,2.906 -0.85,4.316 -1.713,6.812 l -1.553,0.776 c -1.271,2.468 0.123,1.567 -0.787,3.53 -1.984,1.764 -6.021,5.52 -7.313,5.863 -0.943,-0.021 0.639,-1.113 0.846,-1.541 -2.656,1.824 -2.131,2.738 -6.193,3.846 L 60.16,65.878 C 50.142,70.591 36.226,61.251 36.409,48.507 c -0.107,0.809 -0.304,0.607 -0.526,0.934 -0.517,-6.557 3.028,-13.143 9.007,-15.832 5.848,-2.895 12.704,-1.707 16.893,2.197 -2.301,-3.014 -6.881,-6.209 -12.309,-5.91 -5.317,0.084 -10.291,3.463 -11.951,7.131 -2.724,1.715 -3.04,6.611 -4.227,7.507 -1.597,11.737 3.004,16.808 10.787,22.773 1.225,0.826 0.345,0.951 0.511,1.58 -2.586,-1.211 -4.954,-3.039 -6.901,-5.277 1.033,1.512 2.148,2.982 3.589,4.137 -2.438,-0.826 -5.695,-5.908 -6.646,-6.115 4.203,7.525 17.052,13.197 23.78,10.383 -3.113,0.115 -7.068,0.064 -10.566,-1.229 -1.469,-0.756 -3.467,-2.322 -3.11,-2.615 9.182,3.43 18.667,2.598 26.612,-3.771 2.021,-1.574 4.229,-4.252 4.867,-4.289 -0.961,1.445 0.164,0.695 -0.574,1.971 2.014,-3.248 -0.875,-1.322 2.082,-5.609 l 1.092,1.504 c -0.406,-2.696 3.348,-5.97 2.967,-10.234 0.861,-1.304 0.961,1.403 0.047,4.403 1.268,-3.328 0.334,-3.863 0.66,-6.609 0.352,0.923 0.814,1.904 1.051,2.878 -0.826,-3.216 0.848,-5.416 1.262,-7.285 -0.408,-0.181 -1.275,1.422 -1.473,-2.377 0.029,-1.65 0.459,-0.865 0.625,-1.271 -0.324,-0.186 -1.174,-1.451 -1.691,-3.877 0.375,-0.57 1.002,1.478 1.512,1.562 -0.328,-1.929 -0.893,-3.4 -0.916,-4.88 -1.49,-3.114 -0.527,0.415 -1.736,-1.337 -1.586,-4.947 1.316,-1.148 1.512,-3.396 2.404,3.483 3.775,8.881 4.404,11.117 -0.48,-2.726 -1.256,-5.367 -2.203,-7.922 0.73,0.307 -1.176,-5.609 0.949,-1.691 C 83.519,18.706 76.074,10.902 69.225,7.24 70.063,8.007 71.121,8.97 70.741,9.121 67.335,7.093 67.934,6.935 67.446,6.078 64.671,4.949 64.489,6.169 62.651,6.08 57.421,3.306 56.413,3.601 51.6,1.863 l 0.219,1.023 c -3.465,-1.154 -4.037,0.438 -7.782,0.004 -0.228,-0.178 1.2,-0.644 2.375,-0.815 -3.35,0.442 -3.193,-0.66 -6.471,0.122 0.808,-0.567 1.662,-0.942 2.524,-1.424 -2.732,0.166 -6.522,1.59 -5.352,0.295 -4.456,1.988 -12.37,4.779 -16.811,8.943 l -0.14,-0.933 c -2.035,2.443 -8.874,7.296 -9.419,10.46 l -0.544,0.127 c -1.059,1.793 -1.744,3.825 -2.584,5.67 -1.385,2.36 -2.03,0.908 -1.833,1.278 -2.724,5.523 -4.077,10.164 -5.246,13.97 0.833,1.245 0.02,7.495 0.335,12.497 -1.368,24.704 17.338,48.69 37.785,54.228 2.997,1.072 7.454,1.031 11.245,1.141 -4.473,-1.279 -5.051,-0.678 -9.408,-2.197 -3.143,-1.48 -3.832,-3.17 -6.058,-5.102 l 0.881,1.557 c -4.366,-1.545 -2.539,-1.912 -6.091,-3.037 l 0.941,-1.229 C 28.751,98.334 26.418,96.056 25.78,94.795 l -1.548,0.061 c -1.86,-2.295 -2.851,-3.949 -2.779,-5.23 l -0.5,0.891 c -0.567,-0.973 -6.843,-8.607 -3.587,-6.83 -0.605,-0.553 -1.409,-0.9 -2.281,-2.484 l 0.663,-0.758 c -1.567,-2.016 -2.884,-4.6 -2.784,-5.461 0.836,1.129 1.416,1.34 1.99,1.533 -3.957,-9.818 -4.179,-0.541 -7.176,-9.994 L 8.412,66.472 C 7.926,65.74 7.631,64.945 7.24,64.165 l 0.276,-2.75 C 4.667,58.121 6.719,47.409 7.13,41.534 7.415,39.145 9.508,36.602 11.1,32.614 l -0.97,-0.167 c 1.854,-3.234 10.586,-12.988 14.63,-12.486 1.959,-2.461 -0.389,-0.009 -0.772,-0.629 4.303,-4.453 5.656,-3.146 8.56,-3.947 3.132,-1.859 -2.688,0.725 -1.203,-0.709 5.414,-1.383 3.837,-3.144 10.9,-3.846 0.745,0.424 -1.729,0.655 -2.35,1.205 4.511,-2.207 14.275,-1.705 20.617,1.225 7.359,3.439 15.627,13.605 15.953,23.17 l 0.371,0.1 c -0.188,3.802 0.582,8.199 -0.752,12.238 l 0.908,-1.912"
           i:knockout="Off"
           style="fill:#ffffff;fill-opacity:0.03921569;stroke:none"
           inkscape:connector-curvature="0" />
        <path
           id="path5106"
           d="m 32.372,59.764 -0.252,1.26 c 1.181,1.604 2.118,3.342 3.626,4.596 -1.085,-2.118 -1.891,-2.993 -3.374,-5.856"
           i:knockout="Off"
           style="fill:#ffffff;fill-opacity:0.03921569;stroke:none"
           inkscape:connector-curvature="0" />
        <path
           id="path5108"
           d="m 35.164,59.654 c -0.625,-0.691 -0.995,-1.523 -1.409,-2.352 0.396,1.457 1.207,2.709 1.962,3.982 l -0.553,-1.63"
           i:knockout="Off"
           style="fill:#ffffff;fill-opacity:0.03921569;stroke:none"
           inkscape:connector-curvature="0" />
        <path
           id="path5110"
           d="m 84.568,48.916 -0.264,0.662 c -0.484,3.438 -1.529,6.84 -3.131,9.994 1.77,-3.328 2.915,-6.968 3.395,-10.656"
           i:knockout="Off"
           style="fill:#ffffff;fill-opacity:0.03921569;stroke:none"
           inkscape:connector-curvature="0" />
        <path
           id="path5112"
           d="M 45.527,0.537 C 46.742,0.092 48.514,0.293 49.803,0 48.123,0.141 46.451,0.225 44.8,0.438 l 0.727,0.099"
           i:knockout="Off"
           style="fill:#ffffff;fill-opacity:0.03921569;stroke:none"
           inkscape:connector-curvature="0" />
        <path
           id="path5114"
           d="m 2.872,23.219 c 0.28,2.592 -1.95,3.598 0.494,1.889 1.31,-2.951 -0.512,-0.815 -0.494,-1.889"
           i:knockout="Off"
           style="fill:#ffffff;fill-opacity:0.03921569;stroke:none"
           inkscape:connector-curvature="0" />
        <path
           id="path5116"
           d="M 0,35.215 C 0.563,33.487 0.665,32.449 0.88,31.449 -0.676,33.438 0.164,33.862 0,35.215"
           i:knockout="Off"
           style="fill:#ffffff;fill-opacity:0.03921569;stroke:none"
           inkscape:connector-curvature="0" />
      </g>
    </g>
  </g>
  <g
     inkscape:groupmode="layer"
     id="Black"
     inkscape:label="Black"
     sodipodi:insensitive="true"
     style="display:inline">
    <rect
       style="fill:url(#radialGradient5774);fill-opacity:1;stroke:none"
       id="rect5766"
       width="1600"
       height="1200"
       x="0"
       y="8.5265128e-14" />
  </g>
  <g
     inkscape:groupmode="layer"
     id="Clock"
     inkscape:label="Clock"
     style="display:inline">
    <rect
       inkscape:transform-center-x="141.69687"
       style="opacity:0.42000002;fill:#ffffff;fill-opacity:1;fill-rule:nonzero;stroke:none;filter:url(#filter5745)"
       id="rect5737"
       width="430"
       height="60"
       x="146.54369"
       y="807.42212"
       transform="matrix(0.76604444,-0.64278762,0.64278762,0.76604444,-156.96787,309.791)"
       inkscape:transform-center-y="118.89775" />
    <rect
       y="570"
       x="400"
       height="60"
       width="430"
       id="rect5735"
       style="opacity:0.8;fill:#ffffff;fill-opacity:1;fill-rule:nonzero;stroke:none"
       inkscape:transform-center-x="184.97211" />
    <path
       sodipodi:type="arc"
       style="opacity:0;fill:none;stroke:#ffffff;stroke-width:47.85000229;stroke-miterlimit:4;stroke-opacity:1;stroke-dasharray:none"
       id="path4921"
       sodipodi:cx="868.66669"
       sodipodi:cy="603.33331"
       sodipodi:rx="478"
       sodipodi:ry="478"
       d="m 1346.6667,603.33331 a 478,478 0 1 1 -956.00001,0 478,478 0 1 1 956.00001,0 z"
       transform="matrix(1.044932,0,0,1.0449321,-107.69762,-30.442356)" />
    <rect
       style="opacity:0.8;fill:#ffffff;fill-opacity:1;fill-rule:nonzero;stroke:none"
       id="rect4929"
       width="60"
       height="330"
       x="770"
       y="300" />
    <rect
       inkscape:transform-center-y="182.16195"
       transform="matrix(0.17364817,-0.98480776,0.98480776,0.17364817,-198.51465,654.58549)"
       y="943.83881"
       x="-172.83049"
       height="60"
       width="430"
       id="rect5739"
       style="opacity:0.2;fill:#ffffff;fill-opacity:1;fill-rule:nonzero;stroke:none;filter:url(#filter5749)"
       inkscape:transform-center-x="32.120085" />
    <rect
       inkscape:transform-center-x="-92.486039"
       style="opacity:0.1;fill:#ffffff;fill-opacity:1;fill-rule:nonzero;stroke:none;filter:url(#filter5757)"
       id="rect5741"
       width="430"
       height="60"
       x="-519.60132"
       y="962.79614"
       transform="matrix(-0.50000001,-0.86602541,0.86602541,-0.50000001,-119.6292,992.79617)"
       inkscape:transform-center-y="160.19057" />
    <rect
       inkscape:transform-center-y="63.264169"
       transform="matrix(-0.93969263,-0.34202014,0.34202014,-0.93969263,70.173744,1283.6298)"
       y="862.00763"
       x="-851.94312"
       height="60"
       width="430"
       id="rect5743"
       style="opacity:0.1;fill:#ffffff;fill-opacity:1;fill-rule:nonzero;stroke:none;filter:url(#filter5761)"
       inkscape:transform-center-x="-173.81696" />
  </g>
  <g
     inkscape:label="Text"
     inkscape:groupmode="layer"
     id="Text"
     transform="translate(0,147.63782)"
     style="display:inline">
    <g
       style="display:inline"
       transform="matrix(0.76878217,0,0,0.76878217,1064.4029,547.05376)"
       id="layer1-2"
       inkscape:label="sidux">
      <g
         style="fill:#af0000;fill-opacity:1;stroke:#4b0000;stroke-width:4.11401224;stroke-linejoin:miter;stroke-miterlimit:4;stroke-opacity:1;stroke-dasharray:none;display:inline;filter:url(#filter4202-5)"
         transform="matrix(1.2402429,0,0,1.2402429,-88.63882,-1410.7384)"
         id="aptosid-blur"
         inkscape:label="aptosid">
        <path
           style="font-size:144px;font-style:normal;font-variant:normal;font-weight:bold;font-stretch:normal;text-align:center;line-height:125%;letter-spacing:0px;word-spacing:0px;writing-mode:lr-tb;text-anchor:middle;fill:#af0000;fill-opacity:1;stroke:#4b0000;stroke-width:4.11401224;stroke-linejoin:miter;stroke-miterlimit:4;stroke-opacity:1;stroke-dasharray:none;font-family:Dustismo;-inkscape-font-specification:Dustismo Bold"
           d="m 126.30444,1485.6954 c -9.51565,10e-5 -17.87502,3.5626 -25.09375,10.6875 -7.17188,7.1251 -10.78126,15.4219 -10.78125,24.9375 -1e-5,9.5156 3.54687,17.8281 10.625,24.9062 7.07811,7.0781 15.39059,10.625 24.90625,10.625 9.11103,0 16.58644,-3.4982 22.4375,-10.4375 l 0,8.9375 15.99556,0 0,-11.5937 -4.65625,0 0,-55.8125 -11.27681,0 0,8.2187 c -5.53131,-6.9843 -12.92192,-10.4686 -22.15625,-10.4687 z m 0,11.5937 c 6.28121,0 11.5312,2.4532 15.75,7.375 4.03119,4.7344 6.03118,10.2813 6.03125,16.6563 -7e-5,6.3281 -2.07818,11.8594 -6.25,16.5937 -4.35942,4.875 -9.64067,7.3125 -15.875,7.3125 -6.32816,0 -11.9219,-2.3749 -16.75,-7.1562 -4.78126,-4.8281 -7.15627,-10.4219 -7.15625,-16.75 -2e-5,-6.3281 2.45311,-11.8906 7.375,-16.7188 4.92185,-4.875 10.54684,-7.3125 16.875,-7.3125 z"
           id="a_"
           inkscape:connector-curvature="0"
           sodipodi:nodetypes="ccssscccccccccscccscscs" />
        <path
           sodipodi:nodetypes="cccccccccsccccscccscscs"
           inkscape:connector-curvature="0"
           id="p_"
           d="m 207.94439,1485.6954 c -9.0469,10e-5 -16.51565,3.5156 -22.375,10.5 l 0,-9 -11.32858,0 0,83.875 -13.21875,0 0,11.5937 24.54733,0 0,-36.2812 c 5.85935,6.9844 13.3281,10.4687 22.375,10.4687 9.4687,0 17.54682,-3.5625 24.25,-10.6875 6.56243,-7.0313 9.84368,-15.2968 9.84375,-24.8125 -7e-5,-9.5155 -3.28132,-17.7968 -9.84375,-24.875 -6.70318,-7.1718 -14.7813,-10.7811 -24.25,-10.7812 z m 0,11.625 c 6.28121,0 11.62495,2.4531 16.03125,7.375 4.26557,4.7813 6.37494,10.3282 6.375,16.6562 -6e-5,6.2813 -2.15631,11.7969 -6.46875,16.5313 -4.45318,4.9219 -9.75004,7.375 -15.9375,7.375 -6.23441,0 -11.53128,-2.4531 -15.84375,-7.375 -4.12502,-4.6875 -6.18752,-10.2031 -6.1875,-16.5313 -2e-5,-6.3749 2.04685,-11.9218 6.125,-16.6562 4.31247,-4.9219 9.62497,-7.375 15.90625,-7.375 z"
           style="fill:#af0000;fill-opacity:1;fill-rule:nonzero;stroke:#4b0000;stroke-width:4.11401224;stroke-linejoin:miter;stroke-miterlimit:4;stroke-opacity:1;stroke-dasharray:none" />
        <text
           xml:space="preserve"
           style="font-size:144px;font-style:normal;font-variant:normal;font-weight:bold;font-stretch:normal;text-align:start;line-height:125%;letter-spacing:0px;word-spacing:0px;writing-mode:lr-tb;text-anchor:start;fill:#af0000;fill-opacity:1;stroke:#4b0000;stroke-width:4.11401224;stroke-linejoin:miter;stroke-miterlimit:4;stroke-opacity:1;stroke-dasharray:none;font-family:Dustismo;-inkscape-font-specification:Dustismo Bold"
           x="246.53732"
           y="1555.3855"
           id="to_"
           sodipodi:linespacing="125%"><tspan
             sodipodi:role="line"
             id="tspan3958"
             x="246.53732"
             y="1555.3855"
             dx="0 0 26.252148"
             style="fill:#af0000;fill-opacity:1;stroke:#4b0000;stroke-width:4.11401224;stroke-linejoin:miter;stroke-miterlimit:4;stroke-opacity:1;stroke-dasharray:none"><tspan
               dx="-0.98228282 -4.3535538 121.26881"
               style="font-size:144px;font-style:normal;font-variant:normal;font-weight:bold;font-stretch:normal;text-align:start;line-height:125%;writing-mode:lr-tb;text-anchor:start;fill:#af0000;fill-opacity:1;stroke:#4b0000;stroke-width:4.11401224;stroke-linejoin:miter;stroke-miterlimit:4;stroke-opacity:1;stroke-dasharray:none;font-family:Dustismo;-inkscape-font-specification:Dustismo Bold"
               id="tspan3960">to </tspan></tspan></text>
        <path
           sodipodi:nodetypes="ccscccsscscccsssscsaczsccc"
           d="m 414.17377,1509.6121 c -0.2813,-4.3126 -2.7422,-7.5235 -7.3829,-9.6328 -3.6093,-1.6407 -7.8749,-2.461 -12.7968,-2.461 -3.5625,0 -6.9844,0.6563 -10.2657,1.9688 -4.3124,1.6875 -6.4687,4.0078 -6.4687,6.9609 0,3.1406 2.4141,5.5547 7.2422,7.2422 3.0469,1.0781 7.0473,1.1402 14.8125,2.1078 15.0809,1.8793 25.2899,7.7759 25.5469,20.3922 0.1345,6.608 -3.2813,11.8359 -9.8438,15.6797 -5.4843,3.2343 -11.8125,4.8515 -18.9844,4.8515 -7.8749,0 -14.578,-1.5938 -20.1093,-4.7812 -6.4687,-3.7032 -10.2187,-9.1641 -11.25,-16.3828 l 11.3203,-2.3906 c 1.1719,5.1093 4.4297,8.6015 9.1524,10.1015 4.7226,1.5 8.0365,1.9757 11.7382,1.875 4.5938,-0.125 9.0781,-1.3672 11.6524,-2.836 2.7293,-1.5573 4.5495,-3.0879 4.6523,-5.6952 0.1829,-4.6371 -3.9067,-7.2691 -12.2504,-8.7691 -6.0938,-0.75 -12.519,-1.2319 -18.6168,-2.6919 -4.9423,-1.1833 -9.4489,-3.0019 -12.5859,-6.539 -2.874,-3.2406 -4.5703,-6.586 -4.5703,-12.1641 0,-5.6719 2.4141,-10.1484 7.8164,-14.1328 5.4024,-3.9844 12.7852,-6.3281 21.5039,-6.3281 7.8282,0 14.4844,1.5937 19.9688,4.7812 6.4218,3.75 10.1484,9.2109 11.1796,16.3828 l -11.4609,2.461"
           style="font-size:144px;font-style:normal;font-variant:normal;font-weight:bold;font-stretch:normal;text-align:start;line-height:125%;letter-spacing:0px;word-spacing:0px;writing-mode:lr-tb;text-anchor:start;fill:#af0000;fill-opacity:1;stroke:#4b0000;stroke-width:4.11401224;stroke-linejoin:miter;stroke-miterlimit:4;stroke-opacity:1;stroke-dasharray:none;font-family:Dustismo;-inkscape-font-specification:Dustismo Bold"
           id="s_"
           inkscape:connector-curvature="0" />
        <path
           sodipodi:nodetypes="ccccccc"
           d="m 433.60678,1487.1824 20.32031,0 0,68.2031 -11.60156,0 0,-56.6016 -8.71875,0 0,-11.6015"
           style="font-size:144px;font-style:normal;font-variant:normal;font-weight:bold;font-stretch:normal;text-align:start;line-height:125%;letter-spacing:0px;word-spacing:0px;writing-mode:lr-tb;text-anchor:start;fill:#af0000;fill-opacity:1;stroke:#4b0000;stroke-width:4.11401224;stroke-linejoin:miter;stroke-miterlimit:4;stroke-opacity:1;stroke-dasharray:none;font-family:Dustismo;-inkscape-font-specification:Dustismo Bold"
           id="i-body_"
           inkscape:connector-curvature="0" />
        <path
           sodipodi:nodetypes="ccccc"
           inkscape:connector-curvature="0"
           id="i-dot_"
           d="m 448.25844,1456.6341 9.895,9.894 -9.895,9.895 -9.894,-9.895 z"
           style="fill:#af0000;fill-opacity:1;fill-rule:nonzero;stroke:#4b0000;stroke-width:4.11401224;stroke-linejoin:miter;stroke-miterlimit:4;stroke-opacity:1;stroke-dasharray:none" />
        <path
           sodipodi:nodetypes="ccccccssscccccsscccscscs"
           inkscape:connector-curvature="0"
           id="d_"
           d="m 508.45717,1459.9767 0,11.5937 13.25,0 0,24.625 c -5.5313,-6.9844 -12.89068,-10.4999 -22.125,-10.5 -9.51566,10e-5 -17.90627,3.5626 -25.125,10.6875 -7.17188,7.1251 -10.75,15.4532 -10.75,24.9687 0,9.5157 3.54687,17.8282 10.625,24.9063 7.0781,7.0781 15.35935,10.5937 24.875,10.5937 9.14058,0 16.64057,-3.4843 22.5,-10.4687 l 0,9 11.35225,0 0,-95.4062 z m -10.0625,37.3437 c 0.39002,-0.019 0.79199,0 1.1875,0 6.2812,0 11.53119,2.4531 15.75,7.375 4.03119,4.7344 6.03119,10.2813 6.03125,16.6562 -6e-5,6.3282 -2.07819,11.8594 -6.25,16.5938 -4.35943,4.875 -9.67192,7.3125 -15.90625,7.3125 -6.32815,0 -11.89065,-2.375 -16.71875,-7.1563 -4.78127,-4.8281 -7.18751,-10.4218 -7.1875,-16.75 -1e-5,-6.328 2.48435,-11.8906 7.40625,-16.7187 4.61423,-4.5704 9.83725,-7.0269 15.6875,-7.3125 z"
           style="fill:#af0000;fill-opacity:1;fill-rule:nonzero;stroke:#4b0000;stroke-width:4.11401224;stroke-linejoin:miter;stroke-miterlimit:4;stroke-opacity:1;stroke-dasharray:none" />
      </g>
      <g
         inkscape:label="aptosid"
         id="aptosid"
         transform="matrix(1.2402429,0,0,1.2402429,-88.63882,-1410.7384)"
         style="fill:url(#linearGradient3952);fill-opacity:1;stroke:#ffffff;stroke-width:2.05700612;stroke-linejoin:round;stroke-miterlimit:4;stroke-opacity:0.50196078;stroke-dasharray:none;display:inline">
        <path
           inkscape:connector-curvature="0"
           sodipodi:nodetypes="ccssscccccccccscccscscs"
           id="a"
           d="m 126.30444,1485.6954 c -9.51565,10e-5 -17.87502,3.5626 -25.09375,10.6875 -7.17188,7.1251 -10.78126,15.4219 -10.78125,24.9375 -1e-5,9.5156 3.54687,17.8281 10.625,24.9062 7.07811,7.0781 15.39059,10.625 24.90625,10.625 9.11103,0 16.58644,-3.4982 22.4375,-10.4375 l 0,8.9375 15.99556,0 0,-11.5937 -4.65625,0 0,-55.8125 -11.27681,0 0,8.2187 c -5.53131,-6.9843 -12.92192,-10.4686 -22.15625,-10.4687 z m 0,11.5937 c 6.28121,0 11.5312,2.4532 15.75,7.375 4.03119,4.7344 6.03118,10.2813 6.03125,16.6563 -7e-5,6.3281 -2.07818,11.8594 -6.25,16.5937 -4.35942,4.875 -9.64067,7.3125 -15.875,7.3125 -6.32816,0 -11.9219,-2.3749 -16.75,-7.1562 -4.78126,-4.8281 -7.15627,-10.4219 -7.15625,-16.75 -2e-5,-6.3281 2.45311,-11.8906 7.375,-16.7188 4.92185,-4.875 10.54684,-7.3125 16.875,-7.3125 z"
           style="font-size:144px;font-style:normal;font-variant:normal;font-weight:bold;font-stretch:normal;text-align:center;line-height:125%;letter-spacing:0px;word-spacing:0px;writing-mode:lr-tb;text-anchor:middle;fill:url(#linearGradient3985);fill-opacity:1;stroke:#ffffff;stroke-width:2.05700612;stroke-linejoin:round;stroke-miterlimit:4;stroke-opacity:0.50196078;stroke-dasharray:none;font-family:Dustismo;-inkscape-font-specification:Dustismo Bold" />
        <path
           inkscape:connector-curvature="0"
           style="fill:url(#linearGradient3979);fill-opacity:1;fill-rule:nonzero;stroke:#ffffff;stroke-width:2.05700612;stroke-linejoin:round;stroke-miterlimit:4;stroke-opacity:0.50196078;stroke-dasharray:none"
           d="m 207.94439,1485.6954 c -9.0469,10e-5 -16.51565,3.5156 -22.375,10.5 l 0,-9 -11.32858,0 0,83.875 -13.21875,0 0,11.5937 24.54733,0 0,-36.2812 c 5.85935,6.9844 13.3281,10.4687 22.375,10.4687 9.4687,0 17.54682,-3.5625 24.25,-10.6875 6.56243,-7.0313 9.84368,-15.2968 9.84375,-24.8125 -7e-5,-9.5155 -3.28132,-17.7968 -9.84375,-24.875 -6.70318,-7.1718 -14.7813,-10.7811 -24.25,-10.7812 z m 0,11.625 c 6.28121,0 11.62495,2.4531 16.03125,7.375 4.26557,4.7813 6.37494,10.3282 6.375,16.6562 -6e-5,6.2813 -2.15631,11.7969 -6.46875,16.5313 -4.45318,4.9219 -9.75004,7.375 -15.9375,7.375 -6.23441,0 -11.53128,-2.4531 -15.84375,-7.375 -4.12502,-4.6875 -6.18752,-10.2031 -6.1875,-16.5313 -2e-5,-6.3749 2.04685,-11.9218 6.125,-16.6562 4.31247,-4.9219 9.62497,-7.375 15.90625,-7.375 z"
           id="p"
           sodipodi:nodetypes="cccccccccsccccscccscscs" />
        <text
           sodipodi:linespacing="125%"
           id="to"
           y="1555.3855"
           x="246.53732"
           style="font-size:144px;font-style:normal;font-variant:normal;font-weight:bold;font-stretch:normal;text-align:start;line-height:125%;letter-spacing:0px;word-spacing:0px;writing-mode:lr-tb;text-anchor:start;fill:url(#linearGradient3975);fill-opacity:1;stroke:#ffffff;stroke-width:2.05700612;stroke-linejoin:round;stroke-miterlimit:4;stroke-opacity:0.50196078;stroke-dasharray:none;font-family:Dustismo;-inkscape-font-specification:Dustismo Bold"
           xml:space="preserve"><tspan
             style="fill:url(#linearGradient3975);fill-opacity:1;stroke:#ffffff;stroke-width:2.05700612;stroke-linejoin:round;stroke-miterlimit:4;stroke-opacity:0.50196078;stroke-dasharray:none"
             dx="0 0 26.252148"
             y="1555.3855"
             x="246.53732"
             id="tspan3115"
             sodipodi:role="line"><tspan
               id="tspan3117"
               style="font-size:144px;font-style:normal;font-variant:normal;font-weight:bold;font-stretch:normal;text-align:start;line-height:125%;writing-mode:lr-tb;text-anchor:start;fill:url(#linearGradient3975);fill-opacity:1;stroke:#ffffff;stroke-width:2.05700612;stroke-linejoin:round;stroke-miterlimit:4;stroke-opacity:0.50196078;stroke-dasharray:none;font-family:Dustismo;-inkscape-font-specification:Dustismo Bold"
               dx="-0.98228282 -4.3535538 121.26881">to </tspan></tspan></text>
        <path
           inkscape:connector-curvature="0"
           id="s"
           style="font-size:144px;font-style:normal;font-variant:normal;font-weight:bold;font-stretch:normal;text-align:start;line-height:125%;letter-spacing:0px;word-spacing:0px;writing-mode:lr-tb;text-anchor:start;fill:url(#linearGradient3983);fill-opacity:1;stroke:#ffffff;stroke-width:2.05700612;stroke-linejoin:round;stroke-miterlimit:4;stroke-opacity:0.50196078;stroke-dasharray:none;font-family:Dustismo;-inkscape-font-specification:Dustismo Bold"
           d="m 414.17377,1509.6121 c -0.2813,-4.3126 -2.7422,-7.5235 -7.3829,-9.6328 -3.6093,-1.6407 -7.8749,-2.461 -12.7968,-2.461 -3.5625,0 -6.9844,0.6563 -10.2657,1.9688 -4.3124,1.6875 -6.4687,4.0078 -6.4687,6.9609 0,3.1406 2.4141,5.5547 7.2422,7.2422 3.0469,1.0781 7.0473,1.1402 14.8125,2.1078 15.0809,1.8793 25.2899,7.7759 25.5469,20.3922 0.1345,6.608 -3.2813,11.8359 -9.8438,15.6797 -5.4843,3.2343 -11.8125,4.8515 -18.9844,4.8515 -7.8749,0 -14.578,-1.5938 -20.1093,-4.7812 -6.4687,-3.7032 -10.2187,-9.1641 -11.25,-16.3828 l 11.3203,-2.3906 c 1.1719,5.1093 4.4297,8.6015 9.1524,10.1015 4.7226,1.5 8.0365,1.9757 11.7382,1.875 4.5938,-0.125 9.0781,-1.3672 11.6524,-2.836 2.7293,-1.5573 4.5495,-3.0879 4.6523,-5.6952 0.1829,-4.6371 -3.9067,-7.2691 -12.2504,-8.7691 -6.0938,-0.75 -12.519,-1.2319 -18.6168,-2.6919 -4.9423,-1.1833 -9.4489,-3.0019 -12.5859,-6.539 -2.874,-3.2406 -4.5703,-6.586 -4.5703,-12.1641 0,-5.6719 2.4141,-10.1484 7.8164,-14.1328 5.4024,-3.9844 12.7852,-6.3281 21.5039,-6.3281 7.8282,0 14.4844,1.5937 19.9688,4.7812 6.4218,3.75 10.1484,9.2109 11.1796,16.3828 l -11.4609,2.461"
           sodipodi:nodetypes="ccscccsscscccsssscsaczsccc" />
        <path
           inkscape:connector-curvature="0"
           id="i-body"
           style="font-size:144px;font-style:normal;font-variant:normal;font-weight:bold;font-stretch:normal;text-align:start;line-height:125%;letter-spacing:0px;word-spacing:0px;writing-mode:lr-tb;text-anchor:start;fill:url(#linearGradient3987);fill-opacity:1;stroke:#ffffff;stroke-width:2.05700612;stroke-linejoin:round;stroke-miterlimit:4;stroke-opacity:0.50196078;stroke-dasharray:none;font-family:Dustismo;-inkscape-font-specification:Dustismo Bold"
           d="m 433.60678,1487.1824 20.32031,0 0,68.2031 -11.60156,0 0,-56.6016 -8.71875,0 0,-11.6015"
           sodipodi:nodetypes="ccccccc" />
        <path
           style="fill:url(#linearGradient3977);fill-opacity:1;fill-rule:nonzero;stroke:#ffffff;stroke-width:2.05700612;stroke-linejoin:round;stroke-miterlimit:4;stroke-opacity:0.50196078;stroke-dasharray:none"
           d="m 448.25844,1456.6341 9.895,9.894 -9.895,9.895 -9.894,-9.895 z"
           id="i-dot"
           inkscape:connector-curvature="0"
           sodipodi:nodetypes="ccccc" />
        <path
           style="fill:url(#linearGradient3981);fill-opacity:1;fill-rule:nonzero;stroke:#ffffff;stroke-width:2.05700612;stroke-linejoin:round;stroke-miterlimit:4;stroke-opacity:0.50196078;stroke-dasharray:none"
           d="m 508.45717,1459.9767 0,11.5937 13.25,0 0,24.625 c -5.5313,-6.9844 -12.89068,-10.4999 -22.125,-10.5 -9.51566,10e-5 -17.90627,3.5626 -25.125,10.6875 -7.17188,7.1251 -10.75,15.4532 -10.75,24.9687 0,9.5157 3.54687,17.8282 10.625,24.9063 7.0781,7.0781 15.35935,10.5937 24.875,10.5937 9.14058,0 16.64057,-3.4843 22.5,-10.4687 l 0,9 11.35225,0 0,-95.4062 z m -10.0625,37.3437 c 0.39002,-0.019 0.79199,0 1.1875,0 6.2812,0 11.53119,2.4531 15.75,7.375 4.03119,4.7344 6.03119,10.2813 6.03125,16.6562 -6e-5,6.3282 -2.07819,11.8594 -6.25,16.5938 -4.35943,4.875 -9.67192,7.3125 -15.90625,7.3125 -6.32815,0 -11.89065,-2.375 -16.71875,-7.1563 -4.78127,-4.8281 -7.18751,-10.4218 -7.1875,-16.75 -1e-5,-6.328 2.48435,-11.8906 7.40625,-16.7187 4.61423,-4.5704 9.83725,-7.0269 15.6875,-7.3125 z"
           id="d"
           inkscape:connector-curvature="0"
           sodipodi:nodetypes="ccccccssscccccsscccscscs" />
      </g>
    </g>
  </g>
</svg>
