<?xml version="1.0" encoding="UTF-8" standalone="no"?>
<!-- Created with Inkscape (http://www.inkscape.org/) -->

<svg
   xmlns:dc="http://purl.org/dc/elements/1.1/"
   xmlns:cc="http://creativecommons.org/ns#"
   xmlns:rdf="http://www.w3.org/1999/02/22-rdf-syntax-ns#"
   xmlns:svg="http://www.w3.org/2000/svg"
   xmlns="http://www.w3.org/2000/svg"
   xmlns:xlink="http://www.w3.org/1999/xlink"
   xmlns:sodipodi="http://sodipodi.sourceforge.net/DTD/sodipodi-0.dtd"
   xmlns:inkscape="http://www.inkscape.org/namespaces/inkscape"
   width="1600"
   height="1200"
   id="svg2"
   sodipodi:version="0.32"
   inkscape:version="1.2.2 (b0a8486541, 2022-12-01)"
   sodipodi:docname="background.svg"
   inkscape:output_extension="org.inkscape.output.svg.inkscape"
   version="1.0">
  <defs
     id="defs4">
    <linearGradient
       id="linearGradient92350">
      <stop
         style="stop-color:#ffffff;stop-opacity:1;"
         offset="0"
         id="stop92352" />
      <stop
         id="stop92354"
         offset="0.74921137"
         style="stop-color:#e5e5e5;stop-opacity:0.54109591;" />
      <stop
         style="stop-color:#999999;stop-opacity:0.29452056;"
         offset="1"
         id="stop92356" />
    </linearGradient>
    <linearGradient
       id="linearGradient92301">
      <stop
         id="stop92303"
         offset="0"
         style="stop-color:#ffffff;stop-opacity:1;" />
      <stop
         style="stop-color:#ffffff;stop-opacity:1;"
         offset="0.18814027"
         id="stop92305" />
      <stop
         id="stop92307"
         offset="1"
         style="stop-color:#000000;stop-opacity:1;" />
    </linearGradient>
    <linearGradient
       id="linearGradient2781">
      <stop
         style="stop-color:#ffffff;stop-opacity:1;"
         offset="0"
         id="stop2783" />
      <stop
         id="stop2789"
         offset="0.09455471"
         style="stop-color:#e5e5e5;stop-opacity:1;" />
      <stop
         style="stop-color:#999999;stop-opacity:1;"
         offset="1"
         id="stop2785" />
    </linearGradient>
    <linearGradient
       id="linearGradient3937">
      <stop
         style="stop-color:#000000;stop-opacity:0;"
         offset="0"
         id="stop3939" />
      <stop
         id="stop3945"
         offset="0.69098639"
         style="stop-color:#051405;stop-opacity:0.31506848;" />
      <stop
         style="stop-color:#0b280b;stop-opacity:0.87671232;"
         offset="1"
         id="stop3941" />
    </linearGradient>
    <radialGradient
       inkscape:collect="always"
       xlink:href="#linearGradient92301"
       id="radialGradient92324"
       gradientUnits="userSpaceOnUse"
       gradientTransform="matrix(1.5037432,-0.1834138,8.2413732e-2,1.3934219,-526.55852,22.009942)"
       cx="1037.9656"
       cy="804.68542"
       fx="1037.9656"
       fy="804.68542"
       r="875.19171" />
    <mask
       maskUnits="userSpaceOnUse"
       id="mask92320">
      <rect
         y="-173.95683"
         x="-84.441757"
         height="1479.2645"
         width="1790.9087"
         id="rect92322"
         style="opacity:1;fill:url(#radialGradient92324);fill-opacity:1;stroke:none;display:inline" />
    </mask>
    <linearGradient
       inkscape:collect="always"
       xlink:href="#linearGradient2781"
       id="linearGradient92328"
       gradientUnits="userSpaceOnUse"
       x1="558.9649"
       y1="948.19049"
       x2="558.9649"
       y2="172.69933"
       gradientTransform="translate(-8.2820514,-2022.4125)" />
    <radialGradient
       inkscape:collect="always"
       xlink:href="#linearGradient3937"
       id="radialGradient92360"
       gradientUnits="userSpaceOnUse"
       gradientTransform="matrix(1.5308499,-0.6814828,0.5125447,1.3948772,-1054.3563,590.70688)"
       cx="1291.6517"
       cy="879.90021"
       fx="1291.6517"
       fy="879.90021"
       r="875.19171" />
    <linearGradient
       inkscape:collect="always"
       xlink:href="#linearGradient2781"
       id="linearGradient92368"
       gradientUnits="userSpaceOnUse"
       x1="558.9649"
       y1="948.19049"
       x2="558.9649"
       y2="172.69933" />
    <linearGradient
       inkscape:collect="always"
       xlink:href="#linearGradient92350"
       id="linearGradient92373"
       gradientUnits="userSpaceOnUse"
       gradientTransform="matrix(1,0,0,1.0062686,29.925594,-8.6629161)"
       x1="558.9649"
       y1="948.19049"
       x2="558.9649"
       y2="834.96869" />
  </defs>
  <sodipodi:namedview
     id="base"
     pagecolor="#ffffff"
     bordercolor="#666666"
     borderopacity="1.0"
     gridtolerance="10000"
     guidetolerance="10"
     objecttolerance="10"
     inkscape:pageopacity="0.0"
     inkscape:pageshadow="2"
     inkscape:zoom="0.5"
     inkscape:cx="963.2615"
     inkscape:cy="354.67717"
     inkscape:document-units="px"
     inkscape:current-layer="layer3"
     showgrid="false"
     inkscape:window-width="1912"
     inkscape:window-height="1139"
     inkscape:window-x="0"
     inkscape:window-y="0"
     borderlayer="true"
     showguides="true"
     inkscape:guide-bbox="true"
     inkscape:window-maximized="0">
    <sodipodi:guide
       orientation="0,1"
       position="524.11749,370.49684"
       id="guide92366" />
  </sodipodi:namedview>
  <metadata
     id="metadata7">
    <rdf:RDF>
      <cc:Work
         rdf:about="">
        <dc:format>image/svg+xml</dc:format>
        <dc:type
           rdf:resource="http://purl.org/dc/dcmitype/StillImage" />
        <dc:title></dc:title>
      </cc:Work>
    </rdf:RDF>
  </metadata>
  <g
     inkscape:label="Layer 1"
     inkscape:groupmode="layer"
     id="layer1"
     style="display:inline">
    <rect
       y="-71.863548"
       x="-146.99295"
       height="1470.1597"
       width="1766.814"
       id="rect2895"
       style="opacity:1;fill:#ffffff;fill-opacity:1;stroke:#ffffff;stroke-width:4.95930386;stroke-miterlimit:4;stroke-dasharray:none;stroke-opacity:1;display:inline" />
    <path
       style="fill:#008000;fill-opacity:1"
       d="M -3.06941,-41.524162 L 1646.1041,-41.524162 L 1646.1041,1229.8939 L -3.06941,1229.8939 L -3.06941,-41.524162 L -3.06941,-41.524162 z"
       id="rect3376" />
    <path
       sodipodi:type="arc"
       style="opacity:1;fill:#00aa44;fill-opacity:0.875;stroke:none"
       id="path3035"
       sodipodi:cx="986.56171"
       sodipodi:cy="467.80042"
       sodipodi:rx="768.53705"
       sodipodi:ry="786.70575"
       d="M 1755.0988,467.80042 A 768.53705,786.70575 0 1 1 218.02466,467.80042 A 768.53705,786.70575 0 1 1 1755.0988,467.80042 z"
       transform="matrix(1.4822695,0,0,1.2651794,-523.90253,382.43705)" />
    <path
       transform="matrix(1.4822695,0,0,1.2651794,94.709327,85.211434)"
       d="M 1755.0988,467.80042 A 768.53705,786.70575 0 1 1 218.02466,467.80042 A 768.53705,786.70575 0 1 1 1755.0988,467.80042 z"
       sodipodi:ry="786.70575"
       sodipodi:rx="768.53705"
       sodipodi:cy="467.80042"
       sodipodi:cx="986.56171"
       id="path3037"
       style="opacity:1;fill:#165016;fill-opacity:0.73786406;stroke:none"
       sodipodi:type="arc" />
    <path
       sodipodi:type="arc"
       style="opacity:1;fill:#00aa00;fill-opacity:0.73786406;stroke:none"
       id="path3039"
       sodipodi:cx="986.56171"
       sodipodi:cy="467.80042"
       sodipodi:rx="768.53705"
       sodipodi:ry="786.70575"
       d="M 1755.0988,467.80042 A 768.53705,786.70575 0 1 1 218.02466,467.80042 A 768.53705,786.70575 0 1 1 1755.0988,467.80042 z"
       transform="matrix(1.4822695,0,0,1.2651794,80.174348,375.91102)" />
    <path
       transform="matrix(1.4822695,0,0,1.2651794,443.54883,121.54888)"
       d="M 1755.0988,467.80042 A 768.53705,786.70575 0 1 1 218.02466,467.80042 A 768.53705,786.70575 0 1 1 1755.0988,467.80042 z"
       sodipodi:ry="786.70575"
       sodipodi:rx="768.53705"
       sodipodi:cy="467.80042"
       sodipodi:cx="986.56171"
       id="path3041"
       style="opacity:1;fill:#1f241c;fill-opacity:0.73786406;stroke:none"
       sodipodi:type="arc" />
    <path
       sodipodi:type="arc"
       style="opacity:1;fill:#2aff2a;fill-opacity:0.73786406;stroke:none"
       id="path3043"
       sodipodi:cx="986.56171"
       sodipodi:cy="467.80042"
       sodipodi:rx="768.53705"
       sodipodi:ry="786.70575"
       d="M 1755.0988,467.80042 A 768.53705,786.70575 0 1 1 218.02466,467.80042 A 768.53705,786.70575 0 1 1 1755.0988,467.80042 z"
       transform="matrix(1.1557387,0,0,1.0578361,445.72907,569.87559)" />
    <path
       sodipodi:type="arc"
       style="opacity:1;fill:#165016;fill-opacity:0.73786406;stroke:none"
       id="path3045"
       sodipodi:cx="986.56171"
       sodipodi:cy="467.80042"
       sodipodi:rx="768.53705"
       sodipodi:ry="786.70575"
       d="M 1755.0988,467.80042 A 768.53705,786.70575 0 1 1 218.02466,467.80042 A 768.53705,786.70575 0 1 1 1755.0988,467.80042 z"
       transform="matrix(1.4822695,0,0,1.2651794,594.11944,441.51143)" />
    <path
       transform="matrix(1.1557387,0,0,1.0578361,552.38325,795.73151)"
       d="M 1755.0988,467.80042 A 768.53705,786.70575 0 1 1 218.02466,467.80042 A 768.53705,786.70575 0 1 1 1755.0988,467.80042 z"
       sodipodi:ry="786.70575"
       sodipodi:rx="768.53705"
       sodipodi:cy="467.80042"
       sodipodi:cx="986.56171"
       id="path3047"
       style="opacity:1;fill:#55ff55;fill-opacity:0.73786406;stroke:none"
       sodipodi:type="arc" />
    <path
       transform="matrix(0.9266853,0,0,1.2651794,917.09893,807.50033)"
       d="M 1755.0988,467.80042 A 768.53705,786.70575 0 1 1 218.02466,467.80042 A 768.53705,786.70575 0 1 1 1755.0988,467.80042 z"
       sodipodi:ry="786.70575"
       sodipodi:rx="768.53705"
       sodipodi:cy="467.80042"
       sodipodi:cx="986.56171"
       id="path3049"
       style="opacity:1;fill:#17280b;fill-opacity:0.73786406;stroke:none"
       sodipodi:type="arc" />
    <rect
       style="opacity:1;fill:url(#radialGradient92360);fill-opacity:1;stroke:none"
       id="rect3927"
       width="1750.3834"
       height="1422.5234"
       x="-43.916428"
       y="-173.95683"
       mask="none" />
  </g>
  <g
     inkscape:groupmode="layer"
     id="layer4"
     inkscape:label="lines"
     style="opacity:0.30232558">
    <g
       id="g3792"
       transform="matrix(0.24233241,0.52294466,0.52294466,-0.24233241,499.60266,961.69953)"
       style="fill:#0b280b;display:inline">
      <path
         id="path3873"
         d="m -908.3871,2229.6774 c 28.70794,-224.3578 84.63725,-445.1063 165.45569,-656.2146 10e-6,0 2e-5,0 3e-5,-10e-5 80.81876,-211.1081 186.55229,-412.6425 314.8471,-598.58077 2e-5,-3e-5 4e-5,-6e-5 6e-5,-8e-5 110.27419,-159.82183 236.94576,-308.26503 377.351734,-442.24112 l -6.922124,-7.21694 c -140.20684,135.17362 -266.47736,284.71699 -376.19665,445.50082 -10e-6,2e-5 -2e-5,3e-5 -3e-5,4e-5 -127.653,187.06515 -232.52278,389.51665 -312.34924,601.29625 -1e-5,0 -2e-5,0 -4e-5,0 -79.82681,211.7795 -134.63524,432.9537 -162.18653,657.4565 z"
         style="fill:#0b280b;stroke:none" />
      <path
         id="path3885"
         d="m -933.77032,2264.8564 c -18.72699,-152.1029 -6.44735,-307.641 33.74956,-455.2904 0,0 0,0 10e-6,0 40.19938,-147.6487 108.40335,-287.7246 201.35712,-408.9503 10e-6,-10e-5 2e-5,-10e-5 4e-5,-10e-5 71.5841,-93.3621 157.17962,-175.8884 252.9668,-243.9529 l -5.82448,-8.1286 c -96.06289,69.4028 -181.60376,153.2114 -252.88932,247.7109 0,0 -1e-5,0 -1e-5,0 -92.58262,122.739 -159.94441,263.9847 -199.09712,412.3863 -1e-5,10e-5 -1e-5,10e-5 -2e-5,10e-5 -39.15519,148.401 -50.18332,304.2738 -30.26258,456.225 z"
         style="fill:#0b280b;stroke:none" />
      <path
         id="path3891"
         d="m -338.92473,2316.7622 c -19.92074,-151.9512 -8.89261,-307.824 30.26258,-456.225 0,0 10e-6,0 10e-6,0 39.15271,-148.4017 106.5145,-289.6474 199.09711,-412.3864 10e-6,0 2e-5,0 3e-5,0 71.285563,-94.4995 156.82643,-178.3081 252.88932,-247.7109 l 5.82448,8.1286 c -95.787184,68.0645 -181.382703,150.5908 -252.9668,243.9529 -1e-5,0 -2e-5,0 -2e-5,0 -92.95378,121.2258 -161.15775,261.3017 -201.35714,408.9504 0,0 -10e-6,0 -10e-6,0 -40.19691,147.6494 -52.47655,303.1875 -33.74956,455.2904 z"
         style="fill:#0b280b;stroke:none" />
      <path
         id="path3897"
         d="m -315.67147,2323.7753 c -19.92074,-151.9512 -8.89261,-307.824 30.26259,-456.225 0,0 1e-5,0 1e-5,-1e-4 39.15271,-148.4016 106.5145,-289.6473 199.097101,-412.3863 1.3e-5,0 2.6e-5,0 3.8e-5,0 71.285558,-94.4995 156.826423,-178.3081 252.889311,-247.7109 l 5.82448,8.1286 c -95.787182,68.0645 -181.3826996,150.5908 -252.966799,243.9529 -92.953781,121.2258 -161.157761,261.3017 -201.357151,408.9504 -10e-6,0 -10e-6,0 -2e-5,0 -40.1969,147.6494 -52.47655,303.1875 -33.74956,455.2904 z"
         style="fill:#0b280b;stroke:none" />
      <path
         id="path3903"
         d="m -446.17487,2294.2993 c -18.72699,-152.1029 -6.44735,-307.641 33.74956,-455.2904 0,0 0,0 1e-5,0 40.19938,-147.6487 108.40335,-287.7246 201.35712,-408.9503 1e-5,-10e-5 2e-5,-10e-5 4e-5,-10e-5 71.5841,-93.3621 157.179616,-175.8884 252.966801,-243.9529 l -5.824482,-8.1286 c -96.062889,69.4028 -181.603759,153.2114 -252.889319,247.7109 0,0 -10e-6,0 -10e-6,0 -92.58262,122.739 -159.94441,263.9847 -199.09712,412.3863 -1e-5,10e-5 -1e-5,10e-5 -2e-5,10e-5 -39.15519,148.401 -50.18332,304.2738 -30.26258,456.225 z"
         style="fill:#0b280b;stroke:none" />
      <path
         id="path3909"
         d="m -68.42092,1929.2047 c -146.73053,-10.0405 -293.87782,-50.5435 -429.97877,-117.87 -10e-6,0 -2e-5,0 -3e-5,0 -136.09038,-67.3444 -261.44538,-161.6396 -364.65639,-279.0794 -10e-6,0 -3e-5,0 -4e-5,0 -79.41233,-90.3788 -145.98955,-193.721 -196.18015,-305.9634 41.1478,115.5315 99.67439,224.8846 173.15974,323.3807 6.66439,8.9256 13.45324,17.7553 20.36317,26.487 105.26047,106.1346 228.16287,189.9378 359.00247,249.2061 140.63891,63.71 290.76616,99.1763 438.29,103.839 z"
         style="fill:#0b280b;stroke:none" />
      <path
         id="path3913"
         d="m -72.260565,1983.7736 c -146.730525,-10.0405 -293.877805,-50.5435 -429.978765,-117.8701 -1e-5,0 -2e-5,0 -3e-5,0 -136.09037,-67.3443 -261.44537,-161.6396 -364.65639,-279.0793 -2e-5,0 -3e-5,0 -5e-5,0 -79.41234,-90.3788 -145.9896,-193.721 -196.1802,-305.9634 41.1478,115.5315 99.67443,224.8846 173.1598,323.3807 6.66439,8.9256 13.45323,17.7553 20.36315,26.487 105.26049,106.1346 228.16289,189.9378 359.0025,249.2061 140.6389,63.71 290.76615,99.1763 438.289985,103.839 z"
         style="fill:#0b280b;stroke:none" />
      <path
         id="path3919"
         d="m -254.16889,1936.2353 c -146.73053,-10.0405 -293.87782,-50.5435 -429.97877,-117.87 -10e-6,-10e-5 -2e-5,-10e-5 -3e-5,-10e-5 -136.09038,-67.3443 -261.44537,-161.6396 -364.65641,-279.0793 0,0 0,0 0,0 -79.4124,-90.3788 -145.9896,-193.721 -196.1802,-305.9634 41.1478,115.5315 99.6744,224.8846 173.1598,323.3807 6.6644,8.9256 13.4532,17.7553 20.3631,26.487 105.26051,106.1346 228.16291,189.9378 359.00251,249.2061 140.63891,63.71 290.76616,99.1763 438.29,103.839 z"
         style="fill:#0b280b;stroke:none" />
      <path
         id="path3925"
         d="m 217.21852,1864.8703 c -146.73052,-10.0404 -293.877806,-50.5434 -429.97876,-117.87 -136.09038,-67.3443 -261.44539,-161.6395 -364.65642,-279.0793 -10e-6,0 -3e-5,0 -4e-5,0 -79.41234,-90.3788 -145.98962,-193.721 -196.18019,-305.9634 41.14782,115.5315 99.67441,224.8846 173.15978,323.3807 6.66439,8.9256 13.45323,17.7553 20.36315,26.487 105.26048,106.1346 228.16289,189.9378 359.00249,249.2061 140.63891,63.71 290.766153,99.1763 438.28999,103.8389 z"
         style="fill:#0b280b;stroke:none" />
      <path
         id="path3879"
         d="m -134.83107,2138.4983 c -146.73052,-10.0404 -293.8778,-50.5434 -429.97876,-117.87 -10e-6,0 -10e-6,0 -2e-5,0 -136.09038,-67.3443 -261.44538,-161.6396 -364.6564,-279.0793 -1e-5,0 -3e-5,0 -4e-5,0 -79.41231,-90.3788 -145.98961,-193.721 -196.18021,-305.9634 41.1478,115.5315 99.6744,224.8846 173.15979,323.3807 6.6644,8.9256 13.45323,17.7553 20.36316,26.487 105.26048,106.1346 228.16289,189.9378 359.00249,249.2061 140.63891,63.71 290.76615,99.1763 438.28999,103.8389 z"
         style="fill:#0b280b;stroke:none" />
    </g>
    <path
       id="path3819"
       d="m 1316.137,705.32953 c -49.5348,-74.12351 -113.9376,-137.87679 -187.5603,-187.5329 0,0 0,-1e-5 0,-1e-5 -73.6197,-49.66048 -156.6152,-85.32708 -243.2845,-103.35594 -10e-6,0 -2e-5,0 -3e-5,0 -66.73296,-13.88032 -135.45843,-17.69418 -203.1422,-11.32563 4.08757,1.55454 8.14507,3.14614 12.17196,4.7739 63.28466,-5.36358 127.48765,-1.7831 190.06851,10.70543 10e-6,0 10e-6,0 2e-5,10e-6 86.25694,17.20956 169.18224,52.03048 242.98254,100.95374 0,10e-6 10e-5,2e-5 10e-5,2e-5 73.8016,48.92139 138.6367,112.04634 188.7639,185.78138 z"
       style="fill:#0b280b;stroke:none;display:inline" />
    <path
       id="path3823"
       d="m 1119.1435,459.72508 c -49.5348,-74.12352 -113.9376,-137.8768 -187.5603,-187.53292 0,-10e-6 -1e-5,-10e-6 -1e-5,-10e-6 -73.61966,-49.66049 -156.61523,-85.32709 -243.28452,-103.35596 -10e-6,0 -2e-5,0 -3e-5,0 -66.73297,-13.88033 -135.45843,-17.69419 -203.14221,-11.32565 4.08761,1.55454 8.14515,3.14613 12.17208,4.7739 63.28463,-5.36356 127.48758,-1.78308 190.0684,10.70545 86.25693,17.20957 169.18226,52.0305 242.98262,100.95377 10e-6,10e-6 2e-5,10e-6 3e-5,2e-5 73.80164,48.92139 138.63674,112.04634 188.76394,185.7814 z"
       style="fill:#0b280b;stroke:none;display:inline" />
    <path
       id="path3825"
       d="m 1591.49,254.90426 c -49.5348,-74.12352 -113.9376,-137.8768 -187.5603,-187.53292 0,0 0,-1e-5 0,-1e-5 -73.6197,-49.66049 -156.6152,-85.32709 -243.2845,-103.35596 0,0 -10e-5,0 -10e-5,-10e-6 -66.7329,-13.88032 -135.4584,-17.69419 -203.1422,-11.32566 4.0876,1.55454 8.1452,3.14614 12.1721,4.7739 63.2846,-5.36355 127.4876,-1.78306 190.0684,10.70547 86.2569,17.20957 169.1823,52.03051 242.9826,100.95377 0,1e-5 0,2e-5 0,2e-5 73.8017,48.9214 138.6368,112.04635 188.764,185.7814 z"
       style="fill:#0b280b;stroke:none;display:inline" />
    <path
       id="path3827"
       d="m 1625.129,545.26186 c -49.5348,-74.12352 -113.9376,-137.8768 -187.5603,-187.53293 0,0 0,0 0,-10e-6 -73.6197,-49.66049 -156.6152,-85.32709 -243.2845,-103.35597 0,0 -10e-5,0 -10e-5,0 -66.7329,-13.88033 -135.4584,-17.69421 -203.1422,-11.32567 4.0876,1.55454 8.1452,3.14613 12.1721,4.7739 63.2846,-5.36356 127.4876,-1.78306 190.0684,10.70547 0,10e-6 0,10e-6 0,10e-6 86.257,17.20958 169.1823,52.03051 242.9826,100.95378 0,0 0,1e-5 0,2e-5 73.8017,48.92139 138.6368,112.04634 188.764,185.7814 z"
       style="fill:#0b280b;stroke:none;display:inline" />
    <g
       style="display:inline;fill:#0b280b"
       id="g2881"
       transform="matrix(0.58958287,0.80770789,-0.80770789,0.58958287,639.99601,-481.80378)">
      <path
         id="path3811"
         d="m -933.77032,2264.8564 c -18.72699,-152.1029 -6.44735,-307.641 33.74956,-455.2904 0,0 0,0 10e-6,0 40.19938,-147.6487 108.40335,-287.7246 201.35712,-408.9503 10e-6,-10e-5 2e-5,-10e-5 4e-5,-10e-5 71.5841,-93.3621 157.17962,-175.8884 252.9668,-243.9529 l -5.82448,-8.1286 c -96.06289,69.4028 -181.60376,153.2114 -252.88932,247.7109 0,0 -1e-5,0 -1e-5,0 -92.58262,122.739 -159.94441,263.9847 -199.09712,412.3863 -1e-5,10e-5 -1e-5,10e-5 -2e-5,10e-5 -39.15519,148.401 -50.18332,304.2738 -30.26258,456.225 z"
         style="fill:#0b280b;stroke:none"
         transform="matrix(1,0,0,-1,1220.8179,2075.2958)" />
      <path
         id="path3815"
         d="m 905.14643,-248.4795 c -19.92072,151.951208 -8.89258,307.824018 30.26262,456.225 10e-6,1e-5 10e-6,2e-5 10e-6,4e-5 39.15272,148.40161 106.51454,289.64735 199.09714,412.38632 0,1e-5 0,3e-5 0,5e-5 71.2855,94.49947 156.8264,178.30813 252.8893,247.71093 l 5.8244,-8.12868 c -95.7871,-68.06449 -181.3826,-150.5908 -252.9667,-243.95287 0,-10e-6 0,-10e-6 0,-2e-5 C 1047.2994,494.5355 979.09544,354.4596 938.89605,206.81093 c -10e-6,-2e-5 -10e-6,-4e-5 -2e-5,-6e-5 C 898.69912,59.161501 886.41946,-96.376557 905.14643,-248.4795 z"
         style="fill:#0b280b;stroke:none" />
      <path
         id="path3817"
         d="m 774.64303,-219.0035 c -19.92072,151.951208 -8.89258,307.824018 30.26262,456.225 10e-6,1e-5 10e-6,2e-5 10e-6,4e-5 39.15272,148.40161 106.5145,289.64735 199.09714,412.38632 0,1e-5 0,3e-5 0,5e-5 71.2855,94.49947 156.8264,178.30813 252.8893,247.71093 l 5.8244,-8.12868 c -95.7871,-68.06449 -181.3826,-150.5908 -252.9667,-243.95287 0,-10e-6 0,-10e-6 0,-2e-5 C 916.79601,524.0115 848.59204,383.9356 808.39265,236.28693 c -10e-6,-2e-5 -10e-6,-4e-5 -2e-5,-6e-5 C 768.19572,88.637501 755.91606,-66.900557 774.64303,-219.0035 z"
         style="fill:#0b280b;stroke:none" />
    </g>
    <path
       id="path3821"
       d="m 1268.9754,194.20157 c -157.5015,-29.75453 -318.0663,-26.89606 -470.36671,4.53464 -152.3031,31.41018 -296.65442,91.48262 -421.78653,176.01121 -96.4362,65.11451 -181.9437,144.11159 -253.1165,232.80556 78.1889,-82.10894 168.7286,-152.40987 267.4152,-207.72872 8.913,-5.00071 17.8973,-9.87414 26.9489,-14.61982 112.99095,-78.07273 243.51967,-136.29958 382.6515,-170.29776 149.55384,-36.54234 309.36354,-45.20416 468.25414,-20.70511 z"
       style="fill:#0b280b;stroke:none;display:inline" />
    <path
       style="fill:#0b280b;stroke:none;display:inline"
       d="m 606.64172,-148.40172 c 108.14472,43.75843 209.93869,103.90291 300.77407,177.87438 10e-6,10e-6 2e-5,10e-6 3e-5,2e-5 117.93338,96.02431 216.48398,216.24437 289.67898,350.54546 0,2e-5 0,4e-5 0,6e-5 73.1918,134.30276 121.1889,282.97253 138.167,435.80823 2.307,-9.843 4.4848,-19.7551 6.532,-29.7324 -20.8459,-143.9233 -68.7956,-283.08039 -138.8363,-409.16826 0,-10e-6 0,-2e-5 0,-3e-5 C 1128.2718,242.4638 1028.2998,122.58281 909.26708,27.26185 c -10e-6,-2e-5 -3e-5,-3e-5 -5e-5,-4e-5 -91.67446,-73.42016 -194.10785,-132.79107 -302.62531,-175.66353 z"
       id="path3813" />
  </g>
  <g
     inkscape:groupmode="layer"
     id="layer6"
     inkscape:label="logoscreen"
     style="display:inline;opacity:1">
    <path
       mask="none"
       id="path92318"
       d="m 978.6242,-1187.4438 -1.2187,0 -1.4375,0 -1.3438,0 -1.6562,0 -1.6875,0 -2.125,0 -2.3125,0 -3.2188,0 -3.875,0 -6.125,0 -8.8125,0 -18.75,0 -46.7187,0 -1725.31255,-207 -38.75,206.5 740.375,4.9688 0,519.68749 1813.37505,0 0,-523.68749 1148.5,-19.1875 10.375,-209.875 -1756.3437,228.5937 -41.25,0 -17.4376,0 -8.4062,0 -5.9062,0 -3.75,0 -3.1563,0 -2.2813,0 -2.0937,0 -1.6563,0 -1.625,0 -1.3437,0 -1.4375,0 -1.2188,0 -1.375,0 z"
       style="display:inline;opacity:1;fill:url(#linearGradient92328);fill-opacity:1;stroke:none"
       sodipodi:nodetypes="ccccccccccccccccccccccccccccccccccccc"
       inkscape:connector-curvature="0" />
    <path
       style="display:inline;opacity:1;fill:url(#linearGradient92373);fill-opacity:1;stroke:none"
       mask="none"
       d="m 1707.25,829.65625 -715.34375,6 -7.71875,0.0937 -1.375,0 -0.6875,0 -1088.25,-3.15625 0,526.3751 1813.375,0 0,-529.3126 z m -789.6875,1.875 -12.1875,0.0625 25.9375,3.03125 -13.5625,-3.09375 -0.1875,0 z m 25.625,0 9.71875,3.375 6.96875,0 -7.1875,-3.375 -9.5,0 z m 19.21875,0 5.5625,3.40625 1.90625,0 -4.46875,-3.40625 -1.125,0 -1.875,0 z m 9.125,0 3.5625,3.40625 0.3125,0 -2.875,-3.40625 -1,0 z m 5.71875,0 0.6875,1 -0.53125,-1 -0.15625,0 z m 5.84375,0 0.5625,3.4375 0.59375,0 -0.96875,-3.4375 -0.1875,0 z m 3.34375,0 -0.1875,3.4375 0.65625,0 -0.21875,-3.4375 -0.25,0 z m 3.40625,0 -0.9375,3.4375 0.59375,0 0.53125,-3.4375 -0.1875,0 z m 5.84375,0 -0.5,0.96875 0.625,-0.96875 -0.125,0 z m 4.8437,0 -2.87495,3.4375 0.28125,0 3.5313,-3.4375 -0.9376,0 z m 7,0 -4.4374,3.4375 1.7812,0 5.5,-3.4375 -0.875,0 -1.9688,0 z m 12.4063,0 -7.1875,3.4375 6.5625,0 9.6563,-3.4375 -1.375,0 -2.0938,0 -1.6562,0 -1.625,0 -1.3438,0 -0.9375,0 z m 33.25,0 -13.4375,3.15625 25.3438,-3.15625 -11.9063,0 z m -59.875,0.6875 -1.40625,2.75 0.375,0 1.03125,-2.75 z m -13.46875,0.0937 1.03125,2.65625 0.375,0 -1.40625,-2.65625 z"
       id="path92330"
       inkscape:connector-curvature="0" />
    <path
       transform="matrix(0.9999976,0.00221045,-0.00221045,0.9999976,-0.193405,-2.1790329)"
       sodipodi:nodetypes="ccccccccccccccccccccccccccccccccccccccccccccccccccccccccccc"
       mask="url(#mask92320)"
       id="path92370"
       d="m 873.34375,-1013.625 113.5625,1848.59375 -1.21875,0 L 688.6875,-967 479.59375,-946.5625 984.25,834.96875 l -1.34375,0 -673.78125,-1696.625 -199.96875,64.5 872.09375,1632.125 -1.6875,0 -1018.84375,-1512.875 -181.625,105.625 1198.34375,1407.25 -2.3125,0 L -340.5625,-424.125 -495.53125,-282.25 971.90625,834.96875 l -3.875,0 L -580.84375,-112 l -121.1875,171.625 1663.9375,775.34375 -8.8125,0 -1702.25,-590.8125 -81.8125,193.5 1765.3125,397.3125 -1772.03125,-207 -38.75,206.5 1860.61333,1.28261 1841.63667,-19.50136 10.375,-209.875 -1797.5937,228.59375 1738.5,-409.625 -34.5938,-207.25 -1721.3438,616.875 -8.4062,0 1633.4375,-781.15625 -77.9687,-195.09375 -1561.375,976.25 -3.75,0 1436.0624,-1116.25 -117.75,-174.03125 -1321.4687,1290.28125 -2.28125,0 L 2165.4688,-564.59375 2013.375,-709.5625 995.5625,834.96875 l -1.65625,0 L 1837.7188,-783.125 1658.25,-892.34375 992.28125,834.96875 l -1.34375,0 480.0313,-1761.75 -198.6563,-68.5 -282.8125,1830.25 -1.21875,0 93.71875,-1824 -208.65625,-24.59375 0,0 z"
       style="display:inline;opacity:1;fill:url(#linearGradient92368);fill-opacity:1;stroke:none"
       inkscape:connector-curvature="0" />
  </g>
  <g
     inkscape:groupmode="layer"
     id="layer3"
     inkscape:label="sun"
     style="display:inline" />
</svg>
