<?xml version="1.0" encoding="UTF-8" standalone="no"?>
<!-- Created with Inkscape (http://www.inkscape.org/) -->

<svg
   xmlns:dc="http://purl.org/dc/elements/1.1/"
   xmlns:cc="http://creativecommons.org/ns#"
   xmlns:rdf="http://www.w3.org/1999/02/22-rdf-syntax-ns#"
   xmlns:svg="http://www.w3.org/2000/svg"
   xmlns="http://www.w3.org/2000/svg"
   xmlns:xlink="http://www.w3.org/1999/xlink"
   xmlns:sodipodi="http://sodipodi.sourceforge.net/DTD/sodipodi-0.dtd"
   xmlns:inkscape="http://www.inkscape.org/namespaces/inkscape"
   width="400"
   height="395"
   id="svg2"
   sodipodi:version="0.32"
   inkscape:version="1.2.2 (b0a8486541, 2022-12-01)"
   version="1.0"
   sodipodi:docname="splash.svg"
   inkscape:output_extension="org.inkscape.output.svg.inkscape">
  <defs
     id="defs4">
    <pattern
       inkscape:stockid="Stripes 1:1 white"
       id="Strips1_1white"
       patternTransform="translate(0,0) scale(10,10)"
       height="1"
       width="2"
       patternUnits="userSpaceOnUse"
       inkscape:collect="always">
      <rect
         id="rect6358"
         height="2"
         width="1"
         y="-0.5"
         x="0"
         style="fill:white;stroke:none" />
    </pattern>
    <linearGradient
       id="linearGradient61582">
      <stop
         style="stop-color:#353e3f;stop-opacity:1"
         offset="0"
         id="stop61584" />
      <stop
         style="stop-color:#1b1f21;stop-opacity:1"
         offset="1"
         id="stop61586" />
    </linearGradient>
    <linearGradient
       inkscape:collect="always"
       id="linearGradient5455">
      <stop
         style="stop-color:#ffffff;stop-opacity:1;"
         offset="0"
         id="stop5457" />
      <stop
         style="stop-color:#ffffff;stop-opacity:0;"
         offset="1"
         id="stop5459" />
    </linearGradient>
    <linearGradient
       id="linearGradient5443">
      <stop
         style="stop-color:#d1d22b;stop-opacity:1;"
         offset="0"
         id="stop5445" />
      <stop
         id="stop18990"
         offset="0.59155214"
         style="stop-color:#1b961b;stop-opacity:1" />
      <stop
         style="stop-color:#0c4515;stop-opacity:1"
         offset="1"
         id="stop5447" />
    </linearGradient>
    <filter
       inkscape:collect="always"
       id="filter3940">
      <feGaussianBlur
         inkscape:collect="always"
         stdDeviation="2.2340626"
         id="feGaussianBlur3942" />
    </filter>
    <clipPath
       clipPathUnits="userSpaceOnUse"
       id="clipPath3944">
      <path
         id="path3946"
         d="m 7.7381104,276.83613 0,-28.402638 192.3754,0 192.3754,0 0,28.402638 0,28.402638 -192.3754,0 -192.3754,0 z"
         style="opacity:1;fill:#808000;fill-opacity:1;stroke:none" />
    </clipPath>
    <filter
       inkscape:collect="always"
       id="filter3960"
       x="-0.027413571"
       width="1.0548271"
       y="-0.18207829"
       height="1.3641566">
      <feGaussianBlur
         inkscape:collect="always"
         stdDeviation="4.4357872"
         id="feGaussianBlur3962" />
    </filter>
    <clipPath
       clipPathUnits="userSpaceOnUse"
       id="clipPath3964">
      <path
         style="opacity:1;fill:#808000;fill-opacity:1;stroke:none"
         d="m 5.7422279,276.83598 0,-27.817211 194.37132,0 194.37132,0 0,27.817211 0,27.817211 -194.37132,0 -194.37132,0 z"
         id="path3966" />
    </clipPath>
    <radialGradient
       inkscape:collect="always"
       xlink:href="#linearGradient5443"
       id="radialGradient5449"
       cx="239.05521"
       cy="355.73697"
       fx="238.34422"
       fy="300.17825"
       r="194.17152"
       gradientTransform="matrix(-1.030609,0,-1.8109642e-6,-0.1505848,446.48663,414.53205)"
       gradientUnits="userSpaceOnUse" />
    <linearGradient
       inkscape:collect="always"
       xlink:href="#linearGradient5455"
       id="linearGradient5463"
       x1="116.63867"
       y1="279.65573"
       x2="116.63867"
       y2="247.91342"
       gradientUnits="userSpaceOnUse"
       gradientTransform="translate(0,62.402933)" />
    <linearGradient
       id="linearGradient8908">
      <stop
         id="stop8910"
         offset="0"
         style="stop-color:#95acae;stop-opacity:1;" />
      <stop
         style="stop-color:#000000;stop-opacity:0.70408165;"
         offset="1"
         id="stop8964" />
      <stop
         id="stop8912"
         offset="1"
         style="stop-color:#adbad2;stop-opacity:0" />
    </linearGradient>
    <filter
       inkscape:collect="always"
       id="filter3529">
      <feGaussianBlur
         inkscape:collect="always"
         stdDeviation="2.7101151"
         id="feGaussianBlur3531" />
    </filter>
    <filter
       inkscape:collect="always"
       id="filter3517">
      <feGaussianBlur
         inkscape:collect="always"
         stdDeviation="1.6210035"
         id="feGaussianBlur3519" />
    </filter>
    <filter
       inkscape:collect="always"
       id="filter9010">
      <feGaussianBlur
         inkscape:collect="always"
         stdDeviation="2.3407223"
         id="feGaussianBlur9012" />
    </filter>
    <filter
       inkscape:collect="always"
       id="filter6192">
      <feGaussianBlur
         inkscape:collect="always"
         stdDeviation="0.86145189"
         id="feGaussianBlur6194" />
    </filter>
    <filter
       inkscape:collect="always"
       id="filter6664">
      <feGaussianBlur
         inkscape:collect="always"
         stdDeviation="0.21047761"
         id="feGaussianBlur6666" />
    </filter>
    <filter
       inkscape:collect="always"
       id="filter6712">
      <feGaussianBlur
         inkscape:collect="always"
         stdDeviation="0.93998754"
         id="feGaussianBlur6714" />
    </filter>
    <filter
       inkscape:collect="always"
       x="-0.26643163"
       width="1.5328633"
       y="-0.26690212"
       height="1.5338043"
       id="filter8125">
      <feGaussianBlur
         inkscape:collect="always"
         stdDeviation="3.9779066"
         id="feGaussianBlur8127" />
    </filter>
    <linearGradient
       inkscape:collect="always"
       xlink:href="#linearGradient8908"
       id="linearGradient47238"
       gradientUnits="userSpaceOnUse"
       x1="165.80635"
       y1="176.5179"
       x2="177.21674"
       y2="358.34848" />
    <radialGradient
       inkscape:collect="always"
       xlink:href="#linearGradient61582"
       id="radialGradient61588"
       cx="196.94679"
       cy="407.40741"
       fx="196.94679"
       fy="407.40741"
       r="194.17152"
       gradientTransform="matrix(-1.0143537,0,0,-0.1505848,396.7205,358.25066)"
       gradientUnits="userSpaceOnUse" />
    <filter
       inkscape:collect="always"
       id="filter17984">
      <feGaussianBlur
         inkscape:collect="always"
         stdDeviation="6.0699409"
         id="feGaussianBlur17986" />
    </filter>
    <clipPath
       clipPathUnits="userSpaceOnUse"
       id="clipPath18022">
      <path
         style="opacity:1;fill:#ff0000;fill-opacity:1;stroke:none"
         d="M 18.329614,127.77147 18.453278,25.49089 19.79424,23.304449 c 0.737528,-1.202542 2.227558,-2.748777 3.311176,-3.436078 l 1.970215,-1.249636 173.793,-0.12998 c 95.58616,-0.071489 174.4571,-0.0169 175.26878,0.12131 1.93558,0.329588 5.21671,3.056273 6.54745,5.441084 l 1.059039,1.89789 0.1247,102.0515 0.1247,102.0515 -181.89367,0 -181.89368,0 z"
         id="path18024" />
    </clipPath>
    <linearGradient
       y2="834.96869"
       x2="558.9649"
       y1="948.19049"
       x1="558.9649"
       gradientTransform="matrix(1,0,0,1.0062686,29.925594,-8.6629161)"
       gradientUnits="userSpaceOnUse"
       id="linearGradient92373"
       xlink:href="#linearGradient92350"
       inkscape:collect="always" />
    <linearGradient
       y2="172.69933"
       x2="558.9649"
       y1="948.19049"
       x1="558.9649"
       gradientUnits="userSpaceOnUse"
       id="linearGradient92368"
       xlink:href="#linearGradient2781"
       inkscape:collect="always" />
    <radialGradient
       r="875.19171"
       fy="879.90021"
       fx="1291.6517"
       cy="879.90021"
       cx="1291.6517"
       gradientTransform="matrix(1.5308499,-0.6814828,0.5125447,1.3948772,-1054.3563,590.70688)"
       gradientUnits="userSpaceOnUse"
       id="radialGradient92360"
       xlink:href="#linearGradient3937"
       inkscape:collect="always" />
    <mask
       id="mask92320"
       maskUnits="userSpaceOnUse">
      <rect
         style="opacity:1;fill:url(#radialGradient92324);fill-opacity:1;stroke:none;display:inline"
         id="rect92322"
         width="1790.9087"
         height="1479.2645"
         x="-84.441757"
         y="-173.95683" />
    </mask>
    <radialGradient
       r="875.19171"
       fy="804.68542"
       fx="1037.9656"
       cy="804.68542"
       cx="1037.9656"
       gradientTransform="matrix(1.5037432,-0.1834138,8.2413732e-2,1.3934219,-526.55852,22.009942)"
       gradientUnits="userSpaceOnUse"
       id="radialGradient92324"
       xlink:href="#linearGradient92301"
       inkscape:collect="always" />
    <linearGradient
       id="linearGradient3937">
      <stop
         id="stop3939"
         offset="0"
         style="stop-color:#000000;stop-opacity:0;" />
      <stop
         style="stop-color:#051405;stop-opacity:0.31506848;"
         offset="0.69098639"
         id="stop3945" />
      <stop
         id="stop3941"
         offset="1"
         style="stop-color:#0b280b;stop-opacity:0.87671232;" />
    </linearGradient>
    <linearGradient
       id="linearGradient2781">
      <stop
         id="stop2783"
         offset="0"
         style="stop-color:#ffffff;stop-opacity:1;" />
      <stop
         style="stop-color:#e5e5e5;stop-opacity:1;"
         offset="0.09455471"
         id="stop2789" />
      <stop
         id="stop2785"
         offset="1"
         style="stop-color:#999999;stop-opacity:1;" />
    </linearGradient>
    <linearGradient
       id="linearGradient92301">
      <stop
         style="stop-color:#ffffff;stop-opacity:1;"
         offset="0"
         id="stop92303" />
      <stop
         id="stop92305"
         offset="0.18814027"
         style="stop-color:#ffffff;stop-opacity:1;" />
      <stop
         style="stop-color:#000000;stop-opacity:1;"
         offset="1"
         id="stop92307" />
    </linearGradient>
    <linearGradient
       id="linearGradient92350">
      <stop
         id="stop92352"
         offset="0"
         style="stop-color:#ffffff;stop-opacity:1;" />
      <stop
         style="stop-color:#e5e5e5;stop-opacity:0.54109591;"
         offset="0.74921137"
         id="stop92354" />
      <stop
         id="stop92356"
         offset="1"
         style="stop-color:#999999;stop-opacity:0.29452056;" />
    </linearGradient>
    <clipPath
       clipPathUnits="userSpaceOnUse"
       id="clipPath18986">
      <path
         sodipodi:nodetypes="ccccccccccccccccc"
         id="path18988"
         d="m 263.92158,-40.285215 c -22.46673,0 -40.14034,19.357577 -40.14034,42.288258 l 0,6.4801611 0,616.6198659 0,6.27975 0,2.53864 2.55079,0 6.37665,0 846.44022,0 6.3766,0 2.6181,0 0,-2.53864 0,-6.27975 0,-616.6198659 0,-6.4801611 c 0,-22.930681 -17.7409,-42.288258 -40.2077,-42.288258 z"
         style="fill:#000000;fill-opacity:1;stroke:none;display:inline" />
    </clipPath>
  </defs>
  <sodipodi:namedview
     id="base"
     pagecolor="#ffffff"
     bordercolor="#666666"
     borderopacity="1.0"
     gridtolerance="10000"
     guidetolerance="10"
     objecttolerance="10"
     inkscape:pageopacity="0.0"
     inkscape:pageshadow="2"
     inkscape:zoom="1.364557"
     inkscape:cx="71.386831"
     inkscape:cy="153.71447"
     inkscape:document-units="px"
     inkscape:current-layer="layer3"
     showgrid="false"
     showguides="true"
     inkscape:guide-bbox="true"
     inkscape:window-width="1274"
     inkscape:window-height="768"
     inkscape:window-x="0"
     inkscape:window-y="0">
    <sodipodi:guide
       orientation="1,0"
       position="0,284.86956"
       id="guide2574" />
    <sodipodi:guide
       orientation="1,0"
       position="399.99824,77.255061"
       id="guide2576" />
    <inkscape:grid
       type="xygrid"
       id="grid2578"
       empspacing="5"
       visible="true"
       enabled="true" />
    <sodipodi:guide
       orientation="0,1"
       position="446.77734,395"
       id="guide2580" />
    <sodipodi:guide
       orientation="0,1"
       position="-2561.6152,0"
       id="guide2582" />
    <sodipodi:guide
       orientation="0,1"
       position="200.36328,83"
       id="guide3456" />
    <sodipodi:guide
       orientation="0,1"
       position="199.94062,19.000444"
       id="guide3458" />
    <sodipodi:guide
       orientation="1,0"
       position="57.130146,75.546634"
       id="guide3460" />
    <sodipodi:guide
       orientation="1,0"
       position="114.29578,66.285163"
       id="guide3462" />
    <sodipodi:guide
       orientation="1,0"
       position="171.42592,65.575472"
       id="guide3464" />
    <sodipodi:guide
       orientation="1,0"
       position="228.33643,276.79368"
       id="guide3466" />
    <sodipodi:guide
       orientation="1,0"
       position="285.7217,69.052959"
       id="guide3468" />
    <sodipodi:guide
       orientation="1,0"
       position="342.85184,67.065823"
       id="guide3470" />
    <sodipodi:guide
       orientation="0,1"
       position="-18.996094,147"
       id="guide17135" />
  </sodipodi:namedview>
  <metadata
     id="metadata7">
    <rdf:RDF>
      <cc:Work
         rdf:about="">
        <dc:format>image/svg+xml</dc:format>
        <dc:type
           rdf:resource="http://purl.org/dc/dcmitype/StillImage" />
      </cc:Work>
    </rdf:RDF>
  </metadata>
  <g
     inkscape:label="bg"
     inkscape:groupmode="layer"
     id="layer1"
     style="display:inline">
    <g
       id="g18944"
       transform="matrix(0.46276689,0,0,0.46276689,-103.55851,18.641687)"
       clip-path="url(#clipPath18986)">
      <g
         style="display:inline"
         id="layer1-1"
         inkscape:label="Layer 1">
        <rect
           style="fill:#ffffff;fill-opacity:1;stroke:#ffffff;stroke-width:4.95930386;stroke-miterlimit:4;stroke-opacity:1;stroke-dasharray:none;display:inline"
           id="rect2895"
           width="1766.814"
           height="1470.1597"
           x="-146.99295"
           y="-71.863548" />
        <path
           id="rect3376"
           d="m -3.06941,-41.524162 1649.17351,0 0,1271.418062 -1649.17351,0 0,-1271.418062 0,0 z"
           style="fill:#008000;fill-opacity:1" />
        <path
           transform="matrix(1.4822695,0,0,1.2651794,-523.90253,382.43705)"
           d="m 1755.0988,467.80042 a 768.53705,786.70575 0 1 1 -1537.07414,0 768.53705,786.70575 0 1 1 1537.07414,0 z"
           sodipodi:ry="786.70575"
           sodipodi:rx="768.53705"
           sodipodi:cy="467.80042"
           sodipodi:cx="986.56171"
           id="path3035"
           style="fill:#00aa44;fill-opacity:0.875;stroke:none"
           sodipodi:type="arc" />
        <path
           sodipodi:type="arc"
           style="fill:#165016;fill-opacity:0.73786406;stroke:none"
           id="path3037"
           sodipodi:cx="986.56171"
           sodipodi:cy="467.80042"
           sodipodi:rx="768.53705"
           sodipodi:ry="786.70575"
           d="m 1755.0988,467.80042 a 768.53705,786.70575 0 1 1 -1537.07414,0 768.53705,786.70575 0 1 1 1537.07414,0 z"
           transform="matrix(1.4822695,0,0,1.2651794,94.709327,85.211434)" />
        <path
           transform="matrix(1.4822695,0,0,1.2651794,80.174348,375.91102)"
           d="m 1755.0988,467.80042 a 768.53705,786.70575 0 1 1 -1537.07414,0 768.53705,786.70575 0 1 1 1537.07414,0 z"
           sodipodi:ry="786.70575"
           sodipodi:rx="768.53705"
           sodipodi:cy="467.80042"
           sodipodi:cx="986.56171"
           id="path3039"
           style="fill:#00aa00;fill-opacity:0.73786406;stroke:none"
           sodipodi:type="arc" />
        <path
           sodipodi:type="arc"
           style="fill:#1f241c;fill-opacity:0.73786406;stroke:none"
           id="path3041"
           sodipodi:cx="986.56171"
           sodipodi:cy="467.80042"
           sodipodi:rx="768.53705"
           sodipodi:ry="786.70575"
           d="m 1755.0988,467.80042 a 768.53705,786.70575 0 1 1 -1537.07414,0 768.53705,786.70575 0 1 1 1537.07414,0 z"
           transform="matrix(1.4822695,0,0,1.2651794,443.54883,121.54888)" />
        <path
           transform="matrix(1.1557387,0,0,1.0578361,445.72907,569.87559)"
           d="m 1755.0988,467.80042 a 768.53705,786.70575 0 1 1 -1537.07414,0 768.53705,786.70575 0 1 1 1537.07414,0 z"
           sodipodi:ry="786.70575"
           sodipodi:rx="768.53705"
           sodipodi:cy="467.80042"
           sodipodi:cx="986.56171"
           id="path3043"
           style="fill:#2aff2a;fill-opacity:0.73786406;stroke:none"
           sodipodi:type="arc" />
        <path
           transform="matrix(1.4822695,0,0,1.2651794,594.11944,441.51143)"
           d="m 1755.0988,467.80042 a 768.53705,786.70575 0 1 1 -1537.07414,0 768.53705,786.70575 0 1 1 1537.07414,0 z"
           sodipodi:ry="786.70575"
           sodipodi:rx="768.53705"
           sodipodi:cy="467.80042"
           sodipodi:cx="986.56171"
           id="path3045"
           style="fill:#165016;fill-opacity:0.73786406;stroke:none"
           sodipodi:type="arc" />
        <path
           sodipodi:type="arc"
           style="fill:#55ff55;fill-opacity:0.73786406;stroke:none"
           id="path3047"
           sodipodi:cx="986.56171"
           sodipodi:cy="467.80042"
           sodipodi:rx="768.53705"
           sodipodi:ry="786.70575"
           d="m 1755.0988,467.80042 a 768.53705,786.70575 0 1 1 -1537.07414,0 768.53705,786.70575 0 1 1 1537.07414,0 z"
           transform="matrix(1.1557387,0,0,1.0578361,552.38325,795.73151)" />
        <path
           sodipodi:type="arc"
           style="fill:#17280b;fill-opacity:0.73786406;stroke:none"
           id="path3049"
           sodipodi:cx="986.56171"
           sodipodi:cy="467.80042"
           sodipodi:rx="768.53705"
           sodipodi:ry="786.70575"
           d="m 1755.0988,467.80042 a 768.53705,786.70575 0 1 1 -1537.07414,0 768.53705,786.70575 0 1 1 1537.07414,0 z"
           transform="matrix(0.9266853,0,0,1.2651794,917.09893,807.50033)" />
        <rect
           mask="none"
           y="-173.95683"
           x="-43.916428"
           height="1422.5234"
           width="1750.3834"
           id="rect3927"
           style="fill:url(#radialGradient92360);fill-opacity:1;stroke:none" />
      </g>
      <g
         style="opacity:0.30232562"
         inkscape:label="lines"
         id="layer4-0">
        <g
           style="fill:#0b280b;display:inline"
           transform="matrix(0.24233241,0.52294466,0.52294466,-0.24233241,499.60266,961.69953)"
           id="g3792">
          <path
             style="fill:#0b280b;stroke:none"
             d="m -908.3871,2229.6774 c 28.70794,-224.3578 84.63725,-445.1063 165.45569,-656.2146 10e-6,0 2e-5,0 3e-5,-10e-5 80.81876,-211.1081 186.55229,-412.6425 314.8471,-598.58077 2e-5,-3e-5 4e-5,-6e-5 6e-5,-8e-5 110.27419,-159.82183 236.94576,-308.26503 377.351734,-442.24112 l -6.922124,-7.21694 c -140.20684,135.17362 -266.47736,284.71699 -376.19665,445.50082 -10e-6,2e-5 -2e-5,3e-5 -3e-5,4e-5 -127.653,187.06515 -232.52278,389.51665 -312.34924,601.29625 -1e-5,0 -2e-5,0 -4e-5,0 -79.82681,211.7795 -134.63524,432.9537 -162.18653,657.4565 z"
             id="path3873-6" />
          <path
             style="fill:#0b280b;stroke:none"
             d="m -933.77032,2264.8564 c -18.72699,-152.1029 -6.44735,-307.641 33.74956,-455.2904 0,0 0,0 10e-6,0 40.19938,-147.6487 108.40335,-287.7246 201.35712,-408.9503 10e-6,-10e-5 2e-5,-10e-5 4e-5,-10e-5 71.5841,-93.3621 157.17962,-175.8884 252.9668,-243.9529 l -5.82448,-8.1286 c -96.06289,69.4028 -181.60376,153.2114 -252.88932,247.7109 0,0 -1e-5,0 -1e-5,0 -92.58262,122.739 -159.94441,263.9847 -199.09712,412.3863 -1e-5,10e-5 -1e-5,10e-5 -2e-5,10e-5 -39.15519,148.401 -50.18332,304.2738 -30.26258,456.225 z"
             id="path3885" />
          <path
             style="fill:#0b280b;stroke:none"
             d="m -338.92473,2316.7622 c -19.92074,-151.9512 -8.89261,-307.824 30.26258,-456.225 0,0 10e-6,0 10e-6,0 39.15271,-148.4017 106.5145,-289.6474 199.09711,-412.3864 10e-6,0 2e-5,0 3e-5,0 71.285563,-94.4995 156.82643,-178.3081 252.88932,-247.7109 l 5.82448,8.1286 c -95.787184,68.0645 -181.382703,150.5908 -252.9668,243.9529 -1e-5,0 -2e-5,0 -2e-5,0 -92.95378,121.2258 -161.15775,261.3017 -201.35714,408.9504 0,0 -10e-6,0 -10e-6,0 -40.19691,147.6494 -52.47655,303.1875 -33.74956,455.2904 z"
             id="path3891" />
          <path
             style="fill:#0b280b;stroke:none"
             d="m -315.67147,2323.7753 c -19.92074,-151.9512 -8.89261,-307.824 30.26259,-456.225 0,0 1e-5,0 1e-5,-1e-4 39.15271,-148.4016 106.5145,-289.6473 199.097101,-412.3863 1.3e-5,0 2.6e-5,0 3.8e-5,0 71.285558,-94.4995 156.826423,-178.3081 252.889311,-247.7109 l 5.82448,8.1286 c -95.787182,68.0645 -181.3826996,150.5908 -252.966799,243.9529 -92.953781,121.2258 -161.157761,261.3017 -201.357151,408.9504 -10e-6,0 -10e-6,0 -2e-5,0 -40.1969,147.6494 -52.47655,303.1875 -33.74956,455.2904 z"
             id="path3897" />
          <path
             style="fill:#0b280b;stroke:none"
             d="m -446.17487,2294.2993 c -18.72699,-152.1029 -6.44735,-307.641 33.74956,-455.2904 0,0 0,0 1e-5,0 40.19938,-147.6487 108.40335,-287.7246 201.35712,-408.9503 1e-5,-10e-5 2e-5,-10e-5 4e-5,-10e-5 71.5841,-93.3621 157.179616,-175.8884 252.966801,-243.9529 l -5.824482,-8.1286 c -96.062889,69.4028 -181.603759,153.2114 -252.889319,247.7109 0,0 -10e-6,0 -10e-6,0 -92.58262,122.739 -159.94441,263.9847 -199.09712,412.3863 -1e-5,10e-5 -1e-5,10e-5 -2e-5,10e-5 -39.15519,148.401 -50.18332,304.2738 -30.26258,456.225 z"
             id="path3903" />
          <path
             style="fill:#0b280b;stroke:none"
             d="m -68.42092,1929.2047 c -146.73053,-10.0405 -293.87782,-50.5435 -429.97877,-117.87 -10e-6,0 -2e-5,0 -3e-5,0 -136.09038,-67.3444 -261.44538,-161.6396 -364.65639,-279.0794 -10e-6,0 -3e-5,0 -4e-5,0 -79.41233,-90.3788 -145.98955,-193.721 -196.18015,-305.9634 41.1478,115.5315 99.67439,224.8846 173.15974,323.3807 6.66439,8.9256 13.45324,17.7553 20.36317,26.487 105.26047,106.1346 228.16287,189.9378 359.00247,249.2061 140.63891,63.71 290.76616,99.1763 438.29,103.839 z"
             id="path3909" />
          <path
             style="fill:#0b280b;stroke:none"
             d="m -72.260565,1983.7736 c -146.730525,-10.0405 -293.877805,-50.5435 -429.978765,-117.8701 -1e-5,0 -2e-5,0 -3e-5,0 -136.09037,-67.3443 -261.44537,-161.6396 -364.65639,-279.0793 -2e-5,0 -3e-5,0 -5e-5,0 -79.41234,-90.3788 -145.9896,-193.721 -196.1802,-305.9634 41.1478,115.5315 99.67443,224.8846 173.1598,323.3807 6.66439,8.9256 13.45323,17.7553 20.36315,26.487 105.26049,106.1346 228.16289,189.9378 359.0025,249.2061 140.6389,63.71 290.76615,99.1763 438.289985,103.839 z"
             id="path3913" />
          <path
             style="fill:#0b280b;stroke:none"
             d="m -254.16889,1936.2353 c -146.73053,-10.0405 -293.87782,-50.5435 -429.97877,-117.87 -10e-6,-10e-5 -2e-5,-10e-5 -3e-5,-10e-5 -136.09038,-67.3443 -261.44537,-161.6396 -364.65641,-279.0793 0,0 0,0 0,0 -79.4124,-90.3788 -145.9896,-193.721 -196.1802,-305.9634 41.1478,115.5315 99.6744,224.8846 173.1598,323.3807 6.6644,8.9256 13.4532,17.7553 20.3631,26.487 105.26051,106.1346 228.16291,189.9378 359.00251,249.2061 140.63891,63.71 290.76616,99.1763 438.29,103.839 z"
             id="path3919" />
          <path
             style="fill:#0b280b;stroke:none"
             d="m 217.21852,1864.8703 c -146.73052,-10.0404 -293.877806,-50.5434 -429.97876,-117.87 -136.09038,-67.3443 -261.44539,-161.6395 -364.65642,-279.0793 -10e-6,0 -3e-5,0 -4e-5,0 -79.41234,-90.3788 -145.98962,-193.721 -196.18019,-305.9634 41.14782,115.5315 99.67441,224.8846 173.15978,323.3807 6.66439,8.9256 13.45323,17.7553 20.36315,26.487 105.26048,106.1346 228.16289,189.9378 359.00249,249.2061 140.63891,63.71 290.766153,99.1763 438.28999,103.8389 z"
             id="path3925" />
          <path
             style="fill:#0b280b;stroke:none"
             d="m -134.83107,2138.4983 c -146.73052,-10.0404 -293.8778,-50.5434 -429.97876,-117.87 -10e-6,0 -10e-6,0 -2e-5,0 -136.09038,-67.3443 -261.44538,-161.6396 -364.6564,-279.0793 -1e-5,0 -3e-5,0 -4e-5,0 -79.41231,-90.3788 -145.98961,-193.721 -196.18021,-305.9634 41.1478,115.5315 99.6744,224.8846 173.15979,323.3807 6.6644,8.9256 13.45323,17.7553 20.36316,26.487 105.26048,106.1346 228.16289,189.9378 359.00249,249.2061 140.63891,63.71 290.76615,99.1763 438.28999,103.8389 z"
             id="path3879" />
        </g>
        <path
           style="fill:#0b280b;stroke:none;display:inline"
           d="m 1316.137,705.32953 c -49.5348,-74.12351 -113.9376,-137.87679 -187.5603,-187.5329 0,0 0,-1e-5 0,-1e-5 -73.6197,-49.66048 -156.6152,-85.32708 -243.2845,-103.35594 -10e-6,0 -2e-5,0 -3e-5,0 -66.73296,-13.88032 -135.45843,-17.69418 -203.1422,-11.32563 4.08757,1.55454 8.14507,3.14614 12.17196,4.7739 63.28466,-5.36358 127.48765,-1.7831 190.06851,10.70543 10e-6,0 10e-6,0 2e-5,10e-6 86.25694,17.20956 169.18224,52.03048 242.98254,100.95374 0,10e-6 10e-5,2e-5 10e-5,2e-5 73.8016,48.92139 138.6367,112.04634 188.7639,185.78138 z"
           id="path3819" />
        <path
           style="fill:#0b280b;stroke:none;display:inline"
           d="m 1119.1435,459.72508 c -49.5348,-74.12352 -113.9376,-137.8768 -187.5603,-187.53292 0,-10e-6 -1e-5,-10e-6 -1e-5,-10e-6 -73.61966,-49.66049 -156.61523,-85.32709 -243.28452,-103.35596 -10e-6,0 -2e-5,0 -3e-5,0 -66.73297,-13.88033 -135.45843,-17.69419 -203.14221,-11.32565 4.08761,1.55454 8.14515,3.14613 12.17208,4.7739 63.28463,-5.36356 127.48758,-1.78308 190.0684,10.70545 86.25693,17.20957 169.18226,52.0305 242.98262,100.95377 10e-6,10e-6 2e-5,10e-6 3e-5,2e-5 73.80164,48.92139 138.63674,112.04634 188.76394,185.7814 z"
           id="path3823" />
        <path
           style="fill:#0b280b;stroke:none;display:inline"
           d="m 1591.49,254.90426 c -49.5348,-74.12352 -113.9376,-137.8768 -187.5603,-187.53292 0,0 0,-1e-5 0,-1e-5 -73.6197,-49.66049 -156.6152,-85.32709 -243.2845,-103.35596 0,0 -10e-5,0 -10e-5,-10e-6 -66.7329,-13.88032 -135.4584,-17.69419 -203.1422,-11.32566 4.0876,1.55454 8.1452,3.14614 12.1721,4.7739 63.2846,-5.36355 127.4876,-1.78306 190.0684,10.70547 86.2569,17.20957 169.1823,52.03051 242.9826,100.95377 0,1e-5 0,2e-5 0,2e-5 73.8017,48.9214 138.6368,112.04635 188.764,185.7814 z"
           id="path3825" />
        <path
           style="fill:#0b280b;stroke:none;display:inline"
           d="m 1625.129,545.26186 c -49.5348,-74.12352 -113.9376,-137.8768 -187.5603,-187.53293 0,0 0,0 0,-10e-6 -73.6197,-49.66049 -156.6152,-85.32709 -243.2845,-103.35597 0,0 -10e-5,0 -10e-5,0 -66.7329,-13.88033 -135.4584,-17.69421 -203.1422,-11.32567 4.0876,1.55454 8.1452,3.14613 12.1721,4.7739 63.2846,-5.36356 127.4876,-1.78306 190.0684,10.70547 0,10e-6 0,10e-6 0,10e-6 86.257,17.20958 169.1823,52.03051 242.9826,100.95378 0,0 0,1e-5 0,2e-5 73.8017,48.92139 138.6368,112.04634 188.764,185.7814 z"
           id="path3827" />
        <g
           transform="matrix(0.58958287,0.80770789,-0.80770789,0.58958287,639.99601,-481.80378)"
           id="g2881"
           style="fill:#0b280b;display:inline">
          <path
             transform="matrix(1,0,0,-1,1220.8179,2075.2958)"
             style="fill:#0b280b;stroke:none"
             d="m -933.77032,2264.8564 c -18.72699,-152.1029 -6.44735,-307.641 33.74956,-455.2904 0,0 0,0 10e-6,0 40.19938,-147.6487 108.40335,-287.7246 201.35712,-408.9503 10e-6,-10e-5 2e-5,-10e-5 4e-5,-10e-5 71.5841,-93.3621 157.17962,-175.8884 252.9668,-243.9529 l -5.82448,-8.1286 c -96.06289,69.4028 -181.60376,153.2114 -252.88932,247.7109 0,0 -1e-5,0 -1e-5,0 -92.58262,122.739 -159.94441,263.9847 -199.09712,412.3863 -1e-5,10e-5 -1e-5,10e-5 -2e-5,10e-5 -39.15519,148.401 -50.18332,304.2738 -30.26258,456.225 z"
             id="path3811" />
          <path
             style="fill:#0b280b;stroke:none"
             d="m 905.14643,-248.4795 c -19.92072,151.951208 -8.89258,307.824018 30.26262,456.225 10e-6,1e-5 10e-6,2e-5 10e-6,4e-5 39.15272,148.40161 106.51454,289.64735 199.09714,412.38632 0,1e-5 0,3e-5 0,5e-5 71.2855,94.49947 156.8264,178.30813 252.8893,247.71093 l 5.8244,-8.12868 c -95.7871,-68.06449 -181.3826,-150.5908 -252.9667,-243.95287 0,-10e-6 0,-10e-6 0,-2e-5 C 1047.2994,494.5355 979.09544,354.4596 938.89605,206.81093 c -10e-6,-2e-5 -10e-6,-4e-5 -2e-5,-6e-5 C 898.69912,59.161501 886.41946,-96.376557 905.14643,-248.4795 z"
             id="path3815" />
          <path
             style="fill:#0b280b;stroke:none"
             d="m 774.64303,-219.0035 c -19.92072,151.951208 -8.89258,307.824018 30.26262,456.225 10e-6,1e-5 10e-6,2e-5 10e-6,4e-5 39.15272,148.40161 106.5145,289.64735 199.09714,412.38632 0,1e-5 0,3e-5 0,5e-5 71.2855,94.49947 156.8264,178.30813 252.8893,247.71093 l 5.8244,-8.12868 c -95.7871,-68.06449 -181.3826,-150.5908 -252.9667,-243.95287 0,-10e-6 0,-10e-6 0,-2e-5 C 916.79601,524.0115 848.59204,383.9356 808.39265,236.28693 c -10e-6,-2e-5 -10e-6,-4e-5 -2e-5,-6e-5 C 768.19572,88.637501 755.91606,-66.900557 774.64303,-219.0035 z"
             id="path3817" />
        </g>
        <path
           style="fill:#0b280b;stroke:none;display:inline"
           d="m 1268.9754,194.20157 c -157.5015,-29.75453 -318.0663,-26.89606 -470.36671,4.53464 -152.3031,31.41018 -296.65442,91.48262 -421.78653,176.01121 -96.4362,65.11451 -181.9437,144.11159 -253.1165,232.80556 78.1889,-82.10894 168.7286,-152.40987 267.4152,-207.72872 8.913,-5.00071 17.8973,-9.87414 26.9489,-14.61982 112.99095,-78.07273 243.51967,-136.29958 382.6515,-170.29776 149.55384,-36.54234 309.36354,-45.20416 468.25414,-20.70511 z"
           id="path3821" />
        <path
           id="path3813"
           d="m 606.64172,-148.40172 c 108.14472,43.75843 209.93869,103.90291 300.77407,177.87438 10e-6,10e-6 2e-5,10e-6 3e-5,2e-5 117.93338,96.02431 216.48398,216.24437 289.67898,350.54546 0,2e-5 0,4e-5 0,6e-5 73.1918,134.30276 121.1889,282.97253 138.167,435.80823 2.307,-9.843 4.4848,-19.7551 6.532,-29.7324 -20.8459,-143.9233 -68.7956,-283.08039 -138.8363,-409.16826 0,-10e-6 0,-2e-5 0,-3e-5 C 1128.2718,242.4638 1028.2998,122.58281 909.26708,27.26185 c -10e-6,-2e-5 -3e-5,-3e-5 -5e-5,-4e-5 -91.67446,-73.42016 -194.10785,-132.79107 -302.62531,-175.66353 z"
           style="fill:#0b280b;stroke:none;display:inline" />
      </g>
      <g
         style="display:inline"
         inkscape:label="logoscreen"
         id="layer6">
        <path
           id="path92330"
           d="m 1707.25,829.65625 -715.34375,6 -7.71875,0.0937 -1.375,0 -0.6875,0 -1088.25,-3.15625 0,526.3751 1813.375,0 0,-529.3126 z m -789.6875,1.875 -12.1875,0.0625 25.9375,3.03125 -13.5625,-3.09375 -0.1875,0 z m 25.625,0 9.71875,3.375 6.96875,0 -7.1875,-3.375 -9.5,0 z m 19.21875,0 5.5625,3.40625 1.90625,0 -4.46875,-3.40625 -1.125,0 -1.875,0 z m 9.125,0 3.5625,3.40625 0.3125,0 -2.875,-3.40625 -1,0 z m 5.71875,0 0.6875,1 -0.53125,-1 -0.15625,0 z m 5.84375,0 0.5625,3.4375 0.59375,0 -0.96875,-3.4375 -0.1875,0 z m 3.34375,0 -0.1875,3.4375 0.65625,0 -0.21875,-3.4375 -0.25,0 z m 3.40625,0 -0.9375,3.4375 0.59375,0 0.53125,-3.4375 -0.1875,0 z m 5.84375,0 -0.5,0.96875 0.625,-0.96875 -0.125,0 z m 4.8437,0 -2.87495,3.4375 0.28125,0 3.5313,-3.4375 -0.9376,0 z m 7,0 -4.4374,3.4375 1.7812,0 5.5,-3.4375 -0.875,0 -1.9688,0 z m 12.4063,0 -7.1875,3.4375 6.5625,0 9.6563,-3.4375 -1.375,0 -2.0938,0 -1.6562,0 -1.625,0 -1.3438,0 -0.9375,0 z m 33.25,0 -13.4375,3.15625 25.3438,-3.15625 -11.9063,0 z m -59.875,0.6875 -1.40625,2.75 0.375,0 1.03125,-2.75 z m -13.46875,0.0937 1.03125,2.65625 0.375,0 -1.40625,-2.65625 z"
           mask="none"
           style="fill:url(#linearGradient92373);fill-opacity:1;stroke:none;display:inline" />
        <path
           style="fill:url(#linearGradient92368);fill-opacity:1;stroke:none;display:inline"
           d="m 873.34375,-1013.625 113.5625,1848.59375 -1.21875,0 L 688.6875,-967 479.59375,-946.5625 984.25,834.96875 l -1.34375,0 -673.78125,-1696.625 -199.96875,64.5 872.09375,1632.125 -1.6875,0 -1018.84375,-1512.875 -181.625,105.625 1198.34375,1407.25 -2.3125,0 L -340.5625,-424.125 -495.53125,-282.25 971.90625,834.96875 l -3.875,0 L -580.84375,-112 l -121.1875,171.625 1663.9375,775.34375 -8.8125,0 -1702.25,-590.8125 -81.8125,193.5 1765.3125,397.3125 -1772.03125,-207 -38.75,206.5 1860.61333,1.28261 1841.63667,-19.50136 10.375,-209.875 -1797.5937,228.59375 1738.5,-409.625 -34.5938,-207.25 -1721.3438,616.875 -8.4062,0 1633.4375,-781.15625 -77.9687,-195.09375 -1561.375,976.25 -3.75,0 1436.0624,-1116.25 -117.75,-174.03125 -1321.4687,1290.28125 -2.28125,0 L 2165.4688,-564.59375 2013.375,-709.5625 995.5625,834.96875 l -1.65625,0 L 1837.7188,-783.125 1658.25,-892.34375 992.28125,834.96875 l -1.34375,0 480.0313,-1761.75 -198.6563,-68.5 -282.8125,1830.25 -1.21875,0 93.71875,-1824 -208.65625,-24.59375 0,0 z"
           id="path92370"
           mask="url(#mask92320)"
           sodipodi:nodetypes="ccccccccccccccccccccccccccccccccccccccccccccccccccccccccccc"
           transform="matrix(0.9999976,0.00221045,-0.00221045,0.9999976,-0.193405,-2.1790329)" />
      </g>
      <g
         style="display:inline"
         inkscape:label="sun"
         id="layer3-3" />
      <g
         style="display:inline"
         inkscape:label="screen"
         id="layer2-2" />
    </g>
    <g
       id="g4085"
       inkscape:label="dark"
       style="opacity:0.49727843;fill:#90989a;fill-opacity:1;display:none"
       transform="matrix(0.8491135,0,0,0.8491135,-1725.4897,-1240.0355)">
      <path
         style="font-size:156px;font-style:normal;font-weight:bold;opacity:0.98518521;fill:#90989a;fill-opacity:1;stroke:none;filter:url(#filter3529);font-family:aptosid"
         d="M 365.00825,280.50902 363.9375,397.375 c -8e-5,2.17446 -0.60457,3.28125 -1.8125,3.28125 l -53.4375,0 c -6.52225,0 -12.27223,-1.34044 -17.25,-3.96875 6.46356,6.63315 14.88859,9.96875 25.25,9.96875 l 53.4375,0 c 1.20793,0 1.81242,-1.10679 1.8125,-3.28125 l 0,-127.1875 c -9e-5,-1.69112 -0.60456,-2.53113 -1.8125,-2.53125 z m 132.8355,29.20973 7.96875,13.1875 c 1.80209,2.90348 3.53082,3.37788 5.25,1.46875 L 503.28125,311.5 c -0.72488,-1.20792 -1.80039,-1.78116 -3.25,-1.78125 z m 49.14335,7.92659 -19.44295,29.50632 c -1.93291,2.89933 -3.98127,5.15948 -2.16915,7.81709 l 27.71875,43.3125 c 0.96634,1.44963 0.89967,2.18752 -0.1875,2.1875 l -16.93206,0.14914 -1.50544,4.41336 c 0.60394,0.96645 1.5461,1.4375 2.875,1.4375 l 23.5625,0 c 1.08717,2e-5 1.15384,-0.73787 0.1875,-2.1875 L 533.375,360.96875 c -1.81212,-2.65761 -1.74541,-5.41317 0.1875,-8.3125 L 559.65625,311.5 c 0.72471,-1.20792 0.52463,-1.78116 -0.5625,-1.78125 z m -321.95221,-2.84491 -1.28489,9.91832 c -7e-5,1.20811 -0.60455,1.81257 -1.8125,1.8125 l -46,0 c -4.69047,2.3863 -4.87521,6.31133 -4.72604,10.75263 0.16126,4.80117 -4.02143,4.38826 1.35122,4.41635 -0.0429,-0.39127 2.47287,2.01308 2.47287,1.58365 -3e-5,-4.59044 3.46578,-10.75256 8.90195,-10.75263 l 46,0 c 1.20795,7e-5 1.81243,-0.60439 1.8125,-1.8125 l 0,-18.84375 c -6e-5,-1.32875 -0.60454,-1.9999 -1.8125,-2 z m 37.67006,1.07075 -0.64245,81.50382 c -4e-5,2.17446 -0.60448,3.28125 -1.8125,3.28125 l -7.27587,0.64245 -1.92734,2.71875 c -3.21224,1.74616 -3.03608,2.6388 -1.82804,2.6388 l 19.03125,0 c 1.20802,0 1.81246,-1.10679 1.8125,-3.28125 l 0,-90.59375 c -5e-5,-1.93274 -0.60448,-2.90615 -1.8125,-2.90625 z m 134.0046,1.04045 -0.4283,53.83837 c 1.34413,3.15345 1.13363,5.04677 3.53442,7.47119 0.76697,0.34088 1.82798,1.45639 2.69515,1.71711 1.44034,1.54211 3.25667,1.93696 3.25667,1.76582 l -1.48624,-66.39162 c -10e-6,-2.65759 -0.6045,-3.96865 -1.8125,-3.96875 z m 57.96875,0 -0.4283,61.61962 c -8e-5,3.86573 -1.14231,7.19028 -3.4375,9.96875 -4.59058,5.43616 -11.94636,9.06296 -22.09375,10.875 -4.71139,0.84562 -9.4804,1.28125 -14.3125,1.28125 -5.07376,0 -9.97621,-0.43563 -14.6875,-1.28125 -5.19176,-0.93826 -9.64074,-2.37132 -13.375,-4.28125 4.61474,5.09825 11.728,8.53783 21.375,10.28125 4.71129,0.84562 9.61374,1.28125 14.6875,1.28125 4.8321,0 9.60111,-0.43563 14.3125,-1.28125 10.14739,-1.81204 17.50317,-5.43884 22.09375,-10.875 2.29519,-2.77847 3.43742,-6.10302 3.4375,-9.96875 l 0,-69.21875 c -7e-5,-2.65759 -0.60456,-3.96865 -1.8125,-3.96875 z m -135.3033,9.61962 c -9.78511,7e-5 -15.89647,1.20901 -18.3125,3.625 -2.4161,2.41615 -4.29619,5.57186 -5.625,9.4375 -1.32888,3.50335 -1.96877,7.97016 -1.96875,13.40625 -3e-5,6.76503 1.51114,12.37406 4.53125,16.84375 1.81664,2.72501 4.51651,4.76597 8.09375,6.125 -0.0292,-0.0428 -0.065,-0.0819 -0.0937,-0.125 -3.02011,-4.46969 -4.53128,-10.07872 -4.53125,-16.84375 -2e-5,-5.43609 0.63987,-9.9029 1.96875,-13.40625 1.32881,-3.86564 3.48283,-6.19955 5.89893,-8.6157 2.41603,-2.41599 8.25346,-4.44673 18.03857,-4.4468 l 21.76942,1.3652 0.8218,-2.81296 c -0.0914,-2.42449 -2.33944,-3.36959 -5.73888,-4.19146 z m -97.3125,22.25 c 1.75082,2.3004 3.1231,5.25335 4.0625,8.90625 1.08714,4.22815 1.62491,9.63292 1.625,16.15625 -9e-5,5.67777 -1.3424,11.05126 -4,16.125 -1.4497,2.89929 -3.49865,5.41929 -6.15625,7.59375 -2.65774,2.05365 -6.08444,3.09375 -10.3125,3.09375 l -46.82188,0.64245 -3.21224,2.26016 c -3.42638,1.85047 -3.89266,3.09739 -2.68463,3.09739 l 60.71875,0 c 4.22806,0 7.65476,-1.0401 10.3125,-3.09375 2.6576,-2.17446 4.70655,-4.69446 6.15625,-7.59375 2.6576,-5.07374 3.99991,-10.44723 4,-16.125 -9e-5,-6.52333 -0.53786,-11.9281 -1.625,-16.15625 -1.08732,-4.22807 -2.73187,-7.52138 -4.90625,-9.9375 -1.88834,-2.20295 -4.26595,-3.8589 -7.15625,-4.96875 z m -62.46875,11.53125 c 1.77489,2.33953 4.08467,4.19318 6.9375,5.5625 3.14088,1.44967 6.93651,2.18754 11.40625,2.1875 l 27.28125,0 c -0.41087,-4.01142 -2.9397,-5.99995 -7.5625,-6 l -27.71875,0 c -3.98239,4e-5 -7.41624,-0.59922 -10.34375,-1.75 z m 349.13211,17.84638 c -2.01041,3.28107 -3.72951,6.43853 -4.69592,7.94855 l -8.80145,14.41522 c -3.28855,-0.0775 -5.37263,-0.0539 -6.82224,-0.0539 l -5.13582,0.4283 -2.41861,0.96391 c -2.81279,1.98207 -4.26873,2.22156 -8.19557,4.60779 l 23.75,0 c 1.44961,2e-5 2.48971,-0.47106 3.09375,-1.4375 l 14.46875,-22.46875 c 0.307,-0.47969 0.6305,-0.89144 0.9375,-1.21875 l 2.09489,-1.79846 c -3.20356,-1.65917 -5.66831,-1.83383 -8.27528,-1.38641 z"
         id="path4087"
         sodipodi:nodetypes="ccccccccccccccccccccccccccccccccccccscscccccccccccccccccccccccccccccscccscccccccscsccsscsccccccsscccccccccsscccccccccccccccccccccc"
         inkscape:export-filename="/home/bgray/software/aptosid-art/svg-core/aptosid-logo.png"
         inkscape:export-xdpi="90"
         inkscape:export-ydpi="90" />
    </g>
    <g
       id="g4089"
       inkscape:label="light"
       style="opacity:0.49824877;fill:#90989a;fill-opacity:1;display:none"
       transform="matrix(0.8491135,0,0,0.8491135,-1725.4897,-1240.0355)">
      <path
         style="font-size:156px;font-style:normal;font-weight:bold;opacity:0.5987261;fill:#90989a;fill-opacity:1;stroke:none;filter:url(#filter3517);font-family:aptosid"
         d="m 351.28125,273.65625 c -1.3289,1.3e-4 -1.96882,0.84012 -1.96875,2.53125 l 0,31.875 c -7e-5,1.20814 -0.60453,1.8126 -1.8125,1.8125 l -31.90625,0.1875 c -12.68437,10e-5 -22.72476,6.28029 -30.09375,18.84375 -3.74492,6.28184 -5.96267,16.32225 -6.6875,30.09375 -0.48321,11.35554 1.80126,21.3647 6.875,30.0625 2.12699,3.61961 4.591,6.68597 7.375,9.1875 -0.44379,-0.6687 -0.86288,-1.35054 -1.28125,-2.0625 -5.07373,-8.69782 -7.38946,-18.73821 -6.90625,-30.09375 0.72481,-13.77151 2.07899,-25.27206 5.82391,-31.5539 6.45884,-9.83303 12.65986,-12.06353 30.98859,-17.35235 L 353.5625,317 c 1.20798,1.2e-4 2.72256,-6.9753 2.72263,-8.18344 l 0,-20.52957 c -8e-5,-1.69111 -0.23903,-7.53686 1.08987,-7.53699 l 6.85313,-0.4283 2.99809,-2.63516 c 1.2848,-1.90527 4.10672,-4.03017 2.89878,-4.03029 z m 125.19952,37.28445 c -0.75315,0.13219 -0.79046,0.72431 -0.15625,1.78125 l 25.67027,38.95674 c 3.76575,5.22104 1.72388,7.85439 -0.0881,10.51201 l -25.33782,39.22666 c -0.72483,1.08723 -4.75821,5.05139 -3.91258,5.05139 l 8.48917,-5.38274 23.5557,-32.25909 c 0.95542,-3.51422 1.56658,-7.70721 -0.022,-11.16487 L 480.1875,318.625 c -0.72481,-1.20793 -0.52474,-1.81242 0.5625,-1.8125 l 25.375,0 c 0.13608,10e-6 -8.9631,-0.19355 -8.83341,-0.1829 l 1.70668,-2.77396 c 0.74146,-0.23036 1.13844,-1.08192 1.64396,-2.67055 l -23.78646,-0.24439 c -0.13591,1e-5 -0.26741,-0.0189 -0.375,0 z m 57.84054,0.48878 c -1.28167,0.13219 -1.99645,0.96871 -2.875,1.78125 l -10.06811,16.3065 c -0.98437,1.6792 -3.20986,1.94454 -4.22195,2.01402 l 2.71875,4.5 c 2.7854,0.2041 5.51197,-3.95053 6.95473,-5.1322 l 7.89984,-13.98478 c 0.72476,-1.20793 3.69993,-0.10169 5.27043,-0.10177 l 6.64454,-1.28489 5.08819,-2.74272 c 3.08035,-1.63621 1.48302,-0.74434 4.55053,-1.5998 l -21.39945,0.24439 c -0.19631,10e-6 -0.3794,-0.0189 -0.5625,0 z m -344.11678,-0.36136 c -6.40261,10e-5 -12.29022,0.73401 -16.75992,1.57953 -9.06026,1.44973 -13.41344,4.88831 -16.0711,12.13641 -1.44964,3.86577 -1.88923,8.30504 -1.88922,14.46594 -10e-6,8.93949 1.36599,14.92933 4.99008,19.76141 1.1752,1.64532 1.40481,3.95687 3.08813,5.14484 -2.42737,-4.56503 -3.62501,-10.49636 -3.625,-17.8125 -1e-5,-6.1609 0.70661,-11.16546 2.15625,-15.03125 3.87372,-5.85996 6.71324,-9.79249 17.59375,-13.0625 4.4697,-0.84552 9.90989,-1.24988 16.3125,-1.25 l 27.61233,-0.64245 2.99809,-2.76936 c 1.71313,-1.32875 3.93848,-2.25993 2.73052,-2.26003 z m 59.01422,-1.19312 c -1.20805,10e-5 -1.8125,0.9735 -1.8125,2.90625 l 0,90.59375 c 0,2.17446 0.60446,3.28125 1.8125,3.28125 l 3.2105,-4.49713 1.07075,-82.25287 c 0,-1.93275 0.60447,-2.90613 1.8125,-2.90625 l 7.25478,-0.64245 3.21224,-2.93385 c 1.92729,-1.93274 3.6785,-3.5486 2.47048,-3.5487 z m 135.23878,2.93509 c -1.20802,1.1e-4 -0.59056,-0.15517 -0.59055,2.50241 l 0.2444,69.82973 c -2e-5,3.86573 0.77491,5.32365 3.19098,8.10211 1.11164,1.31642 0.82479,1.17695 2.25521,2.28085 -0.90759,-1.96088 -0.39745,-1.04455 -0.39744,-3.41387 L 388.25,322.4375 c -10e-6,-2.65758 0.36008,-6.32161 1.44591,-4.97756 l 8.16087,-0.64245 2.35564,-1.71914 c 1.07073,-1.15855 2.97555,-2.28816 1.76755,-2.28826 z m 58.36659,0.1222 c -1.20812,1.1e-4 -1.20159,-0.15517 -1.20153,2.50241 l 0.24439,61.55969 c -0.73322,3.02987 -2.91321,4.42117 -6.29286,6.84695 -3.38256,1.44963 -8.09139,2.40066 -12.92348,2.40064 -4.83592,2e-5 -9.94128,-1.26279 -13.13101,-2.57972 l -2.32171,-0.15385 c -2e-5,2.05369 5.0259,4.26911 8.77083,5.96034 3.26166,1.44965 7.42623,0.96558 12.5,0.96555 4.83209,2e-5 8.10583,-1.22663 11.48838,-2.67628 3.62404,-2.85531 4.76474,-3.63832 6.04848,-5.87084 L 446.25,322.4375 c -6e-5,-2.65758 0.60439,-3.9999 1.8125,-4 l 7.12058,-0.8566 2.35564,-2.2684 c 1.92727,-2.01514 4.10672,-3.96865 2.89878,-3.96875 z m -93.329,20.88005 -0.18262,48.37516 c -7e-5,1.20806 -0.60453,1.81253 -1.8125,1.8125 l -20.125,0 c -7.25124,2e-5 -14.86535,0.23424 -18.85665,-5.26749 0.47043,0.94828 6.42908,5.85054 7.01203,6.7133 7.09196,4.94077 7.2764,5.64797 17.90712,5.64794 l 20.125,0 c 1.20798,4e-5 1.81243,-0.57319 1.8125,-1.78125 l -0.0913,-56.45337 c -8e-5,-1.32874 -0.60453,-1.96868 -1.8125,-1.96875 z M 176.773,345.93469 c 4.47416,6.62187 8.08911,6.20607 13.52528,6.20602 l 24.17047,1.64054 c 4.83207,5e-5 7.58768,-1.25183 12.3125,1.625 1.95874,0.60793 3.70664,1.47017 5.25,2.53125 -0.80406,-1.6175 -2.4935,-2.70615 -3.5582,-3.88922 -2.17453,-2.53682 -4.6985,-3.60451 -8.20172,-4.6918 -3.38256,-1.08718 -7.2134,-2.10362 -12.04547,-2.10367 l -24.58664,0 c -0.74261,10e-6 -6.22506,-1.22795 -6.86622,-1.31812 z m 36.01284,22.87495 c 9e-5,0.0207 1.68853,7.22776 1.68853,7.24856 -6e-5,5.79859 -4.19185,8.09097 -8.96726,9.28406 l -50.19891,-0.14914 c -1.20803,3e-5 -2.5582,-0.58864 -2.5582,0.61938 l 0,19.03125 c 0,1.20803 1.88936,-0.11484 3.09739,-2.04218 l 2.78221,-2.35565 0.21415,-7.53967 c 0,-1.20802 0.60447,-1.81246 1.8125,-1.8125 l 47.62587,-0.99082 c 8.04616,-3.46786 8.61575,-3.87975 9.11123,-10.17374 0.33861,-4.30123 -0.56249,-6.19869 -4.60751,-11.11955 z m 310.18291,18.59661 11.5,17.625 c 0.5153,0.82461 1.30067,1.25398 2.34375,1.375 l -10.9375,-16.75 c -0.96645,-1.51003 -1.93982,-2.25 -2.90625,-2.25 z"
         id="path4091"
         sodipodi:nodetypes="ccccccccccccccccccccccccccccccccccccccccccccccccccccccsccsccccccccccccccccccccccccccccccccccscccscccccccccccccccccccccccccccccccscccccccccscccccc"
         inkscape:export-filename="/home/bgray/software/aptosid-art/svg-core/aptosid-logo.png"
         inkscape:export-xdpi="90"
         inkscape:export-ydpi="90" />
    </g>
    <g
       id="g4093"
       inkscape:label="ring"
       style="opacity:0.65495211;fill:#90989a;fill-opacity:1;display:none"
       transform="matrix(0.8491135,0,0,0.8491135,-1725.4897,-1240.0355)">
      <path
         sodipodi:type="arc"
         style="opacity:0.94267518;fill:#90989a;fill-opacity:1;stroke:url(#linearGradient47238);stroke-width:3.9000001;stroke-miterlimit:4;stroke-opacity:1;stroke-dasharray:none;display:inline;filter:url(#filter9010)"
         id="path4095"
         sodipodi:cx="170.71577"
         sodipodi:cy="235.65385"
         sodipodi:rx="96.974648"
         sodipodi:ry="40.911179"
         d="m 178.79371,194.88486 a 96.974648,40.911179 0 1 1 -23.60188,0.38542"
         transform="matrix(0.8064353,-0.5212764,0.616548,0.1038381,-90.024046,382.00476)"
         sodipodi:start="4.7957851"
         sodipodi:end="10.8348"
         sodipodi:open="true"
         inkscape:export-filename="/home/bgray/software/aptosid-art/svg-core/aptosid-logo.png"
         inkscape:export-xdpi="90"
         inkscape:export-ydpi="90" />
    </g>
    <g
       id="g4097"
       inkscape:label="planet"
       style="opacity:0.65495211;fill:#90989a;fill-opacity:1;display:none"
       transform="matrix(0.8491135,0,0,0.8491135,-1725.4897,-1240.0355)">
      <path
         style="fill:#90989a;fill-opacity:1;stroke:none;display:inline;filter:url(#filter6192)"
         d="m 60.755894,368.54772 c 9.307411,0.778 16.229825,8.96327 15.451819,18.27068 -0.778006,9.30741 -8.963272,16.22982 -18.270683,15.45182 -9.30741,-0.77801 -16.229825,-8.96328 -15.451818,-18.27069 0.65707,-7.86063 6.366325,-14.02967 14.152645,-15.29241"
         id="path4099"
         transform="matrix(0.8823588,0,0,0.8823588,205.95193,-50.149152)"
         inkscape:export-filename="/home/bgray/software/aptosid-art/svg-core/aptosid-logo.png"
         inkscape:export-xdpi="90"
         inkscape:export-ydpi="90" />
      <g
         style="fill:#90989a;fill-opacity:1;display:inline"
         id="g4101"
         transform="translate(-113.59653,57.366238)">
        <path
           style="fill:#90989a;fill-opacity:1;filter:url(#filter6664)"
           d="m 366.67158,245.41067 c -5.43364,-1.82164 -8.59288,-6.02873 -9.04429,-12.04406 -0.75558,-10.06864 5.4511,-16.25397 15.54896,-15.49545 4.50511,0.3384 5.87235,0.95055 8.91179,3.98999 3.04232,3.04231 3.65037,4.40243 3.98413,8.91179 0.43252,5.84368 -1.60505,10.39286 -5.91972,13.21666 -3.11235,2.03693 -9.603,2.72113 -13.48087,1.42107 z"
           id="path4103" />
        <path
           style="fill:#90989a;fill-opacity:1"
           d="m 364.38473,244.31517 c -3.85347,-1.94988 -7.03055,-7.42955 -7.02628,-12.11857 0.0133,-14.5676 19.38752,-19.84945 27.00166,-7.36126 3.5422,5.80966 1.93486,14.30117 -3.51908,18.59124 -3.1894,2.50878 -12.28389,2.99986 -16.4563,0.88859 z"
           id="path4105" />
        <path
           style="fill:#90989a;fill-opacity:1;filter:url(#filter6712)"
           d="m 364.6244,244.11189 c -6.27223,-2.72671 -8.89209,-10.69869 -5.88283,-17.90087 1.60682,-3.84567 6.74095,-7.88846 8.94422,-7.04299 0.83195,0.31925 2.46984,0.0682 3.63975,-0.55794 5.38599,-2.88249 15.02917,5.256 15.02917,12.68409 0,4.19521 -2.38879,9.08496 -5.86937,12.01434 -3.12511,2.63021 -10.76817,3.01734 -15.86094,0.80337 z"
           id="path4107" />
        <path
           style="fill:#90989a;fill-opacity:1"
           d="m 364.68019,244.13535 c -5.81124,-2.52776 -8.63707,-10.03669 -6.36637,-16.91699 1.29574,-3.92611 5.64318,-7.99047 7.70195,-7.20045 0.71331,0.27373 2.69439,-0.0899 4.40238,-0.80806 4.31814,-1.81564 7.52862,-0.93628 11.49598,3.14878 5.8981,6.07308 5.83009,12.58519 -0.20116,19.26106 -3.3128,3.66687 -3.98867,3.97176 -8.72462,3.93565 -2.8235,-0.0215 -6.56218,-0.66053 -8.30816,-1.41999 z m 18.06823,-11.60154 c 0.76195,-4.76496 0.44321,-5.45518 -3.44849,-7.46766 -4.98009,-2.5753 -10.87867,0.45202 -7.48776,3.84293 0.75486,0.75486 1.29824,2.1706 1.20751,3.1461 -0.11754,1.2637 0.66806,1.86859 2.73254,2.10396 1.59363,0.1817 3.37113,0.80398 3.95,1.38285 1.7848,1.7848 2.37259,1.20433 3.0462,-3.00818 z"
           id="path4109" />
        <path
           style="fill:#90989a;fill-opacity:1"
           d="m 364.54707,243.91889 c -3.52633,-1.73782 -7.20756,-7.65959 -7.1704,-11.53457 0.0553,-5.76886 6.13061,-14.04965 9.00454,-12.27346 0.54184,0.33487 2.4896,0.0649 4.32836,-0.60006 4.42999,-1.6019 8.19956,-0.5276 11.73644,3.34479 5.39561,5.90743 4.62073,14.15051 -1.86555,19.84554 -2.65118,2.32777 -4.21705,2.8889 -8.01055,2.87058 -2.59336,-0.0125 -6.20364,-0.75629 -8.02284,-1.65282 z m 12.05764,-6.03014 c -1.2375,-0.23836 -3.2625,-0.23836 -4.5,0 -1.2375,0.23835 -0.225,0.43337 2.25,0.43337 2.475,0 3.4875,-0.19502 2.25,-0.43337 z m 6.35922,-4.54427 c 0.92268,-3.90393 0.65345,-5.75335 -1.12822,-7.75 -0.73616,-0.825 -1.391,-1.95 -1.45519,-2.5 -0.0642,-0.55 -1.10875,-0.84834 -2.32126,-0.66299 -4.05663,0.62014 -7.11372,2.64044 -7.81258,5.16299 -0.54623,1.97164 -0.71368,2.08313 -0.79229,0.52749 -0.0944,-1.86794 -0.18227,-1.85459 -1.65761,0.25176 -0.85687,1.22334 -1.25062,2.72151 -0.875,3.32927 0.4861,0.78653 0.9011,0.752 1.4399,-0.11979 0.55624,-0.90003 1.31859,-0.66317 2.875,0.89324 1.19714,1.19714 3.39673,2.11803 5.05901,2.11803 1.61754,0 3.2191,0.45 3.55902,1 1.15403,1.86727 2.33874,1.00995 3.10922,-2.25 z"
           id="path4111"
           sodipodi:nodetypes="cssssssccssccsssssssssssc" />
        <path
           style="fill:#90989a;fill-opacity:1"
           d="m 367.35471,244.94241 c -6.45626,-2.12701 -10.71266,-8.7356 -9.56533,-14.85137 0.92017,-4.90493 4.96466,-9.37987 8.3896,-9.28249 1.51831,0.0432 3.72439,-0.43734 4.90241,-1.06779 2.57605,-1.37866 5.2493,-1.44705 7.24436,-0.18534 1.71898,1.08712 1.39605,1.52353 -1.87231,2.53023 -1.98032,0.60997 -2.28941,0.44812 -1.76316,-0.92325 0.58372,-1.52117 0.44981,-1.531 -1.57124,-0.1154 -1.21514,0.85111 -2.99884,1.54748 -3.96378,1.54748 -0.96495,0 -2.49157,1.125 -3.39251,2.5 -0.90093,1.375 -2.23475,2.5 -2.96403,2.5 -1.87411,0 -2.86806,1.97595 -1.62116,3.22285 0.73144,0.73144 1.5577,0.53946 2.73191,-0.63475 2.06622,-2.06622 2.96578,-1.42925 1.59604,1.13014 -1.50203,2.80656 0.0851,4.72925 1.86523,2.25952 1.4244,-1.97625 3.64641,-2.85862 2.49105,-0.98921 -0.35034,0.56686 0.0511,0.7345 0.94098,0.39301 0.85357,-0.32755 1.55194,-0.0974 1.55194,0.51145 0,0.60885 1.24987,1.10699 2.77749,1.10699 1.52763,0 3.71243,0.65485 4.85513,1.45523 1.96303,1.37496 2.1399,1.24739 3.20647,-2.31251 0.76103,-2.54006 0.81873,-4.88779 0.1771,-7.20523 -0.86536,-3.12552 -0.81968,-3.2629 0.50332,-1.51376 3.90667,5.16504 2.51341,11.47716 -3.91782,17.74954 -2.27138,2.21528 -3.78555,2.80965 -7,2.74778 -2.25593,-0.0434 -4.77669,-0.30132 -5.60169,-0.57312 z m 10.09375,-5.3981 c 2.87332,-1.53776 1.3641,-2.94983 -3.15277,-2.94983 -4.3987,0 -5.09184,1.13933 -1.69098,2.77951 2.89615,1.39676 2.57334,1.38541 4.84375,0.17032 z m -10.88729,-13.44983 c 0.20127,-1.28207 1.20771,-2.09942 2.80376,-2.27695 2.35356,-0.2618 2.38036,-0.21176 0.48978,0.91454 -1.1,0.65531 -2.36169,1.67994 -2.80376,2.27695 -0.47762,0.64502 -0.67636,0.27394 -0.48978,-0.91454 z"
           id="path4113" />
        <path
           style="fill:#90989a;fill-opacity:1"
           d="m 365.42579,243.84293 c -3.81463,-1.94513 -6.57637,-5.41138 -7.45694,-9.35919 -0.52508,-2.35403 -0.31949,-2.58189 2.09074,-2.31731 1.55734,0.17095 3.15073,-0.3598 3.81743,-1.27157 0.94922,-1.29814 1.14436,-1.03414 1.14436,1.54818 0,4.62195 4.4934,8.46868 9.23281,7.90406 1.98028,-0.23592 4.38802,-0.77491 5.35052,-1.19777 2.59912,-1.14187 2.23082,1.64482 -0.56445,4.27084 -2.87508,2.70099 -8.78657,2.88456 -13.61447,0.42276 z m 1.51152,-8.1148 c -0.29449,-0.4765 0.30047,-1.62284 1.32213,-2.54743 1.67647,-1.51718 2.00842,-1.53021 3.40499,-0.13365 0.85108,0.85109 2.59207,1.55432 3.86885,1.56274 1.27679,0.008 2.99643,0.45153 3.82143,0.98469 1.05122,0.67935 -0.50187,0.97396 -5.19098,0.98469 -3.68004,0.008 -6.93193,-0.37455 -7.22642,-0.85104 z m 16.9174,-4.5653 c 0,-5.7228 0.84503,-6.1836 1.92347,-1.04889 0.38514,1.83374 0.13199,3.70623 -0.64465,4.76834 -1.09573,1.49851 -1.27882,0.96601 -1.27882,-3.71945 z m -24.78007,-3.56835 c 0.58988,-3.44288 4.00398,-6.88496 6.24717,-6.29835 1.00564,0.26298 2.74713,-0.0135 3.86998,-0.61446 1.17905,-0.63101 2.27792,-0.71014 2.60105,-0.18731 0.30772,0.49792 -0.75403,1.3632 -2.35946,1.92285 -1.60542,0.55965 -3.85489,1.95349 -4.99881,3.09741 -1.14392,1.14392 -2.72186,2.07986 -3.50654,2.07986 -0.78467,0 -1.61906,0.5625 -1.8542,1.25 -0.23513,0.6875 -0.23477,0.125 8.1e-4,-1.25 z"
           id="path4115" />
        <path
           style="fill:#90989a;fill-opacity:1"
           d="m 368.99784,244.82608 c -0.26119,-0.42263 1.23459,-0.60538 3.32395,-0.40613 2.08937,0.19925 4.10307,-0.12996 4.4749,-0.7316 0.37183,-0.60163 1.1546,-1.09387 1.73948,-1.09387 0.67059,0 0.60355,0.55411 -0.18146,1.5 -1.28766,1.55154 -8.50152,2.11558 -9.35687,0.7316 z m -6.28281,-2.69177 c -2.28073,-1.59749 -5.0092,-7.22429 -3.99492,-8.23856 0.34903,-0.34903 0.6346,-0.0579 0.6346,0.64707 0,0.96034 0.60358,0.8862 2.40744,-0.29573 2.17099,-1.42249 2.46595,-1.42492 3.00324,-0.0248 0.7869,2.05063 -0.26815,3.64083 -1.97981,2.98401 -2.83738,-1.08881 -2.32186,1.32921 0.80954,3.79708 3.42935,2.70268 2.7007,3.63898 -0.88009,1.1309 z m 8.38968,-0.20211 c 0.6875,-0.27741 1.8125,-0.27741 2.5,0 0.6875,0.27741 0.125,0.50439 -1.25,0.50439 -1.375,0 -1.9375,-0.22698 -1.25,-0.50439 z m -3.27571,-6.19676 c -1.03303,-1.03303 -0.39398,-2.32412 0.90386,-1.82609 0.75798,0.29086 1.88298,0.024 2.5,-0.59301 0.82914,-0.82914 1.12185,-0.70272 1.12185,0.48452 0,1.0913 0.61516,1.44551 1.91848,1.10469 1.05516,-0.27593 2.74266,-0.0332 3.75,0.53935 1.41449,0.804 0.51642,1.00959 -3.94419,0.90293 -3.17664,-0.0759 -5.98914,-0.35153 -6.25,-0.61239 z m 16.52571,-3.14096 c 0,-0.55 0.47656,-1 1.05902,-1 0.58246,0 0.7809,0.45 0.44098,1 -0.33992,0.55 -0.81648,1 -1.05902,1 -0.24254,0 -0.44098,-0.45 -0.44098,-1 z m 0.0789,-4.58333 c 0.048,-1.16495 0.28494,-1.4019 0.60416,-0.60417 0.28888,0.72187 0.25335,1.58437 -0.0789,1.91667 -0.33229,0.33229 -0.56864,-0.25834 -0.52522,-1.3125 z m -24.07895,-2.79423 c 0,-2.1316 2.64339,-3.82408 5.19496,-3.32615 l 2.30504,0.44981 -2.1808,0.72549 c -1.31741,0.43826 -1.96789,1.28033 -1.64301,2.12695 0.35636,0.92868 -0.17301,1.40146 -1.5692,1.40146 -1.15884,0 -2.10699,-0.6199 -2.10699,-1.37756 z"
           id="path4117" />
      </g>
      <path
         style="opacity:0.3677781;fill:#90989a;fill-opacity:1;stroke:none;display:inline;filter:url(#filter8125)"
         d="m 258.62749,273.96319 c 8.21248,0.68647 14.32053,7.90882 13.63405,16.12129 -0.68648,8.21248 -7.90882,14.32053 -16.12129,13.63405 -8.21248,-0.68648 -14.32053,-7.90883 -13.63405,-16.1213 0.57977,-6.9359 5.61738,-12.37921 12.48771,-13.4934"
         id="path4119"
         inkscape:export-filename="/home/bgray/software/aptosid-art/svg-core/aptosid-logo.png"
         inkscape:export-xdpi="90"
         inkscape:export-ydpi="90" />
    </g>
  </g>
  <g
     inkscape:groupmode="layer"
     id="layer2"
     inkscape:label="splash_inactive_bar"
     style="display:inline">
    <text
       id="text3500"
       y="294.66382"
       x="302.89194"
       style="font-size:40px;font-style:normal;font-weight:normal;fill:#666666;fill-opacity:1;stroke:none;font-family:Bitstream Vera Sans"
       xml:space="preserve"><tspan
         y="294.66382"
         x="302.89194"
         id="tspan3502"
         sodipodi:role="line" /></text>
    <path
       id="path3983"
       d="m 5.942024,277.23928 0,-29.23928 194.171526,0 194.17153,0 0,29.23928 0,29.23928 -194.17153,0 -194.171526,0 z"
       style="fill:url(#radialGradient61588);fill-opacity:1;stroke:none" />
    <path
       style="opacity:0.19444442;fill:#ffffff;fill-opacity:1;stroke:none"
       d="m 17.10158,249.53842 c -4.506844,0 -8.1493828,3.81322 -8.1493828,8.53125 l 0,19.65625 382.0956128,0 0,-19.65625 c 0,-4.71803 -3.6127,-8.53125 -8.11954,-8.53125 z"
       id="rect3968"
       sodipodi:nodetypes="ccccccc" />
    <path
       style="fill:#000000;fill-opacity:1;stroke:none;filter:url(#filter3940)"
       d="m 5.9375,247.59375 0,29.25 0,29.21875 194.1875,0 194.15625,0 0,-29.21875 0,-29.25 -194.15625,0 z m 15.0625,6.25 358.25,0 c 4.71803,0 8.5,3.78197 8.5,8.5 l 0,28.96875 c 0,4.71803 -3.78197,8.53125 -8.5,8.53125 l -358.25,0 c -4.718028,0 -8.53125,-3.81322 -8.53125,-8.53125 l 0,-28.96875 c 0,-4.71801 3.813222,-8.5 8.53125,-8.5 z"
       id="path3873"
       transform="matrix(1.0093366,0,0,1.0294565,-1.868334,-7.7514765)"
       clip-path="url(#clipPath3944)" />
    <path
       clip-path="url(#clipPath3964)"
       transform="matrix(0.9989721,0,0,1.0511219,0.2056985,-13.749082)"
       id="path3948"
       d="m 5.9375,247.59375 0,29.25 0,29.21875 194.1875,0 194.15625,0 0,-29.21875 0,-29.25 -194.15625,0 z m 15.0625,6.25 358.25,0 c 4.71803,0 8.5,3.78197 8.5,8.5 l 0,28.96875 c 0,4.71803 -3.78197,8.53125 -8.5,8.53125 l -358.25,0 c -4.718028,0 -8.53125,-3.81322 -8.53125,-8.53125 l 0,-28.96875 c 0,-4.71801 3.813222,-8.5 8.53125,-8.5 z"
       style="fill:#000000;fill-opacity:1;stroke:none;filter:url(#filter3960)" />
  </g>
  <g
     inkscape:groupmode="layer"
     id="layer3"
     inkscape:label="splash_active_bar"
     style="display:inline">
    <path
       style="fill:url(#radialGradient5449);fill-opacity:1;stroke:none;display:inline"
       d="m 5.942024,341.23928 0,-29.23928 194.171526,0 194.17153,0 0,29.23928 0,29.23928 -194.17153,0 -194.171526,0 z"
       id="path3989" />
    <path
       id="path5437"
       d="m 5.942024,341.23928 0,-29.23928 194.171526,0 194.17153,0 0,29.23928 0,29.23928 -194.17153,0 -194.171526,0 z"
       style="opacity:0.21031745;fill:url(#Strips1_1white);fill-opacity:1;stroke:none;display:inline" />
    <path
       sodipodi:nodetypes="ccccccc"
       id="path3991"
       d="m 17.10158,313.53842 c -4.506844,0 -8.1493828,3.81322 -8.1493828,8.53125 l 0,19.65625 382.0956128,0 0,-19.65625 c 0,-4.71803 -3.6127,-8.53125 -8.11954,-8.53125 z"
       style="opacity:0.32051284;fill:url(#linearGradient5463);fill-opacity:1;stroke:none;display:inline" />
    <path
       clip-path="url(#clipPath3944)"
       transform="matrix(1.0093366,0,0,1.0294565,-1.868334,56.248536)"
       id="path3993"
       d="m 5.9375,247.59375 0,29.25 0,29.21875 194.1875,0 194.15625,0 0,-29.21875 0,-29.25 -194.15625,0 z m 15.0625,6.25 358.25,0 c 4.71803,0 8.5,3.78197 8.5,8.5 l 0,28.96875 c 0,4.71803 -3.78197,8.53125 -8.5,8.53125 l -358.25,0 c -4.718028,0 -8.53125,-3.81322 -8.53125,-8.53125 l 0,-28.96875 c 0,-4.71801 3.813222,-8.5 8.53125,-8.5 z"
       style="fill:#000000;fill-opacity:1;stroke:none;display:inline;filter:url(#filter3940)" />
    <path
       style="fill:#000000;fill-opacity:1;stroke:none;display:inline;filter:url(#filter3960)"
       d="m 5.9375,247.59375 0,29.25 0,29.21875 194.1875,0 194.15625,0 0,-29.21875 0,-29.25 -194.15625,0 z m 15.0625,6.25 358.25,0 c 4.71803,0 8.5,3.78197 8.5,8.5 l 0,28.96875 c 0,4.71803 -3.78197,8.53125 -8.5,8.53125 l -358.25,0 c -4.718028,0 -8.53125,-3.81322 -8.53125,-8.53125 l 0,-28.96875 c 0,-4.71801 3.813222,-8.5 8.53125,-8.5 z"
       id="path3995"
       transform="matrix(0.9989721,0,0,1.0511219,0.2056985,50.250931)"
       clip-path="url(#clipPath3964)" />
  </g>
  <g
     inkscape:groupmode="layer"
     id="layer4"
     inkscape:label="splash_top"
     style="display:inline">
    <rect
       style="fill:#000000;fill-opacity:1;stroke:none"
       id="rect17127"
       width="399.99823"
       height="19.000458"
       x="0"
       y="375.99954" />
    <path
       style="fill:#ffffff;fill-opacity:1;stroke:none;display:inline"
       d="M 17.5,0 C 7.3729827,5.3908795 3.9533116,5.5903382 0,18.581587 l 0,3.034992 0,285.892571 0,2.94208 2.96875,0 394.0625,0 2.96875,0 0,-2.94209 0,-285.892566 0,-3.034992 C 395.3279,8.1060791 394.42397,4.6720955 382.5,0 z m 0,5.8841692 365,0 c 5.6488,0 11.59375,7.6694668 11.59375,12.6974178 l 0,3.034993 0,220.91453 -388.1875,0 0,-220.91453 0,-3.034993 C 5.90625,12.667923 12.671553,5.8841692 17.5,5.8841692 z M 5.90625,247.43001 l 388.1875,0 0,49.32836 0,9.44564 -388.1875,0 0,-9.44564 z"
       id="path3857"
       sodipodi:nodetypes="ccccccccccccccccccccccccccccc" />
    <path
       style="fill:#000000;fill-opacity:1;stroke:none;filter:url(#filter17984)"
       d="M 198.78125,6.90625 14,7.0625 11.90625,8.4375 C 10.754074,9.1999794 9.1591905,10.91592 8.375,12.25 L 6.96875,14.6875 6.84375,128.15625 6.6875,241.625 l 193.40625,0 193.40625,0 -0.125,-113.21875 -0.125,-113.21875 -1.125,-2.09375 c -1.41494,-2.64567 -4.91071,-5.665611 -6.96875,-6.03125 -0.86303,-0.1533274 -84.7413,-0.235559 -186.375,-0.15625 z m 119.1875,16.75 c 30.70568,0.02091 49.95148,0.09054 50.34375,0.15625 1.87089,0.31339 5.05748,2.888654 6.34375,5.15625 l 1.03125,1.8125 0.0937,97.03125 0.125,97.03125 -175.8125,0 -175.8125,0 0.125,-97.25 0.125,-97.25 1.28125,-2.0625 C 26.525377,27.137814 27.983851,25.653519 29.03125,25 l 1.90625,-1.1875 167.96875,-0.125 c 46.19566,-0.03399 88.35682,-0.05216 119.0625,-0.03125 z"
       id="path17933"
       transform="matrix(1.063268,0,0,1.1093834,-12.659535,-13.590916)"
       clip-path="url(#clipPath18022)" />
    <path
       style="fill:#000000;fill-opacity:1;stroke:none;display:inline"
       d="M 18.575674,-9.7e-4 C 8.178733,-9.7e-4 0,8.9570644 0,19.568622 l 0,2.998816 0,285.351252 0,2.90607 0,1.17479 1.180394,0 2.9509849,0 391.7044211,0 2.95098,0 1.21146,0 0,-1.17479 0,-2.90607 0,-285.351252 0,-2.998816 c 0,-10.611556 -8.2098,-19.569592 -18.60674,-19.569592 z m 0,2.3805035 362.815826,0 c 9.0214,0 16.21489,7.7849075 16.21489,17.1890895 l 0,2.998817 0,285.35125 0,1.70036 -1.77059,0 -391.7044219,0 -1.739528,0 0,-1.70036 0,-285.351251 0,-2.998816 c 0,-9.404185 7.1624109,-17.1890895 16.1838229,-17.1890895 z"
       id="path17916"
       sodipodi:nodetypes="cccccccccccccccccccccccccccccc" />
    <path
       style="fill:#ffffff;fill-opacity:1;stroke:none;display:inline"
       d="m 0,312.02761 0,59.5 0,2.9375 2.96875,0 394.0625,0 2.96875,0 0,-2.9375 0,-59.5 -5.90625,0 0,48.75 0,9.46875 -388.1875,0 0,-9.46875 0,-48.75 z"
       id="path17146" />
    <path
       style="fill:#000000;fill-opacity:1;stroke:none;display:inline"
       d="m 0,311.99956 0,59.90625 0,2.90625 0,1.1875 1.1875,0 2.9375,0 391.71875,0 2.9375,0 1.21875,0 0,-1.1875 0,-2.90625 0,-59.90625 -2.40625,0 0,59.90625 0,1.71875 -1.75,0 -391.71875,0 -1.71875,0 0,-1.71875 0,-59.90625 z"
       id="path17141" />
    <g
       id="g7100">
      <g
         id="g66182"
         style="opacity:0.81999966;display:inline">
        <path
           sodipodi:type="arc"
           style="fill:none;stroke:#ffffff;stroke-width:2.84267402;stroke-miterlimit:4;stroke-opacity:1;stroke-dasharray:none;display:inline"
           id="path17902"
           sodipodi:cx="-241.15201"
           sodipodi:cy="186.16504"
           sodipodi:rx="31.985884"
           sodipodi:ry="31.985884"
           d="m -209.16612,186.16504 a 31.985884,31.985884 0 1 1 -63.97177,0 31.985884,31.985884 0 1 1 63.97177,0 z"
           transform="matrix(0.70356296,0,0,0.70356296,477.89142,53.684453)" />
        <text
           xml:space="preserve"
           style="font-size:28.99683952px;font-style:normal;font-variant:normal;font-weight:normal;font-stretch:normal;fill:#ffffff;fill-opacity:1;stroke:none;font-family:Liberation Serif;-inkscape-font-specification:Liberation Serif"
           x="329.45099"
           y="208.21283"
           id="text17910"><tspan
             sodipodi:role="line"
             id="tspan17912"
             x="329.45099"
             y="208.21283"
             style="font-style:normal;font-variant:normal;font-weight:normal;font-stretch:normal;letter-spacing:5.04019976;font-family:Liberation Serif;-inkscape-font-specification:Liberation Serif">...</tspan></text>
      </g>
      <g
         style="fill:none;stroke:#ffffff;stroke-opacity:1;display:inline"
         transform="matrix(0.864817,0,0,0.864817,44.70907,28.005513)"
         id="g17939">
        <path
           sodipodi:nodetypes="ccc"
           id="path17904"
           d="m 305.14637,160.05797 0,21.38 -14.88703,0"
           style="fill:none;stroke:#ffffff;stroke-width:2.31262803;stroke-linecap:round;stroke-linejoin:miter;stroke-miterlimit:4;stroke-opacity:1;stroke-dasharray:none;display:inline" />
      </g>
    </g>
  </g>
</svg>
