<?xml version="1.0" encoding="UTF-8" standalone="no"?>
<!-- Created with Inkscape (http://www.inkscape.org/) -->

<svg
   xmlns:dc="http://purl.org/dc/elements/1.1/"
   xmlns:cc="http://creativecommons.org/ns#"
   xmlns:rdf="http://www.w3.org/1999/02/22-rdf-syntax-ns#"
   xmlns:svg="http://www.w3.org/2000/svg"
   xmlns="http://www.w3.org/2000/svg"
   xmlns:xlink="http://www.w3.org/1999/xlink"
   xmlns:sodipodi="http://sodipodi.sourceforge.net/DTD/sodipodi-0.dtd"
   xmlns:inkscape="http://www.inkscape.org/namespaces/inkscape"
   width="1920"
   height="1200"
   id="svg5550"
   sodipodi:version="0.32"
   inkscape:version="0.47 r22583"
   sodipodi:docname="aptosid-gaia-wide.svg"
   inkscape:output_extension="org.inkscape.output.svg.inkscape"
   version="1.0"
   inkscape:export-filename="/media/sda6/svn/svn.berlios.de-fullstory/aptosid-art-wallpaper-gaia/trunk/aptosid-gaia-wide.png"
   inkscape:export-xdpi="90"
   inkscape:export-ydpi="90">
  <defs
     id="defs5552">
    <linearGradient
       id="linearGradient3685">
      <stop
         style="stop-color:#b0a57d;stop-opacity:1;"
         offset="0"
         id="stop3687" />
      <stop
         style="stop-color:#b0a57d;stop-opacity:0;"
         offset="1"
         id="stop3689" />
    </linearGradient>
    <linearGradient
       id="linearGradient4815">
      <stop
         id="stop4817"
         offset="0"
         style="stop-color:#dabea5;stop-opacity:0.49803922;" />
      <stop
         style="stop-color:#ad976a;stop-opacity:1;"
         offset="0.5"
         id="stop4821" />
      <stop
         id="stop4819"
         offset="1"
         style="stop-color:#dad3a5;stop-opacity:0;" />
    </linearGradient>
    <linearGradient
       id="linearGradient3698">
      <stop
         style="stop-color:#f6f2e5;stop-opacity:0.2857143;"
         offset="0"
         id="stop3700" />
      <stop
         id="stop3706"
         offset="0.5"
         style="stop-color:#f2ecd8;stop-opacity:0.9285714;" />
      <stop
         style="stop-color:#e3d9bc;stop-opacity:0;"
         offset="1"
         id="stop3702" />
    </linearGradient>
    <linearGradient
       inkscape:collect="always"
       id="linearGradient3583">
      <stop
         style="stop-color:#000000;stop-opacity:1;"
         offset="0"
         id="stop3585" />
      <stop
         style="stop-color:#000000;stop-opacity:0;"
         offset="1"
         id="stop3587" />
    </linearGradient>
    <linearGradient
       id="linearGradient4794">
      <stop
         style="stop-color:#a7a189;stop-opacity:0.52040815;"
         offset="0"
         id="stop4796" />
      <stop
         style="stop-color:#a7a189;stop-opacity:0;"
         offset="1"
         id="stop4798" />
    </linearGradient>
    <linearGradient
       id="linearGradient3393">
      <stop
         id="stop3395"
         offset="0"
         style="stop-color:#ffffff;stop-opacity:0.63541669;" />
      <stop
         id="stop3401"
         offset="1"
         style="stop-color:#ffffff;stop-opacity:0;" />
    </linearGradient>
    <linearGradient
       id="linearGradient3403">
      <stop
         id="stop3405"
         offset="0"
         style="stop-color:#ffffff;stop-opacity:0.60416669;" />
      <stop
         id="stop3409"
         offset="0.75"
         style="stop-color:#ffffff;stop-opacity:0.24705882;" />
      <stop
         id="stop3411"
         offset="1"
         style="stop-color:#ffffff;stop-opacity:0;" />
    </linearGradient>
    <linearGradient
       id="linearGradient3599">
      <stop
         style="stop-color:#ddd8a9;stop-opacity:0.63917524;"
         offset="0"
         id="stop3601" />
      <stop
         id="stop3607"
         offset="0.5"
         style="stop-color:#e3dfba;stop-opacity:0.31764706;" />
      <stop
         style="stop-color:#e6e3c2;stop-opacity:0.15686275;"
         offset="0.75"
         id="stop3609" />
      <stop
         style="stop-color:#eae7cb;stop-opacity:0;"
         offset="1"
         id="stop3603" />
    </linearGradient>
    <linearGradient
       inkscape:collect="always"
       xlink:href="#linearGradient3599"
       id="linearGradient2830"
       gradientUnits="userSpaceOnUse"
       gradientTransform="translate(-428.42885,-77.152523)"
       x1="876.83252"
       y1="1.7035885"
       x2="880.16583"
       y2="213.37892" />
    <linearGradient
       inkscape:collect="always"
       xlink:href="#linearGradient3685"
       id="linearGradient2850"
       gradientUnits="userSpaceOnUse"
       gradientTransform="matrix(1.8152339,0,0,1.8152339,-757.96199,-242.21471)"
       x1="889.6875"
       y1="782.13934"
       x2="1589.3438"
       y2="782.13934" />
    <linearGradient
       inkscape:collect="always"
       xlink:href="#linearGradient3583"
       id="linearGradient2854"
       gradientUnits="userSpaceOnUse"
       gradientTransform="matrix(1.8152338,0,0,1.8152338,-757.96196,-242.2147)"
       x1="1302.9194"
       y1="747.50867"
       x2="-461.56662"
       y2="735.84198" />
    <linearGradient
       inkscape:collect="always"
       xlink:href="#linearGradient3698"
       id="linearGradient2856"
       gradientUnits="userSpaceOnUse"
       gradientTransform="matrix(1.8152339,0,0,1.8152339,-765.22292,-263.99752)"
       x1="-33.240143"
       y1="799.11353"
       x2="1797.3337"
       y2="586.16479" />
    <linearGradient
       inkscape:collect="always"
       xlink:href="#linearGradient4794"
       id="linearGradient2995"
       gradientUnits="userSpaceOnUse"
       gradientTransform="matrix(1.8152339,0,0,1.8152339,-612.7463,-241.23069)"
       x1="847.29211"
       y1="750.87299"
       x2="288.14627"
       y2="920.87299" />
    <linearGradient
       inkscape:collect="always"
       xlink:href="#linearGradient4815"
       id="linearGradient3004"
       gradientUnits="userSpaceOnUse"
       gradientTransform="matrix(1.8152339,0,0,1.8152339,-616.3768,-226.70882)"
       x1="240.47917"
       y1="735.7605"
       x2="1478.6979"
       y2="735.7605" />
    <radialGradient
       inkscape:collect="always"
       xlink:href="#linearGradient3393"
       id="radialGradient3071"
       gradientUnits="userSpaceOnUse"
       gradientTransform="matrix(1.2,0,0,0.7364584,-2.2005,155.91246)"
       cx="798.33331"
       cy="625.83337"
       fx="798.33331"
       fy="625.83337"
       r="800" />
    <linearGradient
       inkscape:collect="always"
       xlink:href="#linearGradient3403"
       id="linearGradient3074"
       gradientUnits="userSpaceOnUse"
       gradientTransform="matrix(1.2,0,0,1,-7.22803,-2.282254)"
       x1="914.17584"
       y1="615.87323"
       x2="1087.1691"
       y2="318.66489" />
    <linearGradient
       inkscape:collect="always"
       xlink:href="#linearGradient3599"
       id="linearGradient3080"
       gradientUnits="userSpaceOnUse"
       gradientTransform="translate(-428.42883,-1129.5146)"
       x1="876.83252"
       y1="1.7035885"
       x2="880.16583"
       y2="213.37892" />
  </defs>
  <sodipodi:namedview
     id="base"
     pagecolor="#ffffff"
     bordercolor="#000000"
     borderopacity="1"
     inkscape:pageopacity="0.0"
     inkscape:pageshadow="0"
     inkscape:zoom="0.35"
     inkscape:cx="757.30614"
     inkscape:cy="491.18317"
     inkscape:document-units="px"
     inkscape:current-layer="layer4"
     inkscape:window-width="1400"
     inkscape:window-height="992"
     inkscape:window-x="0"
     inkscape:window-y="0"
     width="1920px"
     height="1200px"
     borderlayer="true"
     showgrid="false"
     inkscape:window-maximized="0" />
  <metadata
     id="metadata5555">
    <rdf:RDF>
      <cc:Work
         rdf:about="">
        <dc:format>image/svg+xml</dc:format>
        <dc:type
           rdf:resource="http://purl.org/dc/dcmitype/StillImage" />
      </cc:Work>
    </rdf:RDF>
  </metadata>
  <g
     inkscape:label="background"
     inkscape:groupmode="layer"
     id="layer1"
     style="display:inline" />
  <g
     inkscape:groupmode="layer"
     id="layer2"
     inkscape:label="face"
     style="display:inline" />
  <g
     inkscape:groupmode="layer"
     id="layer3"
     inkscape:label="hair"
     style="display:inline" />
  <g
     inkscape:groupmode="layer"
     id="layer4"
     inkscape:label="logo"
     style="display:inline">
    <g
       style="display:inline"
       id="g5741"
       transform="matrix(1.217864,0,0,1.0142588,505.51931,68.354568)"
       inkscape:export-filename="/home/bernie/svn/svn.berlios.de-fullstory/aptosid-art-wallpaper-gaia/trunk/aptosid-gaia-wide.png"
       inkscape:export-xdpi="89.990852"
       inkscape:export-ydpi="89.990852">
      <rect
         y="-75.448914"
         x="-429.92969"
         height="1203.26"
         width="1603.9539"
         id="rect3347"
         style="opacity:0.98999999;fill:#eae7cb;fill-opacity:1;fill-rule:evenodd;stroke:#000000;stroke-width:1px;stroke-linecap:butt;stroke-linejoin:miter;stroke-opacity:0.32222224;display:inline" />
      <rect
         transform="scale(1,-1)"
         style="opacity:0.78840906;fill:url(#linearGradient3080);fill-opacity:1;fill-rule:evenodd;stroke:none;stroke-width:1px;stroke-linecap:butt;stroke-linejoin:miter;stroke-opacity:1;display:inline"
         id="rect3618"
         width="1603.9539"
         height="1203.26"
         x="-429.92969"
         y="-1127.811" />
      <rect
         y="-75.448914"
         x="-429.92969"
         height="1203.26"
         width="1603.9539"
         id="rect2588"
         style="opacity:0.84659095;fill:url(#linearGradient2830);fill-opacity:1;fill-rule:evenodd;stroke:none;stroke-width:1px;stroke-linecap:butt;stroke-linejoin:miter;stroke-opacity:1;display:inline" />
    </g>
    <path
       style="opacity:0.63855423;fill:url(#linearGradient3074);fill-opacity:1;stroke:none;display:inline"
       d="M 1914.7719,-2.282254 L 528.77197,-3.948914 C 487.6789,307.76682 1858.0416,421.49265 1918.7719,1016.051 L 1914.7719,-2.282254 z"
       id="rect3989"
       sodipodi:nodetypes="cccc" />
    <path
       style="opacity:0.63855423;fill:url(#radialGradient3071);fill-opacity:1;fill-rule:evenodd;stroke:none;stroke-width:1px;stroke-linecap:butt;stroke-linejoin:miter;stroke-opacity:1;display:inline"
       d="M -4.20049,1189.3125 C 598.46617,1189.3125 1657.133,882.64594 1915.7996,27.645997 L 1915.7996,1205.9792 L -4.20049,1205.9792 L -4.20049,1189.3125 z"
       id="rect3972"
       sodipodi:nodetypes="ccccc" />
    <path
       style="fill:#dcd2ae;fill-opacity:1;stroke:none;stroke-opacity:1;display:inline"
       d="M 272.2628,-66.63439 C 263.43691,-66.34185 244.06142,-59.27678 237.35655,-53.32189 C 231.82033,-51.10665 226.32217,-48.8924 220.8878,-46.69689 C 202.94957,-39.44978 185.61454,-32.30956 168.7628,-25.25939 C 175.47984,-29.6699 180.51286,-33.97877 180.5128,-35.50939 C 180.5128,-36.91439 177.80768,-37.44379 173.73155,-37.22814 C 166.93801,-36.86873 156.14294,-34.54022 146.91905,-30.91564 C 137.32211,-27.14443 137.19543,-26.61593 143.3253,-20.22814 C 145.08066,-18.3989 146.39617,-17.12254 147.73155,-16.41564 C -214.89105,137.77533 -320.14411,250.13452 -361.2372,470.64686 C -360.41005,468.43366 -359.58998,466.21593 -358.7372,464.02186 C -278.48648,257.55045 -84.2086,135.6898 323.35655,80.55311 C 347.75705,75.65415 422.92901,51.93986 439.3253,43.99061 L 452.54405,37.58436 L 464.2003,51.24061 C 470.56523,58.72627 478.89315,71.06038 482.73155,78.70936 C 486.56995,86.35836 498.00848,105.82497 508.1378,122.02186 C 541.60958,175.54422 517.02267,132.64749 538.2003,177.24061 C 541.72938,184.67155 539.40525,209.73528 527.8878,243.55311 L 459.10655,306.80311 C 447.80229,296.29047 426.078,283.67578 391.73155,265.64686 C 355.79304,246.7822 340.27366,240.55835 324.60655,238.99061 C 308.85981,237.4148 280.46168,238.82965 263.35655,241.17811 C 257.88126,240.918 252.37275,240.08968 246.9503,239.24061 C 240.64482,237.66796 234.67153,238.59518 228.41905,239.33436 C 222.47172,241.20289 216.37772,242.72021 210.3253,244.17811 L 189.0753,260.70936 C 192.0982,259.96133 195.14774,259.24799 198.16905,258.49061 C 201.19036,257.73323 204.19371,256.95544 207.16905,256.02186 C 213.19737,255.18589 218.89242,253.10327 225.1378,254.95936 C 231.81731,256.02238 238.47302,257.287 245.2628,257.14686 C 251.58231,257.67113 257.85933,258.04609 264.0128,259.80311 C 265.24205,259.98641 266.52969,260.1846 267.7628,260.36561 C 247.65963,261.14587 253.47912,266.54395 286.0753,274.27186 C 315.66205,281.2862 352.84702,297.44017 368.10655,308.64686 C 367.08686,308.6836 366.10093,308.72164 365.0753,308.74061 C 375.29948,315.09771 362.00868,301.45241 391.9503,330.24061 C 392.71443,330.12101 393.47686,329.92926 394.23155,329.77186 C 400.04437,331.88535 407.09548,335.22536 417.04405,340.45936 C 428.47111,346.4712 435.61563,350.05679 441.0753,351.89686 C 442.63521,352.42259 444.07326,352.79519 445.41905,353.05311 C 450.12931,353.95581 453.89352,353.32143 459.3253,351.83436 C 470.46117,348.78584 473.33167,345.94546 475.3878,336.42811 C 476.06799,333.27977 476.39978,330.84906 476.2628,328.74061 C 476.2354,328.31892 476.20559,327.92064 476.1378,327.52186 C 475.45993,323.53407 472.67321,320.55046 466.54405,315.42811 C 464.04636,313.3406 462.10441,311.39693 460.4503,309.55311 C 502.33484,289.4826 535.81011,262.97226 570.7628,233.61561 C 579.08751,247.29851 578.30037,243.86569 585.98155,257.27186 C 588.9371,260.27686 613.26141,334.19938 616.2003,347.80311 C 617.14686,352.18515 617.31375,355.29905 616.4503,357.95936 C 616.44506,357.96589 616.45554,357.98409 616.4503,357.99061 C 612.24762,363.21991 606.49649,367.06584 603.35655,367.08436 C 519.37214,367.59258 593.752,414.31097 574.0753,412.58436 C 559.53964,411.30887 551.47595,421.39032 547.3253,433.49061 C 545.04585,430.97772 541.02045,428.49787 534.48155,421.24061 C 531.54054,426.40471 517.17965,405.83208 511.79405,403.45936 C 505.05603,403.45935 535.75041,501.02182 556.4503,555.17811 C 557.07058,556.80093 557.7243,558.51229 558.3253,560.05311 C 558.94408,561.63953 559.54221,563.21805 560.1378,564.70936 C 560.77888,566.32029 561.43117,567.89495 562.0753,569.45936 C 572.61649,595.06051 581.27669,608.32086 609.0753,640.92811 C 634.87438,671.18967 643.26716,683.52755 643.3253,691.49061 C 643.43778,706.86486 625.79657,737.59523 612.91905,744.36561 C 599.72532,751.30203 571.10655,775.11015 571.10655,779.17811 C 571.10658,780.77223 573.48649,782.14696 576.41905,782.14686 C 580.83751,782.14685 581.42818,787.66969 580.04405,814.33436 C 579.12545,832.02993 578.34985,847.866 578.3253,849.6156 C 578.31914,850.0531 577.79966,850.3856 576.8253,850.6469 C 576.58171,850.7122 576.30868,850.7805 576.0128,850.8344 C 572.75812,851.4271 566.42538,851.3419 559.23155,850.4281 C 542.7368,848.3329 533.47265,850.2113 489.60655,864.6781 C 461.77863,873.8556 432.88427,881.4201 425.29405,881.4281 C 417.70383,881.4361 408.36046,883.1471 404.5128,885.2406 C 399.35119,888.0491 397.1219,893.3121 397.66905,899.1781 C 397.73744,899.9114 397.85823,900.6485 398.0128,901.3969 C 399.09477,906.6356 402.27763,912.1491 407.4503,916.7094 C 423.03755,930.4514 490.91456,983.9492 512.4503,999.4594 C 520.5937,1005.3242 520.62082,1005.5514 514.2628,1017.8344 C 510.72096,1024.6773 506.22727,1031.4876 504.29405,1032.8969 C 502.05024,1034.5329 502.37935,1041.4541 505.2003,1052.1782 C 512.25936,1079.0116 510.72411,1113.366 501.2628,1139.8656 C 496.36904,1153.5727 490.92506,1164.5742 483.98155,1173.9906 C 483.44743,1174.715 482.9089,1175.441 482.35655,1176.1469 C 474.62359,1186.0298 465.04075,1194.1596 452.4503,1201.8969 C 451.55098,1202.4496 450.6622,1203.004 449.73155,1203.5532 C 446.93961,1205.2007 443.97741,1206.8252 440.8878,1208.4594 C 415.22987,1222.0307 408.84205,1223.6297 362.7003,1228.9282 C 342.12027,1231.2913 323.19548,1232.6184 306.5753,1232.8969 C 304.91328,1232.9248 303.25299,1232.9214 301.6378,1232.9282 C 293.56185,1232.9619 286.10075,1232.7379 279.29405,1232.2406 C 245.03265,1229.7378 227.99647,1232.2409 185.91905,1245.5844 C 173.98396,1249.3692 144.69558,1255.0051 120.8253,1258.2094 C 5.73581,1273.6588 -28.56657,1282.6886 -82.7372,1311.8656 C -101.18613,1321.8026 -116.63267,1329.9725 -117.08095,1329.9282 C -117.52927,1329.8838 -125.02495,1326.5579 -133.70595,1322.5532 C -142.38689,1318.5485 -158.65128,1312.8955 -169.8622,1309.9282 C -180.23493,1307.1826 -204.61003,1297.4312 -231.95595,1285.5844 C -231.96459,1285.5807 -231.97856,1285.5881 -231.9872,1285.5844 C -243.71155,1280.5049 -255.97079,1275.059 -267.9247,1269.5844 C -271.90934,1267.7595 -275.85547,1265.9276 -279.7372,1264.1156 C -299.14585,1255.0557 -316.87307,1246.3185 -328.89345,1239.7094 C -390.80209,1205.6704 -404.69797,1192.6663 -393.08095,1179.6156 C -389.74522,1175.8683 -386.70719,1168.0788 -386.2997,1162.2719 C -385.89213,1156.4649 -383.94919,1150.4596 -382.01845,1149.0532 C -379.78911,1147.4294 -380.12114,1141.9979 -382.9247,1134.1156 C -390.66904,1063.5619 -397.00925,996.9428 -401.2372,934.1156 C -405.25242,989.5219 -410.08714,1048.8831 -416.3622,1112.8656 C -416.3922,1120.0807 -418.7145,1132.5888 -421.581,1140.6782 C -433.0413,1173.0194 -427.8613,1203.8177 -407.6747,1223.1782 C -390.55336,1239.5989 -354.47272,1267.522 -350.3622,1267.5219 C -348.83395,1267.5218 -340.69774,1272.887 -332.1747,1279.4594 C -315.79226,1292.093 -306.52405,1296.5818 -237.2372,1326.0219 C -119.75505,1344.9172 -76.52906,1344.2866 -48.70595,1344.5219 C -44.88623,1340.6385 -41.61359,1339.7918 -14.3622,1335.7719 C 40.22843,1324.7481 116.28272,1282.1002 177.8878,1276.1469 C 219.04429,1259.557 254.34098,1253.2342 307.0753,1253.0532 C 415.15639,1252.6826 447.12066,1245.2446 488.48155,1210.9906 C 506.34367,1196.1975 510.27158,1190.4986 519.79405,1165.1469 C 529.0039,1140.6256 531.05205,1128.7977 533.1378,1088.7406 C 535.54901,1042.4363 535.97399,1040.5467 551.66905,1007.4906 C 560.5021,988.8873 567.94077,968.1978 568.16905,961.5219 C 568.32082,957.0761 568.37946,953.2992 568.35655,950.0844 C 568.34891,949.0127 568.35565,948.0015 568.3253,947.0531 C 567.96105,935.6718 565.88393,932.9282 560.7003,932.9281 C 557.02064,932.9281 546.85924,927.5988 538.10655,921.0844 C 530.33742,915.3018 516.16613,908.4859 504.04405,904.6156 C 503.17819,904.3392 502.32345,904.0794 501.48155,903.8344 C 500.63965,903.5893 499.79332,903.3576 498.98155,903.1469 C 495.5683,902.2606 492.6168,901.4729 490.1378,900.7094 C 488.8983,900.3276 487.79069,899.9464 486.79405,899.5844 C 484.30245,898.6793 482.57499,897.8205 481.66905,896.9594 C 481.48786,896.7871 481.34699,896.6326 481.23155,896.4594 C 478.92282,892.9954 489.82979,889.229 517.0753,881.5531 C 547.533,872.9721 553.22263,872.5602 572.0128,877.8656 C 589.06694,882.6807 589.99342,892.6839 574.73155,907.1781 C 567.35298,914.1858 563.62784,919.912 564.04405,923.0219 C 564.06387,923.1699 564.09918,923.3233 564.1378,923.4594 C 564.524,924.8201 565.84653,925.5531 568.16905,925.5531 C 569.19535,925.5531 570.40544,925.1771 571.73155,924.5219 C 571.99677,924.3908 572.27093,924.2685 572.54405,924.1156 C 574.1828,923.198 575.94887,921.8894 577.7003,920.3656 C 578.28411,919.8577 578.87579,919.3241 579.4503,918.7719 C 584.62093,913.8017 589.2003,907.2854 589.2003,903.3969 C 589.20033,900.4405 591.8333,895.5533 595.3253,891.8031 C 595.82416,891.2674 596.35988,890.7847 596.8878,890.3031 C 604.09333,883.7295 604.41946,880.9194 602.2003,845.5844 C 599.34163,800.07467 600.77563,796.33194 636.2003,759.74061 C 640.30906,755.49653 644.01138,751.47454 647.29405,747.67811 C 648.11472,746.729 648.9013,745.81648 649.66905,744.89686 C 658.11431,734.78104 663.3439,726.44404 665.0128,720.33436 C 673.94643,687.63347 667.5115,668.15912 636.7628,634.39686 C 632.11539,628.56439 627.88183,623.11946 623.98155,617.99061 C 606.47627,592.56302 591.64941,559.88589 580.8878,546.42811 C 580.55379,545.19801 580.32922,544.2205 580.1378,543.45936 C 580.01829,543.19171 579.91293,542.94226 579.79405,542.67811 C 580.68696,542.73092 581.49638,542.95756 582.1378,543.45936 C 579.39743,535.0235 577.19041,527.41754 575.4503,520.42811 C 582.42314,518.80998 591.02315,514.80945 601.3878,507.08436 C 587.24854,486.7873 575.2884,474.25589 573.10655,464.89686 C 573.10429,464.88717 573.10879,464.87529 573.10655,464.86561 C 574.06256,461.15599 575.26333,457.5016 576.7003,453.83436 C 576.77365,453.7668 576.84351,453.71423 576.91905,453.64686 C 588.70209,439.04498 599.27226,426.53335 611.91905,412.11561 C 612.78528,411.59034 613.6128,411.12099 614.3878,410.77186 C 613.90387,410.91296 613.42471,410.98352 612.9503,410.95936 C 618.1118,405.08542 623.58308,398.90913 629.7003,392.08436 C 636.77199,380.9986 638.51119,373.31614 637.4503,365.92811 C 648.06062,352.65947 641.73293,333.78125 611.79405,254.52186 C 609.19815,240.24396 597.28605,221.67888 589.41905,207.99061 C 589.84127,207.05906 590.31916,205.81469 590.3253,205.80311 L 588.6378,206.58436 C 585.38568,201.00675 582.43483,196.43463 580.2628,193.83436 C 578.99587,192.31761 577.56759,189.43332 576.29405,185.99061 C 575.97566,185.12993 575.65059,184.21788 575.35655,183.30311 C 574.47444,180.5588 573.74748,177.65078 573.2628,174.89686 C 570.71778,160.43498 538.87433,94.49167 522.9503,70.67811 C 478.487,4.18502 410.58141,-57.24129 389.1378,-50.32189 C 388.667,-50.16997 388.11842,-50.06649 387.5128,-50.00939 C 387.20999,-49.98085 386.90688,-49.98407 386.5753,-49.97814 C 382.26484,-49.90108 375.66344,-51.68341 370.3878,-54.57189 C 355.52008,-62.71217 348.44479,-60.02746 341.66905,-43.54064 C 339.2337,-37.61482 337.15659,-33.68933 335.8253,-31.88439 C 335.60342,-31.58357 335.41076,-31.3466 335.23155,-31.16564 C 335.14194,-31.07517 335.05985,-30.97586 334.98155,-30.91564 C 334.90325,-30.85542 334.82936,-30.82042 334.7628,-30.79064 C 333.69789,-30.31429 334.1711,-33.73993 337.04405,-41.47814 C 340.4102,-50.54488 340.14247,-53.61248 335.35655,-58.47814 C 328.60283,-65.34448 315.98789,-63.10758 271.2628,-47.00939 C 265.33023,-44.17038 258.18605,-42.07093 252.3253,-41.10314 C 250.56708,-40.81281 248.94454,-40.61928 247.48155,-40.54064 C 238.21595,-40.04261 236.20946,-43.98352 258.3878,-54.91564 C 270.12095,-60.37678 277.74144,-65.59685 275.3253,-66.41564 C 274.56077,-66.67476 273.52366,-66.67619 272.2628,-66.63439 z M -401.2372,934.1156 C -386.77133,734.50031 -382.99009,587.37649 -361.2372,470.64686 C -407.37862,594.10651 -413.8057,747.34828 -401.2372,934.1156 z M 174.7628,-51.72814 C 173.58362,-51.74342 172.29218,-51.71955 170.8878,-51.69689 C 167.67777,-51.64508 163.87153,-51.51151 159.48155,-51.25939 C 143.92108,-50.36572 133.02582,-48.63015 126.85655,-46.07189 C 126.47097,-45.912 126.08009,-45.73815 125.73155,-45.57189 C 120.50344,-43.07808 119.45739,-39.87422 122.6378,-35.97814 C 123.00859,-35.52392 123.43024,-35.115 123.91905,-34.79064 C 124.16346,-34.62846 124.41844,-34.4823 124.7003,-34.35314 C 128.36449,-32.67413 135.40646,-33.82485 151.66905,-38.16564 C 184.79423,-47.00735 192.45057,-51.49902 174.7628,-51.72814 z M 113.60655,-47.54064 C 113.46769,-47.52496 113.2992,-47.48741 113.1378,-47.44689 C 111.20091,-46.96064 107.67473,-44.74909 104.10655,-41.72814 C 99.15606,-37.5367 97.52746,-34.32945 100.2628,-34.25939 C 105.6828,-34.12066 117.11845,-44.6722 114.48155,-47.35314 C 114.30351,-47.53416 114.02315,-47.58769 113.60655,-47.54064 z M 362.10655,-28.00939 C 363.28087,-28.01753 363.82648,-26.89639 364.2628,-24.82189 C 327.79097,42.87902 364.53106,-24.58912 353.6378,-22.29064 C 357.53601,-25.72905 360.02102,-27.53827 361.5753,-27.91564 C 361.76958,-27.96282 361.93879,-28.00823 362.10655,-28.00939 z M 377.35655,-22.44689 C 377.54335,-22.46684 377.72496,-22.39473 377.9503,-22.16564 C 379.15213,-20.9438 379.33887,-17.7262 378.29405,-15.07189 C 377.13958,-12.13864 376.2176,-13.06959 376.04405,-17.35314 C 375.9263,-20.26024 376.42907,-22.13859 377.16905,-22.41564 C 377.23073,-22.43873 377.29428,-22.44024 377.35655,-22.44689 z M 397.35655,-13.75939 C 399.11323,-13.91525 405.20502,-9.97176 411.5128,-4.60314 C 426.75228,8.36704 425.05043,13.6723 401.0128,28.70936 C 390.89477,35.03882 383.46282,41.11075 384.5128,42.17811 C 384.98633,42.65953 385.88387,42.82381 387.10655,42.77186 C 387.41222,42.75887 387.73062,42.75197 388.0753,42.70936 C 389.79872,42.4963 391.9858,41.9266 394.4503,41.08436 C 395.4361,40.74746 396.4834,40.34488 397.54405,39.92811 C 408.15052,35.76038 421.85182,27.92345 426.2003,22.30311 C 434.49075,11.58772 445.77988,12.04338 447.35655,23.20936 C 448.30457,29.92394 443.54165,32.57247 408.5753,44.36561 C 366.42679,58.58105 351.63442,61.07601 356.35655,53.20936 C 357.87392,50.68143 366.25549,39.76321 374.8878,28.95936 C 382.44106,19.50593 389.4682,7.79523 391.8878,1.05311 C 392.06063,0.57153 392.23224,0.13784 392.35655,-0.29064 C 392.48086,-0.71913 392.56499,-1.13924 392.6378,-1.50939 C 393.8029,-7.43192 395.80922,-12.90252 397.04405,-13.66564 C 397.12123,-13.71334 397.23944,-13.749 397.35655,-13.75939 z M 374.35655,-7.04064 C 374.59729,-7.02251 374.80405,-6.8779 375.0128,-6.66564 C 376.12639,-5.53353 375.1096,-2.59738 372.6378,-0.10314 C 369.06585,3.50128 368.64382,3.04352 370.60655,-2.19689 C 371.62517,-4.91666 373.00437,-6.74308 374.10655,-7.00939 C 374.19842,-7.03159 374.2763,-7.04669 374.35655,-7.04064 z M 293.85655,337.36561 C 288.52636,337.3387 282.19081,337.62813 274.6378,338.27186 C 253.52378,340.07154 216.66913,352.81285 216.66905,358.27186 C 216.66905,358.89619 221.91633,358.8901 229.85655,358.36561 C 231.4446,358.26071 233.13578,358.13475 234.91905,357.99061 C 238.48559,357.70234 242.41013,357.32866 246.5128,356.89686 C 252.66684,356.24915 259.64962,355.68648 266.5753,355.24061 C 268.88386,355.09199 271.19208,354.95367 273.4503,354.83436 C 282.48317,354.35714 290.85081,354.11094 296.35655,354.24061 C 313.82419,354.65183 316.35643,353.84597 316.35655,347.70936 C 316.35656,340.69107 309.84706,337.44636 293.85655,337.36561 z M 210.5753,392.39686 C 203.43564,392.38347 198.9637,396.03694 199.5753,399.86561 C 199.62235,400.16012 199.71722,400.47698 199.8253,400.77186 C 200.04145,401.36162 200.3833,401.94979 200.85655,402.52186 C 194.98664,401.294 188.94326,400.89831 182.98155,400.45936 L 161.29405,416.42811 C 167.74623,416.79379 174.2654,416.92311 180.60655,418.36561 C 185.26315,419.13679 189.86642,419.81343 194.5128,420.67811 C 197.85353,423.08437 200.78176,425.56847 202.3253,427.45936 C 205.10614,430.86591 219.484,441.98642 234.29405,452.14686 C 258.07127,468.45906 264.44963,471.02339 288.66905,474.08436 C 303.75474,475.99093 326.70818,480.59482 339.6378,484.33436 C 352.56742,488.07373 363.45745,491.32672 363.8253,491.45936 C 364.19315,491.59206 368.80192,489.94726 374.10655,487.89686 C 380.34351,485.48604 382.97409,482.26068 381.66905,478.80311 C 380.55907,475.86246 381.36907,472.50917 383.3878,471.24061 C 383.52174,471.15645 383.642,471.0461 383.7628,470.92811 C 383.8836,470.81012 383.99903,470.67199 384.10655,470.52186 C 385.61187,468.42001 385.81015,463.26029 384.5128,457.33436 C 383.11602,450.95426 381.78674,441.57784 381.5753,436.52186 C 381.36378,431.46599 379.59587,427.94637 377.60655,428.70936 C 375.61746,429.4724 371.71245,430.96343 368.91905,432.05311 C 366.12555,433.14293 356.14188,429.641 346.85655,424.33436 C 335.36941,417.76945 312.16559,411.15431 274.2003,403.55311 C 243.51176,397.40889 214.93364,392.40504 210.5753,392.39686 z M 344.48155,452.39686 C 346.91214,454.19613 345.30515,454.7633 341.23155,454.55311 L 344.48155,452.39686 z M 549.16905,727.02186 C 521.8572,727.02183 508.23179,730.90922 496.16905,742.39686 C 487.18224,750.95529 488.25926,756.42821 499.10655,756.42811 C 503.22847,756.42808 505.40996,758.01376 504.0753,760.20936 C 502.787,762.3285 502.68717,766.64277 503.85655,769.74061 C 504.9466,772.62859 506.87529,773.90073 510.7003,773.80311 C 511.39576,773.78536 512.15522,773.72201 512.98155,773.61561 C 514.22105,773.45602 515.63132,773.21597 517.2003,772.86561 C 534.46035,769.01152 567.76155,752.55575 565.5753,748.95936 C 564.5036,747.19664 566.92795,743.98886 570.8878,741.83436 C 575.13778,739.52197 577.16652,735.61917 575.9503,732.39686 C 574.40634,728.30663 567.67064,727.02196 549.16905,727.02186 z M 550.5753,793.86561 C 550.31177,793.88646 550.01525,793.93364 549.73155,793.99061 C 545.15745,794.90862 544.23776,798.68834 545.23155,811.58436 C 545.92992,820.64148 548.19204,830.22066 550.29405,832.83436 C 557.08333,841.2767 560.68168,831.66375 558.10655,811.92811 C 556.41192,798.94022 554.74813,794.25341 551.3253,793.89686 C 551.08081,793.87139 550.83883,793.84476 550.5753,793.86561 z M 462.8253,896.6156 C 464.08176,896.563 465.58246,896.772 466.8878,897.3031 C 469.77282,898.4769 468.85126,899.3142 464.6378,899.4906 C 460.8253,899.6504 458.68589,898.7436 459.8878,897.5219 C 460.48869,896.911 461.56895,896.6683 462.8253,896.6156 z M 448.0128,900.0531 C 448.26044,900.04 448.49579,900.0459 448.7003,900.0531 C 449.24581,900.0722 449.66432,900.2244 449.8253,900.3969 C 452.80013,903.585 441.39366,909.754 437.29405,907.1781 C 433.94339,905.0728 434.89304,903.5418 440.66905,901.6781 C 443.55069,900.7483 446.27931,900.1446 448.0128,900.0531 z M 479.2628,928.0531 C 488.3662,927.9709 509.9397,937.3002 516.29405,945.0844 C 520.29656,949.9875 519.84241,951.5734 513.91905,955.3344 C 509.63333,958.0554 507.66754,962.4472 508.73155,966.5844 C 509.62001,970.039 509.53569,972.0934 508.2003,972.7094 C 507.97773,972.8121 507.7131,972.8744 507.41905,972.8969 C 504.77256,973.099 499.16796,970.0346 489.60655,963.5844 C 461.46435,944.5989 452.20738,932.9282 465.41905,932.9281 C 468.99966,932.9281 473.64125,931.2089 475.7003,929.1156 C 476.25221,928.5543 477.19931,928.1878 478.41905,928.0844 C 478.68585,928.0617 478.96914,928.0558 479.2628,928.0531 z M 531.3253,940.2719 C 533.31452,940.2718 534.9504,940.9739 534.9503,941.8656 C 534.9503,942.7574 533.31462,944.5534 531.3253,945.8031 C 529.33617,947.0531 527.70039,946.3198 527.7003,944.1781 C 527.7003,942.0364 529.33617,940.272 531.3253,940.2719 z M 557.54405,950.3969 C 558.58119,950.5068 559.24592,951.3522 559.5753,952.8969 C 560.19841,955.8194 558.9716,961.5353 556.85655,965.5531 C 555.27055,968.5664 553.91045,973.1124 553.3253,976.9594 C 553.22778,977.6006 553.15794,978.2111 553.10655,978.8032 C 553.05516,979.3952 553.01281,979.9685 553.0128,980.4906 C 553.0128,984.5904 552.36424,986.8924 550.73155,987.5532 C 550.52746,987.6357 550.31019,987.7093 550.0753,987.7406 C 548.43109,987.9603 546.02167,986.9203 542.6378,984.7406 C 538.47565,982.0597 538.47566,981.3513 542.6378,979.9282 C 543.40409,979.6662 544.0057,979.3758 544.48155,979.0844 C 546.54354,977.8215 545.87653,976.0573 542.29405,971.6469 C 537.48612,965.7272 537.98801,964.2743 547.7003,956.3656 C 551.60428,953.1867 554.22423,951.3081 556.0128,950.6469 C 556.3109,950.5366 556.57044,950.4713 556.8253,950.4281 C 557.08016,950.3849 557.32799,950.3739 557.54405,950.3969 z M 527.91905,977.4906 C 529.17549,977.4379 530.70746,977.6471 532.0128,978.1782 C 534.89784,979.3519 533.94491,980.1892 529.73155,980.3656 C 525.91916,980.5253 523.77974,979.6499 524.98155,978.4282 C 525.58245,977.8174 526.6626,977.5432 527.91905,977.4906 z M 97.60655,1283.6156 C 98.60264,1283.5933 99.50314,1283.6022 100.35655,1283.6156 C 104.90806,1283.6873 107.32996,1284.3118 106.5753,1285.5532 C 105.54985,1287.2402 96.25333,1289.7035 86.0128,1291.0844 C 83.78672,1291.5223 81.56408,1291.9791 79.35655,1292.4594 C 77.14902,1292.9397 74.95261,1293.4378 72.7628,1293.9594 C 42.10548,1301.2621 13.16564,1312.5557 -15.2372,1326.4594 C -18.79831,1327.4977 -21.11041,1328.0942 -22.4247,1328.0844 C -22.64375,1328.0828 -22.85343,1328.0576 -23.01845,1328.0219 C -24.50361,1327.7008 -23.84626,1325.9847 -21.9247,1322.3344 C -18.07515,1315.0215 -20.53758,1313.5239 -32.14345,1318.0219 C -33.11061,1318.3967 -34.14143,1318.8135 -35.2372,1319.2719 C -37.42875,1320.1887 -39.88653,1321.2694 -42.6122,1322.5219 C -43.97504,1323.1482 -45.39217,1323.8114 -46.89345,1324.5219 C -49.68879,1325.8449 -52.34484,1327.0338 -54.83095,1328.0844 C -56.074,1328.6097 -57.27188,1329.0979 -58.4247,1329.5532 C -72.25849,1335.0163 -79.2798,1335.3881 -72.0497,1329.5532 C -71.44719,1329.0669 -70.76077,1328.5325 -69.95595,1327.9594 C -57.37709,1319.002 -31.217,1308.1022 -14.1122,1304.6469 C -5.52901,1302.9129 14.50566,1298.0834 30.41905,1293.9594 C 52.44974,1288.2502 82.66528,1283.9516 97.60655,1283.6156 z"
       id="path5210" />
    <g
       id="g5095"
       style="opacity:0.51136361;display:inline"
       transform="translate(186.03191,-61.26571)">
      <path
         sodipodi:nodetypes="ccccscs"
         id="path5349"
         d="M 1386.8446,875.46443 C 1388.8585,1020.5754 1290.032,1217.3335 851.35043,1429.1108 C 324.93265,1666.6039 236.52495,1698.1914 -169.34041,1480.1642 C -221.62395,1341.9483 -429.86795,1227.767 361.23735,1314.1459 C 563.93859,1401.8823 1179.7836,1238.4804 1317.2604,878.48973 C 1355.358,778.72963 1352.9636,683.36297 1305.1588,515.44313 C 1367.5303,694.33132 1384.5844,712.60502 1386.8446,875.46443 z"
         style="fill:#c7c1a8;fill-opacity:1;fill-rule:evenodd;stroke:#000000;stroke-width:1.81523395px;stroke-linecap:butt;stroke-linejoin:miter;stroke-opacity:0.26060606;display:inline" />
      <path
         sodipodi:nodetypes="cccccsc"
         id="path4795"
         d="M 1306.2812,520.58334 C 1307.7358,525.69254 1309.1294,530.73124 1310.5,535.70834 C 1361.6926,679.35324 1376.4468,706.85584 1378.5312,857.05214 C 1380.5452,1002.163 1281.744,1198.931 843.0625,1410.7083 L 852.4688,1434.2708 C 1291.1502,1222.4935 1389.9827,1025.7255 1387.9688,880.61454 C 1385.7086,717.75504 1368.6528,699.47144 1306.2812,520.58334 z"
         style="fill:#dbd3b3;fill-opacity:1;fill-rule:evenodd;stroke:none;stroke-width:1.81523395px;stroke-linecap:butt;stroke-linejoin:miter;stroke-opacity:0.26060606;display:inline" />
    </g>
    <path
       style="fill:#e3d9bc;fill-opacity:1;fill-rule:evenodd;stroke:none;stroke-width:1px;stroke-linecap:butt;stroke-linejoin:miter;stroke-opacity:1;display:inline"
       d="M -183.59541,272.24204 C -183.59541,272.24204 -10.31426,103.23941 289.18406,107.51797 C 588.68241,111.79651 500.97213,261.54567 500.97213,261.54567 C 500.97213,261.54567 488.13649,289.35623 451.76888,312.88823 C 451.76888,312.88823 732.01367,214.48165 417.54047,-33.6741 C -43.40637,-271.21189 -183.59541,272.24204 -183.59541,272.24204 z"
       id="path3547"
       sodipodi:nodetypes="cscccc" />
    <path
       style="fill:#c1b294;fill-opacity:1;fill-rule:evenodd;stroke:none;stroke-width:1px;stroke-linecap:butt;stroke-linejoin:miter;stroke-opacity:1;display:inline"
       d="M 1.65363,42.342876 C -75.51655,43.443056 -260.7233,65.619466 -341.08522,245.252 C -443.9485,475.18163 -368.31373,726.289 -368.31373,726.289 C -368.31373,726.289 -362.26294,944.11709 -195.8665,1161.9451 C -29.47006,1379.7732 318.48766,1322.2719 318.48756,1322.2719 C 318.48756,1322.2719 759.83526,1178.5659 950.43476,1220.9213 C 1141.0344,1263.2768 1135.1728,1211.5805 1340.8993,1311.4183 C 1558.7262,1417.1285 2042.4755,1525.7372 2066.5956,1531.1184 C 2024.1786,1521.3309 1684.8572,1439.5959 1534.6754,1295.0812 C 1374.3298,1140.7863 1103.1896,973.04509 751.11832,983.42819 C 705.56326,984.75469 578.32081,1031.6159 478.83325,1086.3293 C 60.07901,1316.624 -189.81573,898.71729 -232.17119,711.14314 C -316.88211,469.11195 -264.44829,309.29572 -264.44831,309.29572 C -264.44831,309.29572 -288.13483,411.5246 -260.59094,526.61326 C -234.40058,636.04636 -168.638,711.1431 -168.638,711.14314 C -168.638,711.14314 -205.75966,617.17236 -220.03181,520.54357 C -228.32821,464.37328 -232.31902,371.7597 -180.38029,278.70146 C -166.56495,253.94862 -20.47757,127.82666 218.12029,110.81124 C 207.63497,110.05915 196.78824,109.43978 185.5028,108.93928 C 170.42529,108.27064 155.92976,108.03269 141.99392,108.20184 C 32.15258,109.53497 -58.05356,136.70979 -121.27174,169.0689 C -83.23197,124.0236 -32.09704,80.945736 36.36998,43.420676 C 36.36998,43.420676 23.26129,42.034836 1.65363,42.342876 z"
       id="path5343" />
    <g
       id="g2976"
       transform="translate(-419.3862,-90.56012)"
       style="opacity:0.47159089;display:inline">
      <path
         sodipodi:nodetypes="cccsssc"
         id="path5339"
         d="M 2134.3107,1130.2671 C 2134.3107,1130.2671 1998.7311,950.42004 1638.1502,1168.0088 C 1208.1816,1434.0482 863.90146,1379.4759 467.65955,1410.6713 C 467.65955,1410.6713 607.07254,1355.6003 717.42843,1456.146 C 846.95753,1574.1601 710.12608,1301.8895 942.74721,1408.7389 C 1170.2008,1513.2147 1178.4621,1708.0427 1759.7268,1248.2814 C 1856.078,1172.0709 1952.0113,1079.4981 2134.3107,1130.2671 z"
         style="opacity:0.69049389;fill:#b9b193;fill-opacity:1;fill-rule:evenodd;stroke:none;stroke-width:1px;stroke-linecap:butt;stroke-linejoin:miter;stroke-opacity:1;display:inline" />
      <path
         sodipodi:nodetypes="cccccsc"
         id="path2711"
         d="M 1946.3394,1059.8186 C 1869.6877,1060.0781 1766.1037,1085.8321 1630.8859,1167.4279 C 1340.9597,1346.8172 1032.148,1537.2662 786.3183,1449.1708 C 1036.3998,1551.8587 1347.365,1392.6476 1642.9685,1209.7455 C 1906.0823,1050.9722 2060.6794,1094.1379 2125.0267,1129.0811 C 2125.7098,1129.2679 2126.3833,1129.4574 2127.0688,1129.6483 C 2127.0688,1129.6483 2074.0925,1059.3858 1946.3394,1059.8186 z"
         style="opacity:0.69049389;fill:url(#linearGradient2850);fill-opacity:1;fill-rule:evenodd;stroke:none;stroke-width:1px;stroke-linecap:butt;stroke-linejoin:miter;stroke-opacity:1;display:inline" />
    </g>
    <path
       style="opacity:0.53086416;fill:url(#linearGradient3004);fill-opacity:1;fill-rule:evenodd;stroke:none;stroke-width:1px;stroke-linecap:butt;stroke-linejoin:miter;stroke-opacity:1;display:inline"
       d="M -179.85084,686.59976 C -178.83043,691.92656 -177.80027,697.03807 -176.84437,701.63207 C -171.13339,707.7957 -167.42784,711.16205 -167.42784,711.16205 C -167.42784,711.16205 -172.69113,702.06047 -179.85084,686.59976 z M 843.37386,980.21389 C 814.09626,980.03819 782.88316,976.22939 752.32851,983.44719 C 660.61485,1005.1124 641.55149,1001.3239 480.04344,1086.2914 C 265.43248,1199.1955 96.46302,1149.2455 -23.45709,1048.1149 C 55.21116,1178.233 189.57957,1262.059 431.59935,1134.7356 C 593.10731,1049.7682 752.32851,1013.682 752.32851,1013.682 C 998.68566,995.15899 1214.1578,1076.9065 1383.8598,1172.8555 C 1252.6671,1073.4372 1085.8908,981.66929 843.37386,980.21389 z M 1723.0817,1414.5652 C 1771.0485,1443.632 1825.353,1466.9723 1878.908,1485.5296 C 1983.8333,1512.3366 2058.5104,1529.0634 2067.8058,1531.1374 C 2039.0146,1524.4938 1873.4651,1484.6521 1723.0817,1414.5652 z"
       id="path4802"
       sodipodi:nodetypes="cccccssccccccccc" />
    <path
       style="fill:#b9b193;fill-opacity:1;fill-rule:evenodd;stroke:none;stroke-width:1px;stroke-linecap:butt;stroke-linejoin:miter;stroke-opacity:1;display:inline"
       d="M 2248.1107,1149.3443 C 2248.1107,1149.3443 2198.9075,1132.23 1875.8772,1399.6393 C 1552.8469,1667.0485 1202.0058,1380.3858 1189.1702,1367.5502 C 1176.3346,1354.7145 949.57156,1196.4082 613.70555,1391.0822 L 378.97647,1279.9354 C 481.83973,1246.656 751.09942,1131.6913 914.47046,1161.9451 C 1077.8416,1192.1991 1180.7048,1310.1892 1180.7048,1310.1892 C 1180.7048,1310.1892 1316.8474,1446.3318 1558.8785,1437.2557 C 1800.9098,1428.1794 2003.6108,1255.7323 2052.0171,1222.4529 C 2100.4234,1189.1737 2218.4136,1140.7674 2248.1107,1149.3443 z"
       id="path5337"
       sodipodi:nodetypes="cssccscssc" />
    <path
       style="fill:#eae5d2;fill-opacity:1;fill-rule:evenodd;stroke:none;stroke-width:1px;stroke-linecap:butt;stroke-linejoin:miter;stroke-opacity:1;display:inline"
       d="M 234.51412,-78.52145 C 233.16431,-78.5079 231.83141,-78.44034 230.48657,-78.40798 C 281.44371,-77.07506 335.76475,-62.20242 393.00672,-28.54577 C 614.9396,146.58496 542.98428,251.63836 481.38589,298.30979 C 545.47692,258.67859 642.49463,156.86962 407.5286,-28.54577 C 346.3598,-64.51123 288.46229,-79.06253 234.51412,-78.52145 z M -176.80655,262.85599 C -181.35427,264.77934 -185.37482,266.52032 -188.94593,268.13152 C -191.91394,273.90086 -193.59746,277.37787 -193.59746,277.37787 C -193.59746,277.37787 -187.8268,271.85977 -176.80655,262.85599 z M 449.61934,312.60475 C 447.12193,314.42904 444.55585,316.26152 441.7911,318.05045 C 441.7911,318.05045 443.14095,317.54313 445.42157,316.6323 C 446.88011,315.30765 448.28693,313.95526 449.61934,312.60475 z"
       id="path3563" />
    <g
       id="g2968"
       transform="translate(165.15543,-88.2031)"
       style="opacity:0.52272728;display:inline">
      <path
         sodipodi:nodetypes="csccc"
         id="path5347"
         d="M 461.14847,1516.5926 C 630.41396,1401.3481 1098.7559,1260.3391 1272.831,1222.4522 C 1337.1206,1208.4597 1549.0028,1203.9216 1549.0028,1203.9216 C 1549.0028,1203.9216 910.34789,1068.8429 340.13295,1353.2216 L 461.14847,1516.5926 z"
         style="fill:#e3d9bc;fill-opacity:1;fill-rule:evenodd;stroke:url(#linearGradient2854);stroke-width:0.3630468;stroke-linecap:butt;stroke-linejoin:miter;stroke-miterlimit:4;stroke-dasharray:none;stroke-opacity:1;display:inline" />
      <path
         sodipodi:nodetypes="ccccsccsccccc"
         id="path3693"
         d="M -764.47911,659.49456 C -903.64703,1149.6078 -761.47262,1358.3597 -761.47262,1358.3597 C -613.22852,1754.6858 -238.06126,1760.7175 -238.06126,1760.7175 C -238.06126,1760.7175 112.84615,1769.794 539.4261,1479.3562 C 708.6916,1364.1117 1104.3214,1251.3681 1278.3965,1213.4812 C 1342.6861,1199.4887 1592.2617,1194.9886 1592.2617,1194.9886 C 1592.2619,1194.9886 1556.484,1192.8466 1497.3024,1190.961 C 1429.2968,1189.9656 1356.9595,1189.7531 1312.659,1192.0955 C 1134.757,1201.5021 725.82289,1317.0292 556.55739,1432.2738 C 129.97743,1722.7112 -220.92999,1713.6348 -220.92999,1713.635 C -220.92999,1713.635 -596.09726,1707.6033 -744.34135,1311.277 C -744.34135,1311.277 -886.51576,1102.5251 -747.34783,612.41192 L -764.47911,659.49456 z"
         style="fill:url(#linearGradient2856);fill-opacity:1;fill-rule:evenodd;stroke:none;stroke-width:1px;stroke-linecap:butt;stroke-linejoin:miter;stroke-opacity:1;display:inline" />
    </g>
    <path
       sodipodi:nodetypes="cccscc"
       id="path4628"
       d="M 1167.7775,1406.0571 C 1154.9419,1393.2215 949.57156,1196.4082 613.70555,1391.0822 L 378.97647,1279.9354 C 481.83973,1246.656 751.09942,1131.6913 914.47046,1161.9451 C 1077.8416,1192.1991 1214.9332,1284.5179 1214.9332,1284.5179 L 1167.7775,1406.0571 z"
       style="opacity:0.84567901;fill:#d9d2b9;fill-opacity:1;fill-rule:evenodd;stroke:none;stroke-width:1px;stroke-linecap:butt;stroke-linejoin:miter;stroke-opacity:1;display:inline" />
    <path
       style="fill:url(#linearGradient2995);fill-opacity:1;fill-rule:evenodd;stroke:none;stroke-width:1px;stroke-linecap:butt;stroke-linejoin:miter;stroke-opacity:1;display:inline"
       d="M 854.41736,1158.874 C 691.18639,1157.8035 467.60233,1252.2166 375.98976,1281.8561 C 336.44279,1294.6506 259.65538,1322.9011 168.93961,1338.6388 C 255.91309,1340.529 329.12673,1327.8281 367.42406,1315.4379 C 470.28732,1282.1587 739.54702,1167.1938 902.91806,1197.4477 C 966.56726,1209.2345 1042.4474,1231.0882 1111.3864,1253.3795 C 1065.1103,1219.1065 996.50806,1179.611 911.48376,1163.8659 C 893.61506,1160.5567 874.46326,1159.0054 854.41736,1158.874 z"
       id="path4630"
       sodipodi:nodetypes="cscsscsc" />
    <g
       style="display:inline"
       id="g6418"
       transform="translate(584,78)">
      <path
         sodipodi:nodetypes="cscscscscsc"
         id="path5361"
         d="M -542.65703,805.60929 C -542.65703,805.60929 -758.9724,608.95892 -686.36304,383.56739 C -613.75369,158.17583 -279.44812,121.87115 -279.44812,121.87115 C -279.44812,121.87115 -90.361273,112.79498 -105.48814,11.444426 C -120.61512,-89.906144 -246.16879,-153.43933 -246.16879,-153.43933 C -246.16879,-153.43933 -306.67662,-179.15514 -400.46369,-151.92663 C -494.25078,-124.69813 -506.35236,-92.931524 -506.35236,-92.931524 C -506.35236,-92.931524 -304.54897,-217.99906 -238.60535,-56.626864 C -211.22241,10.382556 -359.62093,34.134826 -359.62093,34.134826 C -359.62093,34.134826 -516.94121,67.414136 -613.75371,171.79008 C -739.01755,306.68963 -813.42942,549.96381 -542.65703,805.60929 z"
         style="fill:#d1c8a6;fill-opacity:1;fill-rule:evenodd;stroke:none;stroke-width:1px;stroke-linecap:butt;stroke-linejoin:miter;stroke-opacity:1;display:inline" />
      <path
         id="path4649"
         d="M -251.05172,-90.944184 C -248.50376,-86.236614 -246.04822,-81.246334 -243.79078,-75.911784 C -243.93881,-80.628144 -244.99834,-85.595614 -247.13755,-90.830734 C -248.45068,-90.880364 -249.74219,-90.896484 -251.05172,-90.944184 z M -114.85245,-27.411004 C -114.57089,-25.881794 -114.28914,-24.306394 -114.05822,-22.759464 C -98.931353,78.591086 -287.98033,87.629466 -287.98035,87.629446 C -287.98035,87.629446 -622.32373,123.97192 -694.9331,349.36349 C -716.17194,415.29239 -712.64647,478.73013 -697.08869,535.53843 C -708.82727,483.21921 -709.75067,425.81687 -690.62193,366.43804 C -618.01263,141.04644 -283.72589,104.76072 -283.72589,104.76072 C -283.72587,104.76072 -94.620113,95.665626 -109.74708,-5.6849243 C -110.86027,-13.143504 -112.63718,-20.372304 -114.85245,-27.411004 z M -587.94775,747.06979 C -577.95063,757.91239 -567.28734,768.73179 -556.06771,779.63079 C -562.41296,773.23679 -571.74173,763.40379 -582.55878,750.81389 C -584.36514,749.55879 -586.17295,748.32929 -587.94775,747.06979 z M -553.51504,782.12669 C -549.6059,785.98259 -546.93482,788.48009 -546.93482,788.48009 C -549.17808,786.36199 -551.31899,784.24269 -553.51504,782.12669 z"
         style="fill:#dbd5be;fill-opacity:1;fill-rule:evenodd;stroke:none;stroke-width:1px;stroke-linecap:butt;stroke-linejoin:miter;stroke-opacity:1;display:inline" />
    </g>
    <path
       style="fill:#c1b294;fill-opacity:1;stroke:none;stroke-width:0.82300001;stroke-miterlimit:4;stroke-opacity:1;display:inline"
       d="M -170.18787,249.03372 C -170.18787,266.45442 -183.98756,280.59295 -200.99076,280.59295 C -217.99394,280.59295 -231.79365,266.45442 -231.79365,249.03372 C -231.79365,231.61302 -217.99394,217.47448 -200.99076,217.47448 C -183.98756,217.47448 -170.18787,231.61302 -170.18787,249.03372 z"
       id="path2361" />
  </g>
</svg>
