<?xml version="1.0" encoding="UTF-8" standalone="no"?>
<!-- Created with Inkscape (http://www.inkscape.org/) -->

<svg
   xmlns:dc="http://purl.org/dc/elements/1.1/"
   xmlns:cc="http://creativecommons.org/ns#"
   xmlns:rdf="http://www.w3.org/1999/02/22-rdf-syntax-ns#"
   xmlns:svg="http://www.w3.org/2000/svg"
   xmlns="http://www.w3.org/2000/svg"
   xmlns:xlink="http://www.w3.org/1999/xlink"
   xmlns:sodipodi="http://sodipodi.sourceforge.net/DTD/sodipodi-0.dtd"
   xmlns:inkscape="http://www.inkscape.org/namespaces/inkscape"
   width="1920"
   height="1080"
   id="svg5550"
   sodipodi:version="0.32"
   inkscape:version="1.2.2 (b0a8486541, 2022-12-01)"
   sodipodi:docname="background.svg"
   inkscape:output_extension="org.inkscape.output.svg.inkscape"
   version="1.0"
   inkscape:export-filename="/media/sda6/svn/svn.berlios.de-fullstory/aptosid-art-wallpaper-gaia/trunk/aptosid-gaia-wide.png"
   inkscape:export-xdpi="90"
   inkscape:export-ydpi="90">
  <defs
     id="defs5552">
    <linearGradient
       id="linearGradient3685">
      <stop
         style="stop-color:#b0a57d;stop-opacity:1;"
         offset="0"
         id="stop3687" />
      <stop
         style="stop-color:#b0a57d;stop-opacity:0;"
         offset="1"
         id="stop3689" />
    </linearGradient>
    <linearGradient
       id="linearGradient4815">
      <stop
         id="stop4817"
         offset="0"
         style="stop-color:#dabea5;stop-opacity:0.49803922;" />
      <stop
         style="stop-color:#ad976a;stop-opacity:1;"
         offset="0.5"
         id="stop4821" />
      <stop
         id="stop4819"
         offset="1"
         style="stop-color:#dad3a5;stop-opacity:0;" />
    </linearGradient>
    <linearGradient
       id="linearGradient3698">
      <stop
         style="stop-color:#f6f2e5;stop-opacity:0.2857143;"
         offset="0"
         id="stop3700" />
      <stop
         id="stop3706"
         offset="0.5"
         style="stop-color:#f2ecd8;stop-opacity:0.9285714;" />
      <stop
         style="stop-color:#e3d9bc;stop-opacity:0;"
         offset="1"
         id="stop3702" />
    </linearGradient>
    <linearGradient
       inkscape:collect="always"
       id="linearGradient3583">
      <stop
         style="stop-color:#000000;stop-opacity:1;"
         offset="0"
         id="stop3585" />
      <stop
         style="stop-color:#000000;stop-opacity:0;"
         offset="1"
         id="stop3587" />
    </linearGradient>
    <linearGradient
       id="linearGradient4794">
      <stop
         style="stop-color:#a7a189;stop-opacity:0.52040815;"
         offset="0"
         id="stop4796" />
      <stop
         style="stop-color:#a7a189;stop-opacity:0;"
         offset="1"
         id="stop4798" />
    </linearGradient>
    <linearGradient
       id="linearGradient3393">
      <stop
         id="stop3395"
         offset="0"
         style="stop-color:#ffffff;stop-opacity:0.63541669;" />
      <stop
         id="stop3401"
         offset="1"
         style="stop-color:#ffffff;stop-opacity:0;" />
    </linearGradient>
    <linearGradient
       id="linearGradient3403">
      <stop
         id="stop3405"
         offset="0"
         style="stop-color:#ffffff;stop-opacity:0.60416669;" />
      <stop
         id="stop3409"
         offset="0.75"
         style="stop-color:#ffffff;stop-opacity:0.24705882;" />
      <stop
         id="stop3411"
         offset="1"
         style="stop-color:#ffffff;stop-opacity:0;" />
    </linearGradient>
    <linearGradient
       id="linearGradient3599">
      <stop
         style="stop-color:#ddd8a9;stop-opacity:0.63917524;"
         offset="0"
         id="stop3601" />
      <stop
         id="stop3607"
         offset="0.5"
         style="stop-color:#e3dfba;stop-opacity:0.31764706;" />
      <stop
         style="stop-color:#e6e3c2;stop-opacity:0.15686275;"
         offset="0.75"
         id="stop3609" />
      <stop
         style="stop-color:#eae7cb;stop-opacity:0;"
         offset="1"
         id="stop3603" />
    </linearGradient>
    <linearGradient
       inkscape:collect="always"
       xlink:href="#linearGradient3599"
       id="linearGradient2830"
       gradientUnits="userSpaceOnUse"
       gradientTransform="translate(-428.42885,-77.152523)"
       x1="876.83252"
       y1="1.7035885"
       x2="880.16583"
       y2="213.37892" />
    <linearGradient
       inkscape:collect="always"
       xlink:href="#linearGradient3685"
       id="linearGradient2850"
       gradientUnits="userSpaceOnUse"
       gradientTransform="matrix(1.8152339,0,0,1.8152339,-757.96199,-242.21471)"
       x1="889.6875"
       y1="782.13934"
       x2="1589.3438"
       y2="782.13934" />
    <linearGradient
       inkscape:collect="always"
       xlink:href="#linearGradient3583"
       id="linearGradient2854"
       gradientUnits="userSpaceOnUse"
       gradientTransform="matrix(1.8152338,0,0,1.8152338,-757.96196,-242.2147)"
       x1="1302.9194"
       y1="747.50867"
       x2="-461.56662"
       y2="735.84198" />
    <linearGradient
       inkscape:collect="always"
       xlink:href="#linearGradient3698"
       id="linearGradient2856"
       gradientUnits="userSpaceOnUse"
       gradientTransform="matrix(1.8152339,0,0,1.8152339,-765.22292,-263.99752)"
       x1="-33.240143"
       y1="799.11353"
       x2="1797.3337"
       y2="586.16479" />
    <linearGradient
       inkscape:collect="always"
       xlink:href="#linearGradient4794"
       id="linearGradient2995"
       gradientUnits="userSpaceOnUse"
       gradientTransform="matrix(1.8152339,0,0,1.8152339,-612.7463,-241.23069)"
       x1="847.29211"
       y1="750.87299"
       x2="288.14627"
       y2="920.87299" />
    <linearGradient
       inkscape:collect="always"
       xlink:href="#linearGradient4815"
       id="linearGradient3004"
       gradientUnits="userSpaceOnUse"
       gradientTransform="matrix(1.8152339,0,0,1.8152339,-616.3768,-226.70882)"
       x1="240.47917"
       y1="735.7605"
       x2="1478.6979"
       y2="735.7605" />
    <radialGradient
       inkscape:collect="always"
       xlink:href="#linearGradient3393"
       id="radialGradient3071"
       gradientUnits="userSpaceOnUse"
       gradientTransform="matrix(1.2,0,0,0.7364584,-2.2005,155.91246)"
       cx="798.33331"
       cy="625.83337"
       fx="798.33331"
       fy="625.83337"
       r="800" />
    <linearGradient
       inkscape:collect="always"
       xlink:href="#linearGradient3403"
       id="linearGradient3074"
       gradientUnits="userSpaceOnUse"
       gradientTransform="matrix(1.2,0,0,1,-7.22803,-2.282254)"
       x1="914.17584"
       y1="615.87323"
       x2="1087.1691"
       y2="318.66489" />
    <linearGradient
       inkscape:collect="always"
       xlink:href="#linearGradient3599"
       id="linearGradient3080"
       gradientUnits="userSpaceOnUse"
       gradientTransform="translate(-428.42883,-1129.5146)"
       x1="876.83252"
       y1="1.7035885"
       x2="880.16583"
       y2="213.37892" />
  </defs>
  <sodipodi:namedview
     id="base"
     pagecolor="#ffffff"
     bordercolor="#000000"
     borderopacity="1"
     inkscape:pageopacity="0.0"
     inkscape:pageshadow="0"
     inkscape:zoom="0.35"
     inkscape:cx="407.30614"
     inkscape:cy="491.18317"
     inkscape:document-units="px"
     inkscape:current-layer="layer3"
     inkscape:window-width="1400"
     inkscape:window-height="992"
     inkscape:window-x="0"
     inkscape:window-y="0"
     width="1920px"
     height="1200px"
     borderlayer="true"
     showgrid="false"
     inkscape:window-maximized="0" />
  <metadata
     id="metadata5555">
    <rdf:RDF>
      <cc:Work
         rdf:about="">
        <dc:format>image/svg+xml</dc:format>
        <dc:type
           rdf:resource="http://purl.org/dc/dcmitype/StillImage" />
        <dc:title></dc:title>
      </cc:Work>
    </rdf:RDF>
  </metadata>
  <g
     inkscape:label="background"
     inkscape:groupmode="layer"
     id="layer1"
     style="display:inline"
     transform="translate(0,-120)" />
  <g
     inkscape:groupmode="layer"
     id="layer2"
     inkscape:label="face"
     style="display:inline"
     transform="translate(0,-120)" />
  <g
     inkscape:groupmode="layer"
     id="layer3"
     inkscape:label="hair"
     style="display:inline"
     transform="translate(0,-120)" />
  <g
     inkscape:groupmode="layer"
     id="layer4"
     inkscape:label="logo"
     style="display:inline"
     transform="translate(0,-120)">
    <g
       style="display:inline"
       id="g5741"
       transform="matrix(1.217864,0,0,1.0142588,505.51931,68.354568)"
       inkscape:export-filename="/home/bernie/svn/svn.berlios.de-fullstory/aptosid-art-wallpaper-gaia/trunk/aptosid-gaia-wide.png"
       inkscape:export-xdpi="89.990852"
       inkscape:export-ydpi="89.990852">
      <rect
         y="-75.448914"
         x="-429.92969"
         height="1203.26"
         width="1603.9539"
         id="rect3347"
         style="display:inline;opacity:0.98999999;fill:#eae7cb;fill-opacity:1;fill-rule:evenodd;stroke:#000000;stroke-width:1px;stroke-linecap:butt;stroke-linejoin:miter;stroke-opacity:0.32222224" />
      <rect
         transform="scale(1,-1)"
         style="display:inline;opacity:0.78840906;fill:url(#linearGradient3080);fill-opacity:1;fill-rule:evenodd;stroke:none;stroke-width:1px;stroke-linecap:butt;stroke-linejoin:miter;stroke-opacity:1"
         id="rect3618"
         width="1603.9539"
         height="1203.26"
         x="-429.92969"
         y="-1127.811" />
      <rect
         y="-75.448914"
         x="-429.92969"
         height="1203.26"
         width="1603.9539"
         id="rect2588"
         style="display:inline;opacity:0.84659095;fill:url(#linearGradient2830);fill-opacity:1;fill-rule:evenodd;stroke:none;stroke-width:1px;stroke-linecap:butt;stroke-linejoin:miter;stroke-opacity:1" />
    </g>
    <path
       style="display:inline;opacity:0.63855423;fill:url(#linearGradient3074);fill-opacity:1;stroke:none"
       d="M 1914.7719,-2.282254 528.77197,-3.948914 C 487.6789,307.76682 1858.0416,421.49265 1918.7719,1016.051 l -4,-1018.333254 z"
       id="rect3989"
       sodipodi:nodetypes="cccc"
       inkscape:connector-curvature="0" />
    <path
       style="display:inline;opacity:0.63855423;fill:url(#radialGradient3071);fill-opacity:1;fill-rule:evenodd;stroke:none;stroke-width:1px;stroke-linecap:butt;stroke-linejoin:miter;stroke-opacity:1"
       d="m -4.20049,1189.3125 c 602.66666,0 1661.33349,-306.66656 1920.00009,-1161.666503 l 0,1178.333203 -1920.00009,0 0,-16.6667 z"
       id="rect3972"
       sodipodi:nodetypes="ccccc"
       inkscape:connector-curvature="0" />
    <path
       style="display:inline;fill:#dcd2ae;fill-opacity:1;stroke:none;stroke-opacity:1"
       d="m 272.2628,-66.63439 c -8.82589,0.29254 -28.20138,7.35761 -34.90625,13.3125 -5.53622,2.21524 -11.03438,4.42949 -16.46875,6.625 -17.93823,7.24711 -35.27326,14.38733 -52.125,21.4375 6.71704,-4.41051 11.75006,-8.71938 11.75,-10.25 0,-1.405 -2.70512,-1.9344 -6.78125,-1.71875 -6.79354,0.35941 -17.58861,2.68792 -26.8125,6.3125 -9.59694,3.77121 -9.72362,4.29971 -3.59375,10.6875 1.75536,1.82924 3.07087,3.1056 4.40625,3.8125 -362.6226,154.19097 -467.87566,266.55016 -508.96875,487.0625 0.82715,-2.2132 1.64722,-4.43093 2.5,-6.625 80.25072,-206.47141 274.5286,-328.33206 682.09375,-383.46875 24.4005,-4.89896 99.57246,-28.61325 115.96875,-36.5625 l 13.21875,-6.40625 11.65625,13.65625 c 6.36493,7.48566 14.69285,19.81977 18.53125,27.46875 3.8384,7.649 15.27693,27.11561 25.40625,43.3125 33.47178,53.52236 8.88487,10.62563 30.0625,55.21875 3.52908,7.43094 1.20495,32.49467 -10.3125,66.3125 l -68.78125,63.25 c -11.30426,-10.51264 -33.02855,-23.12733 -67.375,-41.15625 -35.93851,-18.86466 -51.45789,-25.08851 -67.125,-26.65625 -15.74674,-1.57581 -44.14487,-0.16096 -61.25,2.1875 -5.47529,-0.26011 -10.9838,-1.08843 -16.40625,-1.9375 -6.30548,-1.57265 -12.27877,-0.64543 -18.53125,0.0937 -5.94733,1.86853 -12.04133,3.38585 -18.09375,4.84375 l -21.25,16.53125 c 3.0229,-0.74803 6.07244,-1.46137 9.09375,-2.21875 3.02131,-0.75738 6.02466,-1.53517 9,-2.46875 6.02832,-0.83597 11.72337,-2.91859 17.96875,-1.0625 6.67951,1.06302 13.33522,2.32764 20.125,2.1875 6.31951,0.52427 12.59653,0.89923 18.75,2.65625 1.22925,0.1833 2.51689,0.38149 3.75,0.5625 -20.10317,0.78026 -14.28368,6.17834 18.3125,13.90625 29.58675,7.01434 66.77172,23.16831 82.03125,34.375 -1.01969,0.0367 -2.00562,0.0748 -3.03125,0.0937 10.22418,6.3571 -3.06662,-7.2882 26.875,21.5 0.76413,-0.1196 1.52656,-0.31135 2.28125,-0.46875 5.81282,2.11349 12.86393,5.4535 22.8125,10.6875 11.42706,6.01184 18.57158,9.59743 24.03125,11.4375 1.55991,0.52573 2.99796,0.89833 4.34375,1.15625 4.71026,0.9027 8.47447,0.26832 13.90625,-1.21875 11.13587,-3.04852 14.00637,-5.8889 16.0625,-15.40625 0.68019,-3.14834 1.01198,-5.57905 0.875,-7.6875 -0.0274,-0.42169 -0.0572,-0.81997 -0.125,-1.21875 -0.67787,-3.98779 -3.46459,-6.9714 -9.59375,-12.09375 -2.49769,-2.08751 -4.43964,-4.03118 -6.09375,-5.875 41.88454,-20.07051 75.35981,-46.58085 110.3125,-75.9375 8.32471,13.6829 7.53757,10.25008 15.21875,23.65625 2.95555,3.005 27.27986,76.92752 30.21875,90.53125 0.94656,4.38204 1.11345,7.49594 0.25,10.15625 -0.005,0.007 0.005,0.0247 0,0.0312 -4.20268,5.2293 -9.95381,9.07523 -13.09375,9.09375 -83.98441,0.50822 -9.60455,47.22661 -29.28125,45.5 -14.53566,-1.27549 -22.59935,8.80596 -26.75,20.90625 -2.27945,-2.51289 -6.30485,-4.99274 -12.84375,-12.25 -2.94101,5.1641 -17.3019,-15.40853 -22.6875,-17.78125 -6.73802,-10e-6 23.95636,97.56246 44.65625,151.71875 0.62028,1.62282 1.274,3.33418 1.875,4.875 0.61878,1.58642 1.21691,3.16494 1.8125,4.65625 0.64108,1.61093 1.29337,3.18559 1.9375,4.75 10.54119,25.60115 19.20139,38.8615 47,71.46875 25.79908,30.26156 34.19186,42.59944 34.25,50.5625 0.11248,15.37425 -17.52873,46.10462 -30.40625,52.875 -13.19373,6.93642 -41.8125,30.74454 -41.8125,34.8125 3e-5,1.59412 2.37994,2.96885 5.3125,2.96875 4.41846,-10e-6 5.00913,5.52283 3.625,32.1875 -0.9186,17.69557 -1.6942,33.53164 -1.71875,35.28124 -0.006,0.4375 -0.52564,0.77 -1.5,1.0313 -0.24359,0.0653 -0.51662,0.1336 -0.8125,0.1875 -3.25468,0.5927 -9.58742,0.5075 -16.78125,-0.4063 -16.49475,-2.0952 -25.7589,-0.2168 -69.625,14.25 -27.82792,9.1775 -56.72228,16.742 -64.3125,16.75 -7.59022,0.008 -16.93359,1.719 -20.78125,3.8125 -5.16161,2.8085 -7.3909,8.0715 -6.84375,13.9375 0.0684,0.7333 0.18918,1.4704 0.34375,2.2188 1.08197,5.2387 4.26483,10.7522 9.4375,15.3125 15.58725,13.742 83.46426,67.2398 105,82.75 8.1434,5.86475 8.17052,6.09195 1.8125,18.37495 -3.54184,6.843 -8.03553,13.6533 -9.96875,15.0625 -2.24381,1.636 -1.9147,8.5572 0.90625,19.2814 7.05906,26.8334 5.52381,61.1878 -3.9375,87.6874 -4.89376,13.7071 -10.33774,24.7086 -17.28125,34.125 -0.53412,0.7244 -1.07265,1.4504 -1.625,2.1563 -7.73296,9.8829 -17.3158,18.0127 -29.90625,25.75 -0.89932,0.5527 -1.7881,1.1071 -2.71875,1.6563 -2.79194,1.6475 -5.75414,3.272 -8.84375,4.9062 -25.65793,13.5713 -32.04575,15.1703 -78.1875,20.4688 -20.58003,2.3631 -39.50482,3.6902 -56.125,3.9687 -1.66202,0.028 -3.32231,0.024 -4.9375,0.031 -8.07595,0.034 -15.53705,-0.1903 -22.34375,-0.6876 -34.2614,-2.5028 -51.29758,3e-4 -93.375,13.3438 -11.93509,3.7848 -41.22347,9.4207 -65.09375,12.625 -115.08949,15.4494 -149.39187,24.4792 -203.5625,53.6562 -18.44893,9.937 -33.89547,18.1069 -34.34375,18.0626 -0.44832,-0.044 -7.944,-3.3703 -16.625,-7.375 -8.68094,-4.0047 -24.94533,-9.6577 -36.15625,-12.625 -10.37273,-2.7456 -34.74783,-12.497 -62.09375,-24.3438 -0.009,0 -0.0226,0 -0.0312,0 -11.72435,-5.0795 -23.98359,-10.5254 -35.9375,-16 -3.98464,-1.825 -7.93077,-3.6568 -11.8125,-5.4689 -19.40865,-9.0599 -37.13587,-17.7971 -49.15625,-24.4061 -61.90864,-34.039 -75.80452,-47.0432 -64.1875,-60.0939 3.33573,-3.7473 6.37376,-11.5368 6.78125,-17.3436 0.40757,-5.807 2.35051,-11.8123 4.28125,-13.2187 2.22934,-1.6238 1.89731,-7.0553 -0.90625,-14.9376 -7.74434,-70.5537 -14.08455,-137.17285 -18.3125,-200.00005 -4.01522,55.4063 -8.84994,114.76755 -15.125,178.75005 -0.03,7.2151 -2.3523,19.7232 -5.2188,27.8126 -11.4603,32.3412 -6.2803,63.1395 13.9063,82.5 17.12134,16.4207 53.20198,44.3438 57.3125,44.3437 1.52825,-10e-5 9.66446,5.3651 18.1875,11.9375 16.38244,12.6335 25.65065,17.1224 94.9375,46.5625 117.48215,18.8952 160.70814,18.2647 188.53125,18.5 3.81972,-3.8834 7.09236,-4.7301 34.34375,-8.75 54.59063,-11.0238 130.64492,-53.6718 192.25,-59.625 41.15649,-16.5899 76.45318,-22.9128 129.1875,-23.0937 108.08109,-0.3706 140.04536,-7.8086 181.40625,-42.0626 17.86212,-14.7931 21.79003,-20.492 31.3125,-45.8437 9.20985,-24.5213 11.258,-36.3492 13.34375,-76.4063 2.41121,-46.3043 2.83619,-48.1939 18.53125,-81.25 8.83305,-18.60335 16.27172,-39.29285 16.5,-45.96875 0.15177,-4.4458 0.21041,-8.2227 0.1875,-11.4375 -0.008,-1.0717 -9e-4,-2.0829 -0.0312,-3.0313 -0.36425,-11.3813 -2.44137,-14.1249 -7.625,-14.125 -3.67966,0 -13.84106,-5.3293 -22.59375,-11.8437 -7.76913,-5.7826 -21.94042,-12.5985 -34.0625,-16.4688 -0.86586,-0.2764 -1.7206,-0.5362 -2.5625,-0.7812 -0.8419,-0.2451 -1.68823,-0.4768 -2.5,-0.6875 -3.41325,-0.8863 -6.36475,-1.674 -8.84375,-2.4375 -1.2395,-0.3818 -2.34711,-0.763 -3.34375,-1.125 -2.4916,-0.9051 -4.21906,-1.7639 -5.125,-2.625 -0.18119,-0.1723 -0.32206,-0.3268 -0.4375,-0.5 -2.30873,-3.464 8.59824,-7.2304 35.84375,-14.9063 30.4577,-8.581 36.14733,-8.9929 54.9375,-3.6875 17.05414,4.8151 17.98062,14.8183 2.71875,29.3125 -7.37857,7.0077 -11.10371,12.7339 -10.6875,15.8438 0.0198,0.148 0.0551,0.3014 0.0937,0.4375 0.3862,1.3607 1.70873,2.0937 4.03125,2.0937 1.0263,0 2.23639,-0.376 3.5625,-1.0312 0.26522,-0.1311 0.53938,-0.2534 0.8125,-0.4063 1.63875,-0.9176 3.40482,-2.2262 5.15625,-3.75 0.58381,-0.5079 1.17549,-1.0415 1.75,-1.5937 5.17063,-4.9702 9.75,-11.4865 9.75,-15.375 3e-5,-2.9564 2.633,-7.8436 6.125,-11.5938 0.49886,-0.5357 1.03458,-1.0184 1.5625,-1.5 7.20553,-6.5736 7.53166,-9.3837 5.3125,-44.7187 -2.85867,-45.50973 -1.42467,-49.25246 34,-85.84379 4.10876,-4.24408 7.81108,-8.26607 11.09375,-12.0625 0.82067,-0.94911 1.60725,-1.86163 2.375,-2.78125 8.44526,-10.11582 13.67485,-18.45282 15.34375,-24.5625 8.93363,-32.70089 2.4987,-52.17524 -28.25,-85.9375 -4.64741,-5.83247 -8.88097,-11.2774 -12.78125,-16.40625 -17.50528,-25.42759 -32.33214,-58.10472 -43.09375,-71.5625 -0.33401,-1.2301 -0.55858,-2.20761 -0.75,-2.96875 -0.11951,-0.26765 -0.22487,-0.5171 -0.34375,-0.78125 0.89291,0.0528 1.70233,0.27945 2.34375,0.78125 -2.74037,-8.43586 -4.94739,-16.04182 -6.6875,-23.03125 6.97284,-1.61813 15.57285,-5.61866 25.9375,-13.34375 -14.13926,-20.29706 -26.0994,-32.82847 -28.28125,-42.1875 -0.002,-0.01 0.002,-0.0216 0,-0.0312 0.95601,-3.70962 2.15678,-7.36401 3.59375,-11.03125 0.0734,-0.0676 0.14321,-0.12013 0.21875,-0.1875 11.78304,-14.60188 22.35321,-27.11351 35,-41.53125 0.86623,-0.52527 1.69375,-0.99462 2.46875,-1.34375 -0.48393,0.1411 -0.96309,0.21166 -1.4375,0.1875 5.1615,-5.87394 10.63278,-12.05023 16.75,-18.875 7.07169,-11.08576 8.81089,-18.76822 7.75,-26.15625 10.61032,-13.26864 4.28263,-32.14686 -25.65625,-111.40625 -2.5959,-14.2779 -14.508,-32.84298 -22.375,-46.53125 0.42222,-0.93155 0.90011,-2.17592 0.90625,-2.1875 l -1.6875,0.78125 c -3.25212,-5.57761 -6.20297,-10.14973 -8.375,-12.75 -1.26693,-1.51675 -2.69521,-4.40104 -3.96875,-7.84375 -0.31839,-0.86068 -0.64346,-1.77273 -0.9375,-2.6875 -0.88211,-2.74431 -1.60907,-5.65233 -2.09375,-8.40625 -2.54502,-14.46188 -34.38847,-80.40519 -50.3125,-104.21875 -44.4633,-66.49309 -112.36889,-127.9194 -133.8125,-121 -0.4708,0.15192 -1.01938,0.2554 -1.625,0.3125 -0.30281,0.02854 -0.60592,0.02532 -0.9375,0.03125 -4.31046,0.07706 -10.91186,-1.70527 -16.1875,-4.59375 -14.86772,-8.14028 -21.94301,-5.45557 -28.71875,11.03125 -2.43535,5.92582 -4.51246,9.85131 -5.84375,11.65625 -0.22188,0.30082 -0.41454,0.53779 -0.59375,0.71875 -0.0896,0.09047 -0.1717,0.18978 -0.25,0.25 -0.0783,0.06022 -0.15219,0.09522 -0.21875,0.125 -1.06491,0.47635 -0.5917,-2.94929 2.28125,-10.6875 3.36615,-9.06674 3.09842,-12.13434 -1.6875,-17 -6.75372,-6.86634 -19.36866,-4.62944 -64.09375,11.46875 -5.93257,2.83901 -13.07675,4.93846 -18.9375,5.90625 -1.75822,0.29033 -3.38076,0.48386 -4.84375,0.5625 -9.2656,0.49803 -11.27209,-3.44288 10.90625,-14.375 11.73315,-5.46114 19.35364,-10.68121 16.9375,-11.5 -0.76453,-0.25912 -1.80164,-0.26055 -3.0625,-0.21875 z m -673.5,1000.74999 c 14.46587,-199.61529 18.24711,-346.73911 40,-463.46874 -46.14142,123.45965 -52.5685,276.70142 -40,463.46874 z m 576,-985.84374 c -1.17918,-0.01528 -2.47062,0.0086 -3.875,0.03125 -3.21003,0.05181 -7.01627,0.18538 -11.40625,0.4375 -15.56047,0.89367 -26.45573,2.62924 -32.625,5.1875 -0.38558,0.15989 -0.77646,0.33374 -1.125,0.5 -5.22811,2.49381 -6.27416,5.69767 -3.09375,9.59375 0.37079,0.45422 0.79244,0.86314 1.28125,1.1875 0.24441,0.16218 0.49939,0.30834 0.78125,0.4375 3.66419,1.67901 10.70616,0.52829 26.96875,-3.8125 33.12518,-8.84171 40.78152,-13.33338 23.09375,-13.5625 z m -61.15625,4.1875 c -0.13886,0.01568 -0.30735,0.05323 -0.46875,0.09375 -1.93689,0.48625 -5.46307,2.6978 -9.03125,5.71875 -4.95049,4.19144 -6.57909,7.39869 -3.84375,7.46875 5.42,0.13873 16.85565,-10.41281 14.21875,-13.09375 -0.17804,-0.18102 -0.4584,-0.23455 -0.875,-0.1875 z m 248.5,19.53125 c 1.17432,-0.0081 1.71993,1.113 2.15625,3.1875 -36.47183,67.70091 0.26826,0.23277 -10.625,2.53125 3.89821,-3.43841 6.38322,-5.24763 7.9375,-5.625 0.19428,-0.04718 0.36349,-0.09259 0.53125,-0.09375 z m 15.25,5.5625 c 0.1868,-0.01995 0.36841,0.05216 0.59375,0.28125 1.20183,1.22184 1.38857,4.43944 0.34375,7.09375 -1.15447,2.93325 -2.07645,2.0023 -2.25,-2.28125 -0.11775,-2.9071 0.38502,-4.78545 1.125,-5.0625 0.0617,-0.02309 0.12523,-0.0246 0.1875,-0.03125 z m 20,8.6875 c 1.75668,-0.15586 7.84847,3.78763 14.15625,9.15625 15.23948,12.97018 13.53763,18.27544 -10.5,33.3125 -10.11803,6.32946 -17.54998,12.40139 -16.5,13.46875 0.47353,0.48142 1.37107,0.6457 2.59375,0.59375 0.30567,-0.01299 0.62407,-0.01989 0.96875,-0.0625 1.72342,-0.21306 3.9105,-0.78276 6.375,-1.625 0.9858,-0.3369 2.0331,-0.73948 3.09375,-1.15625 10.60647,-4.16773 24.30777,-12.00466 28.65625,-17.625 8.29045,-10.71539 19.57958,-10.25973 21.15625,0.90625 0.94802,6.71458 -3.8149,9.36311 -38.78125,21.15625 -42.14851,14.21544 -56.94088,16.7104 -52.21875,8.84375 1.51737,-2.52793 9.89894,-13.44615 18.53125,-24.25 7.55326,-9.45343 14.5804,-21.16413 17,-27.90625 0.17283,-0.48158 0.34444,-0.91527 0.46875,-1.34375 0.12431,-0.42849 0.20844,-0.8486 0.28125,-1.21875 1.1651,-5.92253 3.17142,-11.39313 4.40625,-12.15625 0.0772,-0.0477 0.19539,-0.08336 0.3125,-0.09375 z m -23,6.71875 c 0.24074,0.01813 0.4475,0.16274 0.65625,0.375 1.11359,1.13211 0.0968,4.06826 -2.375,6.5625 -3.57195,3.60442 -3.99398,3.14666 -2.03125,-2.09375 1.01862,-2.71977 2.39782,-4.54619 3.5,-4.8125 0.0919,-0.0222 0.16975,-0.0373 0.25,-0.03125 z m -80.5,344.40625 c -5.33019,-0.0269 -11.66574,0.26252 -19.21875,0.90625 -21.11402,1.79968 -57.96867,14.54099 -57.96875,20 0,0.62433 5.24728,0.61824 13.1875,0.0937 1.58805,-0.1049 3.27923,-0.23086 5.0625,-0.375 3.56654,-0.28827 7.49108,-0.66195 11.59375,-1.09375 6.15404,-0.64771 13.13682,-1.21038 20.0625,-1.65625 2.30856,-0.14862 4.61678,-0.28694 6.875,-0.40625 9.03287,-0.47722 17.40051,-0.72342 22.90625,-0.59375 17.46764,0.41122 19.99988,-0.39464 20,-6.53125 10e-6,-7.01829 -6.50949,-10.263 -22.5,-10.34375 z m -83.28125,55.03125 c -7.13966,-0.0134 -11.6116,3.64008 -11,7.46875 0.0471,0.29451 0.14192,0.61137 0.25,0.90625 0.21615,0.58976 0.558,1.17793 1.03125,1.75 -5.86991,-1.22786 -11.91329,-1.62355 -17.875,-2.0625 l -21.6875,15.96875 c 6.45218,0.36568 12.97135,0.495 19.3125,1.9375 4.6566,0.77118 9.25987,1.44782 13.90625,2.3125 3.34073,2.40626 6.26896,4.89036 7.8125,6.78125 2.78084,3.40655 17.1587,14.52706 31.96875,24.6875 23.77722,16.3122 30.15558,18.87653 54.375,21.9375 15.08569,1.90657 38.03913,6.51046 50.96875,10.25 12.92962,3.73937 23.81965,6.99236 24.1875,7.125 0.36785,0.1327 4.97662,-1.5121 10.28125,-3.5625 6.23696,-2.41082 8.86754,-5.63618 7.5625,-9.09375 -1.10998,-2.94065 -0.29998,-6.29394 1.71875,-7.5625 0.13394,-0.0842 0.2542,-0.19451 0.375,-0.3125 0.1208,-0.11799 0.23623,-0.25612 0.34375,-0.40625 1.50532,-2.10185 1.7036,-7.26157 0.40625,-13.1875 -1.39678,-6.3801 -2.72606,-15.75652 -2.9375,-20.8125 -0.21152,-5.05587 -1.97943,-8.57549 -3.96875,-7.8125 -1.98909,0.76304 -5.8941,2.25407 -8.6875,3.34375 -2.7935,1.08982 -12.77717,-2.41211 -22.0625,-7.71875 -11.48714,-6.56491 -34.69096,-13.18005 -72.65625,-20.78125 -30.68854,-6.14422 -59.26666,-11.14807 -63.625,-11.15625 z m 133.90625,60 c 2.43059,1.79927 0.8236,2.36644 -3.25,2.15625 l 3.25,-2.15625 z m 204.6875,274.625 c -27.31185,-3e-5 -40.93726,3.88736 -53,15.375 -8.98681,8.55843 -7.90979,14.03135 2.9375,14.03125 4.12192,-3e-5 6.30341,1.58565 4.96875,3.78125 -1.2883,2.11914 -1.38813,6.43341 -0.21875,9.53125 1.09005,2.88798 3.01874,4.16012 6.84375,4.0625 0.69546,-0.0177 1.45492,-0.0811 2.28125,-0.1875 1.2395,-0.15959 2.64977,-0.39964 4.21875,-0.75 17.26005,-3.85409 50.56125,-20.30986 48.375,-23.90625 -1.0717,-1.76272 1.35265,-4.9705 5.3125,-7.125 4.24998,-2.31239 6.27872,-6.21519 5.0625,-9.4375 -1.54396,-4.09023 -8.27966,-5.3749 -26.78125,-5.375 z m 1.40625,66.84375 c -0.26353,0.0209 -0.56005,0.068 -0.84375,0.125 -4.5741,0.91801 -5.49379,4.69773 -4.5,17.59375 0.69837,9.05712 2.96049,18.6363 5.0625,21.25 6.78928,8.44234 10.38763,-1.17061 7.8125,-20.90625 -1.69463,-12.98789 -3.35842,-17.6747 -6.78125,-18.03125 -0.24449,-0.0255 -0.48647,-0.0521 -0.75,-0.0312 z m -87.75,102.74999 c 1.25646,-0.0526 2.75716,0.1564 4.0625,0.6875 2.88502,1.1738 1.96346,2.0111 -2.25,2.1875 -3.8125,0.1598 -5.95191,-0.747 -4.75,-1.9687 0.60089,-0.6109 1.68115,-0.8536 2.9375,-0.9063 z m -14.8125,3.4375 c 0.24764,-0.0131 0.48299,-0.007 0.6875,0 0.54551,0.0191 0.96402,0.1713 1.125,0.3438 2.97483,3.1881 -8.43164,9.3571 -12.53125,6.7812 -3.35066,-2.1053 -2.40101,-3.6363 3.375,-5.5 2.88164,-0.9298 5.61026,-1.5335 7.34375,-1.625 z m 31.25,28 c 9.1034,-0.0822 30.6769,9.2471 37.03125,17.0313 4.00251,4.9031 3.54836,6.489 -2.375,10.25 -4.28572,2.721 -6.25151,7.1128 -5.1875,11.25 0.88846,3.4546 0.80414,5.509 -0.53125,6.125 -0.22257,0.1027 -0.4872,0.165 -0.78125,0.1875 -2.64649,0.2021 -8.25109,-2.8623 -17.8125,-9.3125 -28.1422,-18.9855 -37.39917,-30.6562 -24.1875,-30.6563 3.58061,0 8.2222,-1.7192 10.28125,-3.8125 0.55191,-0.5613 1.49901,-0.9278 2.71875,-1.0312 0.2668,-0.0227 0.55009,-0.0286 0.84375,-0.0313 z m 52.0625,12.2188 c 1.98922,-10e-5 3.6251,0.702 3.625,1.5937 0,0.8918 -1.63568,2.6878 -3.625,3.9375 -1.98913,1.25 -3.62491,0.5167 -3.625,-1.625 0,-2.1417 1.63587,-3.9061 3.625,-3.9062 z m 26.21875,10.125 c 1.03714,0.1099 1.70187,0.9553 2.03125,2.5 0.62311,2.9225 -0.6037,8.6384 -2.71875,12.6562 -1.586,3.0133 -2.9461,7.5593 -3.53125,11.4063 -0.0975,0.6412 -0.16736,1.2517 -0.21875,1.8438 -0.0514,0.592 -0.0937,1.1653 -0.0937,1.6874 0,4.0998 -0.64856,6.4018 -2.28125,7.0626 -0.20409,0.0825 -0.42136,0.1561 -0.65625,0.1874 -1.64421,0.2197 -4.05363,-0.8203 -7.4375,-3 -4.16215,-2.6809 -4.16214,-3.3893 0,-4.8124 0.76629,-0.262 1.3679,-0.5524 1.84375,-0.8438 2.06199,-1.2629 1.39498,-3.0271 -2.1875,-7.4375 -4.80793,-5.9197 -4.30604,-7.3726 5.40625,-15.2813 3.90398,-3.1789 6.52393,-5.0575 8.3125,-5.7187 0.2981,-0.1103 0.55764,-0.1756 0.8125,-0.2188 0.25486,-0.0432 0.50269,-0.0542 0.71875,-0.0312 z m -29.625,27.0937 c 1.25644,-0.0527 2.78841,0.1565 4.09375,0.6876 2.88504,1.1737 1.93211,2.011 -2.28125,2.1874 -3.81239,0.1597 -5.95181,-0.7157 -4.75,-1.9374 0.6009,-0.6108 1.68105,-0.885 2.9375,-0.9376 z m -430.3125,306.125 c 0.99609,-0.022 1.89659,-0.013 2.75,0 4.55151,0.072 6.97341,0.6962 6.21875,1.9376 -1.02545,1.687 -10.32197,4.1503 -20.5625,5.5312 -2.22608,0.4379 -4.44872,0.8947 -6.65625,1.375 -2.20753,0.4803 -4.40394,0.9784 -6.59375,1.5 -30.65732,7.3027 -59.59716,18.5963 -88,32.5 -3.56111,1.0383 -5.87321,1.6348 -7.1875,1.625 -0.21905,0 -0.42873,-0.027 -0.59375,-0.062 -1.48516,-0.3211 -0.82781,-2.0372 1.09375,-5.6875 3.84955,-7.3129 1.38712,-8.8105 -10.21875,-4.3125 -0.96716,0.3748 -1.99798,0.7916 -3.09375,1.25 -2.19155,0.9168 -4.64933,1.9975 -7.375,3.25 -1.36284,0.6263 -2.77997,1.2895 -4.28125,2 -2.79534,1.323 -5.45139,2.5119 -7.9375,3.5625 -1.24305,0.5253 -2.44093,1.0135 -3.59375,1.4688 -13.83379,5.4631 -20.8551,5.8349 -13.625,0 0.60251,-0.4863 1.28893,-1.0207 2.09375,-1.5938 12.57886,-8.9574 38.73895,-19.8572 55.84375,-23.3125 8.58319,-1.734 28.61786,-6.5635 44.53125,-10.6875 22.03069,-5.7092 52.24623,-10.0078 67.1875,-10.3438 z"
       id="path5210"
       inkscape:connector-curvature="0" />
    <g
       id="g5095"
       style="display:inline;opacity:0.51136361"
       transform="translate(186.03191,-61.26571)">
      <path
         sodipodi:nodetypes="ccccscs"
         id="path5349"
         d="m 1386.8446,875.46443 c 2.0139,145.11097 -96.8126,341.86907 -535.49417,553.64637 -526.41778,237.4931 -614.82548,269.0806 -1020.69084,51.0534 -52.28354,-138.2159 -260.52754,-252.3972 530.57776,-166.0183 202.70124,87.7364 818.54625,-75.6655 956.02305,-435.65617 38.0976,-99.7601 35.7032,-195.12676 -12.1016,-363.0466 62.3715,178.88819 79.4256,197.16189 81.6858,360.0213 z"
         style="display:inline;fill:#c7c1a8;fill-opacity:1;fill-rule:evenodd;stroke:#000000;stroke-width:1.81523395px;stroke-linecap:butt;stroke-linejoin:miter;stroke-opacity:0.26060606"
         inkscape:connector-curvature="0" />
      <path
         sodipodi:nodetypes="cccccsc"
         id="path4795"
         d="m 1306.2812,520.58334 c 1.4546,5.1092 2.8482,10.1479 4.2188,15.125 51.1926,143.6449 65.9468,171.1475 68.0312,321.3438 2.014,145.11086 -96.7872,341.87886 -535.4687,553.65616 l 9.4063,23.5625 c 438.6814,-211.7773 537.5139,-408.5453 535.5,-553.65626 -2.2602,-162.8595 -19.316,-181.1431 -81.6876,-360.0312 z"
         style="display:inline;fill:#dbd3b3;fill-opacity:1;fill-rule:evenodd;stroke:none;stroke-width:1.81523395px;stroke-linecap:butt;stroke-linejoin:miter;stroke-opacity:0.26060606"
         inkscape:connector-curvature="0" />
    </g>
    <path
       style="display:inline;fill:#e3d9bc;fill-opacity:1;fill-rule:evenodd;stroke:none;stroke-width:1px;stroke-linecap:butt;stroke-linejoin:miter;stroke-opacity:1"
       d="m -183.59541,272.24204 c 0,0 173.28115,-169.00263 472.77947,-164.72407 299.49835,4.27854 211.78807,154.0277 211.78807,154.0277 0,0 -12.83564,27.81056 -49.20325,51.34256 0,0 280.24479,-98.40658 -34.22841,-346.56233 -460.94684,-237.53779 -601.13588,305.91614 -601.13588,305.91614 z"
       id="path3547"
       sodipodi:nodetypes="cscccc"
       inkscape:connector-curvature="0" />
    <path
       style="display:inline;fill:#c1b294;fill-opacity:1;fill-rule:evenodd;stroke:none;stroke-width:1px;stroke-linecap:butt;stroke-linejoin:miter;stroke-opacity:1"
       d="m 1.65363,42.342876 c -77.17018,1.10018 -262.37693,23.27659 -342.73885,202.909124 -102.86328,229.92963 -27.22851,481.037 -27.22851,481.037 0,0 6.05079,217.82809 172.44723,435.6561 166.39644,217.8281 514.35416,160.3268 514.35406,160.3268 0,0 441.3477,-143.706 631.9472,-101.3506 190.59964,42.3555 184.73804,-9.3408 390.46454,90.497 217.8269,105.7102 701.5762,214.3189 725.6963,219.7001 -42.417,-9.7875 -381.7384,-91.5225 -531.9202,-236.0372 C 1374.3298,1140.7863 1103.1896,973.04509 751.11832,983.42819 705.56326,984.75469 578.32081,1031.6159 478.83325,1086.3293 60.07901,1316.624 -189.81573,898.71729 -232.17119,711.14314 c -84.71092,-242.03119 -32.2771,-401.84742 -32.27712,-401.84742 0,0 -23.68652,102.22888 3.85737,217.31754 26.19036,109.4331 91.95294,184.52984 91.95294,184.52988 0,0 -37.12166,-93.97078 -51.39381,-190.59957 -8.2964,-56.17029 -12.28721,-148.78387 39.65152,-241.84211 13.81534,-24.75284 159.90272,-150.8748 398.50058,-167.89022 -10.48532,-0.75209 -21.33205,-1.37146 -32.61749,-1.87196 -15.07751,-0.66864 -29.57304,-0.90659 -43.50888,-0.73744 -109.84134,1.33313 -200.04748,28.50795 -263.26566,60.86706 38.03977,-45.0453 89.1747,-88.123164 157.64172,-125.648224 0,0 -13.10869,-1.38584 -34.71635,-1.0778 z"
       id="path5343"
       inkscape:connector-curvature="0" />
    <g
       id="g2976"
       transform="translate(-419.3862,-90.56012)"
       style="display:inline;opacity:0.47159089">
      <path
         sodipodi:nodetypes="cccsssc"
         id="path5339"
         d="m 2134.3107,1130.2671 c 0,0 -135.5796,-179.84706 -496.1605,37.7417 -429.9686,266.0394 -774.24874,211.4671 -1170.49065,242.6625 0,0 139.41299,-55.071 249.76888,45.4747 129.5291,118.0141 -7.30235,-154.2565 225.31878,-47.4071 227.45359,104.4758 235.71489,299.3038 816.97959,-160.4575 96.3512,-76.2105 192.2845,-168.7833 374.5839,-118.0143 z"
         style="display:inline;opacity:0.69049389;fill:#b9b193;fill-opacity:1;fill-rule:evenodd;stroke:none;stroke-width:1px;stroke-linecap:butt;stroke-linejoin:miter;stroke-opacity:1"
         inkscape:connector-curvature="0" />
      <path
         sodipodi:nodetypes="cccccsc"
         id="path2711"
         d="m 1946.3394,1059.8186 c -76.6517,0.2595 -180.2357,26.0135 -315.4535,107.6093 -289.9262,179.3893 -598.7379,369.8383 -844.5676,281.7429 250.0815,102.6879 561.0467,-56.5232 856.6502,-239.4253 263.1138,-158.7733 417.7109,-115.6076 482.0582,-80.6644 0.6831,0.1868 1.3566,0.3763 2.0421,0.5672 0,0 -52.9763,-70.2625 -180.7294,-69.8297 z"
         style="display:inline;opacity:0.69049389;fill:url(#linearGradient2850);fill-opacity:1;fill-rule:evenodd;stroke:none;stroke-width:1px;stroke-linecap:butt;stroke-linejoin:miter;stroke-opacity:1"
         inkscape:connector-curvature="0" />
    </g>
    <path
       style="display:inline;opacity:0.53086416;fill:url(#linearGradient3004);fill-opacity:1;fill-rule:evenodd;stroke:none;stroke-width:1px;stroke-linecap:butt;stroke-linejoin:miter;stroke-opacity:1"
       d="m -179.85084,686.59976 c 1.02041,5.3268 2.05057,10.43831 3.00647,15.03231 5.71098,6.16363 9.41653,9.52998 9.41653,9.52998 0,0 -5.26329,-9.10158 -12.423,-24.56229 z m 1023.2247,293.61413 c -29.2776,-0.1757 -60.4907,-3.9845 -91.04535,3.2333 -91.71366,21.66521 -110.77702,17.87671 -272.28507,102.84421 -214.61096,112.9041 -383.58042,62.9541 -503.50053,-38.1765 78.66825,130.1181 213.03666,213.9441 455.05644,86.6207 161.50796,-84.9674 320.72916,-121.0536 320.72916,-121.0536 246.35715,-18.52301 461.82929,63.2245 631.53129,159.1735 -131.1927,-99.4183 -297.969,-191.18621 -540.48594,-192.64161 z m 879.70784,434.35131 c 47.9668,29.0668 102.2713,52.4071 155.8263,70.9644 104.9253,26.807 179.6024,43.5338 188.8978,45.6078 -28.7912,-6.6436 -194.3407,-46.4853 -344.7241,-116.5722 z"
       id="path4802"
       sodipodi:nodetypes="cccccssccccccccc"
       inkscape:connector-curvature="0" />
    <path
       style="display:inline;fill:#b9b193;fill-opacity:1;fill-rule:evenodd;stroke:none;stroke-width:1px;stroke-linecap:butt;stroke-linejoin:miter;stroke-opacity:1"
       d="m 2248.1107,1149.3443 c 0,0 -49.2032,-17.1143 -372.2335,250.295 -323.0303,267.4092 -673.8714,-19.2535 -686.707,-32.0891 -12.8356,-12.8357 -239.59864,-171.142 -575.46465,23.532 L 378.97647,1279.9354 c 102.86326,-33.2794 372.12295,-148.2441 535.49399,-117.9903 163.37114,30.254 266.23434,148.2441 266.23434,148.2441 0,0 136.1426,136.1426 378.1737,127.0665 242.0313,-9.0763 444.7323,-181.5234 493.1386,-214.8028 48.4063,-33.2792 166.3965,-81.6855 196.0936,-73.1086 z"
       id="path5337"
       sodipodi:nodetypes="cssccscssc"
       inkscape:connector-curvature="0" />
    <path
       style="display:inline;fill:#eae5d2;fill-opacity:1;fill-rule:evenodd;stroke:none;stroke-width:1px;stroke-linecap:butt;stroke-linejoin:miter;stroke-opacity:1"
       d="m 234.51412,-78.52145 c -1.34981,0.01355 -2.68271,0.08111 -4.02755,0.11347 50.95714,1.33292 105.27818,16.20556 162.52015,49.86221 C 614.9396,146.58496 542.98428,251.63836 481.38589,298.30979 545.47692,258.67859 642.49463,156.86962 407.5286,-28.54577 346.3598,-64.51123 288.46229,-79.06253 234.51412,-78.52145 Z m -411.32067,341.37744 c -4.54772,1.92335 -8.56827,3.66433 -12.13938,5.27553 -2.96801,5.76934 -4.65153,9.24635 -4.65153,9.24635 0,0 5.77066,-5.5181 16.79091,-14.52188 z m 626.42589,49.74876 c -2.49741,1.82429 -5.06349,3.65677 -7.82824,5.4457 0,0 1.34985,-0.50732 3.63047,-1.41815 1.45854,-1.32465 2.86536,-2.67704 4.19777,-4.02755 z"
       id="path3563"
       inkscape:connector-curvature="0" />
    <g
       id="g2968"
       transform="translate(165.15543,-88.2031)"
       style="display:inline;opacity:0.52272728">
      <path
         sodipodi:nodetypes="csccc"
         id="path5347"
         d="m 461.14847,1516.5926 c 169.26549,-115.2445 637.60743,-256.2535 811.68253,-294.1404 64.2896,-13.9925 276.1718,-18.5306 276.1718,-18.5306 0,0 -638.65491,-135.0787 -1208.86985,149.3 l 121.01552,163.371 z"
         style="display:inline;fill:#e3d9bc;fill-opacity:1;fill-rule:evenodd;stroke:url(#linearGradient2854);stroke-width:0.3630468;stroke-linecap:butt;stroke-linejoin:miter;stroke-miterlimit:4;stroke-dasharray:none;stroke-opacity:1"
         inkscape:connector-curvature="0" />
      <path
         sodipodi:nodetypes="ccccsccsccccc"
         id="path3693"
         d="m -764.47911,659.49456 c -139.16792,490.11324 3.00649,698.86514 3.00649,698.86514 148.2441,396.3261 523.41136,402.3578 523.41136,402.3578 0,0 350.90741,9.0765 777.48736,-281.3613 169.2655,-115.2445 564.8953,-227.9881 738.9704,-265.875 64.2896,-13.9925 313.8652,-18.4926 313.8652,-18.4926 2e-4,0 -35.7777,-2.142 -94.9593,-4.0276 -68.0056,-0.9954 -140.3429,-1.2079 -184.6434,1.1345 -177.902,9.4066 -586.83611,124.9337 -756.10161,240.1783 -426.57996,290.4374 -777.48738,281.361 -777.48738,281.3612 0,0 -375.16727,-6.0317 -523.41136,-402.358 0,0 -142.17441,-208.7519 -3.00648,-698.86508 l -17.13128,47.08264 z"
         style="display:inline;fill:url(#linearGradient2856);fill-opacity:1;fill-rule:evenodd;stroke:none;stroke-width:1px;stroke-linecap:butt;stroke-linejoin:miter;stroke-opacity:1"
         inkscape:connector-curvature="0" />
    </g>
    <path
       sodipodi:nodetypes="cccscc"
       id="path4628"
       d="m 1167.7775,1406.0571 c -12.8356,-12.8356 -218.20594,-209.6489 -554.07195,-14.9749 L 378.97647,1279.9354 c 102.86326,-33.2794 372.12295,-148.2441 535.49399,-117.9903 163.37114,30.254 300.46274,122.5728 300.46274,122.5728 l -47.1557,121.5392 z"
       style="display:inline;opacity:0.84567901;fill:#d9d2b9;fill-opacity:1;fill-rule:evenodd;stroke:none;stroke-width:1px;stroke-linecap:butt;stroke-linejoin:miter;stroke-opacity:1"
       inkscape:connector-curvature="0" />
    <path
       style="display:inline;fill:url(#linearGradient2995);fill-opacity:1;fill-rule:evenodd;stroke:none;stroke-width:1px;stroke-linecap:butt;stroke-linejoin:miter;stroke-opacity:1"
       d="m 854.41736,1158.874 c -163.23097,-1.0705 -386.81503,93.3426 -478.4276,122.9821 -39.54697,12.7945 -116.33438,41.045 -207.05015,56.7827 86.97348,1.8902 160.18712,-10.8107 198.48445,-23.2009 102.86326,-33.2792 372.12296,-148.2441 535.494,-117.9902 63.6492,11.7868 139.52934,33.6405 208.46834,55.9318 -46.2761,-34.273 -114.87834,-73.7685 -199.90264,-89.5136 -17.8687,-3.3092 -37.0205,-4.8605 -57.0664,-4.9919 z"
       id="path4630"
       sodipodi:nodetypes="cscsscsc"
       inkscape:connector-curvature="0" />
    <g
       style="display:inline"
       id="g6418"
       transform="translate(584,78)">
      <path
         sodipodi:nodetypes="cscscscscsc"
         id="path5361"
         d="m -542.65703,805.60929 c 0,0 -216.31537,-196.65037 -143.70601,-422.0419 72.60935,-225.39156 406.91492,-261.69624 406.91492,-261.69624 0,0 189.086847,-9.07617 173.95998,-110.426724 -15.12698,-101.35057 -140.68065,-164.883756 -140.68065,-164.883756 0,0 -60.50783,-25.71581 -154.2949,1.5127 -93.78709,27.2285 -105.88867,58.995106 -105.88867,58.995106 0,0 201.80339,-125.067536 267.74701,36.30466 27.38294,67.00942 -121.01558,90.76169 -121.01558,90.76169 0,0 -157.32028,33.27931 -254.13278,137.655254 -125.26384,134.89955 -199.67571,378.17373 71.09668,633.81921 z"
         style="display:inline;fill:#d1c8a6;fill-opacity:1;fill-rule:evenodd;stroke:none;stroke-width:1px;stroke-linecap:butt;stroke-linejoin:miter;stroke-opacity:1"
         inkscape:connector-curvature="0" />
      <path
         id="path4649"
         d="m -251.05172,-90.944184 c 2.54796,4.70757 5.0035,9.69785 7.26094,15.0324 -0.14803,-4.71636 -1.20756,-9.68383 -3.34677,-14.91895 -1.31313,-0.04963 -2.60464,-0.06575 -3.91417,-0.11345 z m 136.19927,63.53318 c 0.28156,1.52921 0.56331,3.10461 0.79423,4.65154 15.126867,101.35055 -173.92211,110.38893 -173.92213,110.38891 0,0 -334.34338,36.342474 -406.95275,261.734044 -21.23884,65.9289 -17.71337,129.36664 -2.15559,186.17494 -11.73858,-52.31922 -12.66198,-109.72156 6.46676,-169.10039 72.6093,-225.3916 406.89604,-261.67732 406.89604,-261.67732 2e-5,0 189.105777,-9.095094 173.97881,-110.4456443 -1.11319,-7.4585797 -2.8901,-14.6873797 -5.10537,-21.7260797 z m -473.0953,774.480794 c 9.99712,10.8426 20.66041,21.662 31.88004,32.561 -6.34525,-6.394 -15.67402,-16.227 -26.49107,-28.8169 -1.80636,-1.2551 -3.61417,-2.4846 -5.38897,-3.7441 z m 34.43271,35.0569 c 3.90914,3.8559 6.58022,6.3534 6.58022,6.3534 -2.24326,-2.1181 -4.38417,-4.2374 -6.58022,-6.3534 z"
         style="display:inline;fill:#dbd5be;fill-opacity:1;fill-rule:evenodd;stroke:none;stroke-width:1px;stroke-linecap:butt;stroke-linejoin:miter;stroke-opacity:1"
         inkscape:connector-curvature="0" />
    </g>
    <path
       style="display:inline;fill:#c1b294;fill-opacity:1;stroke:none;stroke-width:0.82300001;stroke-miterlimit:4;stroke-opacity:1"
       d="m -170.18787,249.03372 c 0,17.4207 -13.79969,31.55923 -30.80289,31.55923 -17.00318,0 -30.80289,-14.13853 -30.80289,-31.55923 0,-17.4207 13.79971,-31.55924 30.80289,-31.55924 17.0032,0 30.80289,14.13854 30.80289,31.55924 z"
       id="path2361"
       inkscape:connector-curvature="0" />
  </g>
</svg>
