<?xml version="1.0" encoding="UTF-8" standalone="no"?>
<!-- Created with Inkscape (http://www.inkscape.org/) -->

<svg
   xmlns:dc="http://purl.org/dc/elements/1.1/"
   xmlns:cc="http://creativecommons.org/ns#"
   xmlns:rdf="http://www.w3.org/1999/02/22-rdf-syntax-ns#"
   xmlns:svg="http://www.w3.org/2000/svg"
   xmlns="http://www.w3.org/2000/svg"
   xmlns:xlink="http://www.w3.org/1999/xlink"
   xmlns:sodipodi="http://sodipodi.sourceforge.net/DTD/sodipodi-0.dtd"
   xmlns:inkscape="http://www.inkscape.org/namespaces/inkscape"
   width="1920"
   height="1080"
   id="svg2"
   sodipodi:version="0.32"
   inkscape:version="0.91 r13725"
   sodipodi:docname="background.svg"
   inkscape:output_extension="org.inkscape.output.svg.inkscape"
   sodipodi:modified="true"
   version="1.0"
   inkscape:export-filename="aptosid-keres-wide.png"
   inkscape:export-xdpi="90"
   inkscape:export-ydpi="90"
   style="display:inline">
  <defs
     id="defs4">
    <linearGradient
       id="linearGradient7162">
      <stop
         style="stop-color:#cccccc;stop-opacity:1;"
         offset="0"
         id="stop7164" />
      <stop
         style="stop-color:#666666;stop-opacity:1;"
         offset="1"
         id="stop7166" />
    </linearGradient>
    <linearGradient
       inkscape:collect="always"
       xlink:href="#linearGradient7162"
       id="linearGradient7168"
       x1="1734"
       y1="134"
       x2="1092"
       y2="1150"
       gradientUnits="userSpaceOnUse" />
    <filter
       id="filter3814"
       inkscape:label="Ink bleed"
       inkscape:menu="Protrusions"
       inkscape:menu-tooltip="Inky splotches underneath the object"
       color-interpolation-filters="sRGB">
      <feGaussianBlur
         id="feGaussianBlur3816"
         result="result1"
         in="SourceGraphic"
         stdDeviation="4.2000000000000002" />
      <feTurbulence
         id="feTurbulence3818"
         result="result0"
         numOctaves="4"
         baseFrequency="0.042000000000000003" />
      <feDisplacementMap
         id="feDisplacementMap3820"
         in2="result0"
         result="result2"
         scale="42"
         yChannelSelector="G"
         xChannelSelector="R"
         in="result1" />
      <feColorMatrix
         id="feColorMatrix3822"
         values="2 0 0 0 0 0 2 0 0 0 0 0 2 0 0 0 0 0 0.7 0"
         result="result3" />
      <feGaussianBlur
         id="feGaussianBlur3824"
         result="result4"
         in="SourceGraphic"
         stdDeviation="42" />
      <feComposite
         id="feComposite3826"
         in2="result3"
         in="result4" />
    </filter>
  </defs>
  <sodipodi:namedview
     id="base"
     pagecolor="#000000"
     bordercolor="#666666"
     borderopacity="1.0"
     gridtolerance="10000"
     guidetolerance="10"
     objecttolerance="10"
     inkscape:pageopacity="1"
     inkscape:pageshadow="2"
     inkscape:zoom="0.5"
     inkscape:cx="880.7192"
     inkscape:cy="476.30112"
     inkscape:document-units="px"
     inkscape:current-layer="layer9"
     inkscape:window-width="1920"
     inkscape:window-height="1160"
     inkscape:window-x="-3"
     inkscape:window-y="-3"
     showgrid="false"
     borderlayer="true"
     inkscape:window-maximized="1" />
  <metadata
     id="metadata7">
    <rdf:RDF>
      <cc:Work
         rdf:about="">
        <dc:format>image/svg+xml</dc:format>
        <dc:type
           rdf:resource="http://purl.org/dc/dcmitype/StillImage" />
        <dc:title></dc:title>
      </cc:Work>
    </rdf:RDF>
  </metadata>
  <g
     inkscape:groupmode="layer"
     id="layer9"
     inkscape:label="background"
     transform="translate(0,-120)">
    <rect
       style="fill:url(#linearGradient7168);fill-opacity:1;stroke:none"
       id="rect6392"
       width="1920"
       height="1200"
       x="0"
       y="-1.7053026e-13" />
    <path
       style="opacity:0.2;color:#000000;fill:#000000;fill-opacity:1;stroke:none;stroke-width:7;marker:none;visibility:visible;display:inline;overflow:visible;filter:url(#filter3814)"
       d="m 1162.8795,-832.70216 c 140.2135,2.50566 269.837,169.99699 269.837,169.99699 213.7008,-176.36501 212.3611,236.6464 212.3611,236.6464 198.8021,91.75088 147.3311,417.1675732 147.3311,417.1675732 l -62.0628,13.7616 c 49.8273,97.6051968 77.9826,207.7826968 77.9826,324.3437968 0,34.4121 -2.5533,68.0481 -7.2851,101.1884 105.1496,17.8125 307.5052,64.4983 272.5342,155.4258 l 18.6191,37.5074 c 0,0 93.7813,37.5177 75.0142,98.49 -11.2544,36.5632 -101.4967,109.868 -172.1554,162.9816 25.7678,10.1724 107.2948,46.9978 87.1575,102.2673 -23.818,65.3333 -327.3123,241.2342 -327.3123,241.2342 l 148.68,-226.123 c 0,0 -266.6452,-31.4146 -360.5017,-116.839 -11.8787,9.7616 -23.935,19.3107 -36.4279,28.3326 51.6598,24.565 85.6792,57.0007 69.6186,98.76 l 18.8878,37.5075 c 0,0 93.7812,37.5182 75.0154,98.4905 -18.7675,60.9716 -257.9655,225.0437 -257.9636,225.0437 l 117.3783,-211.0127 c 0,0 -132.6055,-18.355 -224.2337,-65.84 9.6237,131.172 -96.5222,291.8413 -272.5361,393.1524 -170.52156,98.15 -355.91402,110.9679 -466.00654,44.253 54.7258,-8.2659 114.74851,-28.9788 172.69468,-62.3327 154.5283,-88.9432 238.1355,-233.6798 186.7275,-322.9943 -51.2362,-89.016 -217.4692,-89.4025 -371.56543,-1.3489 46.51053,-60.1951 110.6004,-116.3426 188.34643,-161.0928 3.0625,-1.7627 6.102,-3.418 9.1736,-5.1267 -43.9195,-21.0444 -85.31946,-46.4013 -123.85413,-75.2843 -9.31867,42.7975 -25.58262,87.1642 -49.37995,130.3312 -31.43096,57.0134 -71.35533,104.1423 -114.41055,138.6963 61.83135,-112.993 59.61064,-233.5801 -5.66639,-269.5669 -65.49659,-36.1075 -169.58957,26.727 -232.05951,140.0448 -23.42725,42.494 -37.63967,86.1932 -42.90425,126.0141 C 149.54241,1116.9464 142.38521,1036.0318 163.67533,950.1074 127.60484,927.2875 -55.053457,809.6525 -73.780467,754.4757 -94.475917,693.5041 9.0595732,655.9858 9.0595732,655.9858 L 29.567533,618.4784 C 10.040783,572.4485 57.767873,537.7585 124.5496,512.4325 88.473663,484.8651 57.623433,457.3359 51.962623,440.6563 36.910403,396.2708 112.40638,369.15 112.40638,369.15 l 14.84105,-27.2538 c -27.910267,-65.7878 132.44511,-99.6701 217.21849,-112.7916 49.65307,-352.56776 357.60602,-624.40175 728.28768,-624.40175 177.9762,0 341.5133,62.56571 468.9772,166.75898 -23.8085,-67.66586 -40.4766,-122.77583 -40.4766,-122.77583 -88.1233,19.39688 -176.2025,-213.71029 -176.2025,-213.71029 -76.3771,16.81091 -373.18466,-77.98282 -373.18466,-77.98282 0,0 -97.9772,101.41608 -145.4409,25.63454 -47.4735,-75.76429 -145.44167,1.34916 -145.44167,1.34916 226.37317,-314.66279 288.45467,-88.23655 288.45467,-88.23655 l 62.87076,-50.72921 c 47.7768,-57.96208 99.8552,-78.61923 150.5696,-77.71299 z m -2.1578,33.45975 c -97.4105,-3.0522 -133.0302,89.31799 -133.0302,89.31592 44.6943,28.58062 340.8027,21.04722 340.8027,21.04722 -88.8341,-81.13047 -156.7499,-108.76428 -207.7725,-110.36314 z m 333.2473,136.53724 c -21.3166,-0.66402 -36.4272,7.28558 -36.4272,7.28558 l 107.9349,163.52082 c 26.0569,28.27435 11.1723,60.33451 -5.3976,82.03057 -12.9491,10.32529 -23.1998,19.93696 -23.7453,25.09475 0,0 12.2404,-10.03342 23.7453,-25.09475 24.0789,-19.2015 57.7442,-40.74526 57.7442,-40.74526 -20.3334,-178.28505 -83.1588,-210.82385 -123.8543,-212.09171 z m 147.0611,274.15379 c 47.7315,42.31746 14.5711,284.67444 14.5711,284.67748 l 106.8547,48.570503 C 1777.6385,-269.90903 1641.0301,-388.55138 1641.0301,-388.55138 z m -568.2765,91.74481 c -352.64266,0 -636.81231,280.344973 -636.81416,626.02077 0,4.9915 0.15749,9.8768 0.267,14.8404 173.08064,255.8922 633.71596,95.7345 901.25416,-92.2836 253.882,-178.422297 348.9424,14.6845 372.3745,78.7921 6e-4,-0.4551 0,-0.8957 0,-1.3489 0,-345.675797 -284.4402,-626.02077 -637.0852,-626.02077 z M 1149.928,107.4083 804.80704,370.7689 C 727.88094,240.2291 1149.928,107.4083 1149.928,107.4083 z m -579.33939,21.3168 c 59.82409,-1.9144 82.84061,247.1706 82.84061,247.1706 L 550.89066,138.1693 c 6.99215,-6.1183 13.50922,-9.2458 19.69795,-9.4442 z m -226.12269,117.919 c -120.93543,-0.4854 -198.33007,84.9985 -198.33007,84.9985 l 1.88895,42.6342 c 39.51771,0 229.6305,-78.5227 229.6305,-78.5227 l 5.66695,-46.1421 c -13.40786,-2.0801 -26.34528,-2.9181 -38.85633,-2.9679 z M 1432.4464,381.562 c -45.494,-1.1298 -109.8237,43.1737 -109.8237,43.1737 -565.26306,225.4303 -864.55503,7.8253 -864.55503,7.8253 83.12818,209.8707 897.77853,171.0308 947.66583,163.251 49.886,-7.7797 91.3084,-116.7649 66.3781,-186.7268 -7.0145,-19.6767 -21.8635,-27.0808 -39.6652,-27.5232 z m -1314.37315,8.0953 c 0,0 -86.707167,22.1591 -37.776807,37.5074 l 37.776807,-37.5074 z m 223.42486,15.1105 C 268.1283,438.115 165.02424,450.9099 165.02424,450.9099 l 25.09535,41.0153 c 59.24775,-15.8192 118.69571,-25.6141 159.20318,-31.301 -3.42899,-18.3581 -5.83556,-37.0445 -7.82466,-55.8564 z m 1461.43369,50.1901 c -15.5886,0.073 -31.5943,1.4593 -48.3011,4.3173 l 7.0163,63.1416 c 0,0 236.7879,107.9348 286.0265,107.9348 l 2.4296,-58.5548 c 0,0 -96.4846,-117.504 -247.1713,-116.8389 z M 328.00538,487.6078 C 161.80277,486.9428 55.471133,604.4468 55.471133,604.4468 l 2.69782,58.5548 c 54.318117,0 315.439587,-107.6648 315.439587,-107.6648 l 7.82541,-63.4116 c -18.42666,-2.858 -36.23446,-4.2488 -53.42857,-4.3174 z m 158.66422,66.6495 c 92.94938,119.5805 679.1723,302.4687 693.48,309.5027 14.3076,7.0341 107.1247,-35.2197 107.1247,-84.4589 0,-49.2393 -49.9195,-84.459 -49.9195,-84.459 C 1115.8181,758.1493 486.6696,554.2573 486.6696,554.2573 z m 1256.3584,73.3959 c -9.955,21.5904 -21.2081,42.471 -33.19,62.8715 132.4786,25.7155 288.8036,73.1016 253.3763,150.839 l 2.4292,4.0474 60.9826,-109.5537 c 0,0 -209.1323,-28.9619 -283.5981,-108.2042 z m -1333.53094,14.301 c -0.5946,0.8817 -0.99334,1.827 -1.62018,2.6984 0.82899,-0.3216 1.60018,-0.7664 2.42898,-1.0795 -0.267,-0.54 -0.53993,-1.0764 -0.81175,-1.6189 z m 1675.68304,9.4442 46.9524,51.539 c 60.9723,-21.1026 -46.9524,-51.539 -46.9524,-51.539 z m -2068.565267,32.92 c 0,0 -118.785553,30.4364 -51.5396,51.539 l 51.5396,-51.539 z m 1603.366767,16.73 c -19.7852,0.079 -40.3158,1.5249 -61.5221,4.5874 l 8.9049,67.9984 c 0,0 300.4233,115.49 362.9313,115.49 l 2.9672,-62.8716 c 0,0 -122.012,-125.919 -313.2813,-125.2042 z m -1046.1552,0.267 c 40.99292,107.8401 -60.98253,397.199 -60.98253,397.199 0,0 53.00628,-75.3892 92.2836,-206.6942 C 644.40553,760.5146 573.8264,701.3154 573.8264,701.3154 z M 300.21278,715.077 C 202.28589,753.5346 81.375953,768.5049 81.375953,768.5049 l 85.537257,169.4575 c 9.69967,-34.9328 23.68757,-70.382 42.90486,-105.2364 25.43818,-46.147 56.63185,-85.8401 90.39471,-117.649 z M 1305.8927,881.5659 c -15.5882,0.073 -31.5942,1.46 -48.3005,4.3174 l 7.0164,63.4116 c 0,0 236.7871,107.6653 286.0256,107.6653 l 2.1596,-58.5547 c 0,0 -96.2125,-117.504 -246.9011,-116.8396 z m -1048.58357,8.3653 c -2.23727,-0.1153 -4.4175,-0.061 -6.74579,0 -8.59892,0.1577 -17.69423,1.5346 -27.25433,4.5874 -38.5341,86.8061 -25.63418,168.6474 -25.63418,168.6474 0,0 17.02674,-72.5476 49.38,-109.2837 32.35456,-36.7344 62.60151,-46.6816 62.60151,-46.6816 4.03713,3.0698 -18.79076,-15.5067 -52.34721,-17.2695 z m 1720.74627,21.8569 59.3637,55.0463 c 77.3905,-22.6215 -59.3637,-55.0463 -59.3637,-55.0463 z M 871.72664,1014.326 c -3.1912,-0.085 -6.4855,-0.1275 -9.9836,0 -112.0144,4.1481 -141.125,58.2848 -141.125,58.2848 0,0 91.339,-20.9121 141.125,-4.3179 49.7827,16.5952 66.3782,45.6025 66.3782,45.6025 -4.0177,8.0384 42.5248,-96.7793 -56.3946,-99.5694 z m 400.70606,20.7774 c -58.9681,231.7761 -547.49716,522.9427 -547.49716,522.9427 0,0 168.2462,-34.5414 378.84976,-177.5521 210.6033,-143.0107 168.6474,-345.3906 168.6474,-345.3906 z m 315.7095,43.1737 46.9511,51.539 c 60.9728,-21.1026 -46.9511,-51.539 -46.9511,-51.539 z"
       id="outline-7"
       inkscape:connector-curvature="0" />
  </g>
</svg>
