<?xml version="1.0" encoding="UTF-8" standalone="no"?>
<!-- Created with Inkscape (http://www.inkscape.org/) -->

<svg
   xmlns:dc="http://purl.org/dc/elements/1.1/"
   xmlns:cc="http://creativecommons.org/ns#"
   xmlns:rdf="http://www.w3.org/1999/02/22-rdf-syntax-ns#"
   xmlns:svg="http://www.w3.org/2000/svg"
   xmlns="http://www.w3.org/2000/svg"
   xmlns:xlink="http://www.w3.org/1999/xlink"
   xmlns:sodipodi="http://sodipodi.sourceforge.net/DTD/sodipodi-0.dtd"
   xmlns:inkscape="http://www.inkscape.org/namespaces/inkscape"
   width="110"
   height="90"
   id="svg2"
   version="1.1"
   inkscape:version="0.48.3.1 r9886"
   sodipodi:docname="a.svg"
   inkscape:export-filename="aptosid.png"
   inkscape:export-xdpi="90"
   inkscape:export-ydpi="90"
   style="display:inline">
  <defs
     id="defs4">
    <linearGradient
       id="linearGradient3800">
      <stop
         style="stop-color:#ffffff;stop-opacity:1;"
         offset="0"
         id="stop3802" />
      <stop
         style="stop-color:#7d7d7d;stop-opacity:1;"
         offset="1"
         id="stop3804" />
    </linearGradient>
    <linearGradient
       id="linearGradient3792">
      <stop
         style="stop-color:#7d7d7d;stop-opacity:1;"
         offset="0"
         id="stop3794" />
      <stop
         style="stop-color:#ffffff;stop-opacity:1;"
         offset="1"
         id="stop3796" />
    </linearGradient>
    <linearGradient
       inkscape:collect="always"
       xlink:href="#linearGradient3800"
       id="linearGradient3037"
       gradientUnits="userSpaceOnUse"
       x1="533.45587"
       y1="1479.463"
       x2="533.45587"
       y2="1584.3236"
       gradientTransform="matrix(0.62361797,0,0,0.62361797,35.067928,599.96861)" />
    <linearGradient
       inkscape:collect="always"
       xlink:href="#linearGradient3792"
       id="linearGradient3039"
       gradientUnits="userSpaceOnUse"
       x1="163.18445"
       y1="1458.7415"
       x2="163.18445"
       y2="1583.7379"
       gradientTransform="matrix(0.62361797,0,0,0.62361797,35.067928,599.96861)" />
  </defs>
  <sodipodi:namedview
     id="base"
     pagecolor="#000000"
     bordercolor="#666666"
     borderopacity="1.0"
     inkscape:pageopacity="0"
     inkscape:pageshadow="2"
     inkscape:zoom="1"
     inkscape:cx="5.4873454"
     inkscape:cy="138.477"
     inkscape:document-units="px"
     inkscape:current-layer="aptosid"
     showgrid="false"
     showborder="true"
     fit-margin-top="0"
     fit-margin-left="0"
     fit-margin-right="0"
     fit-margin-bottom="0"
     inkscape:window-width="1274"
     inkscape:window-height="1550"
     inkscape:window-x="1200"
     inkscape:window-y="0"
     inkscape:window-maximized="0"
     borderlayer="false" />
  <metadata
     id="metadata7">
    <rdf:RDF>
      <cc:Work
         rdf:about="">
        <dc:format>image/svg+xml</dc:format>
        <dc:type
           rdf:resource="http://purl.org/dc/dcmitype/StillImage" />
        <dc:title />
      </cc:Work>
    </rdf:RDF>
  </metadata>
  <g
     inkscape:label="aptosid"
     inkscape:groupmode="layer"
     id="aptosid"
     transform="translate(-84.85552,-1503.238)"
     style="display:inline">
    <path
       sodipodi:nodetypes="ccssscccccccccscccscscs"
       inkscape:connector-curvature="0"
       id="path3962"
       d="m 113.83365,1526.475 c -5.93413,0 -11.14719,2.2217 -15.648917,6.6649 -4.472513,4.4433 -6.723387,9.6174 -6.723381,15.5514 -6e-6,5.9341 2.211892,11.118 6.625941,15.532 4.414037,4.414 9.597847,6.6259 15.531987,6.6259 5.6818,0 10.3436,-2.1815 13.99243,-6.509 l 0,5.5736 9.97511,0 0,-7.23 -2.90372,0 0,-34.8057 -7.03242,0 0,5.1253 c -3.44942,-4.3555 -8.05834,-6.5284 -13.81703,-6.5284 z m 0,7.23 c 3.91707,0 7.19106,1.5299 9.82198,4.5992 2.51392,2.9524 3.76115,6.4116 3.7612,10.3871 -5e-5,3.9464 -1.296,7.3958 -3.89762,10.3482 -2.71861,3.0401 -6.01209,4.5602 -9.89993,4.5602 -3.94636,0 -7.43471,-1.481 -10.4456,-4.4627 -2.98168,-3.0109 -4.462782,-6.4993 -4.462769,-10.4457 -1.3e-5,-3.9463 1.529799,-7.4151 4.599179,-10.4261 3.06936,-3.0401 6.5772,-4.5602 10.52356,-4.5602 z"
       style="font-size:144px;font-style:normal;font-variant:normal;font-weight:bold;font-stretch:normal;text-align:center;line-height:125%;letter-spacing:0px;word-spacing:0px;writing-mode:lr-tb;text-anchor:middle;fill:url(#linearGradient3037);fill-opacity:1;stroke:url(#linearGradient3039);stroke-width:0.93542695;stroke-miterlimit:4;stroke-dasharray:none;font-family:Dustismo;-inkscape-font-specification:Dustismo Bold" />
  </g>
</svg>
