<?xml version="1.0" encoding="UTF-8" standalone="no"?>
<!-- Created with Inkscape (http://www.inkscape.org/) -->

<svg
   xmlns:dc="http://purl.org/dc/elements/1.1/"
   xmlns:cc="http://creativecommons.org/ns#"
   xmlns:rdf="http://www.w3.org/1999/02/22-rdf-syntax-ns#"
   xmlns:svg="http://www.w3.org/2000/svg"
   xmlns="http://www.w3.org/2000/svg"
   xmlns:xlink="http://www.w3.org/1999/xlink"
   xmlns:sodipodi="http://sodipodi.sourceforge.net/DTD/sodipodi-0.dtd"
   xmlns:inkscape="http://www.inkscape.org/namespaces/inkscape"
   width="110"
   height="90"
   id="svg2"
   version="1.1"
   inkscape:version="0.48.3.1 r9886"
   sodipodi:docname="p.svg"
   inkscape:export-filename="aptosid.png"
   inkscape:export-xdpi="90"
   inkscape:export-ydpi="90"
   style="display:inline">
  <defs
     id="defs4">
    <linearGradient
       id="linearGradient3800">
      <stop
         style="stop-color:#ffffff;stop-opacity:1;"
         offset="0"
         id="stop3802" />
      <stop
         style="stop-color:#7d7d7d;stop-opacity:1;"
         offset="1"
         id="stop3804" />
    </linearGradient>
    <linearGradient
       id="linearGradient3792">
      <stop
         style="stop-color:#7d7d7d;stop-opacity:1;"
         offset="0"
         id="stop3794" />
      <stop
         style="stop-color:#ffffff;stop-opacity:1;"
         offset="1"
         id="stop3796" />
    </linearGradient>
    <linearGradient
       inkscape:collect="always"
       xlink:href="#linearGradient3800"
       id="linearGradient3052"
       gradientUnits="userSpaceOnUse"
       x1="533.45587"
       y1="1479.463"
       x2="533.45587"
       y2="1584.3236"
       gradientTransform="matrix(0.62361797,0,0,0.62361797,-8.932072,599.96861)" />
    <linearGradient
       inkscape:collect="always"
       xlink:href="#linearGradient3792"
       id="linearGradient3054"
       gradientUnits="userSpaceOnUse"
       x1="163.18445"
       y1="1458.7415"
       x2="163.18445"
       y2="1583.7379"
       gradientTransform="matrix(0.62361797,0,0,0.62361797,-8.932072,599.96861)" />
  </defs>
  <sodipodi:namedview
     id="base"
     pagecolor="#000000"
     bordercolor="#666666"
     borderopacity="1.0"
     inkscape:pageopacity="0"
     inkscape:pageshadow="2"
     inkscape:zoom="1"
     inkscape:cx="5.4873454"
     inkscape:cy="138.477"
     inkscape:document-units="px"
     inkscape:current-layer="aptosid"
     showgrid="false"
     showborder="true"
     fit-margin-top="0"
     fit-margin-left="0"
     fit-margin-right="0"
     fit-margin-bottom="0"
     inkscape:window-width="1274"
     inkscape:window-height="1550"
     inkscape:window-x="1200"
     inkscape:window-y="0"
     inkscape:window-maximized="0"
     borderlayer="false" />
  <metadata
     id="metadata7">
    <rdf:RDF>
      <cc:Work
         rdf:about="">
        <dc:format>image/svg+xml</dc:format>
        <dc:type
           rdf:resource="http://purl.org/dc/dcmitype/StillImage" />
        <dc:title />
      </cc:Work>
    </rdf:RDF>
  </metadata>
  <g
     inkscape:label="aptosid"
     inkscape:groupmode="layer"
     id="aptosid"
     transform="translate(-84.85552,-1503.238)"
     style="display:inline">
    <path
       style="fill:url(#linearGradient3052);fill-opacity:1;fill-rule:nonzero;stroke:url(#linearGradient3054);stroke-width:0.93542695;stroke-miterlimit:4;stroke-dasharray:none"
       d="m 120.74579,1526.475 c -5.64181,0 -10.29946,2.1924 -13.95346,6.5479 l 0,-5.6125 -7.0647,0 0,52.3059 -8.24345,0 0,7.2301 15.30815,0 0,-22.6256 c 3.654,4.3556 8.31165,6.5284 13.95346,6.5284 5.90485,0 10.94251,-2.2216 15.12273,-6.6649 4.09245,-4.3848 6.1387,-9.5393 6.13874,-15.4735 -4e-5,-5.934 -2.04629,-11.0984 -6.13874,-15.5125 -4.18022,-4.4725 -9.21788,-6.7233 -15.12273,-6.7233 z m 0,7.2495 c 3.91707,0 7.24952,1.5298 9.99737,4.5992 2.66009,2.9817 3.97553,6.4409 3.97557,10.3871 -4e-5,3.9171 -1.34472,7.3568 -4.03403,10.3092 -2.77709,3.0694 -6.0803,4.5992 -9.93891,4.5992 -3.88789,0 -7.19112,-1.5298 -9.88045,-4.5992 -2.57244,-2.9232 -3.85865,-6.3628 -3.85864,-10.3092 -10e-6,-3.9755 1.27646,-7.4346 3.81966,-10.3871 2.68934,-3.0694 6.00231,-4.5992 9.91943,-4.5992 z"
       id="path3127"
       inkscape:connector-curvature="0"
       sodipodi:nodetypes="cccccccccsccccscccscscs"
       inkscape:export-filename="logo-current.png"
       inkscape:export-xdpi="90"
       inkscape:export-ydpi="90" />
  </g>
</svg>
