<?xml version="1.0" encoding="UTF-8" standalone="no"?>
<!-- Created with Inkscape (http://www.inkscape.org/) -->

<svg
   xmlns:dc="http://purl.org/dc/elements/1.1/"
   xmlns:cc="http://creativecommons.org/ns#"
   xmlns:rdf="http://www.w3.org/1999/02/22-rdf-syntax-ns#"
   xmlns:svg="http://www.w3.org/2000/svg"
   xmlns="http://www.w3.org/2000/svg"
   xmlns:xlink="http://www.w3.org/1999/xlink"
   xmlns:sodipodi="http://sodipodi.sourceforge.net/DTD/sodipodi-0.dtd"
   xmlns:inkscape="http://www.inkscape.org/namespaces/inkscape"
   width="180"
   height="90"
   id="svg2"
   version="1.1"
   inkscape:version="0.48.3.1 r9886"
   sodipodi:docname="sid.svg"
   inkscape:export-filename="aptosid.png"
   inkscape:export-xdpi="90"
   inkscape:export-ydpi="90"
   style="display:inline">
  <defs
     id="defs4">
    <linearGradient
       id="linearGradient3800">
      <stop
         style="stop-color:#ffffff;stop-opacity:1;"
         offset="0"
         id="stop3802" />
      <stop
         style="stop-color:#7d7d7d;stop-opacity:1;"
         offset="1"
         id="stop3804" />
    </linearGradient>
    <linearGradient
       id="linearGradient3792">
      <stop
         style="stop-color:#7d7d7d;stop-opacity:1;"
         offset="0"
         id="stop3794" />
      <stop
         style="stop-color:#ffffff;stop-opacity:1;"
         offset="1"
         id="stop3796" />
    </linearGradient>
    <linearGradient
       id="linearGradient3894">
      <stop
         style="stop-color:#ffffff;stop-opacity:1;"
         offset="0"
         id="stop3896" />
      <stop
         style="stop-color:#999999;stop-opacity:1;"
         offset="1"
         id="stop3898" />
    </linearGradient>
    <linearGradient
       inkscape:collect="always"
       xlink:href="#linearGradient3894"
       id="linearGradient4054"
       gradientUnits="userSpaceOnUse"
       x1="90.429443"
       y1="1554.4857"
       x2="90.429443"
       y2="1502.4587"
       gradientTransform="matrix(0.62361797,0,0,0.62361797,-135.93207,599.96861)" />
    <linearGradient
       inkscape:collect="always"
       xlink:href="#linearGradient3800"
       id="linearGradient3031"
       gradientUnits="userSpaceOnUse"
       x1="533.45587"
       y1="1479.463"
       x2="533.45587"
       y2="1584.3236"
       gradientTransform="matrix(0.62361797,0,0,0.62361797,-135.93207,599.96861)" />
    <linearGradient
       inkscape:collect="always"
       xlink:href="#linearGradient3792"
       id="linearGradient3033"
       gradientUnits="userSpaceOnUse"
       x1="163.18445"
       y1="1458.7415"
       x2="163.18445"
       y2="1583.7379"
       gradientTransform="matrix(0.62361797,0,0,0.62361797,-135.93207,599.96861)" />
    <linearGradient
       inkscape:collect="always"
       xlink:href="#linearGradient3800"
       id="linearGradient3042"
       gradientUnits="userSpaceOnUse"
       x1="533.45587"
       y1="1479.463"
       x2="533.45587"
       y2="1584.3236"
       gradientTransform="matrix(0.62361797,0,0,0.62361797,-135.93207,599.96861)" />
    <linearGradient
       inkscape:collect="always"
       xlink:href="#linearGradient3792"
       id="linearGradient3044"
       gradientUnits="userSpaceOnUse"
       x1="163.18445"
       y1="1458.7415"
       x2="163.18445"
       y2="1583.7379"
       gradientTransform="matrix(0.62361797,0,0,0.62361797,-135.93207,599.96861)" />
    <linearGradient
       inkscape:collect="always"
       xlink:href="#linearGradient3800"
       id="linearGradient3047"
       gradientUnits="userSpaceOnUse"
       x1="533.45587"
       y1="1479.463"
       x2="533.45587"
       y2="1584.3236"
       gradientTransform="matrix(0.62361797,0,0,0.62361797,-135.93207,599.96861)" />
    <linearGradient
       inkscape:collect="always"
       xlink:href="#linearGradient3792"
       id="linearGradient3049"
       gradientUnits="userSpaceOnUse"
       x1="163.18445"
       y1="1458.7415"
       x2="163.18445"
       y2="1583.7379"
       gradientTransform="matrix(0.62361797,0,0,0.62361797,-135.93207,599.96861)" />
  </defs>
  <sodipodi:namedview
     id="base"
     pagecolor="#000000"
     bordercolor="#666666"
     borderopacity="1.0"
     inkscape:pageopacity="0"
     inkscape:pageshadow="2"
     inkscape:zoom="1"
     inkscape:cx="5.4873454"
     inkscape:cy="138.477"
     inkscape:document-units="px"
     inkscape:current-layer="aptosid"
     showgrid="false"
     showborder="true"
     fit-margin-top="0"
     fit-margin-left="0"
     fit-margin-right="0"
     fit-margin-bottom="0"
     inkscape:window-width="1274"
     inkscape:window-height="1550"
     inkscape:window-x="1200"
     inkscape:window-y="0"
     inkscape:window-maximized="0"
     borderlayer="false" />
  <metadata
     id="metadata7">
    <rdf:RDF>
      <cc:Work
         rdf:about="">
        <dc:format>image/svg+xml</dc:format>
        <dc:type
           rdf:resource="http://purl.org/dc/dcmitype/StillImage" />
        <dc:title />
      </cc:Work>
    </rdf:RDF>
  </metadata>
  <g
     inkscape:label="aptosid"
     inkscape:groupmode="layer"
     id="aptosid"
     transform="translate(-84.85552,-1503.238)"
     style="display:inline">
    <path
       sodipodi:nodetypes="ccccc"
       inkscape:connector-curvature="0"
       id="path4055"
       d="m 143.60995,1508.3518 6.1707,6.1701 -6.1707,6.1707 -6.17008,-6.1707 z"
       style="fill:#af0000;fill-opacity:1;fill-rule:nonzero;stroke:url(#linearGradient4054);stroke-width:0.93542695;stroke-miterlimit:4;stroke-dasharray:none" />
    <path
       style="fill:url(#linearGradient3047);fill-opacity:1;fill-rule:nonzero;stroke:url(#linearGradient3049);stroke-width:0.93542695;stroke-miterlimit:4;stroke-dasharray:none"
       d="m 181.15096,1510.4363 0,7.2301 8.26293,0 0,15.3565 c -3.44941,-4.3555 -8.03886,-6.5479 -13.79754,-6.5479 -5.93414,0 -11.16668,2.2217 -15.6684,6.6649 -4.47252,4.4433 -6.7039,9.6369 -6.7039,15.5709 0,5.9342 2.21189,11.118 6.62594,15.532 4.41403,4.4141 9.57837,6.6064 15.5125,6.6064 5.70023,0 10.37736,-2.1728 14.0314,-6.5284 l 0,5.6125 7.07947,0 0,-59.497 z m -6.27516,23.2882 c 0.24322,-0.012 0.4939,0 0.74055,0 3.91707,0 7.19105,1.5298 9.82198,4.5992 2.51392,2.9525 3.76116,6.4116 3.7612,10.3871 -4e-5,3.9464 -1.296,7.3957 -3.89762,10.3482 -2.71862,3.0401 -6.03158,4.5602 -9.91942,4.5602 -3.94635,0 -7.41522,-1.4811 -10.42611,-4.4628 -2.98169,-3.0109 -4.48226,-6.4992 -4.48226,-10.4456 0,-3.9462 1.54929,-7.4152 4.61867,-10.4261 2.87752,-2.8502 6.13469,-4.3821 9.78301,-4.5602 z"
       id="path3129"
       inkscape:connector-curvature="0"
       sodipodi:nodetypes="ccccccssscccccsscccscscs"
       inkscape:export-filename="logo-current.png"
       inkscape:export-xdpi="90"
       inkscape:export-ydpi="90" />
    <path
       inkscape:connector-curvature="0"
       id="path4040"
       style="font-size:144px;font-style:normal;font-variant:normal;font-weight:bold;font-stretch:normal;text-align:start;line-height:125%;letter-spacing:0px;word-spacing:0px;writing-mode:lr-tb;text-anchor:start;fill:url(#linearGradient3042);fill-opacity:1;stroke:url(#linearGradient3044);stroke-width:0.93542695;stroke-miterlimit:4;stroke-dasharray:none;font-family:Dustismo;-inkscape-font-specification:Dustismo Bold"
       d="m 122.35413,1541.3898 c -0.17542,-2.6894 -1.71008,-4.6917 -4.60411,-6.0071 -2.25082,-1.0232 -4.91092,-1.5348 -7.98031,-1.5348 -2.22164,0 -4.3556,0.4093 -6.40187,1.2278 -2.6893,1.0524 -4.034,2.4993 -4.034,4.341 0,1.9585 1.50547,3.464 4.51636,4.5163 1.90011,0.6723 4.39483,0.7111 9.23734,1.3145 9.40473,1.1719 15.77124,4.8492 15.93151,12.7169 0.0839,4.1209 -2.04628,7.3811 -6.13877,9.7782 -3.42011,2.0169 -7.36649,3.0254 -11.83901,3.0254 -4.91093,0 -9.09111,-0.9939 -12.54052,-2.9816 -4.034,-2.3094 -6.37257,-5.7149 -7.01571,-10.2166 l 7.05955,-1.4908 c 0.73081,3.1862 2.76244,5.364 5.7076,6.2995 2.9451,0.9354 5.0117,1.232 7.32015,1.1692 2.86478,-0.078 5.66127,-0.8526 7.26665,-1.7685 1.70204,-0.9712 2.83715,-1.9257 2.90125,-3.5517 0.11406,-2.8918 -2.43628,-4.5331 -7.63957,-5.4685 -3.8002,-0.4678 -7.80707,-0.7683 -11.60977,-1.6788 -3.0821,-0.7379 -5.8925,-1.872 -7.84879,-4.0778 -1.79228,-2.0209 -2.85012,-4.1071 -2.85012,-7.5857 0,-3.5371 1.50548,-6.3288 4.87445,-8.8135 3.36903,-2.4848 7.97308,-3.9463 13.41021,-3.9463 4.88181,0 9.03274,0.9938 12.45291,2.9816 4.00475,2.3386 6.32872,5.7441 6.9718,10.2166 l -7.14723,1.5347"
       sodipodi:nodetypes="ccscccsscscccsssscsaczsccc"
       inkscape:export-filename="logo-current.png"
       inkscape:export-xdpi="90"
       inkscape:export-ydpi="90" />
    <path
       inkscape:connector-curvature="0"
       id="path4336"
       style="font-size:144px;font-style:normal;font-variant:normal;font-weight:bold;font-stretch:normal;text-align:start;line-height:125%;letter-spacing:0px;word-spacing:0px;writing-mode:lr-tb;text-anchor:start;fill:url(#linearGradient3031);fill-opacity:1;stroke:url(#linearGradient3033);stroke-width:0.93542695;stroke-miterlimit:4;stroke-dasharray:none;font-family:Dustismo;-inkscape-font-specification:Dustismo Bold"
       d="m 134.47291,1527.4023 12.67211,0 0,42.5327 -7.23494,0 0,-35.2978 -5.43717,0 0,-7.2349"
       sodipodi:nodetypes="ccccccc" />
  </g>
</svg>
