<?xml version="1.0" encoding="UTF-8" standalone="no"?>
<!-- Created with Inkscape (http://www.inkscape.org/) -->

<svg
   xmlns:dc="http://purl.org/dc/elements/1.1/"
   xmlns:cc="http://creativecommons.org/ns#"
   xmlns:rdf="http://www.w3.org/1999/02/22-rdf-syntax-ns#"
   xmlns:svg="http://www.w3.org/2000/svg"
   xmlns="http://www.w3.org/2000/svg"
   xmlns:sodipodi="http://sodipodi.sourceforge.net/DTD/sodipodi-0.dtd"
   xmlns:inkscape="http://www.inkscape.org/namespaces/inkscape"
   width="180"
   height="90"
   id="svg2"
   version="1.1"
   inkscape:version="0.48.3.1 r9886"
   sodipodi:docname="sids.svg"
   inkscape:export-filename="aptosid.png"
   inkscape:export-xdpi="90"
   inkscape:export-ydpi="90"
   style="display:inline">
  <defs
     id="defs4">
    <filter
       inkscape:collect="always"
       id="filter3786"
       color-interpolation-filters="sRGB">
      <feGaussianBlur
         inkscape:collect="always"
         stdDeviation="4.9815619"
         id="feGaussianBlur3788" />
    </filter>
  </defs>
  <sodipodi:namedview
     id="base"
     pagecolor="#000000"
     bordercolor="#666666"
     borderopacity="1.0"
     inkscape:pageopacity="0"
     inkscape:pageshadow="2"
     inkscape:zoom="1"
     inkscape:cx="5.4873454"
     inkscape:cy="138.477"
     inkscape:document-units="px"
     inkscape:current-layer="aptosid"
     showgrid="false"
     showborder="true"
     fit-margin-top="0"
     fit-margin-left="0"
     fit-margin-right="0"
     fit-margin-bottom="0"
     inkscape:window-width="1274"
     inkscape:window-height="1550"
     inkscape:window-x="2480"
     inkscape:window-y="0"
     inkscape:window-maximized="0"
     borderlayer="false" />
  <metadata
     id="metadata7">
    <rdf:RDF>
      <cc:Work
         rdf:about="">
        <dc:format>image/svg+xml</dc:format>
        <dc:type
           rdf:resource="http://purl.org/dc/dcmitype/StillImage" />
        <dc:title />
      </cc:Work>
    </rdf:RDF>
  </metadata>
  <g
     inkscape:label="aptosid"
     inkscape:groupmode="layer"
     id="aptosid"
     transform="translate(-84.85552,-1503.238)"
     style="display:inline">
    <path
       inkscape:export-ydpi="90"
       inkscape:export-xdpi="90"
       inkscape:export-filename="logo-current.png"
       sodipodi:nodetypes="ccccccssscccccsscccscscs"
       inkscape:connector-curvature="0"
       id="path3873"
       d="m 508.45717,1459.9767 0,11.5937 13.25,0 0,24.625 c -5.5313,-6.9844 -12.89068,-10.4999 -22.125,-10.5 -9.51566,10e-5 -17.90627,3.5626 -25.125,10.6875 -7.17188,7.1251 -10.75,15.4532 -10.75,24.9687 0,9.5157 3.54687,17.8282 10.625,24.9063 7.0781,7.0781 15.35935,10.5937 24.875,10.5937 9.14058,0 16.64057,-3.4843 22.5,-10.4687 l 0,9 11.35225,0 0,-95.4062 z m -10.0625,37.3437 c 0.39002,-0.019 0.79199,0 1.1875,0 6.2812,0 11.53119,2.4531 15.75,7.375 4.03119,4.7344 6.03119,10.2813 6.03125,16.6562 -6e-5,6.3282 -2.07819,11.8594 -6.25,16.5938 -4.35943,4.875 -9.67192,7.3125 -15.90625,7.3125 -6.32815,0 -11.89065,-2.375 -16.71875,-7.1563 -4.78127,-4.8281 -7.18751,-10.4218 -7.1875,-16.75 -1e-5,-6.328 2.48435,-11.8906 7.40625,-16.7187 4.61423,-4.5704 9.83725,-7.0269 15.6875,-7.3125 z"
       style="opacity:0.8;fill:#000000;fill-opacity:1;fill-rule:nonzero;stroke:#000000;stroke-width:1.5;stroke-miterlimit:4;stroke-opacity:1;stroke-dasharray:none;filter:url(#filter3786)"
       transform="matrix(0.62361797,0,0,0.38196218,-134.68484,976.0724)" />
    <path
       inkscape:export-ydpi="90"
       inkscape:export-xdpi="90"
       inkscape:export-filename="logo-current.png"
       sodipodi:nodetypes="ccscccsscscccsssscsaczsccc"
       d="m 414.17377,1509.6121 c -0.2813,-4.3126 -2.7422,-7.5235 -7.3829,-9.6328 -3.6093,-1.6407 -7.8749,-2.461 -12.7968,-2.461 -3.5625,0 -6.9844,0.6563 -10.2657,1.9688 -4.3124,1.6875 -6.4687,4.0078 -6.4687,6.9609 0,3.1406 2.4141,5.5547 7.2422,7.2422 3.0469,1.0781 7.0473,1.1402 14.8125,2.1078 15.0809,1.8793 25.2899,7.7759 25.5469,20.3922 0.1345,6.608 -3.2813,11.8359 -9.8438,15.6797 -5.4843,3.2343 -11.8125,4.8515 -18.9844,4.8515 -7.8749,0 -14.578,-1.5938 -20.1093,-4.7812 -6.4687,-3.7032 -10.2187,-9.1641 -11.25,-16.3828 l 11.3203,-2.3906 c 1.1719,5.1093 4.4297,8.6015 9.1524,10.1015 4.7226,1.5 8.0365,1.9757 11.7382,1.875 4.5938,-0.125 9.0781,-1.3672 11.6524,-2.836 2.7293,-1.5573 4.5495,-3.0879 4.6523,-5.6952 0.1829,-4.6371 -3.9067,-7.2691 -12.2504,-8.7691 -6.0938,-0.75 -12.519,-1.2319 -18.6168,-2.6919 -4.9423,-1.1833 -9.4489,-3.0019 -12.5859,-6.539 -2.874,-3.2406 -4.5703,-6.586 -4.5703,-12.1641 0,-5.6719 2.4141,-10.1484 7.8164,-14.1328 5.4024,-3.9844 12.7852,-6.3281 21.5039,-6.3281 7.8282,0 14.4844,1.5937 19.9688,4.7812 6.4218,3.75 10.1484,9.2109 11.1796,16.3828 l -11.4609,2.461"
       style="font-size:144px;font-style:normal;font-variant:normal;font-weight:bold;font-stretch:normal;text-align:start;line-height:125%;letter-spacing:0px;word-spacing:0px;writing-mode:lr-tb;text-anchor:start;opacity:0.8;fill:#000000;fill-opacity:1;stroke:#000000;stroke-width:1.5;stroke-miterlimit:4;stroke-opacity:1;stroke-dasharray:none;filter:url(#filter3786);font-family:Dustismo;-inkscape-font-specification:Dustismo Bold"
       id="path3875"
       inkscape:connector-curvature="0"
       transform="matrix(0.62361797,0,0,0.38196218,-134.68484,976.0724)" />
    <path
       sodipodi:nodetypes="ccccccc"
       d="m 433.60678,1487.1824 20.32031,0 0,68.2031 -11.60156,0 0,-56.6016 -8.71875,0 0,-11.6015"
       style="font-size:144px;font-style:normal;font-variant:normal;font-weight:bold;font-stretch:normal;text-align:start;line-height:125%;letter-spacing:0px;word-spacing:0px;writing-mode:lr-tb;text-anchor:start;opacity:0.8;fill:#000000;fill-opacity:1;stroke:#000000;stroke-width:1.5;stroke-miterlimit:4;stroke-opacity:1;stroke-dasharray:none;filter:url(#filter3786);font-family:Dustismo;-inkscape-font-specification:Dustismo Bold"
       id="path3879"
       inkscape:connector-curvature="0"
       transform="matrix(0.62361797,0,0,0.38196218,-134.68484,976.0724)" />
    <path
       style="opacity:0.8;fill:#000000;fill-opacity:1;fill-rule:nonzero;stroke:#000000;stroke-width:1.5;stroke-miterlimit:4;stroke-opacity:1;stroke-dasharray:none;filter:url(#filter3786)"
       d="m 448.25844,1456.6341 9.895,9.894 -9.895,9.895 -9.894,-9.895 z"
       id="path3881"
       inkscape:connector-curvature="0"
       sodipodi:nodetypes="ccccc"
       transform="matrix(0.62361797,0,0,0.38196218,-134.68484,976.0724)" />
  </g>
</svg>
