<?xml version="1.0" encoding="UTF-8" standalone="no"?>
<!-- Created with Inkscape (http://www.inkscape.org/) -->

<svg
   xmlns:dc="http://purl.org/dc/elements/1.1/"
   xmlns:cc="http://creativecommons.org/ns#"
   xmlns:rdf="http://www.w3.org/1999/02/22-rdf-syntax-ns#"
   xmlns:svg="http://www.w3.org/2000/svg"
   xmlns="http://www.w3.org/2000/svg"
   xmlns:xlink="http://www.w3.org/1999/xlink"
   xmlns:sodipodi="http://sodipodi.sourceforge.net/DTD/sodipodi-0.dtd"
   xmlns:inkscape="http://www.inkscape.org/namespaces/inkscape"
   width="1920"
   height="1200"
   id="svg2"
   sodipodi:version="0.32"
   inkscape:version="0.47 r22583"
   sodipodi:docname="background.svg"
   inkscape:output_extension="org.inkscape.output.svg.inkscape"
   version="1.0"
   inkscape:export-filename="/usr/share/apps/kdm/themes/aptosid-pontos-dev/background.png"
   inkscape:export-xdpi="90"
   inkscape:export-ydpi="90">
  <defs
     id="defs4">
    <linearGradient
       id="linearGradient92350">
      <stop
         style="stop-color:#ffffff;stop-opacity:1;"
         offset="0"
         id="stop92352" />
      <stop
         id="stop92354"
         offset="0.74921137"
         style="stop-color:#e5e5e5;stop-opacity:0.54109591;" />
      <stop
         style="stop-color:#999999;stop-opacity:0.29452056;"
         offset="1"
         id="stop92356" />
    </linearGradient>
    <linearGradient
       id="linearGradient92301">
      <stop
         id="stop92303"
         offset="0"
         style="stop-color:#ffffff;stop-opacity:1;" />
      <stop
         style="stop-color:#ffffff;stop-opacity:1;"
         offset="0.18814027"
         id="stop92305" />
      <stop
         id="stop92307"
         offset="1"
         style="stop-color:#000000;stop-opacity:1;" />
    </linearGradient>
    <linearGradient
       id="linearGradient2781">
      <stop
         style="stop-color:#ffffff;stop-opacity:1;"
         offset="0"
         id="stop2783" />
      <stop
         id="stop2789"
         offset="0.09455471"
         style="stop-color:#e5e5e5;stop-opacity:1;" />
      <stop
         style="stop-color:#999999;stop-opacity:1;"
         offset="1"
         id="stop2785" />
    </linearGradient>
    <linearGradient
       id="linearGradient3937">
      <stop
         style="stop-color:#000000;stop-opacity:0;"
         offset="0"
         id="stop3939" />
      <stop
         id="stop3945"
         offset="0.69098639"
         style="stop-color:#051405;stop-opacity:0.31506848;" />
      <stop
         style="stop-color:#0b280b;stop-opacity:0.87671232;"
         offset="1"
         id="stop3941" />
    </linearGradient>
    <radialGradient
       inkscape:collect="always"
       xlink:href="#linearGradient92301"
       id="radialGradient92324"
       gradientUnits="userSpaceOnUse"
       gradientTransform="matrix(1.5037432,-0.1834138,0.08241373,1.3934219,-526.55852,22.009942)"
       cx="1037.9656"
       cy="804.68542"
       fx="1037.9656"
       fy="804.68542"
       r="875.19171" />
    <mask
       maskUnits="userSpaceOnUse"
       id="mask92320">
      <rect
         y="-173.95683"
         x="-84.441757"
         height="1479.2645"
         width="1790.9087"
         id="rect92322"
         style="fill:url(#radialGradient92324);fill-opacity:1;stroke:none;display:inline" />
    </mask>
    <linearGradient
       inkscape:collect="always"
       xlink:href="#linearGradient2781"
       id="linearGradient92328"
       gradientUnits="userSpaceOnUse"
       x1="558.9649"
       y1="948.19049"
       x2="558.9649"
       y2="172.69933"
       gradientTransform="matrix(1.2205468,0,0,1.2205468,-26.077073,-2576.3667)" />
    <radialGradient
       inkscape:collect="always"
       xlink:href="#linearGradient3937"
       id="radialGradient92360"
       gradientUnits="userSpaceOnUse"
       gradientTransform="matrix(1.868474,-0.83178161,0.62558476,1.7025128,-1302.8595,613.06762)"
       cx="1291.6517"
       cy="879.90021"
       fx="1291.6517"
       fy="879.90021"
       r="875.19171" />
    <linearGradient
       inkscape:collect="always"
       xlink:href="#linearGradient2781"
       id="linearGradient92368"
       gradientUnits="userSpaceOnUse"
       x1="558.9649"
       y1="948.19049"
       x2="558.9649"
       y2="172.69933" />
    <linearGradient
       inkscape:collect="always"
       xlink:href="#linearGradient92350"
       id="linearGradient92373"
       gradientUnits="userSpaceOnUse"
       gradientTransform="matrix(1.2205468,0,0,1.2281978,20.557148,-118.49123)"
       x1="558.9649"
       y1="948.19049"
       x2="558.9649"
       y2="834.96869" />
  </defs>
  <sodipodi:namedview
     id="base"
     pagecolor="#ffffff"
     bordercolor="#666666"
     borderopacity="1.0"
     gridtolerance="10000"
     guidetolerance="10"
     objecttolerance="10"
     inkscape:pageopacity="0.0"
     inkscape:pageshadow="2"
     inkscape:zoom="0.1800176"
     inkscape:cx="960"
     inkscape:cy="600"
     inkscape:document-units="px"
     inkscape:current-layer="layer2"
     showgrid="false"
     inkscape:window-width="1440"
     inkscape:window-height="842"
     inkscape:window-x="-5"
     inkscape:window-y="-3"
     borderlayer="true"
     showguides="true"
     inkscape:guide-bbox="true">
    <sodipodi:guide
       orientation="0,1"
       position="524.11749,370.49684"
       id="guide92366" />
  </sodipodi:namedview>
  <metadata
     id="metadata7">
    <rdf:RDF>
      <cc:Work
         rdf:about="">
        <dc:format>image/svg+xml</dc:format>
        <dc:type
           rdf:resource="http://purl.org/dc/dcmitype/StillImage" />
        <dc:title />
      </cc:Work>
    </rdf:RDF>
  </metadata>
  <g
     inkscape:label="Layer 1"
     inkscape:groupmode="layer"
     id="layer1"
     style="display:inline">
    <rect
       y="-195.63055"
       x="-195.3802"
       height="1794.3987"
       width="2156.479"
       id="rect2895"
       style="fill:#ffffff;fill-opacity:1;stroke:#ffffff;stroke-width:6.05306196;stroke-miterlimit:4;stroke-opacity:1;stroke-dasharray:none;display:inline" />
    <path
       style="fill:#008000;fill-opacity:1"
       d="m -19.7148,-158.59992 2012.8935,0 0,1551.82522 -2012.8935,0 0,-1551.82522 0,0 z"
       id="rect3376" />
    <path
       sodipodi:type="arc"
       style="fill:#00aa44;fill-opacity:0.875;stroke:none"
       id="path3035"
       sodipodi:cx="986.56171"
       sodipodi:cy="467.80042"
       sodipodi:rx="768.53705"
       sodipodi:ry="786.70575"
       d="m 1755.0988,467.80042 a 768.53705,786.70575 0 1 1 -1537.07414,0 768.53705,786.70575 0 1 1 1537.07414,0 z"
       transform="matrix(1.8091793,0,0,1.5442107,-655.41598,358.86457)" />
    <path
       transform="matrix(1.8091793,0,0,1.5442107,99.62872,-3.9132003)"
       d="m 1755.0988,467.80042 a 768.53705,786.70575 0 1 1 -1537.07414,0 768.53705,786.70575 0 1 1 1537.07414,0 z"
       sodipodi:ry="786.70575"
       sodipodi:rx="768.53705"
       sodipodi:cy="467.80042"
       sodipodi:cx="986.56171"
       id="path3037"
       style="fill:#165016;fill-opacity:0.73786406;stroke:none"
       sodipodi:type="arc" />
    <path
       sodipodi:type="arc"
       style="fill:#00aa00;fill-opacity:0.73786406;stroke:none"
       id="path3039"
       sodipodi:cx="986.56171"
       sodipodi:cy="467.80042"
       sodipodi:rx="768.53705"
       sodipodi:ry="786.70575"
       d="m 1755.0988,467.80042 a 768.53705,786.70575 0 1 1 -1537.07414,0 768.53705,786.70575 0 1 1 1537.07414,0 z"
       transform="matrix(1.8091793,0,0,1.5442107,81.888103,350.89925)" />
    <path
       transform="matrix(1.8091793,0,0,1.5442107,525.40364,40.438353)"
       d="m 1755.0988,467.80042 a 768.53705,786.70575 0 1 1 -1537.07414,0 768.53705,786.70575 0 1 1 1537.07414,0 z"
       sodipodi:ry="786.70575"
       sodipodi:rx="768.53705"
       sodipodi:cy="467.80042"
       sodipodi:cx="986.56171"
       id="path3041"
       style="fill:#1f241c;fill-opacity:0.73786406;stroke:none"
       sodipodi:type="arc" />
    <path
       sodipodi:type="arc"
       style="fill:#2aff2a;fill-opacity:0.73786406;stroke:none"
       id="path3043"
       sodipodi:cx="986.56171"
       sodipodi:cy="467.80042"
       sodipodi:rx="768.53705"
       sodipodi:ry="786.70575"
       d="m 1755.0988,467.80042 a 768.53705,786.70575 0 1 1 -1537.07414,0 768.53705,786.70575 0 1 1 1537.07414,0 z"
       transform="matrix(1.4106331,0,0,1.2911384,528.06472,587.64208)" />
    <path
       sodipodi:type="arc"
       style="fill:#165016;fill-opacity:0.73786406;stroke:none"
       id="path3045"
       sodipodi:cx="986.56171"
       sodipodi:cy="467.80042"
       sodipodi:rx="768.53705"
       sodipodi:ry="786.70575"
       d="m 1755.0988,467.80042 a 768.53705,786.70575 0 1 1 -1537.07414,0 768.53705,786.70575 0 1 1 1537.07414,0 z"
       transform="matrix(1.8091793,0,0,1.5442107,709.18211,430.96759)" />
    <path
       transform="matrix(1.4106331,0,0,1.2911384,658.24113,863.30978)"
       d="m 1755.0988,467.80042 a 768.53705,786.70575 0 1 1 -1537.07414,0 768.53705,786.70575 0 1 1 1537.07414,0 z"
       sodipodi:ry="786.70575"
       sodipodi:rx="768.53705"
       sodipodi:cy="467.80042"
       sodipodi:cx="986.56171"
       id="path3047"
       style="fill:#55ff55;fill-opacity:0.73786406;stroke:none"
       sodipodi:type="arc" />
    <path
       transform="matrix(1.1310628,0,0,1.5442107,1103.3936,877.67418)"
       d="m 1755.0988,467.80042 a 768.53705,786.70575 0 1 1 -1537.07414,0 768.53705,786.70575 0 1 1 1537.07414,0 z"
       sodipodi:ry="786.70575"
       sodipodi:rx="768.53705"
       sodipodi:cy="467.80042"
       sodipodi:cx="986.56171"
       id="path3049"
       style="fill:#17280b;fill-opacity:0.73786406;stroke:none"
       sodipodi:type="arc" />
    <rect
       style="fill:url(#radialGradient92360);fill-opacity:1;stroke:none"
       id="rect3927"
       width="2136.4248"
       height="1736.2563"
       x="-69.570496"
       y="-320.2402"
       mask="none" />
  </g>
  <g
     inkscape:groupmode="layer"
     id="layer4"
     inkscape:label="lines"
     style="opacity:0.30232562">
    <g
       id="g3792"
       transform="matrix(0.29577803,0.6382784,0.6382784,-0.29577803,593.81995,1065.8816)"
       style="fill:#0b280b;display:inline">
      <path
         id="path3873"
         d="m -908.3871,2229.6774 c 28.70794,-224.3578 84.63725,-445.1063 165.45569,-656.2146 10e-6,0 2e-5,0 3e-5,-10e-5 80.81876,-211.1081 186.55229,-412.6425 314.8471,-598.58077 2e-5,-3e-5 4e-5,-6e-5 6e-5,-8e-5 110.27419,-159.82183 236.94576,-308.26503 377.351734,-442.24112 l -6.922124,-7.21694 c -140.20684,135.17362 -266.47736,284.71699 -376.19665,445.50082 -10e-6,2e-5 -2e-5,3e-5 -3e-5,4e-5 -127.653,187.06515 -232.52278,389.51665 -312.34924,601.29625 -1e-5,0 -2e-5,0 -4e-5,0 -79.82681,211.7795 -134.63524,432.9537 -162.18653,657.4565 z"
         style="fill:#0b280b;stroke:none" />
      <path
         id="path3885"
         d="m -933.77032,2264.8564 c -18.72699,-152.1029 -6.44735,-307.641 33.74956,-455.2904 0,0 0,0 10e-6,0 40.19938,-147.6487 108.40335,-287.7246 201.35712,-408.9503 10e-6,-10e-5 2e-5,-10e-5 4e-5,-10e-5 71.5841,-93.3621 157.17962,-175.8884 252.9668,-243.9529 l -5.82448,-8.1286 c -96.06289,69.4028 -181.60376,153.2114 -252.88932,247.7109 0,0 -1e-5,0 -1e-5,0 -92.58262,122.739 -159.94441,263.9847 -199.09712,412.3863 -1e-5,10e-5 -1e-5,10e-5 -2e-5,10e-5 -39.15519,148.401 -50.18332,304.2738 -30.26258,456.225 z"
         style="fill:#0b280b;stroke:none" />
      <path
         id="path3891"
         d="m -338.92473,2316.7622 c -19.92074,-151.9512 -8.89261,-307.824 30.26258,-456.225 0,0 10e-6,0 10e-6,0 39.15271,-148.4017 106.5145,-289.6474 199.09711,-412.3864 10e-6,0 2e-5,0 3e-5,0 71.285563,-94.4995 156.82643,-178.3081 252.88932,-247.7109 l 5.82448,8.1286 c -95.787184,68.0645 -181.382703,150.5908 -252.9668,243.9529 -1e-5,0 -2e-5,0 -2e-5,0 -92.95378,121.2258 -161.15775,261.3017 -201.35714,408.9504 0,0 -10e-6,0 -10e-6,0 -40.19691,147.6494 -52.47655,303.1875 -33.74956,455.2904 z"
         style="fill:#0b280b;stroke:none" />
      <path
         id="path3897"
         d="m -315.67147,2323.7753 c -19.92074,-151.9512 -8.89261,-307.824 30.26259,-456.225 0,0 1e-5,0 1e-5,-1e-4 39.15271,-148.4016 106.5145,-289.6473 199.097101,-412.3863 1.3e-5,0 2.6e-5,0 3.8e-5,0 71.285558,-94.4995 156.826423,-178.3081 252.889311,-247.7109 l 5.82448,8.1286 c -95.787182,68.0645 -181.3826996,150.5908 -252.966799,243.9529 -92.953781,121.2258 -161.157761,261.3017 -201.357151,408.9504 -10e-6,0 -10e-6,0 -2e-5,0 -40.1969,147.6494 -52.47655,303.1875 -33.74956,455.2904 z"
         style="fill:#0b280b;stroke:none" />
      <path
         id="path3903"
         d="m -446.17487,2294.2993 c -18.72699,-152.1029 -6.44735,-307.641 33.74956,-455.2904 0,0 0,0 1e-5,0 40.19938,-147.6487 108.40335,-287.7246 201.35712,-408.9503 1e-5,-10e-5 2e-5,-10e-5 4e-5,-10e-5 71.5841,-93.3621 157.179616,-175.8884 252.966801,-243.9529 l -5.824482,-8.1286 c -96.062889,69.4028 -181.603759,153.2114 -252.889319,247.7109 0,0 -10e-6,0 -10e-6,0 -92.58262,122.739 -159.94441,263.9847 -199.09712,412.3863 -1e-5,10e-5 -1e-5,10e-5 -2e-5,10e-5 -39.15519,148.401 -50.18332,304.2738 -30.26258,456.225 z"
         style="fill:#0b280b;stroke:none" />
      <path
         id="path3909"
         d="m -68.42092,1929.2047 c -146.73053,-10.0405 -293.87782,-50.5435 -429.97877,-117.87 -10e-6,0 -2e-5,0 -3e-5,0 -136.09038,-67.3444 -261.44538,-161.6396 -364.65639,-279.0794 -10e-6,0 -3e-5,0 -4e-5,0 -79.41233,-90.3788 -145.98955,-193.721 -196.18015,-305.9634 41.1478,115.5315 99.67439,224.8846 173.15974,323.3807 6.66439,8.9256 13.45324,17.7553 20.36317,26.487 105.26047,106.1346 228.16287,189.9378 359.00247,249.2061 140.63891,63.71 290.76616,99.1763 438.29,103.839 z"
         style="fill:#0b280b;stroke:none" />
      <path
         id="path3913"
         d="m -72.260565,1983.7736 c -146.730525,-10.0405 -293.877805,-50.5435 -429.978765,-117.8701 -1e-5,0 -2e-5,0 -3e-5,0 -136.09037,-67.3443 -261.44537,-161.6396 -364.65639,-279.0793 -2e-5,0 -3e-5,0 -5e-5,0 -79.41234,-90.3788 -145.9896,-193.721 -196.1802,-305.9634 41.1478,115.5315 99.67443,224.8846 173.1598,323.3807 6.66439,8.9256 13.45323,17.7553 20.36315,26.487 105.26049,106.1346 228.16289,189.9378 359.0025,249.2061 140.6389,63.71 290.76615,99.1763 438.289985,103.839 z"
         style="fill:#0b280b;stroke:none" />
      <path
         id="path3919"
         d="m -254.16889,1936.2353 c -146.73053,-10.0405 -293.87782,-50.5435 -429.97877,-117.87 -10e-6,-10e-5 -2e-5,-10e-5 -3e-5,-10e-5 -136.09038,-67.3443 -261.44537,-161.6396 -364.65641,-279.0793 0,0 0,0 0,0 -79.4124,-90.3788 -145.9896,-193.721 -196.1802,-305.9634 41.1478,115.5315 99.6744,224.8846 173.1598,323.3807 6.6644,8.9256 13.4532,17.7553 20.3631,26.487 105.26051,106.1346 228.16291,189.9378 359.00251,249.2061 140.63891,63.71 290.76616,99.1763 438.29,103.839 z"
         style="fill:#0b280b;stroke:none" />
      <path
         id="path3925"
         d="m 217.21852,1864.8703 c -146.73052,-10.0404 -293.877806,-50.5434 -429.97876,-117.87 -136.09038,-67.3443 -261.44539,-161.6395 -364.65642,-279.0793 -10e-6,0 -3e-5,0 -4e-5,0 -79.41234,-90.3788 -145.98962,-193.721 -196.18019,-305.9634 41.14782,115.5315 99.67441,224.8846 173.15978,323.3807 6.66439,8.9256 13.45323,17.7553 20.36315,26.487 105.26048,106.1346 228.16289,189.9378 359.00249,249.2061 140.63891,63.71 290.766153,99.1763 438.28999,103.8389 z"
         style="fill:#0b280b;stroke:none" />
      <path
         id="path3879"
         d="m -134.83107,2138.4983 c -146.73052,-10.0404 -293.8778,-50.5434 -429.97876,-117.87 -10e-6,0 -10e-6,0 -2e-5,0 -136.09038,-67.3443 -261.44538,-161.6396 -364.6564,-279.0793 -1e-5,0 -3e-5,0 -4e-5,0 -79.41231,-90.3788 -145.98961,-193.721 -196.18021,-305.9634 41.1478,115.5315 99.6744,224.8846 173.15979,323.3807 6.6644,8.9256 13.45323,17.7553 20.36316,26.487 105.26048,106.1346 228.16289,189.9378 359.00249,249.2061 140.63891,63.71 290.76615,99.1763 438.28999,103.8389 z"
         style="fill:#0b280b;stroke:none" />
    </g>
    <path
       id="path3819"
       d="m 1590.4383,752.96993 c -60.4595,-90.47121 -139.0661,-168.28507 -228.9261,-228.89268 0,0 0,-1e-5 0,-1e-5 -89.8563,-60.61293 -191.1562,-104.14568 -296.9401,-126.15075 -1e-4,0 -1e-4,0 -1e-4,0 -81.45066,-16.94159 -165.33331,-21.59658 -247.94451,-13.82346 4.98908,1.89738 9.94144,3.84 14.85646,5.82677 77.24187,-6.54651 155.60456,-2.17636 231.98755,13.06648 0,0 0,0 0,10e-6 105.2807,21.00507 206.4948,63.50563 296.5714,123.21875 0,10e-6 3e-4,2e-5 3e-4,2e-5 90.0782,59.71086 169.2125,136.7578 230.3951,226.75487 z"
       style="fill:#0b280b;stroke:none;display:inline" />
    <path
       id="path3823"
       d="m 1349.9984,453.19822 c -60.4594,-90.47123 -139.066,-168.28509 -228.9261,-228.8927 0,-1e-5 0,-1e-5 0,-1e-5 -89.8562,-60.61295 -191.15613,-104.14572 -296.94003,-126.150789 -10e-6,0 -2e-5,0 -3e-5,0 C 742.68152,81.213126 658.79888,76.558137 576.18767,84.33124 c 4.9891,1.897386 9.94155,3.839992 14.8566,5.826776 77.24183,-6.546472 155.60453,-2.176334 231.98736,13.066494 105.2806,21.00508 206.49487,63.50565 296.57167,123.2188 0,1e-5 0,1e-5 0,2e-5 90.0783,59.71085 169.2126,136.7578 230.3951,226.75489 z"
       style="fill:#0b280b;stroke:none;display:inline" />
    <path
       id="path3825"
       d="M 1926.5195,203.20483 C 1866.06,112.73361 1787.4534,34.919747 1697.5935,-25.687869 c 0,0 0,-1.1e-5 0,-1.1e-5 -89.8563,-60.612951 -191.1563,-104.1457 -296.9403,-126.15079 0,0 -2e-4,0 -2e-4,-1e-5 -81.4504,-16.94158 -165.3331,-21.59659 -247.9444,-13.82349 4.9891,1.89739 9.9417,3.84001 14.8567,5.82677 77.2418,-6.54647 155.6044,-2.17632 231.9873,13.06652 105.2806,21.00509 206.4949,63.505673 296.5717,123.218799 0,1.3e-5 0,2.5e-5 0,2.5e-5 90.0783,59.710856 169.2126,136.757806 230.3952,226.754886 z"
       style="fill:#0b280b;stroke:none;display:inline" />
    <path
       id="path3827"
       d="m 1967.5775,557.59984 c -60.4597,-90.4712 -139.0662,-168.28506 -228.926,-228.89268 0,0 0,0 0,-2e-5 -89.8565,-60.61295 -191.1564,-104.1457 -296.9402,-126.15079 0,0 -10e-5,0 -10e-5,0 -81.4508,-16.9416 -165.3334,-21.59662 -247.9446,-13.82352 4.989,1.8974 9.9416,3.84001 14.8565,5.82676 77.2418,-6.54646 155.6047,-2.17629 231.9874,13.06654 0,1e-5 0,1e-5 0,1e-5 105.2807,21.00509 206.495,63.50566 296.5716,123.21881 0,0 0,1e-5 0,2e-5 90.0785,59.71084 169.2129,136.75781 230.3954,226.75487 z"
       style="fill:#0b280b;stroke:none;display:inline" />
    <g
       style="fill:#0b280b;display:inline"
       id="g2881"
       transform="matrix(0.71961346,0.98584525,-0.98584525,0.71961346,765.17662,-695.98179)">
      <path
         id="path3811"
         d="m -933.77032,2264.8564 c -18.72699,-152.1029 -6.44735,-307.641 33.74956,-455.2904 0,0 0,0 10e-6,0 40.19938,-147.6487 108.40335,-287.7246 201.35712,-408.9503 10e-6,-10e-5 2e-5,-10e-5 4e-5,-10e-5 71.5841,-93.3621 157.17962,-175.8884 252.9668,-243.9529 l -5.82448,-8.1286 c -96.06289,69.4028 -181.60376,153.2114 -252.88932,247.7109 0,0 -1e-5,0 -1e-5,0 -92.58262,122.739 -159.94441,263.9847 -199.09712,412.3863 -1e-5,10e-5 -1e-5,10e-5 -2e-5,10e-5 -39.15519,148.401 -50.18332,304.2738 -30.26258,456.225 z"
         style="fill:#0b280b;stroke:none"
         transform="matrix(1,0,0,-1,1220.8179,2075.2958)" />
      <path
         id="path3815"
         d="m 905.14643,-248.4795 c -19.92072,151.951208 -8.89258,307.824018 30.26262,456.225 10e-6,1e-5 10e-6,2e-5 10e-6,4e-5 39.15272,148.40161 106.51454,289.64735 199.09714,412.38632 0,1e-5 0,3e-5 0,5e-5 71.2855,94.49947 156.8264,178.30813 252.8893,247.71093 l 5.8244,-8.12868 c -95.7871,-68.06449 -181.3826,-150.5908 -252.9667,-243.95287 0,-10e-6 0,-10e-6 0,-2e-5 C 1047.2994,494.5355 979.09544,354.4596 938.89605,206.81093 c -10e-6,-2e-5 -10e-6,-4e-5 -2e-5,-6e-5 C 898.69912,59.161501 886.41946,-96.376557 905.14643,-248.4795 z"
         style="fill:#0b280b;stroke:none" />
      <path
         id="path3817"
         d="m 774.64303,-219.0035 c -19.92072,151.951208 -8.89258,307.824018 30.26262,456.225 10e-6,1e-5 10e-6,2e-5 10e-6,4e-5 39.15272,148.40161 106.5145,289.64735 199.09714,412.38632 0,1e-5 0,3e-5 0,5e-5 71.2855,94.49947 156.8264,178.30813 252.8893,247.71093 l 5.8244,-8.12868 c -95.7871,-68.06449 -181.3826,-150.5908 -252.9667,-243.95287 0,-10e-6 0,-10e-6 0,-2e-5 C 916.79601,524.0115 848.59204,383.9356 808.39265,236.28693 c -10e-6,-2e-5 -10e-6,-4e-5 -2e-5,-6e-5 C 768.19572,88.637501 755.91606,-66.900557 774.64303,-219.0035 z"
         style="fill:#0b280b;stroke:none" />
    </g>
    <path
       id="path3821"
       d="M 1532.8753,129.11436 C 1340.6374,92.79756 1144.6605,96.286469 958.7708,134.6491 772.87775,172.98669 596.69023,246.3079 443.96061,349.47901 326.25573,428.95431 221.88983,525.37394 135.02009,633.62907 230.45331,533.41128 340.96124,447.60571 461.41286,380.08648 c 10.87874,-6.10362 21.84449,-12.05188 32.89238,-17.8442 137.91075,-95.29141 297.22714,-166.36001 467.04406,-207.85637 182.5374,-44.60162 377.5925,-55.173785 571.526,-25.27155 z"
       style="fill:#0b280b;stroke:none;display:inline" />
    <path
       style="fill:#0b280b;stroke:none;display:inline"
       d="m 724.46614,-289.04898 c 131.99568,53.40922 256.24007,126.81837 367.10876,217.104001 10e-5,1.1e-5 10e-5,1.1e-5 10e-5,2.3e-5 143.9432,117.202162 264.2287,263.936356 353.5666,427.857126 0,3e-5 0,5e-5 0,7e-5 89.3341,163.9228 147.9168,345.38121 168.6394,531.92433 2.8158,-12.01385 5.474,-24.11204 7.9727,-36.2898 -25.4435,-175.66511 -83.9684,-345.51284 -169.4561,-499.40898 0,-10e-6 0,-2e-5 0,-4e-5 -91.1575,-164.11709 -213.178,-310.437438 -358.4631,-426.781127 0,-2.3e-5 0,-3.5e-5 0,-4.7e-5 C 981.94156,-164.25616 856.91678,-236.72115 724.46614,-289.04898 z"
       id="path3813" />
  </g>
  <g
     inkscape:groupmode="layer"
     id="layer6"
     inkscape:label="logoscreen"
     style="display:inline">
    <path
       mask="none"
       id="path92318"
       d="m 1178.4882,-1557.2484 -1.4875,0 -1.7546,0 -1.6401,0 -2.0215,0 -2.0597,0 -2.5936,0 -2.8226,0 -3.9287,0 -4.7297,0 -7.4758,0 -10.756,0 -22.8852,0 -57.0225,0 -2105.8245,-252.6533 -47.2962,252.043 903.66229,6.0647 0,634.30283 2213.30911,0 0,-639.18513 1401.7978,-23.4193 12.6633,-256.1622 -2143.6997,279.0094 -50.3476,0 -21.2833,0 -10.2602,0 -7.2086,0 -4.5772,0 -3.8524,0 -2.7845,0 -2.5553,0 -2.0216,0 -1.9835,0 -1.64,0 -1.7546,0 -1.4876,0 -1.6782,0 z"
       style="fill:url(#linearGradient92328);fill-opacity:1;stroke:none;display:inline"
       sodipodi:nodetypes="ccccccccccccccccccccccccccccccccccccc" />
    <path
       style="fill:url(#linearGradient92373);fill-opacity:1;stroke:none;display:inline"
       mask="none"
       d="m 2067.81,904.71649 -873.1105,7.3233 -9.421,0.11437 -1.6784,0 -0.839,0 -1328.26006,-3.85236 0,642.4654 2213.30896,0 0,-646.05076 z m -963.8505,2.28854 -14.8754,0.0764 31.6579,3.69977 -16.5537,-3.77605 -0.2288,0 z m 31.2765,0 11.8622,4.11934 8.5057,0 -8.7727,-4.11934 -11.5952,0 z m 23.4575,0 6.7891,4.15748 2.3268,0 -5.4544,-4.15748 -1.373,0 -2.2885,0 z m 11.1375,0 4.348,4.15748 0.3815,0 -3.5091,-4.15748 -1.2204,0 z m 6.9799,0 0.8391,1.22055 -0.6485,-1.22055 -0.1906,0 z m 7.1327,0 0.6864,4.19564 0.7245,0 -1.1821,-4.19564 -0.2288,0 z m 4.081,0 -0.2288,4.19564 0.801,0 -0.267,-4.19564 -0.3052,0 z m 4.1576,0 -1.1442,4.19564 0.7245,0 0.6485,-4.19564 -0.2288,0 z m 7.1326,0 -0.6104,1.18241 0.7629,-1.18241 -0.1525,0 z m 5.9118,0 -3.5089,4.19564 0.3432,0 4.3101,-4.19564 -1.1444,0 z m 8.544,0 -5.4162,4.19564 2.1741,0 6.7129,-4.19564 -1.0678,0 -2.403,0 z m 15.1425,0 -8.773,4.19564 8.01,0 11.786,-4.19564 -1.6783,0 -2.5555,0 -2.0215,0 -1.9835,0 -1.64,0 -1.1442,0 z m 40.5832,0 -16.4012,3.85235 30.9332,-3.85235 -14.532,0 z m -73.0804,0.83912 -1.7164,3.35652 0.4576,0 1.2588,-3.35652 z m -16.4393,0.11437 1.2588,3.24209 0.4577,0 -1.7165,-3.24209 z"
       id="path92330" />
    <path
       transform="matrix(1.2205439,0.00269795,-0.00269795,1.2205439,-16.204504,-110.57735)"
       sodipodi:nodetypes="ccccccccccccccccccccccccccccccccccccccccccccccccccccccccccc"
       mask="url(#mask92320)"
       id="path92370"
       d="m 873.34375,-1013.625 113.5625,1848.59375 -1.21875,0 L 688.6875,-967 479.59375,-946.5625 984.25,834.96875 l -1.34375,0 -673.78125,-1696.625 -199.96875,64.5 872.09375,1632.125 -1.6875,0 -1018.84375,-1512.875 -181.625,105.625 1198.34375,1407.25 -2.3125,0 L -340.5625,-424.125 -495.53125,-282.25 971.90625,834.96875 l -3.875,0 L -580.84375,-112 l -121.1875,171.625 1663.9375,775.34375 -8.8125,0 -1702.25,-590.8125 -81.8125,193.5 1765.3125,397.3125 -1772.03125,-207 -38.75,206.5 1860.61333,1.28261 1841.63667,-19.50136 10.375,-209.875 -1797.5937,228.59375 1738.5,-409.625 -34.5938,-207.25 -1721.3438,616.875 -8.4062,0 1633.4375,-781.15625 -77.9687,-195.09375 -1561.375,976.25 -3.75,0 1436.0624,-1116.25 -117.75,-174.03125 -1321.4687,1290.28125 -2.28125,0 L 2165.4688,-564.59375 2013.375,-709.5625 995.5625,834.96875 l -1.65625,0 L 1837.7188,-783.125 1658.25,-892.34375 992.28125,834.96875 l -1.34375,0 480.0313,-1761.75 -198.6563,-68.5 -282.8125,1830.25 -1.21875,0 93.71875,-1824 -208.65625,-24.59375 0,0 z"
       style="fill:url(#linearGradient92368);fill-opacity:1;stroke:none;display:inline" />
  </g>
  <g
     inkscape:groupmode="layer"
     id="layer3"
     inkscape:label="sun"
     style="display:inline" />
  <g
     inkscape:groupmode="layer"
     id="layer2"
     inkscape:label="screen"
     style="display:inline" />
</svg>
