<?xml version="1.0" encoding="UTF-8" standalone="no"?>
<!-- Created with Inkscape (http://www.inkscape.org/) -->

<svg
   xmlns:dc="http://purl.org/dc/elements/1.1/"
   xmlns:cc="http://creativecommons.org/ns#"
   xmlns:rdf="http://www.w3.org/1999/02/22-rdf-syntax-ns#"
   xmlns:svg="http://www.w3.org/2000/svg"
   xmlns="http://www.w3.org/2000/svg"
   xmlns:sodipodi="http://sodipodi.sourceforge.net/DTD/sodipodi-0.dtd"
   xmlns:inkscape="http://www.inkscape.org/namespaces/inkscape"
   width="80"
   height="75"
   id="svg4138"
   version="1.1"
   inkscape:version="0.47+devel r"
   sodipodi:docname="is.svg"
   inkscape:export-filename="/home/rick/sidux-art/kdm themes/hypnos/sidux.png"
   inkscape:export-xdpi="90"
   inkscape:export-ydpi="90">
  <defs
     id="defs4140">
    <mask
       maskUnits="userSpaceOnUse"
       id="mask7297">
      <text
         id="text7299"
         y="1046.2858"
         x="1146.0001"
         style="font-size:144px;font-style:normal;font-variant:normal;font-weight:normal;font-stretch:normal;fill:#ffffff;fill-opacity:1;stroke:none;font-family:Dustismo;-inkscape-font-specification:Dustismo"
         xml:space="preserve"><tspan
           dx="0 0 2 -2"
           style="font-size:100px;fill:#ffffff;fill-opacity:1;stroke:none"
           y="1046.2858"
           x="1146.0001"
           id="tspan7301"
           sodipodi:role="line">sidux : Ύπνος</tspan></text>
    </mask>
    <filter
       inkscape:collect="always"
       id="filter7347"
       color-interpolation-filters="sRGB">
      <feGaussianBlur
         inkscape:collect="always"
         stdDeviation="3.6738691"
         id="feGaussianBlur7349" />
    </filter>
    <mask
       maskUnits="userSpaceOnUse"
       id="mask7271">
      <path
         id="path7273"
         d="m 1070,737.36218 0,246 766,0 0,-246 -766,0 z m 403,81.3125 9.7188,0 -15.9063,18.34375 -7.4687,0 L 1473,818.67468 z m 8.4375,7.0625 10.5937,0 20.2188,30 20.0938,-30 10.5937,0 -25.7813,38.1875 0,34.7187 -9.9374,0 0,-34.7187 -25.7813,-38.1875 z m -274.6875,6.65625 c 1.0417,7e-5 1.9388,0.34642 2.6875,1.0625 0.7487,0.71621 1.125,1.61465 1.125,2.65625 0,1.04173 -0.3763,1.90891 -1.125,2.625 -0.7487,0.71621 -1.6458,1.06256 -2.6875,1.0625 -1.0091,6e-5 -1.9063,-0.34629 -2.6875,-1.0625 -0.7813,-0.74864 -1.1875,-1.61582 -1.1875,-2.625 0,-1.00905 0.4062,-1.87754 1.1875,-2.59375 0.7812,-0.74863 1.6784,-1.12493 2.6875,-1.125 z m 51.125,0.0937 6.4375,0 0,66.1562 -6.4375,0 0,-8.5 c -4.1667,6.3803 -9.8386,9.5938 -17,9.5938 -6.4779,0 -12.1784,-2.4609 -17.0938,-7.3438 -4.8828,-4.9153 -7.3124,-10.6158 -7.3124,-17.0937 0,-6.5104 2.4583,-12.2109 7.4062,-17.0937 4.9805,-4.9154 10.7396,-7.375 17.25,-7.37505 7.1614,5e-5 12.7461,3.21355 16.75,9.59375 l 0,-27.9375 z m 432.0312,10.15625 c 7.8125,6e-5 13.9466,2.54693 18.4063,7.625 4.4596,5.07815 6.6874,12.10945 6.6875,21.09375 -10e-5,8.9518 -2.2279,15.9831 -6.6875,21.0938 -4.4597,5.0781 -10.5938,7.5937 -18.4063,7.5937 -7.845,0 -14.0091,-2.5156 -18.4687,-7.5937 -4.4271,-5.1107 -6.625,-12.142 -6.625,-21.0938 0,-8.9843 2.1979,-16.0156 6.625,-21.09375 4.4596,-5.07807 10.6237,-7.62494 18.4687,-7.625 z m 63.5313,0 c 2.7669,6e-5 5.457,0.28912 8.0937,0.875 2.6367,0.55344 5.1823,1.39198 7.6563,2.53125 l 0,8.4063 c -2.5391,-1.3997 -5.0847,-2.44141 -7.6563,-3.12505 -2.5391,-0.7161 -5.1146,-1.06245 -7.7187,-1.0625 -5.8269,5e-5 -10.3399,1.85161 -13.5625,5.56255 -3.2227,3.6784 -4.8438,8.8581 -4.8438,15.5312 0,6.6732 1.6211,11.8516 4.8438,15.5625 3.2226,3.6784 7.6784,5.5313 13.375,5.5313 4.2643,0 7.677,1.2135 10.2812,3.6874 2.7344,2.5717 4.125,5.8125 4.125,9.7188 0,3.7435 -1.2161,6.9271 -3.625,9.5312 -2.6042,2.8321 -6.569,4.25 -11.875,4.25 0,-2.4414 0,-4.901 0,-7.375 2.2461,0.1628 4.0703,-0.4739 5.4376,-1.9062 1.0416,-1.1393 1.5624,-2.2956 1.5624,-3.5 0,-1.7253 -0.5208,-3.3177 -1.5624,-4.75 -1.0092,-1.3672 -2.4558,-2.0625 -4.3438,-2.0625 -8.7565,0 -15.556,-2.5742 -20.4062,-7.75 -4.8503,-5.1758 -7.2813,-12.1484 -7.2813,-20.9375 0,-8.9192 2.4297,-15.9518 7.3125,-21.0625 4.9153,-5.11062 11.6588,-7.65619 20.1875,-7.65625 z m -206.5625,1.3125 52.4062,0 0,9.00005 -6.9062,0 0,33.5937 c 0,2.3438 0.4062,4.0208 1.1875,5.0625 0.8138,1.0091 2.1158,1.5313 3.9063,1.5312 0.4882,10e-5 1.0962,-0.0598 1.8124,-0.125 0.7161,-0.0976 1.1784,-0.1549 1.4063,-0.1874 l 0,6.5 c -1.1394,0.4231 -2.2956,0.7421 -3.5,0.9374 -1.2045,0.1954 -2.4206,0.2813 -3.625,0.2813 -3.9063,0 -6.5964,-1.0404 -8.0937,-3.1563 -1.4975,-2.1484 -2.2501,-6.1145 -2.25,-11.8437 l 0,-32.5937 -20.1876,0 0,45.6874 -9.1562,0 0,-45.6874 -7,0 0,-9.00005 z m 60.1562,0 9.6876,0 14.0937,45.90625 c 3.9062,-4.0364 7.4948,-8.8698 10.75,-14.4688 2.4739,-4.1991 3.776,-8.1041 3.9063,-11.75 0.065,-1.7252 -0.3126,-4.2135 -1.0938,-7.4687 -0.9115,-3.87365 -3.0808,-7.95438 -6.5312,-12.21875 l 9.0937,0 c 2.246,2.89719 4.0963,6.36984 5.5937,10.40625 1.3672,3.711 2.0625,6.836 2.0626,9.375 -1e-4,6.3802 -2.198,12.4284 -6.625,18.125 -5.7618,7.4219 -10.6524,13.0052 -14.6563,16.7812 l -9.5625,0 -16.7188,-54.68745 z m 82.875,6.3125 c -4.8177,5e-5 -8.638,1.88025 -11.4374,5.65625 -2.7995,3.7435 -4.1876,8.8946 -4.1876,15.4375 0,6.543 1.3894,11.6927 4.1563,15.4688 2.7995,3.7434 6.6185,5.625 11.4687,5.625 4.7852,0 8.5755,-1.9115 11.375,-5.6876 2.7995,-3.776 4.1875,-8.8958 4.1876,-15.4062 -1e-4,-6.4778 -1.3881,-11.5989 -4.1876,-15.375 -2.7995,-3.80855 -6.5898,-5.7187 -11.375,-5.71875 z m -521.0624,0.78125 c 5.078,5e-5 9.5351,0.98312 13.3437,2.9687 4.6224,2.4089 7.2252,5.8816 7.8437,10.4063 l -6.125,1.3125 c -1.2044,-5.664 -6.5885,-8.5 -16.0937,-8.5 -2.9297,0 -5.5039,0.4922 -7.75,1.4688 -2.9948,1.3021 -4.5,3.2409 -4.5,5.8124 0,3.5483 2.6927,5.9506 8.0313,7.1876 4.1015,0.4557 8.2096,0.9179 12.3437,1.4062 4.069,0.586 7.7135,2.2357 10.9687,4.9375 1.9531,1.6276 2.9375,4.2604 2.9376,7.9063 -1e-4,4.3294 -2.3438,7.802 -7.0313,10.4062 -3.9063,2.181 -8.2175,3.25 -12.9375,3.25 -5.0456,0 -9.4727,-0.9831 -13.2812,-2.9688 -4.5899,-2.4088 -7.1941,-5.8815 -7.8126,-10.4062 l 6.1563,-1.3125 c 0.1953,2.8971 2.1328,5.1263 5.8437,6.6563 2.8321,1.1393 5.987,1.6875 9.4376,1.6874 2.9296,10e-5 5.6197,-0.5208 8.0937,-1.5624 3.2226,-1.3347 4.8437,-3.2435 4.8437,-5.75 0,-2.9297 -1.9375,-5.0144 -5.8437,-6.2188 -1.0091,-0.2929 -5.1185,-0.957 -12.3125,-2.0312 -5.306,-0.7813 -8.9818,-2.0261 -11,-3.7188 -1.888,-1.5299 -3.1315,-2.8606 -3.75,-4 -0.7161,-1.2695 -1.0625,-3.0338 -1.0625,-5.3125 0,-4.4921 2.2565,-7.9934 6.7813,-10.5 3.7109,-2.08329 7.9921,-3.12495 12.875,-3.125 z m 246.9374,0.625 c 1.4649,5e-5 2.7084,0.52088 3.75,1.5625 1.0743,1.0417 1.625,2.2852 1.625,3.75 0,1.4974 -0.5208,2.8008 -1.5624,3.875 -1.0417,1.0743 -2.3152,1.5938 -3.8126,1.5938 -1.4974,0 -2.7708,-0.5195 -3.8124,-1.5938 -1.0092,-1.0742 -1.5001,-2.3776 -1.5,-3.875 -1e-4,-1.4648 0.5208,-2.7083 1.5624,-3.75 1.0417,-1.04162 2.2852,-1.56245 3.75,-1.5625 z m -218.4687,0.25 12.5625,0 0,46.7187 -6.3438,0 0,-40.375 -6.2187,0 0,-6.3437 z m 74.8125,0 6.3438,0 0,24.4687 c -1e-4,4.5574 1.1874,8.435 3.5312,11.625 2.6042,3.5808 6.0755,5.3438 10.4375,5.3438 4.7526,0 8.3984,-1.8802 10.9375,-5.6562 2.181,-3.2878 3.2812,-7.4258 3.2812,-12.4063 l 0,-23.375 6.3438,0 0,46.7187 -6.3438,0 0,-6.6874 c -3.5482,5.1757 -8.2943,7.7812 -14.2187,7.7812 -6.5755,0 -11.6979,-2.3151 -15.3437,-6.9375 -3.3204,-4.1992 -4.9688,-9.668 -4.9688,-16.4063 l 0,-24.4687 z m 50.5,0 7.9375,0 13.1563,18 13.1562,-18 8.0312,0 -17.0937,23.5313 17.0937,23.1874 -8.1562,0 -13.0312,-17.875 -13,17.875 -8.0938,0 17.1875,-23.1874 -17.1875,-23.5313 z m -81.5,5.2813 c -4.7852,0 -9.0391,1.8216 -12.75,5.5 -3.7109,3.6458 -5.5625,7.8411 -5.5625,12.5937 0,4.7526 1.8229,8.9479 5.4687,12.5937 3.6459,3.6459 7.8412,5.4688 12.5938,5.4688 4.7526,0 8.7448,-1.8216 12,-5.5 3.1575,-3.5482 4.75,-7.7448 4.75,-12.5625 0,-4.8177 -1.5339,-8.983 -4.5938,-12.5313 -3.2226,-3.7108 -7.1862,-5.5624 -11.9062,-5.5624 z m 174.0938,30.4687 c 0.18,-0.0168 0.3753,0 0.5624,0 1.4974,0 2.7709,0.5195 3.8126,1.5937 1.0416,1.0743 1.5624,2.3777 1.5624,3.875 0,1.4974 -0.5208,2.7396 -1.5624,3.7813 -1.0417,1.0091 -2.3152,1.5313 -3.8126,1.5313 -1.4974,0 -2.7708,-0.5222 -3.8124,-1.5313 -1.0092,-1.0417 -1.5001,-2.2839 -1.5,-3.7813 -1e-4,-1.4973 0.4908,-2.8007 1.5,-3.875 0.9114,-0.9399 1.9896,-1.4762 3.25,-1.5937 z"
         style="fill:#ffffff;fill-opacity:1;fill-rule:nonzero;stroke:#ffffff;stroke-width:1.5;stroke-linecap:square;stroke-linejoin:bevel;stroke-miterlimit:1;stroke-opacity:1;stroke-dasharray:none;stroke-dashoffset:0"
         inkscape:connector-curvature="0" />
    </mask>
    <mask
       maskUnits="userSpaceOnUse"
       id="mask7275">
      <path
         style="fill:#ffffff;fill-opacity:1;fill-rule:nonzero;stroke:#ffffff;stroke-width:1.5;stroke-linecap:square;stroke-linejoin:bevel;stroke-miterlimit:1;stroke-opacity:1;stroke-dasharray:none;stroke-dashoffset:0"
         d="m 1070,737.36218 0,246 766,0 0,-246 -766,0 z m 403,81.3125 9.7188,0 -15.9063,18.34375 -7.4687,0 L 1473,818.67468 z m 8.4375,7.0625 10.5937,0 20.2188,30 20.0938,-30 10.5937,0 -25.7813,38.1875 0,34.7187 -9.9374,0 0,-34.7187 -25.7813,-38.1875 z m -274.6875,6.65625 c 1.0417,7e-5 1.9388,0.34642 2.6875,1.0625 0.7487,0.71621 1.125,1.61465 1.125,2.65625 0,1.04173 -0.3763,1.90891 -1.125,2.625 -0.7487,0.71621 -1.6458,1.06256 -2.6875,1.0625 -1.0091,6e-5 -1.9063,-0.34629 -2.6875,-1.0625 -0.7813,-0.74864 -1.1875,-1.61582 -1.1875,-2.625 0,-1.00905 0.4062,-1.87754 1.1875,-2.59375 0.7812,-0.74863 1.6784,-1.12493 2.6875,-1.125 z m 51.125,0.0937 6.4375,0 0,66.1562 -6.4375,0 0,-8.5 c -4.1667,6.3803 -9.8386,9.5938 -17,9.5938 -6.4779,0 -12.1784,-2.4609 -17.0938,-7.3438 -4.8828,-4.9153 -7.3124,-10.6158 -7.3124,-17.0937 0,-6.5104 2.4583,-12.2109 7.4062,-17.0937 4.9805,-4.9154 10.7396,-7.375 17.25,-7.37505 7.1614,5e-5 12.7461,3.21355 16.75,9.59375 l 0,-27.9375 z m 432.0312,10.15625 c 7.8125,6e-5 13.9466,2.54693 18.4063,7.625 4.4596,5.07815 6.6874,12.10945 6.6875,21.09375 -10e-5,8.9518 -2.2279,15.9831 -6.6875,21.0938 -4.4597,5.0781 -10.5938,7.5937 -18.4063,7.5937 -7.845,0 -14.0091,-2.5156 -18.4687,-7.5937 -4.4271,-5.1107 -6.625,-12.142 -6.625,-21.0938 0,-8.9843 2.1979,-16.0156 6.625,-21.09375 4.4596,-5.07807 10.6237,-7.62494 18.4687,-7.625 z m 63.5313,0 c 2.7669,6e-5 5.457,0.28912 8.0937,0.875 2.6367,0.55344 5.1823,1.39198 7.6563,2.53125 l 0,8.4063 c -2.5391,-1.3997 -5.0847,-2.44141 -7.6563,-3.12505 -2.5391,-0.7161 -5.1146,-1.06245 -7.7187,-1.0625 -5.8269,5e-5 -10.3399,1.85161 -13.5625,5.56255 -3.2227,3.6784 -4.8438,8.8581 -4.8438,15.5312 0,6.6732 1.6211,11.8516 4.8438,15.5625 3.2226,3.6784 7.6784,5.5313 13.375,5.5313 4.2643,0 7.677,1.2135 10.2812,3.6874 2.7344,2.5717 4.125,5.8125 4.125,9.7188 0,3.7435 -1.2161,6.9271 -3.625,9.5312 -2.6042,2.8321 -6.569,4.25 -11.875,4.25 0,-2.4414 0,-4.901 0,-7.375 2.2461,0.1628 4.0703,-0.4739 5.4376,-1.9062 1.0416,-1.1393 1.5624,-2.2956 1.5624,-3.5 0,-1.7253 -0.5208,-3.3177 -1.5624,-4.75 -1.0092,-1.3672 -2.4558,-2.0625 -4.3438,-2.0625 -8.7565,0 -15.556,-2.5742 -20.4062,-7.75 -4.8503,-5.1758 -7.2813,-12.1484 -7.2813,-20.9375 0,-8.9192 2.4297,-15.9518 7.3125,-21.0625 4.9153,-5.11062 11.6588,-7.65619 20.1875,-7.65625 z m -206.5625,1.3125 52.4062,0 0,9.00005 -6.9062,0 0,33.5937 c 0,2.3438 0.4062,4.0208 1.1875,5.0625 0.8138,1.0091 2.1158,1.5313 3.9063,1.5312 0.4882,10e-5 1.0962,-0.0598 1.8124,-0.125 0.7161,-0.0976 1.1784,-0.1549 1.4063,-0.1874 l 0,6.5 c -1.1394,0.4231 -2.2956,0.7421 -3.5,0.9374 -1.2045,0.1954 -2.4206,0.2813 -3.625,0.2813 -3.9063,0 -6.5964,-1.0404 -8.0937,-3.1563 -1.4975,-2.1484 -2.2501,-6.1145 -2.25,-11.8437 l 0,-32.5937 -20.1876,0 0,45.6874 -9.1562,0 0,-45.6874 -7,0 0,-9.00005 z m 60.1562,0 9.6876,0 14.0937,45.90625 c 3.9062,-4.0364 7.4948,-8.8698 10.75,-14.4688 2.4739,-4.1991 3.776,-8.1041 3.9063,-11.75 0.065,-1.7252 -0.3126,-4.2135 -1.0938,-7.4687 -0.9115,-3.87365 -3.0808,-7.95438 -6.5312,-12.21875 l 9.0937,0 c 2.246,2.89719 4.0963,6.36984 5.5937,10.40625 1.3672,3.711 2.0625,6.836 2.0626,9.375 -1e-4,6.3802 -2.198,12.4284 -6.625,18.125 -5.7618,7.4219 -10.6524,13.0052 -14.6563,16.7812 l -9.5625,0 -16.7188,-54.68745 z m 82.875,6.3125 c -4.8177,5e-5 -8.638,1.88025 -11.4374,5.65625 -2.7995,3.7435 -4.1876,8.8946 -4.1876,15.4375 0,6.543 1.3894,11.6927 4.1563,15.4688 2.7995,3.7434 6.6185,5.625 11.4687,5.625 4.7852,0 8.5755,-1.9115 11.375,-5.6876 2.7995,-3.776 4.1875,-8.8958 4.1876,-15.4062 -1e-4,-6.4778 -1.3881,-11.5989 -4.1876,-15.375 -2.7995,-3.80855 -6.5898,-5.7187 -11.375,-5.71875 z m -521.0624,0.78125 c 5.078,5e-5 9.5351,0.98312 13.3437,2.9687 4.6224,2.4089 7.2252,5.8816 7.8437,10.4063 l -6.125,1.3125 c -1.2044,-5.664 -6.5885,-8.5 -16.0937,-8.5 -2.9297,0 -5.5039,0.4922 -7.75,1.4688 -2.9948,1.3021 -4.5,3.2409 -4.5,5.8124 0,3.5483 2.6927,5.9506 8.0313,7.1876 4.1015,0.4557 8.2096,0.9179 12.3437,1.4062 4.069,0.586 7.7135,2.2357 10.9687,4.9375 1.9531,1.6276 2.9375,4.2604 2.9376,7.9063 -1e-4,4.3294 -2.3438,7.802 -7.0313,10.4062 -3.9063,2.181 -8.2175,3.25 -12.9375,3.25 -5.0456,0 -9.4727,-0.9831 -13.2812,-2.9688 -4.5899,-2.4088 -7.1941,-5.8815 -7.8126,-10.4062 l 6.1563,-1.3125 c 0.1953,2.8971 2.1328,5.1263 5.8437,6.6563 2.8321,1.1393 5.987,1.6875 9.4376,1.6874 2.9296,10e-5 5.6197,-0.5208 8.0937,-1.5624 3.2226,-1.3347 4.8437,-3.2435 4.8437,-5.75 0,-2.9297 -1.9375,-5.0144 -5.8437,-6.2188 -1.0091,-0.2929 -5.1185,-0.957 -12.3125,-2.0312 -5.306,-0.7813 -8.9818,-2.0261 -11,-3.7188 -1.888,-1.5299 -3.1315,-2.8606 -3.75,-4 -0.7161,-1.2695 -1.0625,-3.0338 -1.0625,-5.3125 0,-4.4921 2.2565,-7.9934 6.7813,-10.5 3.7109,-2.08329 7.9921,-3.12495 12.875,-3.125 z m 246.9374,0.625 c 1.4649,5e-5 2.7084,0.52088 3.75,1.5625 1.0743,1.0417 1.625,2.2852 1.625,3.75 0,1.4974 -0.5208,2.8008 -1.5624,3.875 -1.0417,1.0743 -2.3152,1.5938 -3.8126,1.5938 -1.4974,0 -2.7708,-0.5195 -3.8124,-1.5938 -1.0092,-1.0742 -1.5001,-2.3776 -1.5,-3.875 -1e-4,-1.4648 0.5208,-2.7083 1.5624,-3.75 1.0417,-1.04162 2.2852,-1.56245 3.75,-1.5625 z m -218.4687,0.25 12.5625,0 0,46.7187 -6.3438,0 0,-40.375 -6.2187,0 0,-6.3437 z m 74.8125,0 6.3438,0 0,24.4687 c -1e-4,4.5574 1.1874,8.435 3.5312,11.625 2.6042,3.5808 6.0755,5.3438 10.4375,5.3438 4.7526,0 8.3984,-1.8802 10.9375,-5.6562 2.181,-3.2878 3.2812,-7.4258 3.2812,-12.4063 l 0,-23.375 6.3438,0 0,46.7187 -6.3438,0 0,-6.6874 c -3.5482,5.1757 -8.2943,7.7812 -14.2187,7.7812 -6.5755,0 -11.6979,-2.3151 -15.3437,-6.9375 -3.3204,-4.1992 -4.9688,-9.668 -4.9688,-16.4063 l 0,-24.4687 z m 50.5,0 7.9375,0 13.1563,18 13.1562,-18 8.0312,0 -17.0937,23.5313 17.0937,23.1874 -8.1562,0 -13.0312,-17.875 -13,17.875 -8.0938,0 17.1875,-23.1874 -17.1875,-23.5313 z m -81.5,5.2813 c -4.7852,0 -9.0391,1.8216 -12.75,5.5 -3.7109,3.6458 -5.5625,7.8411 -5.5625,12.5937 0,4.7526 1.8229,8.9479 5.4687,12.5937 3.6459,3.6459 7.8412,5.4688 12.5938,5.4688 4.7526,0 8.7448,-1.8216 12,-5.5 3.1575,-3.5482 4.75,-7.7448 4.75,-12.5625 0,-4.8177 -1.5339,-8.983 -4.5938,-12.5313 -3.2226,-3.7108 -7.1862,-5.5624 -11.9062,-5.5624 z m 174.0938,30.4687 c 0.18,-0.0168 0.3753,0 0.5624,0 1.4974,0 2.7709,0.5195 3.8126,1.5937 1.0416,1.0743 1.5624,2.3777 1.5624,3.875 0,1.4974 -0.5208,2.7396 -1.5624,3.7813 -1.0417,1.0091 -2.3152,1.5313 -3.8126,1.5313 -1.4974,0 -2.7708,-0.5222 -3.8124,-1.5313 -1.0092,-1.0417 -1.5001,-2.2839 -1.5,-3.7813 -1e-4,-1.4973 0.4908,-2.8007 1.5,-3.875 0.9114,-0.9399 1.9896,-1.4762 3.25,-1.5937 z"
         id="path7277"
         inkscape:connector-curvature="0" />
    </mask>
    <mask
       maskUnits="userSpaceOnUse"
       id="mask4119">
      <path
         style="fill:#ffffff;fill-opacity:1;fill-rule:nonzero;stroke:#ffffff;stroke-width:1.5;stroke-linecap:square;stroke-linejoin:bevel;stroke-miterlimit:1;stroke-opacity:1;stroke-dasharray:none;stroke-dashoffset:0"
         d="m 1070,737.36218 0,246 766,0 0,-246 -766,0 z m 403,81.3125 9.7188,0 -15.9063,18.34375 -7.4687,0 L 1473,818.67468 z m 8.4375,7.0625 10.5937,0 20.2188,30 20.0938,-30 10.5937,0 -25.7813,38.1875 0,34.7187 -9.9374,0 0,-34.7187 -25.7813,-38.1875 z m -274.6875,6.65625 c 1.0417,7e-5 1.9388,0.34642 2.6875,1.0625 0.7487,0.71621 1.125,1.61465 1.125,2.65625 0,1.04173 -0.3763,1.90891 -1.125,2.625 -0.7487,0.71621 -1.6458,1.06256 -2.6875,1.0625 -1.0091,6e-5 -1.9063,-0.34629 -2.6875,-1.0625 -0.7813,-0.74864 -1.1875,-1.61582 -1.1875,-2.625 0,-1.00905 0.4062,-1.87754 1.1875,-2.59375 0.7812,-0.74863 1.6784,-1.12493 2.6875,-1.125 z m 51.125,0.0937 6.4375,0 0,66.1562 -6.4375,0 0,-8.5 c -4.1667,6.3803 -9.8386,9.5938 -17,9.5938 -6.4779,0 -12.1784,-2.4609 -17.0938,-7.3438 -4.8828,-4.9153 -7.3124,-10.6158 -7.3124,-17.0937 0,-6.5104 2.4583,-12.2109 7.4062,-17.0937 4.9805,-4.9154 10.7396,-7.375 17.25,-7.37505 7.1614,5e-5 12.7461,3.21355 16.75,9.59375 l 0,-27.9375 z m 432.0312,10.15625 c 7.8125,6e-5 13.9466,2.54693 18.4063,7.625 4.4596,5.07815 6.6874,12.10945 6.6875,21.09375 -10e-5,8.9518 -2.2279,15.9831 -6.6875,21.0938 -4.4597,5.0781 -10.5938,7.5937 -18.4063,7.5937 -7.845,0 -14.0091,-2.5156 -18.4687,-7.5937 -4.4271,-5.1107 -6.625,-12.142 -6.625,-21.0938 0,-8.9843 2.1979,-16.0156 6.625,-21.09375 4.4596,-5.07807 10.6237,-7.62494 18.4687,-7.625 z m 63.5313,0 c 2.7669,6e-5 5.457,0.28912 8.0937,0.875 2.6367,0.55344 5.1823,1.39198 7.6563,2.53125 l 0,8.4063 c -2.5391,-1.3997 -5.0847,-2.44141 -7.6563,-3.12505 -2.5391,-0.7161 -5.1146,-1.06245 -7.7187,-1.0625 -5.8269,5e-5 -10.3399,1.85161 -13.5625,5.56255 -3.2227,3.6784 -4.8438,8.8581 -4.8438,15.5312 0,6.6732 1.6211,11.8516 4.8438,15.5625 3.2226,3.6784 7.6784,5.5313 13.375,5.5313 4.2643,0 7.677,1.2135 10.2812,3.6874 2.7344,2.5717 4.125,5.8125 4.125,9.7188 0,3.7435 -1.2161,6.9271 -3.625,9.5312 -2.6042,2.8321 -6.569,4.25 -11.875,4.25 0,-2.4414 0,-4.901 0,-7.375 2.2461,0.1628 4.0703,-0.4739 5.4376,-1.9062 1.0416,-1.1393 1.5624,-2.2956 1.5624,-3.5 0,-1.7253 -0.5208,-3.3177 -1.5624,-4.75 -1.0092,-1.3672 -2.4558,-2.0625 -4.3438,-2.0625 -8.7565,0 -15.556,-2.5742 -20.4062,-7.75 -4.8503,-5.1758 -7.2813,-12.1484 -7.2813,-20.9375 0,-8.9192 2.4297,-15.9518 7.3125,-21.0625 4.9153,-5.11062 11.6588,-7.65619 20.1875,-7.65625 z m -206.5625,1.3125 52.4062,0 0,9.00005 -6.9062,0 0,33.5937 c 0,2.3438 0.4062,4.0208 1.1875,5.0625 0.8138,1.0091 2.1158,1.5313 3.9063,1.5312 0.4882,10e-5 1.0962,-0.0598 1.8124,-0.125 0.7161,-0.0976 1.1784,-0.1549 1.4063,-0.1874 l 0,6.5 c -1.1394,0.4231 -2.2956,0.7421 -3.5,0.9374 -1.2045,0.1954 -2.4206,0.2813 -3.625,0.2813 -3.9063,0 -6.5964,-1.0404 -8.0937,-3.1563 -1.4975,-2.1484 -2.2501,-6.1145 -2.25,-11.8437 l 0,-32.5937 -20.1876,0 0,45.6874 -9.1562,0 0,-45.6874 -7,0 0,-9.00005 z m 60.1562,0 9.6876,0 14.0937,45.90625 c 3.9062,-4.0364 7.4948,-8.8698 10.75,-14.4688 2.4739,-4.1991 3.776,-8.1041 3.9063,-11.75 0.065,-1.7252 -0.3126,-4.2135 -1.0938,-7.4687 -0.9115,-3.87365 -3.0808,-7.95438 -6.5312,-12.21875 l 9.0937,0 c 2.246,2.89719 4.0963,6.36984 5.5937,10.40625 1.3672,3.711 2.0625,6.836 2.0626,9.375 -1e-4,6.3802 -2.198,12.4284 -6.625,18.125 -5.7618,7.4219 -10.6524,13.0052 -14.6563,16.7812 l -9.5625,0 -16.7188,-54.68745 z m 82.875,6.3125 c -4.8177,5e-5 -8.638,1.88025 -11.4374,5.65625 -2.7995,3.7435 -4.1876,8.8946 -4.1876,15.4375 0,6.543 1.3894,11.6927 4.1563,15.4688 2.7995,3.7434 6.6185,5.625 11.4687,5.625 4.7852,0 8.5755,-1.9115 11.375,-5.6876 2.7995,-3.776 4.1875,-8.8958 4.1876,-15.4062 -1e-4,-6.4778 -1.3881,-11.5989 -4.1876,-15.375 -2.7995,-3.80855 -6.5898,-5.7187 -11.375,-5.71875 z m -521.0624,0.78125 c 5.078,5e-5 9.5351,0.98312 13.3437,2.9687 4.6224,2.4089 7.2252,5.8816 7.8437,10.4063 l -6.125,1.3125 c -1.2044,-5.664 -6.5885,-8.5 -16.0937,-8.5 -2.9297,0 -5.5039,0.4922 -7.75,1.4688 -2.9948,1.3021 -4.5,3.2409 -4.5,5.8124 0,3.5483 2.6927,5.9506 8.0313,7.1876 4.1015,0.4557 8.2096,0.9179 12.3437,1.4062 4.069,0.586 7.7135,2.2357 10.9687,4.9375 1.9531,1.6276 2.9375,4.2604 2.9376,7.9063 -1e-4,4.3294 -2.3438,7.802 -7.0313,10.4062 -3.9063,2.181 -8.2175,3.25 -12.9375,3.25 -5.0456,0 -9.4727,-0.9831 -13.2812,-2.9688 -4.5899,-2.4088 -7.1941,-5.8815 -7.8126,-10.4062 l 6.1563,-1.3125 c 0.1953,2.8971 2.1328,5.1263 5.8437,6.6563 2.8321,1.1393 5.987,1.6875 9.4376,1.6874 2.9296,10e-5 5.6197,-0.5208 8.0937,-1.5624 3.2226,-1.3347 4.8437,-3.2435 4.8437,-5.75 0,-2.9297 -1.9375,-5.0144 -5.8437,-6.2188 -1.0091,-0.2929 -5.1185,-0.957 -12.3125,-2.0312 -5.306,-0.7813 -8.9818,-2.0261 -11,-3.7188 -1.888,-1.5299 -3.1315,-2.8606 -3.75,-4 -0.7161,-1.2695 -1.0625,-3.0338 -1.0625,-5.3125 0,-4.4921 2.2565,-7.9934 6.7813,-10.5 3.7109,-2.08329 7.9921,-3.12495 12.875,-3.125 z m 246.9374,0.625 c 1.4649,5e-5 2.7084,0.52088 3.75,1.5625 1.0743,1.0417 1.625,2.2852 1.625,3.75 0,1.4974 -0.5208,2.8008 -1.5624,3.875 -1.0417,1.0743 -2.3152,1.5938 -3.8126,1.5938 -1.4974,0 -2.7708,-0.5195 -3.8124,-1.5938 -1.0092,-1.0742 -1.5001,-2.3776 -1.5,-3.875 -1e-4,-1.4648 0.5208,-2.7083 1.5624,-3.75 1.0417,-1.04162 2.2852,-1.56245 3.75,-1.5625 z m -218.4687,0.25 12.5625,0 0,46.7187 -6.3438,0 0,-40.375 -6.2187,0 0,-6.3437 z m 74.8125,0 6.3438,0 0,24.4687 c -1e-4,4.5574 1.1874,8.435 3.5312,11.625 2.6042,3.5808 6.0755,5.3438 10.4375,5.3438 4.7526,0 8.3984,-1.8802 10.9375,-5.6562 2.181,-3.2878 3.2812,-7.4258 3.2812,-12.4063 l 0,-23.375 6.3438,0 0,46.7187 -6.3438,0 0,-6.6874 c -3.5482,5.1757 -8.2943,7.7812 -14.2187,7.7812 -6.5755,0 -11.6979,-2.3151 -15.3437,-6.9375 -3.3204,-4.1992 -4.9688,-9.668 -4.9688,-16.4063 l 0,-24.4687 z m 50.5,0 7.9375,0 13.1563,18 13.1562,-18 8.0312,0 -17.0937,23.5313 17.0937,23.1874 -8.1562,0 -13.0312,-17.875 -13,17.875 -8.0938,0 17.1875,-23.1874 -17.1875,-23.5313 z m -81.5,5.2813 c -4.7852,0 -9.0391,1.8216 -12.75,5.5 -3.7109,3.6458 -5.5625,7.8411 -5.5625,12.5937 0,4.7526 1.8229,8.9479 5.4687,12.5937 3.6459,3.6459 7.8412,5.4688 12.5938,5.4688 4.7526,0 8.7448,-1.8216 12,-5.5 3.1575,-3.5482 4.75,-7.7448 4.75,-12.5625 0,-4.8177 -1.5339,-8.983 -4.5938,-12.5313 -3.2226,-3.7108 -7.1862,-5.5624 -11.9062,-5.5624 z m 174.0938,30.4687 c 0.18,-0.0168 0.3753,0 0.5624,0 1.4974,0 2.7709,0.5195 3.8126,1.5937 1.0416,1.0743 1.5624,2.3777 1.5624,3.875 0,1.4974 -0.5208,2.7396 -1.5624,3.7813 -1.0417,1.0091 -2.3152,1.5313 -3.8126,1.5313 -1.4974,0 -2.7708,-0.5222 -3.8124,-1.5313 -1.0092,-1.0417 -1.5001,-2.2839 -1.5,-3.7813 -1e-4,-1.4973 0.4908,-2.8007 1.5,-3.875 0.9114,-0.9399 1.9896,-1.4762 3.25,-1.5937 z"
         id="path4121"
         inkscape:connector-curvature="0" />
    </mask>
    <filter
       inkscape:collect="always"
       id="filter3712"
       color-interpolation-filters="sRGB">
      <feGaussianBlur
         inkscape:collect="always"
         stdDeviation="2.3139136"
         id="feGaussianBlur3714" />
    </filter>
    <clipPath
       clipPathUnits="userSpaceOnUse"
       id="clipPath2928">
      <rect
         style="fill:#ffffff;fill-opacity:1;fill-rule:nonzero;stroke:none"
         id="rect2930"
         width="21.629629"
         height="102.22222"
         x="1192.5134"
         y="969.74225" />
    </clipPath>
  </defs>
  <sodipodi:namedview
     id="base"
     pagecolor="#0000ff"
     bordercolor="#666666"
     borderopacity="1.0"
     inkscape:pageopacity="0"
     inkscape:pageshadow="2"
     inkscape:zoom="3.375"
     inkscape:cx="40.898051"
     inkscape:cy="25.889937"
     inkscape:document-units="px"
     inkscape:current-layer="layer1"
     showgrid="false"
     inkscape:window-width="1390"
     inkscape:window-height="974"
     inkscape:window-x="223"
     inkscape:window-y="102"
     inkscape:window-maximized="0" />
  <metadata
     id="metadata4143">
    <rdf:RDF>
      <cc:Work
         rdf:about="">
        <dc:format>image/svg+xml</dc:format>
        <dc:type
           rdf:resource="http://purl.org/dc/dcmitype/StillImage" />
        <dc:title></dc:title>
      </cc:Work>
    </rdf:RDF>
  </metadata>
  <g
     inkscape:label="Layer 1"
     inkscape:groupmode="layer"
     id="layer1"
     transform="translate(153.83634,-570.12867)">
    <text
       xml:space="preserve"
       style="font-size:122.00331879px;font-style:normal;font-variant:normal;font-weight:normal;font-stretch:normal;fill:#000000;fill-opacity:1;stroke:none;display:inline;filter:url(#filter3712);enable-background:new;font-family:Dustismo;-inkscape-font-specification:Dustismo"
       x="-126.72807"
       y="753.58899"
       id="shadow"
       transform="scale(1.1802958,0.84724525)"
       inkscape:transform-center-y="-28.872078"><tspan
         sodipodi:role="line"
         id="tspan2926"
         x="-126.72807"
         y="753.58899"
         style="font-size:84.72452545px;fill:#000000;fill-opacity:1;stroke:none"
         dx="0">i</tspan></text>
  </g>
</svg>
