<?xml version="1.0" encoding="UTF-8" standalone="no"?>
<!-- Created with Inkscape (http://www.inkscape.org/) -->

<svg
   xmlns:dc="http://purl.org/dc/elements/1.1/"
   xmlns:cc="http://creativecommons.org/ns#"
   xmlns:rdf="http://www.w3.org/1999/02/22-rdf-syntax-ns#"
   xmlns:svg="http://www.w3.org/2000/svg"
   xmlns="http://www.w3.org/2000/svg"
   xmlns:xlink="http://www.w3.org/1999/xlink"
   xmlns:sodipodi="http://sodipodi.sourceforge.net/DTD/sodipodi-0.dtd"
   xmlns:inkscape="http://www.inkscape.org/namespaces/inkscape"
   width="250"
   height="1200"
   id="svg2"
   version="1.1"
   inkscape:version="1.2.2 (b0a8486541, 2022-12-01)"
   sodipodi:docname="sidb.svg"
   inkscape:export-filename="frame30/sid.png"
   inkscape:export-xdpi="90"
   inkscape:export-ydpi="90"
   style="display:inline">
  <defs
     id="defs4">
    <filter
       id="filter4202"
       inkscape:label="Motion blur, vertical"
       inkscape:menu="Blurs"
       inkscape:menu-tooltip="Blur as if the object flies vertically; adjust Standard Deviation to vary force"
       color-interpolation-filters="sRGB"
       width="2"
       height="8"
       y="-3.5"
       x="-0.5">
      <feTurbulence
         id="feTurbulence4204"
         baseFrequency="0.14299516908212559"
         numOctaves="2"
         type="fractalNoise" />
      <feColorMatrix
         id="feColorMatrix4206"
         values="1 0 0 0 0 0 1 0 0 0 0 0 1 0 0 0 0 0 6 -3.5 "
         result="result5" />
      <feComposite
         id="feComposite4208"
         in2="result5"
         operator="in"
         in="SourceGraphic"
         result="result6" />
      <feMorphology
         id="feMorphology4210"
         result="result3"
         radius="5"
         operator="dilate"
         in="result6" />
      <feDisplacementMap
         id="feDisplacementMap4212"
         in2="result3"
         result="result4"
         scale="10"
         yChannelSelector="A"
         xChannelSelector="R"
         in="result3" />
      <feComposite
         k4="0"
         k2="0"
         id="feComposite4214"
         in2="result4"
         operator="arithmetic"
         result="result2"
         k1="1"
         k3="1" />
      <feBlend
         id="feBlend4216"
         in2="result2"
         mode="darken"
         in="result2" />
      <feConvolveMatrix
         id="feConvolveMatrix4218"
         order="3 3"
         kernelMatrix="2 0 0 0 1 0 0 0 -1 "
         targetX="1"
         targetY="1"
         divisor="2"
         edgeMode="none"
         result="fbSourceGraphic" />
      <feColorMatrix
         result="fbSourceGraphicAlpha"
         in="fbSourceGraphic"
         values="0 0 0 -1 0 0 0 0 -1 0 0 0 0 -1 0 0 0 0 1 0"
         id="feColorMatrix4220" />
      <feGaussianBlur
         id="feGaussianBlur4222"
         result="result1"
         in="fbSourceGraphic"
         stdDeviation="5" />
      <feTurbulence
         id="feTurbulence4224"
         result="result0"
         numOctaves="4"
         baseFrequency="0.02" />
      <feDisplacementMap
         id="feDisplacementMap4226"
         in2="result0"
         result="result2"
         scale="20"
         yChannelSelector="G"
         xChannelSelector="R"
         in="result1" />
      <feColorMatrix
         id="feColorMatrix4229"
         values="2 0 0 0 0 0 2 0 0 0 0 0 2 0 0 0 0 0 0.7 0"
         result="result3" />
      <feGaussianBlur
         id="feGaussianBlur4231"
         result="result4"
         in="fbSourceGraphic"
         stdDeviation="1.1" />
      <feComposite
         id="feComposite4233"
         in2="result3"
         in="result4"
         result="fbSourceGraphic" />
      <feColorMatrix
         result="fbSourceGraphicAlpha"
         in="fbSourceGraphic"
         values="0 0 0 -1 0 0 0 0 -1 0 0 0 0 -1 0 0 0 0 1 0"
         id="feColorMatrix4268" />
      <feGaussianBlur
         id="feGaussianBlur4270"
         stdDeviation="0.01"
         result="result1"
         in="fbSourceGraphic" />
      <feBlend
         id="feBlend4272"
         in2="result1"
         result="fbSourceGraphic"
         mode="multiply" />
      <feTurbulence
         id="feTurbulence4274"
         baseFrequency="0.20000000000000001"
         type="fractalNoise"
         seed="0"
         numOctaves="3"
         result="result3" />
      <feDisplacementMap
         id="feDisplacementMap4276"
         in2="result3"
         in="fbSourceGraphic"
         xChannelSelector="R"
         yChannelSelector="G"
         scale="30"
         result="result2" />
      <feMorphology
         id="feMorphology4278"
         radius="1"
         operator="dilate"
         result="result4" />
      <feBlend
         id="feBlend4280"
         in2="result2"
         mode="screen"
         result="fbSourceGraphic" />
      <feColorMatrix
         result="fbSourceGraphicAlpha"
         in="fbSourceGraphic"
         values="0 0 0 -1 0 0 0 0 -1 0 0 0 0 -1 0 0 0 0 1 0"
         id="feColorMatrix4282" />
      <feGaussianBlur
         id="feGaussianBlur4284"
         in="fbSourceGraphic"
         stdDeviation="0.01 100" />
    </filter>
    <linearGradient
       inkscape:collect="always"
       xlink:href="#linearGradient5088"
       id="linearGradient3952"
       x1="533.05945"
       y1="1583.1045"
       x2="533.05945"
       y2="1457.2866"
       gradientUnits="userSpaceOnUse" />
    <linearGradient
       inkscape:collect="always"
       id="linearGradient5088">
      <stop
         style="stop-color:#af0000;stop-opacity:1;"
         offset="0"
         id="stop5090" />
      <stop
         style="stop-color:#af0000;stop-opacity:0;"
         offset="1"
         id="stop5092" />
    </linearGradient>
    <linearGradient
       inkscape:collect="always"
       xlink:href="#linearGradient5088"
       id="linearGradient3977"
       gradientUnits="userSpaceOnUse"
       x1="533.05945"
       y1="1583.1045"
       x2="533.05945"
       y2="1457.2866" />
    <linearGradient
       inkscape:collect="always"
       xlink:href="#linearGradient5088"
       id="linearGradient3981"
       gradientUnits="userSpaceOnUse"
       x1="533.05945"
       y1="1583.1045"
       x2="533.05945"
       y2="1457.2866" />
    <linearGradient
       inkscape:collect="always"
       xlink:href="#linearGradient5088"
       id="linearGradient3983"
       gradientUnits="userSpaceOnUse"
       x1="533.05945"
       y1="1583.1045"
       x2="533.05945"
       y2="1457.2866" />
    <linearGradient
       inkscape:collect="always"
       xlink:href="#linearGradient5088"
       id="linearGradient3987"
       gradientUnits="userSpaceOnUse"
       x1="533.05945"
       y1="1583.1045"
       x2="533.05945"
       y2="1457.2866" />
  </defs>
  <sodipodi:namedview
     id="base"
     pagecolor="#000000"
     bordercolor="#666666"
     borderopacity="1.0"
     inkscape:pageopacity="0"
     inkscape:pageshadow="2"
     inkscape:zoom="1"
     inkscape:cx="173.9991"
     inkscape:cy="679.56689"
     inkscape:document-units="px"
     inkscape:current-layer="layer1"
     showgrid="false"
     inkscape:window-width="1920"
     inkscape:window-height="1148"
     inkscape:window-x="-4"
     inkscape:window-y="-3"
     inkscape:window-maximized="1"
     fit-margin-top="0"
     fit-margin-left="0"
     fit-margin-right="0"
     fit-margin-bottom="0"
     borderlayer="true"
     showguides="true"
     inkscape:guide-bbox="true" />
  <metadata
     id="metadata7">
    <rdf:RDF>
      <cc:Work
         rdf:about="">
        <dc:format>image/svg+xml</dc:format>
        <dc:type
           rdf:resource="http://purl.org/dc/dcmitype/StillImage" />
        <dc:title />
      </cc:Work>
    </rdf:RDF>
  </metadata>
  <g
     inkscape:label="aptosid"
     inkscape:groupmode="layer"
     id="layer1"
     transform="translate(0,126.00439)"
     style="display:inline">
    <g
       inkscape:label="aptosid"
       id="aptosid-blur"
       transform="matrix(1.2402429,0,0,1.2402429,-440.63882,-1410.7384)"
       style="fill:#af0000;fill-opacity:1;stroke:#ff0000;stroke-width:4.11401224000000010;stroke-linejoin:miter;stroke-miterlimit:4;stroke-opacity:1;stroke-dasharray:none;display:inline;filter:url(#filter4202)">
      <path
         inkscape:connector-curvature="0"
         id="s_"
         style="font-size:144px;font-style:normal;font-variant:normal;font-weight:bold;font-stretch:normal;text-align:start;line-height:125%;letter-spacing:0px;word-spacing:0px;writing-mode:lr-tb;text-anchor:start;fill:#af0000;fill-opacity:1;stroke:#ff0000;stroke-width:4.11401224000000010;stroke-linejoin:miter;stroke-miterlimit:4;stroke-opacity:1;stroke-dasharray:none;font-family:Dustismo;-inkscape-font-specification:Dustismo Bold"
         d="m 414.17377,1509.6121 c -0.2813,-4.3126 -2.7422,-7.5235 -7.3829,-9.6328 -3.6093,-1.6407 -7.8749,-2.461 -12.7968,-2.461 -3.5625,0 -6.9844,0.6563 -10.2657,1.9688 -4.3124,1.6875 -6.4687,4.0078 -6.4687,6.9609 0,3.1406 2.4141,5.5547 7.2422,7.2422 3.0469,1.0781 7.0473,1.1402 14.8125,2.1078 15.0809,1.8793 25.2899,7.7759 25.5469,20.3922 0.1345,6.608 -3.2813,11.8359 -9.8438,15.6797 -5.4843,3.2343 -11.8125,4.8515 -18.9844,4.8515 -7.8749,0 -14.578,-1.5938 -20.1093,-4.7812 -6.4687,-3.7032 -10.2187,-9.1641 -11.25,-16.3828 l 11.3203,-2.3906 c 1.1719,5.1093 4.4297,8.6015 9.1524,10.1015 4.7226,1.5 8.0365,1.9757 11.7382,1.875 4.5938,-0.125 9.0781,-1.3672 11.6524,-2.836 2.7293,-1.5573 4.5495,-3.0879 4.6523,-5.6952 0.1829,-4.6371 -3.9067,-7.2691 -12.2504,-8.7691 -6.0938,-0.75 -12.519,-1.2319 -18.6168,-2.6919 -4.9423,-1.1833 -9.4489,-3.0019 -12.5859,-6.539 -2.874,-3.2406 -4.5703,-6.586 -4.5703,-12.1641 0,-5.6719 2.4141,-10.1484 7.8164,-14.1328 5.4024,-3.9844 12.7852,-6.3281 21.5039,-6.3281 7.8282,0 14.4844,1.5937 19.9688,4.7812 6.4218,3.75 10.1484,9.2109 11.1796,16.3828 l -11.4609,2.461"
         sodipodi:nodetypes="ccscccsscscccsssscsaczsccc" />
      <path
         inkscape:connector-curvature="0"
         id="i-body_"
         style="font-size:144px;font-style:normal;font-variant:normal;font-weight:bold;font-stretch:normal;text-align:start;line-height:125%;letter-spacing:0px;word-spacing:0px;writing-mode:lr-tb;text-anchor:start;fill:#af0000;fill-opacity:1;stroke:#ff0000;stroke-width:4.11401224000000010;stroke-linejoin:miter;stroke-miterlimit:4;stroke-opacity:1;stroke-dasharray:none;font-family:Dustismo;-inkscape-font-specification:Dustismo Bold"
         d="m 433.60678,1487.1824 20.32031,0 0,68.2031 -11.60156,0 0,-56.6016 -8.71875,0 0,-11.6015"
         sodipodi:nodetypes="ccccccc" />
      <path
         style="fill:#af0000;fill-opacity:1;fill-rule:nonzero;stroke:#ff0000;stroke-width:4.11401224000000010;stroke-linejoin:miter;stroke-miterlimit:4;stroke-opacity:1;stroke-dasharray:none"
         d="m 448.25844,1456.6341 9.895,9.894 -9.895,9.895 -9.894,-9.895 z"
         id="i-dot_"
         inkscape:connector-curvature="0"
         sodipodi:nodetypes="ccccc" />
      <path
         style="fill:#af0000;fill-opacity:1;fill-rule:nonzero;stroke:#ff0000;stroke-width:4.11401224000000010;stroke-linejoin:miter;stroke-miterlimit:4;stroke-opacity:1;stroke-dasharray:none"
         d="m 508.45717,1459.9767 0,11.5937 13.25,0 0,24.625 c -5.5313,-6.9844 -12.89068,-10.4999 -22.125,-10.5 -9.51566,10e-5 -17.90627,3.5626 -25.125,10.6875 -7.17188,7.1251 -10.75,15.4532 -10.75,24.9687 0,9.5157 3.54687,17.8282 10.625,24.9063 7.0781,7.0781 15.35935,10.5937 24.875,10.5937 9.14058,0 16.64057,-3.4843 22.5,-10.4687 l 0,9 11.35225,0 0,-95.4062 z m -10.0625,37.3437 c 0.39002,-0.019 0.79199,0 1.1875,0 6.2812,0 11.53119,2.4531 15.75,7.375 4.03119,4.7344 6.03119,10.2813 6.03125,16.6562 -6e-5,6.3282 -2.07819,11.8594 -6.25,16.5938 -4.35943,4.875 -9.67192,7.3125 -15.90625,7.3125 -6.32815,0 -11.89065,-2.375 -16.71875,-7.1563 -4.78127,-4.8281 -7.18751,-10.4218 -7.1875,-16.75 -1e-5,-6.328 2.48435,-11.8906 7.40625,-16.7187 4.61423,-4.5704 9.83725,-7.0269 15.6875,-7.3125 z"
         id="d_"
         inkscape:connector-curvature="0"
         sodipodi:nodetypes="ccccccssscccccsscccscscs" />
    </g>
  </g>
</svg>
