<?xml version="1.0" encoding="UTF-8" standalone="no"?>
<!-- Created with Inkscape (http://www.inkscape.org/) -->
<svg
   xmlns:dc="http://purl.org/dc/elements/1.1/"
   xmlns:cc="http://web.resource.org/cc/"
   xmlns:rdf="http://www.w3.org/1999/02/22-rdf-syntax-ns#"
   xmlns:svg="http://www.w3.org/2000/svg"
   xmlns="http://www.w3.org/2000/svg"
   xmlns:xlink="http://www.w3.org/1999/xlink"
   xmlns:sodipodi="http://sodipodi.sourceforge.net/DTD/sodipodi-0.dtd"
   xmlns:inkscape="http://www.inkscape.org/namespaces/inkscape"
   width="744.09448819"
   height="1052.3622047"
   id="svg5550"
   sodipodi:version="0.32"
   inkscape:version="0.45+devel"
   sodipodi:docbase="/home/bernie/svn/svn.berlios.de-fullstory/sidux-art-kde-gaia/trunk/kdm/.source"
   sodipodi:docname="gaia-cle-coloured-kdm.svg"
   inkscape:output_extension="org.inkscape.output.svg.inkscape">
  <defs
     id="defs5552">
    <filter
       inkscape:collect="always"
       x="-0.11259903"
       width="1.2251981"
       y="-0.8937122"
       height="2.7874244"
       id="filter3782">
      <feGaussianBlur
         inkscape:collect="always"
         stdDeviation="13.538004"
         id="feGaussianBlur3784" />
    </filter>
    <filter
       id="filter3715"
       height="3.6188035"
       y="-1.3094018"
       width="1.53529"
       x="-0.267645"
       inkscape:collect="always">
      <feGaussianBlur
         id="feGaussianBlur3717"
         stdDeviation="59.104939"
         inkscape:collect="always" />
    </filter>
    <linearGradient
       id="linearGradient3370">
      <stop
         style="stop-color:#ffffff;stop-opacity:1;"
         offset="0"
         id="stop3372" />
      <stop
         id="stop3378"
         offset="0.5"
         style="stop-color:#ffffff;stop-opacity:0.69387758;" />
      <stop
         style="stop-color:#ffffff;stop-opacity:0.24705882;"
         offset="0.75"
         id="stop3380" />
      <stop
         style="stop-color:#ffffff;stop-opacity:0;"
         offset="1"
         id="stop3374" />
    </linearGradient>
    <filter
       id="filter3433"
       inkscape:collect="always">
      <feGaussianBlur
         id="feGaussianBlur3435"
         stdDeviation="1.5133333"
         inkscape:collect="always" />
    </filter>
    <filter
       id="filter3470"
       inkscape:collect="always">
      <feGaussianBlur
         id="feGaussianBlur3472"
         stdDeviation="5.5511666"
         inkscape:collect="always" />
    </filter>
    <filter
       id="filter3438"
       inkscape:collect="always">
      <feGaussianBlur
         id="feGaussianBlur3440"
         stdDeviation="8.9599999"
         inkscape:collect="always" />
    </filter>
    <linearGradient
       id="linearGradient4767">
      <stop
         style="stop-color:#000000;stop-opacity:1;"
         offset="0"
         id="stop4769" />
      <stop
         style="stop-color:#ffffff;stop-opacity:1;"
         offset="1"
         id="stop4771" />
    </linearGradient>
    <filter
       inkscape:collect="always"
       id="filter3423">
      <feGaussianBlur
         inkscape:collect="always"
         stdDeviation="32.423215"
         id="feGaussianBlur3425" />
    </filter>
    <filter
       inkscape:collect="always"
       x="-0.20888889"
       width="1.4177778"
       y="-1.0444444"
       height="3.0888889"
       id="filter4570">
      <feGaussianBlur
         inkscape:collect="always"
         stdDeviation="57.441513"
         id="feGaussianBlur4572" />
    </filter>
    <linearGradient
       id="linearGradient3685">
      <stop
         style="stop-color:#b0a57d;stop-opacity:1;"
         offset="0"
         id="stop3687" />
      <stop
         style="stop-color:#b0a57d;stop-opacity:0;"
         offset="1"
         id="stop3689" />
    </linearGradient>
    <linearGradient
       inkscape:collect="always"
       xlink:href="#linearGradient3685"
       id="linearGradient2980"
       gradientUnits="userSpaceOnUse"
       gradientTransform="matrix(1.8152339,0,0,1.8152339,-757.96199,-242.21471)"
       x1="889.6875"
       y1="782.13934"
       x2="1589.3438"
       y2="782.13934" />
    <linearGradient
       id="linearGradient3575">
      <stop
         style="stop-color:#d4cdb3;stop-opacity:1;"
         offset="0"
         id="stop3577" />
      <stop
         style="stop-color:#d4cdb3;stop-opacity:0;"
         offset="1"
         id="stop3579" />
    </linearGradient>
    <linearGradient
       inkscape:collect="always"
       xlink:href="#linearGradient3575"
       id="linearGradient3581"
       x1="1490.4122"
       y1="800.99219"
       x2="-95.599854"
       y2="784.3255"
       gradientUnits="userSpaceOnUse"
       gradientTransform="matrix(1.8152339,0,0,1.8152339,-1200.3768,-304.70882)" />
    <linearGradient
       id="linearGradient4815">
      <stop
         id="stop4817"
         offset="0"
         style="stop-color:#dabea5;stop-opacity:0.49803922;" />
      <stop
         style="stop-color:#ad976a;stop-opacity:1;"
         offset="0.5"
         id="stop4821" />
      <stop
         id="stop4819"
         offset="1"
         style="stop-color:#dad3a5;stop-opacity:0;" />
    </linearGradient>
    <linearGradient
       inkscape:collect="always"
       xlink:href="#linearGradient4815"
       id="linearGradient4813"
       x1="240.47917"
       y1="735.7605"
       x2="1478.6979"
       y2="735.7605"
       gradientUnits="userSpaceOnUse"
       gradientTransform="matrix(1.8152339,0,0,1.8152339,-1200.3768,-304.70882)" />
    <linearGradient
       id="linearGradient3698">
      <stop
         style="stop-color:#f6f2e5;stop-opacity:0.2857143;"
         offset="0"
         id="stop3700" />
      <stop
         id="stop3706"
         offset="0.5"
         style="stop-color:#f2ecd8;stop-opacity:0.9285714;" />
      <stop
         style="stop-color:#e3d9bc;stop-opacity:0;"
         offset="1"
         id="stop3702" />
    </linearGradient>
    <linearGradient
       inkscape:collect="always"
       xlink:href="#linearGradient3698"
       id="linearGradient2974"
       gradientUnits="userSpaceOnUse"
       gradientTransform="matrix(1.8152339,0,0,1.8152339,-765.22292,-263.99752)"
       x1="-33.240143"
       y1="799.11353"
       x2="1797.3337"
       y2="586.16479" />
    <linearGradient
       inkscape:collect="always"
       id="linearGradient3583">
      <stop
         style="stop-color:#000000;stop-opacity:1;"
         offset="0"
         id="stop3585" />
      <stop
         style="stop-color:#000000;stop-opacity:0;"
         offset="1"
         id="stop3587" />
    </linearGradient>
    <linearGradient
       inkscape:collect="always"
       xlink:href="#linearGradient3583"
       id="linearGradient2972"
       gradientUnits="userSpaceOnUse"
       gradientTransform="matrix(1.8152338,0,0,1.8152338,-757.96196,-242.2147)"
       x1="1302.9194"
       y1="747.50867"
       x2="-461.56662"
       y2="735.84198" />
    <linearGradient
       id="linearGradient4794">
      <stop
         style="stop-color:#a7a189;stop-opacity:0.52040815;"
         offset="0"
         id="stop4796" />
      <stop
         style="stop-color:#a7a189;stop-opacity:0;"
         offset="1"
         id="stop4798" />
    </linearGradient>
    <linearGradient
       inkscape:collect="always"
       xlink:href="#linearGradient4794"
       id="linearGradient4800"
       x1="847.29211"
       y1="750.87299"
       x2="288.14627"
       y2="920.87299"
       gradientUnits="userSpaceOnUse"
       gradientTransform="matrix(1.8152339,0,0,1.8152339,-1196.7463,-319.23069)" />
    <linearGradient
       id="linearGradient4680">
      <stop
         style="stop-color:#eee6c8;stop-opacity:0.29591838;"
         offset="0"
         id="stop4682" />
      <stop
         id="stop4688"
         offset="0.5"
         style="stop-color:#eee6c8;stop-opacity:1;" />
      <stop
         style="stop-color:#eee6c8;stop-opacity:0;"
         offset="1"
         id="stop4684" />
    </linearGradient>
    <linearGradient
       inkscape:collect="always"
       xlink:href="#linearGradient4680"
       id="linearGradient4686"
       x1="-2.8716238"
       y1="622.78705"
       x2="588.534"
       y2="622.78705"
       gradientUnits="userSpaceOnUse"
       gradientTransform="matrix(1.8152339,0,0,1.8152339,-1200.3768,-304.70882)" />
    <linearGradient
       id="linearGradient3393">
      <stop
         id="stop3395"
         offset="0"
         style="stop-color:#ffffff;stop-opacity:0.63541669;" />
      <stop
         id="stop3401"
         offset="1"
         style="stop-color:#ffffff;stop-opacity:0;" />
    </linearGradient>
    <linearGradient
       id="linearGradient3403">
      <stop
         id="stop3405"
         offset="0"
         style="stop-color:#ffffff;stop-opacity:0.60416669;" />
      <stop
         id="stop3409"
         offset="0.75"
         style="stop-color:#ffffff;stop-opacity:0.24705882;" />
      <stop
         id="stop3411"
         offset="1"
         style="stop-color:#ffffff;stop-opacity:0;" />
    </linearGradient>
    <linearGradient
       id="linearGradient3599">
      <stop
         style="stop-color:#ddd8a9;stop-opacity:0.63917524;"
         offset="0"
         id="stop3601" />
      <stop
         id="stop3607"
         offset="0.5"
         style="stop-color:#e3dfba;stop-opacity:0.31764706;" />
      <stop
         style="stop-color:#e6e3c2;stop-opacity:0.15686275;"
         offset="0.75"
         id="stop3609" />
      <stop
         style="stop-color:#eae7cb;stop-opacity:0;"
         offset="1"
         id="stop3603" />
    </linearGradient>
    <filter
       inkscape:collect="always"
       x="-0.25280899"
       width="1.505618"
       y="-0.25280899"
       height="1.505618"
       id="filter3602">
      <feGaussianBlur
         inkscape:collect="always"
         stdDeviation="4.6348316"
         id="feGaussianBlur3604" />
    </filter>
    <radialGradient
       inkscape:collect="always"
       xlink:href="#linearGradient3817"
       id="radialGradient4793"
       gradientUnits="userSpaceOnUse"
       cx="893.33331"
       cy="100"
       fx="893.33331"
       fy="100"
       r="18.833334" />
    <linearGradient
       id="linearGradient3300">
      <stop
         id="stop3302"
         offset="0"
         style="stop-color:#ffffff;stop-opacity:1" />
      <stop
         style="stop-color:#7f7f7f;stop-opacity:0.49803922;"
         offset="0.5"
         id="stop3308" />
      <stop
         id="stop3310"
         offset="0.75"
         style="stop-color:#3f3f3f;stop-opacity:0.24705882;" />
      <stop
         style="stop-color:#1f1f1f;stop-opacity:0.12156863;"
         offset="0.875"
         id="stop3312" />
      <stop
         id="stop3314"
         offset="0.9375"
         style="stop-color:#0f0f0f;stop-opacity:0.05882353;" />
      <stop
         style="stop-color:#070707;stop-opacity:0.02745098;"
         offset="0.96875"
         id="stop3316" />
      <stop
         id="stop3318"
         offset="0.984375"
         style="stop-color:#030303;stop-opacity:0.01176471;" />
      <stop
         style="stop-color:#010101;stop-opacity:0.00392157;"
         offset="0.9921875"
         id="stop3320" />
      <stop
         id="stop3304"
         offset="1"
         style="stop-color:#000000;stop-opacity:0;" />
    </linearGradient>
    <radialGradient
       inkscape:collect="always"
       xlink:href="#linearGradient3300"
       id="radialGradient4791"
       gradientUnits="userSpaceOnUse"
       gradientTransform="matrix(1.172074,1.2495316,-1.1987462,1.1244368,642.98693,-210.02164)"
       cx="53.790623"
       cy="378.35522"
       fx="53.790623"
       fy="378.35522"
       r="16.92091" />
    <linearGradient
       inkscape:collect="always"
       xlink:href="#linearGradient8908"
       id="linearGradient4789"
       gradientUnits="userSpaceOnUse"
       x1="165.80635"
       y1="176.5179"
       x2="177.21674"
       y2="358.34848" />
    <linearGradient
       inkscape:collect="always"
       xlink:href="#linearGradient3817"
       id="linearGradient4787"
       gradientUnits="userSpaceOnUse"
       x1="228.96413"
       y1="108.35915"
       x2="228.87393"
       y2="11.835818" />
    <linearGradient
       inkscape:collect="always"
       xlink:href="#linearGradient3817"
       id="linearGradient4785"
       gradientUnits="userSpaceOnUse"
       x1="887.83337"
       y1="113.83334"
       x2="903"
       y2="81.166664" />
    <linearGradient
       id="linearGradient3817">
      <stop
         id="stop3819"
         offset="0"
         style="stop-color:#ffffff;stop-opacity:1" />
      <stop
         id="stop3821"
         offset="1"
         style="stop-color:#b49e1c;stop-opacity:0;" />
    </linearGradient>
    <linearGradient
       inkscape:collect="always"
       xlink:href="#linearGradient3817"
       id="linearGradient4783"
       gradientUnits="userSpaceOnUse"
       x1="898.66669"
       y1="118.83334"
       x2="906.33331"
       y2="60.833332" />
    <filter
       id="filter8125"
       height="1.5338043"
       y="-0.26690212"
       width="1.5328633"
       x="-0.26643163"
       inkscape:collect="always">
      <feGaussianBlur
         id="feGaussianBlur8127"
         stdDeviation="3.9779066"
         inkscape:collect="always" />
    </filter>
    <filter
       id="filter6712"
       inkscape:collect="always">
      <feGaussianBlur
         id="feGaussianBlur6714"
         stdDeviation="0.93998754"
         inkscape:collect="always" />
    </filter>
    <filter
       id="filter6664"
       inkscape:collect="always">
      <feGaussianBlur
         id="feGaussianBlur6666"
         stdDeviation="0.21047761"
         inkscape:collect="always" />
    </filter>
    <filter
       id="filter6192"
       inkscape:collect="always">
      <feGaussianBlur
         id="feGaussianBlur6194"
         stdDeviation="0.86145189"
         inkscape:collect="always" />
    </filter>
    <filter
       id="filter9010"
       inkscape:collect="always">
      <feGaussianBlur
         id="feGaussianBlur9012"
         stdDeviation="2.3407223"
         inkscape:collect="always" />
    </filter>
    <linearGradient
       id="linearGradient8908">
      <stop
         id="stop8910"
         offset="0"
         style="stop-color:#95acae;stop-opacity:1;" />
      <stop
         style="stop-color:#000000;stop-opacity:0.70408165;"
         offset="1"
         id="stop8964" />
      <stop
         id="stop8912"
         offset="1"
         style="stop-color:#adbad2;stop-opacity:0" />
    </linearGradient>
    <linearGradient
       inkscape:collect="always"
       xlink:href="#linearGradient8908"
       id="linearGradient4781"
       gradientUnits="userSpaceOnUse"
       x1="165.80635"
       y1="176.5179"
       x2="177.21674"
       y2="358.34848" />
    <filter
       id="filter3517"
       inkscape:collect="always">
      <feGaussianBlur
         id="feGaussianBlur3519"
         stdDeviation="1.6210035"
         inkscape:collect="always" />
    </filter>
    <filter
       id="filter3529"
       inkscape:collect="always">
      <feGaussianBlur
         id="feGaussianBlur3531"
         stdDeviation="2.7101151"
         inkscape:collect="always" />
    </filter>
    <filter
       inkscape:collect="always"
       id="filter3611">
      <feGaussianBlur
         inkscape:collect="always"
         stdDeviation="3.6844641"
         id="feGaussianBlur3613" />
    </filter>
    <filter
       inkscape:collect="always"
       x="-0.16483144"
       width="1.3296629"
       y="-0.16483144"
       height="1.3296629"
       id="filter3761">
      <feGaussianBlur
         inkscape:collect="always"
         stdDeviation="3.0219098"
         id="feGaussianBlur3763" />
    </filter>
    <linearGradient
       inkscape:collect="always"
       xlink:href="#linearGradient3599"
       id="linearGradient5746"
       gradientUnits="userSpaceOnUse"
       gradientTransform="translate(-428.42883,-1129.5146)"
       x1="876.83252"
       y1="1.7035885"
       x2="880.16583"
       y2="213.37892" />
    <linearGradient
       inkscape:collect="always"
       xlink:href="#linearGradient3599"
       id="linearGradient5748"
       gradientUnits="userSpaceOnUse"
       gradientTransform="translate(-428.42885,-77.152523)"
       x1="876.83252"
       y1="1.7035885"
       x2="880.16583"
       y2="213.37892" />
    <linearGradient
       inkscape:collect="always"
       xlink:href="#linearGradient3370"
       id="linearGradient3535"
       gradientUnits="userSpaceOnUse"
       gradientTransform="matrix(0.4099205,0,0,0.6294358,-287.10074,595.68498)"
       x1="1138.0161"
       y1="141.35242"
       x2="1138.0161"
       y2="454.34821" />
    <linearGradient
       inkscape:collect="always"
       xlink:href="#linearGradient3370"
       id="linearGradient3537"
       gradientUnits="userSpaceOnUse"
       gradientTransform="matrix(0.4099205,0,0,0.6294358,-287.10074,595.68498)"
       x1="1138.0161"
       y1="141.35242"
       x2="1138.0161"
       y2="218.04684" />
    <linearGradient
       inkscape:collect="always"
       xlink:href="#linearGradient4767"
       id="linearGradient3539"
       gradientUnits="userSpaceOnUse"
       gradientTransform="translate(-428.16194,278.61594)"
       x1="765.62085"
       y1="655.2063"
       x2="778.83563"
       y2="735.09467" />
    <linearGradient
       inkscape:collect="always"
       xlink:href="#linearGradient8908"
       id="linearGradient3600"
       gradientUnits="userSpaceOnUse"
       x1="165.80635"
       y1="176.5179"
       x2="177.21674"
       y2="358.34848" />
    <linearGradient
       inkscape:collect="always"
       xlink:href="#linearGradient3817"
       id="linearGradient3602"
       gradientUnits="userSpaceOnUse"
       x1="898.66669"
       y1="118.83334"
       x2="906.33331"
       y2="60.833332" />
    <linearGradient
       inkscape:collect="always"
       xlink:href="#linearGradient3817"
       id="linearGradient3604"
       gradientUnits="userSpaceOnUse"
       x1="887.83337"
       y1="113.83334"
       x2="903"
       y2="81.166664" />
    <linearGradient
       inkscape:collect="always"
       xlink:href="#linearGradient3817"
       id="linearGradient3606"
       gradientUnits="userSpaceOnUse"
       x1="228.96413"
       y1="108.35915"
       x2="228.87393"
       y2="11.835818" />
    <linearGradient
       inkscape:collect="always"
       xlink:href="#linearGradient8908"
       id="linearGradient3608"
       gradientUnits="userSpaceOnUse"
       x1="165.80635"
       y1="176.5179"
       x2="177.21674"
       y2="358.34848" />
    <radialGradient
       inkscape:collect="always"
       xlink:href="#linearGradient3300"
       id="radialGradient3610"
       gradientUnits="userSpaceOnUse"
       gradientTransform="matrix(1.172074,1.2495316,-1.1987462,1.1244368,642.98693,-210.02164)"
       cx="53.790623"
       cy="378.35522"
       fx="53.790623"
       fy="378.35522"
       r="16.92091" />
    <radialGradient
       inkscape:collect="always"
       xlink:href="#linearGradient3817"
       id="radialGradient3612"
       gradientUnits="userSpaceOnUse"
       cx="893.33331"
       cy="100"
       fx="893.33331"
       fy="100"
       r="18.833334" />
  </defs>
  <sodipodi:namedview
     id="base"
     pagecolor="#ffffff"
     bordercolor="#ffffff"
     borderopacity="0.0"
     inkscape:pageopacity="0.0"
     inkscape:pageshadow="0"
     inkscape:zoom="0.35"
     inkscape:cx="563.09969"
     inkscape:cy="224.48154"
     inkscape:document-units="px"
     inkscape:current-layer="layer7"
     inkscape:window-width="1272"
     inkscape:window-height="984"
     inkscape:window-x="119"
     inkscape:window-y="3" />
  <metadata
     id="metadata5555">
    <rdf:RDF>
      <cc:Work
         rdf:about="">
        <dc:format>image/svg+xml</dc:format>
        <dc:type
           rdf:resource="http://purl.org/dc/dcmitype/StillImage" />
      </cc:Work>
    </rdf:RDF>
  </metadata>
  <g
     inkscape:label="background"
     inkscape:groupmode="layer"
     id="layer1"
     style="display:inline">
    <g
       id="g5741"
       transform="matrix(0.997069,0,0,0.9964412,1.0904705,1.8725733)"
       inkscape:export-filename="/home/bernie/svn/svn.berlios.de-fullstory/sidux-art-wallpaper/trunk/sidux.png"
       inkscape:export-xdpi="78.739998"
       inkscape:export-ydpi="78.739998">
      <rect
         y="-75.448914"
         x="-429.92969"
         height="1203.26"
         width="1603.9539"
         id="rect3347"
         style="opacity:0.98999999;fill:#eae7cb;fill-opacity:1;fill-rule:evenodd;stroke:#000000;stroke-width:1px;stroke-linecap:butt;stroke-linejoin:miter;stroke-opacity:0.32222224;display:inline" />
      <rect
         transform="scale(1,-1)"
         style="opacity:0.78840906;fill:url(#linearGradient5746);fill-opacity:1;fill-rule:evenodd;stroke:none;stroke-width:1px;stroke-linecap:butt;stroke-linejoin:miter;stroke-opacity:1;display:inline"
         id="rect3618"
         width="1603.9539"
         height="1203.26"
         x="-429.92969"
         y="-1127.811" />
      <rect
         y="-75.448914"
         x="-429.92969"
         height="1203.26"
         width="1603.9539"
         id="rect2588"
         style="opacity:0.84659095;fill:url(#linearGradient5748);fill-opacity:1;fill-rule:evenodd;stroke:none;stroke-width:1px;stroke-linecap:butt;stroke-linejoin:miter;stroke-opacity:1;display:inline" />
    </g>
  </g>
  <g
     inkscape:groupmode="layer"
     id="layer2"
     inkscape:label="face"
     style="display:inline">
    <path
       style="fill:#dcd2ae;fill-opacity:1;stroke:none;stroke-opacity:1;display:inline"
       d="M -311.7372,-144.63439 C -320.56309,-144.34185 -339.93858,-137.27678 -346.64345,-131.32189 C -352.17967,-129.10665 -357.67783,-126.8924 -363.1122,-124.69689 C -381.05043,-117.44978 -398.38546,-110.30956 -415.2372,-103.25939 C -408.52016,-107.6699 -403.48714,-111.97877 -403.4872,-113.50939 C -403.4872,-114.91439 -406.19232,-115.44379 -410.26845,-115.22814 C -417.06199,-114.86873 -427.85706,-112.54022 -437.08095,-108.91564 C -446.67789,-105.14443 -446.80457,-104.61593 -440.6747,-98.22814 C -438.91934,-96.3989 -437.60383,-95.12254 -436.26845,-94.41564 C -798.89105,59.77533 -904.14411,172.13452 -945.2372,392.64686 C -944.41005,390.43366 -943.58998,388.21593 -942.7372,386.02186 C -862.48648,179.55045 -668.2086,57.6898 -260.64345,2.55311 C -236.24295,-2.34585 -161.07099,-26.06014 -144.6747,-34.00939 L -131.45595,-40.41564 L -119.7997,-26.75939 C -113.43477,-19.27373 -105.10685,-6.93962 -101.26845,0.70936 C -97.430053,8.35836 -85.991523,27.82497 -75.862203,44.02186 C -42.390423,97.54422 -66.977333,54.64749 -45.799703,99.24061 C -42.270623,106.67155 -44.594753,131.73528 -56.112203,165.55311 L -124.89345,228.80311 C -136.19771,218.29047 -157.922,205.67578 -192.26845,187.64686 C -228.20696,168.7822 -243.72634,162.55835 -259.39345,160.99061 C -275.14019,159.4148 -303.53832,160.82965 -320.64345,163.17811 C -326.11874,162.918 -331.62725,162.08968 -337.0497,161.24061 C -343.35518,159.66796 -349.32847,160.59518 -355.58095,161.33436 C -361.52828,163.20289 -367.62228,164.72021 -373.6747,166.17811 L -394.9247,182.70936 C -391.9018,181.96133 -388.85226,181.24799 -385.83095,180.49061 C -382.80964,179.73323 -379.80629,178.95544 -376.83095,178.02186 C -370.80263,177.18589 -365.10758,175.10327 -358.8622,176.95936 C -352.18269,178.02238 -345.52698,179.287 -338.7372,179.14686 C -332.41769,179.67113 -326.14067,180.04609 -319.9872,181.80311 C -318.75795,181.98641 -317.47031,182.1846 -316.2372,182.36561 C -336.34037,183.14587 -330.52088,188.54395 -297.9247,196.27186 C -268.33795,203.2862 -231.15298,219.44017 -215.89345,230.64686 C -216.91314,230.6836 -217.89907,230.72164 -218.9247,230.74061 C -208.70052,237.09771 -221.99132,223.45241 -192.0497,252.24061 C -191.28557,252.12101 -190.52314,251.92926 -189.76845,251.77186 C -183.95563,253.88535 -176.90452,257.22536 -166.95595,262.45936 C -155.52889,268.4712 -148.38437,272.05679 -142.9247,273.89686 C -141.36479,274.42259 -139.92674,274.79519 -138.58095,275.05311 C -133.87069,275.95581 -130.10648,275.32143 -124.6747,273.83436 C -113.53883,270.78584 -110.66833,267.94546 -108.6122,258.42811 C -107.93201,255.27977 -107.60022,252.84906 -107.7372,250.74061 C -107.7646,250.31892 -107.79441,249.92064 -107.8622,249.52186 C -108.54007,245.53407 -111.32679,242.55046 -117.45595,237.42811 C -119.95364,235.3406 -121.89559,233.39693 -123.5497,231.55311 C -81.665163,211.4826 -48.189893,184.97226 -13.237203,155.61561 C -4.9124929,169.29851 -5.6996329,165.86569 1.981547,179.27186 C 4.937097,182.27686 29.261407,256.19938 32.200297,269.80311 C 33.146857,274.18515 33.313747,277.29905 32.450297,279.95936 C 32.445057,279.96589 32.455537,279.98409 32.450297,279.99061 C 28.247617,285.21991 22.496487,289.06584 19.356547,289.08436 C -64.627863,289.59258 9.751997,336.31097 -9.9247029,334.58436 C -24.460363,333.30887 -32.524053,343.39032 -36.674703,355.49061 C -38.954153,352.97772 -42.979553,350.49787 -49.518453,343.24061 C -52.459463,348.40471 -66.820353,327.83208 -72.205953,325.45936 C -78.943973,325.45935 -48.249593,423.02182 -27.549703,477.17811 C -26.929423,478.80093 -26.275703,480.51229 -25.674703,482.05311 C -25.055923,483.63953 -24.457793,485.21805 -23.862203,486.70936 C -23.221123,488.32029 -22.568833,489.89495 -21.924703,491.45936 C -11.383513,517.06051 -2.7233129,530.32086 25.075297,562.92811 C 50.874377,593.18967 59.267157,605.52755 59.325297,613.49061 C 59.437777,628.86486 41.796567,659.59523 28.919047,666.36561 C 15.725317,673.30203 -12.893453,697.11015 -12.893453,701.17811 C -12.893423,702.77223 -10.513513,704.14696 -7.5809529,704.14686 C -3.1624929,704.14685 -2.5718229,709.66969 -3.9559529,736.33436 C -4.8745529,754.02993 -5.6501529,769.866 -5.6747029,771.6156 C -5.6808629,772.0531 -6.2003429,772.3856 -7.1747029,772.6469 C -7.4182929,772.7122 -7.6913229,772.7805 -7.9872029,772.8344 C -11.241883,773.4271 -17.574623,773.3419 -24.768453,772.4281 C -41.263203,770.3329 -50.527353,772.2113 -94.393453,786.6781 C -122.22137,795.8556 -151.11573,803.4201 -158.70595,803.4281 C -166.29617,803.4361 -175.63954,805.1471 -179.4872,807.2406 C -184.64881,810.0491 -186.8781,815.3121 -186.33095,821.1781 C -186.26256,821.9114 -186.14177,822.6485 -185.9872,823.3969 C -184.90523,828.6356 -181.72237,834.1491 -176.5497,838.7094 C -160.96245,852.4514 -93.085443,905.9492 -71.549703,921.4594 C -63.406303,927.3242 -63.379183,927.5514 -69.737203,939.8344 C -73.279043,946.6773 -77.772733,953.4876 -79.705953,954.8969 C -81.949763,956.5329 -81.620653,963.4541 -78.799703,974.1782 C -71.740643,1001.0116 -73.275893,1035.366 -82.737203,1061.8656 C -87.630963,1075.5727 -93.074943,1086.5742 -100.01845,1095.9906 C -100.55257,1096.715 -101.0911,1097.441 -101.64345,1098.1469 C -109.37641,1108.0298 -118.95925,1116.1596 -131.5497,1123.8969 C -132.44902,1124.4496 -133.3378,1125.004 -134.26845,1125.5532 C -137.06039,1127.2007 -140.02259,1128.8252 -143.1122,1130.4594 C -168.77013,1144.0307 -175.15795,1145.6297 -221.2997,1150.9282 C -241.87973,1153.2913 -260.80452,1154.6184 -277.4247,1154.8969 C -279.08672,1154.9248 -280.74701,1154.9214 -282.3622,1154.9282 C -290.43815,1154.9619 -297.89925,1154.7379 -304.70595,1154.2406 C -338.96735,1151.7378 -356.00353,1154.2409 -398.08095,1167.5844 C -410.01604,1171.3692 -439.30442,1177.0051 -463.1747,1180.2094 C -578.26419,1195.6588 -612.56657,1204.6886 -666.7372,1233.8656 C -685.18613,1243.8026 -700.63267,1251.9725 -701.08095,1251.9282 C -701.52927,1251.8838 -709.02495,1248.5579 -717.70595,1244.5532 C -726.38689,1240.5485 -742.65128,1234.8955 -753.8622,1231.9282 C -764.23493,1229.1826 -788.61003,1219.4312 -815.95595,1207.5844 C -815.96459,1207.5807 -815.97856,1207.5881 -815.9872,1207.5844 C -827.71155,1202.5049 -839.97079,1197.059 -851.9247,1191.5844 C -855.90934,1189.7595 -859.85547,1187.9276 -863.7372,1186.1156 C -883.14585,1177.0557 -900.87307,1168.3185 -912.89345,1161.7094 C -974.80209,1127.6704 -988.69797,1114.6663 -977.08095,1101.6156 C -973.74522,1097.8683 -970.70719,1090.0788 -970.2997,1084.2719 C -969.89213,1078.4649 -967.94919,1072.4596 -966.01845,1071.0532 C -963.78911,1069.4294 -964.12114,1063.9979 -966.9247,1056.1156 C -974.66904,985.5619 -981.00925,918.9428 -985.2372,856.1156 C -989.25242,911.5219 -994.08714,970.8831 -1000.3622,1034.8656 C -1000.3922,1042.0807 -1002.7145,1054.5888 -1005.581,1062.6782 C -1017.0413,1095.0194 -1011.8613,1125.8177 -991.6747,1145.1782 C -974.55336,1161.5989 -938.47272,1189.522 -934.3622,1189.5219 C -932.83395,1189.5218 -924.69774,1194.887 -916.1747,1201.4594 C -899.79226,1214.093 -890.52405,1218.5818 -821.2372,1248.0219 C -703.75505,1266.9172 -660.52906,1266.2866 -632.70595,1266.5219 C -628.88623,1262.6385 -625.61359,1261.7918 -598.3622,1257.7719 C -543.77157,1246.7481 -467.71728,1204.1002 -406.1122,1198.1469 C -364.95571,1181.557 -329.65902,1175.2342 -276.9247,1175.0532 C -168.84361,1174.6826 -136.87934,1167.2446 -95.518453,1132.9906 C -77.656333,1118.1975 -73.728423,1112.4986 -64.205953,1087.1469 C -54.996103,1062.6256 -52.947953,1050.7977 -50.862203,1010.7406 C -48.450993,964.4363 -48.026013,962.5467 -32.330953,929.4906 C -23.497903,910.8873 -16.059233,890.1978 -15.830953,883.5219 C -15.679183,879.0761 -15.620543,875.2992 -15.643453,872.0844 C -15.651093,871.0127 -15.644353,870.0015 -15.674703,869.0531 C -16.038953,857.6718 -18.116073,854.9282 -23.299703,854.9281 C -26.979363,854.9281 -37.140763,849.5988 -45.893453,843.0844 C -53.662583,837.3018 -67.833873,830.4859 -79.955953,826.6156 C -80.821813,826.3392 -81.676553,826.0794 -82.518453,825.8344 C -83.360353,825.5893 -84.206683,825.3576 -85.018453,825.1469 C -88.431703,824.2606 -91.383203,823.4729 -93.862203,822.7094 C -95.101703,822.3276 -96.209313,821.9464 -97.205953,821.5844 C -99.697553,820.6793 -101.42501,819.8205 -102.33095,818.9594 C -102.51214,818.7871 -102.65301,818.6326 -102.76845,818.4594 C -105.07718,814.9954 -94.170213,811.229 -66.924703,803.5531 C -36.467003,794.9721 -30.777373,794.5602 -11.987203,799.8656 C 5.066937,804.6807 5.993417,814.6839 -9.2684529,829.1781 C -16.647023,836.1858 -20.372163,841.912 -19.955953,845.0219 C -19.936133,845.1699 -19.900823,845.3233 -19.862203,845.4594 C -19.476003,846.8201 -18.153473,847.5531 -15.830953,847.5531 C -14.804653,847.5531 -13.594563,847.1771 -12.268453,846.5219 C -12.003233,846.3908 -11.729073,846.2685 -11.455953,846.1156 C -9.8172029,845.198 -8.0511329,843.8894 -6.2997029,842.3656 C -5.7158929,841.8577 -5.1242129,841.3241 -4.5497029,840.7719 C 0.620927,835.8017 5.200297,829.2854 5.200297,825.3969 C 5.200327,822.4405 7.833297,817.5533 11.325297,813.8031 C 11.824157,813.2674 12.359877,812.7847 12.887797,812.3031 C 20.093327,805.7295 20.419457,802.9194 18.200297,767.5844 C 15.341627,722.07467 16.775627,718.33194 52.200297,681.74061 C 56.309057,677.49653 60.011377,673.47454 63.294047,669.67811 C 64.114717,668.729 64.901297,667.81648 65.669047,666.89686 C 74.114307,656.78104 79.343897,648.44404 81.012797,642.33436 C 89.94643,609.63347 83.511497,590.15912 52.762797,556.39686 C 48.115387,550.56439 43.881827,545.11946 39.981547,539.99061 C 22.476267,514.56302 7.649407,481.88589 -3.1122029,468.42811 C -3.4462129,467.19801 -3.6707829,466.2205 -3.8622029,465.45936 C -3.9817129,465.19171 -4.0870729,464.94226 -4.2059529,464.67811 C -3.3130429,464.73092 -2.5036229,464.95756 -1.862203,465.45936 C -4.6025729,457.0235 -6.8095929,449.41754 -8.5497029,442.42811 C -1.576863,440.80998 7.023147,436.80945 17.387797,429.08436 C 3.248537,408.7873 -8.7116029,396.25589 -10.893453,386.89686 C -10.895713,386.88717 -10.891213,386.87529 -10.893453,386.86561 C -9.9374429,383.15599 -8.7366729,379.5016 -7.2997029,375.83436 C -7.2263529,375.7668 -7.1564929,375.71423 -7.0809529,375.64686 C 4.702087,361.04498 15.272257,348.53335 27.919047,334.11561 C 28.785277,333.59034 29.612797,333.12099 30.387797,332.77186 C 29.903867,332.91296 29.424707,332.98352 28.950297,332.95936 C 34.111797,327.08542 39.583077,320.90913 45.700297,314.08436 C 52.771987,302.9986 54.511187,295.31614 53.450297,287.92811 C 64.060617,274.65947 57.732927,255.78125 27.794047,176.52186 C 25.198147,162.24396 13.286047,143.67888 5.419047,129.99061 C 5.841267,129.05906 6.319157,127.81469 6.325297,127.80311 L 4.637797,128.58436 C 1.385677,123.00675 -1.565173,118.43463 -3.7372029,115.83436 C -5.0041329,114.31761 -6.4324129,111.43332 -7.7059529,107.99061 C -8.0243429,107.12993 -8.3494129,106.21788 -8.6434529,105.30311 C -9.5255629,102.5588 -10.252523,99.65078 -10.737203,96.89686 C -13.282223,82.43498 -45.125673,16.49167 -61.049703,-7.32189 C -105.513,-73.81498 -173.41859,-135.24129 -194.8622,-128.32189 C -195.333,-128.16997 -195.88158,-128.06649 -196.4872,-128.00939 C -196.79001,-127.98085 -197.09312,-127.98407 -197.4247,-127.97814 C -201.73516,-127.90108 -208.33656,-129.68341 -213.6122,-132.57189 C -228.47992,-140.71217 -235.55521,-138.02746 -242.33095,-121.54064 C -244.7663,-115.61482 -246.84341,-111.68933 -248.1747,-109.88439 C -248.39658,-109.58357 -248.58924,-109.3466 -248.76845,-109.16564 C -248.85806,-109.07517 -248.94015,-108.97586 -249.01845,-108.91564 C -249.09675,-108.85542 -249.17064,-108.82042 -249.2372,-108.79064 C -250.30211,-108.31429 -249.8289,-111.73993 -246.95595,-119.47814 C -243.5898,-128.54488 -243.85753,-131.61248 -248.64345,-136.47814 C -255.39717,-143.34448 -268.01211,-141.10758 -312.7372,-125.00939 C -318.66977,-122.17038 -325.81395,-120.07093 -331.6747,-119.10314 C -333.43292,-118.81281 -335.05546,-118.61928 -336.51845,-118.54064 C -345.78405,-118.04261 -347.79054,-121.98352 -325.6122,-132.91564 C -313.87905,-138.37678 -306.25856,-143.59685 -308.6747,-144.41564 C -309.43923,-144.67476 -310.47634,-144.67619 -311.7372,-144.63439 z M -985.2372,856.1156 C -970.77133,656.50031 -966.99009,509.37649 -945.2372,392.64686 C -991.37862,516.10651 -997.8057,669.34828 -985.2372,856.1156 z M -409.2372,-129.72814 C -410.41638,-129.74342 -411.70782,-129.71955 -413.1122,-129.69689 C -416.32223,-129.64508 -420.12847,-129.51151 -424.51845,-129.25939 C -440.07892,-128.36572 -450.97418,-126.63015 -457.14345,-124.07189 C -457.52903,-123.912 -457.91991,-123.73815 -458.26845,-123.57189 C -463.49656,-121.07808 -464.54261,-117.87422 -461.3622,-113.97814 C -460.99141,-113.52392 -460.56976,-113.115 -460.08095,-112.79064 C -459.83654,-112.62846 -459.58156,-112.4823 -459.2997,-112.35314 C -455.63551,-110.67413 -448.59354,-111.82485 -432.33095,-116.16564 C -399.20577,-125.00735 -391.54943,-129.49902 -409.2372,-129.72814 z M -470.39345,-125.54064 C -470.53231,-125.52496 -470.7008,-125.48741 -470.8622,-125.44689 C -472.79909,-124.96064 -476.32527,-122.74909 -479.89345,-119.72814 C -484.84394,-115.5367 -486.47254,-112.32945 -483.7372,-112.25939 C -478.3172,-112.12066 -466.88155,-122.6722 -469.51845,-125.35314 C -469.69649,-125.53416 -469.97685,-125.58769 -470.39345,-125.54064 z M -221.89345,-106.00939 C -220.71913,-106.01753 -220.17352,-104.89639 -219.7372,-102.82189 C -256.20903,-35.12098 -219.46894,-102.58912 -230.3622,-100.29064 C -226.46399,-103.72905 -223.97898,-105.53827 -222.4247,-105.91564 C -222.23042,-105.96282 -222.06121,-106.00823 -221.89345,-106.00939 z M -206.64345,-100.44689 C -206.45665,-100.46684 -206.27504,-100.39473 -206.0497,-100.16564 C -204.84787,-98.9438 -204.66113,-95.7262 -205.70595,-93.07189 C -206.86042,-90.13864 -207.7824,-91.06959 -207.95595,-95.35314 C -208.0737,-98.26024 -207.57093,-100.13859 -206.83095,-100.41564 C -206.76927,-100.43873 -206.70572,-100.44024 -206.64345,-100.44689 z M -186.64345,-91.75939 C -184.88677,-91.91525 -178.79498,-87.97176 -172.4872,-82.60314 C -157.24772,-69.63296 -158.94957,-64.3277 -182.9872,-49.29064 C -193.10523,-42.96118 -200.53718,-36.88925 -199.4872,-35.82189 C -199.01367,-35.34047 -198.11613,-35.17619 -196.89345,-35.22814 C -196.58778,-35.24113 -196.26938,-35.24803 -195.9247,-35.29064 C -194.20128,-35.5037 -192.0142,-36.0734 -189.5497,-36.91564 C -188.5639,-37.25254 -187.5166,-37.65512 -186.45595,-38.07189 C -175.84948,-42.23962 -162.14818,-50.07655 -157.7997,-55.69689 C -149.50925,-66.41228 -138.22012,-65.95662 -136.64345,-54.79064 C -135.69543,-48.07606 -140.45835,-45.42753 -175.4247,-33.63439 C -217.57321,-19.41895 -232.36558,-16.92399 -227.64345,-24.79064 C -226.12608,-27.31857 -217.74451,-38.23679 -209.1122,-49.04064 C -201.55894,-58.49407 -194.5318,-70.20477 -192.1122,-76.94689 C -191.93937,-77.42847 -191.76776,-77.86216 -191.64345,-78.29064 C -191.51914,-78.71913 -191.43501,-79.13924 -191.3622,-79.50939 C -190.1971,-85.43192 -188.19078,-90.90252 -186.95595,-91.66564 C -186.87877,-91.71334 -186.76056,-91.749 -186.64345,-91.75939 z M -209.64345,-85.04064 C -209.40271,-85.02251 -209.19595,-84.8779 -208.9872,-84.66564 C -207.87361,-83.53353 -208.8904,-80.59738 -211.3622,-78.10314 C -214.93415,-74.49872 -215.35618,-74.95648 -213.39345,-80.19689 C -212.37483,-82.91666 -210.99563,-84.74308 -209.89345,-85.00939 C -209.80158,-85.03159 -209.7237,-85.04669 -209.64345,-85.04064 z M -290.14345,259.36561 C -295.47364,259.3387 -301.80919,259.62813 -309.3622,260.27186 C -330.47622,262.07154 -367.33087,274.81285 -367.33095,280.27186 C -367.33095,280.89619 -362.08367,280.8901 -354.14345,280.36561 C -352.5554,280.26071 -350.86422,280.13475 -349.08095,279.99061 C -345.51441,279.70234 -341.58987,279.32866 -337.4872,278.89686 C -331.33316,278.24915 -324.35038,277.68648 -317.4247,277.24061 C -315.11614,277.09199 -312.80792,276.95367 -310.5497,276.83436 C -301.51683,276.35714 -293.14919,276.11094 -287.64345,276.24061 C -270.17581,276.65183 -267.64357,275.84597 -267.64345,269.70936 C -267.64344,262.69107 -274.15294,259.44636 -290.14345,259.36561 z M -373.4247,314.39686 C -380.56436,314.38347 -385.0363,318.03694 -384.4247,321.86561 C -384.37765,322.16012 -384.28278,322.47698 -384.1747,322.77186 C -383.95855,323.36162 -383.6167,323.94979 -383.14345,324.52186 C -389.01336,323.294 -395.05674,322.89831 -401.01845,322.45936 L -422.70595,338.42811 C -416.25377,338.79379 -409.7346,338.92311 -403.39345,340.36561 C -398.73685,341.13679 -394.13358,341.81343 -389.4872,342.67811 C -386.14647,345.08437 -383.21824,347.56847 -381.6747,349.45936 C -378.89386,352.86591 -364.516,363.98642 -349.70595,374.14686 C -325.92873,390.45906 -319.55037,393.02339 -295.33095,396.08436 C -280.24526,397.99093 -257.29182,402.59482 -244.3622,406.33436 C -231.43258,410.07373 -220.54255,413.32672 -220.1747,413.45936 C -219.80685,413.59206 -215.19808,411.94726 -209.89345,409.89686 C -203.65649,407.48604 -201.02591,404.26068 -202.33095,400.80311 C -203.44093,397.86246 -202.63093,394.50917 -200.6122,393.24061 C -200.47826,393.15645 -200.358,393.0461 -200.2372,392.92811 C -200.1164,392.81012 -200.00097,392.67199 -199.89345,392.52186 C -198.38813,390.42001 -198.18985,385.26029 -199.4872,379.33436 C -200.88398,372.95426 -202.21326,363.57784 -202.4247,358.52186 C -202.63622,353.46599 -204.40413,349.94637 -206.39345,350.70936 C -208.38254,351.4724 -212.28755,352.96343 -215.08095,354.05311 C -217.87445,355.14293 -227.85812,351.641 -237.14345,346.33436 C -248.63059,339.76945 -271.83441,333.15431 -309.7997,325.55311 C -340.48824,319.40889 -369.06636,314.40504 -373.4247,314.39686 z M -239.51845,374.39686 C -237.08786,376.19613 -238.69485,376.7633 -242.76845,376.55311 L -239.51845,374.39686 z M -34.830953,649.02186 C -62.142803,649.02183 -75.768213,652.90922 -87.830953,664.39686 C -96.817763,672.95529 -95.740743,678.42821 -84.893453,678.42811 C -80.771533,678.42808 -78.590043,680.01376 -79.924703,682.20936 C -81.213003,684.3285 -81.312833,688.64277 -80.143453,691.74061 C -79.053403,694.62859 -77.124713,695.90073 -73.299703,695.80311 C -72.604243,695.78536 -71.844783,695.72201 -71.018453,695.61561 C -69.778953,695.45602 -68.368683,695.21597 -66.799703,694.86561 C -49.539653,691.01152 -16.238453,674.55575 -18.424703,670.95936 C -19.496403,669.19664 -17.072053,665.98886 -13.112203,663.83436 C -8.8622229,661.52197 -6.8334829,657.61917 -8.0497029,654.39686 C -9.5936629,650.30663 -16.329363,649.02196 -34.830953,649.02186 z M -33.424703,715.86561 C -33.688233,715.88646 -33.984753,715.93364 -34.268453,715.99061 C -38.842553,716.90862 -39.762243,720.68834 -38.768453,733.58436 C -38.070083,742.64148 -35.807963,752.22066 -33.705953,754.83436 C -26.916673,763.2767 -23.318323,753.66375 -25.893453,733.92811 C -27.588083,720.94022 -29.251873,716.25341 -32.674703,715.89686 C -32.919193,715.87139 -33.161173,715.84476 -33.424703,715.86561 z M -121.1747,818.6156 C -119.91824,818.563 -118.41754,818.772 -117.1122,819.3031 C -114.22718,820.4769 -115.14874,821.3142 -119.3622,821.4906 C -123.1747,821.6504 -125.31411,820.7436 -124.1122,819.5219 C -123.51131,818.911 -122.43105,818.6683 -121.1747,818.6156 z M -135.9872,822.0531 C -135.73956,822.04 -135.50421,822.0459 -135.2997,822.0531 C -134.75419,822.0722 -134.33568,822.2244 -134.1747,822.3969 C -131.19987,825.585 -142.60634,831.754 -146.70595,829.1781 C -150.05661,827.0728 -149.10696,825.5418 -143.33095,823.6781 C -140.44931,822.7483 -137.72069,822.1446 -135.9872,822.0531 z M -104.7372,850.0531 C -95.633803,849.9709 -74.060303,859.3002 -67.705953,867.0844 C -63.703443,871.9875 -64.157593,873.5734 -70.080953,877.3344 C -74.366673,880.0554 -76.332463,884.4472 -75.268453,888.5844 C -74.379993,892.039 -74.464313,894.0934 -75.799703,894.7094 C -76.022273,894.8121 -76.286903,894.8744 -76.580953,894.8969 C -79.227443,895.099 -84.832043,892.0346 -94.393453,885.5844 C -122.53565,866.5989 -131.79262,854.9282 -118.58095,854.9281 C -115.00034,854.9281 -110.35875,853.2089 -108.2997,851.1156 C -107.74779,850.5543 -106.80069,850.1878 -105.58095,850.0844 C -105.31415,850.0617 -105.03086,850.0558 -104.7372,850.0531 z M -52.674703,862.2719 C -50.685483,862.2718 -49.049603,862.9739 -49.049703,863.8656 C -49.049703,864.7574 -50.685383,866.5534 -52.674703,867.8031 C -54.663833,869.0531 -56.299613,868.3198 -56.299703,866.1781 C -56.299703,864.0364 -54.663833,862.272 -52.674703,862.2719 z M -26.455953,872.3969 C -25.418813,872.5068 -24.754083,873.3522 -24.424703,874.8969 C -23.801593,877.8194 -25.028403,883.5353 -27.143453,887.5531 C -28.729453,890.5664 -30.089553,895.1124 -30.674703,898.9594 C -30.772223,899.6006 -30.842063,900.2111 -30.893453,900.8032 C -30.944843,901.3952 -30.987193,901.9685 -30.987203,902.4906 C -30.987203,906.5904 -31.635763,908.8924 -33.268453,909.5532 C -33.472543,909.6357 -33.689813,909.7093 -33.924703,909.7406 C -35.568913,909.9603 -37.978333,908.9203 -41.362203,906.7406 C -45.524353,904.0597 -45.524343,903.3513 -41.362203,901.9282 C -40.595913,901.6662 -39.994303,901.3758 -39.518453,901.0844 C -37.456463,899.8215 -38.123473,898.0573 -41.705953,893.6469 C -46.513883,887.7272 -46.011993,886.2743 -36.299703,878.3656 C -32.395723,875.1867 -29.775773,873.3081 -27.987203,872.6469 C -27.689103,872.5366 -27.429563,872.4713 -27.174703,872.4281 C -26.919843,872.3849 -26.672013,872.3739 -26.455953,872.3969 z M -56.080953,899.4906 C -54.824513,899.4379 -53.292543,899.6471 -51.987203,900.1782 C -49.102163,901.3519 -50.055093,902.1892 -54.268453,902.3656 C -58.080843,902.5253 -60.220263,901.6499 -59.018453,900.4282 C -58.417553,899.8174 -57.337403,899.5432 -56.080953,899.4906 z M -486.39345,1205.6156 C -485.39736,1205.5933 -484.49686,1205.6022 -483.64345,1205.6156 C -479.09194,1205.6873 -476.67004,1206.3118 -477.4247,1207.5532 C -478.45015,1209.2402 -487.74667,1211.7035 -497.9872,1213.0844 C -500.21328,1213.5223 -502.43592,1213.9791 -504.64345,1214.4594 C -506.85098,1214.9397 -509.04739,1215.4378 -511.2372,1215.9594 C -541.89452,1223.2621 -570.83436,1234.5557 -599.2372,1248.4594 C -602.79831,1249.4977 -605.11041,1250.0942 -606.4247,1250.0844 C -606.64375,1250.0828 -606.85343,1250.0576 -607.01845,1250.0219 C -608.50361,1249.7008 -607.84626,1247.9847 -605.9247,1244.3344 C -602.07515,1237.0215 -604.53758,1235.5239 -616.14345,1240.0219 C -617.11061,1240.3967 -618.14143,1240.8135 -619.2372,1241.2719 C -621.42875,1242.1887 -623.88653,1243.2694 -626.6122,1244.5219 C -627.97504,1245.1482 -629.39217,1245.8114 -630.89345,1246.5219 C -633.68879,1247.8449 -636.34484,1249.0338 -638.83095,1250.0844 C -640.074,1250.6097 -641.27188,1251.0979 -642.4247,1251.5532 C -656.25849,1257.0163 -663.2798,1257.3881 -656.0497,1251.5532 C -655.44719,1251.0669 -654.76077,1250.5325 -653.95595,1249.9594 C -641.37709,1241.002 -615.217,1230.1022 -598.1122,1226.6469 C -589.52901,1224.9129 -569.49434,1220.0834 -553.58095,1215.9594 C -531.55026,1210.2502 -501.33472,1205.9516 -486.39345,1205.6156 z "
       id="path5210" />
  </g>
  <g
     inkscape:groupmode="layer"
     id="layer3"
     inkscape:label="hair"
     style="display:inline">
    <g
       id="g5095"
       style="opacity:0.51136361;display:inline"
       transform="translate(-397.96809,-139.26571)">
      <path
         sodipodi:nodetypes="ccccscs"
         id="path5349"
         d="M 1386.8446,875.46443 C 1388.8585,1020.5754 1290.032,1217.3335 851.35043,1429.1108 C 324.93265,1666.6039 236.52495,1698.1914 -169.34041,1480.1642 C -221.62395,1341.9483 -429.86795,1227.767 361.23735,1314.1459 C 563.93859,1401.8823 1179.7836,1238.4804 1317.2604,878.48973 C 1355.358,778.72963 1352.9636,683.36297 1305.1588,515.44313 C 1367.5303,694.33132 1384.5844,712.60502 1386.8446,875.46443 z "
         style="fill:#c7c1a8;fill-opacity:1;fill-rule:evenodd;stroke:#000000;stroke-width:1.81523395px;stroke-linecap:butt;stroke-linejoin:miter;stroke-opacity:0.26060606;display:inline" />
      <path
         sodipodi:nodetypes="cccccsc"
         id="path4795"
         d="M 1306.2812,520.58334 C 1307.7358,525.69254 1309.1294,530.73124 1310.5,535.70834 C 1361.6926,679.35324 1376.4468,706.85584 1378.5312,857.05214 C 1380.5452,1002.163 1281.744,1198.931 843.0625,1410.7083 L 852.4688,1434.2708 C 1291.1502,1222.4935 1389.9827,1025.7255 1387.9688,880.61454 C 1385.7086,717.75504 1368.6528,699.47144 1306.2812,520.58334 z "
         style="fill:#dbd3b3;fill-opacity:1;fill-rule:evenodd;stroke:none;stroke-width:1.81523395px;stroke-linecap:butt;stroke-linejoin:miter;stroke-opacity:0.26060606;display:inline" />
    </g>
    <path
       sodipodi:type="arc"
       style="opacity:0.59090905;fill:#ffffff;fill-opacity:1;display:inline;filter:url(#filter4570)"
       id="path3439"
       sodipodi:cx="289.91379"
       sodipodi:cy="1013.7952"
       sodipodi:rx="329.98315"
       sodipodi:ry="65.996635"
       d="M 619.89694 1013.7952 A 329.98315 65.996635 0 1 1  -40.069366,1013.7952 A 329.98315 65.996635 0 1 1  619.89694 1013.7952 z"
       transform="matrix(1.7615883,0.4380421,-0.4380421,1.7615883,-740.73926,-275.66448)" />
    <path
       style="fill:#e3d9bc;fill-opacity:1;fill-rule:evenodd;stroke:none;stroke-width:1px;stroke-linecap:butt;stroke-linejoin:miter;stroke-opacity:1;display:inline"
       d="M -767.59541,194.24204 C -767.59541,194.24204 -594.31426,25.239406 -294.81594,29.517966 C 4.6824071,33.796506 -83.027873,183.54567 -83.027873,183.54567 C -83.027873,183.54567 -95.863513,211.35623 -132.23112,234.88823 C -132.23112,234.88823 148.01367,136.48165 -166.45953,-111.6741 C -522.3505,-320.92762 -767.59541,194.24204 -767.59541,194.24204 z "
       id="path3547"
       sodipodi:nodetypes="cscccc" />
    <path
       style="fill:#c1b294;fill-opacity:1;fill-rule:evenodd;stroke:none;stroke-width:1px;stroke-linecap:butt;stroke-linejoin:miter;stroke-opacity:1;display:inline"
       d="M -582.34637,-35.657124 C -659.51655,-34.556944 -844.7233,-12.380534 -925.08522,167.252 C -1027.9485,397.18163 -952.31373,648.289 -952.31373,648.289 C -952.31373,648.289 -946.26294,866.11709 -779.8665,1083.9451 C -613.47006,1301.7732 -265.51234,1244.2719 -265.51244,1244.2719 C -265.51244,1244.2719 175.83526,1100.5659 366.43476,1142.9213 C 557.03436,1185.2768 551.17276,1133.5805 756.89926,1233.4183 C 974.72616,1339.1285 1458.4755,1447.7372 1482.5956,1453.1184 C 1440.1786,1443.3309 1100.8572,1361.5959 950.67536,1217.0812 C 790.32976,1062.7863 519.18956,895.04509 167.11832,905.42819 C 121.56326,906.75469 -5.6791929,953.61589 -105.16675,1008.3293 C -523.92099,1238.624 -773.81573,820.71729 -816.17119,633.14314 C -900.88211,391.11195 -848.44829,231.29572 -848.44831,231.29572 C -848.44831,231.29572 -872.13483,333.5246 -844.59094,448.61326 C -818.40058,558.04636 -752.638,633.1431 -752.638,633.14314 C -752.638,633.14314 -789.75966,539.17236 -804.03181,442.54357 C -812.32821,386.37328 -816.31902,293.7597 -764.38029,200.70146 C -750.56495,175.94862 -604.47757,49.826656 -365.87971,32.811236 C -376.36503,32.059146 -387.21176,31.439776 -398.4972,30.939276 C -413.57471,30.270636 -428.07024,30.032686 -442.00608,30.201836 C -551.84742,31.534966 -642.05356,58.709786 -705.27174,91.068896 C -667.23197,46.023596 -616.09704,2.9457357 -547.63002,-34.579324 C -547.63002,-34.579324 -560.73871,-35.965164 -582.34637,-35.657124 z "
       id="path5343" />
    <g
       id="g2976"
       transform="translate(-1003.3862,-168.56012)"
       style="opacity:0.47159089;display:inline">
      <path
         sodipodi:nodetypes="cccsssc"
         id="path5339"
         d="M 2134.3107,1130.2671 C 2134.3107,1130.2671 1998.7311,950.42004 1638.1502,1168.0088 C 1208.1816,1434.0482 863.90146,1379.4759 467.65955,1410.6713 C 467.65955,1410.6713 607.07254,1355.6003 717.42843,1456.146 C 846.95753,1574.1601 710.12608,1301.8895 942.74721,1408.7389 C 1170.2008,1513.2147 1178.4621,1708.0427 1759.7268,1248.2814 C 1856.078,1172.0709 1952.0113,1079.4981 2134.3107,1130.2671 z "
         style="opacity:0.69049389;fill:#b9b193;fill-opacity:1;fill-rule:evenodd;stroke:none;stroke-width:1px;stroke-linecap:butt;stroke-linejoin:miter;stroke-opacity:1;display:inline" />
      <path
         sodipodi:nodetypes="cccccsc"
         id="path2711"
         d="M 1946.3394,1059.8186 C 1869.6877,1060.0781 1766.1037,1085.8321 1630.8859,1167.4279 C 1340.9597,1346.8172 1032.148,1537.2662 786.3183,1449.1708 C 1036.3998,1551.8587 1347.365,1392.6476 1642.9685,1209.7455 C 1906.0823,1050.9722 2060.6794,1094.1379 2125.0267,1129.0811 C 2125.7098,1129.2679 2126.3833,1129.4574 2127.0688,1129.6483 C 2127.0688,1129.6483 2074.0925,1059.3858 1946.3394,1059.8186 z "
         style="opacity:0.69049389;fill:url(#linearGradient2980);fill-opacity:1;fill-rule:evenodd;stroke:none;stroke-width:1px;stroke-linecap:butt;stroke-linejoin:miter;stroke-opacity:1;display:inline" />
    </g>
    <path
       style="opacity:0.53086416;fill:url(#linearGradient4813);fill-opacity:1;fill-rule:evenodd;stroke:none;stroke-width:1px;stroke-linecap:butt;stroke-linejoin:miter;stroke-opacity:1;display:inline"
       d="M -763.85084,608.59976 C -762.83043,613.92656 -761.80027,619.03807 -760.84437,623.63207 C -755.13339,629.7957 -751.42784,633.16205 -751.42784,633.16205 C -751.42784,633.16205 -756.69113,624.06047 -763.85084,608.59976 z M 259.37386,902.21389 C 230.09626,902.03819 198.88316,898.22939 168.32851,905.44719 C 76.614847,927.11239 57.551487,923.32389 -103.95656,1008.2914 C -318.56752,1121.1955 -487.53698,1071.2455 -607.45709,970.11489 C -528.78884,1100.233 -394.42043,1184.059 -152.40065,1056.7356 C 9.107307,971.76819 168.32851,935.68199 168.32851,935.68199 C 414.68566,917.15899 630.15776,998.9065 799.85976,1094.8555 C 668.66706,995.43719 501.89076,903.66929 259.37386,902.21389 z M 1139.0817,1336.5652 C 1187.0485,1365.632 1241.353,1388.9723 1294.908,1407.5296 C 1399.8333,1434.3366 1474.5104,1451.0634 1483.8058,1453.1374 C 1455.0146,1446.4938 1289.4651,1406.6521 1139.0817,1336.5652 z "
       id="path4802"
       sodipodi:nodetypes="cccccssccccccccc" />
    <path
       style="fill:#b9b193;fill-opacity:1;fill-rule:evenodd;stroke:none;stroke-width:1px;stroke-linecap:butt;stroke-linejoin:miter;stroke-opacity:1;display:inline"
       d="M 1664.1107,1071.3443 C 1664.1107,1071.3443 1614.9075,1054.23 1291.8772,1321.6393 C 968.84686,1589.0485 618.00576,1302.3858 605.17016,1289.5502 C 592.33456,1276.7145 365.57156,1118.4082 29.705547,1313.0822 L -205.02353,1201.9354 C -102.16027,1168.656 167.09942,1053.6913 330.47046,1083.9451 C 493.84156,1114.1991 596.70476,1232.1892 596.70476,1232.1892 C 596.70476,1232.1892 732.84736,1368.3318 974.87846,1359.2557 C 1216.9098,1350.1794 1419.6108,1177.7323 1468.0171,1144.4529 C 1516.4234,1111.1737 1634.4136,1062.7674 1664.1107,1071.3443 z "
       id="path5337"
       sodipodi:nodetypes="cssccscssc" />
    <path
       style="fill:#eae5d2;fill-opacity:1;fill-rule:evenodd;stroke:none;stroke-width:1px;stroke-linecap:butt;stroke-linejoin:miter;stroke-opacity:1;display:inline"
       d="M -349.48588,-156.52145 C -350.83569,-156.5079 -352.16859,-156.44034 -353.51343,-156.40798 C -302.55629,-155.07506 -248.23525,-140.20242 -190.99328,-106.54577 C 30.939597,68.584956 -41.015723,173.63836 -102.61411,220.30979 C -38.523083,180.67859 58.494627,78.869616 -176.4714,-106.54577 C -237.6402,-142.51123 -295.53771,-157.06253 -349.48588,-156.52145 z M -760.80655,184.85599 C -765.35427,186.77934 -769.37482,188.52032 -772.94593,190.13152 C -775.91394,195.90086 -777.59746,199.37787 -777.59746,199.37787 C -777.59746,199.37787 -771.8268,193.85977 -760.80655,184.85599 z M -134.38066,234.60475 C -136.87807,236.42904 -139.44415,238.26152 -142.2089,240.05045 C -142.2089,240.05045 -140.85905,239.54313 -138.57843,238.6323 C -137.11989,237.30765 -135.71307,235.95526 -134.38066,234.60475 z "
       id="path3563" />
    <g
       id="g2968"
       transform="translate(-418.84457,-166.2031)"
       style="opacity:0.52272728;display:inline">
      <path
         sodipodi:nodetypes="csccc"
         id="path5347"
         d="M 461.14847,1516.5926 C 630.41396,1401.3481 1098.7559,1260.3391 1272.831,1222.4522 C 1337.1206,1208.4597 1549.0028,1203.9216 1549.0028,1203.9216 C 1549.0028,1203.9216 910.34789,1068.8429 340.13295,1353.2216 L 461.14847,1516.5926 z "
         style="fill:#e3d9bc;fill-opacity:1;fill-rule:evenodd;stroke:url(#linearGradient2972);stroke-width:0.3630468;stroke-linecap:butt;stroke-linejoin:miter;stroke-miterlimit:4;stroke-dasharray:none;stroke-opacity:1;display:inline" />
      <path
         sodipodi:nodetypes="ccccsccsccccc"
         id="path3693"
         d="M -764.47911,659.49456 C -903.64703,1149.6078 -761.47262,1358.3597 -761.47262,1358.3597 C -613.22852,1754.6858 -238.06126,1760.7175 -238.06126,1760.7175 C -238.06126,1760.7175 112.84615,1769.794 539.4261,1479.3562 C 708.6916,1364.1117 1104.3214,1251.3681 1278.3965,1213.4812 C 1342.6861,1199.4887 1592.2617,1194.9886 1592.2617,1194.9886 C 1592.2619,1194.9886 1556.484,1192.8466 1497.3024,1190.961 C 1429.2968,1189.9656 1356.9595,1189.7531 1312.659,1192.0955 C 1134.757,1201.5021 725.82289,1317.0292 556.55739,1432.2738 C 129.97743,1722.7112 -220.92999,1713.6348 -220.92999,1713.635 C -220.92999,1713.635 -596.09726,1707.6033 -744.34135,1311.277 C -744.34135,1311.277 -886.51576,1102.5251 -747.34783,612.41192 L -764.47911,659.49456 z "
         style="fill:url(#linearGradient2974);fill-opacity:1;fill-rule:evenodd;stroke:none;stroke-width:1px;stroke-linecap:butt;stroke-linejoin:miter;stroke-opacity:1;display:inline" />
    </g>
    <path
       sodipodi:nodetypes="cccscc"
       id="path4628"
       d="M 583.77746,1328.0571 C 570.94186,1315.2215 365.57156,1118.4082 29.705547,1313.0822 L -205.02353,1201.9354 C -102.16027,1168.656 167.09942,1053.6913 330.47046,1083.9451 C 493.84156,1114.1991 630.93316,1206.5179 630.93316,1206.5179 L 583.77746,1328.0571 z "
       style="opacity:0.84567901;fill:#d9d2b9;fill-opacity:1;fill-rule:evenodd;stroke:none;stroke-width:1px;stroke-linecap:butt;stroke-linejoin:miter;stroke-opacity:1;display:inline" />
    <path
       style="fill:url(#linearGradient4800);fill-opacity:1;fill-rule:evenodd;stroke:none;stroke-width:1px;stroke-linecap:butt;stroke-linejoin:miter;stroke-opacity:1;display:inline"
       d="M 270.41736,1080.874 C 107.18639,1079.8035 -116.39767,1174.2166 -208.01024,1203.8561 C -247.55721,1216.6506 -324.34462,1244.9011 -415.06039,1260.6388 C -328.08691,1262.529 -254.87327,1249.8281 -216.57594,1237.4379 C -113.71268,1204.1587 155.54702,1089.1938 318.91806,1119.4477 C 382.56726,1131.2345 458.44736,1153.0882 527.38636,1175.3795 C 481.11026,1141.1065 412.50806,1101.611 327.48376,1085.8659 C 309.61506,1082.5567 290.46326,1081.0054 270.41736,1080.874 z "
       id="path4630"
       sodipodi:nodetypes="cscsscsc" />
    <g
       id="g6418">
      <path
         sodipodi:nodetypes="cscscscscsc"
         id="path5361"
         d="M -542.65703,805.60929 C -542.65703,805.60929 -758.9724,608.95892 -686.36304,383.56739 C -613.75369,158.17583 -279.44812,121.87115 -279.44812,121.87115 C -279.44812,121.87115 -90.361273,112.79498 -105.48814,11.444426 C -120.61512,-89.906144 -246.16879,-153.43933 -246.16879,-153.43933 C -246.16879,-153.43933 -306.67662,-179.15514 -400.46369,-151.92663 C -494.25078,-124.69813 -506.35236,-92.931524 -506.35236,-92.931524 C -506.35236,-92.931524 -304.54897,-217.99906 -238.60535,-56.626864 C -211.22241,10.382556 -359.62093,34.134826 -359.62093,34.134826 C -359.62093,34.134826 -516.94121,67.414136 -613.75371,171.79008 C -739.01755,306.68963 -813.42942,549.96381 -542.65703,805.60929 z "
         style="fill:#d1c8a6;fill-opacity:1;fill-rule:evenodd;stroke:none;stroke-width:1px;stroke-linecap:butt;stroke-linejoin:miter;stroke-opacity:1;display:inline" />
      <path
         id="path4649"
         d="M -251.05172,-90.944184 C -248.50376,-86.236614 -246.04822,-81.246334 -243.79078,-75.911784 C -243.93881,-80.628144 -244.99834,-85.595614 -247.13755,-90.830734 C -248.45068,-90.880364 -249.74219,-90.896484 -251.05172,-90.944184 z M -114.85245,-27.411004 C -114.57089,-25.881794 -114.28914,-24.306394 -114.05822,-22.759464 C -98.931353,78.591086 -287.98033,87.629466 -287.98035,87.629446 C -287.98035,87.629446 -622.32373,123.97192 -694.9331,349.36349 C -716.17194,415.29239 -712.64647,478.73013 -697.08869,535.53843 C -708.82727,483.21921 -709.75067,425.81687 -690.62193,366.43804 C -618.01263,141.04644 -283.72589,104.76072 -283.72589,104.76072 C -283.72587,104.76072 -94.620113,95.665626 -109.74708,-5.6849243 C -110.86027,-13.143504 -112.63718,-20.372304 -114.85245,-27.411004 z M -587.94775,747.06979 C -577.95063,757.91239 -567.28734,768.73179 -556.06771,779.63079 C -562.41296,773.23679 -571.74173,763.40379 -582.55878,750.81389 C -584.36514,749.55879 -586.17295,748.32929 -587.94775,747.06979 z M -553.51504,782.12669 C -549.6059,785.98259 -546.93482,788.48009 -546.93482,788.48009 C -549.17808,786.36199 -551.31899,784.24269 -553.51504,782.12669 z "
         style="fill:#dbd5be;fill-opacity:1;fill-rule:evenodd;stroke:none;stroke-width:1px;stroke-linecap:butt;stroke-linejoin:miter;stroke-opacity:1;display:inline" />
    </g>
    <path
       style="fill:#c1b294;fill-opacity:1;stroke:none;stroke-width:0.82300001;stroke-miterlimit:4;stroke-opacity:1;display:inline"
       d="M -754.18787,171.03372 C -754.18787,188.45442 -767.98756,202.59295 -784.99076,202.59295 C -801.99394,202.59295 -815.79365,188.45442 -815.79365,171.03372 C -815.79365,153.61302 -801.99394,139.47448 -784.99076,139.47448 C -767.98756,139.47448 -754.18787,153.61302 -754.18787,171.03372 z "
       id="path2361" />
  </g>
  <g
     inkscape:groupmode="layer"
     id="layer7"
     inkscape:label="dark screen"
     style="display:inline">
    <rect
       y="-74.020325"
       x="-427.7868"
       height="1200.4028"
       width="1599.6681"
       id="rect3384"
       style="opacity:0.84659095;fill:#655d45;fill-opacity:0.66480444;fill-rule:evenodd;stroke:none;stroke-width:1px;stroke-linecap:butt;stroke-linejoin:miter;stroke-opacity:1;display:inline"
       inkscape:export-filename="/home/bernie/svn/svn.berlios.de-fullstory/sidux-art-kde-gaia/trunk/kdm/background.png"
       inkscape:export-xdpi="90"
       inkscape:export-ydpi="90" />
    <rect
       y="-61.933533"
       x="-411.91357"
       height="1176.2292"
       width="1567.9216"
       id="rect3490"
       style="opacity:0.13068183;fill:none;fill-opacity:0.49720674;fill-rule:evenodd;stroke:#000000;stroke-width:54.54600143;stroke-linecap:butt;stroke-linejoin:miter;stroke-miterlimit:4;stroke-dasharray:none;stroke-opacity:1;display:inline;filter:url(#filter3423)" />
  </g>
  <g
     inkscape:groupmode="layer"
     id="layer8"
     inkscape:label="plate"
     style="display:none">
    <g
       id="g3524"
       transform="translate(0,-352.43485)">
      <g
         style="opacity:1;display:inline"
         transform="matrix(1.5625,0,0,1.5625,82.130855,-400.84205)"
         inkscape:label="Layer 1"
         id="g3077">
        <rect
           inkscape:export-ydpi="90"
           inkscape:export-xdpi="90"
           inkscape:export-filename="/home/bernie/software/sidux-art/gaia/ksplash-logo.png"
           ry="15"
           y="174.33333"
           x="761"
           height="371.66666"
           width="795"
           id="rect3427"
           style="fill:none;fill-opacity:0.96067415;stroke:#000000;stroke-width:14;stroke-miterlimit:4;stroke-dasharray:none;stroke-opacity:1;display:inline;filter:url(#filter3438)"
           transform="matrix(0.4099205,0,0,0.6294358,-287.10074,595.68498)" />
        <rect
           inkscape:export-ydpi="90"
           inkscape:export-xdpi="90"
           inkscape:export-filename="/home/bernie/software/sidux-art/gaia/ksplash-logo.png"
           ry="15"
           y="172.33333"
           x="757"
           height="371.66666"
           width="795"
           id="rect3382"
           style="opacity:0.76033056;fill:#000000;fill-opacity:1;stroke:#000000;stroke-width:1;stroke-miterlimit:4;stroke-dasharray:none;stroke-opacity:1;display:inline;filter:url(#filter3470)"
           transform="matrix(0.4099205,0,0,0.6294358,-287.10074,595.68498)" />
        <rect
           inkscape:export-ydpi="90"
           inkscape:export-xdpi="90"
           inkscape:export-filename="/home/bernie/software/sidux-art/gaia/ksplash-logo.png"
           ry="15"
           y="166.33333"
           x="755"
           height="371.66666"
           width="795"
           id="rect3357"
           style="opacity:0.57954544;fill:none;fill-opacity:1;stroke:#ffffff;stroke-width:22;stroke-miterlimit:4;stroke-dasharray:none;stroke-opacity:1;display:inline;filter:url(#filter3433)"
           transform="matrix(0.4099205,0,0,0.6294358,-287.10074,595.68498)" />
        <rect
           style="fill:#e7e6dd;fill-opacity:0.96067415;stroke:#000000;stroke-width:0.50795531;stroke-miterlimit:4;stroke-dasharray:none;stroke-opacity:1;display:inline"
           id="rect2370"
           width="325.88675"
           height="233.94028"
           x="22.389204"
           y="700.3811"
           ry="9.4415359"
           inkscape:export-filename="/home/bernie/software/sidux-art/gaia/ksplash-logo.png"
           inkscape:export-xdpi="90"
           inkscape:export-ydpi="90" />
        <path
           style="opacity:0.42148761;fill:url(#linearGradient3535);fill-opacity:1;stroke:none;stroke-width:1;stroke-miterlimit:4;stroke-dasharray:none;stroke-opacity:1;display:inline"
           d="M 29.932618,700.95374 C 26.556478,700.95374 23.838499,705.12721 23.838499,710.31129 L 23.838499,824.16796 C 67.336116,833.25173 175.68783,818.12252 194.46107,821.58827 C 251.57992,832.13304 314.95827,826.38063 346.8267,819.22638 L 346.8267,710.31129 C 346.8267,705.12721 344.10868,700.95374 340.73253,700.95374 L 29.932618,700.95374 z "
           id="rect3361"
           sodipodi:nodetypes="cccscccc" />
        <path
           id="path3426"
           d="M 29.932618,700.95374 C 26.556478,700.95374 23.838499,705.12721 23.838499,710.31129 L 23.838499,786.82144 L 346.8267,789.15083 L 346.8267,710.31129 C 346.8267,705.12721 344.10868,700.95374 340.73253,700.95374 L 29.932618,700.95374 z "
           style="fill:url(#linearGradient3537);fill-opacity:1;stroke:none;stroke-width:1;stroke-miterlimit:4;stroke-dasharray:none;stroke-opacity:1;display:inline"
           sodipodi:nodetypes="ccccccc" />
        <path
           sodipodi:type="arc"
           style="opacity:0.79545456;fill:#ffffff;fill-opacity:1;display:inline;filter:url(#filter3715)"
           id="path3617"
           sodipodi:cx="1136.6666"
           sodipodi:cy="414.16666"
           sodipodi:rx="265"
           sodipodi:ry="54.166668"
           d="M 1401.6666 414.16666 A 265 54.166668 0 1 1  871.66663,414.16666 A 265 54.166668 0 1 1  1401.6666 414.16666 z"
           transform="matrix(0.3377332,0,0,0.5185917,-205.04789,627.74529)"
           inkscape:export-filename="/home/bernie/software/sidux-art/gaia/ksplash-logo.png"
           inkscape:export-xdpi="90"
           inkscape:export-ydpi="90" />
      </g>
      <rect
         ry="15"
         y="935.32227"
         x="133.98796"
         height="94.280907"
         width="476.11856"
         id="rect4765"
         style="opacity:0.34090911;fill:#d1c8a6;fill-opacity:1;stroke:url(#linearGradient3539);stroke-width:3;stroke-miterlimit:4;stroke-dasharray:none;stroke-opacity:1;display:inline" />
    </g>
  </g>
  <g
     inkscape:groupmode="layer"
     id="layer4"
     inkscape:label="logo"
     style="display:inline" />
</svg>
