<?xml version="1.0" encoding="UTF-8" standalone="no"?>
<!-- Created with Inkscape (http://www.inkscape.org/) -->

<svg
   xmlns:dc="http://purl.org/dc/elements/1.1/"
   xmlns:cc="http://creativecommons.org/ns#"
   xmlns:rdf="http://www.w3.org/1999/02/22-rdf-syntax-ns#"
   xmlns:svg="http://www.w3.org/2000/svg"
   xmlns="http://www.w3.org/2000/svg"
   xmlns:xlink="http://www.w3.org/1999/xlink"
   xmlns:sodipodi="http://sodipodi.sourceforge.net/DTD/sodipodi-0.dtd"
   xmlns:inkscape="http://www.inkscape.org/namespaces/inkscape"
   width="1680"
   height="1050"
   id="svg2"
   sodipodi:version="0.32"
   inkscape:version="0.47 r22583"
   version="1.0"
   sodipodi:docname="sidux-momos.svg"
   inkscape:output_extension="org.inkscape.output.svg.inkscape"
   inkscape:export-filename="/home/klaymen/Desktop/wallpaper/idea1.png"
   inkscape:export-xdpi="90"
   inkscape:export-ydpi="90">
  <defs
     id="defs4">
    <linearGradient
       id="linearGradient3213">
      <stop
         id="stop3215"
         offset="0"
         style="stop-color:#ffffff;stop-opacity:1;" />
      <stop
         id="stop3217"
         offset="1"
         style="stop-color:#000000;stop-opacity:0;" />
    </linearGradient>
    <linearGradient
       id="linearGradient3197">
      <stop
         id="stop3199"
         offset="0"
         style="stop-color:#ffffff;stop-opacity:1;" />
      <stop
         id="stop3201"
         offset="1"
         style="stop-color:#ffffff;stop-opacity:0;" />
    </linearGradient>
    <linearGradient
       id="linearGradient3165">
      <stop
         style="stop-color:#800000;stop-opacity:1;"
         offset="0"
         id="stop3167" />
      <stop
         style="stop-color:#380000;stop-opacity:1;"
         offset="1"
         id="stop3169" />
    </linearGradient>
    <radialGradient
       inkscape:collect="always"
       xlink:href="#linearGradient3165"
       id="radialGradient3173"
       cx="674.28571"
       cy="775"
       fx="674.28571"
       fy="775"
       r="840"
       gradientTransform="matrix(1.4656336,-0.5959799,0.2812109,0.6915538,-531.90855,640.90663)"
       gradientUnits="userSpaceOnUse" />
    <radialGradient
       inkscape:collect="always"
       xlink:href="#linearGradient3197"
       id="radialGradient3195"
       cx="874.01868"
       cy="897.05042"
       fx="874.01868"
       fy="897.05042"
       r="934.22223"
       gradientTransform="matrix(1.1207937,-0.5239493,0.3302478,0.7064416,-359.6213,572.22779)"
       gradientUnits="userSpaceOnUse" />
    <radialGradient
       inkscape:collect="always"
       xlink:href="#linearGradient3213"
       id="radialGradient3211"
       cx="1031.1855"
       cy="806"
       fx="1031.1855"
       fy="806"
       r="1033.1855"
       gradientTransform="matrix(1,0,0,0.2419701,0,610.9721)"
       gradientUnits="userSpaceOnUse" />
    <filter
       inkscape:collect="always"
       id="filter3449">
      <feGaussianBlur
         inkscape:collect="always"
         stdDeviation="14.082"
         id="feGaussianBlur3451" />
    </filter>
    <filter
       inkscape:collect="always"
       id="filter3508">
      <feGaussianBlur
         inkscape:collect="always"
         stdDeviation="23.103"
         id="feGaussianBlur3510" />
    </filter>
    <filter
       inkscape:collect="always"
       id="filter3516">
      <feGaussianBlur
         inkscape:collect="always"
         stdDeviation="12.233"
         id="feGaussianBlur3518" />
    </filter>
    <filter
       inkscape:collect="always"
       id="filter3864"
       x="-0.39403413"
       width="1.7880683"
       y="-1.4914641"
       height="3.9829282">
      <feGaussianBlur
         inkscape:collect="always"
         stdDeviation="51.766234"
         id="feGaussianBlur3866" />
    </filter>
  </defs>
  <sodipodi:namedview
     id="base"
     pagecolor="#ffffff"
     bordercolor="#666666"
     borderopacity="1.0"
     gridtolerance="10000"
     guidetolerance="10"
     objecttolerance="10"
     inkscape:pageopacity="0.0"
     inkscape:pageshadow="2"
     inkscape:zoom="0.5"
     inkscape:cx="812.08797"
     inkscape:cy="543.0061"
     inkscape:document-units="px"
     inkscape:current-layer="layer1"
     showgrid="false"
     showguides="true"
     inkscape:guide-bbox="true"
     inkscape:window-width="1440"
     inkscape:window-height="854"
     inkscape:window-x="0"
     inkscape:window-y="0"
     inkscape:window-maximized="0">
    <sodipodi:guide
       orientation="1,0"
       position="842.87128,927.7241"
       id="guide2544" />
    <sodipodi:guide
       orientation="1,0"
       position="-186.67619,264.45794"
       id="guide2546" />
    <sodipodi:guide
       orientation="0,1"
       position="947.52309,523.25902"
       id="guide2548" />
  </sodipodi:namedview>
  <metadata
     id="metadata7">
    <rdf:RDF>
      <cc:Work
         rdf:about="">
        <dc:format>image/svg+xml</dc:format>
        <dc:type
           rdf:resource="http://purl.org/dc/dcmitype/StillImage" />
      </cc:Work>
    </rdf:RDF>
  </metadata>
  <g
     inkscape:label="Layer 1"
     inkscape:groupmode="layer"
     id="layer1"
     transform="translate(165.71428,-250)">
    <rect
       style="opacity:1;fill:url(#radialGradient3173);fill-opacity:1;stroke:none;stroke-width:15.85999965999999972;stroke-miterlimit:4;stroke-dasharray:none;stroke-opacity:1"
       id="rect2385"
       width="1680"
       height="1050"
       x="-165.71428"
       y="250" />
    <path
       style="fill:url(#radialGradient3195);fill-rule:evenodd;stroke:none;stroke-width:1px;stroke-linecap:butt;stroke-linejoin:miter;stroke-opacity:1;fill-opacity:1;opacity:0.0625"
       d="M 0,1054 C 0,1054 1007.2026,302.54422 1680,512 C 2104,644 1680,4.0000006 1680,4.0000006 L 0,2.0000006 L 0,1054 z"
       id="path3187"
       transform="translate(-165.71428,250)"
       sodipodi:nodetypes="csccc" />
    <path
       style="fill:url(#radialGradient3211);fill-rule:evenodd;stroke:none;stroke-width:1px;stroke-linecap:butt;stroke-linejoin:miter;stroke-opacity:1;fill-opacity:1;opacity:0.23249992"
       d="M -2,556 C -2,556 814,1038 1680,924 C 2546,810 1678,1056 1678,1056 L 0,1044 L -2,556 z"
       id="path3203"
       transform="translate(-165.71428,250)" />
    <path
       style="fill:none;fill-rule:evenodd;stroke:#ffffff;stroke-width:1.19999999999999996;stroke-linecap:butt;stroke-linejoin:miter;stroke-opacity:1;stroke-miterlimit:4;stroke-dasharray:none;opacity:0.52302632000000004;filter:url(#filter3449)"
       d="M 4,882 L 1498,5.5401688e-07 L 1526,2.0000006 L 4,900 L 0,932 L 1562,2.0000006 L 1604,2.0000006 L -2,958 L -2,996 L 1652,2.0000006 L 1754,-61.999999"
       id="path3367"
       transform="translate(-165.71428,250)" />
    <path
       style="fill:none;fill-rule:evenodd;stroke:#ffffff;stroke-width:3.29999999999999982;stroke-linecap:butt;stroke-linejoin:miter;stroke-opacity:1;stroke-miterlimit:4;stroke-dasharray:none;filter:url(#filter3516);opacity:0.68421053"
       d="M -76,868 L 1404,-91.999999"
       id="path3481"
       transform="translate(-165.71428,250)" />
    <g
       id="g3493"
       style="filter:url(#filter3508)">
      <path
         transform="translate(-165.71428,250)"
         id="path3483"
         d="M -54,828 L 1278,-63.999999"
         style="opacity:0.97368421;fill:#ffffff;fill-opacity:1;stroke:#ffffff;stroke-width:1.20000005000000010;stroke-linecap:round;stroke-linejoin:round;stroke-miterlimit:4;stroke-dasharray:none;stroke-opacity:1" />
      <path
         transform="translate(-165.71428,250)"
         id="path3485"
         d="M -26,784 L 1236,-172"
         style="opacity:0.97368421;fill:#ffffff;fill-opacity:1;stroke:#ffffff;stroke-width:1.20000005000000010;stroke-linecap:round;stroke-linejoin:round;stroke-miterlimit:4;stroke-dasharray:none;stroke-opacity:1" />
      <path
         transform="translate(-165.71428,250)"
         id="path3487"
         d="M -34,984 L 1768,354"
         style="opacity:0.97368421;fill:#ffffff;fill-opacity:1;stroke:#ffffff;stroke-width:1.20000005000000010;stroke-linecap:round;stroke-linejoin:round;stroke-miterlimit:4;stroke-dasharray:none;stroke-opacity:1" />
      <path
         transform="translate(-165.71428,250)"
         id="path3489"
         d="M -32,1024 L 1724,452"
         style="opacity:0.97368421;fill:#ffffff;fill-opacity:1;stroke:#ffffff;stroke-width:1.20000005000000010;stroke-linecap:round;stroke-linejoin:round;stroke-miterlimit:4;stroke-dasharray:none;stroke-opacity:1" />
      <path
         transform="translate(-165.71428,250)"
         id="path3491"
         d="M -30,1084 L 1758,492"
         style="opacity:0.97368421;fill:#ffffff;fill-opacity:1;stroke:#ffffff;stroke-width:1.20000005000000010;stroke-linecap:round;stroke-linejoin:round;stroke-miterlimit:4;stroke-dasharray:none;stroke-opacity:1" />
    </g>
    <g
       id="g2547"
       transform="translate(14,0)">
      <g
         inkscape:label="Layer 1"
         id="g3777"
         transform="matrix(0.4893022,0,0,0.4893022,311.5719,532.64749)">
        <g
           inkscape:label="Layer 1"
           id="g2615"
           transform="translate(630.2208,290.34831)" />
        <g
           id="layer2"
           inkscape:label="rhs"
           transform="translate(630.2208,290.34831)" />
        <path
           style="font-size:medium;font-style:normal;font-variant:normal;font-weight:normal;font-stretch:normal;text-indent:0;text-align:start;text-decoration:none;line-height:normal;letter-spacing:normal;word-spacing:normal;text-transform:none;direction:ltr;block-progression:tb;writing-mode:lr-tb;text-anchor:start;fill:#ffffff;fill-opacity:1;stroke:none;stroke-width:7;marker:none;visibility:visible;display:inline;overflow:visible;enable-background:accumulate;font-family:Bitstream Vera Sans;-inkscape-font-specification:Bitstream Vera Sans"
           d="M 466.94711,399.35761 C 455.77497,399.55732 445.44658,412.90287 445.44658,412.90287 C 428.41901,398.85036 428.52576,431.75882 428.52576,431.75882 C 412.68524,439.06942 416.78648,464.99847 416.78648,464.99847 L 421.73159,466.09515 C 417.76135,473.87226 415.51794,482.65116 415.51794,491.9387 C 415.51794,494.68059 415.72141,497.36084 416.09844,500.00139 C 407.72015,501.42074 391.5965,505.14056 394.38298,512.3857 L 392.8994,515.37416 C 392.8994,515.37416 385.42697,518.36368 386.92232,523.22179 C 387.81905,526.13521 395.00954,531.97615 400.63962,536.20809 C 398.58648,537.01867 392.09038,539.95299 393.69496,544.35698 C 395.59275,549.56267 419.77508,563.57825 419.77508,563.57825 L 407.92831,545.56093 C 407.92831,545.56093 429.17449,543.05777 436.65294,536.25128 C 437.59946,537.02912 438.56009,537.78991 439.55554,538.50874 C 435.4393,540.46598 432.72863,543.05064 434.00833,546.37797 L 432.50336,549.36642 C 432.50336,549.36642 425.03091,552.35594 426.52615,557.21406 C 428.02157,562.07236 447.08077,575.1457 447.08065,575.1457 L 437.72797,558.33216 C 437.72797,558.33216 448.2939,556.8698 455.59482,553.08607 C 454.82802,563.53785 463.28568,576.33992 477.31042,584.41235 C 490.8975,592.23299 505.66957,593.25429 514.44169,587.93854 C 510.08114,587.2798 505.29857,585.62937 500.68143,582.97176 C 488.36868,575.88474 481.70688,564.3521 485.80305,557.23565 C 489.88553,550.14306 503.13092,550.11207 515.40927,557.12774 C 511.70332,552.33143 506.59666,547.85744 500.40187,544.29189 C 500.15788,544.15087 499.91572,544.01955 499.67093,543.88338 C 503.17039,542.20665 506.46915,540.18621 509.5396,537.88468 C 510.2821,541.2949 511.578,544.8298 513.47417,548.26962 C 515.97859,552.81239 519.15972,556.56757 522.59036,559.32076 C 517.66367,550.31759 517.84065,540.70912 523.04191,537.84168 C 528.26063,534.96466 536.55472,539.97133 541.53231,549.00043 C 543.399,552.38647 544.53142,555.86841 544.9509,559.04111 C 547.68957,554.70468 548.25982,548.25725 546.56345,541.41087 C 549.43756,539.59259 563.99172,530.21936 565.48391,525.82304 C 567.13288,520.96474 558.88319,517.97541 558.88319,517.97541 L 557.24912,514.98679 C 558.80502,511.31904 555.00212,508.55503 549.68095,506.53701 C 552.5555,504.34049 555.01365,502.14713 555.46465,500.81779 C 556.66406,497.28134 550.64853,495.12035 550.64853,495.12035 L 549.46602,492.94866 C 551.68989,487.70658 538.91283,485.007 532.15813,483.96151 C 528.20175,455.86904 503.66416,434.20937 474.12835,434.20937 C 459.94724,434.20937 446.91668,439.19445 436.76039,447.49657 C 438.65744,442.10491 439.98556,437.7138 439.98556,437.7138 C 447.00718,439.25939 454.02532,420.68555 454.02532,420.68555 C 460.11103,422.02497 483.76057,414.4718 483.76057,414.4718 C 483.76057,414.4718 491.56738,422.55276 495.34924,416.51437 C 499.13198,410.47753 506.93798,416.62233 506.93798,416.62233 C 488.90065,391.55002 483.95403,409.59174 483.95403,409.59174 L 478.94446,405.54943 C 475.13764,400.93125 470.98807,399.28517 466.94711,399.35744 L 466.94711,399.35761 z M 467.11917,402.02375 C 474.8808,401.78045 477.71898,409.14038 477.71898,409.14038 C 474.15773,411.41768 450.5639,410.81727 450.5639,410.81727 C 457.64218,404.35295 463.05369,402.15103 467.11917,402.02375 L 467.11917,402.02375 z M 440.56611,412.90287 C 442.26463,412.8508 443.46861,413.48343 443.46861,413.48343 L 434.86845,426.51273 C 432.79217,428.76565 433.9782,431.32018 435.29845,433.04896 C 436.33024,433.87174 437.14704,434.6374 437.1905,435.04853 C 437.1905,435.04853 436.21517,434.24892 435.29845,433.04896 C 433.3799,431.51903 430.69743,429.80244 430.69743,429.80244 C 432.3176,415.59652 437.32351,413.00403 440.56611,412.90287 L 440.56611,412.90287 z M 428.84831,434.74745 C 425.04509,438.11919 427.68734,457.43031 427.68734,457.43048 L 419.17315,461.30058 C 417.96339,444.20077 428.84831,434.74745 428.84831,434.74745 L 428.84831,434.74745 z M 474.12844,442.05754 C 502.22692,442.05754 524.86945,464.39527 524.86957,491.9387 C 524.86957,492.33641 524.85754,492.72578 524.84827,493.12123 C 511.05729,513.51059 474.35397,500.74928 453.03663,485.76813 C 432.80739,471.5516 425.233,486.93813 423.36595,492.04632 C 423.36588,492.01112 423.36595,491.97489 423.36595,491.93835 C 423.36595,464.39492 446.03007,442.05719 474.12867,442.05719 L 474.12844,442.05754 z M 467.97917,474.26545 L 495.47833,495.24983 C 501.60779,484.84836 467.97917,474.26545 467.97917,474.26545 L 467.97917,474.26545 z M 514.14081,475.96377 C 509.37402,475.81055 507.54009,495.65835 507.54009,495.65835 L 515.7103,476.7162 C 515.15321,476.22896 514.63389,475.97962 514.1408,475.96377 L 514.14081,475.96377 z M 532.15819,485.35961 C 541.79431,485.31978 547.96104,492.13216 547.96104,492.13216 L 547.8106,495.52913 C 544.66182,495.52913 529.51371,489.27255 529.51371,489.27255 L 529.06217,485.59609 C 530.13048,485.42893 531.16133,485.36344 532.15822,485.35965 L 532.15819,485.35961 z M 445.46824,496.10988 C 449.09314,496.01932 454.21891,499.55004 454.21891,499.55004 C 499.2589,517.51199 523.10643,500.17344 523.10643,500.17344 C 516.48278,516.89574 451.57169,513.80105 447.59671,513.18114 C 443.62179,512.5614 440.32128,503.87723 442.30772,498.30289 C 442.86661,496.73501 444.04977,496.14505 445.46824,496.10988 z M 550.19709,496.75486 C 550.19709,496.75486 557.1059,498.52039 553.20712,499.7435 L 550.19709,496.75486 L 550.19709,496.75486 z M 532.39464,497.95899 C 538.24073,500.61591 546.45606,501.63545 546.45606,501.63545 L 544.45645,504.9034 C 539.73561,503.64302 534.99882,502.86273 531.7712,502.40947 C 532.04446,500.94676 532.23611,499.45775 532.39464,497.95899 L 532.39464,497.95899 z M 415.94803,501.95794 C 417.19016,501.95794 418.46545,502.07285 419.79662,502.30198 L 419.2376,507.33302 C 419.2376,507.33302 400.37044,515.93308 396.44713,515.93308 L 396.25348,511.26773 C 396.25348,511.26773 403.94132,501.90495 415.94798,501.9579 L 415.94803,501.95794 z M 533.46976,504.55949 C 546.71275,504.50742 555.18519,513.86932 555.18519,513.86932 L 554.97023,518.53484 C 550.64218,518.53484 529.8361,509.95602 529.8361,509.95602 L 529.21256,504.9034 C 530.68083,504.67579 532.09972,504.56501 533.46976,504.55944 L 533.46976,504.55949 z M 520.82745,509.87018 C 513.42128,519.39819 466.7112,533.97067 465.57114,534.53119 C 464.43108,535.09154 457.03546,531.72486 457.03546,527.80149 C 457.03546,523.87829 461.01302,521.07178 461.01302,521.07178 C 470.69703,526.11623 520.82745,509.87018 520.82745,509.87018 L 520.82745,509.87018 z M 420.72116,515.71825 C 421.51439,517.43868 422.41101,519.10251 423.3657,520.72788 C 412.80989,522.77689 400.35395,526.5526 403.17678,532.74651 L 402.98332,533.06915 L 398.12421,524.33988 C 398.12421,524.33988 414.78782,522.03228 420.72123,515.71823 L 420.72116,515.71825 z M 526.9765,516.85778 C 527.02431,516.92743 527.05562,517.00228 527.10573,517.07283 C 527.03954,517.04688 526.97804,517.01186 526.91226,516.98575 C 526.93358,516.94221 526.95534,516.90043 526.97701,516.8569 L 526.9765,516.85778 z M 393.45858,517.6102 L 389.71743,521.71695 C 384.85921,520.03553 393.45858,517.6102 393.45858,517.6102 z M 558.28121,520.23333 C 558.28121,520.23333 567.74606,522.65848 562.38789,524.3399 L 558.28121,520.23333 z M 430.52544,521.56649 C 432.10194,521.56649 433.73781,521.68839 435.4275,521.93184 L 434.718,527.34996 C 434.718,527.34996 410.78034,536.55219 405.79976,536.55219 L 405.56331,531.54254 C 405.56331,531.54254 415.28516,521.50936 430.52544,521.56648 L 430.52544,521.56649 z M 513.88277,521.5878 C 510.6165,530.18054 518.74188,553.23659 518.74188,553.23659 C 518.74188,553.23659 514.51833,547.2297 511.38874,536.76712 C 508.25908,526.30487 513.88277,521.5878 513.88277,521.5878 L 513.88277,521.5878 z M 535.68425,522.6845 C 543.48707,525.74871 553.12111,526.94151 553.12111,526.94151 L 546.30551,540.44375 C 545.53263,537.66029 544.41808,534.83568 542.88685,532.05845 C 540.85996,528.38164 538.37446,525.2187 535.68425,522.68437 L 535.68425,522.6845 z M 455.55197,535.95008 C 456.79404,535.95008 458.0694,536.06846 459.40053,536.29439 L 458.84151,541.34703 C 458.84151,541.34703 439.97435,549.9255 436.05102,549.9255 L 435.87895,545.25997 C 435.87895,545.25997 443.54513,535.89721 455.55196,535.95012 L 455.55197,535.95008 z M 539.10277,536.61666 C 539.281,536.61666 539.45478,536.61666 539.64031,536.61666 C 540.32545,536.63611 541.05016,536.73861 541.81189,536.98218 C 544.88228,543.89889 543.85443,550.42017 543.85443,550.42017 C 543.85443,550.42017 542.49774,544.63949 539.91986,541.71249 C 537.34187,538.78532 534.93176,537.99267 534.93176,537.99267 C 534.61014,538.23737 536.42901,536.7572 539.10277,536.61667 L 539.10277,536.61666 z M 401.99424,538.35788 L 397.26415,542.74412 C 391.09773,540.94166 401.99424,538.35788 401.99424,538.35788 z M 490.14621,546.52818 C 490.40043,546.52818 490.66298,546.50873 490.94169,546.52818 C 499.86698,546.85869 502.18647,551.1723 502.18647,551.1723 C 502.18647,551.1723 494.90861,549.50603 490.94169,550.82836 C 486.97501,552.15054 485.65268,554.46179 485.65268,554.46179 C 485.97282,555.10227 482.26436,546.75033 490.14621,546.52815 L 490.14621,546.52818 z M 458.21807,548.18384 C 462.91662,566.65164 501.84248,589.85169 501.84248,589.85169 C 501.84248,589.85169 488.43664,587.09934 471.6558,575.70446 C 454.875,564.30922 458.21807,548.18384 458.21807,548.18384 z M 433.0624,551.62383 L 429.32136,555.73022 C 424.46308,554.04896 433.0624,551.62383 433.0624,551.62383 z"
           id="path5810" />
      </g>
      <path
         transform="translate(-222.843,242.34315)"
         d="m 1048,548 c 0,22.09139 -69.84358,40 -156,40 -86.15642,0 -156,-17.90861 -156,-40 0,-22.09139 69.84358,-40 156,-40 86.15642,0 156,17.90861 156,40 z"
         sodipodi:ry="40"
         sodipodi:rx="156"
         sodipodi:cy="548"
         sodipodi:cx="892"
         id="path3782"
         style="opacity:0.37828944;fill:#ffffff;fill-opacity:1;stroke:#ffffff;stroke-width:3.29999995;stroke-linecap:round;stroke-linejoin:round;stroke-miterlimit:4;stroke-dasharray:none;stroke-opacity:1;filter:url(#filter3864)"
         sodipodi:type="arc" />
    </g>
  </g>
</svg>
