<?xml version="1.0" encoding="UTF-8" standalone="no"?>
<!-- Created with Inkscape (http://www.inkscape.org/) -->

<svg
   xmlns:dc="http://purl.org/dc/elements/1.1/"
   xmlns:cc="http://creativecommons.org/ns#"
   xmlns:rdf="http://www.w3.org/1999/02/22-rdf-syntax-ns#"
   xmlns:svg="http://www.w3.org/2000/svg"
   xmlns="http://www.w3.org/2000/svg"
   xmlns:xlink="http://www.w3.org/1999/xlink"
   xmlns:sodipodi="http://sodipodi.sourceforge.net/DTD/sodipodi-0.dtd"
   xmlns:inkscape="http://www.inkscape.org/namespaces/inkscape"
   width="1600"
   height="1200"
   id="svg2"
   version="1.1"
   inkscape:version="0.48+devel r"
   sodipodi:docname="background.svg"
   inkscape:export-filename="/home/rick/aptosid-art/ksplash themes/aptosid-keres/backbround.png"
   inkscape:export-xdpi="90"
   inkscape:export-ydpi="90">
  <defs
     id="defs4">
    <radialGradient
       r="515.50891"
       fy="677.5401"
       fx="0.74603319"
       cy="677.5401"
       cx="0.74603319"
       gradientTransform="matrix(1,0,0,0.72793058,0,184.33794)"
       gradientUnits="userSpaceOnUse"
       id="radialGradient3641"
       xlink:href="#linearGradient3629"
       inkscape:collect="always" />
    <radialGradient
       gradientUnits="userSpaceOnUse"
       gradientTransform="matrix(1,0,0,0.72793058,0,184.33794)"
       r="515.50891"
       fy="677.5401"
       fx="0.74603319"
       cy="677.5401"
       cx="0.74603319"
       id="radialGradient3637"
       xlink:href="#linearGradient3629"
       inkscape:collect="always" />
    <linearGradient
       gradientTransform="translate(-447.90389,-0.88802719)"
       gradientUnits="userSpaceOnUse"
       y2="224.39597"
       x2="448.50793"
       y1="224.39597"
       x1="-1.4920664"
       id="linearGradient3593"
       xlink:href="#linearGradient3587"
       inkscape:collect="always" />
    <inkscape:perspective
       id="perspective7"
       inkscape:persp3d-origin="185.08711 : 132.29655 : 1"
       inkscape:vp_z="370.17422 : 198.44482 : 1"
       inkscape:vp_y="0 : 1000 : 0"
       inkscape:vp_x="0 : 198.44482 : 1"
       sodipodi:type="inkscape:persp3d" />
    <linearGradient
       id="linearGradient3587"
       inkscape:collect="always">
      <stop
         id="stop3589"
         offset="0"
         style="stop-color:#000000;stop-opacity:1;" />
      <stop
         id="stop3591"
         offset="1"
         style="stop-color:#000000;stop-opacity:0;" />
    </linearGradient>
    <linearGradient
       id="linearGradient3629">
      <stop
         id="stop3631"
         offset="0"
         style="stop-color:#ffffff;stop-opacity:1;" />
      <stop
         id="stop3633"
         offset="1"
         style="stop-color:#ffffff;stop-opacity:0;" />
    </linearGradient>
    <filter
       id="filter3814"
       inkscape:label="Ink bleed"
       inkscape:menu="Protrusions"
       inkscape:menu-tooltip="Inky splotches underneath the object"
       color-interpolation-filters="sRGB">
      <feGaussianBlur
         id="feGaussianBlur3816"
         result="result1"
         in="SourceGraphic"
         stdDeviation="4.2000000000000002" />
      <feTurbulence
         id="feTurbulence3818"
         result="result0"
         numOctaves="4"
         baseFrequency="0.042000000000000003" />
      <feDisplacementMap
         id="feDisplacementMap3820"
         in2="result0"
         result="result2"
         scale="42"
         yChannelSelector="G"
         xChannelSelector="R"
         in="result1" />
      <feColorMatrix
         id="feColorMatrix3822"
         values="2 0 0 0 0 0 2 0 0 0 0 0 2 0 0 0 0 0 0.7 0"
         result="result3" />
      <feGaussianBlur
         id="feGaussianBlur3824"
         result="result4"
         in="SourceGraphic"
         stdDeviation="42" />
      <feComposite
         id="feComposite3826"
         in2="result3"
         in="result4" />
    </filter>
  </defs>
  <sodipodi:namedview
     id="base"
     pagecolor="#000000"
     bordercolor="#666666"
     borderopacity="1.0"
     inkscape:pageopacity="1"
     inkscape:pageshadow="2"
     inkscape:zoom="0.35"
     inkscape:cx="645.48098"
     inkscape:cy="746.10419"
     inkscape:document-units="px"
     inkscape:current-layer="layer1"
     showgrid="false"
     inkscape:window-width="1600"
     inkscape:window-height="1180"
     inkscape:window-x="1596"
     inkscape:window-y="-3"
     inkscape:window-maximized="1" />
  <metadata
     id="metadata7">
    <rdf:RDF>
      <cc:Work
         rdf:about="">
        <dc:format>image/svg+xml</dc:format>
        <dc:type
           rdf:resource="http://purl.org/dc/dcmitype/StillImage" />
        <dc:title />
      </cc:Work>
    </rdf:RDF>
  </metadata>
  <g
     inkscape:label="Layer 1"
     inkscape:groupmode="layer"
     id="layer1"
     transform="translate(0,147.63782)">
    <path
       style="opacity:0.2;color:#000000;fill:#ffffff;fill-opacity:1;stroke:none;stroke-width:7;marker:none;visibility:visible;display:inline;overflow:visible;filter:url(#filter3814)"
       d="m 1012.8796,-980.33996 c 140.2135,2.50566 269.837,169.99699 269.837,169.99699 213.7008,-176.36501 212.3611,236.6464 212.3611,236.6464 198.8021,91.75088 147.3311,417.16757 147.3311,417.16757 l -62.0628,13.76157 c 49.8273,97.605245 77.9826,207.782774 77.9826,324.34379 0,34.41212 -2.5533,68.04815 -7.2851,101.18841 105.1496,17.81255 307.5052,64.49836 272.5342,155.42582 l 18.6191,37.50739 c 0,0 93.7813,37.51772 75.0142,98.48999 -11.2544,36.56321 -101.4967,109.86804 -172.1554,162.98167 25.7678,10.17236 107.2948,46.99771 87.1575,102.2673 -23.818,65.33327 -327.3123,241.23416 -327.3123,241.23416 l 148.68,-226.12302 c 0,0 -266.6452,-31.4146 -360.5017,-116.83901 -11.8787,9.76158 -23.935,19.31075 -36.4279,28.33263 51.6598,24.56499 85.6792,57.00071 69.6186,98.75995 l 18.8878,37.50756 c 0,0 93.7812,37.5182 75.0154,98.49049 -18.7675,60.9716 -257.9655,225.0437 -257.9636,225.0437 l 117.3783,-211.0127 c 0,0 -132.6055,-18.35499 -224.2337,-65.83999 9.6237,131.17199 -96.5222,291.84129 -272.5361,393.15239 -170.5216,98.15 -355.91411,110.9679 -466.00663,44.253 54.7258,-8.2659 114.74851,-28.9788 172.69469,-62.3327 154.52833,-88.9432 238.13554,-233.6798 186.72752,-322.9943 -51.23621,-89.01599 -217.46922,-89.40249 -371.56546,-1.34889 46.51053,-60.1951 110.6004,-116.3426 188.34642,-161.0928 3.0625,-1.76274 6.10201,-3.41802 9.17358,-5.12673 -43.91942,-21.04442 -85.31943,-46.40129 -123.8541,-75.28427 -9.31867,42.7975 -25.58262,87.16416 -49.37995,130.3312 -31.43096,57.0134 -71.35533,104.1423 -114.41055,138.69629 C 376.37477,914.25091 374.15406,793.66375 308.87703,757.67698 243.38044,721.56947 139.28746,784.40399 76.81752,897.72181 53.39027,940.21581 39.17785,983.91501 33.91327,1023.7359 -0.45758,969.30861 -7.61478,888.39401 13.67534,802.4696 -22.39515,779.64973 -205.05345,662.01468 -223.78046,606.83793 c -20.69545,-60.97165 82.84004,-98.48996 82.84004,-98.48996 l 20.50796,-37.50739 c -19.52674,-46.02987 28.200338,-80.71992 94.98207,-106.04584 -36.07594,-27.56744 -66.926167,-55.09663 -72.586984,-71.77629 -15.052216,-44.38546 60.443764,-71.50629 60.443764,-71.50629 l 14.84105,-27.25372 C -50.66283,128.47062 109.69255,94.588254 194.46593,81.466844 244.119,-271.10096 552.07191,-542.93495 922.7537,-542.93495 c 177.9762,0 341.5133,62.56571 468.9772,166.75898 -23.8085,-67.66586 -40.4766,-122.77583 -40.4766,-122.77583 -88.1233,19.39688 -176.2025,-213.71029 -176.2025,-213.71029 -76.3771,16.81091 -373.18475,-77.98282 -373.18475,-77.98282 0,0 -97.97724,101.41608 -145.44091,25.63454 -47.47349,-75.76429 -145.44166,1.34916 -145.44166,1.34916 226.37321,-314.66279 288.45471,-88.23655 288.45471,-88.23655 L 862.31,-902.62697 c 47.7768,-57.96208 99.8552,-78.61923 150.5696,-77.71299 z m -2.1578,33.45975 c -97.4105,-3.0522 -133.0302,89.31799 -133.0302,89.31592 44.6943,28.58062 340.8027,21.04722 340.8027,21.04722 -88.8341,-81.13047 -156.7499,-108.76428 -207.7725,-110.36314 z m 333.2473,136.53724 c -21.3166,-0.66402 -36.4272,7.28558 -36.4272,7.28558 l 107.9349,163.52082 c 26.0569,28.27435 11.1723,60.33451 -5.3976,82.03057 -12.9491,10.32529 -23.1998,19.93696 -23.7453,25.09475 0,0 12.2404,-10.03342 23.7453,-25.09475 24.0789,-19.2015 57.7442,-40.74526 57.7442,-40.74526 -20.3334,-178.28505 -83.1588,-210.82385 -123.8543,-212.09171 z m 147.0611,274.15379 c 47.7315,42.31746 14.5711,284.67444 14.5711,284.67748 l 106.8547,48.57054 c 15.1826,-214.60567 -121.4258,-333.24802 -121.4258,-333.24802 z m -568.2765,91.74481 c -352.64275,0 -636.8124,280.34496 -636.81425,626.02073 0,4.99153 0.15749,9.87686 0.267,14.84047 173.08064,255.89213 633.71605,95.73451 901.25425,-92.28365 253.882,-178.422254 348.9424,14.6845 372.3745,78.79209 6e-4,-0.45508 0,-0.89564 0,-1.34891 0,-345.67577 -284.4402,-626.02073 -637.0852,-626.02073 z M 999.9281,-40.229505 654.80707,223.13111 C 577.88096,92.591274 999.9281,-40.229505 999.9281,-40.229505 z m -579.33948,21.316799 c 59.82409,-1.91444 82.84061,247.170636 82.84061,247.170636 L 400.89067,-9.4684957 c 6.99215,-6.1183403 13.50922,-9.2457803 19.69795,-9.4442103 z M 194.46593,99.006334 C 73.5305,98.520914 -3.86414,184.00477 -3.86414,184.00477 l 1.88895,42.63424 c 39.51771,0 229.6305,-78.52269 229.6305,-78.52269 l 5.66695,-46.14214 C 219.9144,99.894094 206.97698,99.056104 194.46593,99.006334 z M 1282.4465,233.92422 c -45.494,-1.12987 -109.8237,43.17365 -109.8237,43.17365 -565.26311,225.43028 -864.55512,7.82529 -864.55512,7.82529 83.12818,209.87075 897.77862,171.03083 947.66592,163.25108 49.886,-7.77975 91.3084,-116.76491 66.3781,-186.72689 -7.0145,-19.67663 -21.8635,-27.08079 -39.6652,-27.52313 z M -31.92674,242.0195 c 0,0 -86.70717,22.15905 -37.77681,37.5074 l 37.77681,-37.5074 z m 223.42486,15.11049 C 118.12831,290.47718 15.02425,303.27212 15.02425,303.27212 L 40.1196,344.2874 c 59.24775,-15.81922 118.69571,-25.61414 159.20318,-31.30105 -3.42899,-18.35808 -5.83556,-37.04442 -7.82466,-55.85636 z m 1461.43378,50.19008 c -15.5886,0.0728 -31.5943,1.45934 -48.3011,4.31736 l 7.0163,63.14157 c 0,0 236.7879,107.93478 286.0265,107.93478 l 2.4296,-58.55478 c 0,0 -96.4846,-117.50399 -247.1713,-116.83893 z M 178.00539,339.97003 C 11.80278,339.30498 -94.528864,456.80898 -94.528864,456.80898 l 2.697823,58.55479 c 54.318121,0 315.439591,-107.66478 315.439591,-107.66478 l 7.82541,-63.41159 c -18.42666,-2.85801 -36.23446,-4.2488 -53.42857,-4.31737 z m 158.66422,66.64947 c 92.94938,119.58046 679.17239,302.46874 693.48009,309.50274 14.3076,7.03402 107.1247,-35.21977 107.1247,-84.45898 0,-49.23922 -49.9195,-84.45899 -49.9195,-84.45899 C 965.8182,610.5115 336.66961,406.6195 336.66961,406.6195 z m 1256.35849,73.39586 c -9.955,21.59047 -21.2081,42.47099 -33.19,62.87154 132.4786,25.7155 288.8036,73.10155 253.3763,150.83903 l 2.4292,4.04736 60.9826,-109.55373 c 0,0 -209.1323,-28.96186 -283.5981,-108.2042 z M 259.49707,494.31637 c -0.5946,0.88168 -0.99334,1.82707 -1.62018,2.69843 0.82899,-0.3216 1.60018,-0.76639 2.42898,-1.07949 -0.267,-0.54006 -0.53993,-1.07645 -0.81175,-1.61894 z m 1675.68313,9.4442 46.9524,51.53898 c 60.9723,-21.1026 -46.9524,-51.53898 -46.9524,-51.53898 z m -2068.56536,32.92 c 0,0 -118.78555,30.43639 -51.5396,51.53899 l 51.5396,-51.53899 z M 1469.9817,553.4106 c -19.7852,0.079 -40.3158,1.52488 -61.5221,4.58739 l 8.9049,67.99838 c 0,0 300.4233,115.49004 362.9313,115.49004 l 2.9672,-62.87157 c 0,0 -122.012,-125.91906 -313.2813,-125.20424 z m -1046.15529,0.26699 c 40.99292,107.84013 -60.98253,397.19902 -60.98253,397.19902 0,0 53.00628,-75.3892 92.2836,-206.69421 C 494.40554,612.8768 423.82641,553.67759 423.82641,553.67759 z M 150.21279,567.43916 C 52.2859,605.8968 -68.62404,620.8671 -68.62404,620.8671 L 16.91322,790.32458 C 26.61289,755.39177 40.60079,719.94263 59.81808,685.08817 85.25626,638.94119 116.44993,599.2481 150.21279,567.43916 z M 1155.8928,733.92813 c -15.5882,0.0728 -31.5942,1.45994 -48.3005,4.31736 l 7.0164,63.41161 c 0,0 236.7871,107.66531 286.0256,107.66531 l 2.1596,-58.55473 c 0,0 -96.2125,-117.50401 -246.9011,-116.83955 z m -1048.58366,8.3653 c -2.23727,-0.11529 -4.4175,-0.0605 -6.74579,0 -8.59892,0.1577 -17.69423,1.53459 -27.25433,4.58739 -38.5341,86.80604 -25.63418,168.64739 -25.63418,168.64739 0,0 17.02674,-72.54763 49.38,-109.28368 32.35456,-36.73439 62.60151,-46.68163 62.60151,-46.68163 4.03713,3.06981 -18.79076,-15.50671 -52.34721,-17.26947 z m 1720.74636,21.85686 59.3637,55.0463 c 77.3905,-22.62146 -59.3637,-55.0463 -59.3637,-55.0463 z M 721.7267,866.68823 c -3.19127,-0.0855 -6.48557,-0.12752 -9.98368,0 -112.01436,4.14811 -141.12492,58.28478 -141.12492,58.28478 0,0 91.33898,-20.9121 141.12492,-4.3179 49.78278,16.5952 66.37821,45.6025 66.37821,45.6025 -4.01767,8.0384 42.52487,-96.77935 -56.39453,-99.56938 z m 400.7061,20.77738 c -58.9681,231.77609 -547.49724,522.94269 -547.49724,522.94269 0,0 168.24621,-34.5414 378.84984,-177.5521 210.6033,-143.0107 168.6474,-345.39059 168.6474,-345.39059 z m 315.7095,43.1737 46.9511,51.539 c 60.9728,-21.1026 -46.9511,-51.539 -46.9511,-51.539 z"
       id="outline"
       inkscape:connector-curvature="0" />
  </g>
</svg>
