<?xml version="1.0" encoding="UTF-8" standalone="no"?>
<!-- Created with Inkscape (http://www.inkscape.org/) -->

<svg
   xmlns:dc="http://purl.org/dc/elements/1.1/"
   xmlns:cc="http://creativecommons.org/ns#"
   xmlns:rdf="http://www.w3.org/1999/02/22-rdf-syntax-ns#"
   xmlns:svg="http://www.w3.org/2000/svg"
   xmlns="http://www.w3.org/2000/svg"
   xmlns:xlink="http://www.w3.org/1999/xlink"
   xmlns:sodipodi="http://sodipodi.sourceforge.net/DTD/sodipodi-0.dtd"
   xmlns:inkscape="http://www.inkscape.org/namespaces/inkscape"
   width="400"
   height="247.125"
   id="svg2"
   sodipodi:version="0.32"
   inkscape:version="1.2.2 (b0a8486541, 2022-12-01)"
   version="1.0"
   sodipodi:docname="logo.svg"
   inkscape:output_extension="org.inkscape.output.svg.inkscape"
   inkscape:export-filename="/home/bernie/svn/noc.aptosid.com/aptosid-art-xfce-erebos/trunk/erebos/balou/logo.png"
   inkscape:export-xdpi="90"
   inkscape:export-ydpi="90">
  <defs
     id="defs4">
    <linearGradient
       id="linearGradient8908">
      <stop
         id="stop8910"
         offset="0"
         style="stop-color:#95acae;stop-opacity:1;" />
      <stop
         style="stop-color:#000000;stop-opacity:0.70408165;"
         offset="1"
         id="stop8964" />
      <stop
         id="stop8912"
         offset="1"
         style="stop-color:#adbad2;stop-opacity:0" />
    </linearGradient>
    <filter
       inkscape:collect="always"
       id="filter3529">
      <feGaussianBlur
         inkscape:collect="always"
         stdDeviation="2.7101151"
         id="feGaussianBlur3531" />
    </filter>
    <filter
       inkscape:collect="always"
       id="filter3517">
      <feGaussianBlur
         inkscape:collect="always"
         stdDeviation="1.6210035"
         id="feGaussianBlur3519" />
    </filter>
    <filter
       inkscape:collect="always"
       id="filter9010">
      <feGaussianBlur
         inkscape:collect="always"
         stdDeviation="2.3407223"
         id="feGaussianBlur9012" />
    </filter>
    <filter
       inkscape:collect="always"
       id="filter6192">
      <feGaussianBlur
         inkscape:collect="always"
         stdDeviation="0.86145189"
         id="feGaussianBlur6194" />
    </filter>
    <filter
       inkscape:collect="always"
       id="filter6664">
      <feGaussianBlur
         inkscape:collect="always"
         stdDeviation="0.21047761"
         id="feGaussianBlur6666" />
    </filter>
    <filter
       inkscape:collect="always"
       id="filter6712">
      <feGaussianBlur
         inkscape:collect="always"
         stdDeviation="0.93998754"
         id="feGaussianBlur6714" />
    </filter>
    <filter
       inkscape:collect="always"
       x="-0.26643163"
       width="1.5328633"
       y="-0.26690212"
       height="1.5338043"
       id="filter8125">
      <feGaussianBlur
         inkscape:collect="always"
         stdDeviation="3.9779066"
         id="feGaussianBlur8127" />
    </filter>
    <linearGradient
       inkscape:collect="always"
       xlink:href="#linearGradient8908"
       id="linearGradient47238"
       gradientUnits="userSpaceOnUse"
       x1="165.80635"
       y1="176.5179"
       x2="177.21674"
       y2="358.34848" />
    <filter
       inkscape:collect="always"
       id="filter17984">
      <feGaussianBlur
         inkscape:collect="always"
         stdDeviation="6.0699409"
         id="feGaussianBlur17986" />
    </filter>
    <clipPath
       clipPathUnits="userSpaceOnUse"
       id="clipPath18022">
      <path
         style="opacity:1;fill:#ff0000;fill-opacity:1;stroke:none"
         d="M 18.329614,127.77147 18.453278,25.49089 19.79424,23.304449 c 0.737528,-1.202542 2.227558,-2.748777 3.311176,-3.436078 l 1.970215,-1.249636 173.793,-0.12998 c 95.58616,-0.071489 174.4571,-0.0169 175.26878,0.12131 1.93558,0.329588 5.21671,3.056273 6.54745,5.441084 l 1.059039,1.89789 0.1247,102.0515 0.1247,102.0515 -181.89367,0 -181.89368,0 z"
         id="path18024" />
    </clipPath>
    <linearGradient
       y2="834.96869"
       x2="558.9649"
       y1="948.19049"
       x1="558.9649"
       gradientTransform="matrix(1,0,0,1.0062686,29.925594,-8.6629161)"
       gradientUnits="userSpaceOnUse"
       id="linearGradient92373"
       xlink:href="#linearGradient92350"
       inkscape:collect="always" />
    <linearGradient
       y2="172.69933"
       x2="558.9649"
       y1="948.19049"
       x1="558.9649"
       gradientUnits="userSpaceOnUse"
       id="linearGradient92368"
       xlink:href="#linearGradient2781"
       inkscape:collect="always" />
    <radialGradient
       r="875.19171"
       fy="879.90021"
       fx="1291.6517"
       cy="879.90021"
       cx="1291.6517"
       gradientTransform="matrix(1.5308499,-0.6814828,0.5125447,1.3948772,-1054.3563,590.70688)"
       gradientUnits="userSpaceOnUse"
       id="radialGradient92360"
       xlink:href="#linearGradient3937"
       inkscape:collect="always" />
    <mask
       id="mask92320"
       maskUnits="userSpaceOnUse">
      <rect
         style="opacity:1;fill:url(#radialGradient92324);fill-opacity:1;stroke:none;display:inline"
         id="rect92322"
         width="1790.9087"
         height="1479.2645"
         x="-84.441757"
         y="-173.95683" />
    </mask>
    <radialGradient
       r="875.19171"
       fy="804.68542"
       fx="1037.9656"
       cy="804.68542"
       cx="1037.9656"
       gradientTransform="matrix(1.5037432,-0.1834138,8.2413732e-2,1.3934219,-526.55852,22.009942)"
       gradientUnits="userSpaceOnUse"
       id="radialGradient92324"
       xlink:href="#linearGradient92301"
       inkscape:collect="always" />
    <linearGradient
       id="linearGradient3937">
      <stop
         id="stop3939"
         offset="0"
         style="stop-color:#000000;stop-opacity:0;" />
      <stop
         style="stop-color:#051405;stop-opacity:0.31506848;"
         offset="0.69098639"
         id="stop3945" />
      <stop
         id="stop3941"
         offset="1"
         style="stop-color:#0b280b;stop-opacity:0.87671232;" />
    </linearGradient>
    <linearGradient
       id="linearGradient2781">
      <stop
         id="stop2783"
         offset="0"
         style="stop-color:#ffffff;stop-opacity:1;" />
      <stop
         style="stop-color:#e5e5e5;stop-opacity:1;"
         offset="0.09455471"
         id="stop2789" />
      <stop
         id="stop2785"
         offset="1"
         style="stop-color:#999999;stop-opacity:1;" />
    </linearGradient>
    <linearGradient
       id="linearGradient92301">
      <stop
         style="stop-color:#ffffff;stop-opacity:1;"
         offset="0"
         id="stop92303" />
      <stop
         id="stop92305"
         offset="0.18814027"
         style="stop-color:#ffffff;stop-opacity:1;" />
      <stop
         style="stop-color:#000000;stop-opacity:1;"
         offset="1"
         id="stop92307" />
    </linearGradient>
    <linearGradient
       id="linearGradient92350">
      <stop
         id="stop92352"
         offset="0"
         style="stop-color:#ffffff;stop-opacity:1;" />
      <stop
         style="stop-color:#e5e5e5;stop-opacity:0.54109591;"
         offset="0.74921137"
         id="stop92354" />
      <stop
         id="stop92356"
         offset="1"
         style="stop-color:#999999;stop-opacity:0.29452056;" />
    </linearGradient>
    <clipPath
       clipPathUnits="userSpaceOnUse"
       id="clipPath12110">
      <path
         sodipodi:nodetypes="ccccccccccccccccc"
         id="path12112"
         d="M 108.45033,-32.396902 C 82.893886,-32.396902 62.822694,-10.395039 62.822694,15.688729 L 62.822694,23.062915 L 62.822694,164.24725 L 62.822694,378.40508 L 62.822694,519.5894 L 62.822694,526.96358 C 62.822694,553.04735 82.893886,575.04922 108.45033,575.04922 L 1000.3389,575.04922 C 1025.8953,575.04922 1046.0434,553.04735 1046.0434,526.96358 L 1046.0434,519.5894 L 1046.0434,378.40508 L 1046.0434,164.24725 L 1046.0434,23.062915 L 1046.0434,15.688729 C 1046.0434,-10.395039 1025.8953,-32.396902 1000.3389,-32.396902 L 108.45033,-32.396902 z"
         style="fill:#000000;fill-opacity:1;stroke:none;display:inline" />
    </clipPath>
  </defs>
  <sodipodi:namedview
     id="base"
     pagecolor="#ffffff"
     bordercolor="#666666"
     borderopacity="1.0"
     gridtolerance="10000"
     guidetolerance="10"
     objecttolerance="10"
     inkscape:pageopacity="0.0"
     inkscape:pageshadow="2"
     inkscape:zoom="1.0325"
     inkscape:cx="200"
     inkscape:cy="123.5625"
     inkscape:document-units="px"
     inkscape:current-layer="layer1"
     showgrid="false"
     showguides="true"
     inkscape:guide-bbox="true"
     inkscape:window-width="1274"
     inkscape:window-height="768"
     inkscape:window-x="0"
     inkscape:window-y="0">
    <inkscape:grid
       type="xygrid"
       id="grid2578"
       empspacing="5"
       visible="true"
       enabled="true" />
  </sodipodi:namedview>
  <metadata
     id="metadata7">
    <rdf:RDF>
      <cc:Work
         rdf:about="">
        <dc:format>image/svg+xml</dc:format>
        <dc:type
           rdf:resource="http://purl.org/dc/dcmitype/StillImage" />
      </cc:Work>
    </rdf:RDF>
  </metadata>
  <g
     inkscape:label="bg"
     inkscape:groupmode="layer"
     id="layer1"
     style="display:inline;opacity:1"
     transform="translate(0.183972,9.700391e-4)">
    <g
       id="g4085"
       inkscape:label="dark"
       style="opacity:0.49727842999999999;fill:#90989a;fill-opacity:1;display:none"
       transform="matrix(0.8491135,0,0,0.8491135,-1725.4897,-1240.0355)">
      <path
         style="font-size:156px;font-style:normal;font-weight:bold;opacity:0.98518521000000003;fill:#90989a;fill-opacity:1;stroke:none;filter:url(#filter3529);font-family:aptosid"
         d="M 365.00825,280.50902 363.9375,397.375 c -8e-05,2.17446 -0.60457,3.28125 -1.8125,3.28125 l -53.4375,0 c -6.52225,0 -12.27223,-1.34044 -17.25,-3.96875 6.46356,6.63315 14.88859,9.96875 25.25,9.96875 l 53.4375,0 c 1.20793,0 1.81242,-1.10679 1.8125,-3.28125 l 0,-127.1875 c -9e-05,-1.69112 -0.60456,-2.53113 -1.8125,-2.53125 z m 132.8355,29.20973 7.96875,13.1875 c 1.80209,2.90348 3.53082,3.37788 5.25,1.46875 L 503.28125,311.5 c -0.72488,-1.20792 -1.80039,-1.78116 -3.25,-1.78125 z m 49.14335,7.92659 -19.44295,29.50632 c -1.93291,2.89933 -3.98127,5.15948 -2.16915,7.81709 l 27.71875,43.3125 c 0.96634,1.44963 0.89967,2.18752 -0.1875,2.1875 l -16.93206,0.14914 -1.50544,4.41336 c 0.60394,0.96645 1.5461,1.4375 2.875,1.4375 l 23.5625,0 c 1.08717,2e-05 1.15384,-0.73787 0.1875,-2.1875 L 533.375,360.96875 c -1.81212,-2.65761 -1.74541,-5.41317 0.1875,-8.3125 L 559.65625,311.5 c 0.72471,-1.20792 0.52463,-1.78116 -0.5625,-1.78125 z m -321.95221,-2.84491 -1.28489,9.91832 c -7e-05,1.20811 -0.60455,1.81257 -1.8125,1.8125 l -46,0 c -4.69047,2.3863 -4.87521,6.31133 -4.72604,10.75263 0.16126,4.80117 -4.02143,4.38826 1.35122,4.41635 -0.04293,-0.39127 2.47287,2.01308 2.47287,1.58365 -3e-05,-4.59044 3.46578,-10.75256 8.90195,-10.75263 l 46,0 c 1.20795,7e-05 1.81243,-0.60439 1.8125,-1.8125 l 0,-18.84375 c -6e-05,-1.32875 -0.60454,-1.9999 -1.8125,-2 z m 37.67006,1.07075 -0.64245,81.50382 c -4e-05,2.17446 -0.60448,3.28125 -1.8125,3.28125 l -7.27587,0.64245 -1.92734,2.71875 c -3.21224,1.74616 -3.03608,2.6388 -1.82804,2.6388 l 19.03125,0 c 1.20802,0 1.81246,-1.10679 1.8125,-3.28125 l 0,-90.59375 c -5e-05,-1.93274 -0.60448,-2.90615 -1.8125,-2.90625 z m 134.0046,1.04045 -0.4283,53.83837 c 1.34413,3.15345 1.13363,5.04677 3.53442,7.47119 0.76697,0.34088 1.82798,1.45639 2.69515,1.71711 1.44034,1.54211 3.25667,1.93696 3.25667,1.76582 l -1.48624,-66.39162 c -1e-05,-2.65759 -0.6045,-3.96865 -1.8125,-3.96875 z m 57.96875,0 -0.4283,61.61962 c -8e-05,3.86573 -1.14231,7.19028 -3.4375,9.96875 -4.59058,5.43616 -11.94636,9.06296 -22.09375,10.875 -4.71139,0.84562 -9.4804,1.28125 -14.3125,1.28125 -5.07376,0 -9.97621,-0.43563 -14.6875,-1.28125 -5.19176,-0.93826 -9.64074,-2.37132 -13.375,-4.28125 4.61474,5.09825 11.728,8.53783 21.375,10.28125 4.71129,0.84562 9.61374,1.28125 14.6875,1.28125 4.8321,0 9.60111,-0.43563 14.3125,-1.28125 10.14739,-1.81204 17.50317,-5.43884 22.09375,-10.875 2.29519,-2.77847 3.43742,-6.10302 3.4375,-9.96875 l 0,-69.21875 c -7e-05,-2.65759 -0.60456,-3.96865 -1.8125,-3.96875 z m -135.3033,9.61962 c -9.78511,7e-05 -15.89647,1.20901 -18.3125,3.625 -2.4161,2.41615 -4.29619,5.57186 -5.625,9.4375 -1.32888,3.50335 -1.96877,7.97016 -1.96875,13.40625 -3e-05,6.76503 1.51114,12.37406 4.53125,16.84375 1.81664,2.72501 4.51651,4.76597 8.09375,6.125 -0.02917,-0.04276 -0.06502,-0.0819 -0.09375,-0.125 -3.02011,-4.46969 -4.53128,-10.07872 -4.53125,-16.84375 -2e-05,-5.43609 0.63987,-9.9029 1.96875,-13.40625 1.32881,-3.86564 3.48283,-6.19955 5.89893,-8.6157 2.41603,-2.41599 8.25346,-4.44673 18.03857,-4.4468 l 21.76942,1.3652 0.8218,-2.81296 c -0.09138,-2.42449 -2.33944,-3.36959 -5.73888,-4.19146 z m -97.3125,22.25 c 1.75082,2.3004 3.1231,5.25335 4.0625,8.90625 1.08714,4.22815 1.62491,9.63292 1.625,16.15625 -9e-05,5.67777 -1.3424,11.05126 -4,16.125 -1.4497,2.89929 -3.49865,5.41929 -6.15625,7.59375 -2.65774,2.05365 -6.08444,3.09375 -10.3125,3.09375 l -46.82188,0.64245 -3.21224,2.26016 c -3.42638,1.85047 -3.89266,3.09739 -2.68463,3.09739 l 60.71875,0 c 4.22806,0 7.65476,-1.0401 10.3125,-3.09375 2.6576,-2.17446 4.70655,-4.69446 6.15625,-7.59375 2.6576,-5.07374 3.99991,-10.44723 4,-16.125 -9e-05,-6.52333 -0.53786,-11.9281 -1.625,-16.15625 -1.08732,-4.22807 -2.73187,-7.52138 -4.90625,-9.9375 -1.88834,-2.20295 -4.26595,-3.8589 -7.15625,-4.96875 z m -62.46875,11.53125 c 1.77489,2.33953 4.08467,4.19318 6.9375,5.5625 3.14088,1.44967 6.93651,2.18754 11.40625,2.1875 l 27.28125,0 c -0.41087,-4.01142 -2.9397,-5.99995 -7.5625,-6 l -27.71875,0 c -3.98239,4e-05 -7.41624,-0.59922 -10.34375,-1.75 z m 349.13211,17.84638 c -2.01041,3.28107 -3.72951,6.43853 -4.69592,7.94855 l -8.80145,14.41522 c -3.28855,-0.07754 -5.37263,-0.05388 -6.82224,-0.0539 l -5.13582,0.4283 -2.41861,0.96391 c -2.81279,1.98207 -4.26873,2.22156 -8.19557,4.60779 l 23.75,0 c 1.44961,2e-05 2.48971,-0.47106 3.09375,-1.4375 l 14.46875,-22.46875 c 0.307,-0.47969 0.6305,-0.89144 0.9375,-1.21875 l 2.09489,-1.79846 c -3.20356,-1.65917 -5.66831,-1.83383 -8.27528,-1.38641 z"
         id="path4087"
         sodipodi:nodetypes="ccccccccccccccccccccccccccccccccccccscscccccccccccccccccccccccccccccscccscccccccscsccsscsccccccsscccccccccsscccccccccccccccccccccc"
         inkscape:export-filename="/home/bgray/software/aptosid-art/svg-core/aptosid-logo.png"
         inkscape:export-xdpi="90"
         inkscape:export-ydpi="90" />
    </g>
    <g
       id="g4089"
       inkscape:label="light"
       style="opacity:0.49824877000000001;fill:#90989a;fill-opacity:1;display:none"
       transform="matrix(0.8491135,0,0,0.8491135,-1725.4897,-1240.0355)">
      <path
         style="font-size:156px;font-style:normal;font-weight:bold;opacity:0.59872610000000004;fill:#90989a;fill-opacity:1;stroke:none;filter:url(#filter3517);font-family:aptosid"
         d="m 351.28125,273.65625 c -1.3289,0.00013 -1.96882,0.84012 -1.96875,2.53125 l 0,31.875 c -7e-05,1.20814 -0.60453,1.8126 -1.8125,1.8125 l -31.90625,0.1875 c -12.68437,0.0001 -22.72476,6.28029 -30.09375,18.84375 -3.74492,6.28184 -5.96267,16.32225 -6.6875,30.09375 -0.48321,11.35554 1.80126,21.3647 6.875,30.0625 2.12699,3.61961 4.591,6.68597 7.375,9.1875 -0.44379,-0.6687 -0.86288,-1.35054 -1.28125,-2.0625 -5.07373,-8.69782 -7.38946,-18.73821 -6.90625,-30.09375 0.72481,-13.77151 2.07899,-25.27206 5.82391,-31.5539 6.45884,-9.83303 12.65986,-12.06353 30.98859,-17.35235 L 353.5625,317 c 1.20798,0.00012 2.72256,-6.9753 2.72263,-8.18344 l 0,-20.52957 c -8e-05,-1.69111 -0.23903,-7.53686 1.08987,-7.53699 l 6.85313,-0.4283 2.99809,-2.63516 c 1.2848,-1.90527 4.10672,-4.03017 2.89878,-4.03029 z m 125.19952,37.28445 c -0.75315,0.13219 -0.79046,0.72431 -0.15625,1.78125 l 25.67027,38.95674 c 3.76575,5.22104 1.72388,7.85439 -0.08814,10.51201 l -25.33782,39.22666 c -0.72483,1.08723 -4.75821,5.05139 -3.91258,5.05139 l 8.48917,-5.38274 23.5557,-32.25909 c 0.95542,-3.51422 1.56658,-7.70721 -0.02204,-11.16487 L 480.1875,318.625 c -0.72481,-1.20793 -0.52474,-1.81242 0.5625,-1.8125 l 25.375,0 c 0.13608,1e-05 -8.9631,-0.19355 -8.83341,-0.1829 l 1.70668,-2.77396 c 0.74146,-0.23036 1.13844,-1.08192 1.64396,-2.67055 l -23.78646,-0.24439 c -0.13591,1e-05 -0.26741,-0.01888 -0.375,0 z m 57.84054,0.48878 c -1.28167,0.13219 -1.99645,0.96871 -2.875,1.78125 l -10.06811,16.3065 c -0.98437,1.6792 -3.20986,1.94454 -4.22195,2.01402 l 2.71875,4.5 c 2.7854,0.2041 5.51197,-3.95053 6.95473,-5.1322 l 7.89984,-13.98478 c 0.72476,-1.20793 3.69993,-0.10169 5.27043,-0.10177 l 6.64454,-1.28489 5.08819,-2.74272 c 3.08035,-1.63621 1.48302,-0.74434 4.55053,-1.5998 l -21.39945,0.24439 c -0.19631,1e-05 -0.3794,-0.01888 -0.5625,0 z m -344.11678,-0.36136 c -6.40261,0.0001 -12.29022,0.73401 -16.75992,1.57953 -9.06026,1.44973 -13.41344,4.88831 -16.0711,12.13641 -1.44964,3.86577 -1.88923,8.30504 -1.88922,14.46594 -1e-05,8.93949 1.36599,14.92933 4.99008,19.76141 1.1752,1.64532 1.40481,3.95687 3.08813,5.14484 -2.42737,-4.56503 -3.62501,-10.49636 -3.625,-17.8125 -1e-05,-6.1609 0.70661,-11.16546 2.15625,-15.03125 3.87372,-5.85996 6.71324,-9.79249 17.59375,-13.0625 4.4697,-0.84552 9.90989,-1.24988 16.3125,-1.25 l 27.61233,-0.64245 2.99809,-2.76936 c 1.71313,-1.32875 3.93848,-2.25993 2.73052,-2.26003 z m 59.01422,-1.19312 c -1.20805,0.0001 -1.8125,0.9735 -1.8125,2.90625 l 0,90.59375 c 0,2.17446 0.60446,3.28125 1.8125,3.28125 l 3.2105,-4.49713 1.07075,-82.25287 c 0,-1.93275 0.60447,-2.90613 1.8125,-2.90625 l 7.25478,-0.64245 3.21224,-2.93385 c 1.92729,-1.93274 3.6785,-3.5486 2.47048,-3.5487 z m 135.23878,2.93509 c -1.20802,0.00011 -0.59056,-0.15517 -0.59055,2.50241 l 0.2444,69.82973 c -2e-05,3.86573 0.77491,5.32365 3.19098,8.10211 1.11164,1.31642 0.82479,1.17695 2.25521,2.28085 -0.90759,-1.96088 -0.39745,-1.04455 -0.39744,-3.41387 L 388.25,322.4375 c -1e-05,-2.65758 0.36008,-6.32161 1.44591,-4.97756 l 8.16087,-0.64245 2.35564,-1.71914 c 1.07073,-1.15855 2.97555,-2.28816 1.76755,-2.28826 z m 58.36659,0.1222 c -1.20812,0.00011 -1.20159,-0.15517 -1.20153,2.50241 l 0.24439,61.55969 c -0.73322,3.02987 -2.91321,4.42117 -6.29286,6.84695 -3.38256,1.44963 -8.09139,2.40066 -12.92348,2.40064 -4.83592,2e-05 -9.94128,-1.26279 -13.13101,-2.57972 l -2.32171,-0.15385 c -2e-05,2.05369 5.0259,4.26911 8.77083,5.96034 3.26166,1.44965 7.42623,0.96558 12.5,0.96555 4.83209,2e-05 8.10583,-1.22663 11.48838,-2.67628 3.62404,-2.85531 4.76474,-3.63832 6.04848,-5.87084 L 446.25,322.4375 c -6e-05,-2.65758 0.60439,-3.9999 1.8125,-4 l 7.12058,-0.8566 2.35564,-2.2684 c 1.92727,-2.01514 4.10672,-3.96865 2.89878,-3.96875 z m -93.329,20.88005 -0.18262,48.37516 c -7e-05,1.20806 -0.60453,1.81253 -1.8125,1.8125 l -20.125,0 c -7.25124,2e-05 -14.86535,0.23424 -18.85665,-5.26749 0.47043,0.94828 6.42908,5.85054 7.01203,6.7133 7.09196,4.94077 7.2764,5.64797 17.90712,5.64794 l 20.125,0 c 1.20798,4e-05 1.81243,-0.57319 1.8125,-1.78125 l -0.09131,-56.45337 c -8e-05,-1.32874 -0.60453,-1.96868 -1.8125,-1.96875 z M 176.773,345.93469 c 4.47416,6.62187 8.08911,6.20607 13.52528,6.20602 l 24.17047,1.64054 c 4.83207,5e-05 7.58768,-1.25183 12.3125,1.625 1.95874,0.60793 3.70664,1.47017 5.25,2.53125 -0.80406,-1.6175 -2.4935,-2.70615 -3.5582,-3.88922 -2.17453,-2.53682 -4.6985,-3.60451 -8.20172,-4.6918 -3.38256,-1.08718 -7.2134,-2.10362 -12.04547,-2.10367 l -24.58664,0 c -0.74261,1e-05 -6.22506,-1.22795 -6.86622,-1.31812 z m 36.01284,22.87495 c 9e-05,0.02071 1.68853,7.22776 1.68853,7.24856 -6e-05,5.79859 -4.19185,8.09097 -8.96726,9.28406 l -50.19891,-0.14914 c -1.20803,3e-05 -2.5582,-0.58864 -2.5582,0.61938 l 0,19.03125 c 0,1.20803 1.88936,-0.11484 3.09739,-2.04218 l 2.78221,-2.35565 0.21415,-7.53967 c 0,-1.20802 0.60447,-1.81246 1.8125,-1.8125 l 47.62587,-0.99082 c 8.04616,-3.46786 8.61575,-3.87975 9.11123,-10.17374 0.33861,-4.30123 -0.56249,-6.19869 -4.60751,-11.11955 z m 310.18291,18.59661 11.5,17.625 c 0.5153,0.82461 1.30067,1.25398 2.34375,1.375 l -10.9375,-16.75 c -0.96645,-1.51003 -1.93982,-2.25 -2.90625,-2.25 z"
         id="path4091"
         sodipodi:nodetypes="ccccccccccccccccccccccccccccccccccccccccccccccccccccccsccsccccccccccccccccccccccccccccccccccscccscccccccccccccccccccccccccccccccscccccccccscccccc"
         inkscape:export-filename="/home/bgray/software/aptosid-art/svg-core/aptosid-logo.png"
         inkscape:export-xdpi="90"
         inkscape:export-ydpi="90" />
    </g>
    <g
       id="g4093"
       inkscape:label="ring"
       style="opacity:0.65495210999999998;fill:#90989a;fill-opacity:1;display:none"
       transform="matrix(0.8491135,0,0,0.8491135,-1725.4897,-1240.0355)">
      <path
         sodipodi:type="arc"
         style="opacity:0.94267517999999995;fill:#90989a;fill-opacity:1;stroke:url(#linearGradient47238);stroke-width:3.90000010000000019;stroke-miterlimit:4;stroke-opacity:1;stroke-dasharray:none;display:inline;filter:url(#filter9010)"
         id="path4095"
         sodipodi:cx="170.71577"
         sodipodi:cy="235.65385"
         sodipodi:rx="96.974648"
         sodipodi:ry="40.911179"
         d="m 178.79371,194.88486 c 53.34397,1.88115 93.0187,21.67239 88.55968,44.17687 -4.45902,22.50449 -51.37159,39.24227 -104.71555,37.36112 -53.34397,-1.88115 -93.018705,-21.67239 -88.559683,-44.17688 3.765895,-19.0063 36.487603,-33.9225 81.113673,-36.97569"
         transform="matrix(0.8064353,-0.5212764,0.616548,0.1038381,-90.024046,382.00476)"
         sodipodi:start="4.7957851"
         sodipodi:end="10.8348"
         sodipodi:open="true"
         inkscape:export-filename="/home/bgray/software/aptosid-art/svg-core/aptosid-logo.png"
         inkscape:export-xdpi="90"
         inkscape:export-ydpi="90" />
    </g>
    <g
       id="g4097"
       inkscape:label="planet"
       style="opacity:0.65495210999999998;fill:#90989a;fill-opacity:1;display:none"
       transform="matrix(0.8491135,0,0,0.8491135,-1725.4897,-1240.0355)">
      <path
         style="opacity:1;fill:#90989a;fill-opacity:1;stroke:none;display:inline;filter:url(#filter6192)"
         d="m 60.755894,368.54772 c 9.307411,0.778 16.229825,8.96327 15.451819,18.27068 -0.778006,9.30741 -8.963272,16.22982 -18.270683,15.45182 -9.30741,-0.77801 -16.229825,-8.96328 -15.451818,-18.27069 0.65707,-7.86063 6.366325,-14.02967 14.152645,-15.29241"
         id="path4099"
         transform="matrix(0.8823588,0,0,0.8823588,205.95193,-50.149152)"
         inkscape:export-filename="/home/bgray/software/aptosid-art/svg-core/aptosid-logo.png"
         inkscape:export-xdpi="90"
         inkscape:export-ydpi="90" />
      <g
         style="opacity:1;fill:#90989a;fill-opacity:1;display:inline"
         id="g4101"
         transform="translate(-113.59653,57.366238)">
        <path
           style="fill:#90989a;fill-opacity:1;filter:url(#filter6664)"
           d="m 366.67158,245.41067 c -5.43364,-1.82164 -8.59288,-6.02873 -9.04429,-12.04406 -0.75558,-10.06864 5.4511,-16.25397 15.54896,-15.49545 4.50511,0.3384 5.87235,0.95055 8.91179,3.98999 3.04232,3.04231 3.65037,4.40243 3.98413,8.91179 0.43252,5.84368 -1.60505,10.39286 -5.91972,13.21666 -3.11235,2.03693 -9.603,2.72113 -13.48087,1.42107 z"
           id="path4103" />
        <path
           style="fill:#90989a;fill-opacity:1"
           d="m 364.38473,244.31517 c -3.85347,-1.94988 -7.03055,-7.42955 -7.02628,-12.11857 0.01327,-14.5676 19.38752,-19.84945 27.00166,-7.36126 3.5422,5.80966 1.93486,14.30117 -3.51908,18.59124 -3.1894,2.50878 -12.28389,2.99986 -16.4563,0.88859 z"
           id="path4105" />
        <path
           style="fill:#90989a;fill-opacity:1;filter:url(#filter6712)"
           d="m 364.6244,244.11189 c -6.27223,-2.72671 -8.89209,-10.69869 -5.88283,-17.90087 1.60682,-3.84567 6.74095,-7.88846 8.94422,-7.04299 0.83195,0.31925 2.46984,0.06818 3.63975,-0.55794 5.38599,-2.88249 15.02917,5.256 15.02917,12.68409 0,4.19521 -2.38879,9.08496 -5.86937,12.01434 -3.12511,2.63021 -10.76817,3.01734 -15.86094,0.80337 z"
           id="path4107" />
        <path
           style="fill:#90989a;fill-opacity:1"
           d="m 364.68019,244.13535 c -5.81124,-2.52776 -8.63707,-10.03669 -6.36637,-16.91699 1.29574,-3.92611 5.64318,-7.99047 7.70195,-7.20045 0.71331,0.27373 2.69439,-0.0899 4.40238,-0.80806 4.31814,-1.81564 7.52862,-0.93628 11.49598,3.14878 5.8981,6.07308 5.83009,12.58519 -0.20116,19.26106 -3.3128,3.66687 -3.98867,3.97176 -8.72462,3.93565 -2.8235,-0.02153 -6.56218,-0.66053 -8.30816,-1.41999 z m 18.06823,-11.60154 c 0.76195,-4.76496 0.44321,-5.45518 -3.44849,-7.46766 -4.98009,-2.5753 -10.87867,0.45202 -7.48776,3.84293 0.75486,0.75486 1.29824,2.1706 1.20751,3.1461 -0.11754,1.2637 0.66806,1.86859 2.73254,2.10396 1.59363,0.1817 3.37113,0.80398 3.95,1.38285 1.7848,1.7848 2.37259,1.20433 3.0462,-3.00818 z"
           id="path4109" />
        <path
           style="fill:#90989a;fill-opacity:1"
           d="m 364.54707,243.91889 c -3.52633,-1.73782 -7.20756,-7.65959 -7.1704,-11.53457 0.05533,-5.76886 6.13061,-14.04965 9.00454,-12.27346 0.54184,0.33487 2.4896,0.06485 4.32836,-0.60006 4.42999,-1.6019 8.19956,-0.5276 11.73644,3.34479 5.39561,5.90743 4.62073,14.15051 -1.86555,19.84554 -2.65118,2.32777 -4.21705,2.8889 -8.01055,2.87058 -2.59336,-0.01252 -6.20364,-0.75629 -8.02284,-1.65282 z m 12.05764,-6.03014 c -1.2375,-0.23836 -3.2625,-0.23836 -4.5,0 -1.2375,0.23835 -0.225,0.43337 2.25,0.43337 2.475,0 3.4875,-0.19502 2.25,-0.43337 z m 6.35922,-4.54427 c 0.92268,-3.90393 0.65345,-5.75335 -1.12822,-7.75 -0.73616,-0.825 -1.391,-1.95 -1.45519,-2.5 -0.06419,-0.55 -1.10875,-0.84834 -2.32126,-0.66299 -4.05663,0.62014 -7.11372,2.64044 -7.81258,5.16299 -0.54623,1.97164 -0.71368,2.08313 -0.79229,0.52749 -0.0944,-1.86794 -0.18227,-1.85459 -1.65761,0.25176 -0.85687,1.22334 -1.25062,2.72151 -0.875,3.32927 0.4861,0.78653 0.9011,0.752 1.4399,-0.11979 0.55624,-0.90003 1.31859,-0.66317 2.875,0.89324 1.19714,1.19714 3.39673,2.11803 5.05901,2.11803 1.61754,0 3.2191,0.45 3.55902,1 1.15403,1.86727 2.33874,1.00995 3.10922,-2.25 z"
           id="path4111"
           sodipodi:nodetypes="cssssssccssccsssssssssssc" />
        <path
           style="fill:#90989a;fill-opacity:1"
           d="m 367.35471,244.94241 c -6.45626,-2.12701 -10.71266,-8.7356 -9.56533,-14.85137 0.92017,-4.90493 4.96466,-9.37987 8.3896,-9.28249 1.51831,0.04317 3.72439,-0.43734 4.90241,-1.06779 2.57605,-1.37866 5.2493,-1.44705 7.24436,-0.18534 1.71898,1.08712 1.39605,1.52353 -1.87231,2.53023 -1.98032,0.60997 -2.28941,0.44812 -1.76316,-0.92325 0.58372,-1.52117 0.44981,-1.531 -1.57124,-0.1154 -1.21514,0.85111 -2.99884,1.54748 -3.96378,1.54748 -0.96495,0 -2.49157,1.125 -3.39251,2.5 -0.90093,1.375 -2.23475,2.5 -2.96403,2.5 -1.87411,0 -2.86806,1.97595 -1.62116,3.22285 0.73144,0.73144 1.5577,0.53946 2.73191,-0.63475 2.06622,-2.06622 2.96578,-1.42925 1.59604,1.13014 -1.50203,2.80656 0.08515,4.72925 1.86523,2.25952 1.4244,-1.97625 3.64641,-2.85862 2.49105,-0.98921 -0.35034,0.56686 0.05106,0.7345 0.94098,0.39301 0.85357,-0.32755 1.55194,-0.09739 1.55194,0.51145 0,0.60885 1.24987,1.10699 2.77749,1.10699 1.52763,0 3.71243,0.65485 4.85513,1.45523 1.96303,1.37496 2.1399,1.24739 3.20647,-2.31251 0.76103,-2.54006 0.81873,-4.88779 0.1771,-7.20523 -0.86536,-3.12552 -0.81968,-3.2629 0.50332,-1.51376 3.90667,5.16504 2.51341,11.47716 -3.91782,17.74954 -2.27138,2.21528 -3.78555,2.80965 -7,2.74778 -2.25593,-0.04342 -4.77669,-0.30132 -5.60169,-0.57312 z m 10.09375,-5.3981 c 2.87332,-1.53776 1.3641,-2.94983 -3.15277,-2.94983 -4.3987,0 -5.09184,1.13933 -1.69098,2.77951 2.89615,1.39676 2.57334,1.38541 4.84375,0.17032 z m -10.88729,-13.44983 c 0.20127,-1.28207 1.20771,-2.09942 2.80376,-2.27695 2.35356,-0.2618 2.38036,-0.21176 0.48978,0.91454 -1.1,0.65531 -2.36169,1.67994 -2.80376,2.27695 -0.47762,0.64502 -0.67636,0.27394 -0.48978,-0.91454 z"
           id="path4113" />
        <path
           style="fill:#90989a;fill-opacity:1"
           d="m 365.42579,243.84293 c -3.81463,-1.94513 -6.57637,-5.41138 -7.45694,-9.35919 -0.52508,-2.35403 -0.31949,-2.58189 2.09074,-2.31731 1.55734,0.17095 3.15073,-0.3598 3.81743,-1.27157 0.94922,-1.29814 1.14436,-1.03414 1.14436,1.54818 0,4.62195 4.4934,8.46868 9.23281,7.90406 1.98028,-0.23592 4.38802,-0.77491 5.35052,-1.19777 2.59912,-1.14187 2.23082,1.64482 -0.56445,4.27084 -2.87508,2.70099 -8.78657,2.88456 -13.61447,0.42276 z m 1.51152,-8.1148 c -0.29449,-0.4765 0.30047,-1.62284 1.32213,-2.54743 1.67647,-1.51718 2.00842,-1.53021 3.40499,-0.13365 0.85108,0.85109 2.59207,1.55432 3.86885,1.56274 1.27679,0.00842 2.99643,0.45153 3.82143,0.98469 1.05122,0.67935 -0.50187,0.97396 -5.19098,0.98469 -3.68004,0.00842 -6.93193,-0.37455 -7.22642,-0.85104 z m 16.9174,-4.5653 c 0,-5.7228 0.84503,-6.1836 1.92347,-1.04889 0.38514,1.83374 0.13199,3.70623 -0.64465,4.76834 -1.09573,1.49851 -1.27882,0.96601 -1.27882,-3.71945 z m -24.78007,-3.56835 c 0.58988,-3.44288 4.00398,-6.88496 6.24717,-6.29835 1.00564,0.26298 2.74713,-0.01353 3.86998,-0.61446 1.17905,-0.63101 2.27792,-0.71014 2.60105,-0.18731 0.30772,0.49792 -0.75403,1.3632 -2.35946,1.92285 -1.60542,0.55965 -3.85489,1.95349 -4.99881,3.09741 -1.14392,1.14392 -2.72186,2.07986 -3.50654,2.07986 -0.78467,0 -1.61906,0.5625 -1.8542,1.25 -0.23513,0.6875 -0.23477,0.125 0.00081,-1.25 z"
           id="path4115" />
        <path
           style="fill:#90989a;fill-opacity:1"
           d="m 368.99784,244.82608 c -0.26119,-0.42263 1.23459,-0.60538 3.32395,-0.40613 2.08937,0.19925 4.10307,-0.12996 4.4749,-0.7316 0.37183,-0.60163 1.1546,-1.09387 1.73948,-1.09387 0.67059,0 0.60355,0.55411 -0.18146,1.5 -1.28766,1.55154 -8.50152,2.11558 -9.35687,0.7316 z m -6.28281,-2.69177 c -2.28073,-1.59749 -5.0092,-7.22429 -3.99492,-8.23856 0.34903,-0.34903 0.6346,-0.05785 0.6346,0.64707 0,0.96034 0.60358,0.8862 2.40744,-0.29573 2.17099,-1.42249 2.46595,-1.42492 3.00324,-0.02477 0.7869,2.05063 -0.26815,3.64083 -1.97981,2.98401 -2.83738,-1.08881 -2.32186,1.32921 0.80954,3.79708 3.42935,2.70268 2.7007,3.63898 -0.88009,1.1309 z m 8.38968,-0.20211 c 0.6875,-0.27741 1.8125,-0.27741 2.5,0 0.6875,0.27741 0.125,0.50439 -1.25,0.50439 -1.375,0 -1.9375,-0.22698 -1.25,-0.50439 z m -3.27571,-6.19676 c -1.03303,-1.03303 -0.39398,-2.32412 0.90386,-1.82609 0.75798,0.29086 1.88298,0.02401 2.5,-0.59301 0.82914,-0.82914 1.12185,-0.70272 1.12185,0.48452 0,1.0913 0.61516,1.44551 1.91848,1.10469 1.05516,-0.27593 2.74266,-0.03323 3.75,0.53935 1.41449,0.804 0.51642,1.00959 -3.94419,0.90293 -3.17664,-0.07595 -5.98914,-0.35153 -6.25,-0.61239 z m 16.52571,-3.14096 c 0,-0.55 0.47656,-1 1.05902,-1 0.58246,0 0.7809,0.45 0.44098,1 -0.33992,0.55 -0.81648,1 -1.05902,1 -0.24254,0 -0.44098,-0.45 -0.44098,-1 z m 0.07895,-4.58333 c 0.04798,-1.16495 0.28494,-1.4019 0.60416,-0.60417 0.28888,0.72187 0.25335,1.58437 -0.07894,1.91667 -0.33229,0.33229 -0.56864,-0.25834 -0.52522,-1.3125 z m -24.07895,-2.79423 c 0,-2.1316 2.64339,-3.82408 5.19496,-3.32615 l 2.30504,0.44981 -2.1808,0.72549 c -1.31741,0.43826 -1.96789,1.28033 -1.64301,2.12695 0.35636,0.92868 -0.17301,1.40146 -1.5692,1.40146 -1.15884,0 -2.10699,-0.6199 -2.10699,-1.37756 z"
           id="path4117" />
      </g>
      <path
         style="opacity:0.36777810000000000;fill:#90989a;fill-opacity:1;stroke:none;display:inline;filter:url(#filter8125)"
         d="m 258.62749,273.96319 c 8.21248,0.68647 14.32053,7.90882 13.63405,16.12129 -0.68648,8.21248 -7.90882,14.32053 -16.12129,13.63405 -8.21248,-0.68648 -14.32053,-7.90883 -13.63405,-16.1213 0.57977,-6.9359 5.61738,-12.37921 12.48771,-13.4934"
         id="path4119"
         inkscape:export-filename="/home/bgray/software/aptosid-art/svg-core/aptosid-logo.png"
         inkscape:export-xdpi="90"
         inkscape:export-ydpi="90" />
    </g>
    <path
       sodipodi:nodetypes="ccccccccccccccccc"
       id="path17192"
       d="m 18.378528,-9.700391e-4 c -10.39694,0 -18.5625,8.9509424391 -18.5625,19.5625000391 l 0,3 0,57.4375 0,87.125 0,57.4375 0,3 c 0,10.61156 8.16556,19.5625 18.5625,19.5625 l 362.843752,0 c 10.39694,0 18.59376,-8.95094 18.59375,-19.5625 l 0,-3 0,-57.4375 0,-87.125 0,-57.4375 0,-3 C 399.81604,8.949973 391.61922,-9.700391e-4 381.22228,-9.700391e-4 z"
       style="fill:#000000;fill-opacity:1;stroke:none;display:inline" />
    <g
       id="g17906"
       transform="translate(526.87371,-20.12595)" />
    <g
       id="g12058"
       transform="matrix(0.4068262,0,0,0.4068262,-25.741851,13.17894)"
       clip-path="url(#clipPath12110)">
      <g
         style="display:inline"
         id="g12060"
         inkscape:label="Layer 1">
        <rect
           style="opacity:1;fill:#ffffff;fill-opacity:1;stroke:#ffffff;stroke-width:4.95930386;stroke-miterlimit:4;stroke-dasharray:none;stroke-opacity:1;display:inline"
           id="rect2895"
           width="1766.814"
           height="1470.1597"
           x="-146.99295"
           y="-71.863548" />
        <path
           id="rect3376"
           d="M -3.06941,-41.524162 L 1646.1041,-41.524162 L 1646.1041,1229.8939 L -3.06941,1229.8939 L -3.06941,-41.524162 L -3.06941,-41.524162 z"
           style="fill:#008000;fill-opacity:1" />
        <path
           transform="matrix(1.4822695,0,0,1.2651794,-523.90253,382.43705)"
           d="M 1755.0988,467.80042 A 768.53705,786.70575 0 1 1 218.02466,467.80042 A 768.53705,786.70575 0 1 1 1755.0988,467.80042 z"
           sodipodi:ry="786.70575"
           sodipodi:rx="768.53705"
           sodipodi:cy="467.80042"
           sodipodi:cx="986.56171"
           id="path3035"
           style="opacity:1;fill:#00aa44;fill-opacity:0.875;stroke:none"
           sodipodi:type="arc" />
        <path
           sodipodi:type="arc"
           style="opacity:1;fill:#165016;fill-opacity:0.73786406;stroke:none"
           id="path3037"
           sodipodi:cx="986.56171"
           sodipodi:cy="467.80042"
           sodipodi:rx="768.53705"
           sodipodi:ry="786.70575"
           d="M 1755.0988,467.80042 A 768.53705,786.70575 0 1 1 218.02466,467.80042 A 768.53705,786.70575 0 1 1 1755.0988,467.80042 z"
           transform="matrix(1.4822695,0,0,1.2651794,94.709327,85.211434)" />
        <path
           transform="matrix(1.4822695,0,0,1.2651794,80.174348,375.91102)"
           d="M 1755.0988,467.80042 A 768.53705,786.70575 0 1 1 218.02466,467.80042 A 768.53705,786.70575 0 1 1 1755.0988,467.80042 z"
           sodipodi:ry="786.70575"
           sodipodi:rx="768.53705"
           sodipodi:cy="467.80042"
           sodipodi:cx="986.56171"
           id="path3039"
           style="opacity:1;fill:#00aa00;fill-opacity:0.73786406;stroke:none"
           sodipodi:type="arc" />
        <path
           sodipodi:type="arc"
           style="opacity:1;fill:#1f241c;fill-opacity:0.73786406;stroke:none"
           id="path3041"
           sodipodi:cx="986.56171"
           sodipodi:cy="467.80042"
           sodipodi:rx="768.53705"
           sodipodi:ry="786.70575"
           d="M 1755.0988,467.80042 A 768.53705,786.70575 0 1 1 218.02466,467.80042 A 768.53705,786.70575 0 1 1 1755.0988,467.80042 z"
           transform="matrix(1.4822695,0,0,1.2651794,443.54883,121.54888)" />
        <path
           transform="matrix(1.1557387,0,0,1.0578361,445.72907,569.87559)"
           d="M 1755.0988,467.80042 A 768.53705,786.70575 0 1 1 218.02466,467.80042 A 768.53705,786.70575 0 1 1 1755.0988,467.80042 z"
           sodipodi:ry="786.70575"
           sodipodi:rx="768.53705"
           sodipodi:cy="467.80042"
           sodipodi:cx="986.56171"
           id="path3043"
           style="opacity:1;fill:#2aff2a;fill-opacity:0.73786406;stroke:none"
           sodipodi:type="arc" />
        <path
           transform="matrix(1.4822695,0,0,1.2651794,594.11944,441.51143)"
           d="M 1755.0988,467.80042 A 768.53705,786.70575 0 1 1 218.02466,467.80042 A 768.53705,786.70575 0 1 1 1755.0988,467.80042 z"
           sodipodi:ry="786.70575"
           sodipodi:rx="768.53705"
           sodipodi:cy="467.80042"
           sodipodi:cx="986.56171"
           id="path3045"
           style="opacity:1;fill:#165016;fill-opacity:0.73786406;stroke:none"
           sodipodi:type="arc" />
        <path
           sodipodi:type="arc"
           style="opacity:1;fill:#55ff55;fill-opacity:0.73786406;stroke:none"
           id="path3047"
           sodipodi:cx="986.56171"
           sodipodi:cy="467.80042"
           sodipodi:rx="768.53705"
           sodipodi:ry="786.70575"
           d="M 1755.0988,467.80042 A 768.53705,786.70575 0 1 1 218.02466,467.80042 A 768.53705,786.70575 0 1 1 1755.0988,467.80042 z"
           transform="matrix(1.1557387,0,0,1.0578361,552.38325,795.73151)" />
        <path
           sodipodi:type="arc"
           style="opacity:1;fill:#17280b;fill-opacity:0.73786406;stroke:none"
           id="path3049"
           sodipodi:cx="986.56171"
           sodipodi:cy="467.80042"
           sodipodi:rx="768.53705"
           sodipodi:ry="786.70575"
           d="M 1755.0988,467.80042 A 768.53705,786.70575 0 1 1 218.02466,467.80042 A 768.53705,786.70575 0 1 1 1755.0988,467.80042 z"
           transform="matrix(0.9266853,0,0,1.2651794,917.09893,807.50033)" />
        <rect
           mask="none"
           y="-173.95683"
           x="-43.916428"
           height="1422.5234"
           width="1750.3834"
           id="rect3927"
           style="opacity:1;fill:url(#radialGradient92360);fill-opacity:1;stroke:none" />
      </g>
      <g
         style="opacity:0.30232562"
         inkscape:label="lines"
         id="g12073">
        <g
           style="fill:#0b280b;display:inline"
           transform="matrix(0.2423324,0.5229447,0.5229447,-0.2423324,499.60266,961.69953)"
           id="g3792">
          <path
             style="fill:#0b280b;stroke:none"
             d="M -908.3871,2229.6774 C -879.67916,2005.3196 -823.74985,1784.5711 -742.93141,1573.4628 C -742.9314,1573.4628 -742.93139,1573.4628 -742.93138,1573.4627 C -662.11262,1362.3546 -556.37909,1160.8202 -428.08428,974.88193 C -428.08426,974.8819 -428.08424,974.88187 -428.08422,974.88185 C -317.81003,815.06002 -191.13846,666.61682 -50.732486,532.64073 L -57.65461,525.42379 C -197.86145,660.59741 -324.13197,810.14078 -433.85126,970.92461 C -433.85127,970.92463 -433.85128,970.92464 -433.85129,970.92465 C -561.50429,1157.9898 -666.37407,1360.4413 -746.20053,1572.2209 C -746.20054,1572.2209 -746.20055,1572.2209 -746.20057,1572.2209 C -826.02738,1784.0004 -880.83581,2005.1746 -908.3871,2229.6774 L -908.3871,2229.6774 z"
             id="path3873" />
          <path
             style="fill:#0b280b;stroke:none"
             d="M -933.77032,2264.8564 C -952.49731,2112.7535 -940.21767,1957.2154 -900.02076,1809.566 C -900.02076,1809.566 -900.02076,1809.566 -900.02075,1809.566 C -859.82137,1661.9173 -791.6174,1521.8414 -698.66363,1400.6157 C -698.66362,1400.6156 -698.66361,1400.6156 -698.66359,1400.6156 C -627.07949,1307.2535 -541.48397,1224.7272 -445.69679,1156.6627 L -451.52127,1148.5341 C -547.58416,1217.9369 -633.12503,1301.7455 -704.41059,1396.245 C -704.41059,1396.245 -704.4106,1396.245 -704.4106,1396.245 C -796.99322,1518.984 -864.35501,1660.2297 -903.50772,1808.6313 C -903.50773,1808.6314 -903.50773,1808.6314 -903.50774,1808.6314 C -942.66293,1957.0324 -953.69106,2112.9052 -933.77032,2264.8564 L -933.77032,2264.8564 z"
             id="path3885" />
          <path
             style="fill:#0b280b;stroke:none"
             d="M -338.92473,2316.7622 C -358.84547,2164.811 -347.81734,2008.9382 -308.66215,1860.5372 C -308.66215,1860.5372 -308.66214,1860.5372 -308.66214,1860.5372 C -269.50943,1712.1355 -202.14764,1570.8898 -109.56503,1448.1508 C -109.56502,1448.1508 -109.56501,1448.1508 -109.565,1448.1508 C -38.279437,1353.6513 47.26143,1269.8427 143.32432,1200.4399 L 149.1488,1208.5685 C 53.361616,1276.633 -32.233903,1359.1593 -103.818,1452.5214 C -103.81801,1452.5214 -103.81802,1452.5214 -103.81802,1452.5214 C -196.7718,1573.7472 -264.97577,1713.8231 -305.17516,1861.4718 C -305.17516,1861.4718 -305.17517,1861.4718 -305.17517,1861.4718 C -345.37208,2009.1212 -357.65172,2164.6593 -338.92473,2316.7622 z"
             id="path3891" />
          <path
             style="fill:#0b280b;stroke:none"
             d="M -315.67147,2323.7753 C -335.59221,2171.8241 -324.56408,2015.9513 -285.40888,1867.5503 C -285.40888,1867.5503 -285.40887,1867.5503 -285.40887,1867.5502 C -246.25616,1719.1486 -178.89437,1577.9029 -86.311769,1455.1639 C -86.311756,1455.1639 -86.311743,1455.1639 -86.311731,1455.1639 C -15.026173,1360.6644 70.514692,1276.8558 166.57758,1207.453 L 172.40206,1215.5816 C 76.614878,1283.6461 -8.9806396,1366.1724 -80.564739,1459.5345 C -173.51852,1580.7603 -241.7225,1720.8362 -281.92189,1868.4849 C -281.9219,1868.4849 -281.9219,1868.4849 -281.92191,1868.4849 C -322.11881,2016.1343 -334.39846,2171.6724 -315.67147,2323.7753 z"
             id="path3897" />
          <path
             style="fill:#0b280b;stroke:none"
             d="M -446.17487,2294.2993 C -464.90186,2142.1964 -452.62222,1986.6583 -412.42531,1839.0089 C -412.42531,1839.0089 -412.42531,1839.0089 -412.4253,1839.0089 C -372.22592,1691.3602 -304.02195,1551.2843 -211.06818,1430.0586 C -211.06817,1430.0585 -211.06816,1430.0585 -211.06814,1430.0585 C -139.48404,1336.6964 -53.888524,1254.1701 41.898661,1186.1056 L 36.074179,1177.977 C -59.98871,1247.3798 -145.52958,1331.1884 -216.81514,1425.6879 C -216.81514,1425.6879 -216.81515,1425.6879 -216.81515,1425.6879 C -309.39777,1548.4269 -376.75956,1689.6726 -415.91227,1838.0742 C -415.91228,1838.0743 -415.91228,1838.0743 -415.91229,1838.0743 C -455.06748,1986.4753 -466.09561,2142.3481 -446.17487,2294.2993 L -446.17487,2294.2993 z"
             id="path3903" />
          <path
             style="fill:#0b280b;stroke:none"
             d="M -68.42092,1929.2047 C -215.15145,1919.1642 -362.29874,1878.6612 -498.39969,1811.3347 C -498.3997,1811.3347 -498.39971,1811.3347 -498.39972,1811.3347 C -634.4901,1743.9903 -759.8451,1649.6951 -863.05611,1532.2553 C -863.05612,1532.2553 -863.05614,1532.2553 -863.05615,1532.2553 C -942.46848,1441.8765 -1009.0457,1338.5343 -1059.2363,1226.2919 C -1018.0885,1341.8234 -959.56191,1451.1765 -886.07656,1549.6726 C -879.41217,1558.5982 -872.62332,1567.4279 -865.71339,1576.1596 C -760.45292,1682.2942 -637.55052,1766.0974 -506.71092,1825.3657 C -366.07201,1889.0757 -215.94476,1924.542 -68.42092,1929.2047 L -68.42092,1929.2047 z"
             id="path3909" />
          <path
             style="fill:#0b280b;stroke:none"
             d="M -72.260565,1983.7736 C -218.99109,1973.7331 -366.13837,1933.2301 -502.23933,1865.9035 C -502.23934,1865.9035 -502.23935,1865.9035 -502.23936,1865.9035 C -638.32973,1798.5592 -763.68473,1704.2639 -866.89575,1586.8242 C -866.89577,1586.8242 -866.89578,1586.8242 -866.8958,1586.8242 C -946.30814,1496.4454 -1012.8854,1393.1032 -1063.076,1280.8608 C -1021.9282,1396.3923 -963.40157,1505.7454 -889.9162,1604.2415 C -883.25181,1613.1671 -876.46297,1621.9968 -869.55305,1630.7285 C -764.29256,1736.8631 -641.39016,1820.6663 -510.55055,1879.9346 C -369.91165,1943.6446 -219.7844,1979.1109 -72.260565,1983.7736 L -72.260565,1983.7736 z"
             id="path3913" />
          <path
             style="fill:#0b280b;stroke:none"
             d="M -254.16889,1936.2353 C -400.89942,1926.1948 -548.04671,1885.6918 -684.14766,1818.3653 C -684.14767,1818.3652 -684.14768,1818.3652 -684.14769,1818.3652 C -820.23807,1751.0209 -945.59306,1656.7256 -1048.8041,1539.2859 C -1048.8041,1539.2859 -1048.8041,1539.2859 -1048.8041,1539.2859 C -1128.2165,1448.9071 -1194.7937,1345.5649 -1244.9843,1233.3225 C -1203.8365,1348.854 -1145.3099,1458.2071 -1071.8245,1556.7032 C -1065.1601,1565.6288 -1058.3713,1574.4585 -1051.4614,1583.1902 C -946.20089,1689.3248 -823.29849,1773.128 -692.45889,1832.3963 C -551.81998,1896.1063 -401.69273,1931.5726 -254.16889,1936.2353 L -254.16889,1936.2353 z"
             id="path3919" />
          <path
             style="fill:#0b280b;stroke:none"
             d="M 217.21852,1864.8703 C 70.488,1854.8299 -76.659286,1814.3269 -212.76024,1747.0003 C -348.85062,1679.656 -474.20563,1585.3608 -577.41666,1467.921 C -577.41667,1467.921 -577.41669,1467.921 -577.4167,1467.921 C -656.82904,1377.5422 -723.40632,1274.2 -773.59689,1161.9576 C -732.44907,1277.4891 -673.92248,1386.8422 -600.43711,1485.3383 C -593.77272,1494.2639 -586.98388,1503.0936 -580.07396,1511.8253 C -474.81348,1617.9599 -351.91107,1701.7631 -221.07147,1761.0314 C -80.43256,1824.7414 69.694683,1860.2077 217.21852,1864.8703 L 217.21852,1864.8703 z"
             id="path3925" />
          <path
             style="fill:#0b280b;stroke:none"
             d="M -134.83107,2138.4983 C -281.56159,2128.4579 -428.70887,2087.9549 -564.80983,2020.6283 C -564.80984,2020.6283 -564.80984,2020.6283 -564.80985,2020.6283 C -700.90023,1953.284 -826.25523,1858.9887 -929.46625,1741.549 C -929.46626,1741.549 -929.46628,1741.549 -929.46629,1741.549 C -1008.8786,1651.1702 -1075.4559,1547.828 -1125.6465,1435.5856 C -1084.4987,1551.1171 -1025.9721,1660.4702 -952.48671,1758.9663 C -945.82231,1767.8919 -939.03348,1776.7216 -932.12355,1785.4533 C -826.86307,1891.5879 -703.96066,1975.3911 -573.12106,2034.6594 C -432.48215,2098.3694 -282.35491,2133.8357 -134.83107,2138.4983 L -134.83107,2138.4983 z"
             id="path3879" />
        </g>
        <path
           style="fill:#0b280b;stroke:none;display:inline"
           d="M 1316.137,705.32953 C 1266.6022,631.20602 1202.1994,567.45274 1128.5767,517.79663 C 1128.5767,517.79663 1128.5767,517.79662 1128.5767,517.79662 C 1054.957,468.13614 971.9615,432.46954 885.2922,414.44068 C 885.29219,414.44068 885.29218,414.44068 885.29217,414.44068 C 818.55921,400.56036 749.83374,396.7465 682.14997,403.11505 C 686.23754,404.66959 690.29504,406.26119 694.32193,407.88895 C 757.60659,402.52537 821.80958,406.10585 884.39044,418.59438 C 884.39045,418.59438 884.39045,418.59438 884.39046,418.59439 C 970.6474,435.80395 1053.5727,470.62487 1127.373,519.54813 C 1127.373,519.54814 1127.3731,519.54815 1127.3731,519.54815 C 1201.1747,568.46954 1266.0098,631.59449 1316.137,705.32953 L 1316.137,705.32953 z"
           id="path3819" />
        <path
           style="fill:#0b280b;stroke:none;display:inline"
           d="M 1119.1435,459.72508 C 1069.6087,385.60156 1005.2059,321.84828 931.5832,272.19216 C 931.5832,272.19215 931.58319,272.19215 931.58319,272.19215 C 857.96353,222.53166 774.96796,186.86506 688.29867,168.83619 C 688.29866,168.83619 688.29865,168.83619 688.29864,168.83619 C 621.56567,154.95586 552.84021,151.142 485.15643,157.51054 C 489.24404,159.06508 493.30158,160.65667 497.32851,162.28444 C 560.61314,156.92088 624.81609,160.50136 687.39691,172.98989 C 773.65384,190.19946 856.57917,225.02039 930.37953,273.94366 C 930.37954,273.94367 930.37955,273.94367 930.37956,273.94368 C 1004.1812,322.86507 1069.0163,385.99002 1119.1435,459.72508 L 1119.1435,459.72508 z"
           id="path3823" />
        <path
           style="fill:#0b280b;stroke:none;display:inline"
           d="M 1591.49,254.90426 C 1541.9552,180.78074 1477.5524,117.02746 1403.9297,67.37134 C 1403.9297,67.37134 1403.9297,67.37133 1403.9297,67.37133 C 1330.31,17.71084 1247.3145,-17.95576 1160.6452,-35.98463 C 1160.6452,-35.98463 1160.6451,-35.98463 1160.6451,-35.98464 C 1093.9122,-49.86496 1025.1867,-53.67883 957.5029,-47.3103 C 961.5905,-45.75576 965.6481,-44.16416 969.675,-42.5364 C 1032.9596,-47.89995 1097.1626,-44.31946 1159.7434,-31.83093 C 1246.0003,-14.62136 1328.9257,20.19958 1402.726,69.12284 C 1402.726,69.12285 1402.726,69.12286 1402.726,69.12286 C 1476.5277,118.04426 1541.3628,181.16921 1591.49,254.90426 z"
           id="path3825" />
        <path
           style="fill:#0b280b;stroke:none;display:inline"
           d="M 1625.129,545.26186 C 1575.5942,471.13834 1511.1914,407.38506 1437.5687,357.72893 C 1437.5687,357.72893 1437.5687,357.72893 1437.5687,357.72892 C 1363.949,308.06843 1280.9535,272.40183 1194.2842,254.37295 C 1194.2842,254.37295 1194.2841,254.37295 1194.2841,254.37295 C 1127.5512,240.49262 1058.8257,236.67874 991.1419,243.04728 C 995.2295,244.60182 999.2871,246.19341 1003.314,247.82118 C 1066.5986,242.45762 1130.8016,246.03812 1193.3824,258.52665 C 1193.3824,258.52666 1193.3824,258.52666 1193.3824,258.52666 C 1279.6394,275.73624 1362.5647,310.55717 1436.365,359.48044 C 1436.365,359.48044 1436.365,359.48045 1436.365,359.48046 C 1510.1667,408.40185 1575.0018,471.5268 1625.129,545.26186 z"
           id="path3827" />
        <g
           transform="matrix(0.5895829,0.8077079,-0.8077079,0.5895829,639.99601,-481.80378)"
           id="g2881"
           style="fill:#0b280b;display:inline">
          <path
             transform="matrix(1,0,0,-1,1220.8179,2075.2958)"
             style="fill:#0b280b;stroke:none"
             d="M -933.77032,2264.8564 C -952.49731,2112.7535 -940.21767,1957.2154 -900.02076,1809.566 C -900.02076,1809.566 -900.02076,1809.566 -900.02075,1809.566 C -859.82137,1661.9173 -791.6174,1521.8414 -698.66363,1400.6157 C -698.66362,1400.6156 -698.66361,1400.6156 -698.66359,1400.6156 C -627.07949,1307.2535 -541.48397,1224.7272 -445.69679,1156.6627 L -451.52127,1148.5341 C -547.58416,1217.9369 -633.12503,1301.7455 -704.41059,1396.245 C -704.41059,1396.245 -704.4106,1396.245 -704.4106,1396.245 C -796.99322,1518.984 -864.35501,1660.2297 -903.50772,1808.6313 C -903.50773,1808.6314 -903.50773,1808.6314 -903.50774,1808.6314 C -942.66293,1957.0324 -953.69106,2112.9052 -933.77032,2264.8564 L -933.77032,2264.8564 z"
             id="path3811" />
          <path
             style="fill:#0b280b;stroke:none"
             d="M 905.14643,-248.4795 C 885.22571,-96.528292 896.25385,59.344518 935.40905,207.7455 C 935.40906,207.74551 935.40906,207.74552 935.40906,207.74554 C 974.56178,356.14715 1041.9236,497.39289 1134.5062,620.13186 C 1134.5062,620.13187 1134.5062,620.13189 1134.5062,620.13191 C 1205.7917,714.63138 1291.3326,798.44004 1387.3955,867.84284 L 1393.2199,859.71416 C 1297.4328,791.64967 1211.8373,709.12336 1140.2532,615.76129 C 1140.2532,615.76128 1140.2532,615.76128 1140.2532,615.76127 C 1047.2994,494.5355 979.09544,354.4596 938.89605,206.81093 C 938.89604,206.81091 938.89604,206.81089 938.89603,206.81087 C 898.69912,59.161501 886.41946,-96.376557 905.14643,-248.4795 z"
             id="path3815" />
          <path
             style="fill:#0b280b;stroke:none"
             d="M 774.64303,-219.0035 C 754.72231,-67.052292 765.75045,88.820518 804.90565,237.2215 C 804.90566,237.22151 804.90566,237.22152 804.90566,237.22154 C 844.05838,385.62315 911.42016,526.86889 1004.0028,649.60786 C 1004.0028,649.60787 1004.0028,649.60789 1004.0028,649.60791 C 1075.2883,744.10738 1160.8292,827.91604 1256.8921,897.31884 L 1262.7165,889.19016 C 1166.9294,821.12567 1081.3339,738.59936 1009.7498,645.23729 C 1009.7498,645.23728 1009.7498,645.23728 1009.7498,645.23727 C 916.79601,524.0115 848.59204,383.9356 808.39265,236.28693 C 808.39264,236.28691 808.39264,236.28689 808.39263,236.28687 C 768.19572,88.637501 755.91606,-66.900557 774.64303,-219.0035 z"
             id="path3817" />
        </g>
        <path
           style="fill:#0b280b;stroke:none;display:inline"
           d="M 1268.9754,194.20157 C 1111.4739,164.44704 950.9091,167.30551 798.60869,198.73621 C 646.30559,230.14639 501.95427,290.21883 376.82216,374.74742 C 280.38596,439.86193 194.87846,518.85901 123.70566,607.55298 C 201.89456,525.44404 292.43426,455.14311 391.12086,399.82426 C 400.03386,394.82355 409.01816,389.95012 418.06976,385.20444 C 531.06071,307.13171 661.58943,248.90486 800.72126,214.90668 C 950.2751,178.36434 1110.0848,169.70252 1268.9754,194.20157 L 1268.9754,194.20157 z"
           id="path3821" />
        <path
           id="path3813"
           d="M 606.64172,-148.40172 C 714.78644,-104.64329 816.58041,-44.49881 907.41579,29.47266 C 907.4158,29.47267 907.41581,29.47267 907.41582,29.47268 C 1025.3492,125.49699 1123.8998,245.71705 1197.0948,380.01814 C 1197.0948,380.01816 1197.0948,380.01818 1197.0948,380.0182 C 1270.2866,514.32096 1318.2837,662.99073 1335.2618,815.82643 C 1337.5688,805.98343 1339.7466,796.07133 1341.7938,786.09403 C 1320.9479,642.17073 1272.9982,503.01364 1202.9575,376.92577 C 1202.9575,376.92576 1202.9575,376.92575 1202.9575,376.92574 C 1128.2718,242.4638 1028.2998,122.58281 909.26708,27.26185 C 909.26707,27.26183 909.26705,27.26182 909.26703,27.26181 C 817.59257,-46.15835 715.15918,-105.52926 606.64172,-148.40172 L 606.64172,-148.40172 z"
           style="fill:#0b280b;stroke:none;display:inline" />
      </g>
      <g
         style="opacity:1;display:inline"
         inkscape:label="logoscreen"
         id="layer6">
        <path
           id="path92330"
           d="M 1707.25,829.65625 L 991.90625,835.65625 L 984.1875,835.75 L 982.8125,835.75 L 982.125,835.75 L -106.125,832.59375 L -106.125,1358.9688 L 1707.25,1358.9688 L 1707.25,829.65625 z M 917.5625,831.53125 L 905.375,831.59375 L 931.3125,834.625 L 917.75,831.53125 L 917.5625,831.53125 z M 943.1875,831.53125 L 952.90625,834.90625 L 959.875,834.90625 L 952.6875,831.53125 L 943.1875,831.53125 z M 962.40625,831.53125 L 967.96875,834.9375 L 969.875,834.9375 L 965.40625,831.53125 L 964.28125,831.53125 L 962.40625,831.53125 z M 971.53125,831.53125 L 975.09375,834.9375 L 975.40625,834.9375 L 972.53125,831.53125 L 971.53125,831.53125 z M 977.25,831.53125 L 977.9375,832.53125 L 977.40625,831.53125 L 977.25,831.53125 z M 983.09375,831.53125 L 983.65625,834.96875 L 984.25,834.96875 L 983.28125,831.53125 L 983.09375,831.53125 z M 986.4375,831.53125 L 986.25,834.96875 L 986.90625,834.96875 L 986.6875,831.53125 L 986.4375,831.53125 z M 989.84375,831.53125 L 988.90625,834.96875 L 989.5,834.96875 L 990.03125,831.53125 L 989.84375,831.53125 z M 995.6875,831.53125 L 995.1875,832.5 L 995.8125,831.53125 L 995.6875,831.53125 z M 1000.5312,831.53125 L 997.65625,834.96875 L 997.9375,834.96875 L 1001.4688,831.53125 L 1000.5312,831.53125 z M 1007.5312,831.53125 L 1003.0938,834.96875 L 1004.875,834.96875 L 1010.375,831.53125 L 1009.5,831.53125 L 1007.5312,831.53125 z M 1019.9375,831.53125 L 1012.75,834.96875 L 1019.3125,834.96875 L 1028.9688,831.53125 L 1027.5938,831.53125 L 1025.5,831.53125 L 1023.8438,831.53125 L 1022.2188,831.53125 L 1020.875,831.53125 L 1019.9375,831.53125 z M 1053.1875,831.53125 L 1039.75,834.6875 L 1065.0938,831.53125 L 1053.1875,831.53125 z M 993.3125,832.21875 L 991.90625,834.96875 L 992.28125,834.96875 L 993.3125,832.21875 z M 979.84375,832.3125 L 980.875,834.96875 L 981.25,834.96875 L 979.84375,832.3125 z"
           mask="none"
           style="opacity:1;fill:url(#linearGradient92373);fill-opacity:1;stroke:none;display:inline" />
        <path
           style="opacity:1;fill:url(#linearGradient92368);fill-opacity:1;stroke:none;display:inline"
           d="M 873.34375,-1013.625 L 986.90625,834.96875 L 985.6875,834.96875 L 688.6875,-967 L 479.59375,-946.5625 L 984.25,834.96875 L 982.90625,834.96875 L 309.125,-861.65625 L 109.15625,-797.15625 L 981.25,834.96875 L 979.5625,834.96875 L -39.28125,-677.90625 L -220.90625,-572.28125 L 977.4375,834.96875 L 975.125,834.96875 L -340.5625,-424.125 L -495.53125,-282.25 L 971.90625,834.96875 L 968.03125,834.96875 L -580.84375,-112 L -702.03125,59.625 L 961.90625,834.96875 L 953.09375,834.96875 L -749.15625,244.15625 L -830.96875,437.65625 L 934.34375,834.96875 L -837.6875,627.96875 L -876.4375,834.46875 L 984.17583,835.75136 L 2825.8125,816.25 L 2836.1875,606.375 L 1038.5938,834.96875 L 2777.0938,425.34375 L 2742.5,218.09375 L 1021.1562,834.96875 L 1012.75,834.96875 L 2646.1875,53.8125 L 2568.2188,-141.28125 L 1006.8438,834.96875 L 1003.0938,834.96875 L 2439.1562,-281.28125 L 2321.4062,-455.3125 L 999.9375,834.96875 L 997.65625,834.96875 L 2165.4688,-564.59375 L 2013.375,-709.5625 L 995.5625,834.96875 L 993.90625,834.96875 L 1837.7188,-783.125 L 1658.25,-892.34375 L 992.28125,834.96875 L 990.9375,834.96875 L 1470.9688,-926.78125 L 1272.3125,-995.28125 L 989.5,834.96875 L 988.28125,834.96875 L 1082,-989.03125 L 873.34375,-1013.625 L 873.34375,-1013.625 z"
           id="path92370"
           mask="url(#mask92320)"
           sodipodi:nodetypes="ccccccccccccccccccccccccccccccccccccccccccccccccccccccccccc"
           transform="matrix(0.9999976,2.2104539e-3,-2.2104539e-3,0.9999976,-0.193405,-2.1790329)" />
      </g>
      <g
         style="display:inline"
         inkscape:label="sun"
         id="layer3" />
      <g
         style="display:inline"
         inkscape:label="screen"
         id="layer2" />
    </g>
    <g
       id="g17939"
       transform="matrix(0.864817,0,0,0.864817,44.70907,28.005513)">
      <path
         sodipodi:type="arc"
         style="opacity:1;fill:none;stroke:#ffffff;stroke-width:2.84267402;stroke-miterlimit:4;stroke-dasharray:none;display:inline"
         id="path17902"
         sodipodi:cx="-241.15201"
         sodipodi:cy="186.16504"
         sodipodi:rx="31.985884"
         sodipodi:ry="31.985884"
         d="m -209.16612,186.16504 c 0,17.65621 -14.32968,31.98588 -31.98589,31.98588 -17.65621,0 -31.98588,-14.32967 -31.98588,-31.98588 0,-17.65621 14.32967,-31.98588 31.98588,-31.98588 17.65621,0 31.98589,14.32967 31.98589,31.98588 z"
         transform="matrix(0.8135397,0,0,0.8135397,500.89481,29.692918)" />
      <path
         style="opacity:1;fill:none;stroke:#ffffff;stroke-width:2.31262803;stroke-linecap:round;stroke-linejoin:miter;stroke-miterlimit:4;stroke-opacity:1;stroke-dasharray:none;display:inline"
         d="m 305.14637,160.05797 0,21.38 -14.88703,0"
         id="path17904"
         sodipodi:nodetypes="ccc" />
    </g>
    <text
       xml:space="preserve"
       style="font-size:28.99683952000000176px;font-style:normal;font-variant:normal;font-weight:normal;font-stretch:normal;opacity:1;fill:#ffffff;fill-opacity:1;stroke:none;font-family:Liberation Serif;-inkscape-font-specification:Liberation Serif"
       x="329.45099"
       y="208.21283"
       id="text17910"><tspan
         sodipodi:role="line"
         id="tspan17912"
         x="329.45099"
         y="208.21283"
         style="font-style:normal;font-variant:normal;font-weight:normal;font-stretch:normal;letter-spacing:5.04019976000000014;font-family:Liberation Serif;-inkscape-font-specification:Liberation Serif">...</tspan></text>
  </g>
  <g
     inkscape:groupmode="layer"
     id="layer4"
     inkscape:label="splash_top"
     style="display:inline"
     transform="translate(0.183972,9.700391e-4)">
    <path
       style="opacity:1;fill:#000000;fill-opacity:1;stroke:none;filter:url(#filter17984)"
       d="M 198.78125,6.90625 14,7.0625 11.90625,8.4375 C 10.754074,9.1999794 9.1591905,10.91592 8.375,12.25 L 6.96875,14.6875 6.84375,128.15625 6.6875,241.625 l 193.40625,0 193.40625,0 -0.125,-113.21875 -0.125,-113.21875 -1.125,-2.09375 c -1.41494,-2.64567 -4.91071,-5.665611 -6.96875,-6.03125 -0.86303,-0.1533274 -84.7413,-0.235559 -186.375,-0.15625 z m 119.1875,16.75 c 30.70568,0.02091 49.95148,0.09054 50.34375,0.15625 1.87089,0.31339 5.05748,2.888654 6.34375,5.15625 l 1.03125,1.8125 0.0937,97.03125 0.125,97.03125 -175.8125,0 -175.8125,0 0.125,-97.25 0.125,-97.25 1.28125,-2.0625 C 26.525377,27.137814 27.983851,25.653519 29.03125,25 l 1.90625,-1.1875 167.96875,-0.125 c 46.19566,-0.03399 88.35682,-0.05216 119.0625,-0.03125 z"
       id="path17933"
       transform="matrix(1.0695813,0,0,1.1158959,-14.152495,-15.089141)"
       clip-path="url(#clipPath18022)" />
    <path
       style="fill:#ffffff;fill-opacity:1;stroke:none;display:inline"
       d="M 17.5,0 C 7.3729827,5.3908795 3.9533116,5.6025012 0,18.59375 l 0,3.03125 0,145.5 5.90625,0 0,-145.5 0,-3.03125 C 5.90625,12.680086 12.671553,5.875 17.5,5.875 l 365,0 c 5.6488,-1e-07 11.59375,7.690799 11.59375,12.71875 l 0,3.03125 0,145.5 5.90625,0 0,-145.5 0,-3.03125 C 395.3279,8.1182423 394.42397,4.6720955 382.5,0 z"
       id="path3857" />
    <path
       style="fill:#000000;fill-opacity:1;stroke:none;display:inline"
       d="M 18.5625,0 C 8.1655589,-6.3143671e-12 0,8.9509424 0,19.5625 l 0,3 0,144.5625 2.40625,0 0,-144.5625 0,-3 C 2.4062501,10.158316 9.5410879,2.375 18.5625,2.375 l 362.84375,0 c 9.02139,0 16.1875,7.783317 16.1875,17.1875 l 0,3 0,144.5625 2.40625,0 0,-144.5625 0,-3 C 400.00001,8.950943 391.80319,0 381.40625,0 z"
       id="path17916" />
    <path
       id="path17158"
       d="M 17.5,247.125 C 7.3729827,241.73412 3.9533116,241.5225 0,228.53125 L 0,225.5 0,80 l 5.90625,0 0,145.5 0,3.03125 c 0,5.913664 6.765303,12.71875 11.59375,12.71875 l 365,0 c 5.6488,0 11.59375,-7.6908 11.59375,-12.71875 l 0,-3.03125 0,-145.5 5.90625,0 0,145.5 0,3.03125 c -4.6721,10.475508 -5.57603,13.921654 -17.5,18.59375 z"
       style="fill:#ffffff;fill-opacity:1;stroke:none;display:inline" />
    <path
       id="path17160"
       d="M 18.5625,247.125 C 8.1655589,247.125 0,238.17406 0,227.5625 l 0,-3 L 0,80 l 2.40625,0 0,144.5625 0,3 c 1e-07,9.404184 7.1348379,17.1875 16.15625,17.1875 l 362.84375,0 c 9.02139,0 16.1875,-7.783317 16.1875,-17.1875 l 0,-3 0,-144.5625 2.40625,0 0,144.5625 0,3 c 1e-05,10.611557 -8.19681,19.5625 -18.59375,19.5625 z"
       style="fill:#000000;fill-opacity:1;stroke:none;display:inline" />
  </g>
</svg>
