<?xml version="1.0" encoding="UTF-8" standalone="no"?>
<!-- Created with Inkscape (http://www.inkscape.org/) -->

<svg
   xmlns:dc="http://purl.org/dc/elements/1.1/"
   xmlns:cc="http://creativecommons.org/ns#"
   xmlns:rdf="http://www.w3.org/1999/02/22-rdf-syntax-ns#"
   xmlns:svg="http://www.w3.org/2000/svg"
   xmlns="http://www.w3.org/2000/svg"
   xmlns:xlink="http://www.w3.org/1999/xlink"
   xmlns:sodipodi="http://sodipodi.sourceforge.net/DTD/sodipodi-0.dtd"
   xmlns:inkscape="http://www.inkscape.org/namespaces/inkscape"
   width="640"
   height="480"
   id="svg2540"
   sodipodi:version="0.32"
   inkscape:version="1.2.2 (b0a8486541, 2022-12-01)"
   version="1.0"
   sodipodi:docname="logo.svg"
   inkscape:output_extension="org.inkscape.output.svg.inkscape"
   inkscape:export-filename="/home/klaymen/svn/noc.aptosid.com/aptosid-art-momos/trunk/splash-xfce/logo2.png"
   inkscape:export-xdpi="90"
   inkscape:export-ydpi="90">
  <defs
     id="defs2542">
    <linearGradient
       id="linearGradient3591-8">
      <stop
         style="stop-color:#980006;stop-opacity:1;"
         offset="0"
         id="stop3593-9" />
      <stop
         style="stop-color:#000000;stop-opacity:1;"
         offset="1"
         id="stop3595-7" />
    </linearGradient>
    <radialGradient
       r="960.5"
       fy="600"
       fx="958"
       cy="600"
       cx="958"
       gradientTransform="matrix(0.33333333,0,0,0.25007808,0.6666834,89.953144)"
       gradientUnits="userSpaceOnUse"
       id="radialGradient3054"
       xlink:href="#linearGradient3591-8"
       inkscape:collect="always" />
    <mask
       maskUnits="userSpaceOnUse"
       id="mask2954">
      <rect
         style="fill:#ffffff;fill-opacity:1;stroke:none"
         id="rect2956"
         width="637.88031"
         height="490.71454"
         x="266.76776"
         y="-957.76733"
         transform="matrix(0.95006921,-0.31203926,-0.31203924,-0.95006921,0,0)" />
    </mask>
    <mask
       maskUnits="userSpaceOnUse"
       id="mask3760">
      <rect
         style="opacity:0.44078944;fill:url(#radialGradient3764);fill-opacity:1;stroke:none;display:inline"
         id="rect3762"
         width="2361.1116"
         height="1535.0215"
         x="-227.80479"
         y="-167.51079" />
    </mask>
    <radialGradient
       inkscape:collect="always"
       xlink:href="#linearGradient3722"
       id="radialGradient3764"
       gradientUnits="userSpaceOnUse"
       gradientTransform="matrix(1.4601539,2.3580727e-8,-1.6390329e-8,1.0981583,-448.9967,-58.895004)"
       cx="960"
       cy="600"
       fx="960"
       fy="600"
       r="957.50922" />
    <linearGradient
       id="linearGradient3722">
      <stop
         style="stop-color:#ffffff;stop-opacity:1;"
         offset="0"
         id="stop3724" />
      <stop
         style="stop-color:#ffffff;stop-opacity:0;"
         offset="1"
         id="stop3726" />
    </linearGradient>
    <mask
       maskUnits="userSpaceOnUse"
       id="mask3754">
      <rect
         style="opacity:0.44078944;fill:url(#radialGradient3758);fill-opacity:1;stroke:none;display:inline"
         id="rect3756"
         width="2361.1116"
         height="1535.0215"
         x="-227.80479"
         y="-167.51079" />
    </mask>
    <radialGradient
       inkscape:collect="always"
       xlink:href="#linearGradient3722"
       id="radialGradient3758"
       gradientUnits="userSpaceOnUse"
       gradientTransform="matrix(1.4601539,2.3580727e-8,-1.6390329e-8,1.0981583,-448.9967,-58.895004)"
       cx="960"
       cy="600"
       fx="960"
       fy="600"
       r="957.50922" />
    <filter
       inkscape:collect="always"
       id="filter3938"
       x="-0.28748568"
       width="1.5749714"
       y="-1.4021231"
       height="3.8042463">
      <feGaussianBlur
         inkscape:collect="always"
         stdDeviation="23.861876"
         id="feGaussianBlur3940" />
    </filter>
  </defs>
  <sodipodi:namedview
     id="base"
     pagecolor="#ffffff"
     bordercolor="#666666"
     borderopacity="1.0"
     gridtolerance="10000"
     guidetolerance="10"
     objecttolerance="10"
     inkscape:pageopacity="0.0"
     inkscape:pageshadow="2"
     inkscape:zoom="1.3955493"
     inkscape:cx="242.88165"
     inkscape:cy="239.27304"
     inkscape:document-units="px"
     inkscape:current-layer="layer1"
     showgrid="false"
     inkscape:window-width="1912"
     inkscape:window-height="1153"
     inkscape:window-x="0"
     inkscape:window-y="0"
     inkscape:window-maximized="1" />
  <metadata
     id="metadata2545">
    <rdf:RDF>
      <cc:Work
         rdf:about="">
        <dc:format>image/svg+xml</dc:format>
        <dc:type
           rdf:resource="http://purl.org/dc/dcmitype/StillImage" />
      </cc:Work>
    </rdf:RDF>
  </metadata>
  <g
     inkscape:label="Layer 1"
     inkscape:groupmode="layer"
     id="layer1"
     style="display:inline">
    <g
       transform="translate(-59.5634,-221.96512)"
       id="g2618"
       inkscape:label="Layer 1">
      <path
         id="path2558"
         d="m 299.43024,491.26408 189,0"
         style="fill:none;stroke:#ffffff;stroke-width:1;stroke-linecap:round;stroke-linejoin:round;stroke-miterlimit:4;stroke-opacity:1;stroke-dasharray:none" />
      <text
         sodipodi:linespacing="125%"
         id="text3366"
         y="484.30191"
         x="296.80026"
         style="font-size:92.92816162px;font-style:normal;font-variant:normal;font-weight:normal;font-stretch:normal;text-align:start;line-height:125%;writing-mode:lr-tb;text-anchor:start;fill:#ffffff;fill-opacity:1;stroke:#ffffff;stroke-width:0.87661302;stroke-miterlimit:4;stroke-opacity:1;stroke-dasharray:none;display:inline;font-family:Dustismo;-inkscape-font-specification:Dustismo"
         xml:space="preserve"><tspan
           dx="0 -3.0055304 1.1770185 -4.0073738 -4.0073738"
           y="484.30191"
           x="296.80026"
           id="tspan3368"
           sodipodi:role="line"
           style="letter-spacing:-0.66133475;fill:#ffffff;fill-opacity:1;stroke:#ffffff;stroke-width:0.87661302;stroke-opacity:1">aptosid</tspan></text>
    </g>
    <rect
       style="fill:url(#radialGradient3054);fill-opacity:1;fill-rule:evenodd;stroke:none;display:inline"
       id="rect2817"
       width="640"
       height="480"
       x="0"
       y="-1.5987212e-14" />
    <path
       transform="matrix(0.9532263,-0.30522602,-0.31307615,-0.92932487,-267.65422,936.85489)"
       d="m 777.81744,521.17749 c 12.12501,9.67872 -7.06467,21.1194 -16.08667,20.15255 -24.44905,-2.6201 -31.712,-32.74488 -24.21843,-52.32589 13.40424,-35.02582 57.42216,-43.89152 88.56511,-28.28431 45.70354,22.9042 56.38566,82.41743 32.3502,124.80433 -32.03548,56.49506 -107.52341,69.01104 -161.04355,36.41608 -67.34964,-41.01744 -81.70378,-132.6816 -40.48197,-197.28277 49.92514,-78.24068 157.8691,-94.43539 233.522,-44.54785 89.15432,58.79074 107.1914,183.07484 48.61373,269.76121 C 871.40762,749.95368 730.74508,769.83453 633.03742,702.55045 522.01578,626.09801 500.29006,469.03118 576.29193,360.3108 661.55454,238.34296 835.04395,214.77149 954.7708,299.49942 c 132.9195,94.06407 158.3375,283.98948 64.8773,414.7181 C 916.78904,858.09286 710.4175,885.35788 568.69075,783.16066 413.85632,671.51168 384.74375,448.68614 495.68172,295.96412 616.11676,130.16804 855.40249,99.207509 1019.1175,218.88922 c 176.7598,129.21797 209.5686,384.9689 81.1408,559.67497"
       sodipodi:t0="0"
       sodipodi:argument="-18.175886"
       sodipodi:radius="412.57242"
       sodipodi:revolution="4"
       sodipodi:expansion="1"
       sodipodi:cy="521.17749"
       sodipodi:cx="777.81744"
       id="path3660"
       style="opacity:0.1842105;fill:none;stroke:#000000;stroke-width:85.40691376;stroke-linecap:round;stroke-linejoin:round;stroke-miterlimit:4;stroke-opacity:1;stroke-dasharray:none;display:inline"
       sodipodi:type="spiral"
       mask="url(#mask2954)" />
    <path
       transform="matrix(0.53503871,0,0,0.50501711,-208.89595,173.4177)"
       id="path4887"
       style="opacity:0.11000001;fill:none;stroke:#ffffff;stroke-width:2.60543108px;stroke-linecap:butt;stroke-linejoin:miter;stroke-opacity:1;display:inline"
       d="m 2037.8599,-2459.5277 21.96,4888.8671 m -32.656,-4888.8671 21.9599,4888.8671 m -32.656,-4888.8671 21.96,4888.8671 m -32.656,-4888.8671 21.96,4888.8671 m -32.6561,-4888.8671 21.96,4888.8671 m -32.656,-4888.8671 21.96,4888.8671 m -32.656,-4888.8671 21.96,4888.8671 m -32.6561,-4888.8671 21.96,4888.8671 m -32.656,-4888.8671 21.96,4888.8671 m -32.656,-4888.8671 21.9599,4888.8671 m -32.656,-4888.8671 21.96,4888.8671 m -32.656,-4888.8671 21.96,4888.8671 m -32.656,-4888.8671 21.9599,4888.8671 m -32.656,-4888.8671 21.96,4888.8671 m -32.656,-4888.8671 21.96,4888.8671 m -32.6561,-4888.8671 21.96,4888.8671 m -32.656,-4888.8671 21.96,4888.8671 m -32.656,-4888.8671 21.9599,4888.8671 m -32.656,-4888.8671 21.96,4888.8671 m -32.656,-4888.8671 21.96,4888.8671 m -32.656,-4888.8671 21.9599,4888.8671 m -32.656,-4888.8671 21.96,4888.8671 m -32.656,-4888.8671 21.96,4888.8671 m -32.656,-4888.8671 21.9599,4888.8671 m -32.656,-4888.8671 21.96,4888.8671 m -32.656,-4888.8671 21.96,4888.8671 m -32.6561,-4888.8671 21.96,4888.8671 m -32.656,-4888.8671 21.96,4888.8671 m -32.656,-4888.8671 21.9599,4888.8671 m -32.656,-4888.8671 21.96,4888.8671 m -32.656,-4888.8671 21.96,4888.8671 m -32.656,-4888.8671 21.9599,4888.8671 m -32.656,-4888.8671 21.96,4888.8671 m -32.656,-4888.8671 21.96,4888.8671 m -32.6561,-4888.8671 21.9601,4888.8671 m -32.656,-4888.8671 21.96,4888.8671 m -32.656,-4888.8671 21.96,4888.8671 m -32.6561,-4888.8671 21.96,4888.8671 m -32.656,-4888.8671 21.96,4888.8671 m -32.656,-4888.8671 21.9599,4888.8671 m -32.656,-4888.8671 21.96,4888.8671 m -32.656,-4888.8671 21.96,4888.8671 m -32.656,-4888.8671 21.9599,4888.8671 m -32.6559,-4888.8671 21.9599,4888.8671 m -32.656,-4888.8671 21.96,4888.8671 m -32.656,-4888.8671 21.96,4888.8671 m -32.656,-4888.8671 21.9599,4888.8671 m -32.656,-4888.8671 21.96,4888.8671 m -32.656,-4888.8671 21.96,4888.8671 m -32.6561,-4888.8671 21.96,4888.8671 m -32.656,-4888.8671 21.96,4888.8671 m -32.656,-4888.8671 21.9599,4888.8671 m -32.6559,-4888.8671 21.9599,4888.8671 M 101.87731,-2459.5277 123.83729,2429.3394 M 91.181281,-2459.5277 113.14126,2429.3394 M 80.485251,-2459.5277 102.44523,2429.3394 m -32.656029,-4888.8671 21.95998,4888.8671 m -32.65601,-4888.8671 21.95998,4888.8671 m -32.65601,-4888.8671 21.95997,4888.8671 m -32.65602,-4888.8671 21.95999,4888.8671 m -32.65602,-4888.8671 21.95998,4888.8671 m -32.65601,-4888.8671 21.95997,4888.8671 M 5.6129908,-2459.5277 27.572971,2429.3394 M -5.0830492,-2459.5277 16.876921,2429.3394 M -15.779089,-2459.5277 6.1808908,2429.3394 M -26.475119,-2459.5277 -4.5151392,2429.3394 m -32.6560198,-4888.8671 21.95997,4888.8671 m -32.65601,-4888.8671 21.95998,4888.8671 m -32.65601,-4888.8671 21.95998,4888.8671 m -32.65603,-4888.8671 21.96,4888.8671 m -32.65603,-4888.8671 21.95998,4888.8671 m -32.65601,-4888.8671 21.95998,4888.8671 m -32.656031,-4888.8671 21.959991,4888.8671 m -32.656031,-4888.8671 21.959991,4888.8671 m -32.656011,-4888.8671 21.95997,4888.8671 m -32.65599,-4888.8671 21.96,4888.8671 m -32.65602,-4888.8671 21.96,4888.8671 m -32.65602,-4888.8671 21.95987,4888.8671 m -32.65602,-4888.8671 21.96,4888.8671 m -32.65602,-4888.8671 21.96,4888.8671 m -32.65602,-4888.8671 21.96,4888.8671 m -32.65602,-4888.8671 21.96,4888.8671 m -32.65602,-4888.8671 21.96,4888.8671 m -32.65602,-4888.8671 21.96,4888.8671 m -32.65602,-4888.8671 21.95987,4888.8671 m -32.65589,-4888.8671 21.95987,4888.8671 m -32.65602,-4888.8671 21.96,4888.8671 m -32.65602,-4888.8671 21.96,4888.8671 m -32.65602,-4888.8671 21.96,4888.8671 m -32.65602,-4888.8671 21.96,4888.8671 m -32.65602,-4888.8671 21.96,4888.8671 m -32.65602,-4888.8671 21.96001,4888.8671 m -32.65603,-4888.8671 21.95987,4888.8671 m -32.65589,-4888.8671 21.95987,4888.8671 m -32.65602,-4888.8671 21.96,4888.8671 m -32.65602,-4888.8671 21.96,4888.8671 m -32.65602,-4888.8671 21.96,4888.8671 m -32.65602,-4888.8671 21.96001,4888.8671 m -32.65603,-4888.8671 21.96001,4888.8671 m -32.65603,-4888.8671 21.96001,4888.8671 m -32.65599,-4888.8671 21.95983,4888.8671 m -32.65603,-4888.8671 21.96001,4888.8671 m -32.65601,-4888.8671 21.96,4888.8671 m -32.656,-4888.8671 21.96,4888.8671 m -32.656,-4888.8671 21.96,4888.8671 m -32.6561,-4888.8671 21.96,4888.8671 m -32.656,-4888.8671 21.96,4888.8671 m -32.656,-4888.8671 21.9599,4888.8671 m -32.6559,-4888.8671 21.9598,4888.8671 m -32.656,-4888.8671 21.96,4888.8671 m -32.65604,-4888.8671 21.96004,4888.8671 m -32.65604,-4888.8671 21.96004,4888.8671 m -32.65604,-4888.8671 21.96,4888.8671 m -32.6561,-4888.8671 21.96,4888.8671 m -32.656,-4888.8671 21.96,4888.8671 m -32.656,-4888.8671 21.9599,4888.8671 m -32.656,-4888.8671 21.96,4888.8671 m -32.6561,-4888.8671 21.96,4888.8671 m -32.656,-4888.8671 21.96,4888.8671 m -32.656,-4888.8671 21.96,4888.8671 m -32.65624,-4888.8671 21.96024,4888.8671 m -32.65624,-4888.8671 21.96024,4888.8671 m -32.65624,-4888.8671 21.96,4888.8671 m -32.656,-4888.8671 21.96,4888.8671 m -32.6562,-4888.8671 21.9602,4888.8671 m -32.6562,-4888.8671 21.9601,4888.8671 m -32.6561,-4888.8671 21.96,4888.8671 m -32.6558,-4888.8671 21.9598,4888.8671 m -32.6558,-4888.8671 21.9598,4888.8671 m -32.6558,-4888.8671 21.96,4888.8671 m -32.656,-4888.8671 21.96,4888.8671 m -32.656,-4888.8671 21.96,4888.8671 m -32.6562,-4888.8671 21.9601,4888.8671 m -32.6561,-4888.8671 21.96,4888.8671 m -32.656,-4888.8671 21.96,4888.8671 m -32.656,-4888.8671 21.96,4888.8671 m -32.6561,-4888.8671 21.96,4888.8671 m -32.656,-4888.8671 21.96,4888.8671 m -32.656,-4888.8671 21.96,4888.8671 m -32.6562,-4888.8671 21.9602,4888.8671 m -32.6562,-4888.8671 21.9602,4888.8671 m -32.6562,-4888.8671 21.96,4888.8671 m -32.656,-4888.8671 21.96,4888.8671 m -32.656,-4888.8671 21.96,4888.8671 m -32.6561,-4888.8671 21.96,4888.8671 m -32.656,-4888.8671 21.96,4888.8671 m -32.656,-4888.8671 21.96,4888.8671 m -32.6561,-4888.8671 21.9601,4888.8671 m -32.6562,-4888.8671 21.9602,4888.8671 m -32.6562,-4888.8671 21.96,4888.8671 m -32.656,-4888.8671 21.96,4888.8671 m -32.656,-4888.8671 21.96,4888.8671 m -32.656,-4888.8671 21.96,4888.8671 m -32.6561,-4888.8671 21.96,4888.8671 m -32.656,-4888.8671 21.96,4888.8671 m -32.6561,-4888.8671 21.9601,4888.8671 m -32.6562,-4888.8671 21.96,4888.8671 m -32.656,-4888.8671 21.96,4888.8671 m -32.6559,-4888.8671 21.9599,4888.8671 m -32.6559,-4888.8671 21.9599,4888.8671 m -32.6559,-4888.8671 21.96,4888.8671 m -32.6561,-4888.8671 21.9601,4888.8671 m -32.6562,-4888.8671 21.9601,4888.8671 m -32.6561,-4888.8671 21.9601,4888.8671 m -32.6561,-4888.8671 21.96,4888.8671 m -32.6561,-4888.8671 21.96,4888.8671 m -32.656,-4888.8671 21.96,4888.8671 m -32.656,-4888.8671 21.96,4888.8671 m -32.656,-4888.8671 21.96,4888.8671 m -32.656,-4888.8671 21.96,4888.8671 m -32.6562,-4888.8671 21.9601,4888.8671 m -32.6561,-4888.8671 21.9601,4888.8671 m -32.6561,-4888.8671 21.96,4888.8671 m -32.6561,-4888.8671 21.9601,4888.8671 m -32.6561,-4888.8671 21.96,4888.8671 m -32.656,-4888.8671 21.96,4888.8671 m -32.656,-4888.8671 21.96,4888.8671 m -32.656,-4888.8671 21.96,4888.8671 m -32.6562,-4888.8671 21.9602,4888.8671 m -32.6562,-4888.8671 21.96,4888.8671 m -32.656,-4888.8671 21.96,4888.8671 m 2705.5293,-4888.8671 21.96,4888.8671 m -32.656,-4888.8671 21.96,4888.8671 m -32.656,-4888.8671 21.9599,4888.8671 m -32.656,-4888.8671 21.96,4888.8671 m -32.656,-4888.8671 21.96,4888.8671 m -32.6561,-4888.8671 21.96,4888.8671 m -32.656,-4888.8671 21.96,4888.8671 m -32.656,-4888.8671 21.9599,4888.8671 m -32.656,-4888.8671 21.96,4888.8671 m -32.656,-4888.8671 21.96,4888.8671 m -32.6561,-4888.8671 21.96,4888.8671 m -32.656,-4888.8671 21.96,4888.8671 m -32.6561,-4888.8671 21.96,4888.8671 m -32.656,-4888.8671 21.96,4888.8671 m -32.656,-4888.8671 21.9599,4888.8671 m -32.656,-4888.8671 21.96,4888.8671 m -32.656,-4888.8671 21.96,4888.8671 m -32.656,-4888.8671 21.9599,4888.8671 m -32.656,-4888.8671 21.96,4888.8671 m -32.656,-4888.8671 21.96,4888.8671 m -32.6561,-4888.8671 21.96,4888.8671 m -32.656,-4888.8671 21.96,4888.8671 m -32.656,-4888.8671 21.96,4888.8671 m -32.6561,-4888.8671 21.96,4888.8671 m -32.656,-4888.8671 21.96,4888.8671 m -32.656,-4888.8671 21.9599,4888.8671 m -32.656,-4888.8671 21.96,4888.8671 m -32.656,-4888.8671 21.96,4888.8671 m -32.656,-4888.8671 21.9599,4888.8671 m -32.656,-4888.8671 21.96,4888.8671 m -32.656,-4888.8671 21.96,4888.8671 m -32.6561,-4888.8671 21.96,4888.8671 m -32.656,-4888.8671 21.96,4888.8671 m -32.656,-4888.8671 21.9599,4888.8671 m -32.656,-4888.8671 21.96,4888.8671 m -32.656,-4888.8671 21.96,4888.8671 m -32.656,-4888.8671 21.9599,4888.8671 m -32.656,-4888.8671 21.96,4888.8671 m -32.656,-4888.8671 21.96,4888.8671 m -32.6561,-4888.8671 21.96,4888.8671 m -32.656,-4888.8671 21.96,4888.8671 m -32.656,-4888.8671 21.96,4888.8671 m -32.6561,-4888.8671 21.96,4888.8671 m -32.656,-4888.8671 21.96,4888.8671 m -32.656,-4888.8671 21.9599,4888.8671 m -32.65605,-4888.8671 21.96005,4888.8671 m -32.65607,-4888.8671 21.96007,4888.8671 m -32.6561,-4888.8671 21.95995,4888.8671 m -32.65599,-4888.8671 21.95998,4888.8671 m -32.65602,-4888.8671 21.95999,4888.8671 m -32.65602,-4888.8671 21.95997,4888.8671 m -32.65601,-4888.8671 21.95998,4888.8671 m -32.65601,-4888.8671 21.95998,4888.8671 m -32.65603,-4888.8671 21.95998,4888.8671 m -32.65601,-4888.8671 21.95998,4888.8671 m -32.65601,-4888.8671 21.95998,4888.8671 m -32.65603,-4888.8671 21.95998,4888.8671 m -32.65601,-4888.8671 21.95998,4888.8671 m -32.65601,-4888.8671 21.95998,4888.8671 m -32.65603,-4888.8671 21.95999,4888.8671 m -32.65602,-4888.8671 21.95998,4888.8671 m -32.65601,-4888.8671 21.95997,4888.8671 m -32.65602,-4888.8671 21.95999,4888.8671 m -32.65602,-4888.8671 21.95998,4888.8671 m -32.65602,-4888.8671 21.95998,4888.8671 m -32.65601,-4888.8671 21.95998,4888.8671 m -32.65602,-4888.8671 21.95997,4888.8671 m -32.65601,-4888.8671 21.95998,4888.8671 m -32.65601,-4888.8671 21.95998,4888.8671 m -32.65603,-4888.8671 21.95998,4888.8671 m -32.65601,-4888.8671 21.95998,4888.8671 m -32.65601,-4888.8671 21.95998,4888.8671 m -32.65602,-4888.8671 21.95998,4888.8671 m -32.65602,-4888.8671 21.95998,4888.8671 m -32.65601,-4888.8671 21.95998,4888.8671 m -32.65602,-4888.8671 21.95999,4888.8671 m -32.65603,-4888.8671 21.95998,4888.8671 m -32.65601,-4888.8671 21.95998,4888.8671 m -32.65601,-4888.8671 21.95998,4888.8671 m -32.65603,-4888.8671 21.95998,4888.8671 m -32.65601,-4888.8671 21.95998,4888.8671 m -32.65601,-4888.8671 21.95997,4888.8671 m -32.65602,-4888.8671 21.95998,4888.8671 m -32.65601,-4888.8671 21.95998,4888.8671 m -32.65601,-4888.8671 21.95998,4888.8671 m -32.65603,-4888.8671 21.95999,4888.8671 m -32.65602,-4888.8671 21.95998,4888.8671 m -32.65601,-4888.8671 21.95998,4888.8671 m -32.65602,-4888.8671 21.95998,4888.8671 m -32.65602,-4888.8671 21.95998,4888.8671 m -32.65601,-4888.8671 21.95997,4888.8671 m -32.65601,-4888.8671 21.95998,4888.8671 m -32.65602,-4888.8671 21.95997,4888.8671 m -32.656,-4888.8671 21.95997,4888.8671 m -32.65601,-4888.8671 21.95998,4888.8671 m -32.65602,-4888.8671 21.95999,4888.8671 m -32.65603,-4888.8671 21.95998,4888.8671 m -32.65601,-4888.8671 21.95998,4888.8671 m -32.65602,-4888.8671 21.95999,4888.8671 m -32.65603,-4888.8671 21.95998,4888.8671 m -32.65601,-4888.8671 21.95998,4888.8671 m -32.65602,-4888.8671 21.95999,4888.8671 m -32.65604,-4888.8671 21.95999,4888.8671 m -32.65602,-4888.8671 21.95998,4888.8671 m -32.65601,-4888.8671 21.95997,4888.8671 m -32.65602,-4888.8671 21.95998,4888.8671 m -32.65601,-4888.8671 21.95997,4888.8671 m -32.65601,-4888.8671 21.95998,4888.8671 m -32.65602,-4888.8671 21.95999,4888.8671 m -32.65602,-4888.8671 21.95997,4888.8671 m -32.65601,-4888.8671 21.95998,4888.8671 m -32.65602,-4888.8671 21.95999,4888.8671 m -32.65603,-4888.8671 21.95998,4888.8671 m -32.65601,-4888.8671 21.95998,4888.8671 m -32.65601,-4888.8671 21.95998,4888.8671 m -32.65603,-4888.8671 21.95998,4888.8671 m -32.65601,-4888.8671 21.95998,4888.8671 m -32.65601,-4888.8671 21.95998,4888.8671 m -32.65603,-4888.8671 21.95998,4888.8671 m -32.65601,-4888.8671 21.95998,4888.8671 m -32.65601,-4888.8671 21.95997,4888.8671 m -32.65602,-4888.8671 21.95999,4888.8671 m -32.65602,-4888.8671 21.95997,4888.8671 m -32.65601,-4888.8671 21.95998,4888.8671 m -32.65602,-4888.8671 21.95999,4888.8671 m -32.65602,-4888.8671 21.95997,4888.8671 m -32.65601,-4888.8671 21.95998,4888.8671 m -32.65601,-4888.8671 21.95998,4888.8671"
       mask="url(#mask3760)" />
    <path
       transform="matrix(0.53503871,0,0,0.50501711,-208.89595,-348.5823)"
       d="m 2041.8599,-2459.5277 21.96,4888.8671 m -32.656,-4888.8671 21.9599,4888.8671 m -32.656,-4888.8671 21.96,4888.8671 m -32.656,-4888.8671 21.96,4888.8671 m -32.6561,-4888.8671 21.96,4888.8671 m -32.656,-4888.8671 21.96,4888.8671 m -32.656,-4888.8671 21.96,4888.8671 m -32.6561,-4888.8671 21.96,4888.8671 m -32.656,-4888.8671 21.96,4888.8671 m -32.656,-4888.8671 21.9599,4888.8671 m -32.656,-4888.8671 21.96,4888.8671 m -32.656,-4888.8671 21.96,4888.8671 m -32.656,-4888.8671 21.9599,4888.8671 m -32.656,-4888.8671 21.96,4888.8671 m -32.656,-4888.8671 21.96,4888.8671 m -32.6561,-4888.8671 21.96,4888.8671 m -32.656,-4888.8671 21.96,4888.8671 m -32.656,-4888.8671 21.9599,4888.8671 m -32.656,-4888.8671 21.96,4888.8671 m -32.656,-4888.8671 21.96,4888.8671 m -32.656,-4888.8671 21.9599,4888.8671 m -32.656,-4888.8671 21.96,4888.8671 m -32.656,-4888.8671 21.96,4888.8671 m -32.656,-4888.8671 21.9599,4888.8671 m -32.656,-4888.8671 21.96,4888.8671 m -32.656,-4888.8671 21.96,4888.8671 m -32.6561,-4888.8671 21.96,4888.8671 m -32.656,-4888.8671 21.96,4888.8671 m -32.656,-4888.8671 21.9599,4888.8671 m -32.656,-4888.8671 21.96,4888.8671 m -32.656,-4888.8671 21.96,4888.8671 m -32.656,-4888.8671 21.9599,4888.8671 m -32.656,-4888.8671 21.96,4888.8671 m -32.656,-4888.8671 21.96,4888.8671 m -32.6561,-4888.8671 21.9601,4888.8671 m -32.656,-4888.8671 21.96,4888.8671 m -32.656,-4888.8671 21.96,4888.8671 m -32.6561,-4888.8671 21.96,4888.8671 m -32.656,-4888.8671 21.96,4888.8671 m -32.656,-4888.8671 21.9599,4888.8671 m -32.656,-4888.8671 21.96,4888.8671 m -32.656,-4888.8671 21.96,4888.8671 m -32.656,-4888.8671 21.9599,4888.8671 m -32.6559,-4888.8671 21.9599,4888.8671 m -32.656,-4888.8671 21.96,4888.8671 m -32.656,-4888.8671 21.96,4888.8671 m -32.656,-4888.8671 21.9599,4888.8671 m -32.656,-4888.8671 21.96,4888.8671 m -32.656,-4888.8671 21.96,4888.8671 m -32.6561,-4888.8671 21.96,4888.8671 m -32.656,-4888.8671 21.96,4888.8671 m -32.656,-4888.8671 21.9599,4888.8671 m -32.6559,-4888.8671 21.9599,4888.8671 M 105.87731,-2459.5277 127.83729,2429.3394 M 95.181281,-2459.5277 117.14126,2429.3394 M 84.485251,-2459.5277 106.44523,2429.3394 m -32.656029,-4888.8671 21.95998,4888.8671 m -32.65601,-4888.8671 21.95998,4888.8671 m -32.65601,-4888.8671 21.95997,4888.8671 m -32.65602,-4888.8671 21.95999,4888.8671 m -32.65602,-4888.8671 21.95998,4888.8671 m -32.65601,-4888.8671 21.95997,4888.8671 M 9.612991,-2459.5277 31.572971,2429.3394 M -1.0830492,-2459.5277 20.876921,2429.3394 m -32.65601,-4888.8671 21.95998,4888.8671 m -32.65601,-4888.8671 21.9599798,4888.8671 m -32.6560198,-4888.8671 21.95997,4888.8671 m -32.65601,-4888.8671 21.95998,4888.8671 m -32.65601,-4888.8671 21.95998,4888.8671 m -32.65603,-4888.8671 21.96,4888.8671 m -32.65603,-4888.8671 21.95998,4888.8671 m -32.65601,-4888.8671 21.95998,4888.8671 m -32.656031,-4888.8671 21.959991,4888.8671 m -32.656031,-4888.8671 21.959991,4888.8671 m -32.656011,-4888.8671 21.95997,4888.8671 m -32.65599,-4888.8671 21.96,4888.8671 m -32.65602,-4888.8671 21.96,4888.8671 m -32.65602,-4888.8671 21.95987,4888.8671 m -32.65602,-4888.8671 21.96,4888.8671 m -32.65602,-4888.8671 21.96,4888.8671 m -32.65602,-4888.8671 21.96,4888.8671 m -32.65602,-4888.8671 21.96,4888.8671 m -32.65602,-4888.8671 21.96,4888.8671 m -32.65602,-4888.8671 21.96,4888.8671 m -32.65602,-4888.8671 21.95987,4888.8671 m -32.65589,-4888.8671 21.95987,4888.8671 m -32.65602,-4888.8671 21.96,4888.8671 m -32.65602,-4888.8671 21.96,4888.8671 m -32.65602,-4888.8671 21.96,4888.8671 m -32.65602,-4888.8671 21.96,4888.8671 m -32.65602,-4888.8671 21.96,4888.8671 m -32.65602,-4888.8671 21.96001,4888.8671 m -32.65603,-4888.8671 21.95987,4888.8671 m -32.65589,-4888.8671 21.95987,4888.8671 m -32.65602,-4888.8671 21.96,4888.8671 m -32.65602,-4888.8671 21.96,4888.8671 m -32.65602,-4888.8671 21.96,4888.8671 m -32.65602,-4888.8671 21.96001,4888.8671 m -32.65603,-4888.8671 21.96001,4888.8671 m -32.65603,-4888.8671 21.96001,4888.8671 m -32.65599,-4888.8671 21.95983,4888.8671 m -32.65603,-4888.8671 21.96001,4888.8671 m -32.65601,-4888.8671 21.96,4888.8671 m -32.656,-4888.8671 21.96,4888.8671 m -32.656,-4888.8671 21.96,4888.8671 m -32.6561,-4888.8671 21.96,4888.8671 m -32.656,-4888.8671 21.96,4888.8671 m -32.656,-4888.8671 21.9599,4888.8671 m -32.6559,-4888.8671 21.9598,4888.8671 m -32.656,-4888.8671 21.96,4888.8671 m -32.65604,-4888.8671 21.96004,4888.8671 m -32.65604,-4888.8671 21.96004,4888.8671 m -32.65604,-4888.8671 21.96,4888.8671 m -32.6561,-4888.8671 21.96,4888.8671 m -32.656,-4888.8671 21.96,4888.8671 m -32.656,-4888.8671 21.9599,4888.8671 m -32.656,-4888.8671 21.96,4888.8671 m -32.6561,-4888.8671 21.96,4888.8671 m -32.656,-4888.8671 21.96,4888.8671 m -32.656,-4888.8671 21.96,4888.8671 m -32.65624,-4888.8671 21.96024,4888.8671 m -32.65624,-4888.8671 21.96024,4888.8671 m -32.65624,-4888.8671 21.96,4888.8671 m -32.656,-4888.8671 21.96,4888.8671 m -32.6562,-4888.8671 21.9602,4888.8671 m -32.6562,-4888.8671 21.9601,4888.8671 m -32.6561,-4888.8671 21.96,4888.8671 m -32.6558,-4888.8671 21.9598,4888.8671 m -32.6558,-4888.8671 21.9598,4888.8671 m -32.6558,-4888.8671 21.96,4888.8671 m -32.656,-4888.8671 21.96,4888.8671 m -32.656,-4888.8671 21.96,4888.8671 m -32.6562,-4888.8671 21.9601,4888.8671 m -32.6561,-4888.8671 21.96,4888.8671 m -32.656,-4888.8671 21.96,4888.8671 m -32.656,-4888.8671 21.96,4888.8671 m -32.6561,-4888.8671 21.96,4888.8671 m -32.656,-4888.8671 21.96,4888.8671 m -32.656,-4888.8671 21.96,4888.8671 m -32.6562,-4888.8671 21.9602,4888.8671 m -32.6562,-4888.8671 21.9602,4888.8671 m -32.6562,-4888.8671 21.96,4888.8671 m -32.656,-4888.8671 21.96,4888.8671 m -32.656,-4888.8671 21.96,4888.8671 m -32.6561,-4888.8671 21.96,4888.8671 m -32.656,-4888.8671 21.96,4888.8671 m -32.656,-4888.8671 21.96,4888.8671 m -32.6561,-4888.8671 21.9601,4888.8671 m -32.6562,-4888.8671 21.9602,4888.8671 m -32.6562,-4888.8671 21.96,4888.8671 m -32.656,-4888.8671 21.96,4888.8671 m -32.656,-4888.8671 21.96,4888.8671 m -32.656,-4888.8671 21.96,4888.8671 m -32.6561,-4888.8671 21.96,4888.8671 m -32.656,-4888.8671 21.96,4888.8671 m -32.6561,-4888.8671 21.9601,4888.8671 m -32.6562,-4888.8671 21.96,4888.8671 m -32.656,-4888.8671 21.96,4888.8671 m -32.6559,-4888.8671 21.9599,4888.8671 m -32.6559,-4888.8671 21.9599,4888.8671 m -32.6559,-4888.8671 21.96,4888.8671 m -32.6561,-4888.8671 21.9601,4888.8671 m -32.6562,-4888.8671 21.9601,4888.8671 m -32.6561,-4888.8671 21.9601,4888.8671 m -32.6561,-4888.8671 21.96,4888.8671 m -32.6561,-4888.8671 21.96,4888.8671 m -32.656,-4888.8671 21.96,4888.8671 m -32.656,-4888.8671 21.96,4888.8671 m -32.656,-4888.8671 21.96,4888.8671 m -32.656,-4888.8671 21.96,4888.8671 m -32.6562,-4888.8671 21.9601,4888.8671 m -32.6561,-4888.8671 21.9601,4888.8671 m -32.6561,-4888.8671 21.96,4888.8671 m -32.6561,-4888.8671 21.9601,4888.8671 m -32.6561,-4888.8671 21.96,4888.8671 m -32.656,-4888.8671 21.96,4888.8671 m -32.656,-4888.8671 21.96,4888.8671 m -32.656,-4888.8671 21.96,4888.8671 m -32.6562,-4888.8671 21.9602,4888.8671 m -32.6562,-4888.8671 21.96,4888.8671 m -32.656,-4888.8671 21.96,4888.8671 m 2705.5293,-4888.8671 21.96,4888.8671 m -32.656,-4888.8671 21.96,4888.8671 m -32.656,-4888.8671 21.9599,4888.8671 m -32.656,-4888.8671 21.96,4888.8671 m -32.656,-4888.8671 21.96,4888.8671 m -32.6561,-4888.8671 21.96,4888.8671 m -32.656,-4888.8671 21.96,4888.8671 m -32.656,-4888.8671 21.9599,4888.8671 m -32.656,-4888.8671 21.96,4888.8671 m -32.656,-4888.8671 21.96,4888.8671 m -32.6561,-4888.8671 21.96,4888.8671 m -32.656,-4888.8671 21.96,4888.8671 m -32.6561,-4888.8671 21.96,4888.8671 m -32.656,-4888.8671 21.96,4888.8671 m -32.656,-4888.8671 21.9599,4888.8671 m -32.656,-4888.8671 21.96,4888.8671 m -32.656,-4888.8671 21.96,4888.8671 m -32.656,-4888.8671 21.9599,4888.8671 m -32.656,-4888.8671 21.96,4888.8671 m -32.656,-4888.8671 21.96,4888.8671 m -32.6561,-4888.8671 21.96,4888.8671 m -32.656,-4888.8671 21.96,4888.8671 m -32.656,-4888.8671 21.96,4888.8671 m -32.6561,-4888.8671 21.96,4888.8671 m -32.656,-4888.8671 21.96,4888.8671 m -32.656,-4888.8671 21.9599,4888.8671 m -32.656,-4888.8671 21.96,4888.8671 m -32.656,-4888.8671 21.96,4888.8671 m -32.656,-4888.8671 21.9599,4888.8671 m -32.656,-4888.8671 21.96,4888.8671 m -32.656,-4888.8671 21.96,4888.8671 m -32.6561,-4888.8671 21.96,4888.8671 m -32.656,-4888.8671 21.96,4888.8671 m -32.656,-4888.8671 21.9599,4888.8671 m -32.656,-4888.8671 21.96,4888.8671 m -32.656,-4888.8671 21.96,4888.8671 m -32.656,-4888.8671 21.9599,4888.8671 m -32.656,-4888.8671 21.96,4888.8671 m -32.656,-4888.8671 21.96,4888.8671 m -32.6561,-4888.8671 21.96,4888.8671 m -32.656,-4888.8671 21.96,4888.8671 m -32.656,-4888.8671 21.96,4888.8671 m -32.6561,-4888.8671 21.96,4888.8671 m -32.656,-4888.8671 21.96,4888.8671 m -32.656,-4888.8671 21.9599,4888.8671 m -32.65605,-4888.8671 21.96005,4888.8671 m -32.65607,-4888.8671 21.96007,4888.8671 m -32.6561,-4888.8671 21.95995,4888.8671 m -32.65599,-4888.8671 21.95998,4888.8671 m -32.65602,-4888.8671 21.95999,4888.8671 m -32.65602,-4888.8671 21.95997,4888.8671 m -32.65601,-4888.8671 21.95998,4888.8671 m -32.65601,-4888.8671 21.95998,4888.8671 m -32.65603,-4888.8671 21.95998,4888.8671 m -32.65601,-4888.8671 21.95998,4888.8671 m -32.65601,-4888.8671 21.95998,4888.8671 m -32.65603,-4888.8671 21.95998,4888.8671 m -32.65601,-4888.8671 21.95998,4888.8671 m -32.65601,-4888.8671 21.95998,4888.8671 m -32.65603,-4888.8671 21.95999,4888.8671 m -32.65602,-4888.8671 21.95998,4888.8671 m -32.65601,-4888.8671 21.95997,4888.8671 m -32.65602,-4888.8671 21.95999,4888.8671 m -32.65602,-4888.8671 21.95998,4888.8671 m -32.65602,-4888.8671 21.95998,4888.8671 m -32.65601,-4888.8671 21.95998,4888.8671 m -32.65602,-4888.8671 21.95997,4888.8671 m -32.65601,-4888.8671 21.95998,4888.8671 m -32.65601,-4888.8671 21.95998,4888.8671 m -32.65603,-4888.8671 21.95998,4888.8671 m -32.65601,-4888.8671 21.95998,4888.8671 m -32.65601,-4888.8671 21.95998,4888.8671 m -32.65602,-4888.8671 21.95998,4888.8671 m -32.65602,-4888.8671 21.95998,4888.8671 m -32.65601,-4888.8671 21.95998,4888.8671 m -32.65602,-4888.8671 21.95999,4888.8671 m -32.65603,-4888.8671 21.95998,4888.8671 m -32.65601,-4888.8671 21.95998,4888.8671 m -32.65601,-4888.8671 21.95998,4888.8671 m -32.65603,-4888.8671 21.95998,4888.8671 m -32.65601,-4888.8671 21.95998,4888.8671 m -32.65601,-4888.8671 21.95997,4888.8671 m -32.65602,-4888.8671 21.95998,4888.8671 m -32.65601,-4888.8671 21.95998,4888.8671 m -32.65601,-4888.8671 21.95998,4888.8671 m -32.65603,-4888.8671 21.95999,4888.8671 m -32.65602,-4888.8671 21.95998,4888.8671 m -32.65601,-4888.8671 21.95998,4888.8671 m -32.65602,-4888.8671 21.95998,4888.8671 m -32.65602,-4888.8671 21.95998,4888.8671 m -32.65601,-4888.8671 21.95997,4888.8671 m -32.65601,-4888.8671 21.95998,4888.8671 m -32.65602,-4888.8671 21.95997,4888.8671 m -32.656,-4888.8671 21.95997,4888.8671 m -32.65601,-4888.8671 21.95998,4888.8671 m -32.65602,-4888.8671 21.95999,4888.8671 m -32.65603,-4888.8671 21.95998,4888.8671 m -32.65601,-4888.8671 21.95998,4888.8671 m -32.65602,-4888.8671 21.95999,4888.8671 m -32.65603,-4888.8671 21.95998,4888.8671 m -32.65601,-4888.8671 21.95998,4888.8671 m -32.65602,-4888.8671 21.95999,4888.8671 m -32.65604,-4888.8671 21.95999,4888.8671 m -32.65602,-4888.8671 21.95998,4888.8671 m -32.65601,-4888.8671 21.95997,4888.8671 m -32.65602,-4888.8671 21.95998,4888.8671 m -32.65601,-4888.8671 21.95997,4888.8671 m -32.65601,-4888.8671 21.95998,4888.8671 m -32.65602,-4888.8671 21.95999,4888.8671 m -32.65602,-4888.8671 21.95997,4888.8671 m -32.65601,-4888.8671 21.95998,4888.8671 m -32.65602,-4888.8671 21.95999,4888.8671 m -32.65603,-4888.8671 21.95998,4888.8671 m -32.65601,-4888.8671 21.95998,4888.8671 m -32.65601,-4888.8671 21.95998,4888.8671 m -32.65603,-4888.8671 21.95998,4888.8671 m -32.65601,-4888.8671 21.95998,4888.8671 m -32.65601,-4888.8671 21.95998,4888.8671 m -32.65603,-4888.8671 21.95998,4888.8671 m -32.65601,-4888.8671 21.95998,4888.8671 m -32.65601,-4888.8671 21.95997,4888.8671 m -32.65602,-4888.8671 21.95999,4888.8671 m -32.65602,-4888.8671 21.95997,4888.8671 m -32.65601,-4888.8671 21.95998,4888.8671 m -32.65602,-4888.8671 21.95999,4888.8671 m -32.65602,-4888.8671 21.95997,4888.8671 m -32.65601,-4888.8671 21.95998,4888.8671 m -32.65601,-4888.8671 21.95998,4888.8671"
       style="opacity:0.11000001;fill:none;stroke:#ffffff;stroke-width:2.60543108px;stroke-linecap:butt;stroke-linejoin:miter;stroke-opacity:1;display:inline"
       id="path2881"
       mask="url(#mask3754)" />
    <path
       sodipodi:type="arc"
       style="opacity:0.19736843;fill:#ffffff;fill-opacity:1;stroke:none;filter:url(#filter3938)"
       id="path3148"
       sodipodi:cx="425.63885"
       sodipodi:cy="224.54503"
       sodipodi:rx="99.602356"
       sodipodi:ry="20.422066"
       d="m 525.24121,224.54503 a 99.602356,20.422066 0 1 1 -199.20471,0 99.602356,20.422066 0 1 1 199.20471,0 z"
       transform="matrix(1.2805755,0,0,1.9298246,-221.89247,-189.79855)" />
  </g>
  <g
     inkscape:groupmode="layer"
     id="layer3"
     inkscape:label="Layer"
     style="opacity:0.54744526;display:inline" />
</svg>
