<?xml version="1.0" encoding="UTF-8" standalone="no"?>
<!-- Created with Inkscape (http://www.inkscape.org/) -->

<svg
   xmlns:dc="http://purl.org/dc/elements/1.1/"
   xmlns:cc="http://creativecommons.org/ns#"
   xmlns:rdf="http://www.w3.org/1999/02/22-rdf-syntax-ns#"
   xmlns:svg="http://www.w3.org/2000/svg"
   xmlns="http://www.w3.org/2000/svg"
   xmlns:xlink="http://www.w3.org/1999/xlink"
   xmlns:sodipodi="http://sodipodi.sourceforge.net/DTD/sodipodi-0.dtd"
   xmlns:inkscape="http://www.inkscape.org/namespaces/inkscape"
   width="1600"
   height="1200"
   id="svg5550"
   sodipodi:version="0.32"
   inkscape:version="0.47 r22583"
   sodipodi:docname="background.svg"
   inkscape:output_extension="org.inkscape.output.svg.inkscape"
   version="1.0"
   inkscape:export-filename="/home/bernie/svn/svn.berlios.de-fullstory/aptosid-art-kde-eros/trunk/kdm/background.png"
   inkscape:export-xdpi="90"
   inkscape:export-ydpi="90"
   style="display:inline;enable-background:new">
  <defs
     id="defs5552">
    <linearGradient
       id="linearGradient3285">
      <stop
         style="stop-color:#f5f4e5;stop-opacity:1;"
         offset="0"
         id="stop3287" />
      <stop
         style="stop-color:#eae7ca;stop-opacity:0;"
         offset="1"
         id="stop3289" />
    </linearGradient>
    <linearGradient
       id="linearGradient5105">
      <stop
         id="stop5107"
         offset="0"
         style="stop-color:#ffffff;stop-opacity:1;" />
      <stop
         style="stop-color:#e3dfba;stop-opacity:0.31764706;"
         offset="0.5"
         id="stop5109" />
      <stop
         id="stop5111"
         offset="0.75"
         style="stop-color:#e6e3c2;stop-opacity:0.15686275;" />
      <stop
         id="stop5113"
         offset="1"
         style="stop-color:#d2cb8f;stop-opacity:1;" />
    </linearGradient>
    <linearGradient
       inkscape:collect="always"
       id="linearGradient4656">
      <stop
         style="stop-color:#ffffff;stop-opacity:1;"
         offset="0"
         id="stop4658" />
      <stop
         style="stop-color:#ffffff;stop-opacity:0;"
         offset="1"
         id="stop4660" />
    </linearGradient>
    <linearGradient
       inkscape:collect="always"
       id="linearGradient4648">
      <stop
         style="stop-color:#ffffff;stop-opacity:1;"
         offset="0"
         id="stop4650" />
      <stop
         style="stop-color:#ffffff;stop-opacity:0;"
         offset="1"
         id="stop4652" />
    </linearGradient>
    <linearGradient
       id="linearGradient4067">
      <stop
         id="stop4071"
         offset="0"
         style="stop-color:#dbd4a7;stop-opacity:1" />
      <stop
         style="stop-color:#ae9a73;stop-opacity:1;"
         offset="1"
         id="stop4073" />
    </linearGradient>
    <linearGradient
       id="linearGradient3983">
      <stop
         id="stop3985"
         offset="0"
         style="stop-color:#f0eee4;stop-opacity:1;" />
      <stop
         style="stop-color:#d1c8a6;stop-opacity:1"
         offset="0.56076068"
         id="stop3987" />
      <stop
         id="stop3989"
         offset="1"
         style="stop-color:#ae9a73;stop-opacity:1;" />
    </linearGradient>
    <linearGradient
       id="linearGradient14240">
      <stop
         style="stop-color:#f0eee4;stop-opacity:1;"
         offset="0"
         id="stop14242" />
      <stop
         id="stop14244"
         offset="0.56076068"
         style="stop-color:#d1c8a6;stop-opacity:1" />
      <stop
         style="stop-color:#c1b294;stop-opacity:1"
         offset="1"
         id="stop14246" />
    </linearGradient>
    <radialGradient
       inkscape:collect="always"
       xlink:href="#linearGradient14240"
       id="radialGradient3523"
       cx="315.48007"
       cy="641.5343"
       fx="311.86389"
       fy="676.04456"
       r="56.041241"
       gradientTransform="matrix(-1.4949387,-3.942291,-7.9944223,1.8046287,6449.11,205.61861)"
       gradientUnits="userSpaceOnUse" />
    <radialGradient
       inkscape:collect="always"
       xlink:href="#linearGradient14240"
       id="radialGradient3585"
       cx="860.19861"
       cy="142.45493"
       fx="856.35199"
       fy="133.50508"
       r="62.748882"
       gradientTransform="matrix(9.5897919,-1.5145356,1.0954054,3.2170424,-7789.5916,1176.9786)"
       gradientUnits="userSpaceOnUse" />
    <filter
       inkscape:collect="always"
       id="filter3567">
      <feGaussianBlur
         inkscape:collect="always"
         stdDeviation="0.50134698"
         id="feGaussianBlur3569" />
    </filter>
    <linearGradient
       id="linearGradient3393">
      <stop
         id="stop3395"
         offset="0"
         style="stop-color:#ffffff;stop-opacity:0.63541669;" />
      <stop
         id="stop3401"
         offset="1"
         style="stop-color:#ffffff;stop-opacity:0;" />
    </linearGradient>
    <linearGradient
       id="linearGradient3599">
      <stop
         style="stop-color:#beb459;stop-opacity:0.52577317;"
         offset="0"
         id="stop3601" />
      <stop
         id="stop3607"
         offset="0.5"
         style="stop-color:#e3dfba;stop-opacity:0.31764706;" />
      <stop
         style="stop-color:#e6e3c2;stop-opacity:0.15686275;"
         offset="0.75"
         id="stop3609" />
      <stop
         style="stop-color:#eae7cb;stop-opacity:0;"
         offset="1"
         id="stop3603" />
    </linearGradient>
    <radialGradient
       inkscape:collect="always"
       xlink:href="#linearGradient14240"
       id="radialGradient14254"
       cx="526.97461"
       cy="673.03314"
       fx="531.40637"
       fy="860.49841"
       r="494.19247"
       gradientTransform="matrix(1.3384245,-3.2056782e-2,-2.8714494e-2,0.2525075,-149.38832,278.11216)"
       gradientUnits="userSpaceOnUse" />
    <radialGradient
       inkscape:collect="always"
       xlink:href="#linearGradient14240"
       id="radialGradient14282"
       cx="483.52332"
       cy="837.09186"
       fx="483.52332"
       fy="837.09186"
       r="497.8613"
       gradientTransform="matrix(1.2198199,6.0198061e-2,-5.6796695e-2,0.300124,-71.412632,274.39245)"
       gradientUnits="userSpaceOnUse" />
    <radialGradient
       inkscape:collect="always"
       xlink:href="#linearGradient14240"
       id="radialGradient14292"
       cx="376.28226"
       cy="814.75549"
       fx="398.15155"
       fy="924.69135"
       r="500.91"
       gradientTransform="matrix(1.2545029,8.2304072e-2,-5.4034893e-2,0.2625747,-101.31129,373.39558)"
       gradientUnits="userSpaceOnUse" />
    <radialGradient
       inkscape:collect="always"
       xlink:href="#linearGradient14240"
       id="radialGradient14302"
       cx="347.91254"
       cy="883.95398"
       fx="398.25253"
       fy="1018.1108"
       r="418.89886"
       gradientTransform="matrix(1.4639432,0.1726427,-9.613876e-2,0.3718534,-144.4289,300.15452)"
       gradientUnits="userSpaceOnUse" />
    <radialGradient
       inkscape:collect="always"
       xlink:href="#linearGradient3983"
       id="radialGradient3965"
       cx="-58.048279"
       cy="924.99969"
       fx="-25.031935"
       fy="1037.2043"
       r="394.22223"
       gradientTransform="matrix(1.9409466,-7.301172e-2,-2.9737947e-2,0.2989743,-56.476721,480.39431)"
       gradientUnits="userSpaceOnUse" />
    <radialGradient
       inkscape:collect="always"
       xlink:href="#linearGradient3983"
       id="radialGradient3997"
       cx="-50.850395"
       cy="964.25201"
       fx="-50.850395"
       fy="964.25201"
       r="354.74426"
       gradientTransform="matrix(2.0067848,-5.379495e-4,-4.3313558e-2,0.3132143,-61.017513,538.64591)"
       gradientUnits="userSpaceOnUse" />
    <radialGradient
       inkscape:collect="always"
       xlink:href="#linearGradient3983"
       id="radialGradient4005"
       cx="-25.177658"
       cy="997.08167"
       fx="-25.177658"
       fy="997.08167"
       r="323.63492"
       gradientTransform="matrix(1.7572209,0.1991776,-0.1004065,0.3953786,-44.753872,516.9795)"
       gradientUnits="userSpaceOnUse" />
    <radialGradient
       inkscape:collect="always"
       xlink:href="#linearGradient3983"
       id="radialGradient4013"
       cx="-81.007904"
       cy="1068.4584"
       fx="-81.007904"
       fy="1068.4584"
       r="297.37796"
       gradientTransform="matrix(1.7912124,0.3582135,-0.1983304,0.5837274,88.233033,390.10414)"
       gradientUnits="userSpaceOnUse" />
    <radialGradient
       inkscape:collect="always"
       xlink:href="#linearGradient3983"
       id="radialGradient4021"
       cx="-62.219593"
       cy="1104.7466"
       fx="-62.219593"
       fy="1104.7466"
       r="250.01747"
       gradientTransform="matrix(1.2074048,0.8680261,-0.5721072,0.7023507,446.44961,327.48679)"
       gradientUnits="userSpaceOnUse" />
    <radialGradient
       inkscape:collect="always"
       xlink:href="#linearGradient4067"
       id="radialGradient4065"
       cx="15.703704"
       cy="342.0629"
       fx="15.703704"
       fy="342.0629"
       r="181.74895"
       gradientTransform="matrix(2.1385197,-0.7424213,0.1085344,0.4550071,-57.140955,3.2567025)"
       gradientUnits="userSpaceOnUse" />
    <radialGradient
       inkscape:collect="always"
       xlink:href="#linearGradient4067"
       id="radialGradient4081"
       cx="41.155983"
       cy="358.73642"
       fx="41.155983"
       fy="358.73642"
       r="186.11832"
       gradientTransform="matrix(1.3818524,-0.2143564,1.045764e-2,0.4125342,-27.806903,55.194747)"
       gradientUnits="userSpaceOnUse" />
    <radialGradient
       inkscape:collect="always"
       xlink:href="#linearGradient4067"
       id="radialGradient4089"
       cx="85.481682"
       cy="429.63464"
       fx="85.481682"
       fy="429.63464"
       r="186.11832"
       gradientTransform="matrix(1.286086,-0.14107,-9.7154312e-3,0.4152052,-39.325489,109.62498)"
       gradientUnits="userSpaceOnUse" />
    <radialGradient
       inkscape:collect="always"
       xlink:href="#linearGradient4067"
       id="radialGradient4103"
       cx="69.96019"
       cy="442.70203"
       fx="69.96019"
       fy="442.70203"
       r="186.77565"
       gradientTransform="matrix(1.3511455,-3.8596277e-3,-5.2843963e-2,0.3896766,-32.771734,154.3672)"
       gradientUnits="userSpaceOnUse" />
    <radialGradient
       inkscape:collect="always"
       xlink:href="#linearGradient4067"
       id="radialGradient4111"
       cx="48.194386"
       cy="543.55798"
       fx="48.194386"
       fy="543.55798"
       r="186.87157"
       gradientTransform="matrix(1.4879909,-8.729074e-2,-2.9287092e-2,0.3783299,-59.305378,208.35447)"
       gradientUnits="userSpaceOnUse" />
    <radialGradient
       inkscape:collect="always"
       xlink:href="#linearGradient4067"
       id="radialGradient4119"
       cx="4.3009491"
       cy="608.17694"
       fx="4.3009491"
       fy="608.17694"
       r="186.30466"
       gradientTransform="matrix(1.5262089,-0.1383392,-1.6243919e-2,0.3721276,-75.514727,265.86075)"
       gradientUnits="userSpaceOnUse" />
    <radialGradient
       inkscape:collect="always"
       xlink:href="#linearGradient4067"
       id="radialGradient4127"
       cx="-34.165855"
       cy="686.78979"
       fx="-34.165855"
       fy="686.78979"
       r="168.85062"
       gradientTransform="matrix(1.3443898,-2.5076585e-3,-5.1066731e-2,0.3737445,-48.438457,309.80223)"
       gradientUnits="userSpaceOnUse" />
    <radialGradient
       inkscape:collect="always"
       xlink:href="#linearGradient4067"
       id="radialGradient4135"
       cx="-59.955067"
       cy="720.80249"
       fx="-59.955067"
       fy="720.80249"
       r="219.75371"
       gradientTransform="matrix(1.1221395,7.3620048e-2,-4.6545665e-2,0.2261819,-70.324844,468.11411)"
       gradientUnits="userSpaceOnUse" />
    <radialGradient
       inkscape:collect="always"
       xlink:href="#linearGradient4067"
       id="radialGradient4143"
       cx="-91.416634"
       cy="775.2019"
       fx="-91.416634"
       fy="775.2019"
       r="217.69675"
       gradientTransform="matrix(1.0830033,0.263796,-9.9127255e-2,0.2593644,-43.075494,508.05058)"
       gradientUnits="userSpaceOnUse" />
    <radialGradient
       inkscape:collect="always"
       xlink:href="#linearGradient4067"
       id="radialGradient4151"
       cx="-139.53056"
       cy="795.30939"
       fx="-139.53056"
       fy="795.30939"
       r="209.58392"
       gradientTransform="matrix(0.7787021,0.416167,-0.2561628,0.3922541,34.859336,449.94897)"
       gradientUnits="userSpaceOnUse" />
    <filter
       inkscape:collect="always"
       id="filter3826">
      <feGaussianBlur
         inkscape:collect="always"
         stdDeviation="2.0276126"
         id="feGaussianBlur3828" />
    </filter>
    <radialGradient
       inkscape:collect="always"
       xlink:href="#linearGradient3393"
       id="radialGradient4679"
       gradientUnits="userSpaceOnUse"
       gradientTransform="matrix(1.0115979,-1.4310913e-8,-1.245369e-8,-0.880316,-7.96602,1240.5239)"
       cx="798.33331"
       cy="625.83337"
       fx="798.33331"
       fy="625.83337"
       r="800" />
    <linearGradient
       inkscape:collect="always"
       xlink:href="#linearGradient4656"
       id="linearGradient4681"
       gradientUnits="userSpaceOnUse"
       gradientTransform="matrix(1,0,0,-1,427.57909,1120.1525)"
       x1="985.39563"
       y1="197.0545"
       x2="162.25334"
       y2="1066.1268" />
    <radialGradient
       inkscape:collect="always"
       xlink:href="#linearGradient3393"
       id="radialGradient4684"
       gradientUnits="userSpaceOnUse"
       gradientTransform="matrix(-0.2713179,0.9745342,-0.8480623,-0.2361072,1726.9741,79.35337)"
       cx="798.33331"
       cy="625.83337"
       fx="798.33331"
       fy="625.83337"
       r="800" />
    <linearGradient
       inkscape:collect="always"
       xlink:href="#linearGradient4648"
       id="linearGradient4687"
       gradientUnits="userSpaceOnUse"
       gradientTransform="matrix(1,0,0,-1,0,1213.4604)"
       x1="868.08929"
       y1="3.2577479"
       x2="510.14749"
       y2="1221.8145" />
    <radialGradient
       inkscape:collect="always"
       xlink:href="#linearGradient3393"
       id="radialGradient4690"
       gradientUnits="userSpaceOnUse"
       gradientTransform="matrix(0.3973838,0.9302776,-0.8095492,0.3458126,1104.4535,-608.08823)"
       cx="798.33331"
       cy="625.83337"
       fx="798.33331"
       fy="625.83337"
       r="800" />
    <linearGradient
       inkscape:collect="always"
       xlink:href="#linearGradient4648"
       id="linearGradient4692"
       gradientUnits="userSpaceOnUse"
       gradientTransform="matrix(0.7805593,-0.6250817,-0.6250817,-0.7805593,465.35737,1356.6495)"
       x1="868.08929"
       y1="3.2577479"
       x2="510.14749"
       y2="1221.8145" />
    <radialGradient
       inkscape:collect="always"
       xlink:href="#linearGradient3393"
       id="radialGradient4695"
       gradientUnits="userSpaceOnUse"
       gradientTransform="matrix(0.4286102,0.871259,-0.8731634,0.3238736,864.28048,-278.94003)"
       cx="798.33331"
       cy="625.83337"
       fx="798.33331"
       fy="625.83337"
       r="800" />
    <linearGradient
       inkscape:collect="always"
       xlink:href="#linearGradient4648"
       id="linearGradient4697"
       gradientUnits="userSpaceOnUse"
       gradientTransform="matrix(0.8418956,-0.5854253,-0.6742005,-0.7310391,174.96426,1561.1509)"
       x1="868.08929"
       y1="3.2577479"
       x2="510.14749"
       y2="1221.8145" />
    <linearGradient
       inkscape:collect="always"
       xlink:href="#linearGradient3599"
       id="linearGradient5093"
       gradientUnits="userSpaceOnUse"
       gradientTransform="matrix(1.0104029,0,0,1.0097666,-434.40385,-85.187764)"
       x1="876.83252"
       y1="1.7035885"
       x2="880.16583"
       y2="213.37892" />
    <linearGradient
       inkscape:collect="always"
       xlink:href="#linearGradient3599"
       id="linearGradient5096"
       gradientUnits="userSpaceOnUse"
       gradientTransform="matrix(1.0104029,0,0,1.0097666,-434.40383,-1133.2644)"
       x1="876.83252"
       y1="1.7035885"
       x2="880.16583"
       y2="213.37892" />
    <radialGradient
       inkscape:collect="always"
       xlink:href="#linearGradient5105"
       id="radialGradient5117"
       cx="1017.1227"
       cy="1169.199"
       fx="826.45801"
       fy="1118.8179"
       r="810.31982"
       gradientTransform="matrix(-1.2576485,-0.7232894,0.2627335,-0.4568371,1785.9672,2073.7728)"
       gradientUnits="userSpaceOnUse" />
    <filter
       inkscape:collect="always"
       id="filter5123"
       x="-0.11981718"
       width="1.2396344"
       y="-0.15981779"
       height="1.3196356">
      <feGaussianBlur
         inkscape:collect="always"
         stdDeviation="80.908531"
         id="feGaussianBlur5125" />
    </filter>
    <radialGradient
       inkscape:collect="always"
       xlink:href="#linearGradient3285"
       id="radialGradient3291"
       cx="1077.0621"
       cy="875.24115"
       fx="1109.4707"
       fy="934.8988"
       r="127.9353"
       gradientTransform="matrix(1.6620943,-0.811941,0.8250091,1.688845,-1435.1986,271.60531)"
       gradientUnits="userSpaceOnUse" />
    <linearGradient
       inkscape:collect="always"
       xlink:href="#linearGradient3599"
       id="linearGradient3331"
       gradientUnits="userSpaceOnUse"
       gradientTransform="matrix(1.0104029,0,0,1.0097666,-434.40385,-85.187764)"
       x1="762.11871"
       y1="558.30798"
       x2="1587.9286"
       y2="1190.1438" />
    <filter
       inkscape:collect="always"
       id="filter3357">
      <feGaussianBlur
         inkscape:collect="always"
         stdDeviation="29.713697"
         id="feGaussianBlur3359" />
    </filter>
    <filter
       inkscape:collect="always"
       id="filter3383"
       x="-0.2815049"
       width="1.5630099"
       y="-0.36952633"
       height="1.7390527">
      <feGaussianBlur
         inkscape:collect="always"
         stdDeviation="147.53218"
         id="feGaussianBlur3385" />
    </filter>
  </defs>
  <sodipodi:namedview
     id="base"
     pagecolor="#ffffff"
     bordercolor="#000000"
     borderopacity="1"
     inkscape:pageopacity="0.0"
     inkscape:pageshadow="0"
     inkscape:zoom="0.599375"
     inkscape:cx="800"
     inkscape:cy="600"
     inkscape:document-units="px"
     inkscape:current-layer="layer2"
     inkscape:window-width="1400"
     inkscape:window-height="992"
     inkscape:window-x="0"
     inkscape:window-y="0"
     height="1200px"
     width="1600px"
     borderlayer="true"
     showgrid="false"
     inkscape:window-maximized="0" />
  <metadata
     id="metadata5555">
    <rdf:RDF>
      <cc:Work
         rdf:about="">
        <dc:format>image/svg+xml</dc:format>
        <dc:type
           rdf:resource="http://purl.org/dc/dcmitype/StillImage" />
        <dc:title>aptosid wing</dc:title>
        <dc:date>28th September 2007</dc:date>
        <dc:creator>
          <cc:Agent>
            <dc:title>Bernard Gray</dc:title>
          </cc:Agent>
        </dc:creator>
        <dc:rights>
          <cc:Agent>
            <dc:title>Copyright</dc:title>
          </cc:Agent>
        </dc:rights>
        <dc:subject>
          <rdf:Bag>
            <rdf:li>aptosid 2007-04 eros</rdf:li>
          </rdf:Bag>
        </dc:subject>
        <dc:description>1600x1200 wallpaper for aptosid 2007=04 release (eros)</dc:description>
        <dc:contributor>
          <cc:Agent>
            <dc:title>Bernard Gray &lt;bernard.gray@gmail.com&gt;</dc:title>
          </cc:Agent>
        </dc:contributor>
        <cc:license
           rdf:resource="http://www.fsf.org/licensing/licenses/gpl.html" />
      </cc:Work>
    </rdf:RDF>
  </metadata>
  <g
     inkscape:label="background"
     inkscape:groupmode="layer"
     id="layer1"
     style="display:inline"
     transform="translate(427.57909,73.307893)">
    <rect
       y="-83.467514"
       x="-435.92029"
       height="1215.0117"
       width="1620.6396"
       id="rect5103"
       style="opacity:0.52272728;fill:url(#radialGradient5117);fill-opacity:1;fill-rule:evenodd;stroke:none;stroke-width:1px;stroke-linecap:butt;stroke-linejoin:miter;stroke-opacity:1;display:inline;filter:url(#filter5123)" />
    <rect
       style="opacity:0.98999999;fill:#eae7cb;fill-opacity:1;fill-rule:evenodd;stroke:#000000;stroke-width:1.01008475px;stroke-linecap:butt;stroke-linejoin:miter;stroke-opacity:0.32222224;display:inline"
       id="rect3347"
       width="1620.6396"
       height="1215.0117"
       x="-435.92029"
       y="-83.467514" />
    <rect
       y="-1131.5442"
       x="-435.92029"
       height="1215.0117"
       width="1620.6396"
       id="rect3618"
       style="opacity:0.78840906;fill:url(#linearGradient5096);fill-opacity:1;fill-rule:evenodd;stroke:none;stroke-width:1px;stroke-linecap:butt;stroke-linejoin:miter;stroke-opacity:1;display:inline"
       transform="scale(1,-1)" />
    <rect
       style="opacity:0.84659095;fill:url(#linearGradient5093);fill-opacity:1;fill-rule:evenodd;stroke:none;stroke-width:1px;stroke-linecap:butt;stroke-linejoin:miter;stroke-opacity:1;display:inline"
       id="rect2588"
       width="1620.6396"
       height="1215.0117"
       x="-435.92029"
       y="-83.467514" />
    <rect
       y="-83.467514"
       x="-435.92029"
       height="1215.0117"
       width="1620.6396"
       id="rect3329"
       style="opacity:0.84659095;fill:url(#linearGradient3331);fill-opacity:1;fill-rule:evenodd;stroke:none;stroke-width:1px;stroke-linecap:butt;stroke-linejoin:miter;stroke-opacity:1;display:inline" />
  </g>
  <g
     inkscape:groupmode="layer"
     id="layer3"
     inkscape:label="screen#1" />
  <g
     inkscape:groupmode="layer"
     id="layer7"
     inkscape:label="wings"
     style="opacity:0.35;display:none">
    <path
       style="fill:url(#radialGradient3523);fill-opacity:1;fill-rule:evenodd;stroke:none;stroke-width:0.30000001;stroke-linecap:butt;stroke-linejoin:miter;stroke-miterlimit:4;stroke-dasharray:none;stroke-opacity:1"
       d="M 324.72414,42.248551 C 646.27253,53.742599 1256.0719,-8.9140352 1354.3202,-8.7554196 C 1437.7396,-8.6207444 1236.5413,161.15153 1077.7063,216.54427 C 864.9784,290.73197 733.3141,229.18336 321.77623,162.55498 C -89.761595,95.926367 -0.3128794,30.629789 324.72414,42.248551 z"
       id="path2334"
       sodipodi:nodetypes="csssz" />
    <path
       style="fill:#ffffff;fill-opacity:1;fill-rule:evenodd;stroke:#000000;stroke-width:1.36114717px;stroke-linecap:butt;stroke-linejoin:miter;stroke-opacity:1"
       d="M -85.107923,150.80323 C -85.107923,150.80323 135.35925,246.0349 251.49582,437.70522 C 322.81331,555.40759 130.59026,571.75509 48.587992,484.11352 C -33.414522,396.47242 -114.80843,178.02165 -114.80843,178.02165 L -85.107923,150.80323 z"
       id="path2933"
       sodipodi:nodetypes="csscc" />
    <path
       style="fill:url(#radialGradient3585);fill-opacity:1;fill-rule:evenodd;stroke:none;stroke-width:0.45842159px;stroke-linecap:butt;stroke-linejoin:miter;stroke-opacity:1"
       d="M 160.02988,128.15563 C 160.02988,128.15563 1063.9076,189.84126 1136.6236,178.67281 C 1307.8816,152.36927 1231.0445,282.43884 914.96256,388.0449 C 668.65504,470.3386 134.97861,213.423 134.97861,213.423 L 160.02988,128.15563 z"
       id="path2336"
       sodipodi:nodetypes="csscc" />
    <path
       sodipodi:nodetypes="csscc"
       id="path2338"
       d="M 34.232558,205.3798 C 34.232558,205.3798 570.6809,324.06722 1005.2487,344.6228 C 1304.5213,358.77879 887.81367,526.24468 637.50181,512.11545 C 387.19008,497.98609 4.0016621,288.1055 4.0016621,288.1055 L 34.232558,205.3798 z"
       style="fill:url(#radialGradient14254);fill-opacity:1;fill-rule:evenodd;stroke:none;stroke-width:2.52875543px;stroke-linecap:butt;stroke-linejoin:miter;stroke-opacity:1" />
    <path
       style="fill:url(#radialGradient14282);fill-opacity:1;fill-rule:evenodd;stroke:none;stroke-width:2.52875543px;stroke-linecap:butt;stroke-linejoin:miter;stroke-opacity:1"
       d="M -74.517378,268.92702 C -74.517378,268.92702 456.85907,418.05945 890.23073,463.37421 C 1188.68,494.58088 765.90642,638.06774 516.37178,609.68 C 266.83702,581.29261 -107.90785,349.8234 -107.90785,349.8234 L -74.517378,268.92702 z"
       id="path2340"
       sodipodi:nodetypes="csscc" />
    <path
       sodipodi:nodetypes="csscc"
       id="path2342"
       d="M -194.56262,450.79815 C -194.56262,450.79815 363.0862,502.93406 806.81464,558.53063 C 1082.9719,593.13153 689.02929,707.09247 433.41284,694.34323 C 177.79631,681.59398 -221.74301,515.15435 -221.74301,515.15435 L -194.56262,450.79815 z"
       style="fill:url(#radialGradient14292);fill-opacity:1;fill-rule:evenodd;stroke:none;stroke-width:2.25439095px;stroke-linecap:butt;stroke-linejoin:miter;stroke-opacity:1" />
    <path
       style="opacity:0.67045456;fill:#ffffff;fill-opacity:1;fill-rule:evenodd;stroke:none;stroke-width:1px;stroke-linecap:butt;stroke-linejoin:miter;stroke-opacity:1;filter:url(#filter3567)"
       d="M 357.47183,704.86657 C 345.33719,679.3692 314.31638,628.62876 282.70021,562.04347 C 317.84037,639.41369 327.2386,651.61992 357.47183,704.86657 z"
       id="path14256"
       sodipodi:nodetypes="ccc"
       transform="matrix(-2.6993231,-5.4792409,-3.4937311,2.5133746,3779.3244,510.60394)" />
    <path
       style="opacity:0.64772728;fill:#ffffff;fill-opacity:1;fill-rule:evenodd;stroke:none;stroke-width:1px;stroke-linecap:butt;stroke-linejoin:miter;stroke-opacity:1;filter:url(#filter3567)"
       d="M 278.52476,564.76281 C 298.32701,604.76018 308.67925,621.30169 340.31428,666.31491 C 322.17176,643.49916 324.5883,644.50975 341.64591,676.1744 C 301.00312,607.12031 296.30704,605.80268 278.52476,564.76281 z"
       id="path3455"
       sodipodi:nodetypes="cccc"
       transform="matrix(-4.3982432,-5.8071764,-3.5459354,4.0800852,4420.2066,-674.0641)" />
    <path
       transform="matrix(-3.3922635,-5.1837591,-3.4771561,2.7572448,4131.0242,117.68235)"
       sodipodi:nodetypes="ccc"
       id="path3587"
       d="M 357.47183,704.86657 C 345.33719,679.3692 314.31638,628.62876 282.70021,562.04347 C 317.84037,639.41369 327.2386,651.61992 357.47183,704.86657 z"
       style="opacity:0.67045456;fill:#ffffff;fill-opacity:1;fill-rule:evenodd;stroke:none;stroke-width:1px;stroke-linecap:butt;stroke-linejoin:miter;stroke-opacity:1;filter:url(#filter3567)" />
    <path
       transform="matrix(-2.4945377,-5.6188861,-3.5885069,2.3828177,3627.9185,741.29985)"
       sodipodi:nodetypes="ccc"
       id="path14284"
       d="M 357.47183,704.86657 C 345.33719,679.3692 314.31638,628.62876 282.70021,562.04347 C 317.84037,639.41369 327.2386,651.61992 357.47183,704.86657 z"
       style="opacity:0.67045456;fill:#ffffff;fill-opacity:1;fill-rule:evenodd;stroke:none;stroke-width:1px;stroke-linecap:butt;stroke-linejoin:miter;stroke-opacity:1;filter:url(#filter3567)" />
    <path
       style="opacity:0.67045456;fill:#ffffff;fill-opacity:1;fill-rule:evenodd;stroke:none;stroke-width:1px;stroke-linecap:butt;stroke-linejoin:miter;stroke-opacity:1;filter:url(#filter3567)"
       d="M 357.47183,704.86657 C 345.33719,679.3692 314.31638,628.62876 282.70021,562.04347 C 317.84037,639.41369 327.2386,651.61992 357.47183,704.86657 z"
       id="path14294"
       sodipodi:nodetypes="ccc"
       transform="matrix(-1.9993056,-5.5315934,-3.1945025,2.4518995,3105.8893,767.59103)" />
    <path
       style="fill:url(#radialGradient14302);fill-opacity:1;fill-rule:evenodd;stroke:none;stroke-width:2.37979341px;stroke-linecap:butt;stroke-linejoin:miter;stroke-opacity:1"
       d="M -117.39602,427.71864 C -117.39602,427.71864 225.1588,553.66925 606.20725,645.23367 C 938.91037,725.18091 620.50074,812.85549 391.6469,775.33117 C 162.79306,737.80687 -158.19835,502.81724 -158.19835,502.81724 L -117.39602,427.71864 z"
       id="path2344"
       sodipodi:nodetypes="csscc" />
    <path
       sodipodi:nodetypes="csscc"
       id="path2961"
       d="M -126.4209,168.76472 C -126.4209,168.76472 116.49262,232.76588 269.20287,118.26094 C 317.79935,81.822411 306.00947,-9.1213902 148.43099,34.047356 C 44.162108,62.611891 -133.13785,145.76189 -133.13785,145.76189 L -126.4209,168.76472 z"
       style="fill:url(#radialGradient4065);fill-opacity:1;fill-rule:evenodd;stroke:none;stroke-width:0.8837148px;stroke-linecap:butt;stroke-linejoin:miter;stroke-opacity:1" />
    <path
       transform="matrix(-1.3768305,-5.7109095,-2.8895732,2.280966,2549.5574,985.31391)"
       sodipodi:nodetypes="ccc"
       id="path14304"
       d="M 357.47183,704.86657 C 345.33719,679.3692 314.31638,628.62876 282.70021,562.04347 C 317.84037,639.41369 327.2386,651.61992 357.47183,704.86657 z"
       style="opacity:0.67045456;fill:#ffffff;fill-opacity:1;fill-rule:evenodd;stroke:none;stroke-width:1px;stroke-linecap:butt;stroke-linejoin:miter;stroke-opacity:1;filter:url(#filter3567)" />
    <path
       sodipodi:nodetypes="csscc"
       id="path14314"
       d="M -251.3724,684.41505 C -251.3724,684.41505 212.66643,614.72388 557.5444,660.22483 C 769.32914,688.16619 436.35133,843.59189 227.48028,866.28245 C 18.609326,888.97306 -284.19673,760.39997 -284.19673,760.39997 L -251.3724,684.41505 z"
       style="fill:url(#radialGradient3965);fill-opacity:1;fill-rule:evenodd;stroke:none;stroke-width:2.13934016px;stroke-linecap:butt;stroke-linejoin:miter;stroke-opacity:1" />
    <path
       style="fill:url(#radialGradient3997);fill-opacity:1;fill-rule:evenodd;stroke:none;stroke-width:2.01331782px;stroke-linecap:butt;stroke-linejoin:miter;stroke-opacity:1"
       d="M -234.40331,726.361 C -234.40331,726.361 181.55556,699.61728 473.85513,776.95494 C 653.35214,824.447 336.62308,948.96632 150.89616,952.3329 C -34.830779,955.69944 -276.12921,799.24839 -276.12921,799.24839 L -234.40331,726.361 z"
       id="path14312"
       sodipodi:nodetypes="csscc" />
    <path
       style="fill:url(#radialGradient4005);fill-opacity:1;fill-rule:evenodd;stroke:none;stroke-width:1.8301301px;stroke-linecap:butt;stroke-linejoin:miter;stroke-opacity:1"
       d="M -247.57766,755.16514 C -247.57766,755.16514 123.59066,768.41942 377.63923,892.95503 C 533.64716,969.43035 245.77271,1065.0034 82.184071,1034.7307 C -81.404595,1004.4587 -287.30582,815.48178 -287.30582,815.48178 L -247.57766,755.16514 z"
       id="path14310"
       sodipodi:nodetypes="csscc" />
    <path
       style="opacity:0.67045456;fill:#ffffff;fill-opacity:1;fill-rule:evenodd;stroke:none;stroke-width:1px;stroke-linecap:butt;stroke-linejoin:miter;stroke-opacity:1;filter:url(#filter3567)"
       d="M 357.47183,704.86657 C 345.33719,679.3692 314.31638,628.62876 282.70021,562.04347 C 317.84037,639.41369 327.2386,651.61992 357.47183,704.86657 z"
       id="path4027"
       sodipodi:nodetypes="ccc"
       transform="matrix(-5.6093538,4.4545182,-2.6427411,-3.2510567,3361.055,1441.1811)" />
    <path
       sodipodi:nodetypes="csscc"
       id="path14308"
       d="M -260.66673,774.45877 C -260.66673,774.45877 78.094162,844.52399 284.7267,1020.6153 C 411.6173,1128.7506 125.7435,1191.8784 -18.222459,1133.8857 C -162.18881,1075.8938 -310.41858,835.46993 -310.41858,835.46993 L -260.66673,774.45877 z"
       style="fill:url(#radialGradient4013);fill-opacity:1;fill-rule:evenodd;stroke:none;stroke-width:1.87898791px;stroke-linecap:butt;stroke-linejoin:miter;stroke-opacity:1" />
    <path
       transform="matrix(-7.0625765,5.6970645,-1.6246342,-5.4473733,3162.7972,2484.6379)"
       sodipodi:nodetypes="ccc"
       id="path4029"
       d="M 357.47183,704.86657 C 345.33719,679.3692 314.31638,628.62876 282.70021,562.04347 C 317.84037,639.41369 327.2386,651.61992 357.47183,704.86657 z"
       style="opacity:0.67045456;fill:#ffffff;fill-opacity:1;fill-rule:evenodd;stroke:none;stroke-width:1px;stroke-linecap:butt;stroke-linejoin:miter;stroke-opacity:1;filter:url(#filter3567)" />
    <path
       style="fill:url(#radialGradient4021);fill-opacity:1;fill-rule:evenodd;stroke:none;stroke-width:1.47683752px;stroke-linecap:butt;stroke-linejoin:miter;stroke-opacity:1"
       d="M -274.48008,821.27385 C -274.48008,821.27385 23.723395,959.8806 152.50119,1175.7118 C 231.58203,1308.2506 -48.29983,1287.7014 -148.76916,1183.4426 C -249.23831,1079.1836 -322.66404,843.01982 -322.66404,843.01982 L -274.48008,821.27385 z"
       id="path14306"
       sodipodi:nodetypes="csscc" />
    <path
       style="opacity:0.67045456;fill:#ffffff;fill-opacity:1;fill-rule:evenodd;stroke:none;stroke-width:1px;stroke-linecap:butt;stroke-linejoin:miter;stroke-opacity:1;filter:url(#filter3567)"
       d="M 357.47183,704.86657 C 345.33719,679.3692 314.31638,628.62876 282.70021,562.04347 C 317.84037,639.41369 327.2386,651.61992 357.47183,704.86657 z"
       id="path4023"
       sodipodi:nodetypes="ccc"
       transform="matrix(-5.0195888,5.4387574,-3.8744213,-2.5668847,4080.4456,611.99763)" />
    <path
       transform="matrix(-4.8972729,5.2673173,-3.243645,-2.7020402,3585.4712,793.44895)"
       sodipodi:nodetypes="ccc"
       id="path4025"
       d="M 357.47183,704.86657 C 345.33719,679.3692 314.31638,628.62876 282.70021,562.04347 C 317.84037,639.41369 327.2386,651.61992 357.47183,704.86657 z"
       style="opacity:0.67045456;fill:#ffffff;fill-opacity:1;fill-rule:evenodd;stroke:none;stroke-width:1px;stroke-linecap:butt;stroke-linejoin:miter;stroke-opacity:1;filter:url(#filter3567)" />
    <path
       style="opacity:0.67045456;fill:#ffffff;fill-opacity:1;fill-rule:evenodd;stroke:none;stroke-width:1px;stroke-linecap:butt;stroke-linejoin:miter;stroke-opacity:1;filter:url(#filter3567)"
       d="M 357.47183,704.86657 C 345.33719,679.3692 314.31638,628.62876 282.70021,562.04347 C 317.84037,639.41369 327.2386,651.61992 357.47183,704.86657 z"
       id="path4031"
       sodipodi:nodetypes="ccc"
       transform="matrix(-7.2024606,3.4178022,-0.5189451,-5.6778354,2455.3788,3385.6416)" />
    <path
       style="fill:#dfdbc3;fill-opacity:1;fill-rule:evenodd;stroke:none;stroke-width:0.8837148px;stroke-linecap:butt;stroke-linejoin:miter;stroke-opacity:1;filter:url(#filter3826)"
       d="M 179.32168,167.14021 C 177.08859,167.13889 174.77075,167.22961 172.40866,167.35245 C 232.65574,170.7666 241.0209,221.22751 214.55385,246.94319 C 154.30031,305.4862 61.647173,319.64875 -9.9375,320.46986 C 63.122252,321.27041 163.8663,309.21289 227.95541,246.94319 C 255.34726,220.32897 245.44949,167.17922 179.32168,167.14021 z"
       id="path3214"
       transform="matrix(1.1221395,7.3620048e-2,-0.2291636,1.1135871,61.306598,-171.52985)" />
    <path
       style="fill:url(#radialGradient4081);fill-opacity:1;fill-rule:evenodd;stroke:none;stroke-width:0.8837148px;stroke-linecap:butt;stroke-linejoin:miter;stroke-opacity:1"
       d="M -121.16831,211.30355 C -121.16831,211.30355 106.98499,306.54624 270.97962,210.25511 C 323.16711,179.6127 323.76647,86.342815 164.5089,110.02582 C 59.128973,125.69674 -124.65542,187.24108 -124.65542,187.24108 L -121.16831,211.30355 z"
       id="path4043"
       sodipodi:nodetypes="csscc" />
    <path
       id="path3830"
       d="M 199.42475,242.50104 C 197.19166,242.49972 194.87382,242.59044 192.51173,242.71328 C 252.75881,246.12743 261.12397,296.58834 234.65692,322.30402 C 174.40338,380.84703 81.750269,395.00958 10.165593,395.83069 C 83.225348,396.63124 183.96937,384.57372 248.05848,322.30402 C 275.45033,295.6898 265.55256,242.54005 199.42475,242.50104 z"
       style="fill:#dfdbc3;fill-opacity:1;fill-rule:evenodd;stroke:none;stroke-width:0.8837148px;stroke-linecap:butt;stroke-linejoin:miter;stroke-opacity:1;filter:url(#filter3826)"
       transform="matrix(1.1221395,7.3620048e-2,-0.2291636,1.1135871,61.306598,-171.52985)" />
    <path
       sodipodi:nodetypes="csscc"
       id="path4045"
       d="M -117.01125,290.57983 C -117.01125,290.57983 111.14205,385.8225 275.13668,289.53137 C 327.32417,258.88896 327.92352,165.61908 168.66597,189.30209 C 63.28603,204.97303 -120.49836,266.51735 -120.49836,266.51735 L -117.01125,290.57983 z"
       style="fill:url(#radialGradient4089);fill-opacity:1;fill-rule:evenodd;stroke:none;stroke-width:0.8837148px;stroke-linecap:butt;stroke-linejoin:miter;stroke-opacity:1" />
    <path
       style="fill:#dfdbc3;fill-opacity:1;fill-rule:evenodd;stroke:none;stroke-width:0.8837148px;stroke-linecap:butt;stroke-linejoin:miter;stroke-opacity:1;filter:url(#filter3826)"
       d="M 219.42475,313.2227 C 217.19166,313.22138 214.87382,313.3121 212.51173,313.43494 C 272.75881,316.84909 281.12397,367.31 254.65692,393.02568 C 194.40338,451.56869 101.75027,465.73124 30.165593,466.55235 C 103.22535,467.3529 203.96937,455.29538 268.05848,393.02568 C 295.45033,366.41146 285.55256,313.26171 219.42475,313.2227 z"
       id="path3832"
       transform="matrix(1.1221395,7.3620048e-2,-0.2291636,1.1135871,61.306598,-171.52985)" />
    <path
       style="fill:url(#radialGradient4103);fill-opacity:1;fill-rule:evenodd;stroke:none;stroke-width:0.8837148px;stroke-linecap:butt;stroke-linejoin:miter;stroke-opacity:1"
       d="M -131.168,342.73685 C -131.168,342.73685 85.415162,457.37417 255.27315,373.72793 C 309.32651,347.10946 317.94458,253.15495 159.00293,264.00915 C 53.832038,271.19129 -132.53254,318.20017 -132.53254,318.20017 L -131.168,342.73685 z"
       id="path4047"
       sodipodi:nodetypes="csscc" />
    <path
       id="path3834"
       d="M 219.42475,373.2227 C 217.19166,373.22138 214.87382,373.3121 212.51173,373.43494 C 272.75881,376.84909 281.12397,427.31 254.65692,453.02568 C 194.40338,511.56869 101.75027,525.73124 30.165593,526.55235 C 103.22535,527.3529 203.96937,515.29538 268.05848,453.02568 C 295.45033,426.41146 285.55256,373.26171 219.42475,373.2227 z"
       style="fill:#dfdbc3;fill-opacity:1;fill-rule:evenodd;stroke:none;stroke-width:0.8837148px;stroke-linecap:butt;stroke-linejoin:miter;stroke-opacity:1;filter:url(#filter3826)"
       transform="matrix(1.0655667,6.9908493e-2,-0.2176102,1.0574455,68.013047,-135.89133)" />
    <path
       sodipodi:nodetypes="csscc"
       id="path4049"
       d="M -166.22548,396.66127 C -166.22548,396.66127 41.71461,523.92324 214.86182,449.12589 C 269.96192,425.32336 283.95096,331.27396 125.84225,333.43923 C 21.222514,334.87198 -166.15411,371.90066 -166.15411,371.90066 L -166.22548,396.66127 z"
       style="fill:url(#radialGradient4111);fill-opacity:1;fill-rule:evenodd;stroke:none;stroke-width:0.8837148px;stroke-linecap:butt;stroke-linejoin:miter;stroke-opacity:1" />
    <path
       transform="matrix(0.9863648,6.4712302e-2,-0.1921929,0.933934,46.420738,-10.653923)"
       style="fill:#dfdbc3;fill-opacity:1;fill-rule:evenodd;stroke:none;stroke-width:0.8837148px;stroke-linecap:butt;stroke-linejoin:miter;stroke-opacity:1;filter:url(#filter3826)"
       d="M 219.42475,373.2227 C 217.19166,373.22138 214.87382,373.3121 212.51173,373.43494 C 272.75881,376.84909 281.12397,427.31 254.65692,453.02568 C 194.40338,511.56869 101.75027,525.73124 30.165593,526.55235 C 103.22535,527.3529 203.96937,515.29538 268.05848,453.02568 C 295.45033,426.41146 285.55256,373.26171 219.42475,373.2227 z"
       id="path3836" />
    <path
       style="fill:url(#radialGradient4119);fill-opacity:1;fill-rule:evenodd;stroke:none;stroke-width:0.8837148px;stroke-linecap:butt;stroke-linejoin:miter;stroke-opacity:1"
       d="M -213.46078,458.76311 C -213.46078,458.76311 -16.700123,600.58088 159.6634,536.66087 C 215.78698,516.31981 236.13381,422.54408 79.670661,414.322 C -23.860229,408.88149 -211.67456,433.83694 -211.67456,433.83694 L -213.46078,458.76311 z"
       id="path4051"
       sodipodi:nodetypes="csscc" />
    <path
       id="path3838"
       d="M 219.42475,373.2227 C 217.19166,373.22138 214.87382,373.3121 212.51173,373.43494 C 272.75881,376.84909 281.12397,427.31 254.65692,453.02568 C 194.40338,511.56869 101.75027,525.73124 30.165593,526.55235 C 103.22535,527.3529 203.96937,515.29538 268.05848,453.02568 C 295.45033,426.41146 285.55256,373.26171 219.42475,373.2227 z"
       style="fill:#dfdbc3;fill-opacity:1;fill-rule:evenodd;stroke:none;stroke-width:0.8837148px;stroke-linecap:butt;stroke-linejoin:miter;stroke-opacity:1;filter:url(#filter3826)"
       transform="matrix(0.9266713,0.2579199,-0.3753596,0.9030431,83.308084,44.156695)" />
    <path
       sodipodi:nodetypes="csscc"
       id="path4053"
       d="M -268.01335,539.0565 C -268.01335,539.0565 -89.686306,667.58802 70.154534,609.65637 C 121.02016,591.22098 139.46077,506.23065 -2.344058,498.77886 C -96.175611,493.84805 -266.39449,516.46556 -266.39449,516.46556 L -268.01335,539.0565 z"
       style="fill:url(#radialGradient4127);fill-opacity:1;fill-rule:evenodd;stroke:none;stroke-width:0.80092359px;stroke-linecap:butt;stroke-linejoin:miter;stroke-opacity:1" />
    <path
       transform="matrix(0.8998704,0.3054323,-0.4241676,0.8125814,17.750927,149.00242)"
       style="fill:#dfdbc3;fill-opacity:1;fill-rule:evenodd;stroke:none;stroke-width:0.8837148px;stroke-linecap:butt;stroke-linejoin:miter;stroke-opacity:1;filter:url(#filter3826)"
       d="M 219.42475,373.2227 C 217.19166,373.22138 214.87382,373.3121 212.51173,373.43494 C 272.75881,376.84909 281.12397,427.31 254.65692,453.02568 C 194.40338,511.56869 101.75027,525.73124 30.165593,526.55235 C 103.22535,527.3529 203.96937,515.29538 268.05848,453.02568 C 295.45033,426.41146 285.55256,373.26171 219.42475,373.2227 z"
       id="path3840" />
    <path
       style="fill:url(#radialGradient4135);fill-opacity:1;fill-rule:evenodd;stroke:none;stroke-width:0.86572385px;stroke-linecap:butt;stroke-linejoin:miter;stroke-opacity:1"
       d="M -417.40156,608.87425 C -417.40156,608.87425 -220.64625,683.69707 1.9460632,687.11223 C 138.63698,689.20929 50.62418,598.68953 -66.453743,584.14424 C -183.53194,569.59921 -410.24466,588.60641 -410.24466,588.60641 L -417.40156,608.87425 z"
       id="path2963"
       sodipodi:nodetypes="csscc" />
    <path
       id="path3842"
       d="M 219.42475,373.2227 C 217.19166,373.22138 214.87382,373.3121 212.51173,373.43494 C 272.75881,376.84909 281.12397,427.31 254.65692,453.02568 C 194.40338,511.56869 101.75027,525.73124 30.165593,526.55235 C 103.22535,527.3529 203.96937,515.29538 268.05848,453.02568 C 295.45033,426.41146 285.55256,373.26171 219.42475,373.2227 z"
       style="fill:#dfdbc2;fill-opacity:1;fill-rule:evenodd;stroke:none;stroke-width:0.8837148px;stroke-linecap:butt;stroke-linejoin:miter;stroke-opacity:1;filter:url(#filter3826)"
       transform="matrix(0.86101,0.3415463,-0.4193978,0.4440726,-7.7548181,385.78455)" />
    <path
       sodipodi:nodetypes="csscc"
       id="path4055"
       d="M -456.19223,634.86762 C -456.19223,634.86762 -270.64211,729.34926 -52.456745,754.31004 C 81.52796,769.63798 4.3352688,669.83651 -109.12685,643.84976 C -222.58926,617.86324 -447.10255,615.11825 -447.10255,615.11825 L -456.19223,634.86762 z"
       style="fill:url(#radialGradient4143);fill-opacity:1;fill-rule:evenodd;stroke:none;stroke-width:0.86572385px;stroke-linecap:butt;stroke-linejoin:miter;stroke-opacity:1" />
    <path
       transform="matrix(0.7624101,0.4964202,-0.4849153,0.3736478,-10.650034,445.17804)"
       style="fill:#dfdbc2;fill-opacity:1;fill-rule:evenodd;stroke:none;stroke-width:0.8837148px;stroke-linecap:butt;stroke-linejoin:miter;stroke-opacity:1;filter:url(#filter3826)"
       d="M 219.42475,373.2227 C 217.19166,373.22138 214.87382,373.3121 212.51173,373.43494 C 272.75881,376.84909 281.12397,427.31 254.65692,453.02568 C 194.40338,511.56869 101.75027,525.73124 30.165593,526.55235 C 103.22535,527.3529 203.96937,515.29538 268.05848,453.02568 C 295.45033,426.41146 285.55256,373.26171 219.42475,373.2227 z"
       id="path3844" />
    <path
       style="fill:url(#radialGradient4151);fill-opacity:1;fill-rule:evenodd;stroke:none;stroke-width:0.86572385px;stroke-linecap:butt;stroke-linejoin:miter;stroke-opacity:1"
       d="M -497.69112,615.45948 C -497.69112,615.45948 -335.17443,741.07906 -129.2537,801.90137 C -2.8005209,839.25137 -60.00281,725.96699 -164.84925,681.2176 C -269.696,636.46836 -485.53565,597.02237 -485.53565,597.02237 L -497.69112,615.45948 z"
       id="path4057"
       sodipodi:nodetypes="csscc" />
    <path
       id="path3846"
       d="M 219.42475,373.2227 C 217.19166,373.22138 214.87382,373.3121 212.51173,373.43494 C 272.75881,376.84909 281.12397,427.31 254.65692,453.02568 C 194.40338,511.56869 101.75027,525.73124 30.165593,526.55235 C 103.22535,527.3529 203.96937,515.29538 268.05848,453.02568 C 295.45033,426.41146 285.55256,373.26171 219.42475,373.2227 z"
       style="fill:#dfdbc2;fill-opacity:1;fill-rule:evenodd;stroke:none;stroke-width:0.8837148px;stroke-linecap:butt;stroke-linejoin:miter;stroke-opacity:1;filter:url(#filter3826)"
       transform="matrix(0.6836614,0.5530293,-0.5077898,0.2527121,-51.090403,533.03365)" />
  </g>
  <g
     inkscape:groupmode="layer"
     id="layer9"
     inkscape:label="flare"
     style="display:inline">
    <rect
       style="opacity:0.45454544;fill:#5f6428;fill-opacity:0.99215686;stroke:none;stroke-width:10.39999962;stroke-linecap:butt;stroke-linejoin:round;stroke-miterlimit:4;stroke-dasharray:none;stroke-opacity:1"
       id="rect2685"
       width="1631.4482"
       height="1224.6797"
       x="-17.495426"
       y="-13.745132" />
    <path
       sodipodi:type="arc"
       style="opacity:1;fill:url(#radialGradient3291);fill-opacity:1;stroke:none;stroke-width:10.39999962;stroke-linecap:butt;stroke-linejoin:round;stroke-miterlimit:4;stroke-dasharray:none;stroke-opacity:1;filter:url(#filter3357)"
       id="path3283"
       sodipodi:cx="1077.0621"
       sodipodi:cy="875.24115"
       sodipodi:rx="683.41504"
       sodipodi:ry="683.41504"
       d="M 1760.4772,875.24115 A 683.41504,683.41504 0 1 1 393.64709,875.24115 A 683.41504,683.41504 0 1 1 1760.4772,875.24115 z"
       transform="matrix(0.9776,0,0,1,39.434689,0)" />
    <rect
       style="opacity:0.59659095;fill:#eae7ca;fill-opacity:0.99215686;stroke:#fdfdfd;stroke-width:20;stroke-linecap:butt;stroke-linejoin:round;stroke-miterlimit:4;stroke-dasharray:none;stroke-opacity:1;filter:url(#filter3383)"
       id="rect3361"
       width="1237.8014"
       height="938.1922"
       x="-133.40262"
       y="-72.792191"
       ry="135.58955"
       transform="matrix(0.9397952,0.1766911,0.4067325,1.0494848,-149.43176,-109.94306)"
       inkscape:transform-center-x="709.90097"
       inkscape:transform-center-y="-542.53317" />
  </g>
  <g
     inkscape:groupmode="layer"
     id="layer8"
     inkscape:label="gradients"
     style="display:inline">
    <path
       style="opacity:0.63855423;fill:url(#radialGradient4679);fill-opacity:1;fill-rule:evenodd;stroke:url(#linearGradient4681);stroke-width:3.20000005;stroke-linecap:butt;stroke-linejoin:miter;stroke-miterlimit:4;stroke-dasharray:none;stroke-opacity:1;display:inline"
       d="M -9.65205,5.26248 C 455.83801,15.622858 906.89603,242.82 1213.8323,589.30292 C 1414.1708,816.18509 1546.8985,1098.4831 1608.9048,1393.8455 C 1608.9048,924.34373 1608.9048,454.84195 1608.9048,-14.65982 C 1069.3858,-14.65982 529.8669,-14.65982 -9.65205,-14.65982 C -9.65205,-8.019053 -9.65205,-1.378287 -9.65205,5.26248 z"
       id="rect3972" />
    <path
       style="opacity:0.63855423;fill:url(#radialGradient4684);fill-opacity:1;fill-rule:evenodd;stroke:url(#linearGradient4687);stroke-width:3.20000005;stroke-linecap:butt;stroke-linejoin:miter;stroke-miterlimit:4;stroke-dasharray:none;stroke-opacity:1;display:inline"
       d="M 537.4234,-253.57703 C 422.55637,197.63678 520.45223,693.10453 771.91792,1081.7242 C 936.75513,1335.5741 1173.1115,1539.1532 1441.0217,1678.106 C 942.33014,1557.3368 443.63859,1436.5676 -55.052967,1315.7985 C -48.494377,821.82003 -41.935787,327.8416 -35.377197,-166.13683 C 155.55634,-195.28356 346.48987,-224.43029 537.4234,-253.57703 z"
       id="path4644" />
    <path
       style="opacity:0.63855423;fill:url(#radialGradient4690);fill-opacity:1;fill-rule:evenodd;stroke:url(#linearGradient4692);stroke-width:3.20000005;stroke-linecap:butt;stroke-linejoin:miter;stroke-miterlimit:4;stroke-dasharray:none;stroke-opacity:1;display:inline"
       d="M 35.871174,-186.24953 C 168.99411,95.278354 384.46584,328.69492 605.7339,543.7578 C 866.82731,783.23208 1161.2092,1012.2378 1511.856,1097.3935 C 1631.1756,1123.7065 1759.8206,1125.125 1874.4162,1078.3704 C 1430.8941,1337.9163 919.35161,1498.9675 402.4688,1488.9196 C 250.19017,1482.6485 69.06497,1483.5629 -32.023306,1347.5358 C -167.16291,1168.4189 -170.25961,929.80126 -162.95328,715.04846 C -149.7062,486.78805 -113.01011,258.8465 -36.420513,42.921278 C -12.323284,-33.46899 11.773945,-109.85926 35.871174,-186.24953 z"
       id="path4666" />
    <path
       style="opacity:0.63855423;fill:url(#radialGradient4695);fill-opacity:1;fill-rule:evenodd;stroke:url(#linearGradient4697);stroke-width:3.21620321;stroke-linecap:butt;stroke-linejoin:miter;stroke-miterlimit:4;stroke-dasharray:none;stroke-opacity:1;display:inline"
       d="M -361.65881,174.06787 C -240.10865,395.26466 -27.686285,547.92777 177.82174,685.36864 C 533.84286,907.27589 935.50703,1082.4867 1359.4088,1103.6128 C 1474.8076,1107.1141 1591.9842,1095.5657 1701.4185,1057.2144 C 1786.8068,1202.2613 1879.0532,1364.928 1859.3634,1539.0997 C 1841.257,1661.817 1700.9434,1698.4957 1594.781,1689.0278 C 1133.5402,1652.8935 722.71737,1390.4771 395.62182,1077.619 C 144.22813,836.77035 -69.610258,557.29358 -249.34784,260.42711 C -286.78483,231.6407 -324.22182,202.85429 -361.65881,174.06787 z"
       id="path4672" />
  </g>
  <g
     inkscape:groupmode="layer"
     id="layer2"
     inkscape:label="screen"
     style="display:none">
    <rect
       y="-13.745132"
       x="-17.495426"
       height="1224.6797"
       width="1631.4482"
       id="rect2671"
       style="opacity:0.45454544;fill:#5f6428;fill-opacity:0.99215686;stroke:none;display:inline;enable-background:new" />
  </g>
</svg>
