<?xml version="1.0" encoding="UTF-8" standalone="no"?>
<!-- Generator: Adobe Illustrator 12.0.0, SVG Export Plug-In . SVG Version: 6.00 Build 51448)  -->

<svg
   xmlns:ns="http://ns.adobe.com/SaveForWeb/1.0/"
   xmlns:dc="http://purl.org/dc/elements/1.1/"
   xmlns:cc="http://creativecommons.org/ns#"
   xmlns:rdf="http://www.w3.org/1999/02/22-rdf-syntax-ns#"
   xmlns:svg="http://www.w3.org/2000/svg"
   xmlns="http://www.w3.org/2000/svg"
   xmlns:xlink="http://www.w3.org/1999/xlink"
   xmlns:sodipodi="http://sodipodi.sourceforge.net/DTD/sodipodi-0.dtd"
   xmlns:inkscape="http://www.inkscape.org/namespaces/inkscape"
   version="1.1"
   id="Layer_1"
   width="128"
   height="128"
   viewBox="0 0 128 128"
   overflow="visible"
   enable-background="new 0 0 128 128"
   xml:space="preserve"
   sodipodi:version="0.32"
   inkscape:version="0.47 r22583"
   sodipodi:docname="session.svg"
   inkscape:output_extension="org.inkscape.output.svg.inkscape"
   inkscape:export-filename="/home/bernie/svn/svn.berlios.de-fullstory/aptosid-art-kde-nyx/trunk/kdm/session.png"
   inkscape:export-xdpi="22.5"
   inkscape:export-ydpi="22.5"><defs
   id="defs105"><linearGradient
     inkscape:collect="always"
     id="linearGradient3321"><stop
       style="stop-color:#000000;stop-opacity:1;"
       offset="0"
       id="stop3323" /><stop
       style="stop-color:#000000;stop-opacity:0;"
       offset="1"
       id="stop3325" /></linearGradient><linearGradient
     y2="0"
     x2="28"
     y1="57.5"
     x1="28"
     gradientUnits="userSpaceOnUse"
     id="linearGradient3287">
			<stop
   id="stop3289"
   style="stop-color:#FFEA00"
   offset="0" />
			<stop
   id="stop3291"
   style="stop-color:#ffa000;stop-opacity:1;"
   offset="1" />
		</linearGradient><linearGradient
     y2="0"
     x2="28"
     y1="57.5"
     x1="28"
     gradientUnits="userSpaceOnUse"
     id="linearGradient15967">
			<stop
   id="stop15969"
   style="stop-color:white;stop-opacity:1;"
   offset="0" />
			<stop
   id="stop15971"
   style="stop-color:white;stop-opacity:0;"
   offset="1" />
		</linearGradient><filter
     inkscape:collect="always"
     id="filter3176"
     x="-0.053000903"
     width="1.1060018"
     y="-0.14748077"
     height="1.2949615"><feGaussianBlur
       inkscape:collect="always"
       stdDeviation="1.4133574"
       id="feGaussianBlur3178" /></filter><clipPath
     clipPathUnits="userSpaceOnUse"
     id="clipPath3182"><path
       style="opacity:1;fill:url(#linearGradient3186);fill-opacity:1;stroke:none;stroke-width:0.69999999;stroke-linecap:round;stroke-linejoin:round;stroke-miterlimit:4;stroke-dasharray:none;stroke-dashoffset:1.08779998;stroke-opacity:1;filter:url(#filter3176)"
       d="M 18.1875,56 C 16.967826,56 16,56.967827 16,58.1875 L 16,75.25 C 25.640301,77.646967 36.509296,79 48,79 C 59.490704,79 70.359699,77.646967 80,75.25 L 80,58.1875 C 80,56.967826 79.032173,56 77.8125,56 L 18.1875,56 z"
       id="path3184"
       sodipodi:nodetypes="cccscccc" /></clipPath><linearGradient
     inkscape:collect="always"
     xlink:href="#linearGradient15967"
     id="linearGradient3186"
     gradientUnits="userSpaceOnUse"
     x1="56"
     y1="20"
     x2="56"
     y2="88.117546" /><filter
     inkscape:collect="always"
     id="filter3281"><feGaussianBlur
       inkscape:collect="always"
       stdDeviation="1.9"
       id="feGaussianBlur3283" /></filter><filter
     inkscape:collect="always"
     id="filter3354"><feGaussianBlur
       inkscape:collect="always"
       stdDeviation="1.1263538"
       id="feGaussianBlur3356" /></filter><radialGradient
     inkscape:collect="always"
     xlink:href="#XMLID_8_"
     id="radialGradient3398"
     gradientUnits="userSpaceOnUse"
     gradientTransform="matrix(4.3885832,0,0,3.8888885,-340.15832,-433.43169)"
     cx="100.88867"
     cy="155.99673"
     fx="100.88867"
     fy="155.99673"
     r="40" /><radialGradient
     inkscape:collect="always"
     xlink:href="#XMLID_10_"
     id="radialGradient3400"
     gradientUnits="userSpaceOnUse"
     gradientTransform="matrix(1.625,0,0,1.25,-30,-36)"
     cx="48"
     cy="112"
     fx="48"
     fy="112"
     r="32" /><linearGradient
     inkscape:collect="always"
     xlink:href="#linearGradient3321"
     id="linearGradient3402"
     gradientUnits="userSpaceOnUse"
     x1="52"
     y1="52"
     x2="52"
     y2="60" /><linearGradient
     inkscape:collect="always"
     xlink:href="#linearGradient15967"
     id="linearGradient3404"
     gradientUnits="userSpaceOnUse"
     x1="56"
     y1="32"
     x2="56"
     y2="88.117546" /><linearGradient
     inkscape:collect="always"
     xlink:href="#linearGradient15967"
     id="linearGradient3412"
     gradientUnits="userSpaceOnUse"
     x1="56"
     y1="32"
     x2="56"
     y2="88.117546" /><linearGradient
     inkscape:collect="always"
     xlink:href="#linearGradient3321"
     id="linearGradient3720"
     gradientUnits="userSpaceOnUse"
     x1="52"
     y1="56"
     x2="52"
     y2="60"
     gradientTransform="translate(0,8)" /><radialGradient
     inkscape:collect="always"
     xlink:href="#linearGradient3287"
     id="radialGradient3723"
     gradientUnits="userSpaceOnUse"
     gradientTransform="matrix(1,0,0,0.75,0,28)"
     cx="48"
     cy="112"
     fx="48"
     fy="112"
     r="32" /><radialGradient
     inkscape:collect="always"
     xlink:href="#XMLID_8_"
     id="radialGradient3726"
     gradientUnits="userSpaceOnUse"
     gradientTransform="matrix(4.3885832,0,0,3.8888885,-340.15832,-425.43169)"
     cx="100.88867"
     cy="155.99673"
     fx="100.88867"
     fy="155.99673"
     r="40" /><filter
     inkscape:collect="always"
     id="filter3820"
     x="-0.18519856"
     width="1.3703971"
     y="-0.20577617"
     height="1.4115523"><feGaussianBlur
       inkscape:collect="always"
       stdDeviation="6.1732852"
       id="feGaussianBlur3822" /></filter><clipPath
     clipPathUnits="userSpaceOnUse"
     id="clipPath3826"><path
       style="fill:none;fill-opacity:0.75;fill-rule:evenodd;stroke:#000000;stroke-width:1px;stroke-linecap:butt;stroke-linejoin:miter;stroke-opacity:1"
       d="M 39.881057,36 L 40,80 L 96,80 L 96,36 L 39.881057,36 z"
       id="path3828"
       sodipodi:nodetypes="ccccc" /></clipPath></defs><sodipodi:namedview
   inkscape:window-height="672"
   inkscape:window-width="1049"
   inkscape:pageshadow="2"
   inkscape:pageopacity="0.0"
   guidetolerance="10.0"
   gridtolerance="10.0"
   objecttolerance="10.0"
   borderopacity="1.0"
   bordercolor="#666666"
   pagecolor="#ffffff"
   id="base"
   inkscape:zoom="2.5080194"
   inkscape:cx="46.35448"
   inkscape:cy="57.080463"
   inkscape:window-x="330"
   inkscape:window-y="274"
   inkscape:current-layer="Layer_1"
   showgrid="true"><inkscape:grid
     type="xygrid"
     id="grid3075"
     spacingx="4px"
     spacingy="4px"
     empspacing="2" /><inkscape:grid
     id="GridFromPre046Settings"
     type="xygrid"
     originx="0px"
     originy="0px"
     spacingx="4px"
     spacingy="4px"
     color="#0000ff"
     empcolor="#0000ff"
     opacity="0.2"
     empopacity="0.4"
     empspacing="2" /></sodipodi:namedview>
<metadata
   id="metadata3">
	<ns:sfw>
		<ns:slices>
			<ns:slice
   y="0"
   x="0"
   height="128"
   width="128"
   sliceID="1316743234" />
		</ns:slices>
		<ns:sliceSourceBounds
   y="0"
   x="0"
   height="128"
   width="128"
   bottomLeftOrigin="true" />
		<ns:optimizationSettings>
			<ns:targetSettings
   targetSettingsID="0"
   fileFormat="PNG24Format">
				<ns:PNG24Format
   transparency="true"
   filtered="false"
   matteColor="#FFFFFF"
   noMatteColor="false"
   interlaced="false">
					</ns:PNG24Format>
			</ns:targetSettings>
			<ns:targetSettings
   targetSettingsID="1696735251"
   fileFormat="PNG24Format">
				<ns:PNG24Format
   transparency="true"
   filtered="false"
   matteColor="#FFFFFF"
   noMatteColor="false"
   interlaced="false">
					</ns:PNG24Format>
			</ns:targetSettings>
		</ns:optimizationSettings>
	</ns:sfw>
<rdf:RDF><cc:Work
     rdf:about=""><dc:format>image/svg+xml</dc:format><dc:type
       rdf:resource="http://purl.org/dc/dcmitype/StillImage" /></cc:Work><cc:Work
     rdf:about=""><dc:format>image/svg+xml</dc:format><dc:type
       rdf:resource="http://purl.org/dc/dcmitype/StillImage" /></cc:Work></rdf:RDF></metadata>

<radialGradient
   id="XMLID_7_"
   cx="102"
   cy="112.3047"
   r="139.5585"
   gradientUnits="userSpaceOnUse">
	<stop
   offset="0"
   style="stop-color:#ffffff;stop-opacity:1;"
   id="stop16" />
	
	
	
	
	<stop
   offset="0.1737"
   style="stop-color:#dfdfdf;stop-opacity:1;"
   id="stop26" />
	<stop
   offset="0.2099"
   style="stop-color:#ECF2F5"
   id="stop28" />
	<stop
   offset="0.2435"
   style="stop-color:#FAFCFD"
   id="stop30" />
	<stop
   offset="0.2722"
   style="stop-color:#FFFFFF"
   id="stop32" />
</radialGradient>

<radialGradient
   id="XMLID_8_"
   cx="102"
   cy="112.3047"
   r="139.55859"
   gradientUnits="userSpaceOnUse">
	<stop
   offset="0"
   style="stop-color:#ffffff;stop-opacity:1;"
   id="stop37" />
	
	<stop
   offset="0.11366145"
   style="stop-color:#bdbebf;stop-opacity:1;"
   id="stop41" />
	
	
	<stop
   offset="0.20296688"
   style="stop-color:#ECECEC"
   id="stop47" />
	<stop
   offset="0.2363"
   style="stop-color:#FAFAFA"
   id="stop49" />
	<stop
   offset="0.38818121"
   style="stop-color:#FFFFFF"
   id="stop51" />
	<stop
   offset="0.5313"
   style="stop-color:#FAFAFA"
   id="stop53" />
	<stop
   offset="0.8449"
   style="stop-color:#EBECEC"
   id="stop55" />
	<stop
   offset="1"
   style="stop-color:#E1E2E3"
   id="stop57" />
</radialGradient>

<linearGradient
   id="XMLID_9_"
   gradientUnits="userSpaceOnUse"
   x1="94.3438"
   y1="102.3447"
   x2="86.5356"
   y2="94.5366">
	<stop
   offset="0"
   style="stop-color:#FFFFFF"
   id="stop62" />
	<stop
   offset="1"
   style="stop-color:#555753"
   id="stop64" />
</linearGradient>

<linearGradient
   id="XMLID_10_"
   gradientUnits="userSpaceOnUse"
   x1="95"
   y1="103"
   x2="86.5865"
   y2="94.5865">
	<stop
   offset="0"
   style="stop-color:#FFFFFF"
   id="stop69" />
	<stop
   offset="1"
   style="stop-color:#555753"
   id="stop71" />
</linearGradient>

<linearGradient
   id="XMLID_11_"
   gradientUnits="userSpaceOnUse"
   x1="95"
   y1="103"
   x2="87.293"
   y2="95.293">
	<stop
   offset="0"
   style="stop-color:#FFFFFF"
   id="stop76" />
	<stop
   offset="1"
   style="stop-color:#393B38"
   id="stop78" />
</linearGradient>

<linearGradient
   id="XMLID_12_"
   gradientUnits="userSpaceOnUse"
   x1="96"
   y1="104"
   x2="88.0002"
   y2="96.0002">
	<stop
   offset="0"
   style="stop-color:#888A85"
   id="stop83" />
	<stop
   offset="0.0072"
   style="stop-color:#8C8E89"
   id="stop85" />
	<stop
   offset="0.0673"
   style="stop-color:#ABACA9"
   id="stop87" />
	<stop
   offset="0.1347"
   style="stop-color:#C5C6C4"
   id="stop89" />
	<stop
   offset="0.2115"
   style="stop-color:#DBDBDA"
   id="stop91" />
	<stop
   offset="0.3012"
   style="stop-color:#EBEBEB"
   id="stop93" />
	<stop
   offset="0.4122"
   style="stop-color:#F7F7F6"
   id="stop95" />
	<stop
   offset="0.5679"
   style="stop-color:#FDFDFD"
   id="stop97" />
	<stop
   offset="1"
   style="stop-color:#FFFFFF"
   id="stop99" />
</linearGradient>


<g
   id="g3382"
   transform="translate(32,-32)"><path
     style="opacity:1;fill:#636363;fill-opacity:1;stroke:none;stroke-width:0.69999999;stroke-linecap:round;stroke-linejoin:round;stroke-miterlimit:4;stroke-dasharray:none;stroke-dashoffset:1.08779998;stroke-opacity:1;filter:url(#filter3281)"
     d="M 15,40.6875 C 11.115563,40.6875 8,43.834313 8,47.71875 L 8,105.6875 C 8,109.57194 11.115563,112.6875 15,112.6875 L 81,112.6875 C 84.884437,112.6875 88,109.57194 88,105.6875 L 88,47.71875 C 88,43.834313 84.884437,40.6875 81,40.6875 L 72.4,40.6875 L 72.4,43.68125 C 72.4,44.63739 71.637389,45.4 70.68125,45.4 L 65.31875,45.4 C 64.36261,45.4 63.6,44.637389 63.6,43.68125 L 63.6,40.6875 L 15,40.6875 z"
     id="path3384"
     sodipodi:nodetypes="ccccccccccccccc" /><path
     style="opacity:1;fill:#ffffff;fill-opacity:1;stroke:none;stroke-width:0.69999999;stroke-linecap:round;stroke-linejoin:round;stroke-miterlimit:4;stroke-dasharray:none;stroke-dashoffset:1.08779998;stroke-opacity:1"
     d="M 14.625,40 C 10.956969,40 8,42.956969 8,46.625 L 8,105.375 C 8,109.04303 10.956969,112 14.625,112 L 81.375,112 C 85.043031,112 88,109.04303 88,105.375 L 88,46.625 C 88,42.956969 85.043031,40 81.375,40 L 72,40 L 72,42.28125 C 72,43.23739 71.237389,44 70.28125,44 L 65.71875,44 C 64.76261,44 64,43.237389 64,42.28125 L 64,40 L 14.625,40 z"
     id="path3386" /><path
     style="opacity:1;fill:url(#radialGradient3398);fill-opacity:1;stroke:none;stroke-width:0.69999999;stroke-linecap:round;stroke-linejoin:round;stroke-miterlimit:4;stroke-dasharray:none;stroke-dashoffset:1.08779998;stroke-opacity:1"
     d="M 14.25,41 C 11.346205,41 9,43.346204 9,46.25 L 9,105.75 C 9,108.6538 11.346204,111 14.25,111 L 81.75,111 C 84.653795,111 87,108.6538 87,105.75 L 87,46.25 C 87,43.346205 84.653796,41 81.75,41 L 73,41 L 73,42.84375 C 73,44.038923 72.038924,45 70.84375,45 L 65.15625,45 C 63.961074,45 63,44.038924 63,42.84375 L 63,41 L 14.25,41 z"
     id="path3388" /><rect
     style="opacity:1;fill:url(#radialGradient3400);fill-opacity:1.0;stroke:none;stroke-width:0.69999999000000002;stroke-linecap:round;stroke-linejoin:round;stroke-miterlimit:4;stroke-dasharray:none;stroke-dashoffset:1.08779998000000000;stroke-opacity:1"
     id="rect3390"
     width="64"
     height="48"
     x="16"
     y="56"
     rx="2.2015772"
     ry="2.2015772" /><rect
     ry="2.2015772"
     rx="2.2015772"
     y="56"
     x="16"
     height="32"
     width="64"
     id="rect3392"
     style="opacity:1;fill:url(#linearGradient3402);fill-opacity:1;stroke:none;stroke-width:0.69999999000000002;stroke-linecap:round;stroke-linejoin:round;stroke-miterlimit:4;stroke-dasharray:none;stroke-dashoffset:1.08779998000000000;stroke-opacity:1;filter:url(#filter3354)" /><path
     style="opacity:1;fill:#ffffff;fill-opacity:1;stroke:none;stroke-width:0.69999999;stroke-linecap:round;stroke-linejoin:round;stroke-miterlimit:4;stroke-dasharray:none;stroke-dashoffset:1.08779998;stroke-opacity:1"
     d="M 16.018069,101.9125 L 16.018069,102.9125 C 16.018069,104.13217 16.985896,105.1 18.205569,105.1 L 77.830569,105.1 C 79.050239,105.1 80.018069,104.13217 80.018069,102.9125 L 80.018069,101.9125 C 80.018069,103.13217 79.050239,104.1 77.830569,104.1 L 18.205569,104.1 C 16.985896,104.1 16.018069,103.13217 16.018069,101.9125 z"
     id="path3396" /><path
     sodipodi:nodetypes="cccscccc"
     id="path3394"
     d="M 18.1875,56 C 16.967826,56 16,56.967827 16,58.1875 L 16,75.25 C 25.640301,77.646967 36.509296,79 48,79 C 59.490704,79 70.359699,77.646967 80,75.25 L 80,58.1875 C 80,56.967826 79.032173,56 77.8125,56 L 18.1875,56 z"
     style="opacity:1;fill:url(#linearGradient3404);fill-opacity:1;stroke:none;stroke-width:0.69999999;stroke-linecap:round;stroke-linejoin:round;stroke-miterlimit:4;stroke-dasharray:none;stroke-dashoffset:1.08779998;stroke-opacity:1;filter:url(#filter3176)"
     clip-path="url(#clipPath3182)" /></g><path
   sodipodi:nodetypes="ccccccccccccccc"
   id="path3770"
   d="M 15,48.6875 C 11.115563,48.6875 8,51.834313 8,55.71875 L 8,113.6875 C 8,117.57194 11.115563,120.6875 15,120.6875 L 81,120.6875 C 84.884437,120.6875 88,117.57194 88,113.6875 L 88,55.71875 C 88,51.834313 84.884437,48.6875 81,48.6875 L 72.4,48.6875 L 72.4,51.68125 C 72.4,52.63739 71.637389,53.4 70.68125,53.4 L 65.31875,53.4 C 64.36261,53.4 63.6,52.637389 63.6,51.68125 L 63.6,48.6875 L 15,48.6875 z"
   style="fill:#0d0d0d;fill-opacity:1;stroke:none;stroke-width:0.69999999000000002;stroke-linecap:round;stroke-linejoin:round;stroke-miterlimit:4;stroke-dasharray:none;stroke-dashoffset:1.08779998000000000;stroke-opacity:1;filter:url(#filter3820)"
   clip-path="url(#clipPath3826)" /><path
   style="fill:#636363;fill-opacity:1;stroke:none;stroke-width:0.69999999;stroke-linecap:round;stroke-linejoin:round;stroke-miterlimit:4;stroke-dasharray:none;stroke-dashoffset:1.08779998;stroke-opacity:1;filter:url(#filter3281)"
   d="M 15,48.6875 C 11.115563,48.6875 8,51.834313 8,55.71875 L 8,113.6875 C 8,117.57194 11.115563,120.6875 15,120.6875 L 81,120.6875 C 84.884437,120.6875 88,117.57194 88,113.6875 L 88,55.71875 C 88,51.834313 84.884437,48.6875 81,48.6875 L 72.4,48.6875 L 72.4,51.68125 C 72.4,52.63739 71.637389,53.4 70.68125,53.4 L 65.31875,53.4 C 64.36261,53.4 63.6,52.637389 63.6,51.68125 L 63.6,48.6875 L 15,48.6875 z"
   id="rect3077"
   sodipodi:nodetypes="ccccccccccccccc" /><path
   style="fill:#ffffff;fill-opacity:1;stroke:none;stroke-width:0.69999999;stroke-linecap:round;stroke-linejoin:round;stroke-miterlimit:4;stroke-dasharray:none;stroke-dashoffset:1.08779998;stroke-opacity:1"
   d="M 14.625,48 C 10.956969,48 8,50.956969 8,54.625 L 8,113.375 C 8,117.04303 10.956969,120 14.625,120 L 81.375,120 C 85.043031,120 88,117.04303 88,113.375 L 88,54.625 C 88,50.956969 85.043031,48 81.375,48 L 72,48 L 72,50.28125 C 72,51.23739 71.237389,52 70.28125,52 L 65.71875,52 C 64.76261,52 64,51.237389 64,50.28125 L 64,48 L 14.625,48 z"
   id="rect2484" /><path
   style="fill:url(#radialGradient3726);fill-opacity:1;stroke:none;stroke-width:0.69999999;stroke-linecap:round;stroke-linejoin:round;stroke-miterlimit:4;stroke-dasharray:none;stroke-dashoffset:1.08779998;stroke-opacity:1"
   d="M 14.25,49 C 11.346205,49 9,51.346204 9,54.25 L 9,113.75 C 9,116.6538 11.346204,119 14.25,119 L 81.75,119 C 84.653795,119 87,116.6538 87,113.75 L 87,54.25 C 87,51.346205 84.653796,49 81.75,49 L 73,49 L 73,50.84375 C 73,52.038923 72.038924,53 70.84375,53 L 65.15625,53 C 63.961074,53 63,52.038924 63,50.84375 L 63,49 L 14.25,49 z"
   id="rect3135" /><rect
   style="fill:url(#radialGradient3723);fill-opacity:1.0;stroke:none;stroke-width:0.69999999000000002;stroke-linecap:round;stroke-linejoin:round;stroke-miterlimit:4;stroke-dasharray:none;stroke-dashoffset:1.08779998000000000;stroke-opacity:1"
   id="rect3139"
   width="64"
   height="48"
   x="16"
   y="64"
   rx="2.2015772"
   ry="2.2015772" /><rect
   ry="2.2015772"
   rx="2.2015772"
   y="64"
   x="16"
   height="32"
   width="64"
   id="rect3285"
   style="fill:url(#linearGradient3720);fill-opacity:1;stroke:none;stroke-width:0.69999999;stroke-linecap:round;stroke-linejoin:round;stroke-miterlimit:4;stroke-dasharray:none;stroke-dashoffset:1.08779998;stroke-opacity:1;filter:url(#filter3354)" /><path
   sodipodi:nodetypes="cccscccc"
   id="path3180"
   d="M 18.1875,56 C 16.967826,56 16,56.967827 16,58.1875 L 16,75.25 C 25.640301,77.646967 36.509296,79 48,79 C 59.490704,79 70.359699,77.646967 80,75.25 L 80,58.1875 C 80,56.967826 79.032173,56 77.8125,56 L 18.1875,56 z"
   style="fill:url(#linearGradient3412);fill-opacity:1;stroke:none;stroke-width:0.69999999;stroke-linecap:round;stroke-linejoin:round;stroke-miterlimit:4;stroke-dasharray:none;stroke-dashoffset:1.08779998;stroke-opacity:1;filter:url(#filter3176)"
   clip-path="url(#clipPath3182)"
   transform="translate(0,8)" /><path
   style="fill:#ffffff;fill-opacity:1;stroke:none;stroke-width:0.69999999;stroke-linecap:round;stroke-linejoin:round;stroke-miterlimit:4;stroke-dasharray:none;stroke-dashoffset:1.08779998;stroke-opacity:1"
   d="M 16.018069,109.9125 L 16.018069,110.9125 C 16.018069,112.13217 16.985896,113.1 18.205569,113.1 L 77.830569,113.1 C 79.050239,113.1 80.018069,112.13217 80.018069,110.9125 L 80.018069,109.9125 C 80.018069,111.13217 79.050239,112.1 77.830569,112.1 L 18.205569,112.1 C 16.985896,112.1 16.018069,111.13217 16.018069,109.9125 z"
   id="rect3358" /></svg>