<?xml version="1.0" encoding="UTF-8" standalone="no"?>
<!-- Created with Inkscape (http://www.inkscape.org/) -->

<svg
   xmlns:dc="http://purl.org/dc/elements/1.1/"
   xmlns:cc="http://creativecommons.org/ns#"
   xmlns:rdf="http://www.w3.org/1999/02/22-rdf-syntax-ns#"
   xmlns:svg="http://www.w3.org/2000/svg"
   xmlns="http://www.w3.org/2000/svg"
   xmlns:xlink="http://www.w3.org/1999/xlink"
   xmlns:sodipodi="http://sodipodi.sourceforge.net/DTD/sodipodi-0.dtd"
   xmlns:inkscape="http://www.inkscape.org/namespaces/inkscape"
   width="1600"
   height="1200"
   id="svg2"
   sodipodi:version="0.32"
   inkscape:version="0.47 r22583"
   sodipodi:docname="background.svg"
   inkscape:output_extension="org.inkscape.output.svg.inkscape"
   version="1.0"
   inkscape:export-filename="/usr/share/apps/kdm/themes/sidux-pontos-dev/background.png"
   inkscape:export-xdpi="90"
   inkscape:export-ydpi="90">
  <defs
     id="defs4">
    <linearGradient
       id="linearGradient92350">
      <stop
         style="stop-color:#ffffff;stop-opacity:1;"
         offset="0"
         id="stop92352" />
      <stop
         id="stop92354"
         offset="0.74921137"
         style="stop-color:#e5e5e5;stop-opacity:0.54109591;" />
      <stop
         style="stop-color:#999999;stop-opacity:0.29452056;"
         offset="1"
         id="stop92356" />
    </linearGradient>
    <linearGradient
       id="linearGradient92301">
      <stop
         id="stop92303"
         offset="0"
         style="stop-color:#ffffff;stop-opacity:1;" />
      <stop
         style="stop-color:#ffffff;stop-opacity:1;"
         offset="0.18814027"
         id="stop92305" />
      <stop
         id="stop92307"
         offset="1"
         style="stop-color:#000000;stop-opacity:1;" />
    </linearGradient>
    <linearGradient
       id="linearGradient2781">
      <stop
         style="stop-color:#ffffff;stop-opacity:1;"
         offset="0"
         id="stop2783" />
      <stop
         id="stop2789"
         offset="0.09455471"
         style="stop-color:#e5e5e5;stop-opacity:1;" />
      <stop
         style="stop-color:#999999;stop-opacity:1;"
         offset="1"
         id="stop2785" />
    </linearGradient>
    <linearGradient
       id="linearGradient3937">
      <stop
         style="stop-color:#000000;stop-opacity:0;"
         offset="0"
         id="stop3939" />
      <stop
         id="stop3945"
         offset="0.69098639"
         style="stop-color:#051405;stop-opacity:0.31506848;" />
      <stop
         style="stop-color:#0b280b;stop-opacity:0.87671232;"
         offset="1"
         id="stop3941" />
    </linearGradient>
    <radialGradient
       inkscape:collect="always"
       xlink:href="#linearGradient92301"
       id="radialGradient92324"
       gradientUnits="userSpaceOnUse"
       gradientTransform="matrix(1.5037432,-0.1834138,8.2413732e-2,1.3934219,-526.55852,22.009942)"
       cx="1037.9656"
       cy="804.68542"
       fx="1037.9656"
       fy="804.68542"
       r="875.19171" />
    <mask
       maskUnits="userSpaceOnUse"
       id="mask92320">
      <rect
         y="-173.95683"
         x="-84.441757"
         height="1479.2645"
         width="1790.9087"
         id="rect92322"
         style="opacity:1;fill:url(#radialGradient92324);fill-opacity:1;stroke:none;display:inline" />
    </mask>
    <linearGradient
       inkscape:collect="always"
       xlink:href="#linearGradient2781"
       id="linearGradient92328"
       gradientUnits="userSpaceOnUse"
       x1="558.9649"
       y1="948.19049"
       x2="558.9649"
       y2="172.69933"
       gradientTransform="translate(-8.2820514,-2022.4125)" />
    <radialGradient
       inkscape:collect="always"
       xlink:href="#linearGradient3937"
       id="radialGradient92360"
       gradientUnits="userSpaceOnUse"
       gradientTransform="matrix(1.5308499,-0.6814828,0.5125447,1.3948772,-1054.3563,590.70688)"
       cx="1291.6517"
       cy="879.90021"
       fx="1291.6517"
       fy="879.90021"
       r="875.19171" />
    <linearGradient
       inkscape:collect="always"
       xlink:href="#linearGradient2781"
       id="linearGradient92368"
       gradientUnits="userSpaceOnUse"
       x1="558.9649"
       y1="948.19049"
       x2="558.9649"
       y2="172.69933" />
    <linearGradient
       inkscape:collect="always"
       xlink:href="#linearGradient92350"
       id="linearGradient92373"
       gradientUnits="userSpaceOnUse"
       gradientTransform="matrix(1,0,0,1.0062686,29.925594,-8.6629161)"
       x1="558.9649"
       y1="948.19049"
       x2="558.9649"
       y2="834.96869" />
  </defs>
  <sodipodi:namedview
     id="base"
     pagecolor="#ffffff"
     bordercolor="#666666"
     borderopacity="1.0"
     gridtolerance="10000"
     guidetolerance="10"
     objecttolerance="10"
     inkscape:pageopacity="0.0"
     inkscape:pageshadow="2"
     inkscape:zoom="0.31466252"
     inkscape:cx="800"
     inkscape:cy="424.0816"
     inkscape:document-units="px"
     inkscape:current-layer="layer2"
     showgrid="false"
     inkscape:window-width="1274"
     inkscape:window-height="768"
     inkscape:window-x="0"
     inkscape:window-y="0"
     borderlayer="true"
     showguides="true"
     inkscape:guide-bbox="true">
    <sodipodi:guide
       orientation="0,1"
       position="524.11749,370.49684"
       id="guide92366" />
  </sodipodi:namedview>
  <metadata
     id="metadata7">
    <rdf:RDF>
      <cc:Work
         rdf:about="">
        <dc:format>image/svg+xml</dc:format>
        <dc:type
           rdf:resource="http://purl.org/dc/dcmitype/StillImage" />
        <dc:title />
      </cc:Work>
    </rdf:RDF>
  </metadata>
  <g
     inkscape:label="Layer 1"
     inkscape:groupmode="layer"
     id="layer1"
     style="display:inline">
    <rect
       y="-71.863548"
       x="-146.99295"
       height="1470.1597"
       width="1766.814"
       id="rect2895"
       style="opacity:1;fill:#ffffff;fill-opacity:1;stroke:#ffffff;stroke-width:4.95930386;stroke-miterlimit:4;stroke-dasharray:none;stroke-opacity:1;display:inline" />
    <path
       style="fill:#008000;fill-opacity:1"
       d="M -3.06941,-41.524162 L 1646.1041,-41.524162 L 1646.1041,1229.8939 L -3.06941,1229.8939 L -3.06941,-41.524162 L -3.06941,-41.524162 z"
       id="rect3376" />
    <path
       sodipodi:type="arc"
       style="opacity:1;fill:#00aa44;fill-opacity:0.875;stroke:none"
       id="path3035"
       sodipodi:cx="986.56171"
       sodipodi:cy="467.80042"
       sodipodi:rx="768.53705"
       sodipodi:ry="786.70575"
       d="M 1755.0988,467.80042 A 768.53705,786.70575 0 1 1 218.02466,467.80042 A 768.53705,786.70575 0 1 1 1755.0988,467.80042 z"
       transform="matrix(1.4822695,0,0,1.2651794,-523.90253,382.43705)" />
    <path
       transform="matrix(1.4822695,0,0,1.2651794,94.709327,85.211434)"
       d="M 1755.0988,467.80042 A 768.53705,786.70575 0 1 1 218.02466,467.80042 A 768.53705,786.70575 0 1 1 1755.0988,467.80042 z"
       sodipodi:ry="786.70575"
       sodipodi:rx="768.53705"
       sodipodi:cy="467.80042"
       sodipodi:cx="986.56171"
       id="path3037"
       style="opacity:1;fill:#165016;fill-opacity:0.73786406;stroke:none"
       sodipodi:type="arc" />
    <path
       sodipodi:type="arc"
       style="opacity:1;fill:#00aa00;fill-opacity:0.73786406;stroke:none"
       id="path3039"
       sodipodi:cx="986.56171"
       sodipodi:cy="467.80042"
       sodipodi:rx="768.53705"
       sodipodi:ry="786.70575"
       d="M 1755.0988,467.80042 A 768.53705,786.70575 0 1 1 218.02466,467.80042 A 768.53705,786.70575 0 1 1 1755.0988,467.80042 z"
       transform="matrix(1.4822695,0,0,1.2651794,80.174348,375.91102)" />
    <path
       transform="matrix(1.4822695,0,0,1.2651794,443.54883,121.54888)"
       d="M 1755.0988,467.80042 A 768.53705,786.70575 0 1 1 218.02466,467.80042 A 768.53705,786.70575 0 1 1 1755.0988,467.80042 z"
       sodipodi:ry="786.70575"
       sodipodi:rx="768.53705"
       sodipodi:cy="467.80042"
       sodipodi:cx="986.56171"
       id="path3041"
       style="opacity:1;fill:#1f241c;fill-opacity:0.73786406;stroke:none"
       sodipodi:type="arc" />
    <path
       sodipodi:type="arc"
       style="opacity:1;fill:#2aff2a;fill-opacity:0.73786406;stroke:none"
       id="path3043"
       sodipodi:cx="986.56171"
       sodipodi:cy="467.80042"
       sodipodi:rx="768.53705"
       sodipodi:ry="786.70575"
       d="M 1755.0988,467.80042 A 768.53705,786.70575 0 1 1 218.02466,467.80042 A 768.53705,786.70575 0 1 1 1755.0988,467.80042 z"
       transform="matrix(1.1557387,0,0,1.0578361,445.72907,569.87559)" />
    <path
       sodipodi:type="arc"
       style="opacity:1;fill:#165016;fill-opacity:0.73786406;stroke:none"
       id="path3045"
       sodipodi:cx="986.56171"
       sodipodi:cy="467.80042"
       sodipodi:rx="768.53705"
       sodipodi:ry="786.70575"
       d="M 1755.0988,467.80042 A 768.53705,786.70575 0 1 1 218.02466,467.80042 A 768.53705,786.70575 0 1 1 1755.0988,467.80042 z"
       transform="matrix(1.4822695,0,0,1.2651794,594.11944,441.51143)" />
    <path
       transform="matrix(1.1557387,0,0,1.0578361,552.38325,795.73151)"
       d="M 1755.0988,467.80042 A 768.53705,786.70575 0 1 1 218.02466,467.80042 A 768.53705,786.70575 0 1 1 1755.0988,467.80042 z"
       sodipodi:ry="786.70575"
       sodipodi:rx="768.53705"
       sodipodi:cy="467.80042"
       sodipodi:cx="986.56171"
       id="path3047"
       style="opacity:1;fill:#55ff55;fill-opacity:0.73786406;stroke:none"
       sodipodi:type="arc" />
    <path
       transform="matrix(0.9266853,0,0,1.2651794,917.09893,807.50033)"
       d="M 1755.0988,467.80042 A 768.53705,786.70575 0 1 1 218.02466,467.80042 A 768.53705,786.70575 0 1 1 1755.0988,467.80042 z"
       sodipodi:ry="786.70575"
       sodipodi:rx="768.53705"
       sodipodi:cy="467.80042"
       sodipodi:cx="986.56171"
       id="path3049"
       style="opacity:1;fill:#17280b;fill-opacity:0.73786406;stroke:none"
       sodipodi:type="arc" />
    <rect
       style="opacity:1;fill:url(#radialGradient92360);fill-opacity:1;stroke:none"
       id="rect3927"
       width="1750.3834"
       height="1422.5234"
       x="-43.916428"
       y="-173.95683"
       mask="none" />
  </g>
  <g
     inkscape:groupmode="layer"
     id="layer4"
     inkscape:label="lines"
     style="opacity:0.30232558">
    <g
       id="g3792"
       transform="matrix(0.24233241,0.52294466,0.52294466,-0.24233241,499.60266,961.69953)"
       style="fill:#0b280b;display:inline">
      <path
         id="path3873"
         d="m -908.3871,2229.6774 c 28.70794,-224.3578 84.63725,-445.1063 165.45569,-656.2146 10e-6,0 2e-5,0 3e-5,-10e-5 80.81876,-211.1081 186.55229,-412.6425 314.8471,-598.58077 2e-5,-3e-5 4e-5,-6e-5 6e-5,-8e-5 110.27419,-159.82183 236.94576,-308.26503 377.351734,-442.24112 l -6.922124,-7.21694 c -140.20684,135.17362 -266.47736,284.71699 -376.19665,445.50082 -10e-6,2e-5 -2e-5,3e-5 -3e-5,4e-5 -127.653,187.06515 -232.52278,389.51665 -312.34924,601.29625 -1e-5,0 -2e-5,0 -4e-5,0 -79.82681,211.7795 -134.63524,432.9537 -162.18653,657.4565 z"
         style="fill:#0b280b;stroke:none" />
      <path
         id="path3885"
         d="m -933.77032,2264.8564 c -18.72699,-152.1029 -6.44735,-307.641 33.74956,-455.2904 0,0 0,0 10e-6,0 40.19938,-147.6487 108.40335,-287.7246 201.35712,-408.9503 10e-6,-10e-5 2e-5,-10e-5 4e-5,-10e-5 71.5841,-93.3621 157.17962,-175.8884 252.9668,-243.9529 l -5.82448,-8.1286 c -96.06289,69.4028 -181.60376,153.2114 -252.88932,247.7109 0,0 -1e-5,0 -1e-5,0 -92.58262,122.739 -159.94441,263.9847 -199.09712,412.3863 -1e-5,10e-5 -1e-5,10e-5 -2e-5,10e-5 -39.15519,148.401 -50.18332,304.2738 -30.26258,456.225 z"
         style="fill:#0b280b;stroke:none" />
      <path
         id="path3891"
         d="m -338.92473,2316.7622 c -19.92074,-151.9512 -8.89261,-307.824 30.26258,-456.225 0,0 10e-6,0 10e-6,0 39.15271,-148.4017 106.5145,-289.6474 199.09711,-412.3864 10e-6,0 2e-5,0 3e-5,0 71.285563,-94.4995 156.82643,-178.3081 252.88932,-247.7109 l 5.82448,8.1286 c -95.787184,68.0645 -181.382703,150.5908 -252.9668,243.9529 -1e-5,0 -2e-5,0 -2e-5,0 -92.95378,121.2258 -161.15775,261.3017 -201.35714,408.9504 0,0 -10e-6,0 -10e-6,0 -40.19691,147.6494 -52.47655,303.1875 -33.74956,455.2904 z"
         style="fill:#0b280b;stroke:none" />
      <path
         id="path3897"
         d="m -315.67147,2323.7753 c -19.92074,-151.9512 -8.89261,-307.824 30.26259,-456.225 0,0 1e-5,0 1e-5,-1e-4 39.15271,-148.4016 106.5145,-289.6473 199.097101,-412.3863 1.3e-5,0 2.6e-5,0 3.8e-5,0 71.285558,-94.4995 156.826423,-178.3081 252.889311,-247.7109 l 5.82448,8.1286 c -95.787182,68.0645 -181.3826996,150.5908 -252.966799,243.9529 -92.953781,121.2258 -161.157761,261.3017 -201.357151,408.9504 -10e-6,0 -10e-6,0 -2e-5,0 -40.1969,147.6494 -52.47655,303.1875 -33.74956,455.2904 z"
         style="fill:#0b280b;stroke:none" />
      <path
         id="path3903"
         d="m -446.17487,2294.2993 c -18.72699,-152.1029 -6.44735,-307.641 33.74956,-455.2904 0,0 0,0 1e-5,0 40.19938,-147.6487 108.40335,-287.7246 201.35712,-408.9503 1e-5,-10e-5 2e-5,-10e-5 4e-5,-10e-5 71.5841,-93.3621 157.179616,-175.8884 252.966801,-243.9529 l -5.824482,-8.1286 c -96.062889,69.4028 -181.603759,153.2114 -252.889319,247.7109 0,0 -10e-6,0 -10e-6,0 -92.58262,122.739 -159.94441,263.9847 -199.09712,412.3863 -1e-5,10e-5 -1e-5,10e-5 -2e-5,10e-5 -39.15519,148.401 -50.18332,304.2738 -30.26258,456.225 z"
         style="fill:#0b280b;stroke:none" />
      <path
         id="path3909"
         d="m -68.42092,1929.2047 c -146.73053,-10.0405 -293.87782,-50.5435 -429.97877,-117.87 -10e-6,0 -2e-5,0 -3e-5,0 -136.09038,-67.3444 -261.44538,-161.6396 -364.65639,-279.0794 -10e-6,0 -3e-5,0 -4e-5,0 -79.41233,-90.3788 -145.98955,-193.721 -196.18015,-305.9634 41.1478,115.5315 99.67439,224.8846 173.15974,323.3807 6.66439,8.9256 13.45324,17.7553 20.36317,26.487 105.26047,106.1346 228.16287,189.9378 359.00247,249.2061 140.63891,63.71 290.76616,99.1763 438.29,103.839 z"
         style="fill:#0b280b;stroke:none" />
      <path
         id="path3913"
         d="m -72.260565,1983.7736 c -146.730525,-10.0405 -293.877805,-50.5435 -429.978765,-117.8701 -1e-5,0 -2e-5,0 -3e-5,0 -136.09037,-67.3443 -261.44537,-161.6396 -364.65639,-279.0793 -2e-5,0 -3e-5,0 -5e-5,0 -79.41234,-90.3788 -145.9896,-193.721 -196.1802,-305.9634 41.1478,115.5315 99.67443,224.8846 173.1598,323.3807 6.66439,8.9256 13.45323,17.7553 20.36315,26.487 105.26049,106.1346 228.16289,189.9378 359.0025,249.2061 140.6389,63.71 290.76615,99.1763 438.289985,103.839 z"
         style="fill:#0b280b;stroke:none" />
      <path
         id="path3919"
         d="m -254.16889,1936.2353 c -146.73053,-10.0405 -293.87782,-50.5435 -429.97877,-117.87 -10e-6,-10e-5 -2e-5,-10e-5 -3e-5,-10e-5 -136.09038,-67.3443 -261.44537,-161.6396 -364.65641,-279.0793 0,0 0,0 0,0 -79.4124,-90.3788 -145.9896,-193.721 -196.1802,-305.9634 41.1478,115.5315 99.6744,224.8846 173.1598,323.3807 6.6644,8.9256 13.4532,17.7553 20.3631,26.487 105.26051,106.1346 228.16291,189.9378 359.00251,249.2061 140.63891,63.71 290.76616,99.1763 438.29,103.839 z"
         style="fill:#0b280b;stroke:none" />
      <path
         id="path3925"
         d="m 217.21852,1864.8703 c -146.73052,-10.0404 -293.877806,-50.5434 -429.97876,-117.87 -136.09038,-67.3443 -261.44539,-161.6395 -364.65642,-279.0793 -10e-6,0 -3e-5,0 -4e-5,0 -79.41234,-90.3788 -145.98962,-193.721 -196.18019,-305.9634 41.14782,115.5315 99.67441,224.8846 173.15978,323.3807 6.66439,8.9256 13.45323,17.7553 20.36315,26.487 105.26048,106.1346 228.16289,189.9378 359.00249,249.2061 140.63891,63.71 290.766153,99.1763 438.28999,103.8389 z"
         style="fill:#0b280b;stroke:none" />
      <path
         id="path3879"
         d="m -134.83107,2138.4983 c -146.73052,-10.0404 -293.8778,-50.5434 -429.97876,-117.87 -10e-6,0 -10e-6,0 -2e-5,0 -136.09038,-67.3443 -261.44538,-161.6396 -364.6564,-279.0793 -1e-5,0 -3e-5,0 -4e-5,0 -79.41231,-90.3788 -145.98961,-193.721 -196.18021,-305.9634 41.1478,115.5315 99.6744,224.8846 173.15979,323.3807 6.6644,8.9256 13.45323,17.7553 20.36316,26.487 105.26048,106.1346 228.16289,189.9378 359.00249,249.2061 140.63891,63.71 290.76615,99.1763 438.28999,103.8389 z"
         style="fill:#0b280b;stroke:none" />
    </g>
    <path
       id="path3819"
       d="m 1316.137,705.32953 c -49.5348,-74.12351 -113.9376,-137.87679 -187.5603,-187.5329 0,0 0,-1e-5 0,-1e-5 -73.6197,-49.66048 -156.6152,-85.32708 -243.2845,-103.35594 -10e-6,0 -2e-5,0 -3e-5,0 -66.73296,-13.88032 -135.45843,-17.69418 -203.1422,-11.32563 4.08757,1.55454 8.14507,3.14614 12.17196,4.7739 63.28466,-5.36358 127.48765,-1.7831 190.06851,10.70543 10e-6,0 10e-6,0 2e-5,10e-6 86.25694,17.20956 169.18224,52.03048 242.98254,100.95374 0,10e-6 10e-5,2e-5 10e-5,2e-5 73.8016,48.92139 138.6367,112.04634 188.7639,185.78138 z"
       style="fill:#0b280b;stroke:none;display:inline" />
    <path
       id="path3823"
       d="m 1119.1435,459.72508 c -49.5348,-74.12352 -113.9376,-137.8768 -187.5603,-187.53292 0,-10e-6 -1e-5,-10e-6 -1e-5,-10e-6 -73.61966,-49.66049 -156.61523,-85.32709 -243.28452,-103.35596 -10e-6,0 -2e-5,0 -3e-5,0 -66.73297,-13.88033 -135.45843,-17.69419 -203.14221,-11.32565 4.08761,1.55454 8.14515,3.14613 12.17208,4.7739 63.28463,-5.36356 127.48758,-1.78308 190.0684,10.70545 86.25693,17.20957 169.18226,52.0305 242.98262,100.95377 10e-6,10e-6 2e-5,10e-6 3e-5,2e-5 73.80164,48.92139 138.63674,112.04634 188.76394,185.7814 z"
       style="fill:#0b280b;stroke:none;display:inline" />
    <path
       id="path3825"
       d="m 1591.49,254.90426 c -49.5348,-74.12352 -113.9376,-137.8768 -187.5603,-187.53292 0,0 0,-1e-5 0,-1e-5 -73.6197,-49.66049 -156.6152,-85.32709 -243.2845,-103.35596 0,0 -10e-5,0 -10e-5,-10e-6 -66.7329,-13.88032 -135.4584,-17.69419 -203.1422,-11.32566 4.0876,1.55454 8.1452,3.14614 12.1721,4.7739 63.2846,-5.36355 127.4876,-1.78306 190.0684,10.70547 86.2569,17.20957 169.1823,52.03051 242.9826,100.95377 0,1e-5 0,2e-5 0,2e-5 73.8017,48.9214 138.6368,112.04635 188.764,185.7814 z"
       style="fill:#0b280b;stroke:none;display:inline" />
    <path
       id="path3827"
       d="m 1625.129,545.26186 c -49.5348,-74.12352 -113.9376,-137.8768 -187.5603,-187.53293 0,0 0,0 0,-10e-6 -73.6197,-49.66049 -156.6152,-85.32709 -243.2845,-103.35597 0,0 -10e-5,0 -10e-5,0 -66.7329,-13.88033 -135.4584,-17.69421 -203.1422,-11.32567 4.0876,1.55454 8.1452,3.14613 12.1721,4.7739 63.2846,-5.36356 127.4876,-1.78306 190.0684,10.70547 0,10e-6 0,10e-6 0,10e-6 86.257,17.20958 169.1823,52.03051 242.9826,100.95378 0,0 0,1e-5 0,2e-5 73.8017,48.92139 138.6368,112.04634 188.764,185.7814 z"
       style="fill:#0b280b;stroke:none;display:inline" />
    <g
       style="display:inline;fill:#0b280b"
       id="g2881"
       transform="matrix(0.58958287,0.80770789,-0.80770789,0.58958287,639.99601,-481.80378)">
      <path
         id="path3811"
         d="m -933.77032,2264.8564 c -18.72699,-152.1029 -6.44735,-307.641 33.74956,-455.2904 0,0 0,0 10e-6,0 40.19938,-147.6487 108.40335,-287.7246 201.35712,-408.9503 10e-6,-10e-5 2e-5,-10e-5 4e-5,-10e-5 71.5841,-93.3621 157.17962,-175.8884 252.9668,-243.9529 l -5.82448,-8.1286 c -96.06289,69.4028 -181.60376,153.2114 -252.88932,247.7109 0,0 -1e-5,0 -1e-5,0 -92.58262,122.739 -159.94441,263.9847 -199.09712,412.3863 -1e-5,10e-5 -1e-5,10e-5 -2e-5,10e-5 -39.15519,148.401 -50.18332,304.2738 -30.26258,456.225 z"
         style="fill:#0b280b;stroke:none"
         transform="matrix(1,0,0,-1,1220.8179,2075.2958)" />
      <path
         id="path3815"
         d="m 905.14643,-248.4795 c -19.92072,151.951208 -8.89258,307.824018 30.26262,456.225 10e-6,1e-5 10e-6,2e-5 10e-6,4e-5 39.15272,148.40161 106.51454,289.64735 199.09714,412.38632 0,1e-5 0,3e-5 0,5e-5 71.2855,94.49947 156.8264,178.30813 252.8893,247.71093 l 5.8244,-8.12868 c -95.7871,-68.06449 -181.3826,-150.5908 -252.9667,-243.95287 0,-10e-6 0,-10e-6 0,-2e-5 C 1047.2994,494.5355 979.09544,354.4596 938.89605,206.81093 c -10e-6,-2e-5 -10e-6,-4e-5 -2e-5,-6e-5 C 898.69912,59.161501 886.41946,-96.376557 905.14643,-248.4795 z"
         style="fill:#0b280b;stroke:none" />
      <path
         id="path3817"
         d="m 774.64303,-219.0035 c -19.92072,151.951208 -8.89258,307.824018 30.26262,456.225 10e-6,1e-5 10e-6,2e-5 10e-6,4e-5 39.15272,148.40161 106.5145,289.64735 199.09714,412.38632 0,1e-5 0,3e-5 0,5e-5 71.2855,94.49947 156.8264,178.30813 252.8893,247.71093 l 5.8244,-8.12868 c -95.7871,-68.06449 -181.3826,-150.5908 -252.9667,-243.95287 0,-10e-6 0,-10e-6 0,-2e-5 C 916.79601,524.0115 848.59204,383.9356 808.39265,236.28693 c -10e-6,-2e-5 -10e-6,-4e-5 -2e-5,-6e-5 C 768.19572,88.637501 755.91606,-66.900557 774.64303,-219.0035 z"
         style="fill:#0b280b;stroke:none" />
    </g>
    <path
       id="path3821"
       d="m 1268.9754,194.20157 c -157.5015,-29.75453 -318.0663,-26.89606 -470.36671,4.53464 -152.3031,31.41018 -296.65442,91.48262 -421.78653,176.01121 -96.4362,65.11451 -181.9437,144.11159 -253.1165,232.80556 78.1889,-82.10894 168.7286,-152.40987 267.4152,-207.72872 8.913,-5.00071 17.8973,-9.87414 26.9489,-14.61982 112.99095,-78.07273 243.51967,-136.29958 382.6515,-170.29776 149.55384,-36.54234 309.36354,-45.20416 468.25414,-20.70511 z"
       style="fill:#0b280b;stroke:none;display:inline" />
    <path
       style="fill:#0b280b;stroke:none;display:inline"
       d="m 606.64172,-148.40172 c 108.14472,43.75843 209.93869,103.90291 300.77407,177.87438 10e-6,10e-6 2e-5,10e-6 3e-5,2e-5 117.93338,96.02431 216.48398,216.24437 289.67898,350.54546 0,2e-5 0,4e-5 0,6e-5 73.1918,134.30276 121.1889,282.97253 138.167,435.80823 2.307,-9.843 4.4848,-19.7551 6.532,-29.7324 -20.8459,-143.9233 -68.7956,-283.08039 -138.8363,-409.16826 0,-10e-6 0,-2e-5 0,-3e-5 C 1128.2718,242.4638 1028.2998,122.58281 909.26708,27.26185 c -10e-6,-2e-5 -3e-5,-3e-5 -5e-5,-4e-5 -91.67446,-73.42016 -194.10785,-132.79107 -302.62531,-175.66353 z"
       id="path3813" />
  </g>
  <g
     inkscape:groupmode="layer"
     id="layer6"
     inkscape:label="logoscreen"
     style="opacity:1;display:inline">
    <path
       mask="none"
       id="path92318"
       d="M 978.6242,-1187.4438 L 977.4055,-1187.4438 L 975.968,-1187.4438 L 974.6242,-1187.4438 L 972.968,-1187.4438 L 971.2805,-1187.4438 L 969.1555,-1187.4438 L 966.843,-1187.4438 L 963.6242,-1187.4438 L 959.7492,-1187.4438 L 953.6242,-1187.4438 L 944.8117,-1187.4438 L 926.0617,-1187.4438 L 879.343,-1187.4438 L -845.96955,-1394.4438 L -884.71955,-1187.9438 L -144.34455,-1182.975 L -144.34455,-663.28751 L 1669.0305,-663.28751 L 1669.0305,-1186.975 L 2817.5305,-1206.1625 L 2827.9055,-1416.0375 L 1071.5618,-1187.4438 L 1030.3118,-1187.4438 L 1012.8742,-1187.4438 L 1004.468,-1187.4438 L 998.5618,-1187.4438 L 994.8118,-1187.4438 L 991.6555,-1187.4438 L 989.3742,-1187.4438 L 987.2805,-1187.4438 L 985.6242,-1187.4438 L 983.9992,-1187.4438 L 982.6555,-1187.4438 L 981.218,-1187.4438 L 979.9992,-1187.4438 L 978.6242,-1187.4438 z"
       style="opacity:1;fill:url(#linearGradient92328);fill-opacity:1;stroke:none;display:inline"
       sodipodi:nodetypes="ccccccccccccccccccccccccccccccccccccc" />
    <path
       style="opacity:1;fill:url(#linearGradient92373);fill-opacity:1;stroke:none;display:inline"
       mask="none"
       d="M 1707.25 829.65625 L 991.90625 835.65625 L 984.1875 835.75 L 982.8125 835.75 L 982.125 835.75 L -106.125 832.59375 L -106.125 1358.9688 L 1707.25 1358.9688 L 1707.25 829.65625 z M 917.5625 831.53125 L 905.375 831.59375 L 931.3125 834.625 L 917.75 831.53125 L 917.5625 831.53125 z M 943.1875 831.53125 L 952.90625 834.90625 L 959.875 834.90625 L 952.6875 831.53125 L 943.1875 831.53125 z M 962.40625 831.53125 L 967.96875 834.9375 L 969.875 834.9375 L 965.40625 831.53125 L 964.28125 831.53125 L 962.40625 831.53125 z M 971.53125 831.53125 L 975.09375 834.9375 L 975.40625 834.9375 L 972.53125 831.53125 L 971.53125 831.53125 z M 977.25 831.53125 L 977.9375 832.53125 L 977.40625 831.53125 L 977.25 831.53125 z M 983.09375 831.53125 L 983.65625 834.96875 L 984.25 834.96875 L 983.28125 831.53125 L 983.09375 831.53125 z M 986.4375 831.53125 L 986.25 834.96875 L 986.90625 834.96875 L 986.6875 831.53125 L 986.4375 831.53125 z M 989.84375 831.53125 L 988.90625 834.96875 L 989.5 834.96875 L 990.03125 831.53125 L 989.84375 831.53125 z M 995.6875 831.53125 L 995.1875 832.5 L 995.8125 831.53125 L 995.6875 831.53125 z M 1000.5312 831.53125 L 997.65625 834.96875 L 997.9375 834.96875 L 1001.4688 831.53125 L 1000.5312 831.53125 z M 1007.5312 831.53125 L 1003.0938 834.96875 L 1004.875 834.96875 L 1010.375 831.53125 L 1009.5 831.53125 L 1007.5312 831.53125 z M 1019.9375 831.53125 L 1012.75 834.96875 L 1019.3125 834.96875 L 1028.9688 831.53125 L 1027.5938 831.53125 L 1025.5 831.53125 L 1023.8438 831.53125 L 1022.2188 831.53125 L 1020.875 831.53125 L 1019.9375 831.53125 z M 1053.1875 831.53125 L 1039.75 834.6875 L 1065.0938 831.53125 L 1053.1875 831.53125 z M 993.3125 832.21875 L 991.90625 834.96875 L 992.28125 834.96875 L 993.3125 832.21875 z M 979.84375 832.3125 L 980.875 834.96875 L 981.25 834.96875 L 979.84375 832.3125 z "
       id="path92330" />
    <path
       transform="matrix(0.9999976,2.2104539e-3,-2.2104539e-3,0.9999976,-0.193405,-2.1790329)"
       sodipodi:nodetypes="ccccccccccccccccccccccccccccccccccccccccccccccccccccccccccc"
       mask="url(#mask92320)"
       id="path92370"
       d="M 873.34375,-1013.625 L 986.90625,834.96875 L 985.6875,834.96875 L 688.6875,-967 L 479.59375,-946.5625 L 984.25,834.96875 L 982.90625,834.96875 L 309.125,-861.65625 L 109.15625,-797.15625 L 981.25,834.96875 L 979.5625,834.96875 L -39.28125,-677.90625 L -220.90625,-572.28125 L 977.4375,834.96875 L 975.125,834.96875 L -340.5625,-424.125 L -495.53125,-282.25 L 971.90625,834.96875 L 968.03125,834.96875 L -580.84375,-112 L -702.03125,59.625 L 961.90625,834.96875 L 953.09375,834.96875 L -749.15625,244.15625 L -830.96875,437.65625 L 934.34375,834.96875 L -837.6875,627.96875 L -876.4375,834.46875 L 984.17583,835.75136 L 2825.8125,816.25 L 2836.1875,606.375 L 1038.5938,834.96875 L 2777.0938,425.34375 L 2742.5,218.09375 L 1021.1562,834.96875 L 1012.75,834.96875 L 2646.1875,53.8125 L 2568.2188,-141.28125 L 1006.8438,834.96875 L 1003.0938,834.96875 L 2439.1562,-281.28125 L 2321.4062,-455.3125 L 999.9375,834.96875 L 997.65625,834.96875 L 2165.4688,-564.59375 L 2013.375,-709.5625 L 995.5625,834.96875 L 993.90625,834.96875 L 1837.7188,-783.125 L 1658.25,-892.34375 L 992.28125,834.96875 L 990.9375,834.96875 L 1470.9688,-926.78125 L 1272.3125,-995.28125 L 989.5,834.96875 L 988.28125,834.96875 L 1082,-989.03125 L 873.34375,-1013.625 L 873.34375,-1013.625 z"
       style="display:inline;opacity:1;fill:url(#linearGradient92368);fill-opacity:1;stroke:none" />
  </g>
  <g
     inkscape:groupmode="layer"
     id="layer3"
     inkscape:label="sun"
     style="display:inline" />
  <g
     inkscape:groupmode="layer"
     id="layer2"
     inkscape:label="screen"
     style="display:inline" />
</svg>
