<?xml version="1.0" encoding="UTF-8" standalone="no"?>
<!-- Created with Inkscape (http://www.inkscape.org/) -->
<svg
   xmlns:dc="http://purl.org/dc/elements/1.1/"
   xmlns:cc="http://creativecommons.org/ns#"
   xmlns:rdf="http://www.w3.org/1999/02/22-rdf-syntax-ns#"
   xmlns:svg="http://www.w3.org/2000/svg"
   xmlns="http://www.w3.org/2000/svg"
   xmlns:xlink="http://www.w3.org/1999/xlink"
   xmlns:sodipodi="http://sodipodi.sourceforge.net/DTD/sodipodi-0.dtd"
   xmlns:inkscape="http://www.inkscape.org/namespaces/inkscape"
   width="420"
   height="240"
   id="svg5550"
   sodipodi:version="0.32"
   inkscape:version="0.45+devel"
   sodipodi:docbase="/home/bernie/svn/svn.berlios.de-fullstory/sidux-art-wallpaper-gaia/trunk/.source"
   sodipodi:docname="sidux-logo.svg"
   inkscape:output_extension="org.inkscape.output.svg.inkscape"
   version="1.0"
   inkscape:export-filename="/home/bernie/svn/svn.berlios.de-fullstory/sidux-art-kde-nyx/trunk/kdm/sidux-logo.png"
   inkscape:export-xdpi="90"
   inkscape:export-ydpi="90"
   style="display:inline;enable-background:new">
  <sodipodi:namedview
     id="base"
     pagecolor="#ffffff"
     bordercolor="#000000"
     borderopacity="1"
     inkscape:pageopacity="0.0"
     inkscape:pageshadow="0"
     inkscape:zoom="0.596875"
     inkscape:cx="630.47482"
     inkscape:cy="512.41277"
     inkscape:document-units="px"
     inkscape:current-layer="layer16"
     inkscape:window-width="1400"
     inkscape:window-height="990"
     inkscape:window-x="0"
     inkscape:window-y="0"
     height="1200px"
     width="1600px"
     borderlayer="true"
     showgrid="false"
     showguides="true"
     inkscape:guide-bbox="true"
     inkscape:snap-intersection-line-segments="true"
     inkscape:object-paths="true"
     inkscape:snap-bbox="true"
     inkscape:object-nodes="true"
     objecttolerance="3"
     gridtolerance="3"
     guidetolerance="4">
    <inkscape:grid
       id="grid54210"
       type="xygrid"
       empspacing="5"
       visible="true"
       enabled="true" />
    <sodipodi:guide
       orientation="1,0"
       position="-327.18266,1492.1975"
       id="guide11779" />
  </sodipodi:namedview>
  <defs
     id="defs5552">
    <inkscape:perspective
       sodipodi:type="inkscape:persp3d"
       inkscape:vp_x="0 : 220 : 1"
       inkscape:vp_y="0 : 1000 : 0"
       inkscape:vp_z="640 : 220 : 1"
       inkscape:persp3d-origin="320 : 220 : 1"
       id="perspective136" />
    <inkscape:perspective
       sodipodi:type="inkscape:persp3d"
       inkscape:vp_x="0 : 600 : 1"
       inkscape:vp_y="0 : 1000 : 0"
       inkscape:vp_z="1600 : 600 : 1"
       inkscape:persp3d-origin="800 : 600 : 1"
       id="perspective1289" />
    <linearGradient
       inkscape:collect="always"
       id="linearGradient7402">
      <stop
         style="stop-color:#000000;stop-opacity:1"
         offset="0"
         id="stop7404" />
      <stop
         style="stop-color:#ffffff;stop-opacity:1"
         offset="1"
         id="stop7406" />
    </linearGradient>
    <filter
       inkscape:collect="always"
       x="-0.25280899"
       width="1.505618"
       y="-0.25280899"
       height="1.505618"
       id="filter3602">
      <feGaussianBlur
         inkscape:collect="always"
         stdDeviation="4.6348316"
         id="feGaussianBlur3604" />
    </filter>
    <filter
       id="filter8125"
       height="1.5338043"
       y="-0.26690212"
       width="1.5328633"
       x="-0.26643163"
       inkscape:collect="always">
      <feGaussianBlur
         id="feGaussianBlur8127"
         stdDeviation="3.9779066"
         inkscape:collect="always" />
    </filter>
    <filter
       id="filter6712"
       inkscape:collect="always">
      <feGaussianBlur
         id="feGaussianBlur6714"
         stdDeviation="0.93998754"
         inkscape:collect="always" />
    </filter>
    <filter
       id="filter6664"
       inkscape:collect="always">
      <feGaussianBlur
         id="feGaussianBlur6666"
         stdDeviation="0.21047761"
         inkscape:collect="always" />
    </filter>
    <filter
       id="filter6192"
       inkscape:collect="always">
      <feGaussianBlur
         id="feGaussianBlur6194"
         stdDeviation="0.86145189"
         inkscape:collect="always" />
    </filter>
    <filter
       id="filter3517"
       inkscape:collect="always">
      <feGaussianBlur
         id="feGaussianBlur3519"
         stdDeviation="1.6210035"
         inkscape:collect="always" />
    </filter>
    <filter
       id="filter3529"
       inkscape:collect="always">
      <feGaussianBlur
         id="feGaussianBlur3531"
         stdDeviation="2.7101151"
         inkscape:collect="always" />
    </filter>
    <filter
       inkscape:collect="always"
       x="-0.16483144"
       width="1.3296629"
       y="-0.16483144"
       height="1.3296629"
       id="filter3761">
      <feGaussianBlur
         inkscape:collect="always"
         stdDeviation="3.0219098"
         id="feGaussianBlur3763" />
    </filter>
    <linearGradient
       inkscape:collect="always"
       id="linearGradient27472">
      <stop
         style="stop-color:#ffffff;stop-opacity:1;"
         offset="0"
         id="stop27474" />
      <stop
         style="stop-color:#ffffff;stop-opacity:0;"
         offset="1"
         id="stop27476" />
    </linearGradient>
    <linearGradient
       id="linearGradient6473">
      <stop
         id="stop6475"
         offset="0"
         style="stop-color:#ffffff;stop-opacity:0.30434781;" />
      <stop
         id="stop6477"
         offset="1"
         style="stop-color:#7b7e68;stop-opacity:0;" />
    </linearGradient>
    <linearGradient
       id="linearGradient6443">
      <stop
         id="stop6445"
         offset="0"
         style="stop-color:#1c2224;stop-opacity:1" />
      <stop
         style="stop-color:#53676c;stop-opacity:1"
         offset="0.4164257"
         id="stop6467" />
      <stop
         id="stop6469"
         offset="0.75544798"
         style="stop-color:#1c2224;stop-opacity:1" />
      <stop
         id="stop6447"
         offset="1"
         style="stop-color:#1c2224;stop-opacity:1" />
    </linearGradient>
    <linearGradient
       id="linearGradient3817">
      <stop
         style="stop-color:#ffffff;stop-opacity:1"
         offset="0"
         id="stop3819" />
      <stop
         style="stop-color:#333f42;stop-opacity:1;"
         offset="1"
         id="stop3821" />
    </linearGradient>
    <linearGradient
       gradientUnits="userSpaceOnUse"
       y2="0.6100232"
       x2="1595.2845"
       y1="1293.2975"
       x1="157.5609"
       id="linearGradient6449"
       xlink:href="#linearGradient6443"
       inkscape:collect="always" />
    <radialGradient
       gradientTransform="matrix(0.5003844,0.7931534,-0.8457562,0.5335696,1026.401,-320.45314)"
       gradientUnits="userSpaceOnUse"
       r="518.12524"
       fy="715.03784"
       fx="1005.3108"
       cy="723.56018"
       cx="829.52881"
       id="radialGradient6479"
       xlink:href="#linearGradient6473"
       inkscape:collect="always" />
    <clipPath
       id="clipPath8061"
       clipPathUnits="userSpaceOnUse">
      <rect
         y="286.59662"
         x="-31.769878"
         height="287.13077"
         width="1681.9691"
         id="rect8063"
         style="opacity:1;fill:#ffffff;fill-opacity:1;stroke:#000000;stroke-width:1.62510061;stroke-miterlimit:4;stroke-dasharray:none;stroke-opacity:1" />
    </clipPath>
    <radialGradient
       inkscape:collect="always"
       xlink:href="#linearGradient27472"
       id="radialGradient34643"
       gradientUnits="userSpaceOnUse"
       cx="325.71429"
       cy="1008.5714"
       fx="325.71429"
       fy="1008.5714"
       r="34.285713" />
    <filter
       id="filter4326"
       inkscape:collect="always">
      <feGaussianBlur
         id="feGaussianBlur4328"
         stdDeviation="7.0646195"
         inkscape:collect="always" />
    </filter>
    <clipPath
       id="clipPath4320"
       clipPathUnits="userSpaceOnUse">
      <path
         style="fill:#800000;fill-rule:evenodd;stroke:none;stroke-width:1px;stroke-linecap:butt;stroke-linejoin:miter;stroke-opacity:1"
         d="M -57.718844,-64.65519 L -57.718844,-286.71149 L 782.56014,-286.71149 L 782.56014,-104.21266 C 782.56014,-104.21266 614.93418,-57.23221 456.54294,-89.44738 C 302.75738,-120.7258 -57.718844,-61.9706 -57.718844,-64.65519 z"
         id="path4322"
         sodipodi:nodetypes="ccccsc" />
    </clipPath>
    <filter
       id="filter4315"
       inkscape:collect="always">
      <feGaussianBlur
         id="feGaussianBlur4317"
         stdDeviation="4.9680868"
         inkscape:collect="always" />
    </filter>
    <linearGradient
       inkscape:collect="always"
       xlink:href="#linearGradient3817"
       id="linearGradient7394"
       gradientUnits="userSpaceOnUse"
       x1="373.15903"
       y1="-112.13197"
       x2="373.15903"
       y2="-214.88455" />
    <linearGradient
       inkscape:collect="always"
       xlink:href="#linearGradient3817"
       id="linearGradient7396"
       gradientUnits="userSpaceOnUse"
       x1="887.83337"
       y1="113.83334"
       x2="903"
       y2="81.166664" />
    <radialGradient
       inkscape:collect="always"
       xlink:href="#linearGradient3817"
       id="radialGradient7398"
       gradientUnits="userSpaceOnUse"
       cx="893.33331"
       cy="100"
       fx="893.33331"
       fy="100"
       r="18.833334" />
    <linearGradient
       inkscape:collect="always"
       xlink:href="#linearGradient7402"
       id="linearGradient7422"
       gradientUnits="userSpaceOnUse"
       x1="330.05237"
       y1="315.42841"
       x2="330.05237"
       y2="130.81073"
       gradientTransform="matrix(1.2113602,0,0,1.2113602,-320.64027,-587.86746)" />
    <mask
       maskUnits="userSpaceOnUse"
       id="mask7418">
      <rect
         style="opacity:1;fill:url(#linearGradient7422);fill-opacity:1;stroke:none;stroke-width:1;stroke-miterlimit:4;stroke-dasharray:none;stroke-opacity:1"
         id="rect7420"
         width="846.30316"
         height="280.07156"
         x="-359.20084"
         y="-325.55408"
         transform="scale(1,-1)" />
    </mask>
    <linearGradient
       inkscape:collect="always"
       xlink:href="#linearGradient3817"
       id="linearGradient7424"
       gradientUnits="userSpaceOnUse"
       x1="373.15903"
       y1="-112.13197"
       x2="373.15903"
       y2="-214.88455" />
    <filter
       inkscape:collect="always"
       id="filter7511"
       x="-0.097056337"
       width="1.1941127"
       y="-0.24967824"
       height="1.4993565">
      <feGaussianBlur
         inkscape:collect="always"
         stdDeviation="27.415177"
         id="feGaussianBlur7513" />
    </filter>
    <linearGradient
       inkscape:collect="always"
       xlink:href="#linearGradient3817"
       id="linearGradient5467"
       gradientUnits="userSpaceOnUse"
       x1="887.83337"
       y1="113.83334"
       x2="903"
       y2="81.166664" />
    <radialGradient
       inkscape:collect="always"
       xlink:href="#linearGradient3817"
       id="radialGradient5469"
       gradientUnits="userSpaceOnUse"
       cx="893.33331"
       cy="100"
       fx="893.33331"
       fy="100"
       r="18.833334" />
    <filter
       inkscape:collect="always"
       id="filter5512">
      <feGaussianBlur
         inkscape:collect="always"
         stdDeviation="1.0820622"
         id="feGaussianBlur5514" />
    </filter>
    <filter
       inkscape:collect="always"
       id="filter5525">
      <feGaussianBlur
         inkscape:collect="always"
         stdDeviation="1.1541494"
         id="feGaussianBlur5527" />
    </filter>
    <filter
       inkscape:collect="always"
       id="filter5545">
      <feGaussianBlur
         inkscape:collect="always"
         stdDeviation="1.0695154"
         id="feGaussianBlur5547" />
    </filter>
    <radialGradient
       inkscape:collect="always"
       xlink:href="#linearGradient27472"
       id="radialGradient5730"
       gradientUnits="userSpaceOnUse"
       cx="325.71429"
       cy="1008.5714"
       fx="325.71429"
       fy="1008.5714"
       r="34.285713" />
  </defs>
  <metadata
     id="metadata5555">
    <rdf:RDF>
      <cc:Work
         rdf:about="">
        <dc:format>image/svg+xml</dc:format>
        <dc:type
           rdf:resource="http://purl.org/dc/dcmitype/StillImage" />
        <dc:title />
        <dc:date />
        <dc:creator>
          <cc:Agent>
            <dc:title />
          </cc:Agent>
        </dc:creator>
        <dc:rights>
          <cc:Agent>
            <dc:title />
          </cc:Agent>
        </dc:rights>
        <dc:publisher>
          <cc:Agent>
            <dc:title />
          </cc:Agent>
        </dc:publisher>
        <dc:identifier />
        <dc:source />
        <dc:relation />
        <dc:language />
        <dc:subject>
          <rdf:Bag />
        </dc:subject>
        <dc:coverage />
        <dc:description />
        <dc:contributor>
          <cc:Agent>
            <dc:title />
          </cc:Agent>
        </dc:contributor>
        <cc:license
           rdf:resource="" />
      </cc:Work>
    </rdf:RDF>
  </metadata>
  <g
     style="opacity:0.65495211;display:inline"
     inkscape:label="logo#1"
     id="layer16"
     inkscape:groupmode="layer"
     transform="translate(-24.377079,-775.98876)">
    <path
       style="fill:#ffffff;fill-opacity:1;stroke:#ffffff;stroke-width:0.95553809;stroke-miterlimit:4;stroke-dasharray:none;stroke-opacity:1;display:inline;filter:url(#filter5545)"
       d="M 194.5,824.97016 C 167.7375,825.32353 126.12523,839.99868 87.8125,862.84516 L 96.09375,860.06391 C 131.80423,840.09104 169.21656,827.43764 194.0625,826.97016 L 199.65625,825.09516 C 198.00949,824.9897 196.28417,824.9466 194.5,824.97016 z"
       id="path5555"
       transform="matrix(0.6365194,0,0,0.6365194,16.857164,274.59952)" />
    <g
       transform="matrix(0.5254584,0,0,-0.5254584,199.34371,1078.7114)"
       id="g7360"
       mask="url(#mask7418)">
      <g
         id="g7362"
         inkscape:label="Orbit-below"
         transform="translate(-331.59089,77.725396)">
        <path
           inkscape:export-ydpi="90"
           inkscape:export-xdpi="90"
           inkscape:export-filename="/home/bernie/software/sidux-art/gaia/ksplash-logo.png"
           sodipodi:type="arc"
           style="opacity:1;fill:none;fill-opacity:1;stroke:#000000;stroke-width:0.67402661;stroke-miterlimit:4;stroke-dasharray:none;stroke-opacity:1;display:inline"
           id="path7364"
           sodipodi:cx="907.5"
           sodipodi:cy="287.91666"
           sodipodi:rx="65"
           sodipodi:ry="27.083334"
           d="M 904.26011,260.86699 A 65,27.083334 0 0 1 960.85722,272.44936"
           transform="matrix(1.4958443,-0.7580411,1.046958,0.8248517,-1516.2826,547.51817)"
           sodipodi:start="4.6625238"
           sodipodi:end="5.6753397"
           sodipodi:open="true" />
      </g>
      <g
         id="g7366"
         inkscape:label="Clones"
         transform="translate(-341.12404,34.124468)"
         style="display:inline">
        <use
           style="fill:#000000;stroke:#000000;stroke-width:7;stroke-miterlimit:4;stroke-dasharray:none;filter:url(#filter4326)"
           height="1052.3622"
           width="744.09448"
           transform="translate(60,298)"
           id="use7368"
           xlink:href="#text2389"
           y="0"
           x="0" />
        <use
           x="0"
           y="0"
           xlink:href="#text2389"
           id="use7370"
           transform="translate(60,298)"
           width="744.09448"
           height="1052.3622"
           style="fill:#000000;stroke:#000000;stroke-width:7;stroke-miterlimit:4;stroke-dasharray:none;filter:url(#filter4315)" />
        <use
           x="0"
           y="0"
           xlink:href="#text2389"
           id="use7372"
           transform="translate(60,298)"
           width="744.09448"
           height="1052.3622"
           style="fill:#ff0000;stroke:#000000;stroke-width:6;stroke-miterlimit:4;stroke-dasharray:none" />
        <use
           style="fill:#445458;fill-opacity:0.65490196;stroke:#ffffff;stroke-width:2.5;stroke-miterlimit:4;stroke-dasharray:none"
           height="1052.3622"
           width="744.09448"
           transform="translate(60,298)"
           id="use7374"
           xlink:href="#text2389"
           y="0"
           x="0" />
        <use
           x="0"
           y="0"
           xlink:href="#text2389"
           id="use7376"
           transform="translate(60,298)"
           width="744.09448"
           height="1052.3622"
           style="opacity:0.85407727;fill:url(#linearGradient7394);fill-opacity:1;stroke:#ffffff;stroke-width:2.5;stroke-miterlimit:4;stroke-dasharray:none"
           clip-path="url(#clipPath4320)" />
      </g>
      <g
         id="g7378"
         inkscape:label="Orbit-above"
         transform="translate(-331.59089,77.725396)">
        <path
           inkscape:export-ydpi="90"
           inkscape:export-xdpi="90"
           inkscape:export-filename="/home/bernie/software/sidux-art/gaia/ksplash-logo.png"
           sodipodi:type="arc"
           style="opacity:1;fill:#000000;fill-opacity:1;stroke:none;stroke-width:1;stroke-miterlimit:4;stroke-dasharray:none;stroke-opacity:1;display:inline;filter:url(#filter3761)"
           id="path7380"
           sodipodi:cx="893.33331"
           sodipodi:cy="100"
           sodipodi:rx="18.333334"
           sodipodi:ry="18.333334"
           d="M 911.66665,100 A 18.333334,18.333334 0 1 1 874.99998,100 A 18.333334,18.333334 0 1 1 911.66665,100 z"
           transform="matrix(1.5967609,0,0,1.5967609,-1185.8675,-120.8277)" />
        <path
           inkscape:export-ydpi="90"
           inkscape:export-xdpi="90"
           inkscape:export-filename="/home/bernie/software/sidux-art/gaia/ksplash-logo.png"
           sodipodi:type="arc"
           style="opacity:1;fill:#333f42;fill-opacity:1;stroke:#000000;stroke-width:2.9000001;stroke-miterlimit:4;stroke-dasharray:none;stroke-opacity:1;display:inline"
           id="path7382"
           sodipodi:cx="893.33331"
           sodipodi:cy="100"
           sodipodi:rx="18.333334"
           sodipodi:ry="18.333334"
           d="M 911.66665,100 A 18.333334,18.333334 0 1 1 874.99998,100 A 18.333334,18.333334 0 1 1 911.66665,100 z"
           transform="matrix(1.5967609,0,0,1.5967609,-1189.523,-124.48315)" />
        <path
           inkscape:export-ydpi="90"
           inkscape:export-xdpi="90"
           inkscape:export-filename="/home/bernie/software/sidux-art/gaia/ksplash-logo.png"
           sodipodi:type="arc"
           style="opacity:1;fill:#53676c;fill-opacity:1;stroke:none;stroke-width:1;stroke-miterlimit:4;stroke-dasharray:none;stroke-opacity:1;display:inline"
           id="path7384"
           sodipodi:cx="893.33331"
           sodipodi:cy="100"
           sodipodi:rx="18.333334"
           sodipodi:ry="18.333334"
           d="M 911.66665,100 A 18.333334,18.333334 0 1 1 874.99998,100 A 18.333334,18.333334 0 1 1 911.66665,100 z"
           transform="matrix(1.5967609,0,0,1.5967609,-1189.523,-124.48315)" />
        <path
           inkscape:export-ydpi="90"
           inkscape:export-xdpi="90"
           inkscape:export-filename="/home/bernie/software/sidux-art/gaia/ksplash-logo.png"
           transform="matrix(1.5967609,0,0,1.5967609,-1189.523,-124.48315)"
           d="M 911.66665,100 A 18.333334,18.333334 0 1 1 874.99998,100 A 18.333334,18.333334 0 1 1 911.66665,100 z"
           sodipodi:ry="18.333334"
           sodipodi:rx="18.333334"
           sodipodi:cy="100"
           sodipodi:cx="893.33331"
           id="path7386"
           style="opacity:1;fill:url(#linearGradient7396);fill-opacity:1;stroke:#ffffff;stroke-width:1;stroke-miterlimit:4;stroke-dasharray:none;stroke-opacity:1;display:inline"
           sodipodi:type="arc" />
        <path
           inkscape:export-ydpi="90"
           inkscape:export-xdpi="90"
           inkscape:export-filename="/home/bernie/software/sidux-art/gaia/ksplash-logo.png"
           sodipodi:type="arc"
           style="opacity:1;fill:url(#radialGradient7398);fill-opacity:1;stroke:none;stroke-width:1;stroke-miterlimit:4;stroke-dasharray:none;stroke-opacity:1;display:inline;filter:url(#filter3602)"
           id="path7388"
           sodipodi:cx="893.33331"
           sodipodi:cy="100"
           sodipodi:rx="18.333334"
           sodipodi:ry="18.333334"
           d="M 911.66665,100 A 18.333334,18.333334 0 1 1 874.99998,100 A 18.333334,18.333334 0 1 1 911.66665,100 z"
           transform="matrix(0.8902296,0,0,0.8902296,-554.3632,-60.483186)" />
        <path
           inkscape:export-ydpi="90"
           inkscape:export-xdpi="90"
           inkscape:export-filename="/home/bernie/software/sidux-art/gaia/ksplash-logo.png"
           transform="matrix(0.1226519,0,0,0.1763589,142.98706,9.3677366)"
           sodipodi:open="true"
           sodipodi:end="10.413587"
           sodipodi:start="4.1887902"
           d="M 787.39288,194.07582 A 30.935923,21.507832 0 1 1 785.85582,194.73511"
           sodipodi:ry="21.507832"
           sodipodi:rx="30.935923"
           sodipodi:cy="212.70215"
           sodipodi:cx="802.86084"
           id="path7390"
           style="opacity:0.85393258;fill:#000000;fill-opacity:1;stroke:none;stroke-width:0.60000002;stroke-miterlimit:4;stroke-dasharray:none;stroke-opacity:1;display:inline"
           sodipodi:type="arc" />
        <path
           inkscape:export-ydpi="90"
           inkscape:export-xdpi="90"
           inkscape:export-filename="/home/bernie/software/sidux-art/gaia/ksplash-logo.png"
           sodipodi:open="true"
           sodipodi:end="4.1304021"
           sodipodi:start="0"
           transform="matrix(1.4958443,-0.7580411,1.046958,0.8248517,-1516.2826,547.51817)"
           d="M 972.5,287.91666 A 65,27.083334 0 1 1 871.77049,265.29199"
           sodipodi:ry="27.083334"
           sodipodi:rx="65"
           sodipodi:cy="287.91666"
           sodipodi:cx="907.5"
           id="path7392"
           style="opacity:1;fill:none;fill-opacity:1;stroke:#000000;stroke-width:0.67402661;stroke-miterlimit:4;stroke-dasharray:none;stroke-opacity:1;display:inline"
           sodipodi:type="arc" />
      </g>
    </g>
    <use
       x="0"
       y="0"
       xlink:href="#text2389"
       id="use7450"
       transform="matrix(0.5290273,0,0,6.1503541e-2,50.370437,914.00935)"
       width="744.09448"
       height="1052.3622"
       style="fill:#000000;stroke:#000000;stroke-width:7;stroke-miterlimit:4;stroke-dasharray:none;filter:url(#filter7511)" />
    <g
       transform="matrix(0,-1.5995757,1.5995757,0,-356.96391,1340.8627)"
       style="opacity:0.75925927;fill:#000000;fill-opacity:1;display:none"
       inkscape:label="dark"
       id="g2586">
      <path
         inkscape:export-ydpi="90"
         inkscape:export-xdpi="90"
         inkscape:export-filename="/home/bgray/software/sidux-art/svg-core/sidux-logo.png"
         sodipodi:nodetypes="ccccccccccccccccccccccccccccccccccccscscccccccccccccccccccccccccccccscccscccccccscsccsscsccccccsscccccccccsscccccccccccccccccccccc"
         id="path2588"
         d="M 365.00825,280.50902 L 363.9375,397.375 C 363.93742,399.54946 363.33293,400.65625 362.125,400.65625 L 308.6875,400.65625 C 302.16525,400.65625 296.41527,399.31581 291.4375,396.6875 C 297.90106,403.32065 306.32609,406.65625 316.6875,406.65625 L 370.125,406.65625 C 371.33293,406.65625 371.93742,405.54946 371.9375,403.375 L 371.9375,276.1875 C 371.93741,274.49638 371.33294,273.65637 370.125,273.65625 L 365.00825,280.50902 z M 497.84375,309.71875 L 505.8125,322.90625 C 507.61459,325.80973 509.34332,326.28413 511.0625,324.375 L 503.28125,311.5 C 502.55637,310.29208 501.48086,309.71884 500.03125,309.71875 L 497.84375,309.71875 z M 546.9871,317.64534 L 527.54415,347.15166 C 525.61124,350.05099 523.56288,352.31114 525.375,354.96875 L 553.09375,398.28125 C 554.06009,399.73088 553.99342,400.46877 552.90625,400.46875 L 535.97419,400.61789 L 534.46875,405.03125 C 535.07269,405.9977 536.01485,406.46875 537.34375,406.46875 L 560.90625,406.46875 C 561.99342,406.46877 562.06009,405.73088 561.09375,404.28125 L 533.375,360.96875 C 531.56288,358.31114 531.62959,355.55558 533.5625,352.65625 L 559.65625,311.5 C 560.38096,310.29208 560.18088,309.71884 559.09375,309.71875 L 546.9871,317.64534 z M 225.03489,314.80043 L 223.75,324.71875 C 223.74993,325.92686 223.14545,326.53132 221.9375,326.53125 L 175.9375,326.53125 C 171.24703,328.91755 171.06229,332.84258 171.21146,337.28388 C 171.37272,342.08505 167.19003,341.67214 172.56268,341.70023 C 172.51975,341.30896 175.03555,343.71331 175.03555,343.28388 C 175.03552,338.69344 178.50133,332.53132 183.9375,332.53125 L 229.9375,332.53125 C 231.14545,332.53132 231.74993,331.92686 231.75,330.71875 L 231.75,311.875 C 231.74994,310.54625 231.14546,309.8751 229.9375,309.875 L 225.03489,314.80043 z M 262.70495,315.87118 L 262.0625,397.375 C 262.06246,399.54946 261.45802,400.65625 260.25,400.65625 L 252.97413,401.2987 L 251.04679,404.01745 C 247.83455,405.76361 248.01071,406.65625 249.21875,406.65625 L 268.25,406.65625 C 269.45802,406.65625 270.06246,405.54946 270.0625,403.375 L 270.0625,312.78125 C 270.06245,310.84851 269.45802,309.8751 268.25,309.875 L 262.70495,315.87118 z M 396.70955,316.91163 L 396.28125,370.75 C 397.62538,373.90345 397.41488,375.79677 399.81567,378.22119 C 400.58264,378.56207 401.64365,379.67758 402.51082,379.9383 C 403.95116,381.48041 405.76749,381.87526 405.76749,381.70412 L 404.28125,315.3125 C 404.28124,312.65491 403.67675,311.34385 402.46875,311.34375 L 396.70955,316.91163 z M 454.6783,316.91163 L 454.25,378.53125 C 454.24992,382.39698 453.10769,385.72153 450.8125,388.5 C 446.22192,393.93616 438.86614,397.56296 428.71875,399.375 C 424.00736,400.22062 419.23835,400.65625 414.40625,400.65625 C 409.33249,400.65625 404.43004,400.22062 399.71875,399.375 C 394.52699,398.43674 390.07801,397.00368 386.34375,395.09375 C 390.95849,400.192 398.07175,403.63158 407.71875,405.375 C 412.43004,406.22062 417.33249,406.65625 422.40625,406.65625 C 427.23835,406.65625 432.00736,406.22062 436.71875,405.375 C 446.86614,403.56296 454.22192,399.93616 458.8125,394.5 C 461.10769,391.72153 462.24992,388.39698 462.25,384.53125 L 462.25,315.3125 C 462.24993,312.65491 461.64544,311.34385 460.4375,311.34375 L 454.6783,316.91163 z M 319.375,326.53125 C 309.58989,326.53132 303.47853,327.74026 301.0625,330.15625 C 298.6464,332.5724 296.76631,335.72811 295.4375,339.59375 C 294.10862,343.0971 293.46873,347.56391 293.46875,353 C 293.46872,359.76503 294.97989,365.37406 298,369.84375 C 299.81664,372.56876 302.51651,374.60972 306.09375,375.96875 C 306.06458,375.92599 306.02873,375.88685 306,375.84375 C 302.97989,371.37406 301.46872,365.76503 301.46875,359 C 301.46873,353.56391 302.10862,349.0971 303.4375,345.59375 C 304.76631,341.72811 306.92033,339.3942 309.33643,336.97805 C 311.75246,334.56206 317.58989,332.53132 327.375,332.53125 L 349.14442,333.89645 L 349.96622,331.08349 C 349.87484,328.659 347.62678,327.7139 344.22734,326.89203 L 319.375,326.53125 z M 222.0625,348.78125 C 223.81332,351.08165 225.1856,354.0346 226.125,357.6875 C 227.21214,361.91565 227.74991,367.32042 227.75,373.84375 C 227.74991,379.52152 226.4076,384.89501 223.75,389.96875 C 222.3003,392.86804 220.25135,395.38804 217.59375,397.5625 C 214.93601,399.61615 211.50931,400.65625 207.28125,400.65625 L 160.45937,401.2987 L 157.24713,403.55886 C 153.82075,405.40933 153.35447,406.65625 154.5625,406.65625 L 215.28125,406.65625 C 219.50931,406.65625 222.93601,405.61615 225.59375,403.5625 C 228.25135,401.38804 230.3003,398.86804 231.75,395.96875 C 234.4076,390.89501 235.74991,385.52152 235.75,379.84375 C 235.74991,373.32042 235.21214,367.91565 234.125,363.6875 C 233.03768,359.45943 231.39313,356.16612 229.21875,353.75 C 227.33041,351.54705 224.9528,349.8911 222.0625,348.78125 z M 159.59375,360.3125 C 161.36864,362.65203 163.67842,364.50568 166.53125,365.875 C 169.67213,367.32467 173.46776,368.06254 177.9375,368.0625 L 205.21875,368.0625 C 204.80788,364.05108 202.27905,362.06255 197.65625,362.0625 L 169.9375,362.0625 C 165.95511,362.06254 162.52126,361.46328 159.59375,360.3125 z M 508.72586,378.15888 C 506.71545,381.43995 504.99635,384.59741 504.02994,386.10743 L 495.22849,400.52265 C 491.93994,400.44511 489.85586,400.46877 488.40625,400.46875 L 483.27043,400.89705 L 480.85182,401.86096 C 478.03903,403.84303 476.58309,404.08252 472.65625,406.46875 L 496.40625,406.46875 C 497.85586,406.46877 498.89596,405.99769 499.5,405.03125 L 513.96875,382.5625 C 514.27575,382.08281 514.59925,381.67106 514.90625,381.34375 L 517.00114,379.54529 C 513.79758,377.88612 511.33283,377.71146 508.72586,378.15888 z"
         style="font-size:156px;font-style:normal;font-weight:bold;opacity:0.98518521;fill:#000000;fill-opacity:1;stroke:none;stroke-width:3.9000001;stroke-linecap:butt;stroke-linejoin:miter;stroke-miterlimit:4;stroke-dasharray:none;stroke-opacity:1;filter:url(#filter3529);font-family:Sidux" />
    </g>
    <g
       transform="matrix(0,-1.5995757,1.5995757,0,-356.96391,1340.8627)"
       style="opacity:0.76074075;fill:#000000;fill-opacity:1;display:none"
       inkscape:label="light"
       id="g2590">
      <path
         inkscape:export-ydpi="90"
         inkscape:export-xdpi="90"
         inkscape:export-filename="/home/bgray/software/sidux-art/svg-core/sidux-logo.png"
         sodipodi:nodetypes="ccccccccccccccccccccccccccccccccccccccccccccccccccccccsccsccccccccccccccccccccccccccccccccccscccscccccccccccccccccccccccccccccccscccccccccscccccc"
         id="path2592"
         d="M 351.28125,273.65625 C 349.95235,273.65638 349.31243,274.49637 349.3125,276.1875 L 349.3125,308.0625 C 349.31243,309.27064 348.70797,309.8751 347.5,309.875 L 315.59375,310.0625 C 302.90938,310.0626 292.86899,316.34279 285.5,328.90625 C 281.75508,335.18809 279.53733,345.2285 278.8125,359 C 278.32929,370.35554 280.61376,380.3647 285.6875,389.0625 C 287.81449,392.68211 290.2785,395.74847 293.0625,398.25 C 292.61871,397.5813 292.19962,396.89946 291.78125,396.1875 C 286.70752,387.48968 284.39179,377.44929 284.875,366.09375 C 285.59981,352.32224 286.95399,340.82169 290.69891,334.53985 C 297.15775,324.70682 303.35877,322.47632 321.6875,317.1875 L 353.5625,317 C 354.77048,317.00012 356.28506,310.0247 356.28513,308.81656 L 356.28513,288.28699 C 356.28505,286.59588 356.0461,280.75013 357.375,280.75 L 364.22813,280.3217 L 367.22622,277.68654 C 368.51102,275.78127 371.33294,273.65637 370.125,273.65625 L 351.28125,273.65625 z M 476.48077,310.9407 C 475.72762,311.07289 475.69031,311.66501 476.32452,312.72195 L 501.99479,351.67869 C 505.76054,356.89973 503.71867,359.53308 501.90665,362.1907 L 476.56883,401.41736 C 475.844,402.50459 471.81062,406.46875 472.65625,406.46875 L 481.14542,401.08601 L 504.70112,368.82692 C 505.65654,365.3127 506.2677,361.11971 504.67908,357.66205 L 480.1875,318.625 C 479.46269,317.41707 479.66276,316.81258 480.75,316.8125 L 506.125,316.8125 C 506.26108,316.81251 497.1619,316.61895 497.29159,316.6296 L 498.99827,313.85564 C 499.73973,313.62528 500.13671,312.77372 500.64223,311.18509 L 476.85577,310.9407 C 476.71986,310.94071 476.58836,310.92182 476.48077,310.9407 z M 534.32131,311.42948 C 533.03964,311.56167 532.32486,312.39819 531.44631,313.21073 L 521.3782,329.51723 C 520.39383,331.19643 518.16834,331.46177 517.15625,331.53125 L 519.875,336.03125 C 522.6604,336.23535 525.38697,332.08072 526.82973,330.89905 L 534.72957,316.91427 C 535.45433,315.70634 538.4295,316.81258 540,316.8125 L 546.64454,315.52761 L 551.73273,312.78489 C 554.81308,311.14868 553.21575,312.04055 556.28326,311.18509 L 534.88381,311.42948 C 534.6875,311.42949 534.50441,311.4106 534.32131,311.42948 z M 190.20453,311.06812 C 183.80192,311.06822 177.91431,311.80213 173.44461,312.64765 C 164.38435,314.09738 160.03117,317.53596 157.37351,324.78406 C 155.92387,328.64983 155.48428,333.0891 155.48429,339.25 C 155.48428,348.18949 156.85028,354.17933 160.47437,359.01141 C 161.64957,360.65673 161.87918,362.96828 163.5625,364.15625 C 161.13513,359.59122 159.93749,353.65989 159.9375,346.34375 C 159.93749,340.18285 160.64411,335.17829 162.09375,331.3125 C 165.96747,325.45254 168.80699,321.52001 179.6875,318.25 C 184.1572,317.40448 189.59739,317.00012 196,317 L 223.61233,316.35755 L 226.61042,313.58819 C 228.32355,312.25944 230.5489,311.32826 229.34094,311.32816 L 190.20453,311.06812 z M 249.21875,309.875 C 248.0107,309.8751 247.40625,310.8485 247.40625,312.78125 L 247.40625,403.375 C 247.40625,405.54946 248.01071,406.65625 249.21875,406.65625 L 252.42925,402.15912 L 253.5,319.90625 C 253.5,317.9735 254.10447,317.00012 255.3125,317 L 262.56728,316.35755 L 265.77952,313.4237 C 267.70681,311.49096 269.45802,309.8751 268.25,309.875 L 249.21875,309.875 z M 384.45753,312.81009 C 383.24951,312.8102 383.86697,312.65492 383.86698,315.3125 L 384.11138,385.14223 C 384.11136,389.00796 384.88629,390.46588 387.30236,393.24434 C 388.414,394.56076 388.12715,394.42129 389.55757,395.52519 C 388.64998,393.56431 389.16012,394.48064 389.16013,392.11132 L 388.25,322.4375 C 388.24999,319.77992 388.61008,316.11589 389.69591,317.45994 L 397.85678,316.81749 L 400.21242,315.09835 C 401.28315,313.9398 403.18797,312.81019 401.97997,312.81009 L 384.45753,312.81009 z M 442.82412,312.93229 C 441.616,312.9324 441.62253,312.77712 441.62259,315.4347 L 441.86698,376.99439 C 441.13376,380.02426 438.95377,381.41556 435.57412,383.84134 C 432.19156,385.29097 427.48273,386.242 422.65064,386.24198 C 417.81472,386.242 412.70936,384.97919 409.51963,383.66226 L 407.19792,383.50841 C 407.1979,385.5621 412.22382,387.77752 415.96875,389.46875 C 419.23041,390.9184 423.39498,390.43433 428.46875,390.4343 C 433.30084,390.43432 436.57458,389.20767 439.95713,387.75802 C 443.58117,384.90271 444.72187,384.1197 446.00561,381.88718 L 446.25,322.4375 C 446.24994,319.77992 446.85439,318.4376 448.0625,318.4375 L 455.18308,317.5809 L 457.53872,315.3125 C 459.46599,313.29736 461.64544,311.34385 460.4375,311.34375 L 442.82412,312.93229 z M 349.49512,333.81234 L 349.3125,382.1875 C 349.31243,383.39556 348.70797,384.00003 347.5,384 L 327.375,384 C 320.12376,384.00002 312.50965,384.23424 308.51835,378.73251 C 308.98878,379.68079 314.94743,384.58305 315.53038,385.44581 C 322.62234,390.38658 322.80678,391.09378 333.4375,391.09375 L 353.5625,391.09375 C 354.77048,391.09379 355.37493,390.52056 355.375,389.3125 L 355.28369,332.85913 C 355.28361,331.53039 354.67916,330.89045 353.47119,330.89038 L 349.49512,333.81234 z M 176.773,345.93469 C 181.24716,352.55656 184.86211,352.14076 190.29828,352.14071 L 214.46875,353.78125 C 219.30082,353.7813 222.05643,352.52942 226.78125,355.40625 C 228.73999,356.01418 230.48789,356.87642 232.03125,357.9375 C 231.22719,356.32 229.53775,355.23135 228.47305,354.04828 C 226.29852,351.51146 223.77455,350.44377 220.27133,349.35648 C 216.88877,348.2693 213.05793,347.25286 208.22586,347.25281 L 183.63922,347.25281 C 182.89661,347.25282 177.41416,346.02486 176.773,345.93469 z M 212.78584,368.80964 C 212.78593,368.83035 214.47437,376.0374 214.47437,376.0582 C 214.47431,381.85679 210.28252,384.14917 205.50711,385.34226 L 155.3082,385.19312 C 154.10017,385.19315 152.75,384.60448 152.75,385.8125 L 152.75,404.84375 C 152.75,406.05178 154.63936,404.72891 155.84739,402.80157 L 158.6296,400.44592 L 158.84375,392.90625 C 158.84375,391.69823 159.44822,391.09379 160.65625,391.09375 L 208.28212,390.10293 C 216.32828,386.63507 216.89787,386.22318 217.39335,379.92919 C 217.73196,375.62796 216.83086,373.7305 212.78584,368.80964 z M 522.96875,387.40625 L 534.46875,405.03125 C 534.98405,405.85586 535.76942,406.28523 536.8125,406.40625 L 525.875,389.65625 C 524.90855,388.14622 523.93518,387.40625 522.96875,387.40625 z"
         style="font-size:156px;font-style:normal;font-weight:bold;opacity:0.5987261;fill:#000000;fill-opacity:1;stroke:none;stroke-width:3.9000001;stroke-linecap:butt;stroke-linejoin:miter;stroke-miterlimit:4;stroke-dasharray:none;stroke-opacity:1;filter:url(#filter3517);font-family:Sidux" />
    </g>
    <g
       transform="matrix(0,-1.5995757,1.5995757,0,-356.96391,1340.8627)"
       style="fill:#000000;fill-opacity:1;display:none"
       inkscape:label="planet"
       id="g2598">
      <path
         inkscape:export-ydpi="90"
         inkscape:export-xdpi="90"
         inkscape:export-filename="/home/bgray/software/sidux-art/svg-core/sidux-logo.png"
         transform="matrix(0.8823588,0,0,0.8823588,205.95193,-50.149152)"
         id="path2600"
         d="M 60.755894,368.54772 C 70.063305,369.32572 76.985719,377.51099 76.207713,386.8184 C 75.429707,396.12581 67.244441,403.04822 57.93703,402.27022 C 48.62962,401.49221 41.707205,393.30694 42.485212,383.99953 C 43.142282,376.1389 48.851537,369.96986 56.637857,368.70712"
         style="opacity:1;fill:#000000;fill-opacity:1;stroke:none;stroke-opacity:1;display:inline;filter:url(#filter6192)" />
      <g
         transform="translate(-113.59653,57.366238)"
         id="g2602"
         style="opacity:1;fill:#000000;fill-opacity:1;display:inline">
        <path
           id="path2604"
           d="M 366.67158,245.41067 C 361.23794,243.58903 358.0787,239.38194 357.62729,233.36661 C 356.87171,223.29797 363.07839,217.11264 373.17625,217.87116 C 377.68136,218.20956 379.0486,218.82171 382.08804,221.86115 C 385.13036,224.90346 385.73841,226.26358 386.07217,230.77294 C 386.50469,236.61662 384.46712,241.1658 380.15245,243.9896 C 377.0401,246.02653 370.54945,246.71073 366.67158,245.41067 z"
           style="fill:#000000;fill-opacity:1;filter:url(#filter6664)" />
        <path
           id="path2606"
           d="M 364.38473,244.31517 C 360.53126,242.36529 357.35418,236.88562 357.35845,232.1966 C 357.37172,217.629 376.74597,212.34715 384.36011,224.83534 C 387.90231,230.645 386.29497,239.13651 380.84103,243.42658 C 377.65163,245.93536 368.55714,246.42644 364.38473,244.31517 z"
           style="fill:#000000;fill-opacity:1" />
        <path
           id="path2608"
           d="M 364.6244,244.11189 C 358.35217,241.38518 355.73231,233.4132 358.74157,226.21102 C 360.34839,222.36535 365.48252,218.32256 367.68579,219.16803 C 368.51774,219.48728 370.15563,219.23621 371.32554,218.61009 C 376.71153,215.7276 386.35471,223.86609 386.35471,231.29418 C 386.35471,235.48939 383.96592,240.37914 380.48534,243.30852 C 377.36023,245.93873 369.71717,246.32586 364.6244,244.11189 z"
           style="fill:#000000;fill-opacity:1;filter:url(#filter6712)" />
        <path
           id="path2610"
           d="M 364.68019,244.13535 C 358.86895,241.60759 356.04312,234.09866 358.31382,227.21836 C 359.60956,223.29225 363.957,219.22789 366.01577,220.01791 C 366.72908,220.29164 368.71016,219.92801 370.41815,219.20985 C 374.73629,217.39421 377.94677,218.27357 381.91413,222.35863 C 387.81223,228.43171 387.74422,234.94382 381.71297,241.61969 C 378.40017,245.28656 377.7243,245.59145 372.98835,245.55534 C 370.16485,245.53381 366.42617,244.89481 364.68019,244.13535 z M 382.74842,232.53381 C 383.51037,227.76885 383.19163,227.07863 379.29993,225.06615 C 374.31984,222.49085 368.42126,225.51817 371.81217,228.90908 C 372.56703,229.66394 373.11041,231.07968 373.01968,232.05518 C 372.90214,233.31888 373.68774,233.92377 375.75222,234.15914 C 377.34585,234.34084 379.12335,234.96312 379.70222,235.54199 C 381.48702,237.32679 382.07481,236.74632 382.74842,232.53381 z"
           style="fill:#000000;fill-opacity:1" />
        <path
           sodipodi:nodetypes="cssssssccssccsssssssssssc"
           id="path2612"
           d="M 364.54707,243.91889 C 361.02074,242.18107 357.33951,236.2593 357.37667,232.38432 C 357.432,226.61546 363.50728,218.33467 366.38121,220.11086 C 366.92305,220.44573 368.87081,220.17571 370.70957,219.5108 C 375.13956,217.9089 378.90913,218.9832 382.44601,222.85559 C 387.84162,228.76302 387.06674,237.0061 380.58046,242.70113 C 377.92928,245.0289 376.36341,245.59003 372.56991,245.57171 C 369.97655,245.55919 366.36627,244.81542 364.54707,243.91889 z M 376.60471,237.88875 C 375.36721,237.65039 373.34221,237.65039 372.10471,237.88875 C 370.86721,238.1271 371.87971,238.32212 374.35471,238.32212 C 376.82971,238.32212 377.84221,238.1271 376.60471,237.88875 z M 382.96393,233.34448 C 383.88661,229.44055 383.61738,227.59113 381.83571,225.59448 C 381.09955,224.76948 380.44471,223.64448 380.38052,223.09448 C 380.31633,222.54448 379.27177,222.24614 378.05926,222.43149 C 374.00263,223.05163 370.94554,225.07193 370.24668,227.59448 C 369.70045,229.56612 369.533,229.67761 369.45439,228.12197 C 369.35999,226.25403 369.27212,226.26738 367.79678,228.37373 C 366.93991,229.59707 366.54616,231.09524 366.92178,231.703 C 367.40788,232.48953 367.82288,232.455 368.36168,231.58321 C 368.91792,230.68318 369.68027,230.92004 371.23668,232.47645 C 372.43382,233.67359 374.63341,234.59448 376.29569,234.59448 C 377.91323,234.59448 379.51479,235.04448 379.85471,235.59448 C 381.00874,237.46175 382.19345,236.60443 382.96393,233.34448 z"
           style="fill:#000000;fill-opacity:1" />
        <path
           id="path2614"
           d="M 367.35471,244.94241 C 360.89845,242.8154 356.64205,236.20681 357.78938,230.09104 C 358.70955,225.18611 362.75404,220.71117 366.17898,220.80855 C 367.69729,220.85172 369.90337,220.37121 371.08139,219.74076 C 373.65744,218.3621 376.33069,218.29371 378.32575,219.55542 C 380.04473,220.64254 379.7218,221.07895 376.45344,222.08565 C 374.47312,222.69562 374.16403,222.53377 374.69028,221.1624 C 375.274,219.64123 375.14009,219.6314 373.11904,221.047 C 371.9039,221.89811 370.1202,222.59448 369.15526,222.59448 C 368.19031,222.59448 366.66369,223.71948 365.76275,225.09448 C 364.86182,226.46948 363.528,227.59448 362.79872,227.59448 C 360.92461,227.59448 359.93066,229.57043 361.17756,230.81733 C 361.909,231.54877 362.73526,231.35679 363.90947,230.18258 C 365.97569,228.11636 366.87525,228.75333 365.50551,231.31272 C 364.00348,234.11928 365.59066,236.04197 367.37074,233.57224 C 368.79514,231.59599 371.01715,230.71362 369.86179,232.58303 C 369.51145,233.14989 369.91285,233.31753 370.80277,232.97604 C 371.65634,232.64849 372.35471,232.87865 372.35471,233.48749 C 372.35471,234.09634 373.60458,234.59448 375.1322,234.59448 C 376.65983,234.59448 378.84463,235.24933 379.98733,236.04971 C 381.95036,237.42467 382.12723,237.2971 383.1938,233.7372 C 383.95483,231.19714 384.01253,228.84941 383.3709,226.53197 C 382.50554,223.40645 382.55122,223.26907 383.87422,225.01821 C 387.78089,230.18325 386.38763,236.49537 379.9564,242.76775 C 377.68502,244.98303 376.17085,245.5774 372.9564,245.51553 C 370.70047,245.47211 368.17971,245.21421 367.35471,244.94241 z M 377.44846,239.54431 C 380.32178,238.00655 378.81256,236.59448 374.29569,236.59448 C 369.89699,236.59448 369.20385,237.73381 372.60471,239.37399 C 375.50086,240.77075 375.17805,240.7594 377.44846,239.54431 z M 366.56117,226.09448 C 366.76244,224.81241 367.76888,223.99506 369.36493,223.81753 C 371.71849,223.55573 371.74529,223.60577 369.85471,224.73207 C 368.75471,225.38738 367.49302,226.41201 367.05095,227.00902 C 366.57333,227.65404 366.37459,227.28296 366.56117,226.09448 z"
           style="fill:#000000;fill-opacity:1" />
        <path
           id="path2616"
           d="M 365.42579,243.84293 C 361.61116,241.8978 358.84942,238.43155 357.96885,234.48374 C 357.44377,232.12971 357.64936,231.90185 360.05959,232.16643 C 361.61693,232.33738 363.21032,231.80663 363.87702,230.89486 C 364.82624,229.59672 365.02138,229.86072 365.02138,232.44304 C 365.02138,237.06499 369.51478,240.91172 374.25419,240.3471 C 376.23447,240.11118 378.64221,239.57219 379.60471,239.14933 C 382.20383,238.00746 381.83553,240.79415 379.04026,243.42017 C 376.16518,246.12116 370.25369,246.30473 365.42579,243.84293 z M 366.93731,235.72813 C 366.64282,235.25163 367.23778,234.10529 368.25944,233.1807 C 369.93591,231.66352 370.26786,231.65049 371.66443,233.04705 C 372.51551,233.89814 374.2565,234.60137 375.53328,234.60979 C 376.81007,234.61821 378.52971,235.06132 379.35471,235.59448 C 380.40593,236.27383 378.85284,236.56844 374.16373,236.57917 C 370.48369,236.58759 367.2318,236.20462 366.93731,235.72813 z M 383.85471,231.16283 C 383.85471,225.44003 384.69974,224.97923 385.77818,230.11394 C 386.16332,231.94768 385.91017,233.82017 385.13353,234.88228 C 384.0378,236.38079 383.85471,235.84829 383.85471,231.16283 z M 359.07464,227.59448 C 359.66452,224.1516 363.07862,220.70952 365.32181,221.29613 C 366.32745,221.55911 368.06894,221.2826 369.19179,220.68167 C 370.37084,220.05066 371.46971,219.97153 371.79284,220.49436 C 372.10056,220.99228 371.03881,221.85756 369.43338,222.41721 C 367.82796,222.97686 365.57849,224.3707 364.43457,225.51462 C 363.29065,226.65854 361.71271,227.59448 360.92803,227.59448 C 360.14336,227.59448 359.30897,228.15698 359.07383,228.84448 C 358.8387,229.53198 358.83906,228.96948 359.07464,227.59448 z"
           style="fill:#000000;fill-opacity:1" />
        <path
           id="path2618"
           d="M 368.99784,244.82608 C 368.73665,244.40345 370.23243,244.2207 372.32179,244.41995 C 374.41116,244.6192 376.42486,244.28999 376.79669,243.68835 C 377.16852,243.08672 377.95129,242.59448 378.53617,242.59448 C 379.20676,242.59448 379.13972,243.14859 378.35471,244.09448 C 377.06705,245.64602 369.85319,246.21006 368.99784,244.82608 z M 362.71503,242.13431 C 360.4343,240.53682 357.70583,234.91002 358.72011,233.89575 C 359.06914,233.54672 359.35471,233.8379 359.35471,234.54282 C 359.35471,235.50316 359.95829,235.42902 361.76215,234.24709 C 363.93314,232.8246 364.2281,232.82217 364.76539,234.22232 C 365.55229,236.27295 364.49724,237.86315 362.78558,237.20633 C 359.9482,236.11752 360.46372,238.53554 363.59512,241.00341 C 367.02447,243.70609 366.29582,244.64239 362.71503,242.13431 z M 371.10471,241.9322 C 371.79221,241.65479 372.91721,241.65479 373.60471,241.9322 C 374.29221,242.20961 373.72971,242.43659 372.35471,242.43659 C 370.97971,242.43659 370.41721,242.20961 371.10471,241.9322 z M 367.829,235.73544 C 366.79597,234.70241 367.43502,233.41132 368.73286,233.90935 C 369.49084,234.20021 370.61584,233.93336 371.23286,233.31634 C 372.062,232.4872 372.35471,232.61362 372.35471,233.80086 C 372.35471,234.89216 372.96987,235.24637 374.27319,234.90555 C 375.32835,234.62962 377.01585,234.87232 378.02319,235.4449 C 379.43768,236.2489 378.53961,236.45449 374.079,236.34783 C 370.90236,236.27188 368.08986,235.9963 367.829,235.73544 z M 384.35471,232.59448 C 384.35471,232.04448 384.83127,231.59448 385.41373,231.59448 C 385.99619,231.59448 386.19463,232.04448 385.85471,232.59448 C 385.51479,233.14448 385.03823,233.59448 384.79569,233.59448 C 384.55315,233.59448 384.35471,233.14448 384.35471,232.59448 z M 384.43366,228.01115 C 384.48164,226.8462 384.7186,226.60925 385.03782,227.40698 C 385.3267,228.12885 385.29117,228.99135 384.95888,229.32365 C 384.62659,229.65594 384.39024,229.06531 384.43366,228.01115 z M 360.35471,225.21692 C 360.35471,223.08532 362.9981,221.39284 365.54967,221.89077 L 367.85471,222.34058 L 365.67391,223.06607 C 364.3565,223.50433 363.70602,224.3464 364.0309,225.19302 C 364.38726,226.1217 363.85789,226.59448 362.4617,226.59448 C 361.30286,226.59448 360.35471,225.97458 360.35471,225.21692 z"
           style="fill:#000000;fill-opacity:1" />
      </g>
      <path
         inkscape:export-ydpi="90"
         inkscape:export-xdpi="90"
         inkscape:export-filename="/home/bgray/software/sidux-art/svg-core/sidux-logo.png"
         id="path2620"
         d="M 258.62749,273.96319 C 266.83997,274.64966 272.94802,281.87201 272.26154,290.08448 C 271.57506,298.29696 264.35272,304.40501 256.14025,303.71853 C 247.92777,303.03205 241.81972,295.8097 242.5062,287.59723 C 243.08597,280.66133 248.12358,275.21802 254.99391,274.10383"
         style="opacity:0.3677781;fill:#000000;fill-opacity:1;stroke:none;stroke-opacity:1;display:inline;filter:url(#filter8125)" />
    </g>
    <g
       inkscape:label="Master"
       id="g6842"
       transform="translate(-662.79943,-220.53522)">
      <text
         xml:space="preserve"
         style="font-size:305.04656982px;font-style:normal;font-variant:normal;font-weight:bold;font-stretch:normal;fill-opacity:1;font-family:Sidux;-inkscape-font-specification:Sidux Bold"
         x="10.649973"
         y="-14.242644"
         id="text2389"><tspan
           sodipodi:role="line"
           id="tspan2391"
           x="10.649973"
           y="-14.242644"
           style="letter-spacing:-6.97995424"
           dx="0 17.449883 0 20.13448 17.449883">sidux</tspan></text>
      <text
         xml:space="preserve"
         style="font-size:60.10633087px;font-style:normal;font-variant:normal;font-weight:normal;font-stretch:normal;fill:#000000;fill-opacity:1;stroke:none;stroke-width:1px;stroke-linecap:butt;stroke-linejoin:miter;stroke-opacity:1;display:inline;font-family:FreeSans;-inkscape-font-specification:FreeSans"
         x="-262.56598"
         y="-81.547867"
         id="text5135"><tspan
           sodipodi:role="line"
           id="tspan5137"
           x="-262.56598"
           y="-81.547867">Master -&gt;</tspan></text>
      <text
         id="text5145"
         y="214.45213"
         x="-267.02701"
         style="font-size:60.10633087px;font-style:normal;font-variant:normal;font-weight:normal;font-stretch:normal;fill:#000000;fill-opacity:1;stroke:none;stroke-width:1px;stroke-linecap:butt;stroke-linejoin:miter;stroke-opacity:1;display:inline;font-family:FreeSans;-inkscape-font-specification:FreeSans"
         xml:space="preserve"><tspan
           y="214.45213"
           x="-267.02701"
           id="tspan5147"
           sodipodi:role="line">Clones -&gt;</tspan></text>
      <text
         xml:space="preserve"
         style="font-size:60.10633087px;font-style:normal;font-variant:normal;font-weight:normal;font-stretch:normal;text-align:end;text-anchor:end;fill:#000000;fill-opacity:1;stroke:none;stroke-width:1px;stroke-linecap:butt;stroke-linejoin:miter;stroke-opacity:1;display:inline;font-family:FreeSans;-inkscape-font-specification:FreeSans"
         x="-7.9358516"
         y="554.45215"
         id="text5149"><tspan
           sodipodi:role="line"
           x="-7.9358368"
           y="554.45215"
           id="tspan5153">Original -&gt;</tspan></text>
    </g>
    <path
       inkscape:tile-y0="109.8072"
       inkscape:tile-x0="269.95008"
       transform="matrix(0.3078693,-3.9189426e-2,3.9189426e-2,0.3078693,-65.958783,564.45996)"
       d="M 351.42858,1042.8571 L 325.37291,1011.5895 L 291.42858,1034.2857 L 322.69625,1008.23 L 300.00001,974.2857 L 326.05568,1005.5534 L 360.00001,982.85713 L 328.73234,1008.9128 L 351.42858,1042.8571 z"
       inkscape:randomized="0"
       inkscape:rounded="0"
       inkscape:flatsided="false"
       sodipodi:arg2="1.6834316"
       sodipodi:arg1="0.92729522"
       sodipodi:r2="3.0372927"
       sodipodi:r1="42.857143"
       sodipodi:cy="1008.5714"
       sodipodi:cx="325.71429"
       sodipodi:sides="4"
       id="use7517"
       style="opacity:0.68051118;fill:url(#radialGradient5730);fill-opacity:1;fill-rule:nonzero;stroke:none;stroke-width:1.78100002;stroke-linecap:butt;stroke-linejoin:miter;marker:none;marker-start:none;marker-mid:none;marker-end:none;stroke-miterlimit:4;stroke-dasharray:none;stroke-dashoffset:0;stroke-opacity:0.30033007;visibility:visible;display:inline;overflow:visible;enable-background:new"
       sodipodi:type="star" />
    <g
       id="layer2"
       inkscape:label="Clones"
       transform="matrix(0.5254584,0,0,0.5254584,20.097221,755.1847)"
       style="display:inline">
      <use
         style="fill:#000000;stroke:#000000;stroke-width:7;stroke-miterlimit:4;stroke-dasharray:none;filter:url(#filter4326)"
         height="1052.3622"
         width="744.09448"
         transform="translate(60,298)"
         id="use4324"
         xlink:href="#text2389"
         y="0"
         x="0" />
      <use
         x="0"
         y="0"
         xlink:href="#text2389"
         id="use4305"
         transform="translate(60,298)"
         width="744.09448"
         height="1052.3622"
         style="fill:#000000;stroke:#000000;stroke-width:7;stroke-miterlimit:4;stroke-dasharray:none;filter:url(#filter4315)" />
      <use
         x="0"
         y="0"
         xlink:href="#text2389"
         id="use3167"
         transform="translate(60,298)"
         width="744.09448"
         height="1052.3622"
         style="fill:#ff0000;stroke:#000000;stroke-width:6;stroke-miterlimit:4;stroke-dasharray:none" />
      <use
         style="fill:#445458;fill-opacity:0.65490196;stroke:#ffffff;stroke-width:2.5;stroke-miterlimit:4;stroke-dasharray:none"
         height="1052.3622"
         width="744.09448"
         transform="translate(60,298)"
         id="use3169"
         xlink:href="#text2389"
         y="0"
         x="0" />
      <use
         x="0"
         y="0"
         xlink:href="#text2389"
         id="use4283"
         transform="translate(60,298)"
         width="744.09448"
         height="1052.3622"
         style="opacity:0.85407727;fill:url(#linearGradient7424);fill-opacity:1;stroke:#ffffff;stroke-width:2.5;stroke-miterlimit:4;stroke-dasharray:none"
         clip-path="url(#clipPath4320)" />
    </g>
    <path
       transform="matrix(0.8390314,0,0,0.8390314,-598.01755,714.60524)"
       d="M 911.66665,100 A 18.333334,18.333334 0 1 1 874.99998,100 A 18.333334,18.333334 0 1 1 911.66665,100 z"
       sodipodi:ry="18.333334"
       sodipodi:rx="18.333334"
       sodipodi:cy="100"
       sodipodi:cx="893.33331"
       id="path4987"
       style="fill:#000000;fill-opacity:1;stroke:none;stroke-width:1;stroke-miterlimit:4;stroke-dasharray:none;stroke-opacity:1;display:inline;filter:url(#filter3761)"
       sodipodi:type="arc"
       inkscape:export-filename="/home/bernie/software/sidux-art/gaia/ksplash-logo.png"
       inkscape:export-xdpi="90"
       inkscape:export-ydpi="90" />
    <path
       transform="matrix(0.8390314,0,0,0.8390314,-599.93837,712.68446)"
       d="M 911.66665,100 A 18.333334,18.333334 0 1 1 874.99998,100 A 18.333334,18.333334 0 1 1 911.66665,100 z"
       sodipodi:ry="18.333334"
       sodipodi:rx="18.333334"
       sodipodi:cy="100"
       sodipodi:cx="893.33331"
       id="path4989"
       style="fill:#333f42;fill-opacity:1;stroke:#000000;stroke-width:2.9000001;stroke-miterlimit:4;stroke-dasharray:none;stroke-opacity:1;display:inline"
       sodipodi:type="arc"
       inkscape:export-filename="/home/bernie/software/sidux-art/gaia/ksplash-logo.png"
       inkscape:export-xdpi="90"
       inkscape:export-ydpi="90" />
    <path
       transform="matrix(0.8390314,0,0,0.8390314,-599.93837,712.68446)"
       d="M 911.66665,100 A 18.333334,18.333334 0 1 1 874.99998,100 A 18.333334,18.333334 0 1 1 911.66665,100 z"
       sodipodi:ry="18.333334"
       sodipodi:rx="18.333334"
       sodipodi:cy="100"
       sodipodi:cx="893.33331"
       id="path4991"
       style="fill:#53676c;fill-opacity:1;stroke:none;stroke-width:1;stroke-miterlimit:4;stroke-dasharray:none;stroke-opacity:1;display:inline"
       sodipodi:type="arc"
       inkscape:export-filename="/home/bernie/software/sidux-art/gaia/ksplash-logo.png"
       inkscape:export-xdpi="90"
       inkscape:export-ydpi="90" />
    <path
       sodipodi:type="arc"
       style="fill:url(#linearGradient5467);fill-opacity:1;stroke:#ffffff;stroke-width:1;stroke-miterlimit:4;stroke-dasharray:none;stroke-opacity:1;display:inline"
       id="path4993"
       sodipodi:cx="893.33331"
       sodipodi:cy="100"
       sodipodi:rx="18.333334"
       sodipodi:ry="18.333334"
       d="M 911.66665,100 A 18.333334,18.333334 0 1 1 874.99998,100 A 18.333334,18.333334 0 1 1 911.66665,100 z"
       transform="matrix(0.8390314,0,0,0.8390314,-599.93837,712.68446)"
       inkscape:export-filename="/home/bernie/software/sidux-art/gaia/ksplash-logo.png"
       inkscape:export-xdpi="90"
       inkscape:export-ydpi="90" />
    <path
       transform="matrix(0.4677786,0,0,0.4677786,-266.18831,746.31378)"
       d="M 911.66665,100 A 18.333334,18.333334 0 1 1 874.99998,100 A 18.333334,18.333334 0 1 1 911.66665,100 z"
       sodipodi:ry="18.333334"
       sodipodi:rx="18.333334"
       sodipodi:cy="100"
       sodipodi:cx="893.33331"
       id="path4995"
       style="fill:url(#radialGradient5469);fill-opacity:1;stroke:none;stroke-width:1;stroke-miterlimit:4;stroke-dasharray:none;stroke-opacity:1;display:inline;filter:url(#filter3602)"
       sodipodi:type="arc"
       inkscape:export-filename="/home/bernie/software/sidux-art/gaia/ksplash-logo.png"
       inkscape:export-xdpi="90"
       inkscape:export-ydpi="90" />
    <path
       sodipodi:type="arc"
       style="opacity:0.85393258;fill:#000000;fill-opacity:1;stroke:none;stroke-width:0.60000002;stroke-miterlimit:4;stroke-dasharray:none;stroke-opacity:1;display:inline"
       id="path4997"
       sodipodi:cx="802.86084"
       sodipodi:cy="212.70215"
       sodipodi:rx="30.935923"
       sodipodi:ry="21.507832"
       d="M 787.39288,194.07582 A 30.935923,21.507832 0 1 1 785.85582,194.73511"
       sodipodi:start="4.1887902"
       sodipodi:end="10.413587"
       sodipodi:open="true"
       transform="matrix(6.4448479e-2,0,0,9.2669233e-2,100.24025,783.01754)"
       inkscape:export-filename="/home/bernie/software/sidux-art/gaia/ksplash-logo.png"
       inkscape:export-xdpi="90"
       inkscape:export-ydpi="90" />
    <path
       inkscape:export-ydpi="90"
       inkscape:export-xdpi="90"
       inkscape:export-filename="/home/bernie/software/sidux-art/gaia/ksplash-logo.png"
       sodipodi:open="true"
       sodipodi:end="4.1304021"
       sodipodi:start="0"
       transform="matrix(0.7860039,-0.398319,0.5501329,0.4334253,-771.63696,1065.7932)"
       d="M 972.5,287.91666 A 65,27.083334 0 1 1 871.77049,265.29199"
       sodipodi:ry="27.083334"
       sodipodi:rx="65"
       sodipodi:cy="287.91666"
       sodipodi:cx="907.5"
       id="path5478"
       style="fill:none;fill-opacity:1;stroke:#ffffff;stroke-width:0.85073495;stroke-miterlimit:4;stroke-dasharray:none;stroke-opacity:1;display:inline;filter:url(#filter5512)"
       sodipodi:type="arc" />
    <path
       style="fill:#ffffff;fill-opacity:1;stroke:none;stroke-width:0.79228747;stroke-miterlimit:4;stroke-dasharray:none;stroke-opacity:1;display:inline;filter:url(#filter5525)"
       d="M 210.03125,848.15625 C 200.50854,859.71787 181.5473,873.62026 156.625,886.25 C 112.3187,908.70285 65.889781,918.64866 52.96875,908.46875 C 48.139346,904.66386 48.229574,898.89464 53.0625,891.625 C 45.8829,900.49047 44.883523,907.46802 50.4375,911.84375 C 63.358531,922.02366 109.8187,912.04664 154.125,889.59375 C 181.5031,875.7195 201.65112,860.31109 210.03125,848.15625 z"
       id="path5516"
       transform="matrix(0.6365194,0,0,0.6365194,16.857164,274.59952)" />
    <path
       sodipodi:type="arc"
       style="fill:none;fill-opacity:1;stroke:#ffffff;stroke-width:0.67402661;stroke-miterlimit:4;stroke-dasharray:none;stroke-opacity:1;display:inline"
       id="path4658"
       sodipodi:cx="907.5"
       sodipodi:cy="287.91666"
       sodipodi:rx="65"
       sodipodi:ry="27.083334"
       d="M 972.5,287.91666 A 65,27.083334 0 1 1 874.69705,264.53513"
       transform="matrix(0.7860039,-0.398319,0.5501329,0.4334253,-771.63696,1065.7932)"
       sodipodi:start="0"
       sodipodi:end="4.1834"
       sodipodi:open="true"
       inkscape:export-filename="/home/bernie/software/sidux-art/gaia/ksplash-logo.png"
       inkscape:export-xdpi="90"
       inkscape:export-ydpi="90" />
    <g
       id="layer8"
       inkscape:label="Orbit-below"
       transform="matrix(0.5254584,0,0,0.5254584,25.106494,778.09518)"
       style="stroke:#ffffff">
      <path
         inkscape:export-ydpi="90"
         inkscape:export-xdpi="90"
         inkscape:export-filename="/home/bernie/software/sidux-art/gaia/ksplash-logo.png"
         sodipodi:type="arc"
         style="opacity:1;fill:none;fill-opacity:1;stroke:#ffffff;stroke-width:0.67378205;stroke-linecap:round;stroke-miterlimit:4;stroke-dasharray:none;stroke-opacity:1;display:inline"
         id="path4606"
         sodipodi:cx="907.5"
         sodipodi:cy="287.91666"
         sodipodi:rx="65"
         sodipodi:ry="27.083334"
         d="M 897.15577,261.17848 A 65,27.083334 0 0 1 962.07252,273.2039"
         transform="matrix(1.4958443,-0.7580411,1.046958,0.8248517,-1516.2826,547.51817)"
         sodipodi:start="4.5525674"
         sodipodi:end="5.7088936"
         sodipodi:open="true" />
    </g>
  </g>
</svg>
