<?xml version="1.0" encoding="UTF-8" standalone="no"?>
<!-- Created with Inkscape (http://www.inkscape.org/) -->

<svg
   xmlns:dc="http://purl.org/dc/elements/1.1/"
   xmlns:cc="http://creativecommons.org/ns#"
   xmlns:rdf="http://www.w3.org/1999/02/22-rdf-syntax-ns#"
   xmlns:svg="http://www.w3.org/2000/svg"
   xmlns="http://www.w3.org/2000/svg"
   xmlns:xlink="http://www.w3.org/1999/xlink"
   xmlns:sodipodi="http://sodipodi.sourceforge.net/DTD/sodipodi-0.dtd"
   xmlns:inkscape="http://www.inkscape.org/namespaces/inkscape"
   id="svg6346"
   sodipodi:version="0.32"
   inkscape:version="0.47 r22583"
   width="1920"
   height="1200"
   version="1.0"
   sodipodi:docname="sidux-moros-wide.svg"
   inkscape:output_extension="org.inkscape.output.svg.inkscape"
   inkscape:export-filename="/home/klaymen/Desktop/test.png"
   inkscape:export-xdpi="90"
   inkscape:export-ydpi="90"
   style="display:inline">
  <sodipodi:namedview
     pagecolor="#ffffff"
     bordercolor="#666666"
     borderopacity="1"
     objecttolerance="10"
     gridtolerance="10"
     guidetolerance="10"
     inkscape:pageopacity="0"
     inkscape:pageshadow="2"
     inkscape:window-width="1680"
     inkscape:window-height="1005"
     id="namedview6348"
     showgrid="false"
     inkscape:zoom="0.35355339"
     inkscape:cx="1426.8762"
     inkscape:cy="445.43447"
     inkscape:window-x="-4"
     inkscape:window-y="-3"
     inkscape:current-layer="layer5"
     inkscape:window-maximized="1"
     showguides="true"
     inkscape:guide-bbox="true" />
  <metadata
     id="metadata6352">
    <rdf:RDF>
      <cc:Work
         rdf:about="">
        <dc:format>image/svg+xml</dc:format>
        <dc:type
           rdf:resource="http://purl.org/dc/dcmitype/StillImage" />
        <dc:title />
      </cc:Work>
    </rdf:RDF>
  </metadata>
  <defs
     id="defs6350">
    <linearGradient
       id="linearGradient3722">
      <stop
         style="stop-color:#ffffff;stop-opacity:1;"
         offset="0"
         id="stop3724" />
      <stop
         style="stop-color:#ffffff;stop-opacity:0;"
         offset="1"
         id="stop3726" />
    </linearGradient>
    <linearGradient
       id="linearGradient4176">
      <stop
         id="stop4178"
         offset="0"
         style="stop-color:#000000;stop-opacity:0;" />
      <stop
         id="stop4180"
         offset="1"
         style="stop-color:#000000;stop-opacity:0.8125;" />
    </linearGradient>
    <linearGradient
       id="linearGradient3591-8">
      <stop
         style="stop-color:#980006;stop-opacity:1;"
         offset="0"
         id="stop3593-9" />
      <stop
         style="stop-color:#000000;stop-opacity:1;"
         offset="1"
         id="stop3595-7" />
    </linearGradient>
    <radialGradient
       r="960.5"
       fy="600"
       fx="958"
       cy="600"
       cx="958"
       gradientTransform="matrix(1,0,0,0.62519521,2,224.88287)"
       gradientUnits="userSpaceOnUse"
       id="radialGradient3620"
       xlink:href="#linearGradient3591-8"
       inkscape:collect="always" />
    <radialGradient
       inkscape:collect="always"
       xlink:href="#linearGradient4176"
       id="radialGradient4174"
       cx="960"
       cy="600"
       fx="960"
       fy="600"
       r="957.50922"
       gradientTransform="matrix(1.0026013,0,0,0.62662583,-2.4972566,224.02451)"
       gradientUnits="userSpaceOnUse" />
    <mask
       maskUnits="userSpaceOnUse"
       id="mask3661">
      <rect
         style="fill:#ffffff;fill-opacity:1;stroke:none"
         id="rect3663"
         width="814.80676"
         height="522.35181"
         x="187.26697"
         y="-974.55408"
         transform="matrix(0.95006921,-0.31203925,-0.31203925,-0.95006921,0,0)" />
    </mask>
    <radialGradient
       inkscape:collect="always"
       xlink:href="#linearGradient3722"
       id="radialGradient3758"
       gradientUnits="userSpaceOnUse"
       gradientTransform="matrix(1.4601539,2.3580727e-8,-1.6390329e-8,1.0981583,-448.9967,-58.895004)"
       cx="960"
       cy="600"
       fx="960"
       fy="600"
       r="957.50922" />
    <mask
       maskUnits="userSpaceOnUse"
       id="mask3754">
      <rect
         style="opacity:0.44078944;fill:url(#radialGradient3758);fill-opacity:1;stroke:none;display:inline"
         id="rect3756"
         width="2361.1116"
         height="1535.0215"
         x="-227.80479"
         y="-167.51079" />
    </mask>
    <radialGradient
       inkscape:collect="always"
       xlink:href="#linearGradient3722"
       id="radialGradient3764"
       gradientUnits="userSpaceOnUse"
       gradientTransform="matrix(1.4601539,2.3580727e-8,-1.6390329e-8,1.0981583,-448.9967,-58.895004)"
       cx="960"
       cy="600"
       fx="960"
       fy="600"
       r="957.50922" />
    <mask
       maskUnits="userSpaceOnUse"
       id="mask3760">
      <rect
         style="opacity:0.44078944;fill:url(#radialGradient3764);fill-opacity:1;stroke:none;display:inline"
         id="rect3762"
         width="2361.1116"
         height="1535.0215"
         x="-227.80479"
         y="-167.51079" />
    </mask>
    <filter
       inkscape:collect="always"
       id="filter3758"
       x="-0.027545488"
       width="1.055091"
       y="-0.14637742"
       height="1.2927548">
      <feGaussianBlur
         inkscape:collect="always"
         stdDeviation="6.3596269"
         id="feGaussianBlur3760" />
    </filter>
  </defs>
  <g
     inkscape:groupmode="layer"
     id="layer1"
     inkscape:label="BG"
     style="display:inline"
     sodipodi:insensitive="true">
    <rect
       style="fill:url(#radialGradient3620);fill-opacity:1;fill-rule:evenodd;stroke:none"
       id="rect2817"
       width="1920"
       height="1200"
       x="0"
       y="0" />
  </g>
  <g
     inkscape:groupmode="layer"
     id="layer7"
     inkscape:label="Swirl"
     style="opacity:0.1842105;display:inline"
     sodipodi:insensitive="true">
    <path
       transform="matrix(2.2387306,-0.71684848,-0.73528519,-2.1825962,-441.27341,2238.8454)"
       d="m 777.81744,521.17749 c 12.12501,9.67872 -7.06467,21.1194 -16.08667,20.15255 -24.44905,-2.6201 -31.712,-32.74488 -24.21843,-52.32589 13.40424,-35.02582 57.42216,-43.89152 88.56511,-28.28431 45.70354,22.9042 56.38566,82.41743 32.3502,124.80433 -32.03548,56.49506 -107.52341,69.01104 -161.04355,36.41608 -67.34964,-41.01744 -81.70378,-132.6816 -40.48197,-197.28277 49.92514,-78.24068 157.8691,-94.43539 233.522,-44.54785 89.15432,58.79074 107.1914,183.07484 48.61373,269.76121 C 871.40762,749.95368 730.74508,769.83453 633.03742,702.55045 522.01578,626.09801 500.29006,469.03118 576.29193,360.3108 661.55454,238.34296 835.04395,214.77149 954.7708,299.49942 c 132.9195,94.06407 158.3375,283.98948 64.8773,414.7181 C 916.78904,858.09286 710.4175,885.35788 568.69075,783.16066 413.85632,671.51168 384.74375,448.68614 495.68172,295.96412 616.11676,130.16804 855.40249,99.207509 1019.1175,218.88922 c 176.7598,129.21797 209.5686,384.9689 81.1408,559.67497"
       sodipodi:t0="0"
       sodipodi:argument="-18.175886"
       sodipodi:radius="412.57242"
       sodipodi:revolution="4"
       sodipodi:expansion="1"
       sodipodi:cy="521.17749"
       sodipodi:cx="777.81744"
       id="path3660"
       style="fill:none;stroke:#000000;stroke-width:85.40691376;stroke-linecap:round;stroke-linejoin:round;stroke-miterlimit:4;stroke-opacity:1;stroke-dasharray:none"
       sodipodi:type="spiral"
       mask="url(#mask3661)" />
  </g>
  <g
     inkscape:groupmode="layer"
     id="layer4"
     inkscape:label="Lines"
     style="opacity:0.55592107;display:inline"
     sodipodi:insensitive="true">
    <path
       id="path4887"
       style="opacity:0.13486843;fill:none;stroke:#ffffff;stroke-width:2.60543108px;stroke-linecap:butt;stroke-linejoin:miter;stroke-opacity:1"
       d="m 2037.8599,-2459.5277 21.96,4888.8671 m -32.656,-4888.8671 21.9599,4888.8671 m -32.656,-4888.8671 21.96,4888.8671 m -32.656,-4888.8671 21.96,4888.8671 m -32.6561,-4888.8671 21.96,4888.8671 m -32.656,-4888.8671 21.96,4888.8671 m -32.656,-4888.8671 21.96,4888.8671 m -32.6561,-4888.8671 21.96,4888.8671 m -32.656,-4888.8671 21.96,4888.8671 m -32.656,-4888.8671 21.9599,4888.8671 m -32.656,-4888.8671 21.96,4888.8671 m -32.656,-4888.8671 21.96,4888.8671 m -32.656,-4888.8671 21.9599,4888.8671 m -32.656,-4888.8671 21.96,4888.8671 m -32.656,-4888.8671 21.96,4888.8671 m -32.6561,-4888.8671 21.96,4888.8671 m -32.656,-4888.8671 21.96,4888.8671 m -32.656,-4888.8671 21.9599,4888.8671 m -32.656,-4888.8671 21.96,4888.8671 m -32.656,-4888.8671 21.96,4888.8671 m -32.656,-4888.8671 21.9599,4888.8671 m -32.656,-4888.8671 21.96,4888.8671 m -32.656,-4888.8671 21.96,4888.8671 m -32.656,-4888.8671 21.9599,4888.8671 m -32.656,-4888.8671 21.96,4888.8671 m -32.656,-4888.8671 21.96,4888.8671 m -32.6561,-4888.8671 21.96,4888.8671 m -32.656,-4888.8671 21.96,4888.8671 m -32.656,-4888.8671 21.9599,4888.8671 m -32.656,-4888.8671 21.96,4888.8671 m -32.656,-4888.8671 21.96,4888.8671 m -32.656,-4888.8671 21.9599,4888.8671 m -32.656,-4888.8671 21.96,4888.8671 m -32.656,-4888.8671 21.96,4888.8671 m -32.6561,-4888.8671 21.9601,4888.8671 m -32.656,-4888.8671 21.96,4888.8671 m -32.656,-4888.8671 21.96,4888.8671 m -32.6561,-4888.8671 21.96,4888.8671 m -32.656,-4888.8671 21.96,4888.8671 m -32.656,-4888.8671 21.9599,4888.8671 m -32.656,-4888.8671 21.96,4888.8671 m -32.656,-4888.8671 21.96,4888.8671 m -32.656,-4888.8671 21.9599,4888.8671 m -32.6559,-4888.8671 21.9599,4888.8671 m -32.656,-4888.8671 21.96,4888.8671 m -32.656,-4888.8671 21.96,4888.8671 m -32.656,-4888.8671 21.9599,4888.8671 m -32.656,-4888.8671 21.96,4888.8671 m -32.656,-4888.8671 21.96,4888.8671 m -32.6561,-4888.8671 21.96,4888.8671 m -32.656,-4888.8671 21.96,4888.8671 m -32.656,-4888.8671 21.9599,4888.8671 m -32.6559,-4888.8671 21.9599,4888.8671 M 101.87731,-2459.5277 123.83729,2429.3394 M 91.181281,-2459.5277 113.14126,2429.3394 M 80.485251,-2459.5277 102.44523,2429.3394 m -32.656029,-4888.8671 21.95998,4888.8671 m -32.65601,-4888.8671 21.95998,4888.8671 m -32.65601,-4888.8671 21.95997,4888.8671 m -32.65602,-4888.8671 21.95999,4888.8671 m -32.65602,-4888.8671 21.95998,4888.8671 m -32.65601,-4888.8671 21.95997,4888.8671 M 5.6129908,-2459.5277 27.572971,2429.3394 M -5.0830492,-2459.5277 16.876921,2429.3394 M -15.779089,-2459.5277 6.1808908,2429.3394 M -26.475119,-2459.5277 -4.5151392,2429.3394 m -32.6560198,-4888.8671 21.95997,4888.8671 m -32.65601,-4888.8671 21.95998,4888.8671 m -32.65601,-4888.8671 21.95998,4888.8671 m -32.65603,-4888.8671 21.96,4888.8671 m -32.65603,-4888.8671 21.95998,4888.8671 m -32.65601,-4888.8671 21.95998,4888.8671 m -32.656031,-4888.8671 21.959991,4888.8671 m -32.656031,-4888.8671 21.959991,4888.8671 m -32.656011,-4888.8671 21.95997,4888.8671 m -32.65599,-4888.8671 21.96,4888.8671 m -32.65602,-4888.8671 21.96,4888.8671 m -32.65602,-4888.8671 21.95987,4888.8671 m -32.65602,-4888.8671 21.96,4888.8671 m -32.65602,-4888.8671 21.96,4888.8671 m -32.65602,-4888.8671 21.96,4888.8671 m -32.65602,-4888.8671 21.96,4888.8671 m -32.65602,-4888.8671 21.96,4888.8671 m -32.65602,-4888.8671 21.96,4888.8671 m -32.65602,-4888.8671 21.95987,4888.8671 m -32.65589,-4888.8671 21.95987,4888.8671 m -32.65602,-4888.8671 21.96,4888.8671 m -32.65602,-4888.8671 21.96,4888.8671 m -32.65602,-4888.8671 21.96,4888.8671 m -32.65602,-4888.8671 21.96,4888.8671 m -32.65602,-4888.8671 21.96,4888.8671 m -32.65602,-4888.8671 21.96001,4888.8671 m -32.65603,-4888.8671 21.95987,4888.8671 m -32.65589,-4888.8671 21.95987,4888.8671 m -32.65602,-4888.8671 21.96,4888.8671 m -32.65602,-4888.8671 21.96,4888.8671 m -32.65602,-4888.8671 21.96,4888.8671 m -32.65602,-4888.8671 21.96001,4888.8671 m -32.65603,-4888.8671 21.96001,4888.8671 m -32.65603,-4888.8671 21.96001,4888.8671 m -32.65599,-4888.8671 21.95983,4888.8671 m -32.65603,-4888.8671 21.96001,4888.8671 m -32.65601,-4888.8671 21.96,4888.8671 m -32.656,-4888.8671 21.96,4888.8671 m -32.656,-4888.8671 21.96,4888.8671 m -32.6561,-4888.8671 21.96,4888.8671 m -32.656,-4888.8671 21.96,4888.8671 m -32.656,-4888.8671 21.9599,4888.8671 m -32.6559,-4888.8671 21.9598,4888.8671 m -32.656,-4888.8671 21.96,4888.8671 m -32.65604,-4888.8671 21.96004,4888.8671 m -32.65604,-4888.8671 21.96004,4888.8671 m -32.65604,-4888.8671 21.96,4888.8671 m -32.6561,-4888.8671 21.96,4888.8671 m -32.656,-4888.8671 21.96,4888.8671 m -32.656,-4888.8671 21.9599,4888.8671 m -32.656,-4888.8671 21.96,4888.8671 m -32.6561,-4888.8671 21.96,4888.8671 m -32.656,-4888.8671 21.96,4888.8671 m -32.656,-4888.8671 21.96,4888.8671 m -32.65624,-4888.8671 21.96024,4888.8671 m -32.65624,-4888.8671 21.96024,4888.8671 m -32.65624,-4888.8671 21.96,4888.8671 m -32.656,-4888.8671 21.96,4888.8671 m -32.6562,-4888.8671 21.9602,4888.8671 m -32.6562,-4888.8671 21.9601,4888.8671 m -32.6561,-4888.8671 21.96,4888.8671 m -32.6558,-4888.8671 21.9598,4888.8671 m -32.6558,-4888.8671 21.9598,4888.8671 m -32.6558,-4888.8671 21.96,4888.8671 m -32.656,-4888.8671 21.96,4888.8671 m -32.656,-4888.8671 21.96,4888.8671 m -32.6562,-4888.8671 21.9601,4888.8671 m -32.6561,-4888.8671 21.96,4888.8671 m -32.656,-4888.8671 21.96,4888.8671 m -32.656,-4888.8671 21.96,4888.8671 m -32.6561,-4888.8671 21.96,4888.8671 m -32.656,-4888.8671 21.96,4888.8671 m -32.656,-4888.8671 21.96,4888.8671 m -32.6562,-4888.8671 21.9602,4888.8671 m -32.6562,-4888.8671 21.9602,4888.8671 m -32.6562,-4888.8671 21.96,4888.8671 m -32.656,-4888.8671 21.96,4888.8671 m -32.656,-4888.8671 21.96,4888.8671 m -32.6561,-4888.8671 21.96,4888.8671 m -32.656,-4888.8671 21.96,4888.8671 m -32.656,-4888.8671 21.96,4888.8671 m -32.6561,-4888.8671 21.9601,4888.8671 m -32.6562,-4888.8671 21.9602,4888.8671 m -32.6562,-4888.8671 21.96,4888.8671 m -32.656,-4888.8671 21.96,4888.8671 m -32.656,-4888.8671 21.96,4888.8671 m -32.656,-4888.8671 21.96,4888.8671 m -32.6561,-4888.8671 21.96,4888.8671 m -32.656,-4888.8671 21.96,4888.8671 m -32.6561,-4888.8671 21.9601,4888.8671 m -32.6562,-4888.8671 21.96,4888.8671 m -32.656,-4888.8671 21.96,4888.8671 m -32.6559,-4888.8671 21.9599,4888.8671 m -32.6559,-4888.8671 21.9599,4888.8671 m -32.6559,-4888.8671 21.96,4888.8671 m -32.6561,-4888.8671 21.9601,4888.8671 m -32.6562,-4888.8671 21.9601,4888.8671 m -32.6561,-4888.8671 21.9601,4888.8671 m -32.6561,-4888.8671 21.96,4888.8671 m -32.6561,-4888.8671 21.96,4888.8671 m -32.656,-4888.8671 21.96,4888.8671 m -32.656,-4888.8671 21.96,4888.8671 m -32.656,-4888.8671 21.96,4888.8671 m -32.656,-4888.8671 21.96,4888.8671 m -32.6562,-4888.8671 21.9601,4888.8671 m -32.6561,-4888.8671 21.9601,4888.8671 m -32.6561,-4888.8671 21.96,4888.8671 m -32.6561,-4888.8671 21.9601,4888.8671 m -32.6561,-4888.8671 21.96,4888.8671 m -32.656,-4888.8671 21.96,4888.8671 m -32.656,-4888.8671 21.96,4888.8671 m -32.656,-4888.8671 21.96,4888.8671 m -32.6562,-4888.8671 21.9602,4888.8671 m -32.6562,-4888.8671 21.96,4888.8671 m -32.656,-4888.8671 21.96,4888.8671 m 2705.5293,-4888.8671 21.96,4888.8671 m -32.656,-4888.8671 21.96,4888.8671 m -32.656,-4888.8671 21.9599,4888.8671 m -32.656,-4888.8671 21.96,4888.8671 m -32.656,-4888.8671 21.96,4888.8671 m -32.6561,-4888.8671 21.96,4888.8671 m -32.656,-4888.8671 21.96,4888.8671 m -32.656,-4888.8671 21.9599,4888.8671 m -32.656,-4888.8671 21.96,4888.8671 m -32.656,-4888.8671 21.96,4888.8671 m -32.6561,-4888.8671 21.96,4888.8671 m -32.656,-4888.8671 21.96,4888.8671 m -32.6561,-4888.8671 21.96,4888.8671 m -32.656,-4888.8671 21.96,4888.8671 m -32.656,-4888.8671 21.9599,4888.8671 m -32.656,-4888.8671 21.96,4888.8671 m -32.656,-4888.8671 21.96,4888.8671 m -32.656,-4888.8671 21.9599,4888.8671 m -32.656,-4888.8671 21.96,4888.8671 m -32.656,-4888.8671 21.96,4888.8671 m -32.6561,-4888.8671 21.96,4888.8671 m -32.656,-4888.8671 21.96,4888.8671 m -32.656,-4888.8671 21.96,4888.8671 m -32.6561,-4888.8671 21.96,4888.8671 m -32.656,-4888.8671 21.96,4888.8671 m -32.656,-4888.8671 21.9599,4888.8671 m -32.656,-4888.8671 21.96,4888.8671 m -32.656,-4888.8671 21.96,4888.8671 m -32.656,-4888.8671 21.9599,4888.8671 m -32.656,-4888.8671 21.96,4888.8671 m -32.656,-4888.8671 21.96,4888.8671 m -32.6561,-4888.8671 21.96,4888.8671 m -32.656,-4888.8671 21.96,4888.8671 m -32.656,-4888.8671 21.9599,4888.8671 m -32.656,-4888.8671 21.96,4888.8671 m -32.656,-4888.8671 21.96,4888.8671 m -32.656,-4888.8671 21.9599,4888.8671 m -32.656,-4888.8671 21.96,4888.8671 m -32.656,-4888.8671 21.96,4888.8671 m -32.6561,-4888.8671 21.96,4888.8671 m -32.656,-4888.8671 21.96,4888.8671 m -32.656,-4888.8671 21.96,4888.8671 m -32.6561,-4888.8671 21.96,4888.8671 m -32.656,-4888.8671 21.96,4888.8671 m -32.656,-4888.8671 21.9599,4888.8671 m -32.65605,-4888.8671 21.96005,4888.8671 m -32.65607,-4888.8671 21.96007,4888.8671 m -32.6561,-4888.8671 21.95995,4888.8671 m -32.65599,-4888.8671 21.95998,4888.8671 m -32.65602,-4888.8671 21.95999,4888.8671 m -32.65602,-4888.8671 21.95997,4888.8671 m -32.65601,-4888.8671 21.95998,4888.8671 m -32.65601,-4888.8671 21.95998,4888.8671 m -32.65603,-4888.8671 21.95998,4888.8671 m -32.65601,-4888.8671 21.95998,4888.8671 m -32.65601,-4888.8671 21.95998,4888.8671 m -32.65603,-4888.8671 21.95998,4888.8671 m -32.65601,-4888.8671 21.95998,4888.8671 m -32.65601,-4888.8671 21.95998,4888.8671 m -32.65603,-4888.8671 21.95999,4888.8671 m -32.65602,-4888.8671 21.95998,4888.8671 m -32.65601,-4888.8671 21.95997,4888.8671 m -32.65602,-4888.8671 21.95999,4888.8671 m -32.65602,-4888.8671 21.95998,4888.8671 m -32.65602,-4888.8671 21.95998,4888.8671 m -32.65601,-4888.8671 21.95998,4888.8671 m -32.65602,-4888.8671 21.95997,4888.8671 m -32.65601,-4888.8671 21.95998,4888.8671 m -32.65601,-4888.8671 21.95998,4888.8671 m -32.65603,-4888.8671 21.95998,4888.8671 m -32.65601,-4888.8671 21.95998,4888.8671 m -32.65601,-4888.8671 21.95998,4888.8671 m -32.65602,-4888.8671 21.95998,4888.8671 m -32.65602,-4888.8671 21.95998,4888.8671 m -32.65601,-4888.8671 21.95998,4888.8671 m -32.65602,-4888.8671 21.95999,4888.8671 m -32.65603,-4888.8671 21.95998,4888.8671 m -32.65601,-4888.8671 21.95998,4888.8671 m -32.65601,-4888.8671 21.95998,4888.8671 m -32.65603,-4888.8671 21.95998,4888.8671 m -32.65601,-4888.8671 21.95998,4888.8671 m -32.65601,-4888.8671 21.95997,4888.8671 m -32.65602,-4888.8671 21.95998,4888.8671 m -32.65601,-4888.8671 21.95998,4888.8671 m -32.65601,-4888.8671 21.95998,4888.8671 m -32.65603,-4888.8671 21.95999,4888.8671 m -32.65602,-4888.8671 21.95998,4888.8671 m -32.65601,-4888.8671 21.95998,4888.8671 m -32.65602,-4888.8671 21.95998,4888.8671 m -32.65602,-4888.8671 21.95998,4888.8671 m -32.65601,-4888.8671 21.95997,4888.8671 m -32.65601,-4888.8671 21.95998,4888.8671 m -32.65602,-4888.8671 21.95997,4888.8671 m -32.656,-4888.8671 21.95997,4888.8671 m -32.65601,-4888.8671 21.95998,4888.8671 m -32.65602,-4888.8671 21.95999,4888.8671 m -32.65603,-4888.8671 21.95998,4888.8671 m -32.65601,-4888.8671 21.95998,4888.8671 m -32.65602,-4888.8671 21.95999,4888.8671 m -32.65603,-4888.8671 21.95998,4888.8671 m -32.65601,-4888.8671 21.95998,4888.8671 m -32.65602,-4888.8671 21.95999,4888.8671 m -32.65604,-4888.8671 21.95999,4888.8671 m -32.65602,-4888.8671 21.95998,4888.8671 m -32.65601,-4888.8671 21.95997,4888.8671 m -32.65602,-4888.8671 21.95998,4888.8671 m -32.65601,-4888.8671 21.95997,4888.8671 m -32.65601,-4888.8671 21.95998,4888.8671 m -32.65602,-4888.8671 21.95999,4888.8671 m -32.65602,-4888.8671 21.95997,4888.8671 m -32.65601,-4888.8671 21.95998,4888.8671 m -32.65602,-4888.8671 21.95999,4888.8671 m -32.65603,-4888.8671 21.95998,4888.8671 m -32.65601,-4888.8671 21.95998,4888.8671 m -32.65601,-4888.8671 21.95998,4888.8671 m -32.65603,-4888.8671 21.95998,4888.8671 m -32.65601,-4888.8671 21.95998,4888.8671 m -32.65601,-4888.8671 21.95998,4888.8671 m -32.65603,-4888.8671 21.95998,4888.8671 m -32.65601,-4888.8671 21.95998,4888.8671 m -32.65601,-4888.8671 21.95997,4888.8671 m -32.65602,-4888.8671 21.95999,4888.8671 m -32.65602,-4888.8671 21.95997,4888.8671 m -32.65601,-4888.8671 21.95998,4888.8671 m -32.65602,-4888.8671 21.95999,4888.8671 m -32.65602,-4888.8671 21.95997,4888.8671 m -32.65601,-4888.8671 21.95998,4888.8671 m -32.65601,-4888.8671 21.95998,4888.8671"
       mask="url(#mask3760)" />
    <path
       d="m 2041.8599,-2459.5277 21.96,4888.8671 m -32.656,-4888.8671 21.9599,4888.8671 m -32.656,-4888.8671 21.96,4888.8671 m -32.656,-4888.8671 21.96,4888.8671 m -32.6561,-4888.8671 21.96,4888.8671 m -32.656,-4888.8671 21.96,4888.8671 m -32.656,-4888.8671 21.96,4888.8671 m -32.6561,-4888.8671 21.96,4888.8671 m -32.656,-4888.8671 21.96,4888.8671 m -32.656,-4888.8671 21.9599,4888.8671 m -32.656,-4888.8671 21.96,4888.8671 m -32.656,-4888.8671 21.96,4888.8671 m -32.656,-4888.8671 21.9599,4888.8671 m -32.656,-4888.8671 21.96,4888.8671 m -32.656,-4888.8671 21.96,4888.8671 m -32.6561,-4888.8671 21.96,4888.8671 m -32.656,-4888.8671 21.96,4888.8671 m -32.656,-4888.8671 21.9599,4888.8671 m -32.656,-4888.8671 21.96,4888.8671 m -32.656,-4888.8671 21.96,4888.8671 m -32.656,-4888.8671 21.9599,4888.8671 m -32.656,-4888.8671 21.96,4888.8671 m -32.656,-4888.8671 21.96,4888.8671 m -32.656,-4888.8671 21.9599,4888.8671 m -32.656,-4888.8671 21.96,4888.8671 m -32.656,-4888.8671 21.96,4888.8671 m -32.6561,-4888.8671 21.96,4888.8671 m -32.656,-4888.8671 21.96,4888.8671 m -32.656,-4888.8671 21.9599,4888.8671 m -32.656,-4888.8671 21.96,4888.8671 m -32.656,-4888.8671 21.96,4888.8671 m -32.656,-4888.8671 21.9599,4888.8671 m -32.656,-4888.8671 21.96,4888.8671 m -32.656,-4888.8671 21.96,4888.8671 m -32.6561,-4888.8671 21.9601,4888.8671 m -32.656,-4888.8671 21.96,4888.8671 m -32.656,-4888.8671 21.96,4888.8671 m -32.6561,-4888.8671 21.96,4888.8671 m -32.656,-4888.8671 21.96,4888.8671 m -32.656,-4888.8671 21.9599,4888.8671 m -32.656,-4888.8671 21.96,4888.8671 m -32.656,-4888.8671 21.96,4888.8671 m -32.656,-4888.8671 21.9599,4888.8671 m -32.6559,-4888.8671 21.9599,4888.8671 m -32.656,-4888.8671 21.96,4888.8671 m -32.656,-4888.8671 21.96,4888.8671 m -32.656,-4888.8671 21.9599,4888.8671 m -32.656,-4888.8671 21.96,4888.8671 m -32.656,-4888.8671 21.96,4888.8671 m -32.6561,-4888.8671 21.96,4888.8671 m -32.656,-4888.8671 21.96,4888.8671 m -32.656,-4888.8671 21.9599,4888.8671 m -32.6559,-4888.8671 21.9599,4888.8671 M 105.87731,-2459.5277 127.83729,2429.3394 M 95.181281,-2459.5277 117.14126,2429.3394 M 84.485251,-2459.5277 106.44523,2429.3394 m -32.656029,-4888.8671 21.95998,4888.8671 m -32.65601,-4888.8671 21.95998,4888.8671 m -32.65601,-4888.8671 21.95997,4888.8671 m -32.65602,-4888.8671 21.95999,4888.8671 m -32.65602,-4888.8671 21.95998,4888.8671 m -32.65601,-4888.8671 21.95997,4888.8671 M 9.612991,-2459.5277 31.572971,2429.3394 M -1.0830492,-2459.5277 20.876921,2429.3394 m -32.65601,-4888.8671 21.95998,4888.8671 m -32.65601,-4888.8671 21.9599798,4888.8671 m -32.6560198,-4888.8671 21.95997,4888.8671 m -32.65601,-4888.8671 21.95998,4888.8671 m -32.65601,-4888.8671 21.95998,4888.8671 m -32.65603,-4888.8671 21.96,4888.8671 m -32.65603,-4888.8671 21.95998,4888.8671 m -32.65601,-4888.8671 21.95998,4888.8671 m -32.656031,-4888.8671 21.959991,4888.8671 m -32.656031,-4888.8671 21.959991,4888.8671 m -32.656011,-4888.8671 21.95997,4888.8671 m -32.65599,-4888.8671 21.96,4888.8671 m -32.65602,-4888.8671 21.96,4888.8671 m -32.65602,-4888.8671 21.95987,4888.8671 m -32.65602,-4888.8671 21.96,4888.8671 m -32.65602,-4888.8671 21.96,4888.8671 m -32.65602,-4888.8671 21.96,4888.8671 m -32.65602,-4888.8671 21.96,4888.8671 m -32.65602,-4888.8671 21.96,4888.8671 m -32.65602,-4888.8671 21.96,4888.8671 m -32.65602,-4888.8671 21.95987,4888.8671 m -32.65589,-4888.8671 21.95987,4888.8671 m -32.65602,-4888.8671 21.96,4888.8671 m -32.65602,-4888.8671 21.96,4888.8671 m -32.65602,-4888.8671 21.96,4888.8671 m -32.65602,-4888.8671 21.96,4888.8671 m -32.65602,-4888.8671 21.96,4888.8671 m -32.65602,-4888.8671 21.96001,4888.8671 m -32.65603,-4888.8671 21.95987,4888.8671 m -32.65589,-4888.8671 21.95987,4888.8671 m -32.65602,-4888.8671 21.96,4888.8671 m -32.65602,-4888.8671 21.96,4888.8671 m -32.65602,-4888.8671 21.96,4888.8671 m -32.65602,-4888.8671 21.96001,4888.8671 m -32.65603,-4888.8671 21.96001,4888.8671 m -32.65603,-4888.8671 21.96001,4888.8671 m -32.65599,-4888.8671 21.95983,4888.8671 m -32.65603,-4888.8671 21.96001,4888.8671 m -32.65601,-4888.8671 21.96,4888.8671 m -32.656,-4888.8671 21.96,4888.8671 m -32.656,-4888.8671 21.96,4888.8671 m -32.6561,-4888.8671 21.96,4888.8671 m -32.656,-4888.8671 21.96,4888.8671 m -32.656,-4888.8671 21.9599,4888.8671 m -32.6559,-4888.8671 21.9598,4888.8671 m -32.656,-4888.8671 21.96,4888.8671 m -32.65604,-4888.8671 21.96004,4888.8671 m -32.65604,-4888.8671 21.96004,4888.8671 m -32.65604,-4888.8671 21.96,4888.8671 m -32.6561,-4888.8671 21.96,4888.8671 m -32.656,-4888.8671 21.96,4888.8671 m -32.656,-4888.8671 21.9599,4888.8671 m -32.656,-4888.8671 21.96,4888.8671 m -32.6561,-4888.8671 21.96,4888.8671 m -32.656,-4888.8671 21.96,4888.8671 m -32.656,-4888.8671 21.96,4888.8671 m -32.65624,-4888.8671 21.96024,4888.8671 m -32.65624,-4888.8671 21.96024,4888.8671 m -32.65624,-4888.8671 21.96,4888.8671 m -32.656,-4888.8671 21.96,4888.8671 m -32.6562,-4888.8671 21.9602,4888.8671 m -32.6562,-4888.8671 21.9601,4888.8671 m -32.6561,-4888.8671 21.96,4888.8671 m -32.6558,-4888.8671 21.9598,4888.8671 m -32.6558,-4888.8671 21.9598,4888.8671 m -32.6558,-4888.8671 21.96,4888.8671 m -32.656,-4888.8671 21.96,4888.8671 m -32.656,-4888.8671 21.96,4888.8671 m -32.6562,-4888.8671 21.9601,4888.8671 m -32.6561,-4888.8671 21.96,4888.8671 m -32.656,-4888.8671 21.96,4888.8671 m -32.656,-4888.8671 21.96,4888.8671 m -32.6561,-4888.8671 21.96,4888.8671 m -32.656,-4888.8671 21.96,4888.8671 m -32.656,-4888.8671 21.96,4888.8671 m -32.6562,-4888.8671 21.9602,4888.8671 m -32.6562,-4888.8671 21.9602,4888.8671 m -32.6562,-4888.8671 21.96,4888.8671 m -32.656,-4888.8671 21.96,4888.8671 m -32.656,-4888.8671 21.96,4888.8671 m -32.6561,-4888.8671 21.96,4888.8671 m -32.656,-4888.8671 21.96,4888.8671 m -32.656,-4888.8671 21.96,4888.8671 m -32.6561,-4888.8671 21.9601,4888.8671 m -32.6562,-4888.8671 21.9602,4888.8671 m -32.6562,-4888.8671 21.96,4888.8671 m -32.656,-4888.8671 21.96,4888.8671 m -32.656,-4888.8671 21.96,4888.8671 m -32.656,-4888.8671 21.96,4888.8671 m -32.6561,-4888.8671 21.96,4888.8671 m -32.656,-4888.8671 21.96,4888.8671 m -32.6561,-4888.8671 21.9601,4888.8671 m -32.6562,-4888.8671 21.96,4888.8671 m -32.656,-4888.8671 21.96,4888.8671 m -32.6559,-4888.8671 21.9599,4888.8671 m -32.6559,-4888.8671 21.9599,4888.8671 m -32.6559,-4888.8671 21.96,4888.8671 m -32.6561,-4888.8671 21.9601,4888.8671 m -32.6562,-4888.8671 21.9601,4888.8671 m -32.6561,-4888.8671 21.9601,4888.8671 m -32.6561,-4888.8671 21.96,4888.8671 m -32.6561,-4888.8671 21.96,4888.8671 m -32.656,-4888.8671 21.96,4888.8671 m -32.656,-4888.8671 21.96,4888.8671 m -32.656,-4888.8671 21.96,4888.8671 m -32.656,-4888.8671 21.96,4888.8671 m -32.6562,-4888.8671 21.9601,4888.8671 m -32.6561,-4888.8671 21.9601,4888.8671 m -32.6561,-4888.8671 21.96,4888.8671 m -32.6561,-4888.8671 21.9601,4888.8671 m -32.6561,-4888.8671 21.96,4888.8671 m -32.656,-4888.8671 21.96,4888.8671 m -32.656,-4888.8671 21.96,4888.8671 m -32.656,-4888.8671 21.96,4888.8671 m -32.6562,-4888.8671 21.9602,4888.8671 m -32.6562,-4888.8671 21.96,4888.8671 m -32.656,-4888.8671 21.96,4888.8671 m 2705.5293,-4888.8671 21.96,4888.8671 m -32.656,-4888.8671 21.96,4888.8671 m -32.656,-4888.8671 21.9599,4888.8671 m -32.656,-4888.8671 21.96,4888.8671 m -32.656,-4888.8671 21.96,4888.8671 m -32.6561,-4888.8671 21.96,4888.8671 m -32.656,-4888.8671 21.96,4888.8671 m -32.656,-4888.8671 21.9599,4888.8671 m -32.656,-4888.8671 21.96,4888.8671 m -32.656,-4888.8671 21.96,4888.8671 m -32.6561,-4888.8671 21.96,4888.8671 m -32.656,-4888.8671 21.96,4888.8671 m -32.6561,-4888.8671 21.96,4888.8671 m -32.656,-4888.8671 21.96,4888.8671 m -32.656,-4888.8671 21.9599,4888.8671 m -32.656,-4888.8671 21.96,4888.8671 m -32.656,-4888.8671 21.96,4888.8671 m -32.656,-4888.8671 21.9599,4888.8671 m -32.656,-4888.8671 21.96,4888.8671 m -32.656,-4888.8671 21.96,4888.8671 m -32.6561,-4888.8671 21.96,4888.8671 m -32.656,-4888.8671 21.96,4888.8671 m -32.656,-4888.8671 21.96,4888.8671 m -32.6561,-4888.8671 21.96,4888.8671 m -32.656,-4888.8671 21.96,4888.8671 m -32.656,-4888.8671 21.9599,4888.8671 m -32.656,-4888.8671 21.96,4888.8671 m -32.656,-4888.8671 21.96,4888.8671 m -32.656,-4888.8671 21.9599,4888.8671 m -32.656,-4888.8671 21.96,4888.8671 m -32.656,-4888.8671 21.96,4888.8671 m -32.6561,-4888.8671 21.96,4888.8671 m -32.656,-4888.8671 21.96,4888.8671 m -32.656,-4888.8671 21.9599,4888.8671 m -32.656,-4888.8671 21.96,4888.8671 m -32.656,-4888.8671 21.96,4888.8671 m -32.656,-4888.8671 21.9599,4888.8671 m -32.656,-4888.8671 21.96,4888.8671 m -32.656,-4888.8671 21.96,4888.8671 m -32.6561,-4888.8671 21.96,4888.8671 m -32.656,-4888.8671 21.96,4888.8671 m -32.656,-4888.8671 21.96,4888.8671 m -32.6561,-4888.8671 21.96,4888.8671 m -32.656,-4888.8671 21.96,4888.8671 m -32.656,-4888.8671 21.9599,4888.8671 m -32.65605,-4888.8671 21.96005,4888.8671 m -32.65607,-4888.8671 21.96007,4888.8671 m -32.6561,-4888.8671 21.95995,4888.8671 m -32.65599,-4888.8671 21.95998,4888.8671 m -32.65602,-4888.8671 21.95999,4888.8671 m -32.65602,-4888.8671 21.95997,4888.8671 m -32.65601,-4888.8671 21.95998,4888.8671 m -32.65601,-4888.8671 21.95998,4888.8671 m -32.65603,-4888.8671 21.95998,4888.8671 m -32.65601,-4888.8671 21.95998,4888.8671 m -32.65601,-4888.8671 21.95998,4888.8671 m -32.65603,-4888.8671 21.95998,4888.8671 m -32.65601,-4888.8671 21.95998,4888.8671 m -32.65601,-4888.8671 21.95998,4888.8671 m -32.65603,-4888.8671 21.95999,4888.8671 m -32.65602,-4888.8671 21.95998,4888.8671 m -32.65601,-4888.8671 21.95997,4888.8671 m -32.65602,-4888.8671 21.95999,4888.8671 m -32.65602,-4888.8671 21.95998,4888.8671 m -32.65602,-4888.8671 21.95998,4888.8671 m -32.65601,-4888.8671 21.95998,4888.8671 m -32.65602,-4888.8671 21.95997,4888.8671 m -32.65601,-4888.8671 21.95998,4888.8671 m -32.65601,-4888.8671 21.95998,4888.8671 m -32.65603,-4888.8671 21.95998,4888.8671 m -32.65601,-4888.8671 21.95998,4888.8671 m -32.65601,-4888.8671 21.95998,4888.8671 m -32.65602,-4888.8671 21.95998,4888.8671 m -32.65602,-4888.8671 21.95998,4888.8671 m -32.65601,-4888.8671 21.95998,4888.8671 m -32.65602,-4888.8671 21.95999,4888.8671 m -32.65603,-4888.8671 21.95998,4888.8671 m -32.65601,-4888.8671 21.95998,4888.8671 m -32.65601,-4888.8671 21.95998,4888.8671 m -32.65603,-4888.8671 21.95998,4888.8671 m -32.65601,-4888.8671 21.95998,4888.8671 m -32.65601,-4888.8671 21.95997,4888.8671 m -32.65602,-4888.8671 21.95998,4888.8671 m -32.65601,-4888.8671 21.95998,4888.8671 m -32.65601,-4888.8671 21.95998,4888.8671 m -32.65603,-4888.8671 21.95999,4888.8671 m -32.65602,-4888.8671 21.95998,4888.8671 m -32.65601,-4888.8671 21.95998,4888.8671 m -32.65602,-4888.8671 21.95998,4888.8671 m -32.65602,-4888.8671 21.95998,4888.8671 m -32.65601,-4888.8671 21.95997,4888.8671 m -32.65601,-4888.8671 21.95998,4888.8671 m -32.65602,-4888.8671 21.95997,4888.8671 m -32.656,-4888.8671 21.95997,4888.8671 m -32.65601,-4888.8671 21.95998,4888.8671 m -32.65602,-4888.8671 21.95999,4888.8671 m -32.65603,-4888.8671 21.95998,4888.8671 m -32.65601,-4888.8671 21.95998,4888.8671 m -32.65602,-4888.8671 21.95999,4888.8671 m -32.65603,-4888.8671 21.95998,4888.8671 m -32.65601,-4888.8671 21.95998,4888.8671 m -32.65602,-4888.8671 21.95999,4888.8671 m -32.65604,-4888.8671 21.95999,4888.8671 m -32.65602,-4888.8671 21.95998,4888.8671 m -32.65601,-4888.8671 21.95997,4888.8671 m -32.65602,-4888.8671 21.95998,4888.8671 m -32.65601,-4888.8671 21.95997,4888.8671 m -32.65601,-4888.8671 21.95998,4888.8671 m -32.65602,-4888.8671 21.95999,4888.8671 m -32.65602,-4888.8671 21.95997,4888.8671 m -32.65601,-4888.8671 21.95998,4888.8671 m -32.65602,-4888.8671 21.95999,4888.8671 m -32.65603,-4888.8671 21.95998,4888.8671 m -32.65601,-4888.8671 21.95998,4888.8671 m -32.65601,-4888.8671 21.95998,4888.8671 m -32.65603,-4888.8671 21.95998,4888.8671 m -32.65601,-4888.8671 21.95998,4888.8671 m -32.65601,-4888.8671 21.95998,4888.8671 m -32.65603,-4888.8671 21.95998,4888.8671 m -32.65601,-4888.8671 21.95998,4888.8671 m -32.65601,-4888.8671 21.95997,4888.8671 m -32.65602,-4888.8671 21.95999,4888.8671 m -32.65602,-4888.8671 21.95997,4888.8671 m -32.65601,-4888.8671 21.95998,4888.8671 m -32.65602,-4888.8671 21.95999,4888.8671 m -32.65602,-4888.8671 21.95997,4888.8671 m -32.65601,-4888.8671 21.95998,4888.8671 m -32.65601,-4888.8671 21.95998,4888.8671"
       style="opacity:0.13486843;fill:none;stroke:#ffffff;stroke-width:2.60543108px;stroke-linecap:butt;stroke-linejoin:miter;stroke-opacity:1"
       id="path2881"
       mask="url(#mask3754)" />
  </g>
  <g
     inkscape:groupmode="layer"
     id="layer3"
     inkscape:label="Dark Edge"
     style="display:none"
     sodipodi:insensitive="true">
    <rect
       style="opacity:0.44078944;fill:url(#radialGradient4174);fill-opacity:1;stroke:none;display:inline"
       id="rect4166"
       width="1920"
       height="1200"
       x="0"
       y="0" />
  </g>
  <g
     inkscape:groupmode="layer"
     id="layer5"
     inkscape:label="Text"
     style="display:inline">
    <g
       id="g3762"
       transform="translate(240,128)">
      <text
         transform="matrix(0.94954907,0,0,1.0531315,8,104)"
         sodipodi:linespacing="125%"
         id="text3366"
         y="793.20929"
         x="1071.2358"
         style="font-size:101.33043671px;font-style:normal;font-variant:normal;font-weight:normal;font-stretch:normal;text-align:start;line-height:125%;writing-mode:lr-tb;text-anchor:start;fill:#000000;fill-opacity:1;stroke:#000000;stroke-width:2.05599999;stroke-miterlimit:4;stroke-opacity:1;stroke-dasharray:none;display:inline;filter:url(#filter3758);font-family:Dustismo;-inkscape-font-specification:Dustismo"
         xml:space="preserve"><tspan
           dx="0 -3.277281 1.2834408 -4.3697081 -4.3697081"
           y="793.20929"
           x="1071.2358"
           id="tspan3368"
           sodipodi:role="line"
           style="letter-spacing:-0.72113061;fill:#000000;fill-opacity:1;stroke:#000000;stroke-width:2.05599999;stroke-miterlimit:4;stroke-opacity:1;stroke-dasharray:none">sidux:Μόρος</tspan></text>
      <text
         xml:space="preserve"
         style="font-size:92.92816162px;font-style:normal;font-variant:normal;font-weight:normal;font-stretch:normal;text-align:start;line-height:125%;writing-mode:lr-tb;text-anchor:start;fill:#ffffff;fill-opacity:1;stroke:#ffffff;stroke-width:0.87661302;stroke-miterlimit:4;stroke-opacity:1;stroke-dasharray:none;display:inline;font-family:Dustismo;-inkscape-font-specification:Dustismo"
         x="1037.2429"
         y="934.28784"
         id="text2898"
         sodipodi:linespacing="125%"><tspan
           style="letter-spacing:-0.66133475;fill:#ffffff;fill-opacity:1;stroke:#ffffff;stroke-width:0.87661302;stroke-opacity:1"
           sodipodi:role="line"
           id="tspan2900"
           x="1037.2429"
           y="934.28784"
           dx="0 -3.0055304 1.1770185 -4.0073738 -4.0073738">sidux:Μόρος</tspan></text>
    </g>
  </g>
</svg>
