<?xml version="1.0" encoding="UTF-8" standalone="no"?>
<!-- Created with Inkscape (http://www.inkscape.org/) -->

<svg
   xmlns:dc="http://purl.org/dc/elements/1.1/"
   xmlns:cc="http://creativecommons.org/ns#"
   xmlns:rdf="http://www.w3.org/1999/02/22-rdf-syntax-ns#"
   xmlns:svg="http://www.w3.org/2000/svg"
   xmlns="http://www.w3.org/2000/svg"
   xmlns:xlink="http://www.w3.org/1999/xlink"
   xmlns:sodipodi="http://sodipodi.sourceforge.net/DTD/sodipodi-0.dtd"
   xmlns:inkscape="http://www.inkscape.org/namespaces/inkscape"
   width="1600"
   height="1200"
   id="svg2"
   sodipodi:version="0.32"
   inkscape:version="0.47 r22583"
   sodipodi:docname="sidux-pontos.svg"
   inkscape:output_extension="org.inkscape.output.svg.inkscape"
   version="1.0">
  <defs
     id="defs4">
    <linearGradient
       id="linearGradient92350">
      <stop
         style="stop-color:#ffffff;stop-opacity:1;"
         offset="0"
         id="stop92352" />
      <stop
         id="stop92354"
         offset="0.74921137"
         style="stop-color:#e5e5e5;stop-opacity:0.54109591;" />
      <stop
         style="stop-color:#999999;stop-opacity:0.29452056;"
         offset="1"
         id="stop92356" />
    </linearGradient>
    <linearGradient
       id="linearGradient92301">
      <stop
         id="stop92303"
         offset="0"
         style="stop-color:#ffffff;stop-opacity:1;" />
      <stop
         style="stop-color:#ffffff;stop-opacity:1;"
         offset="0.18814027"
         id="stop92305" />
      <stop
         id="stop92307"
         offset="1"
         style="stop-color:#000000;stop-opacity:1;" />
    </linearGradient>
    <linearGradient
       inkscape:collect="always"
       id="linearGradient3181">
      <stop
         style="stop-color:#ffffff;stop-opacity:1"
         offset="0"
         id="stop3183" />
      <stop
         style="stop-color:#000000;stop-opacity:1"
         offset="1"
         id="stop3185" />
    </linearGradient>
    <linearGradient
       id="linearGradient2781">
      <stop
         style="stop-color:#ffffff;stop-opacity:1;"
         offset="0"
         id="stop2783" />
      <stop
         id="stop2789"
         offset="0.09455471"
         style="stop-color:#e5e5e5;stop-opacity:1;" />
      <stop
         style="stop-color:#999999;stop-opacity:1;"
         offset="1"
         id="stop2785" />
    </linearGradient>
    <linearGradient
       id="linearGradient3937">
      <stop
         style="stop-color:#000000;stop-opacity:0;"
         offset="0"
         id="stop3939" />
      <stop
         id="stop3945"
         offset="0.69098639"
         style="stop-color:#051405;stop-opacity:0.31506848;" />
      <stop
         style="stop-color:#0b280b;stop-opacity:0.87671232;"
         offset="1"
         id="stop3941" />
    </linearGradient>
    <pattern
       inkscape:collect="always"
       xlink:href="#pattern4905"
       id="pattern3024"
       patternTransform="matrix(14.452368,0,0,14.452368,1248.7525,270.01392)" />
    <linearGradient
       id="linearGradient5065">
      <stop
         style="stop-color:#000000;stop-opacity:0;"
         offset="0"
         id="stop5067" />
      <stop
         id="stop5073"
         offset="0.5"
         style="stop-color:#000000;stop-opacity:0.40277779;" />
      <stop
         style="stop-color:#000000;stop-opacity:0;"
         offset="1"
         id="stop5069" />
    </linearGradient>
    <pattern
       inkscape:collect="always"
       xlink:href="#pattern4901"
       id="pattern4905"
       patternTransform="matrix(14.452368,0,0,14.452368,1190.7525,230.01392)" />
    <pattern
       inkscape:collect="always"
       xlink:href="#Checkerboardwhite"
       id="pattern4901"
       patternTransform="matrix(14.452368,0,0,14.452368,1306.5146,425.76857)" />
    <linearGradient
       inkscape:collect="always"
       id="linearGradient4785">
      <stop
         style="stop-color:#ffffff;stop-opacity:1"
         offset="0"
         id="stop4787" />
      <stop
         style="stop-color:#000000;stop-opacity:0;"
         offset="1"
         id="stop4789" />
    </linearGradient>
    <pattern
       inkscape:stockid="Checkerboard white"
       id="Checkerboardwhite"
       patternTransform="matrix(18.558678,0,0,18.558678,1250.7478,71.65798)"
       height="2"
       width="2"
       patternUnits="userSpaceOnUse"
       inkscape:collect="always">
      <rect
         id="rect4144"
         height="1"
         width="1"
         y="0"
         x="0"
         style="fill:white;stroke:none" />
      <rect
         id="rect4146"
         height="1"
         width="1"
         y="1"
         x="1"
         style="fill:white;stroke:none" />
    </pattern>
    <linearGradient
       inkscape:collect="always"
       xlink:href="#linearGradient5065"
       id="linearGradient5071"
       x1="751.53094"
       y1="944.49524"
       x2="1388.8918"
       y2="944.49524"
       gradientUnits="userSpaceOnUse"
       gradientTransform="translate(58,70)" />
    <filter
       inkscape:collect="always"
       id="filter5077"
       x="-0.0033050667"
       width="1.0066101"
       y="-2.1526312"
       height="5.3052625">
      <feGaussianBlur
         inkscape:collect="always"
         stdDeviation="0.89692969"
         id="feGaussianBlur5079" />
    </filter>
    <linearGradient
       inkscape:collect="always"
       xlink:href="#linearGradient4785"
       id="linearGradient3020"
       gradientUnits="userSpaceOnUse"
       gradientTransform="matrix(1.4452368,0,0,1.4452368,1248.7525,270.01392)"
       x1="-68.973221"
       y1="338.61566"
       x2="-68.973221"
       y2="451.32553" />
    <linearGradient
       inkscape:collect="always"
       xlink:href="#linearGradient4785"
       id="linearGradient3823"
       gradientUnits="userSpaceOnUse"
       gradientTransform="matrix(1.4452368,0,0,1.4452368,1190.7525,230.01392)"
       x1="-68.973221"
       y1="338.61566"
       x2="-68.973221"
       y2="451.32553" />
    <linearGradient
       inkscape:collect="always"
       xlink:href="#linearGradient3181"
       id="linearGradient4618"
       gradientUnits="userSpaceOnUse"
       x1="1093.5305"
       y1="995.42413"
       x2="1093.5305"
       y2="1132.3877"
       gradientTransform="translate(-723.76409,-1018.5348)" />
    <mask
       maskUnits="userSpaceOnUse"
       id="mask4614">
      <rect
         y="-22.601389"
         x="17.086191"
         height="272.82809"
         width="789.6488"
         id="rect4616"
         style="fill:url(#linearGradient4618);fill-opacity:1;fill-rule:evenodd;stroke:#000000;stroke-width:1px;stroke-linecap:butt;stroke-linejoin:miter;stroke-opacity:1" />
    </mask>
    <radialGradient
       inkscape:collect="always"
       xlink:href="#linearGradient92301"
       id="radialGradient92324"
       gradientUnits="userSpaceOnUse"
       gradientTransform="matrix(1.5037432,-0.1834138,8.2413732e-2,1.3934219,-526.55852,22.009942)"
       cx="1037.9656"
       cy="804.68542"
       fx="1037.9656"
       fy="804.68542"
       r="875.19171" />
    <mask
       maskUnits="userSpaceOnUse"
       id="mask92320">
      <rect
         y="-173.95683"
         x="-84.441757"
         height="1479.2645"
         width="1790.9087"
         id="rect92322"
         style="opacity:1;fill:url(#radialGradient92324);fill-opacity:1;stroke:none;display:inline" />
    </mask>
    <linearGradient
       inkscape:collect="always"
       xlink:href="#linearGradient2781"
       id="linearGradient92328"
       gradientUnits="userSpaceOnUse"
       x1="558.9649"
       y1="948.19049"
       x2="558.9649"
       y2="172.69933"
       gradientTransform="translate(-8.2820514,-2022.4125)" />
    <radialGradient
       inkscape:collect="always"
       xlink:href="#linearGradient3937"
       id="radialGradient92360"
       gradientUnits="userSpaceOnUse"
       gradientTransform="matrix(1.5308499,-0.6814828,0.5125447,1.3948772,-1054.3563,590.70688)"
       cx="1291.6517"
       cy="879.90021"
       fx="1291.6517"
       fy="879.90021"
       r="875.19171" />
    <linearGradient
       inkscape:collect="always"
       xlink:href="#linearGradient2781"
       id="linearGradient92368"
       gradientUnits="userSpaceOnUse"
       x1="558.9649"
       y1="948.19049"
       x2="558.9649"
       y2="172.69933" />
    <linearGradient
       inkscape:collect="always"
       xlink:href="#linearGradient92350"
       id="linearGradient92373"
       gradientUnits="userSpaceOnUse"
       gradientTransform="matrix(1,0,0,1.0062686,29.925594,-8.6629161)"
       x1="558.9649"
       y1="948.19049"
       x2="558.9649"
       y2="834.96869" />
  </defs>
  <sodipodi:namedview
     id="base"
     pagecolor="#ffffff"
     bordercolor="#666666"
     borderopacity="1.0"
     gridtolerance="10000"
     guidetolerance="10"
     objecttolerance="10"
     inkscape:pageopacity="0.0"
     inkscape:pageshadow="2"
     inkscape:zoom="2.2132442"
     inkscape:cx="1459.2615"
     inkscape:cy="354.67717"
     inkscape:document-units="px"
     inkscape:current-layer="layer6"
     showgrid="false"
     inkscape:window-width="1920"
     inkscape:window-height="1139"
     inkscape:window-x="-3"
     inkscape:window-y="-4"
     borderlayer="true"
     showguides="true"
     inkscape:guide-bbox="true">
    <sodipodi:guide
       orientation="0,1"
       position="524.11749,370.49684"
       id="guide92366" />
  </sodipodi:namedview>
  <metadata
     id="metadata7">
    <rdf:RDF>
      <cc:Work
         rdf:about="">
        <dc:format>image/svg+xml</dc:format>
        <dc:type
           rdf:resource="http://purl.org/dc/dcmitype/StillImage" />
        <dc:title />
      </cc:Work>
    </rdf:RDF>
  </metadata>
  <g
     inkscape:label="Layer 1"
     inkscape:groupmode="layer"
     id="layer1"
     style="display:inline">
    <rect
       y="-71.863548"
       x="-146.99295"
       height="1470.1597"
       width="1766.814"
       id="rect2895"
       style="opacity:1;fill:#ffffff;fill-opacity:1;stroke:#ffffff;stroke-width:4.95930386;stroke-miterlimit:4;stroke-dasharray:none;stroke-opacity:1;display:inline" />
    <path
       style="fill:#008000;fill-opacity:1"
       d="M -3.06941,-41.524162 L 1646.1041,-41.524162 L 1646.1041,1229.8939 L -3.06941,1229.8939 L -3.06941,-41.524162 L -3.06941,-41.524162 z"
       id="rect3376" />
    <path
       sodipodi:type="arc"
       style="opacity:1;fill:#00aa44;fill-opacity:0.875;stroke:none"
       id="path3035"
       sodipodi:cx="986.56171"
       sodipodi:cy="467.80042"
       sodipodi:rx="768.53705"
       sodipodi:ry="786.70575"
       d="M 1755.0988,467.80042 A 768.53705,786.70575 0 1 1 218.02466,467.80042 A 768.53705,786.70575 0 1 1 1755.0988,467.80042 z"
       transform="matrix(1.4822695,0,0,1.2651794,-523.90253,382.43705)" />
    <path
       transform="matrix(1.4822695,0,0,1.2651794,94.709327,85.211434)"
       d="M 1755.0988,467.80042 A 768.53705,786.70575 0 1 1 218.02466,467.80042 A 768.53705,786.70575 0 1 1 1755.0988,467.80042 z"
       sodipodi:ry="786.70575"
       sodipodi:rx="768.53705"
       sodipodi:cy="467.80042"
       sodipodi:cx="986.56171"
       id="path3037"
       style="opacity:1;fill:#165016;fill-opacity:0.73786406;stroke:none"
       sodipodi:type="arc" />
    <path
       sodipodi:type="arc"
       style="opacity:1;fill:#00aa00;fill-opacity:0.73786406;stroke:none"
       id="path3039"
       sodipodi:cx="986.56171"
       sodipodi:cy="467.80042"
       sodipodi:rx="768.53705"
       sodipodi:ry="786.70575"
       d="M 1755.0988,467.80042 A 768.53705,786.70575 0 1 1 218.02466,467.80042 A 768.53705,786.70575 0 1 1 1755.0988,467.80042 z"
       transform="matrix(1.4822695,0,0,1.2651794,80.174348,375.91102)" />
    <path
       transform="matrix(1.4822695,0,0,1.2651794,443.54883,121.54888)"
       d="M 1755.0988,467.80042 A 768.53705,786.70575 0 1 1 218.02466,467.80042 A 768.53705,786.70575 0 1 1 1755.0988,467.80042 z"
       sodipodi:ry="786.70575"
       sodipodi:rx="768.53705"
       sodipodi:cy="467.80042"
       sodipodi:cx="986.56171"
       id="path3041"
       style="opacity:1;fill:#1f241c;fill-opacity:0.73786406;stroke:none"
       sodipodi:type="arc" />
    <path
       sodipodi:type="arc"
       style="opacity:1;fill:#2aff2a;fill-opacity:0.73786406;stroke:none"
       id="path3043"
       sodipodi:cx="986.56171"
       sodipodi:cy="467.80042"
       sodipodi:rx="768.53705"
       sodipodi:ry="786.70575"
       d="M 1755.0988,467.80042 A 768.53705,786.70575 0 1 1 218.02466,467.80042 A 768.53705,786.70575 0 1 1 1755.0988,467.80042 z"
       transform="matrix(1.1557387,0,0,1.0578361,445.72907,569.87559)" />
    <path
       sodipodi:type="arc"
       style="opacity:1;fill:#165016;fill-opacity:0.73786406;stroke:none"
       id="path3045"
       sodipodi:cx="986.56171"
       sodipodi:cy="467.80042"
       sodipodi:rx="768.53705"
       sodipodi:ry="786.70575"
       d="M 1755.0988,467.80042 A 768.53705,786.70575 0 1 1 218.02466,467.80042 A 768.53705,786.70575 0 1 1 1755.0988,467.80042 z"
       transform="matrix(1.4822695,0,0,1.2651794,594.11944,441.51143)" />
    <path
       transform="matrix(1.1557387,0,0,1.0578361,552.38325,795.73151)"
       d="M 1755.0988,467.80042 A 768.53705,786.70575 0 1 1 218.02466,467.80042 A 768.53705,786.70575 0 1 1 1755.0988,467.80042 z"
       sodipodi:ry="786.70575"
       sodipodi:rx="768.53705"
       sodipodi:cy="467.80042"
       sodipodi:cx="986.56171"
       id="path3047"
       style="opacity:1;fill:#55ff55;fill-opacity:0.73786406;stroke:none"
       sodipodi:type="arc" />
    <path
       transform="matrix(0.9266853,0,0,1.2651794,917.09893,807.50033)"
       d="M 1755.0988,467.80042 A 768.53705,786.70575 0 1 1 218.02466,467.80042 A 768.53705,786.70575 0 1 1 1755.0988,467.80042 z"
       sodipodi:ry="786.70575"
       sodipodi:rx="768.53705"
       sodipodi:cy="467.80042"
       sodipodi:cx="986.56171"
       id="path3049"
       style="opacity:1;fill:#17280b;fill-opacity:0.73786406;stroke:none"
       sodipodi:type="arc" />
    <rect
       style="opacity:1;fill:url(#radialGradient92360);fill-opacity:1;stroke:none"
       id="rect3927"
       width="1750.3834"
       height="1422.5234"
       x="-43.916428"
       y="-173.95683"
       mask="none" />
  </g>
  <g
     inkscape:groupmode="layer"
     id="layer4"
     inkscape:label="lines"
     style="opacity:0.30232558">
    <g
       id="g3792"
       transform="matrix(0.24233241,0.52294466,0.52294466,-0.24233241,499.60266,961.69953)"
       style="fill:#0b280b;display:inline">
      <path
         id="path3873"
         d="m -908.3871,2229.6774 c 28.70794,-224.3578 84.63725,-445.1063 165.45569,-656.2146 10e-6,0 2e-5,0 3e-5,-10e-5 80.81876,-211.1081 186.55229,-412.6425 314.8471,-598.58077 2e-5,-3e-5 4e-5,-6e-5 6e-5,-8e-5 110.27419,-159.82183 236.94576,-308.26503 377.351734,-442.24112 l -6.922124,-7.21694 c -140.20684,135.17362 -266.47736,284.71699 -376.19665,445.50082 -10e-6,2e-5 -2e-5,3e-5 -3e-5,4e-5 -127.653,187.06515 -232.52278,389.51665 -312.34924,601.29625 -1e-5,0 -2e-5,0 -4e-5,0 -79.82681,211.7795 -134.63524,432.9537 -162.18653,657.4565 z"
         style="fill:#0b280b;stroke:none" />
      <path
         id="path3885"
         d="m -933.77032,2264.8564 c -18.72699,-152.1029 -6.44735,-307.641 33.74956,-455.2904 0,0 0,0 10e-6,0 40.19938,-147.6487 108.40335,-287.7246 201.35712,-408.9503 10e-6,-10e-5 2e-5,-10e-5 4e-5,-10e-5 71.5841,-93.3621 157.17962,-175.8884 252.9668,-243.9529 l -5.82448,-8.1286 c -96.06289,69.4028 -181.60376,153.2114 -252.88932,247.7109 0,0 -1e-5,0 -1e-5,0 -92.58262,122.739 -159.94441,263.9847 -199.09712,412.3863 -1e-5,10e-5 -1e-5,10e-5 -2e-5,10e-5 -39.15519,148.401 -50.18332,304.2738 -30.26258,456.225 z"
         style="fill:#0b280b;stroke:none" />
      <path
         id="path3891"
         d="m -338.92473,2316.7622 c -19.92074,-151.9512 -8.89261,-307.824 30.26258,-456.225 0,0 10e-6,0 10e-6,0 39.15271,-148.4017 106.5145,-289.6474 199.09711,-412.3864 10e-6,0 2e-5,0 3e-5,0 71.285563,-94.4995 156.82643,-178.3081 252.88932,-247.7109 l 5.82448,8.1286 c -95.787184,68.0645 -181.382703,150.5908 -252.9668,243.9529 -1e-5,0 -2e-5,0 -2e-5,0 -92.95378,121.2258 -161.15775,261.3017 -201.35714,408.9504 0,0 -10e-6,0 -10e-6,0 -40.19691,147.6494 -52.47655,303.1875 -33.74956,455.2904 z"
         style="fill:#0b280b;stroke:none" />
      <path
         id="path3897"
         d="m -315.67147,2323.7753 c -19.92074,-151.9512 -8.89261,-307.824 30.26259,-456.225 0,0 1e-5,0 1e-5,-1e-4 39.15271,-148.4016 106.5145,-289.6473 199.097101,-412.3863 1.3e-5,0 2.6e-5,0 3.8e-5,0 71.285558,-94.4995 156.826423,-178.3081 252.889311,-247.7109 l 5.82448,8.1286 c -95.787182,68.0645 -181.3826996,150.5908 -252.966799,243.9529 -92.953781,121.2258 -161.157761,261.3017 -201.357151,408.9504 -10e-6,0 -10e-6,0 -2e-5,0 -40.1969,147.6494 -52.47655,303.1875 -33.74956,455.2904 z"
         style="fill:#0b280b;stroke:none" />
      <path
         id="path3903"
         d="m -446.17487,2294.2993 c -18.72699,-152.1029 -6.44735,-307.641 33.74956,-455.2904 0,0 0,0 1e-5,0 40.19938,-147.6487 108.40335,-287.7246 201.35712,-408.9503 1e-5,-10e-5 2e-5,-10e-5 4e-5,-10e-5 71.5841,-93.3621 157.179616,-175.8884 252.966801,-243.9529 l -5.824482,-8.1286 c -96.062889,69.4028 -181.603759,153.2114 -252.889319,247.7109 0,0 -10e-6,0 -10e-6,0 -92.58262,122.739 -159.94441,263.9847 -199.09712,412.3863 -1e-5,10e-5 -1e-5,10e-5 -2e-5,10e-5 -39.15519,148.401 -50.18332,304.2738 -30.26258,456.225 z"
         style="fill:#0b280b;stroke:none" />
      <path
         id="path3909"
         d="m -68.42092,1929.2047 c -146.73053,-10.0405 -293.87782,-50.5435 -429.97877,-117.87 -10e-6,0 -2e-5,0 -3e-5,0 -136.09038,-67.3444 -261.44538,-161.6396 -364.65639,-279.0794 -10e-6,0 -3e-5,0 -4e-5,0 -79.41233,-90.3788 -145.98955,-193.721 -196.18015,-305.9634 41.1478,115.5315 99.67439,224.8846 173.15974,323.3807 6.66439,8.9256 13.45324,17.7553 20.36317,26.487 105.26047,106.1346 228.16287,189.9378 359.00247,249.2061 140.63891,63.71 290.76616,99.1763 438.29,103.839 z"
         style="fill:#0b280b;stroke:none" />
      <path
         id="path3913"
         d="m -72.260565,1983.7736 c -146.730525,-10.0405 -293.877805,-50.5435 -429.978765,-117.8701 -1e-5,0 -2e-5,0 -3e-5,0 -136.09037,-67.3443 -261.44537,-161.6396 -364.65639,-279.0793 -2e-5,0 -3e-5,0 -5e-5,0 -79.41234,-90.3788 -145.9896,-193.721 -196.1802,-305.9634 41.1478,115.5315 99.67443,224.8846 173.1598,323.3807 6.66439,8.9256 13.45323,17.7553 20.36315,26.487 105.26049,106.1346 228.16289,189.9378 359.0025,249.2061 140.6389,63.71 290.76615,99.1763 438.289985,103.839 z"
         style="fill:#0b280b;stroke:none" />
      <path
         id="path3919"
         d="m -254.16889,1936.2353 c -146.73053,-10.0405 -293.87782,-50.5435 -429.97877,-117.87 -10e-6,-10e-5 -2e-5,-10e-5 -3e-5,-10e-5 -136.09038,-67.3443 -261.44537,-161.6396 -364.65641,-279.0793 0,0 0,0 0,0 -79.4124,-90.3788 -145.9896,-193.721 -196.1802,-305.9634 41.1478,115.5315 99.6744,224.8846 173.1598,323.3807 6.6644,8.9256 13.4532,17.7553 20.3631,26.487 105.26051,106.1346 228.16291,189.9378 359.00251,249.2061 140.63891,63.71 290.76616,99.1763 438.29,103.839 z"
         style="fill:#0b280b;stroke:none" />
      <path
         id="path3925"
         d="m 217.21852,1864.8703 c -146.73052,-10.0404 -293.877806,-50.5434 -429.97876,-117.87 -136.09038,-67.3443 -261.44539,-161.6395 -364.65642,-279.0793 -10e-6,0 -3e-5,0 -4e-5,0 -79.41234,-90.3788 -145.98962,-193.721 -196.18019,-305.9634 41.14782,115.5315 99.67441,224.8846 173.15978,323.3807 6.66439,8.9256 13.45323,17.7553 20.36315,26.487 105.26048,106.1346 228.16289,189.9378 359.00249,249.2061 140.63891,63.71 290.766153,99.1763 438.28999,103.8389 z"
         style="fill:#0b280b;stroke:none" />
      <path
         id="path3879"
         d="m -134.83107,2138.4983 c -146.73052,-10.0404 -293.8778,-50.5434 -429.97876,-117.87 -10e-6,0 -10e-6,0 -2e-5,0 -136.09038,-67.3443 -261.44538,-161.6396 -364.6564,-279.0793 -1e-5,0 -3e-5,0 -4e-5,0 -79.41231,-90.3788 -145.98961,-193.721 -196.18021,-305.9634 41.1478,115.5315 99.6744,224.8846 173.15979,323.3807 6.6644,8.9256 13.45323,17.7553 20.36316,26.487 105.26048,106.1346 228.16289,189.9378 359.00249,249.2061 140.63891,63.71 290.76615,99.1763 438.28999,103.8389 z"
         style="fill:#0b280b;stroke:none" />
    </g>
    <path
       id="path3819"
       d="m 1316.137,705.32953 c -49.5348,-74.12351 -113.9376,-137.87679 -187.5603,-187.5329 0,0 0,-1e-5 0,-1e-5 -73.6197,-49.66048 -156.6152,-85.32708 -243.2845,-103.35594 -10e-6,0 -2e-5,0 -3e-5,0 -66.73296,-13.88032 -135.45843,-17.69418 -203.1422,-11.32563 4.08757,1.55454 8.14507,3.14614 12.17196,4.7739 63.28466,-5.36358 127.48765,-1.7831 190.06851,10.70543 10e-6,0 10e-6,0 2e-5,10e-6 86.25694,17.20956 169.18224,52.03048 242.98254,100.95374 0,10e-6 10e-5,2e-5 10e-5,2e-5 73.8016,48.92139 138.6367,112.04634 188.7639,185.78138 z"
       style="fill:#0b280b;stroke:none;display:inline" />
    <path
       id="path3823"
       d="m 1119.1435,459.72508 c -49.5348,-74.12352 -113.9376,-137.8768 -187.5603,-187.53292 0,-10e-6 -1e-5,-10e-6 -1e-5,-10e-6 -73.61966,-49.66049 -156.61523,-85.32709 -243.28452,-103.35596 -10e-6,0 -2e-5,0 -3e-5,0 -66.73297,-13.88033 -135.45843,-17.69419 -203.14221,-11.32565 4.08761,1.55454 8.14515,3.14613 12.17208,4.7739 63.28463,-5.36356 127.48758,-1.78308 190.0684,10.70545 86.25693,17.20957 169.18226,52.0305 242.98262,100.95377 10e-6,10e-6 2e-5,10e-6 3e-5,2e-5 73.80164,48.92139 138.63674,112.04634 188.76394,185.7814 z"
       style="fill:#0b280b;stroke:none;display:inline" />
    <path
       id="path3825"
       d="m 1591.49,254.90426 c -49.5348,-74.12352 -113.9376,-137.8768 -187.5603,-187.53292 0,0 0,-1e-5 0,-1e-5 -73.6197,-49.66049 -156.6152,-85.32709 -243.2845,-103.35596 0,0 -10e-5,0 -10e-5,-10e-6 -66.7329,-13.88032 -135.4584,-17.69419 -203.1422,-11.32566 4.0876,1.55454 8.1452,3.14614 12.1721,4.7739 63.2846,-5.36355 127.4876,-1.78306 190.0684,10.70547 86.2569,17.20957 169.1823,52.03051 242.9826,100.95377 0,1e-5 0,2e-5 0,2e-5 73.8017,48.9214 138.6368,112.04635 188.764,185.7814 z"
       style="fill:#0b280b;stroke:none;display:inline" />
    <path
       id="path3827"
       d="m 1625.129,545.26186 c -49.5348,-74.12352 -113.9376,-137.8768 -187.5603,-187.53293 0,0 0,0 0,-10e-6 -73.6197,-49.66049 -156.6152,-85.32709 -243.2845,-103.35597 0,0 -10e-5,0 -10e-5,0 -66.7329,-13.88033 -135.4584,-17.69421 -203.1422,-11.32567 4.0876,1.55454 8.1452,3.14613 12.1721,4.7739 63.2846,-5.36356 127.4876,-1.78306 190.0684,10.70547 0,10e-6 0,10e-6 0,10e-6 86.257,17.20958 169.1823,52.03051 242.9826,100.95378 0,0 0,1e-5 0,2e-5 73.8017,48.92139 138.6368,112.04634 188.764,185.7814 z"
       style="fill:#0b280b;stroke:none;display:inline" />
    <g
       style="display:inline;fill:#0b280b"
       id="g2881"
       transform="matrix(0.58958287,0.80770789,-0.80770789,0.58958287,639.99601,-481.80378)">
      <path
         id="path3811"
         d="m -933.77032,2264.8564 c -18.72699,-152.1029 -6.44735,-307.641 33.74956,-455.2904 0,0 0,0 10e-6,0 40.19938,-147.6487 108.40335,-287.7246 201.35712,-408.9503 10e-6,-10e-5 2e-5,-10e-5 4e-5,-10e-5 71.5841,-93.3621 157.17962,-175.8884 252.9668,-243.9529 l -5.82448,-8.1286 c -96.06289,69.4028 -181.60376,153.2114 -252.88932,247.7109 0,0 -1e-5,0 -1e-5,0 -92.58262,122.739 -159.94441,263.9847 -199.09712,412.3863 -1e-5,10e-5 -1e-5,10e-5 -2e-5,10e-5 -39.15519,148.401 -50.18332,304.2738 -30.26258,456.225 z"
         style="fill:#0b280b;stroke:none"
         transform="matrix(1,0,0,-1,1220.8179,2075.2958)" />
      <path
         id="path3815"
         d="m 905.14643,-248.4795 c -19.92072,151.951208 -8.89258,307.824018 30.26262,456.225 10e-6,1e-5 10e-6,2e-5 10e-6,4e-5 39.15272,148.40161 106.51454,289.64735 199.09714,412.38632 0,1e-5 0,3e-5 0,5e-5 71.2855,94.49947 156.8264,178.30813 252.8893,247.71093 l 5.8244,-8.12868 c -95.7871,-68.06449 -181.3826,-150.5908 -252.9667,-243.95287 0,-10e-6 0,-10e-6 0,-2e-5 C 1047.2994,494.5355 979.09544,354.4596 938.89605,206.81093 c -10e-6,-2e-5 -10e-6,-4e-5 -2e-5,-6e-5 C 898.69912,59.161501 886.41946,-96.376557 905.14643,-248.4795 z"
         style="fill:#0b280b;stroke:none" />
      <path
         id="path3817"
         d="m 774.64303,-219.0035 c -19.92072,151.951208 -8.89258,307.824018 30.26262,456.225 10e-6,1e-5 10e-6,2e-5 10e-6,4e-5 39.15272,148.40161 106.5145,289.64735 199.09714,412.38632 0,1e-5 0,3e-5 0,5e-5 71.2855,94.49947 156.8264,178.30813 252.8893,247.71093 l 5.8244,-8.12868 c -95.7871,-68.06449 -181.3826,-150.5908 -252.9667,-243.95287 0,-10e-6 0,-10e-6 0,-2e-5 C 916.79601,524.0115 848.59204,383.9356 808.39265,236.28693 c -10e-6,-2e-5 -10e-6,-4e-5 -2e-5,-6e-5 C 768.19572,88.637501 755.91606,-66.900557 774.64303,-219.0035 z"
         style="fill:#0b280b;stroke:none" />
    </g>
    <path
       id="path3821"
       d="m 1268.9754,194.20157 c -157.5015,-29.75453 -318.0663,-26.89606 -470.36671,4.53464 -152.3031,31.41018 -296.65442,91.48262 -421.78653,176.01121 -96.4362,65.11451 -181.9437,144.11159 -253.1165,232.80556 78.1889,-82.10894 168.7286,-152.40987 267.4152,-207.72872 8.913,-5.00071 17.8973,-9.87414 26.9489,-14.61982 112.99095,-78.07273 243.51967,-136.29958 382.6515,-170.29776 149.55384,-36.54234 309.36354,-45.20416 468.25414,-20.70511 z"
       style="fill:#0b280b;stroke:none;display:inline" />
    <path
       style="fill:#0b280b;stroke:none;display:inline"
       d="m 606.64172,-148.40172 c 108.14472,43.75843 209.93869,103.90291 300.77407,177.87438 10e-6,10e-6 2e-5,10e-6 3e-5,2e-5 117.93338,96.02431 216.48398,216.24437 289.67898,350.54546 0,2e-5 0,4e-5 0,6e-5 73.1918,134.30276 121.1889,282.97253 138.167,435.80823 2.307,-9.843 4.4848,-19.7551 6.532,-29.7324 -20.8459,-143.9233 -68.7956,-283.08039 -138.8363,-409.16826 0,-10e-6 0,-2e-5 0,-3e-5 C 1128.2718,242.4638 1028.2998,122.58281 909.26708,27.26185 c -10e-6,-2e-5 -3e-5,-3e-5 -5e-5,-4e-5 -91.67446,-73.42016 -194.10785,-132.79107 -302.62531,-175.66353 z"
       id="path3813" />
  </g>
  <g
     inkscape:groupmode="layer"
     id="layer6"
     inkscape:label="logoscreen"
     style="opacity:1;display:inline">
    <path
       mask="none"
       id="path92318"
       d="M 978.6242,-1187.4438 L 977.4055,-1187.4438 L 975.968,-1187.4438 L 974.6242,-1187.4438 L 972.968,-1187.4438 L 971.2805,-1187.4438 L 969.1555,-1187.4438 L 966.843,-1187.4438 L 963.6242,-1187.4438 L 959.7492,-1187.4438 L 953.6242,-1187.4438 L 944.8117,-1187.4438 L 926.0617,-1187.4438 L 879.343,-1187.4438 L -845.96955,-1394.4438 L -884.71955,-1187.9438 L -144.34455,-1182.975 L -144.34455,-663.28751 L 1669.0305,-663.28751 L 1669.0305,-1186.975 L 2817.5305,-1206.1625 L 2827.9055,-1416.0375 L 1071.5618,-1187.4438 L 1030.3118,-1187.4438 L 1012.8742,-1187.4438 L 1004.468,-1187.4438 L 998.5618,-1187.4438 L 994.8118,-1187.4438 L 991.6555,-1187.4438 L 989.3742,-1187.4438 L 987.2805,-1187.4438 L 985.6242,-1187.4438 L 983.9992,-1187.4438 L 982.6555,-1187.4438 L 981.218,-1187.4438 L 979.9992,-1187.4438 L 978.6242,-1187.4438 z"
       style="opacity:1;fill:url(#linearGradient92328);fill-opacity:1;stroke:none;display:inline"
       sodipodi:nodetypes="ccccccccccccccccccccccccccccccccccccc" />
    <path
       style="opacity:1;fill:url(#linearGradient92373);fill-opacity:1;stroke:none;display:inline"
       mask="none"
       d="M 1707.25 829.65625 L 991.90625 835.65625 L 984.1875 835.75 L 982.8125 835.75 L 982.125 835.75 L -106.125 832.59375 L -106.125 1358.9688 L 1707.25 1358.9688 L 1707.25 829.65625 z M 917.5625 831.53125 L 905.375 831.59375 L 931.3125 834.625 L 917.75 831.53125 L 917.5625 831.53125 z M 943.1875 831.53125 L 952.90625 834.90625 L 959.875 834.90625 L 952.6875 831.53125 L 943.1875 831.53125 z M 962.40625 831.53125 L 967.96875 834.9375 L 969.875 834.9375 L 965.40625 831.53125 L 964.28125 831.53125 L 962.40625 831.53125 z M 971.53125 831.53125 L 975.09375 834.9375 L 975.40625 834.9375 L 972.53125 831.53125 L 971.53125 831.53125 z M 977.25 831.53125 L 977.9375 832.53125 L 977.40625 831.53125 L 977.25 831.53125 z M 983.09375 831.53125 L 983.65625 834.96875 L 984.25 834.96875 L 983.28125 831.53125 L 983.09375 831.53125 z M 986.4375 831.53125 L 986.25 834.96875 L 986.90625 834.96875 L 986.6875 831.53125 L 986.4375 831.53125 z M 989.84375 831.53125 L 988.90625 834.96875 L 989.5 834.96875 L 990.03125 831.53125 L 989.84375 831.53125 z M 995.6875 831.53125 L 995.1875 832.5 L 995.8125 831.53125 L 995.6875 831.53125 z M 1000.5312 831.53125 L 997.65625 834.96875 L 997.9375 834.96875 L 1001.4688 831.53125 L 1000.5312 831.53125 z M 1007.5312 831.53125 L 1003.0938 834.96875 L 1004.875 834.96875 L 1010.375 831.53125 L 1009.5 831.53125 L 1007.5312 831.53125 z M 1019.9375 831.53125 L 1012.75 834.96875 L 1019.3125 834.96875 L 1028.9688 831.53125 L 1027.5938 831.53125 L 1025.5 831.53125 L 1023.8438 831.53125 L 1022.2188 831.53125 L 1020.875 831.53125 L 1019.9375 831.53125 z M 1053.1875 831.53125 L 1039.75 834.6875 L 1065.0938 831.53125 L 1053.1875 831.53125 z M 993.3125 832.21875 L 991.90625 834.96875 L 992.28125 834.96875 L 993.3125 832.21875 z M 979.84375 832.3125 L 980.875 834.96875 L 981.25 834.96875 L 979.84375 832.3125 z "
       id="path92330" />
    <path
       transform="matrix(0.9999976,2.2104539e-3,-2.2104539e-3,0.9999976,-0.193405,-2.1790329)"
       sodipodi:nodetypes="ccccccccccccccccccccccccccccccccccccccccccccccccccccccccccc"
       mask="url(#mask92320)"
       id="path92370"
       d="M 873.34375,-1013.625 L 986.90625,834.96875 L 985.6875,834.96875 L 688.6875,-967 L 479.59375,-946.5625 L 984.25,834.96875 L 982.90625,834.96875 L 309.125,-861.65625 L 109.15625,-797.15625 L 981.25,834.96875 L 979.5625,834.96875 L -39.28125,-677.90625 L -220.90625,-572.28125 L 977.4375,834.96875 L 975.125,834.96875 L -340.5625,-424.125 L -495.53125,-282.25 L 971.90625,834.96875 L 968.03125,834.96875 L -580.84375,-112 L -702.03125,59.625 L 961.90625,834.96875 L 953.09375,834.96875 L -749.15625,244.15625 L -830.96875,437.65625 L 934.34375,834.96875 L -837.6875,627.96875 L -876.4375,834.46875 L 984.17583,835.75136 L 2825.8125,816.25 L 2836.1875,606.375 L 1038.5938,834.96875 L 2777.0938,425.34375 L 2742.5,218.09375 L 1021.1562,834.96875 L 1012.75,834.96875 L 2646.1875,53.8125 L 2568.2188,-141.28125 L 1006.8438,834.96875 L 1003.0938,834.96875 L 2439.1562,-281.28125 L 2321.4062,-455.3125 L 999.9375,834.96875 L 997.65625,834.96875 L 2165.4688,-564.59375 L 2013.375,-709.5625 L 995.5625,834.96875 L 993.90625,834.96875 L 1837.7188,-783.125 L 1658.25,-892.34375 L 992.28125,834.96875 L 990.9375,834.96875 L 1470.9688,-926.78125 L 1272.3125,-995.28125 L 989.5,834.96875 L 988.28125,834.96875 L 1082,-989.03125 L 873.34375,-1013.625 L 873.34375,-1013.625 z"
       style="display:inline;opacity:1;fill:url(#linearGradient92368);fill-opacity:1;stroke:none" />
  </g>
  <g
     inkscape:groupmode="layer"
     id="layer3"
     inkscape:label="sun"
     style="display:inline" />
  <g
     inkscape:groupmode="layer"
     id="layer2"
     inkscape:label="logo"
     style="display:inline"
     sodipodi:insensitive="true">
    <g
       style="opacity:0.53218857;display:inline"
       id="g3774"
       transform="translate(723.76409,1018.5348)"
       mask="url(#mask4614)">
      <g
         transform="translate(-721.18335,-1007.7333)"
         style="display:inline"
         id="g3776"
         inkscape:label="Layer 1" />
      <g
         transform="translate(-721.18335,-1007.7333)"
         style="opacity:1;display:inline"
         inkscape:label="lines"
         id="g3778" />
      <g
         transform="translate(-721.18335,-1007.7333)"
         style="display:inline"
         inkscape:label="screen"
         id="layer5" />
      <g
         transform="translate(-721.18335,-1007.7333)"
         style="display:inline"
         inkscape:label="sun"
         id="g3781" />
      <g
         transform="translate(-721.18335,-1007.7333)"
         style="display:inline"
         inkscape:label="logo"
         id="g3783">
        <g
           mask="none"
           id="g5011"
           transform="matrix(0.9773059,0,0,-0.30716,92.769879,1304.4747)">
          <path
             id="path5013"
             d="M 927.3487,674.21947 C 925.28481,673.50203 922.74415,672.46346 919.78922,671.0795 C 916.83429,669.69555 913.46367,667.96486 909.75106,665.90831 C 906.03844,663.85176 901.98199,661.46821 897.69124,658.84228 C 893.4005,656.21635 888.87361,653.34725 884.28404,650.39766 C 879.69451,647.44807 875.561,644.759 871.9469,642.42469 C 868.3328,640.09038 865.23852,638.10985 862.66789,636.49227 C 860.09727,634.8747 858.04946,633.61843 856.47254,632.66759 C 854.89562,631.71674 853.78803,631.06916 853.0604,630.63253 C 851.40479,629.63903 850.00828,629.13665 848.8492,629.09992 C 848.56577,629.09092 848.42126,629.13662 848.20593,629.19392 C 828.2264,626.08592 807.34045,623.19937 785.34271,620.95314 C 776.61539,620.06199 768.0527,619.34494 759.55457,618.85569 C 751.05645,618.36645 742.62183,618.10374 734.15914,618.16522 C 724.54659,618.17122 714.49563,618.74088 704.65703,620.19932 C 694.81842,621.65776 685.2004,624.01741 676.60947,627.4893 C 668.01854,630.96118 660.46678,635.55017 654.76143,641.22216 C 649.05608,646.89415 645.2095,653.64485 643.84229,661.18967 C 642.33752,669.0232 642.94164,677.08757 645.02603,685.40752 C 647.11042,693.72747 650.67457,702.31302 655.19798,711.43953 C 660.62664,722.39247 667.58578,733.6786 675.91499,744.67444 C 684.2442,755.67028 693.93116,766.36294 704.67074,776.2909 C 702.46051,786.06835 703.27436,796.38544 705.42135,805.72149 C 707.56835,815.05755 711.01253,823.41787 714.1183,829.46491 C 722.79522,846.35918 731.20371,863.34851 738.88016,880.0882 C 741.7081,886.25497 746.09841,894.21445 751.55422,902.13831 C 757.01002,910.06217 763.49111,917.93756 770.75489,924.40808 C 774.38684,927.64337 777.82664,930.18373 781.07315,932.19049 C 784.31965,934.19725 787.37314,935.66924 790.20612,936.72982 C 795.87208,938.85098 800.67556,939.32504 804.10641,938.96782 C 818.95211,937.42211 833.64422,937.43723 848.2153,938.37168 C 862.78638,939.30612 877.23643,941.15987 891.59521,943.40208 C 899.426,944.6249 907.7969,942.40662 915.47227,935.62806 C 921.44387,943.5358 927.5618,949.61795 932.61568,950.54279 C 941.51447,952.17124 950.38753,953.79555 959.24094,955.33342 C 962.97039,955.98125 967.1068,953.97459 971.1551,950.16934 C 975.2034,946.36409 979.16046,940.76053 982.51407,934.32244 C 988.86574,943.03361 995.42603,950.16808 1002.1063,955.26516 C 1008.7866,960.36224 1015.5876,963.41838 1022.3738,964.02749 C 1034.7391,965.13734 1047.0908,965.82104 1059.4414,966.01971 C 1071.792,966.21838 1084.1415,965.93201 1096.5009,965.16837 C 1102.6615,964.78772 1110.1599,956.29858 1116.8263,945.07599 C 1122.5168,949.84789 1128.3312,953.58822 1134.3846,955.60635 C 1134.4276,955.63715 1134.4706,955.66795 1134.5131,955.69865 C 1134.5571,955.69265 1134.6011,955.68715 1134.6447,955.68145 C 1143.2095,958.35766 1151.9303,958.86918 1160.7711,957.33331 C 1169.4917,955.8183 1178.241,952.31944 1187.0218,946.92518 C 1192.0246,943.86258 1197.0522,940.05348 1202.0619,935.5762 C 1202.2878,935.91434 1202.4501,936.5928 1202.6794,936.89878 C 1206.4495,941.93363 1209.8787,944.142 1212.8533,945.00332 C 1215.8278,945.86463 1218.3527,945.38017 1220.3392,944.96402 C 1231.4586,942.63463 1242.6049,940.32818 1253.7809,938.24947 C 1257.7979,937.50231 1263.1451,934.12139 1268.8987,928.70461 C 1274.6523,923.28783 1280.8292,915.85749 1286.5832,906.78627 C 1289.2722,914.86113 1293.4639,920.98743 1298.0255,925.01931 C 1302.5871,929.05118 1307.5162,931.01516 1311.8392,930.80788 C 1323.0318,930.27124 1334.2555,930.40204 1345.5101,931.51045 C 1347.6498,931.72118 1350.3922,931.93851 1354.0141,931.14129 C 1357.636,930.34407 1362.1115,928.53476 1368.0394,924.84113 C 1371.0034,922.99424 1374.1988,920.3989 1377.5226,917.32324 C 1380.8463,914.24758 1384.3007,910.68991 1387.7129,906.88783 C 1391.1251,903.08576 1394.4946,899.03772 1397.5646,894.97522 C 1400.6347,890.91273 1403.4025,886.83444 1405.5507,882.9874 C 1409.8097,875.36034 1412.9762,869.04113 1415.1969,863.74879 C 1417.4176,858.45645 1418.7047,854.19111 1419.4064,850.65571 C 1420.8099,843.58492 1419.8784,839.4521 1420.0266,835.65739 C 1420.0266,835.58869 1419.9946,835.51678 1419.9976,835.45035 C 1421.1343,818.22508 1421.9882,801.03222 1422.2679,784.341 C 1422.5476,767.64977 1422.2529,751.46019 1421.1584,736.21769 C 1434.5701,724.81706 1448.3375,714.17667 1462.1935,704.3294 C 1476.0496,694.48213 1489.9941,685.42798 1503.7114,677.18103 C 1503.9495,677.05888 1504.1876,676.93695 1504.4257,676.81521 C 1504.6467,676.66681 1504.8676,676.51866 1505.0884,676.37074 C 1506.879,675.24728 1509.308,674.03719 1511.9617,672.45343 C 1514.6155,670.86967 1517.4983,668.90893 1520.1149,666.32389 C 1522.7316,663.73885 1525.0882,660.51988 1526.5302,656.55407 C 1527.9722,652.58826 1528.5065,647.85682 1527.219,642.5913 C 1526.5751,639.95853 1525.0645,637.35265 1522.9065,634.93661 C 1520.7484,632.52057 1517.9442,630.29555 1514.7639,628.36014 C 1511.5835,626.42472 1508.029,624.77837 1504.3984,623.45015 C 1500.7677,622.12193 1497.0631,621.10952 1493.5803,620.39392 C 1486.615,618.96274 1480.7492,618.33697 1475.833,617.9893 C 1470.9168,617.64163 1466.9371,617.58974 1463.6388,617.56715 C 1441.7746,617.41787 1420.9158,618.28302 1400.9341,619.78962 C 1394.9173,620.24334 1388.262,621.04882 1381.7006,622.07538 C 1375.1392,623.10195 1368.6615,624.35589 1362.8689,625.82784 C 1356.7735,625.50523 1349.9909,625.75304 1343.3676,626.31986 C 1336.7442,626.88667 1330.2898,627.7485 1324.731,628.57642 C 1306.7406,631.25589 1289.463,634.16127 1272.7637,637.03743 C 1270.2389,637.47227 1267.2214,637.99418 1263.6687,638.58207 C 1262.6083,638.76837 1261.5603,638.95853 1260.5136,639.13958 C 1248.5408,641.21052 1236.8571,643.23858 1225.4099,645.14828 C 1224.7297,645.26175 1224.0504,645.3748 1223.3719,645.48743 C 1222.6996,645.5927 1222.0281,645.69744 1221.3574,645.80166 C 1215.7625,646.66755 1209.9987,647.29779 1204.6327,647.90875 C 1199.2667,648.51971 1194.287,649.15724 1190.3482,650.03316 C 1188.2159,650.10246 1185.7471,650.32703 1183.0385,650.68603 C 1180.33,651.04503 1177.3824,651.53749 1174.2957,652.08691 C 1168.1223,653.18575 1161.4129,654.48625 1154.8353,655.19493 C 1154.6721,655.21253 1154.509,655.23003 1154.3458,655.24753 C 1154.0572,656.39568 1153.6676,658.24101 1153.1678,660.82371 C 1152.8639,662.39289 1152.3409,664.63856 1150.6846,668.06359 C 1149.0283,671.48863 1146.2218,676.10843 1141.6016,682.40673 C 1139.2916,685.55587 1136.5162,688.75429 1133.5507,691.77376 C 1130.5852,694.79323 1127.4299,697.63114 1124.3108,700.06579 C 1121.1916,702.50044 1118.1077,704.52947 1115.2419,705.97562 C 1112.376,707.42176 1109.7262,708.28342 1107.4561,708.45772 C 1098.4057,709.15097 1089.4157,709.41539 1080.4151,709.24527 C 1078.3216,709.20537 1075.8694,708.62669 1073.2046,707.52431 C 1070.5398,706.42192 1067.6606,704.79563 1064.7175,702.72846 C 1061.7744,700.66128 1058.766,698.15394 1055.8706,695.35338 C 1052.9752,692.55282 1050.1921,689.46046 1047.7425,686.27096 C 1042.8435,679.89199 1039.68,674.83272 1037.7159,671.0328 C 1035.7517,667.23287 1034.9733,664.66309 1034.5645,662.92438 C 1033.9315,660.23266 1033.3817,658.30371 1032.9059,657.09585 C 1027.5316,656.65901 1022.1337,656.15811 1016.705,655.59703 C 1016.687,655.59503 1016.67,655.59303 1016.652,655.59203 C 1016.634,655.59003 1016.616,655.58803 1016.598,655.58603 C 1011.3224,655.03857 1005.9767,654.3363 1000.5878,653.54898 C 995.19882,652.76165 989.76642,651.89119 984.33827,651.04627 C 984.95434,651.35843 985.52457,651.86431 985.92307,652.4857 C 986.63924,653.60243 987.47024,655.286 988.42768,657.56574 C 988.82942,658.52242 989.15534,659.72496 989.32811,661.18471 C 989.50088,662.64446 989.52099,664.36377 989.30921,666.29095 C 989.09746,668.21813 988.65456,670.35435 987.89048,672.5583 C 987.1264,674.76226 986.04229,677.03357 984.5232,679.13517 C 983.00405,681.23675 981.21389,682.91851 979.24417,684.14442 C 977.27446,685.37034 975.12444,686.14296 972.90388,686.52624 C 968.46278,687.2928 963.71089,686.48194 959.84893,685.22468 C 949.36405,681.81017 938.55672,678.11435 927.35158,674.22036 C 927.35154,674.22029 927.3515,674.22023 927.35146,674.22016 C 927.35046,674.21991 927.34946,674.21966 927.34846,674.21941 L 927.3487,674.21947 z"
             style="font-size:184.58837891px;font-style:normal;font-variant:normal;font-weight:bold;font-stretch:normal;fill:#ffffff;fill-opacity:1;stroke:none;font-family:sidux;-inkscape-font-specification:sidux Bold" />
          <path
             id="path5015"
             d="M 761.30952,814.41953 C 768.27462,831.80504 774.99969,849.51039 781.07526,867.19108 C 782.23258,870.55901 783.80707,872.01737 785.82629,871.60594 C 802.73797,868.16008 819.25368,866.43195 835.44368,865.77939 C 851.63369,865.12682 867.498,865.5498 883.10406,866.5169 C 889.62596,866.92106 894.44123,864.13196 897.66638,858.0466 C 900.83978,851.58499 902.9658,843.94546 903.99703,835.23972 C 905.99191,820.01831 905.81101,804.07466 903.23631,787.94091 C 900.27773,769.40482 896.88648,755.14753 893.04356,744.33466 C 889.20034,733.52214 884.78011,725.52021 879.68601,719.77125 C 874.53739,713.74272 868.40688,709.55649 861.21336,706.99718 C 854.25001,704.44408 846.03161,703.11562 836.51271,703.1203 C 820.4493,703.1283 803.9316,703.62305 786.87563,704.89016 C 781.1903,705.31261 776.42627,704.35187 772.62242,701.96137 C 768.81857,699.57087 765.97267,695.74552 764.27861,690.68822 C 762.66928,685.88388 763.0531,682.30815 765.35403,679.82471 C 767.65495,677.34126 771.86915,675.95032 777.83147,675.64587 C 811.48542,673.92777 842.96602,674.81987 872.90511,676.5534 C 875.26225,676.69 876.25089,675.69543 875.91551,673.66233 C 874.17105,663.09131 872.98152,654.34875 872.5938,647.77038 C 872.5117,646.37889 871.27994,645.63256 868.82729,645.39112 C 841.72217,642.72391 813.21749,640.50987 782.81741,639.88955 C 768.23656,639.59213 755.48976,640.22882 745.01586,641.72533 C 734.36554,643.06288 725.64354,645.65873 719.35055,649.66464 C 713.05755,653.67054 709.20732,659.08707 708.23561,666.14594 C 707.67802,669.91613 707.87395,674.31832 708.89609,679.44373 C 709.91824,684.56913 711.76821,690.41821 714.48221,697.08748 C 718.42027,706.76468 723.32943,715.69088 728.76594,723.45429 C 734.20244,731.2177 740.17057,737.82727 746.45005,743.12294 C 753.5463,749.07459 760.91192,753.31353 768.48832,755.80021 C 776.06472,758.2869 783.85775,759.0253 791.96108,758.08895 C 809.92954,756.01289 827.33368,755.03916 844.2709,754.73939 C 848.92033,754.65719 852.75944,756.21553 855.78358,759.4165 C 858.80772,762.61748 861.01888,767.46524 862.47569,774.09557 C 864.2237,782.05181 864.42667,788.1914 863.13502,792.29327 C 861.84336,796.39515 859.06095,798.46109 854.70771,798.49815 C 840.09318,798.62256 825.16387,799.30393 809.85831,800.87506 C 794.55275,802.4462 778.87093,804.9071 762.74994,808.64621 C 760.46336,809.17655 759.98292,811.1082 761.30952,814.41953 L 761.30952,814.41953 z M 923.46336,859.75551 C 924.19595,866.63847 925.43995,870.2255 927.25151,870.41924 C 936.76167,871.43634 946.19461,872.51036 955.56571,873.5587 C 957.35067,873.75839 958.01389,870.29541 957.51228,863.28819 C 954.029,814.62922 949.0952,769.87196 944.96469,733.6878 C 940.83418,697.50364 937.50696,669.89259 937.38116,655.52475 C 937.37316,654.60525 937.09697,653.93567 936.53641,653.45261 C 935.97585,652.96956 935.13082,652.67283 933.99463,652.54347 C 922.06458,651.18553 909.91034,649.77802 897.47972,648.4038 C 895.11186,648.14212 893.91618,648.85432 894.01054,650.8531 C 894.74779,666.46936 899.6035,694.79657 905.5106,731.16908 C 911.4177,767.54159 918.37621,811.95938 923.46336,859.75551 L 923.46336,859.75551 z M 1073.0005,661.71067 C 1073.5546,655.11473 1074.1905,655.73176 1075.0083,665.196 C 1075.1382,666.70154 1076.2921,667.6468 1078.4619,667.67269 C 1088.7181,667.79445 1098.9637,667.59309 1109.2607,667.07451 C 1111.2407,666.97461 1112.2762,666.00113 1112.3438,664.50823 C 1113.1891,645.79215 1111.8699,662.18746 1109.583,700.71791 C 1107.2961,739.24836 1104.0416,799.91394 1101.577,869.73336 C 1101.3241,876.89467 1100.3359,880.58852 1098.5996,880.66521 C 1085.7926,881.23085 1073.0074,881.43914 1060.2073,881.28248 C 1047.4072,881.12583 1034.5923,880.60423 1021.7243,879.77671 C 1011.2553,879.10347 1002.171,873.41744 994.1834,863.22947 C 990.18962,858.13549 986.46971,851.9211 982.9932,844.69145 C 979.51668,837.46181 976.28251,829.21524 973.27734,820.10492 C 968.93491,807.13865 965.14197,793.39101 962.01306,779.28467 C 958.88415,765.17832 956.41862,750.70539 954.86105,736.5409 C 953.06341,720.04145 952.36913,707.50994 952.82692,697.93261 C 953.28471,688.35528 954.88158,681.71394 957.47271,677.04313 C 960.02883,672.64115 963.22665,669.37021 966.98878,666.92375 C 970.75091,664.47729 975.07573,662.85352 979.88992,661.78741 C 984.70412,660.7213 990.00684,660.21126 995.7475,660.05902 C 1001.4881,659.90678 1007.6668,660.11102 1014.2613,660.56206 C 1032.9799,661.86115 1051.4059,662.66274 1069.7765,662.86803 C 1071.8637,662.89623 1072.9372,662.46026 1073.0005,661.71067 L 1073.0005,661.71067 z M 1071.7536,692.08317 C 1071.8116,689.90351 1070.8151,688.87767 1068.7627,688.85851 C 1057.3723,688.75276 1045.9629,688.46114 1034.4853,688.00118 C 1023.4211,687.55785 1014.4211,688.71589 1007.677,692.02726 C 1000.9329,695.33864 996.45739,700.81756 994.37134,709.4758 C 992.49919,716.43873 991.97712,725.98245 992.77586,739.06997 C 993.27286,747.21352 994.37402,755.14637 996.01504,762.62845 C 997.65605,770.11052 999.83696,777.14361 1002.5213,783.55855 C 1005.7474,791.35828 1010.179,797.55 1015.8055,801.83026 C 1021.432,806.11052 1028.2545,808.48266 1036.3515,808.77393 C 1046.5648,809.14133 1056.7418,809.355 1066.909,809.39758 C 1068.7409,809.40558 1069.6825,807.59425 1069.7346,804.03835 C 1070.4175,757.27805 1071.061,718.14122 1071.7536,692.08317 L 1071.7536,692.08317 z M 1222.9072,656.72353 C 1220.3405,677.1219 1211.5827,722.78219 1203.0348,781.13122 C 1202.1479,787.18481 1198.3757,792.78771 1191.8921,797.86441 C 1186.0242,802.54002 1179.3914,805.28081 1171.91,805.93955 C 1164.2415,806.61476 1158.048,804.98927 1153.2037,801.15624 C 1148.0495,796.64619 1145.6768,791.43381 1146.1751,785.65992 C 1151.261,726.73079 1156.4244,681.62957 1158.0976,662.91068 C 1158.0971,661.73215 1157.8434,660.96715 1157.3523,660.49681 C 1156.8613,660.02646 1156.1329,659.85037 1155.1739,659.92499 C 1144.3055,660.77101 1133.5394,661.45852 1122.8305,661.96 C 1121.6756,662.0141 1120.8191,662.27869 1120.2575,662.79689 C 1119.6958,663.31509 1119.4291,664.08733 1119.4488,665.23621 C 1118.6941,675.45867 1117.3741,694.1304 1115.7914,719.02566 C 1114.2087,743.92091 1112.3633,775.0397 1110.6112,810.15579 C 1110.0361,821.68109 1111.3774,831.92603 1114.5258,840.49777 C 1117.5047,848.88842 1121.4813,855.93327 1126.4556,861.42434 C 1131.4299,866.91541 1137.4015,870.85249 1144.4081,873.11303 C 1151.2518,875.19256 1158.2515,875.78763 1165.4707,874.92824 C 1172.5137,874.08982 1179.5987,871.82241 1186.8069,868.22034 C 1194.5679,864.35604 1201.5438,859.18773 1207.7923,852.83891 C 1214.0409,846.4901 1219.5646,838.95735 1224.381,830.34917 C 1229.4124,821.53867 1233.0029,811.45666 1234.994,800.28641 C 1241.0602,766.25214 1247.5606,735.41046 1253.0165,709.99502 C 1258.4725,684.57958 1262.8841,664.59039 1264.8264,652.26062 C 1264.9284,650.88166 1264.7108,649.96771 1264.2087,649.41142 C 1263.7066,648.85514 1262.9205,648.65615 1261.8662,648.77345 C 1249.9171,650.10348 1238.2095,651.46017 1226.6995,652.76824 C 1225.4529,652.95912 1224.5226,653.35369 1223.897,653.98908 C 1223.2714,654.62447 1222.9504,655.50109 1222.9072,656.72353 L 1222.9072,656.72353 z M 1368.2477,860.73992 C 1368.1627,839.54703 1368.1184,818.05893 1367.49,797.23197 C 1366.8617,776.405 1365.6488,756.23917 1363.3996,737.62677 C 1362.3555,730.75227 1364.9106,724.12284 1371.4057,717.79225 C 1386.3158,702.78123 1401.6048,689.20589 1416.7443,677.16922 C 1431.8839,665.13256 1446.874,654.63458 1461.0592,645.72882 C 1463.4553,644.14847 1463.2661,643.24526 1460.5548,642.97418 C 1439.6128,640.88138 1419.511,639.9323 1400.1426,639.75413 C 1396.5196,639.72093 1393.7219,640.44395 1391.6733,641.96994 C 1381.921,649.29556 1371.5935,657.95626 1361.0534,667.87903 C 1357.8974,670.877 1355.1949,672.44422 1352.9876,672.42389 C 1350.7803,672.40359 1349.0669,670.79406 1347.7136,667.81881 C 1343.4336,657.96916 1338.266,649.87018 1332.1771,643.90469 C 1330.9193,642.66128 1328.7286,642.21531 1325.6915,642.44368 C 1307.9742,643.77641 1290.853,645.46635 1274.2158,647.25865 C 1272.0766,647.48918 1271.6591,648.05024 1272.9059,649.0796 C 1280.5032,654.86717 1287.1242,663.67978 1292.75,674.9295 C 1298.3758,686.17923 1303.0065,699.86606 1306.7651,715.3502 C 1308.507,721.89696 1306.6287,728.49922 1301.4724,735.03146 C 1287.8447,752.99088 1274.7553,772.67343 1262.5487,793.81024 C 1250.342,814.94705 1239.0181,837.53811 1228.7554,861.24953 C 1227.1858,864.78208 1227.0508,866.48854 1228.3161,866.33364 C 1240.1565,864.88412 1252.1008,863.55133 1264.1698,862.53965 C 1266.3808,862.35431 1268.2185,860.75954 1269.7105,857.76623 C 1281.5044,834.55231 1294.6777,812.48726 1308.9643,791.86625 C 1311.8312,787.70844 1314.1359,785.69406 1315.8186,785.74827 C 1317.5013,785.80247 1318.5618,787.92639 1318.962,792.16468 C 1321.1177,813.19308 1322.7301,835.15004 1324.422,857.02303 C 1324.5967,859.84295 1325.7369,861.3065 1327.8457,861.44909 C 1340.3064,862.29164 1352.9225,863.89361 1365.7112,866.56493 C 1367.4819,866.93479 1368.3279,865.00991 1368.2477,860.73992 L 1368.2477,860.73992 z"
             style="font-size:184.58837891px;font-style:normal;font-variant:normal;font-weight:bold;font-stretch:normal;fill:#55d400;fill-opacity:1;stroke:#ffffff;stroke-width:2.0233314;stroke-miterlimit:4;stroke-opacity:1;font-family:sidux;-inkscape-font-specification:sidux Bold" />
          <path
             id="path5017"
             d="M 761.30952,814.41953 C 768.27462,831.80504 774.99969,849.51039 781.07526,867.19108 C 782.23258,870.55901 783.80707,872.01737 785.82629,871.60594 C 802.73797,868.16008 819.25368,866.43195 835.44368,865.77939 C 851.63369,865.12682 867.498,865.5498 883.10406,866.5169 C 889.62596,866.92106 894.44123,864.13196 897.66638,858.0466 C 900.83978,851.58499 902.9658,843.94546 903.99703,835.23972 C 905.99191,820.01831 905.81101,804.07466 903.23631,787.94091 C 900.27773,769.40482 896.88648,755.14753 893.04356,744.33466 C 889.20034,733.52214 884.78011,725.52021 879.68601,719.77125 C 874.53739,713.74272 868.40688,709.55649 861.21336,706.99718 C 854.25001,704.44408 846.03161,703.11562 836.51271,703.1203 C 820.4493,703.1283 803.9316,703.62305 786.87563,704.89016 C 781.1903,705.31261 776.42627,704.35187 772.62242,701.96137 C 768.81857,699.57087 765.97267,695.74552 764.27861,690.68822 C 762.66928,685.88388 763.0531,682.30815 765.35403,679.82471 C 767.65495,677.34126 771.86915,675.95032 777.83147,675.64587 C 811.48542,673.92777 842.96602,674.81987 872.90511,676.5534 C 875.26225,676.69 876.25089,675.69543 875.91551,673.66233 C 874.17105,663.09131 872.98152,654.34875 872.5938,647.77038 C 872.5117,646.37889 871.27994,645.63256 868.82729,645.39112 C 841.72217,642.72391 813.21749,640.50987 782.81741,639.88955 C 768.23656,639.59213 755.48976,640.22882 745.01586,641.72533 C 734.36554,643.06288 725.64354,645.65873 719.35055,649.66464 C 713.05755,653.67054 709.20732,659.08707 708.23561,666.14594 C 707.67802,669.91613 707.87395,674.31832 708.89609,679.44373 C 709.91824,684.56913 711.76821,690.41821 714.48221,697.08748 C 718.42027,706.76468 723.32943,715.69088 728.76594,723.45429 C 734.20244,731.2177 740.17057,737.82727 746.45005,743.12294 C 753.5463,749.07459 760.91192,753.31353 768.48832,755.80021 C 776.06472,758.2869 783.85775,759.0253 791.96108,758.08895 C 809.92954,756.01289 827.33368,755.03916 844.2709,754.73939 C 848.92033,754.65719 852.75944,756.21553 855.78358,759.4165 C 858.80772,762.61748 861.01888,767.46524 862.47569,774.09557 C 864.2237,782.05181 864.42667,788.1914 863.13502,792.29327 C 861.84336,796.39515 859.06095,798.46109 854.70771,798.49815 C 840.09318,798.62256 825.16387,799.30393 809.85831,800.87506 C 794.55275,802.4462 778.87093,804.9071 762.74994,808.64621 C 760.46336,809.17655 759.98292,811.1082 761.30952,814.41953 L 761.30952,814.41953 z M 923.46336,859.75551 C 924.19595,866.63847 925.43995,870.2255 927.25151,870.41924 C 936.76167,871.43634 946.19461,872.51036 955.56571,873.5587 C 957.35067,873.75839 958.01389,870.29541 957.51228,863.28819 C 954.029,814.62922 949.0952,769.87196 944.96469,733.6878 C 940.83418,697.50364 937.50696,669.89259 937.38116,655.52475 C 937.37316,654.60525 937.09697,653.93567 936.53641,653.45261 C 935.97585,652.96956 935.13082,652.67283 933.99463,652.54347 C 922.06458,651.18553 909.91034,649.77802 897.47972,648.4038 C 895.11186,648.14212 893.91618,648.85432 894.01054,650.8531 C 894.74779,666.46936 899.6035,694.79657 905.5106,731.16908 C 911.4177,767.54159 918.37621,811.95938 923.46336,859.75551 L 923.46336,859.75551 z M 1073.0005,661.71067 C 1073.5546,655.11473 1074.1905,655.73176 1075.0083,665.196 C 1075.1382,666.70154 1076.2921,667.6468 1078.4619,667.67269 C 1088.7181,667.79445 1098.9637,667.59309 1109.2607,667.07451 C 1111.2407,666.97461 1112.2762,666.00113 1112.3438,664.50823 C 1113.1891,645.79215 1111.8699,662.18746 1109.583,700.71791 C 1107.2961,739.24836 1104.0416,799.91394 1101.577,869.73336 C 1101.3241,876.89467 1100.3359,880.58852 1098.5996,880.66521 C 1085.7926,881.23085 1073.0074,881.43914 1060.2073,881.28248 C 1047.4072,881.12583 1034.5923,880.60423 1021.7243,879.77671 C 1011.2553,879.10347 1002.171,873.41744 994.1834,863.22947 C 990.18962,858.13549 986.46971,851.9211 982.9932,844.69145 C 979.51668,837.46181 976.28251,829.21524 973.27734,820.10492 C 968.93491,807.13865 965.14197,793.39101 962.01306,779.28467 C 958.88415,765.17832 956.41862,750.70539 954.86105,736.5409 C 953.06341,720.04145 952.36913,707.50994 952.82692,697.93261 C 953.28471,688.35528 954.88158,681.71394 957.47271,677.04313 C 960.02883,672.64115 963.22665,669.37021 966.98878,666.92375 C 970.75091,664.47729 975.07573,662.85352 979.88992,661.78741 C 984.70412,660.7213 990.00684,660.21126 995.7475,660.05902 C 1001.4881,659.90678 1007.6668,660.11102 1014.2613,660.56206 C 1032.9799,661.86115 1051.4059,662.66274 1069.7765,662.86803 C 1071.8637,662.89623 1072.9372,662.46026 1073.0005,661.71067 L 1073.0005,661.71067 z M 1071.7536,692.08317 C 1071.8116,689.90351 1070.8151,688.87767 1068.7627,688.85851 C 1057.3723,688.75276 1045.9629,688.46114 1034.4853,688.00118 C 1023.4211,687.55785 1014.4211,688.71589 1007.677,692.02726 C 1000.9329,695.33864 996.45739,700.81756 994.37134,709.4758 C 992.49919,716.43873 991.97712,725.98245 992.77586,739.06997 C 993.27286,747.21352 994.37402,755.14637 996.01504,762.62845 C 997.65605,770.11052 999.83696,777.14361 1002.5213,783.55855 C 1005.7474,791.35828 1010.179,797.55 1015.8055,801.83026 C 1021.432,806.11052 1028.2545,808.48266 1036.3515,808.77393 C 1046.5648,809.14133 1056.7418,809.355 1066.909,809.39758 C 1068.7409,809.40558 1069.6825,807.59425 1069.7346,804.03835 C 1070.4175,757.27805 1071.061,718.14122 1071.7536,692.08317 L 1071.7536,692.08317 z M 1222.9072,656.72353 C 1220.3405,677.1219 1211.5827,722.78219 1203.0348,781.13122 C 1202.1479,787.18481 1198.3757,792.78771 1191.8921,797.86441 C 1186.0242,802.54002 1179.3914,805.28081 1171.91,805.93955 C 1164.2415,806.61476 1158.048,804.98927 1153.2037,801.15624 C 1148.0495,796.64619 1145.6768,791.43381 1146.1751,785.65992 C 1151.261,726.73079 1156.4244,681.62957 1158.0976,662.91068 C 1158.0971,661.73215 1157.8434,660.96715 1157.3523,660.49681 C 1156.8613,660.02646 1156.1329,659.85037 1155.1739,659.92499 C 1144.3055,660.77101 1133.5394,661.45852 1122.8305,661.96 C 1121.6756,662.0141 1120.8191,662.27869 1120.2575,662.79689 C 1119.6958,663.31509 1119.4291,664.08733 1119.4488,665.23621 C 1118.6941,675.45867 1117.3741,694.1304 1115.7914,719.02566 C 1114.2087,743.92091 1112.3633,775.0397 1110.6112,810.15579 C 1110.0361,821.68109 1111.3774,831.92603 1114.5258,840.49777 C 1117.5047,848.88842 1121.4813,855.93327 1126.4556,861.42434 C 1131.4299,866.91541 1137.4015,870.85249 1144.4081,873.11303 C 1151.2518,875.19256 1158.2515,875.78763 1165.4707,874.92824 C 1172.5137,874.08982 1179.5987,871.82241 1186.8069,868.22034 C 1194.5679,864.35604 1201.5438,859.18773 1207.7923,852.83891 C 1214.0409,846.4901 1219.5646,838.95735 1224.381,830.34917 C 1229.4124,821.53867 1233.0029,811.45666 1234.994,800.28641 C 1241.0602,766.25214 1247.5606,735.41046 1253.0165,709.99502 C 1258.4725,684.57958 1262.8841,664.59039 1264.8264,652.26062 C 1264.9284,650.88166 1264.7108,649.96771 1264.2087,649.41142 C 1263.7066,648.85514 1262.9205,648.65615 1261.8662,648.77345 C 1249.9171,650.10348 1238.2095,651.46017 1226.6995,652.76824 C 1225.4529,652.95912 1224.5226,653.35369 1223.897,653.98908 C 1223.2714,654.62447 1222.9504,655.50109 1222.9072,656.72353 L 1222.9072,656.72353 z M 1368.2477,860.73992 C 1368.1627,839.54703 1368.1184,818.05893 1367.49,797.23197 C 1366.8617,776.405 1365.6488,756.23917 1363.3996,737.62677 C 1362.3555,730.75227 1364.9106,724.12284 1371.4057,717.79225 C 1386.3158,702.78123 1401.6048,689.20589 1416.7443,677.16922 C 1431.8839,665.13256 1446.874,654.63458 1461.0592,645.72882 C 1463.4553,644.14847 1463.2661,643.24526 1460.5548,642.97418 C 1439.6128,640.88138 1419.511,639.9323 1400.1426,639.75413 C 1396.5196,639.72093 1393.7219,640.44395 1391.6733,641.96994 C 1381.921,649.29556 1371.5935,657.95626 1361.0534,667.87903 C 1357.8974,670.877 1355.1949,672.44422 1352.9876,672.42389 C 1350.7803,672.40359 1349.0669,670.79406 1347.7136,667.81881 C 1343.4336,657.96916 1338.266,649.87018 1332.1771,643.90469 C 1330.9193,642.66128 1328.7286,642.21531 1325.6915,642.44368 C 1307.9742,643.77641 1290.853,645.46635 1274.2158,647.25865 C 1272.0766,647.48918 1271.6591,648.05024 1272.9059,649.0796 C 1280.5032,654.86717 1287.1242,663.67978 1292.75,674.9295 C 1298.3758,686.17923 1303.0065,699.86606 1306.7651,715.3502 C 1308.507,721.89696 1306.6287,728.49922 1301.4724,735.03146 C 1287.8447,752.99088 1274.7553,772.67343 1262.5487,793.81024 C 1250.342,814.94705 1239.0181,837.53811 1228.7554,861.24953 C 1227.1858,864.78208 1227.0508,866.48854 1228.3161,866.33364 C 1240.1565,864.88412 1252.1008,863.55133 1264.1698,862.53965 C 1266.3808,862.35431 1268.2185,860.75954 1269.7105,857.76623 C 1281.5044,834.55231 1294.6777,812.48726 1308.9643,791.86625 C 1311.8312,787.70844 1314.1359,785.69406 1315.8186,785.74827 C 1317.5013,785.80247 1318.5618,787.92639 1318.962,792.16468 C 1321.1177,813.19308 1322.7301,835.15004 1324.422,857.02303 C 1324.5967,859.84295 1325.7369,861.3065 1327.8457,861.44909 C 1340.3064,862.29164 1352.9225,863.89361 1365.7112,866.56493 C 1367.4819,866.93479 1368.3279,865.00991 1368.2477,860.73992 L 1368.2477,860.73992 z"
             style="font-size:184.58837891px;font-style:normal;font-variant:normal;font-weight:bold;font-stretch:normal;opacity:0.1566265;fill:url(#pattern4905);fill-opacity:1;stroke:none;font-family:sidux;-inkscape-font-specification:sidux Bold" />
          <path
             id="path5021"
             d="M 761.30952,814.41953 C 768.27462,831.80504 774.99969,849.51039 781.07526,867.19108 C 782.23258,870.55901 783.80707,872.01737 785.82629,871.60594 C 802.73797,868.16008 819.25368,866.43195 835.44368,865.77939 C 851.63369,865.12682 867.498,865.5498 883.10406,866.5169 C 889.62596,866.92106 894.44123,864.13196 897.66638,858.0466 C 900.83978,851.58499 902.9658,843.94546 903.99703,835.23972 C 905.99191,820.01831 905.81101,804.07466 903.23631,787.94091 C 900.27773,769.40482 896.88648,755.14753 893.04356,744.33466 C 889.20034,733.52214 884.78011,725.52021 879.68601,719.77125 C 874.53739,713.74272 868.40688,709.55649 861.21336,706.99718 C 854.25001,704.44408 846.03161,703.11562 836.51271,703.1203 C 820.4493,703.1283 803.9316,703.62305 786.87563,704.89016 C 781.1903,705.31261 776.42627,704.35187 772.62242,701.96137 C 768.81857,699.57087 765.97267,695.74552 764.27861,690.68822 C 762.66928,685.88388 763.0531,682.30815 765.35403,679.82471 C 767.65495,677.34126 771.86915,675.95032 777.83147,675.64587 C 811.48542,673.92777 842.96602,674.81987 872.90511,676.5534 C 875.26225,676.69 876.25089,675.69543 875.91551,673.66233 C 874.17105,663.09131 872.98152,654.34875 872.5938,647.77038 C 872.5117,646.37889 871.27994,645.63256 868.82729,645.39112 C 841.72217,642.72391 813.21749,640.50987 782.81741,639.88955 C 768.23656,639.59213 755.48976,640.22882 745.01586,641.72533 C 734.36554,643.06288 725.64354,645.65873 719.35055,649.66464 C 713.05755,653.67054 709.20732,659.08707 708.23561,666.14594 C 707.67802,669.91613 707.87395,674.31832 708.89609,679.44373 C 709.91824,684.56913 711.76821,690.41821 714.48221,697.08748 C 718.42027,706.76468 723.32943,715.69088 728.76594,723.45429 C 734.20244,731.2177 740.17057,737.82727 746.45005,743.12294 C 753.5463,749.07459 760.91192,753.31353 768.48832,755.80021 C 776.06472,758.2869 783.85775,759.0253 791.96108,758.08895 C 809.92954,756.01289 827.33368,755.03916 844.2709,754.73939 C 848.92033,754.65719 852.75944,756.21553 855.78358,759.4165 C 858.80772,762.61748 861.01888,767.46524 862.47569,774.09557 C 864.2237,782.05181 864.42667,788.1914 863.13502,792.29327 C 861.84336,796.39515 859.06095,798.46109 854.70771,798.49815 C 840.09318,798.62256 825.16387,799.30393 809.85831,800.87506 C 794.55275,802.4462 778.87093,804.9071 762.74994,808.64621 C 760.46336,809.17655 759.98292,811.1082 761.30952,814.41953 L 761.30952,814.41953 z M 923.46336,859.75551 C 924.19595,866.63847 925.43995,870.2255 927.25151,870.41924 C 936.76167,871.43634 946.19461,872.51036 955.56571,873.5587 C 957.35067,873.75839 958.01389,870.29541 957.51228,863.28819 C 954.029,814.62922 949.0952,769.87196 944.96469,733.6878 C 940.83418,697.50364 937.50696,669.89259 937.38116,655.52475 C 937.37316,654.60525 937.09697,653.93567 936.53641,653.45261 C 935.97585,652.96956 935.13082,652.67283 933.99463,652.54347 C 922.06458,651.18553 909.91034,649.77802 897.47972,648.4038 C 895.11186,648.14212 893.91618,648.85432 894.01054,650.8531 C 894.74779,666.46936 899.6035,694.79657 905.5106,731.16908 C 911.4177,767.54159 918.37621,811.95938 923.46336,859.75551 L 923.46336,859.75551 z M 1073.0005,661.71067 C 1073.5546,655.11473 1074.1905,655.73176 1075.0083,665.196 C 1075.1382,666.70154 1076.2921,667.6468 1078.4619,667.67269 C 1088.7181,667.79445 1098.9637,667.59309 1109.2607,667.07451 C 1111.2407,666.97461 1112.2762,666.00113 1112.3438,664.50823 C 1113.1891,645.79215 1111.8699,662.18746 1109.583,700.71791 C 1107.2961,739.24836 1104.0416,799.91394 1101.577,869.73336 C 1101.3241,876.89467 1100.3359,880.58852 1098.5996,880.66521 C 1085.7926,881.23085 1073.0074,881.43914 1060.2073,881.28248 C 1047.4072,881.12583 1034.5923,880.60423 1021.7243,879.77671 C 1011.2553,879.10347 1002.171,873.41744 994.1834,863.22947 C 990.18962,858.13549 986.46971,851.9211 982.9932,844.69145 C 979.51668,837.46181 976.28251,829.21524 973.27734,820.10492 C 968.93491,807.13865 965.14197,793.39101 962.01306,779.28467 C 958.88415,765.17832 956.41862,750.70539 954.86105,736.5409 C 953.06341,720.04145 952.36913,707.50994 952.82692,697.93261 C 953.28471,688.35528 954.88158,681.71394 957.47271,677.04313 C 960.02883,672.64115 963.22665,669.37021 966.98878,666.92375 C 970.75091,664.47729 975.07573,662.85352 979.88992,661.78741 C 984.70412,660.7213 990.00684,660.21126 995.7475,660.05902 C 1001.4881,659.90678 1007.6668,660.11102 1014.2613,660.56206 C 1032.9799,661.86115 1051.4059,662.66274 1069.7765,662.86803 C 1071.8637,662.89623 1072.9372,662.46026 1073.0005,661.71067 L 1073.0005,661.71067 z M 1071.7536,692.08317 C 1071.8116,689.90351 1070.8151,688.87767 1068.7627,688.85851 C 1057.3723,688.75276 1045.9629,688.46114 1034.4853,688.00118 C 1023.4211,687.55785 1014.4211,688.71589 1007.677,692.02726 C 1000.9329,695.33864 996.45739,700.81756 994.37134,709.4758 C 992.49919,716.43873 991.97712,725.98245 992.77586,739.06997 C 993.27286,747.21352 994.37402,755.14637 996.01504,762.62845 C 997.65605,770.11052 999.83696,777.14361 1002.5213,783.55855 C 1005.7474,791.35828 1010.179,797.55 1015.8055,801.83026 C 1021.432,806.11052 1028.2545,808.48266 1036.3515,808.77393 C 1046.5648,809.14133 1056.7418,809.355 1066.909,809.39758 C 1068.7409,809.40558 1069.6825,807.59425 1069.7346,804.03835 C 1070.4175,757.27805 1071.061,718.14122 1071.7536,692.08317 L 1071.7536,692.08317 z M 1222.9072,656.72353 C 1220.3405,677.1219 1211.5827,722.78219 1203.0348,781.13122 C 1202.1479,787.18481 1198.3757,792.78771 1191.8921,797.86441 C 1186.0242,802.54002 1179.3914,805.28081 1171.91,805.93955 C 1164.2415,806.61476 1158.048,804.98927 1153.2037,801.15624 C 1148.0495,796.64619 1145.6768,791.43381 1146.1751,785.65992 C 1151.261,726.73079 1156.4244,681.62957 1158.0976,662.91068 C 1158.0971,661.73215 1157.8434,660.96715 1157.3523,660.49681 C 1156.8613,660.02646 1156.1329,659.85037 1155.1739,659.92499 C 1144.3055,660.77101 1133.5394,661.45852 1122.8305,661.96 C 1121.6756,662.0141 1120.8191,662.27869 1120.2575,662.79689 C 1119.6958,663.31509 1119.4291,664.08733 1119.4488,665.23621 C 1118.6941,675.45867 1117.3741,694.1304 1115.7914,719.02566 C 1114.2087,743.92091 1112.3633,775.0397 1110.6112,810.15579 C 1110.0361,821.68109 1111.3774,831.92603 1114.5258,840.49777 C 1117.5047,848.88842 1121.4813,855.93327 1126.4556,861.42434 C 1131.4299,866.91541 1137.4015,870.85249 1144.4081,873.11303 C 1151.2518,875.19256 1158.2515,875.78763 1165.4707,874.92824 C 1172.5137,874.08982 1179.5987,871.82241 1186.8069,868.22034 C 1194.5679,864.35604 1201.5438,859.18773 1207.7923,852.83891 C 1214.0409,846.4901 1219.5646,838.95735 1224.381,830.34917 C 1229.4124,821.53867 1233.0029,811.45666 1234.994,800.28641 C 1241.0602,766.25214 1247.5606,735.41046 1253.0165,709.99502 C 1258.4725,684.57958 1262.8841,664.59039 1264.8264,652.26062 C 1264.9284,650.88166 1264.7108,649.96771 1264.2087,649.41142 C 1263.7066,648.85514 1262.9205,648.65615 1261.8662,648.77345 C 1249.9171,650.10348 1238.2095,651.46017 1226.6995,652.76824 C 1225.4529,652.95912 1224.5226,653.35369 1223.897,653.98908 C 1223.2714,654.62447 1222.9504,655.50109 1222.9072,656.72353 L 1222.9072,656.72353 z M 1368.2477,860.73992 C 1368.1627,839.54703 1368.1184,818.05893 1367.49,797.23197 C 1366.8617,776.405 1365.6488,756.23917 1363.3996,737.62677 C 1362.3555,730.75227 1364.9106,724.12284 1371.4057,717.79225 C 1386.3158,702.78123 1401.6048,689.20589 1416.7443,677.16922 C 1431.8839,665.13256 1446.874,654.63458 1461.0592,645.72882 C 1463.4553,644.14847 1463.2661,643.24526 1460.5548,642.97418 C 1439.6128,640.88138 1419.511,639.9323 1400.1426,639.75413 C 1396.5196,639.72093 1393.7219,640.44395 1391.6733,641.96994 C 1381.921,649.29556 1371.5935,657.95626 1361.0534,667.87903 C 1357.8974,670.877 1355.1949,672.44422 1352.9876,672.42389 C 1350.7803,672.40359 1349.0669,670.79406 1347.7136,667.81881 C 1343.4336,657.96916 1338.266,649.87018 1332.1771,643.90469 C 1330.9193,642.66128 1328.7286,642.21531 1325.6915,642.44368 C 1307.9742,643.77641 1290.853,645.46635 1274.2158,647.25865 C 1272.0766,647.48918 1271.6591,648.05024 1272.9059,649.0796 C 1280.5032,654.86717 1287.1242,663.67978 1292.75,674.9295 C 1298.3758,686.17923 1303.0065,699.86606 1306.7651,715.3502 C 1308.507,721.89696 1306.6287,728.49922 1301.4724,735.03146 C 1287.8447,752.99088 1274.7553,772.67343 1262.5487,793.81024 C 1250.342,814.94705 1239.0181,837.53811 1228.7554,861.24953 C 1227.1858,864.78208 1227.0508,866.48854 1228.3161,866.33364 C 1240.1565,864.88412 1252.1008,863.55133 1264.1698,862.53965 C 1266.3808,862.35431 1268.2185,860.75954 1269.7105,857.76623 C 1281.5044,834.55231 1294.6777,812.48726 1308.9643,791.86625 C 1311.8312,787.70844 1314.1359,785.69406 1315.8186,785.74827 C 1317.5013,785.80247 1318.5618,787.92639 1318.962,792.16468 C 1321.1177,813.19308 1322.7301,835.15004 1324.422,857.02303 C 1324.5967,859.84295 1325.7369,861.3065 1327.8457,861.44909 C 1340.3064,862.29164 1352.9225,863.89361 1365.7112,866.56493 C 1367.4819,866.93479 1368.3279,865.00991 1368.2477,860.73992 L 1368.2477,860.73992 z"
             mask="none"
             style="font-size:184.58837891px;font-style:normal;font-variant:normal;font-weight:bold;font-stretch:normal;fill:url(#linearGradient3823);fill-opacity:1;stroke:#ffffff;font-family:sidux;-inkscape-font-specification:sidux Bold" />
        </g>
      </g>
    </g>
    <g
       id="g2791">
      <path
         id="text3257"
         d="M 996.84375,748.125 C 990.12275,748.12574 978.7735,750.32025 970.0625,759.03125 C 961.3516,767.74226 959.125,779.09032 959.125,785.8125 L 959.125,797.3125 C 959.125,798.24757 959.2182,799.28471 959.25,800.25 L 918.59375,800.25 C 907.84292,800.25016 898.06008,800.90268 888.625,802.6875 C 867.1115,806.12989 844.90722,821.99178 836.90625,843.8125 C 832.66852,855.11348 831.625,865.9503 831.625,877.5625 C 831.625,891.4986 833.80467,905.61075 840.375,918.46875 C 832.2652,927.07325 830.09375,937.9691 830.09375,944.5 L 830.09375,971.84375 C 830.09375,978.56545 832.28812,989.9131 841,998.625 C 849.71204,1007.337 861.09085,1009.5625 867.8125,1009.5625 L 955.0625,1009.5625 C 962.9936,1009.5625 971.71,1007.9127 979.9375,1004.3438 C 985.5677,1007.4233 991.67105,1009.5625 996.84375,1009.5625 L 1024.1562,1009.5625 C 1031.8296,1009.5625 1041.3715,1004.9964 1048.5312,999.21875 C 1061.1519,1005.8073 1075.3127,1009.5625 1089.375,1009.5625 L 1166.25,1009.5625 C 1172.636,1009.5625 1180.2717,1006.3888 1186.8438,1002.0312 C 1192.8563,1004.2148 1198.9804,1006.0291 1205.3125,1007.1875 L 1205.4375,1007.2185 L 1205.5625,1007.2185 C 1214.5168,1008.7855 1223.5991,1009.5622 1232.7188,1009.5622 C 1241.7144,1009.5622 1250.6716,1008.8031 1259.5,1007.2185 C 1264.5304,1006.3203 1269.5281,1005.1015 1274.4062,1003.5622 C 1274.6613,1003.7295 1274.8687,1004.0335 1275.125,1004.1872 C 1283.5547,1009.245 1289.8397,1009.3434 1293.9062,1009.3435 L 1328.0625,1009.3435 C 1336.2441,1009.3435 1349.0128,1004.8231 1357.5,996.4372 C 1365.5256,1004.5544 1378.1841,1009.3435 1386.9062,1009.3435 L 1420.7812,1009.3435 C 1425.0745,1009.3435 1431.7644,1009.1653 1440.4375,1003.6872 C 1449.1108,998.20885 1456.3168,985.29225 1457.0625,976.34345 C 1458.541,958.60175 1452.794,955.25405 1450.375,951.71845 C 1450.353,951.68645 1450.302,951.65565 1450.281,951.62475 L 1419.156,902.9685 L 1448.5936,856.49975 L 1448.8748,856.156 L 1449.0936,855.74975 C 1451.6075,851.55965 1458.9029,844.60461 1453.2186,825.656 C 1450.3762,816.1817 1441.4478,806.98914 1434.1873,803.531 C 1426.9271,800.07287 1421.8614,799.96882 1418.2186,799.9685 L 1381.9998,799.9685 C 1374.7286,799.96894 1365.2351,803.67802 1357.4686,809.18725 C 1349.9677,803.83504 1340.7669,799.96901 1333.2498,799.9685 L 1296.7498,799.9685 C 1294.9107,799.96865 1292.7104,799.9938 1290.031,800.4685 C 1289.2579,800.3979 1288.4938,800.24982 1287.7186,800.24975 L 1261.1248,800.24975 L 1259.5623,800.24975 L 1257.9686,800.37475 C 1249.1734,801.1749 1239.0872,807.55762 1232.5936,814.5935 C 1226.014,807.48653 1215.2656,800.25071 1204.3436,800.24975 L 1203.9373,800.24975 L 1203.9373,786.906 C 1203.937,781.50947 1203.6507,773.36722 1196.781,763.74975 C 1189.9115,754.13228 1175.3126,748.12574 1166.2498,748.12475 L 1139.156,748.12475 C 1130.7521,748.12553 1116.8795,752.9172 1109.3748,762.4685 C 1101.8703,772.01979 1101.156,781.09077 1101.156,786.906 L 1101.156,800.406 L 1087.6248,800.4997 L 1087.5628,800.4997 L 1087.5318,800.4997 C 1078.7558,800.5705 1070.0081,802.14515 1061.5631,804.84345 C 1061.7766,802.44873 1061.9068,800.07168 1061.9068,797.84345 L 1061.9068,785.8122 C 1061.9067,779.09018 1059.68,767.74175 1050.9694,759.03095 C 1042.2584,750.32015 1030.9092,748.12544 1024.1881,748.1247 L 996.84435,748.1247 L 996.84375,748.125 z M 1008.75,769.625 C 1024.0389,769.625 1036.4375,781.9178 1036.4375,797.0625 C 1036.4375,812.2072 1024.0389,824.5 1008.75,824.5 C 993.46107,824.5 981.0625,812.2072 981.0625,797.0625 C 981.0625,781.9178 993.46107,769.625 1008.75,769.625 z"
         style="font-size:184.58837891px;font-style:normal;font-variant:normal;font-weight:bold;font-stretch:normal;fill:#ffffff;fill-opacity:1;stroke:none;font-family:sidux;-inkscape-font-specification:sidux Bold" />
      <path
         sodipodi:nodetypes="csccccssccccsccccccccscccscccccccscccccccccsccccccccccccsccccccscsccccccsccscccccccccccccccccccccccccccccccc"
         id="text2483"
         d="M 865.18417,944.50745 L 865.18417,971.86215 C 865.18417,973.59905 866.05261,974.46735 867.78935,974.46735 L 955.06402,974.46735 C 961.14282,974.46735 966.09282,972.99115 969.91382,970.03855 C 973.73462,966.91225 976.68722,963.26505 978.77152,959.09665 C 982.59252,951.80215 984.50292,944.07335 984.50312,935.91015 C 984.50292,926.53145 983.72132,918.80275 982.15832,912.72385 C 980.59502,906.64515 978.25042,901.86885 975.12422,898.39515 C 971.99792,894.74795 967.91642,892.14275 962.87972,890.57955 C 958.01652,889.01655 952.11142,888.23495 945.16432,888.23485 L 909.99388,888.23485 C 902.17818,888.23495 898.2704,884.76135 898.2704,877.81405 C 898.2704,871.21425 902.17818,867.91435 909.99388,867.91425 L 976.16642,867.91425 C 977.90302,867.91435 978.77142,867.04595 978.77152,865.30895 L 978.77152,838.21477 C 978.77142,836.30443 977.90302,835.34917 976.16642,835.34904 L 918.59102,835.34904 C 909.38601,835.34917 901.57032,835.95706 895.14421,837.17268 C 882.11801,839.25699 873.69459,845.50955 869.87353,855.93025 C 867.78935,861.48815 866.74733,868.69585 866.74733,877.55345 C 866.74733,890.40595 869.35252,900.30575 874.56303,907.25285 C 880.46812,915.06855 889.41269,918.97645 901.3966,918.97635 L 941.25637,918.97635 C 948.55092,918.97645 952.19832,922.44995 952.19842,929.39725 C 952.19832,937.73385 948.55092,941.90225 941.25637,941.90225 L 867.78935,941.90225 C 866.05261,941.90225 865.18417,942.77075 865.18417,944.50745 M 994.21532,969.77795 C 994.21532,972.90435 995.08362,974.46735 996.82052,974.46735 L 1024.1752,974.46735 C 1025.912,974.46735 1026.7804,972.90435 1026.7804,969.77795 L 1026.7804,839.51738 C 1026.7804,836.73862 1025.912,835.34917 1024.1752,835.34904 L 996.82052,835.34904 C 995.08362,835.34917 994.21532,836.73862 994.21532,839.51738 L 994.21532,969.77795 M 1136.2724,832.74383 L 1136.2724,786.89205 C 1136.2722,784.46072 1137.2275,783.24495 1139.1382,783.24476 L 1166.2324,783.24476 C 1167.969,783.24495 1168.8375,784.46072 1168.8376,786.89205 L 1168.8376,969.77795 C 1168.8375,972.90435 1167.969,974.46735 1166.2324,974.46735 L 1089.3785,974.46735 C 1068.5367,974.46735 1053.6871,966.04395 1044.8294,949.19675 C 1038.4033,937.21295 1035.1033,922.79745 1034.9297,905.95025 C 1034.756,886.32445 1037.0139,871.82215 1041.7032,862.44325 C 1050.9082,844.72795 1066.279,835.78337 1087.8155,835.60956 L 1133.6672,835.34904 C 1135.404,835.34917 1136.2722,834.48077 1136.2724,832.74383 M 1136.2724,870.77995 C 1136.2722,868.86955 1135.404,867.91435 1133.6672,867.91425 L 1104.7494,867.91425 C 1086.1654,867.91435 1074.7024,874.16685 1070.3606,886.67175 C 1068.4501,891.70855 1067.4948,898.13475 1067.4948,905.95025 C 1067.4948,915.67645 1069.6658,923.75275 1074.0079,930.17885 C 1079.2182,937.99445 1089.4654,941.90225 1104.7494,941.90225 L 1133.6672,941.90225 C 1135.404,941.90225 1136.2722,941.03385 1136.2724,939.29705 L 1136.2724,870.77995 M 1258.5299,841.0805 L 1258.5299,931.48145 C 1258.5299,934.60775 1255.8378,937.29975 1250.4538,939.55755 C 1245.5907,941.64165 1239.6854,942.68385 1232.7383,942.68385 C 1225.6174,942.68385 1219.6254,941.64165 1214.7624,939.55755 C 1209.5518,937.12605 1206.9466,934.43395 1206.9466,931.48145 L 1206.9466,841.0805 C 1206.7729,837.25967 1205.9046,835.34917 1204.3414,835.34904 L 1177.7683,835.34904 C 1175.8579,835.34917 1174.9894,837.25967 1175.1632,841.0805 L 1175.1632,942.68385 C 1175.1632,948.24165 1176.8999,953.01785 1180.3735,957.01255 C 1186.9733,964.82805 1197.3942,970.03855 1211.6361,972.64375 C 1218.5833,973.85945 1225.6174,974.46735 1232.7383,974.46735 C 1239.6854,974.46735 1246.5458,973.85945 1253.3195,972.64375 C 1267.9086,970.03855 1278.5032,964.82805 1285.1031,957.01255 C 1288.5766,953.01785 1290.3134,948.24165 1290.3135,942.68385 L 1290.3135,841.0805 C 1290.1398,837.25967 1289.2713,835.34917 1287.7083,835.34904 L 1261.1352,835.34904 C 1259.2246,835.52286 1258.3562,837.43334 1258.5299,841.0805 M 1421.051,971.08055 L 1381.1912,908.81605 C 1378.586,904.99515 1378.6727,901.00045 1381.4518,896.83205 L 1418.9668,837.69374 C 1420.0088,835.95706 1419.7482,835.08865 1418.1854,835.08852 L 1381.9728,835.08852 C 1379.7149,835.08865 1378.0648,835.95706 1377.0229,837.69374 L 1362.1732,862.70375 C 1359.2206,867.74065 1356.1811,867.74065 1353.0549,862.70375 L 1337.9446,837.69374 C 1336.9026,835.95706 1335.3394,835.08865 1333.2553,835.08852 L 1296.7823,835.08852 C 1295.2191,835.08865 1294.9587,835.95706 1296.0007,837.69374 L 1333.7763,896.83205 C 1336.5552,901.00045 1336.642,904.99515 1334.0369,908.81605 L 1293.6561,971.86215 C 1292.6139,973.42535 1292.7008,974.20695 1293.9165,974.20695 L 1328.0449,974.20695 C 1330.129,974.20695 1331.6052,973.51225 1332.4737,972.12275 L 1353.3155,939.81815 C 1356.0942,935.47605 1358.8731,935.47605 1361.6522,939.81815 L 1382.7544,972.12275 C 1383.6227,973.51225 1385.0121,974.20695 1386.9227,974.20695 L 1420.7905,974.20695 C 1422.3536,974.20695 1422.4402,973.16475 1421.051,971.08055"
         style="font-size:184.58837891px;font-style:normal;font-variant:normal;font-weight:bold;font-stretch:normal;fill:#55d400;fill-opacity:1;stroke:#ffffff;stroke-width:2.0233314;stroke-miterlimit:4;stroke-dasharray:none;stroke-opacity:1;font-family:sidux;-inkscape-font-specification:sidux Bold" />
      <path
         style="font-size:184.58837891px;font-style:normal;font-variant:normal;font-weight:bold;font-stretch:normal;opacity:0.1566265;fill:url(#pattern3024);fill-opacity:1;stroke:none;font-family:sidux;-inkscape-font-specification:sidux Bold"
         d="M 865.18417,944.50745 L 865.18417,971.86215 C 865.18417,973.59905 866.05261,974.46735 867.78935,974.46735 L 955.06402,974.46735 C 961.14282,974.46735 966.09282,972.99115 969.91382,970.03855 C 973.73462,966.91225 976.68722,963.26505 978.77152,959.09665 C 982.59252,951.80215 984.50292,944.07335 984.50312,935.91015 C 984.50292,926.53145 983.72132,918.80275 982.15832,912.72385 C 980.59502,906.64515 978.25042,901.86885 975.12422,898.39515 C 971.99792,894.74795 967.91642,892.14275 962.87972,890.57955 C 958.01652,889.01655 952.11142,888.23495 945.16432,888.23485 L 909.99388,888.23485 C 902.17818,888.23495 898.2704,884.76135 898.2704,877.81405 C 898.2704,871.21425 902.17818,867.91435 909.99388,867.91425 L 976.16642,867.91425 C 977.90302,867.91435 978.77142,867.04595 978.77152,865.30895 L 978.77152,838.21477 C 978.77142,836.30443 977.90302,835.34917 976.16642,835.34904 L 918.59102,835.34904 C 909.38601,835.34917 901.57032,835.95706 895.14421,837.17268 C 882.11801,839.25699 873.69459,845.50955 869.87353,855.93025 C 867.78935,861.48815 866.74733,868.69585 866.74733,877.55345 C 866.74733,890.40595 869.35252,900.30575 874.56303,907.25285 C 880.46812,915.06855 889.41269,918.97645 901.3966,918.97635 L 941.25637,918.97635 C 948.55092,918.97645 952.19832,922.44995 952.19842,929.39725 C 952.19832,937.73385 948.55092,941.90225 941.25637,941.90225 L 867.78935,941.90225 C 866.05261,941.90225 865.18417,942.77075 865.18417,944.50745 M 994.21532,969.77795 C 994.21532,972.90435 995.08362,974.46735 996.82052,974.46735 L 1024.1752,974.46735 C 1025.912,974.46735 1026.7804,972.90435 1026.7804,969.77795 L 1026.7804,839.51738 C 1026.7804,836.73862 1025.912,835.34917 1024.1752,835.34904 L 996.82052,835.34904 C 995.08362,835.34917 994.21532,836.73862 994.21532,839.51738 L 994.21532,969.77795 M 1136.2724,832.74383 L 1136.2724,786.89205 C 1136.2722,784.46072 1137.2275,783.24495 1139.1382,783.24476 L 1166.2324,783.24476 C 1167.969,783.24495 1168.8375,784.46072 1168.8376,786.89205 L 1168.8376,969.77795 C 1168.8375,972.90435 1167.969,974.46735 1166.2324,974.46735 L 1089.3785,974.46735 C 1068.5367,974.46735 1053.6871,966.04395 1044.8294,949.19675 C 1038.4033,937.21295 1035.1033,922.79745 1034.9297,905.95025 C 1034.756,886.32445 1037.0139,871.82215 1041.7032,862.44325 C 1050.9082,844.72795 1066.279,835.78337 1087.8155,835.60956 L 1133.6672,835.34904 C 1135.404,835.34917 1136.2722,834.48077 1136.2724,832.74383 M 1136.2724,870.77995 C 1136.2722,868.86955 1135.404,867.91435 1133.6672,867.91425 L 1104.7494,867.91425 C 1086.1654,867.91435 1074.7024,874.16685 1070.3606,886.67175 C 1068.4501,891.70855 1067.4948,898.13475 1067.4948,905.95025 C 1067.4948,915.67645 1069.6658,923.75275 1074.0079,930.17885 C 1079.2182,937.99445 1089.4654,941.90225 1104.7494,941.90225 L 1133.6672,941.90225 C 1135.404,941.90225 1136.2722,941.03385 1136.2724,939.29705 L 1136.2724,870.77995 M 1258.5299,841.0805 L 1258.5299,931.48145 C 1258.5299,934.60775 1255.8378,937.29975 1250.4538,939.55755 C 1245.5907,941.64165 1239.6854,942.68385 1232.7383,942.68385 C 1225.6174,942.68385 1219.6254,941.64165 1214.7624,939.55755 C 1209.5518,937.12605 1206.9466,934.43395 1206.9466,931.48145 L 1206.9466,841.0805 C 1206.7729,837.25967 1205.9046,835.34917 1204.3414,835.34904 L 1177.7683,835.34904 C 1175.8579,835.34917 1174.9894,837.25967 1175.1632,841.0805 L 1175.1632,942.68385 C 1175.1632,948.24165 1176.8999,953.01785 1180.3735,957.01255 C 1186.9733,964.82805 1197.3942,970.03855 1211.6361,972.64375 C 1218.5833,973.85945 1225.6174,974.46735 1232.7383,974.46735 C 1239.6854,974.46735 1246.5458,973.85945 1253.3195,972.64375 C 1267.9086,970.03855 1278.5032,964.82805 1285.1031,957.01255 C 1288.5766,953.01785 1290.3134,948.24165 1290.3135,942.68385 L 1290.3135,841.0805 C 1290.1398,837.25967 1289.2713,835.34917 1287.7083,835.34904 L 1261.1352,835.34904 C 1259.2246,835.52286 1258.3562,837.43334 1258.5299,841.0805 M 1421.051,971.08055 L 1381.1912,908.81605 C 1378.586,904.99515 1378.6727,901.00045 1381.4518,896.83205 L 1418.9668,837.69374 C 1420.0088,835.95706 1419.7482,835.08865 1418.1854,835.08852 L 1381.9728,835.08852 C 1379.7149,835.08865 1378.0648,835.95706 1377.0229,837.69374 L 1362.1732,862.70375 C 1359.2206,867.74065 1356.1811,867.74065 1353.0549,862.70375 L 1337.9446,837.69374 C 1336.9026,835.95706 1335.3394,835.08865 1333.2553,835.08852 L 1296.7823,835.08852 C 1295.2191,835.08865 1294.9587,835.95706 1296.0007,837.69374 L 1333.7763,896.83205 C 1336.5552,901.00045 1336.642,904.99515 1334.0369,908.81605 L 1293.6561,971.86215 C 1292.6139,973.42535 1292.7008,974.20695 1293.9165,974.20695 L 1328.0449,974.20695 C 1330.129,974.20695 1331.6052,973.51225 1332.4737,972.12275 L 1353.3155,939.81815 C 1356.0942,935.47605 1358.8731,935.47605 1361.6522,939.81815 L 1382.7544,972.12275 C 1383.6227,973.51225 1385.0121,974.20695 1386.9227,974.20695 L 1420.7905,974.20695 C 1422.3536,974.20695 1422.4402,973.16475 1421.051,971.08055"
         id="path3342"
         sodipodi:nodetypes="csccccssccccsccccccccscccscccccccscccccccccsccccccccccccsccccccscsccccccsccscccccccccccccccccccccccccccccccc" />
      <path
         sodipodi:nodetypes="csccccssccccsccccccccscccscccccccscccccccccsccccccccccccsccccccscsccccccsccscccccccccccccccccccccccccccccccc"
         id="path4783"
         d="M 865.18417,944.50745 L 865.18417,971.86215 C 865.18417,973.59905 866.05261,974.46735 867.78935,974.46735 L 955.06402,974.46735 C 961.14282,974.46735 966.09282,972.99115 969.91382,970.03855 C 973.73462,966.91225 976.68722,963.26505 978.77152,959.09665 C 982.59252,951.80215 984.50292,944.07335 984.50312,935.91015 C 984.50292,926.53145 983.72132,918.80275 982.15832,912.72385 C 980.59502,906.64515 978.25042,901.86885 975.12422,898.39515 C 971.99792,894.74795 967.91642,892.14275 962.87972,890.57955 C 958.01652,889.01655 952.11142,888.23495 945.16432,888.23485 L 909.99388,888.23485 C 902.17818,888.23495 898.2704,884.76135 898.2704,877.81405 C 898.2704,871.21425 902.17818,867.91435 909.99388,867.91425 L 976.16642,867.91425 C 977.90302,867.91435 978.77142,867.04595 978.77152,865.30895 L 978.77152,838.21477 C 978.77142,836.30443 977.90302,835.34917 976.16642,835.34904 L 918.59102,835.34904 C 909.38601,835.34917 901.57032,835.95706 895.14421,837.17268 C 882.11801,839.25699 873.69459,845.50955 869.87353,855.93025 C 867.78935,861.48815 866.74733,868.69585 866.74733,877.55345 C 866.74733,890.40595 869.35252,900.30575 874.56303,907.25285 C 880.46812,915.06855 889.41269,918.97645 901.3966,918.97635 L 941.25637,918.97635 C 948.55092,918.97645 952.19832,922.44995 952.19842,929.39725 C 952.19832,937.73385 948.55092,941.90225 941.25637,941.90225 L 867.78935,941.90225 C 866.05261,941.90225 865.18417,942.77075 865.18417,944.50745 M 994.21532,969.77795 C 994.21532,972.90435 995.08362,974.46735 996.82052,974.46735 L 1024.1752,974.46735 C 1025.912,974.46735 1026.7804,972.90435 1026.7804,969.77795 L 1026.7804,839.51738 C 1026.7804,836.73862 1025.912,835.34917 1024.1752,835.34904 L 996.82052,835.34904 C 995.08362,835.34917 994.21532,836.73862 994.21532,839.51738 L 994.21532,969.77795 M 1136.2724,832.74383 L 1136.2724,786.89205 C 1136.2722,784.46072 1137.2275,783.24495 1139.1382,783.24476 L 1166.2324,783.24476 C 1167.969,783.24495 1168.8375,784.46072 1168.8376,786.89205 L 1168.8376,969.77795 C 1168.8375,972.90435 1167.969,974.46735 1166.2324,974.46735 L 1089.3785,974.46735 C 1068.5367,974.46735 1053.6871,966.04395 1044.8294,949.19675 C 1038.4033,937.21295 1035.1033,922.79745 1034.9297,905.95025 C 1034.756,886.32445 1037.0139,871.82215 1041.7032,862.44325 C 1050.9082,844.72795 1066.279,835.78337 1087.8155,835.60956 L 1133.6672,835.34904 C 1135.404,835.34917 1136.2722,834.48077 1136.2724,832.74383 M 1136.2724,870.77995 C 1136.2722,868.86955 1135.404,867.91435 1133.6672,867.91425 L 1104.7494,867.91425 C 1086.1654,867.91435 1074.7024,874.16685 1070.3606,886.67175 C 1068.4501,891.70855 1067.4948,898.13475 1067.4948,905.95025 C 1067.4948,915.67645 1069.6658,923.75275 1074.0079,930.17885 C 1079.2182,937.99445 1089.4654,941.90225 1104.7494,941.90225 L 1133.6672,941.90225 C 1135.404,941.90225 1136.2722,941.03385 1136.2724,939.29705 L 1136.2724,870.77995 M 1258.5299,841.0805 L 1258.5299,931.48145 C 1258.5299,934.60775 1255.8378,937.29975 1250.4538,939.55755 C 1245.5907,941.64165 1239.6854,942.68385 1232.7383,942.68385 C 1225.6174,942.68385 1219.6254,941.64165 1214.7624,939.55755 C 1209.5518,937.12605 1206.9466,934.43395 1206.9466,931.48145 L 1206.9466,841.0805 C 1206.7729,837.25967 1205.9046,835.34917 1204.3414,835.34904 L 1177.7683,835.34904 C 1175.8579,835.34917 1174.9894,837.25967 1175.1632,841.0805 L 1175.1632,942.68385 C 1175.1632,948.24165 1176.8999,953.01785 1180.3735,957.01255 C 1186.9733,964.82805 1197.3942,970.03855 1211.6361,972.64375 C 1218.5833,973.85945 1225.6174,974.46735 1232.7383,974.46735 C 1239.6854,974.46735 1246.5458,973.85945 1253.3195,972.64375 C 1267.9086,970.03855 1278.5032,964.82805 1285.1031,957.01255 C 1288.5766,953.01785 1290.3134,948.24165 1290.3135,942.68385 L 1290.3135,841.0805 C 1290.1398,837.25967 1289.2713,835.34917 1287.7083,835.34904 L 1261.1352,835.34904 C 1259.2246,835.52286 1258.3562,837.43334 1258.5299,841.0805 M 1421.051,971.08055 L 1381.1912,908.81605 C 1378.586,904.99515 1378.6727,901.00045 1381.4518,896.83205 L 1418.9668,837.69374 C 1420.0088,835.95706 1419.7482,835.08865 1418.1854,835.08852 L 1381.9728,835.08852 C 1379.7149,835.08865 1378.0648,835.95706 1377.0229,837.69374 L 1362.1732,862.70375 C 1359.2206,867.74065 1356.1811,867.74065 1353.0549,862.70375 L 1337.9446,837.69374 C 1336.9026,835.95706 1335.3394,835.08865 1333.2553,835.08852 L 1296.7823,835.08852 C 1295.2191,835.08865 1294.9587,835.95706 1296.0007,837.69374 L 1333.7763,896.83205 C 1336.5552,901.00045 1336.642,904.99515 1334.0369,908.81605 L 1293.6561,971.86215 C 1292.6139,973.42535 1292.7008,974.20695 1293.9165,974.20695 L 1328.0449,974.20695 C 1330.129,974.20695 1331.6052,973.51225 1332.4737,972.12275 L 1353.3155,939.81815 C 1356.0942,935.47605 1358.8731,935.47605 1361.6522,939.81815 L 1382.7544,972.12275 C 1383.6227,973.51225 1385.0121,974.20695 1386.9227,974.20695 L 1420.7905,974.20695 C 1422.3536,974.20695 1422.4402,973.16475 1421.051,971.08055"
         style="font-size:184.58837891px;font-style:normal;font-variant:normal;font-weight:bold;font-stretch:normal;fill:url(#linearGradient3020);fill-opacity:1;stroke:#ffffff;font-family:sidux;-inkscape-font-specification:sidux Bold" />
    </g>
    <path
       style="opacity:1;fill:url(#linearGradient5071);fill-opacity:1;stroke:none;filter:url(#filter5077)"
       d="M 814.125,1013 L 814.125,1014 L 1465.4375,1014 L 1465.4375,1013 L 814.125,1013 L 814.125,1013 z"
       id="path5055"
       transform="matrix(1,0,0,3.5225707,0,-2563.3168)" />
  </g>
</svg>
