<?xml version="1.0" encoding="UTF-8" standalone="no"?>
<!-- Created with Inkscape (http://www.inkscape.org/) -->

<svg
   xmlns:dc="http://purl.org/dc/elements/1.1/"
   xmlns:cc="http://creativecommons.org/ns#"
   xmlns:rdf="http://www.w3.org/1999/02/22-rdf-syntax-ns#"
   xmlns:svg="http://www.w3.org/2000/svg"
   xmlns="http://www.w3.org/2000/svg"
   xmlns:xlink="http://www.w3.org/1999/xlink"
   xmlns:sodipodi="http://sodipodi.sourceforge.net/DTD/sodipodi-0.dtd"
   xmlns:inkscape="http://www.inkscape.org/namespaces/inkscape"
   width="944"
   height="200"
   id="svg2"
   version="1.1"
   inkscape:version="0.48.1 r9760"
   sodipodi:docname="fred3.svg"
   inkscape:export-filename="fred3.png"
   inkscape:export-xdpi="90"
   inkscape:export-ydpi="90">
  <defs
     id="defs4">
    <filter
       inkscape:collect="always"
       id="filter4907"
       color-interpolation-filters="sRGB">
      <feGaussianBlur
         inkscape:collect="always"
         stdDeviation="7.9116464"
         id="feGaussianBlur4909" />
    </filter>
    <linearGradient
       inkscape:collect="always"
       xlink:href="#linearGradient4050"
       id="linearGradient7255"
       gradientUnits="userSpaceOnUse"
       x1="1887.0872"
       y1="889.59613"
       x2="1887.0872"
       y2="699.92035"
       gradientTransform="translate(-1028.4671,-337.62109)" />
    <linearGradient
       inkscape:collect="always"
       id="linearGradient4050">
      <stop
         style="stop-color:#ffffff;stop-opacity:1;"
         offset="0"
         id="stop4052" />
      <stop
         style="stop-color:#ffffff;stop-opacity:0;"
         offset="1"
         id="stop4054" />
    </linearGradient>
    <linearGradient
       y2="699.92035"
       x2="1887.0872"
       y1="889.59613"
       x1="1887.0872"
       gradientTransform="translate(-1028.4671,-337.62109)"
       gradientUnits="userSpaceOnUse"
       id="linearGradient3141"
       xlink:href="#linearGradient4050"
       inkscape:collect="always" />
    <clipPath
       clipPathUnits="userSpaceOnUse"
       id="clipPath3763">
      <rect
         style="fill:#ffffff;fill-opacity:1;stroke:none"
         id="rect3765"
         width="263.27762"
         height="55.779156"
         x="617.95813"
         y="426.19504" />
    </clipPath>
  </defs>
  <sodipodi:namedview
     id="base"
     pagecolor="#ffffff"
     bordercolor="#666666"
     borderopacity="1.0"
     inkscape:pageopacity="0.0"
     inkscape:pageshadow="2"
     inkscape:zoom="0.35"
     inkscape:cx="538.00361"
     inkscape:cy="328.01932"
     inkscape:document-units="px"
     inkscape:current-layer="layer1"
     showgrid="false"
     fit-margin-top="0"
     fit-margin-left="0"
     fit-margin-right="0"
     fit-margin-bottom="0"
     inkscape:window-width="1169"
     inkscape:window-height="1021"
     inkscape:window-x="0"
     inkscape:window-y="0"
     inkscape:window-maximized="0" />
  <metadata
     id="metadata7">
    <rdf:RDF>
      <cc:Work
         rdf:about="">
        <dc:format>image/svg+xml</dc:format>
        <dc:type
           rdf:resource="http://purl.org/dc/dcmitype/StillImage" />
        <dc:title></dc:title>
      </cc:Work>
    </rdf:RDF>
  </metadata>
  <g
     inkscape:label="Layer 1"
     inkscape:groupmode="layer"
     id="layer1"
     transform="translate(-214.13925,-443.23864)">
    <g
       transform="matrix(3.5855688,0,0,3.5855688,-2001.5921,-1084.913)"
       style="display:inline;enable-background:new"
       id="g3112"
       clip-path="url(#clipPath3763)">
      <use
         height="1200"
         width="1920"
         id="use7264"
         xlink:href="#use7262"
         y="0"
         x="0"
         style="display:inline;enable-background:new"
         transform="translate(1.7410156e-4,-1.3812287e-5)" />
      <path
         style="color:#000000;fill:#000000;fill-opacity:1;stroke:#000000;stroke-width:7;stroke-opacity:1;marker:none;visibility:visible;display:inline;overflow:visible;filter:url(#filter4907);enable-background:new"
         d="m 760.82794,392.90661 c 13.619,0.2434 26.21,16.5118 26.21,16.5118 20.756,-17.1303 20.626,22.9855 20.626,22.9855 19.31,8.9117 14.31,40.5194 14.31,40.5194 l -6.028,1.3367 c 4.84,9.4804 7.575,20.1819 7.575,31.5035 0,3.3425 -0.248,6.6095 -0.708,9.8284 10.213,1.7302 29.868,6.2648 26.471,15.0965 l 1.809,3.6431 c 0,0 9.109,3.6441 7.286,9.5664 -1.093,3.5513 -9.859,10.6714 -16.722,15.8304 2.503,0.988 10.422,4.5648 8.466,9.9332 -2.313,6.3458 -31.792,23.4311 -31.792,23.4311 l 14.441,-21.9634 c 0,0 -25.899,-3.0513 -35.015,-11.3485 -1.154,0.9481 -2.325,1.8756 -3.538,2.7519 5.017,2.386 8.322,5.5365 6.762,9.5926 l 1.834,3.643 c 0,0 9.109,3.6442 7.287,9.5664 -1.823,5.9222 -25.056,21.8585 -25.056,21.8585 l 11.401,-20.4956 c 0,0 -12.88,-1.7829 -21.78,-6.3951 0.935,12.7408 -9.375,28.3466 -26.472,38.1869 -16.562,9.5333 -34.569,10.7783 -45.263,4.2983 5.316,-0.8029 11.146,-2.8147 16.774,-6.0544 15.009,-8.639 23.13,-22.6973 18.137,-31.3724 -4.977,-8.6461 -21.123,-8.6837 -36.09,-0.131 4.517,-5.8468 10.742,-11.3004 18.294,-15.647 0.297,-0.1712 0.592,-0.332 0.891,-0.4979 -4.266,-2.0441 -8.287,-4.507 -12.03,-7.3124 -0.905,4.1569 -2.485,8.4663 -4.796,12.6591 -3.053,5.5377 -6.931,10.1153 -11.113,13.4716 6.006,-10.9751 5.79,-22.6877 -0.55,-26.1831 -6.362,-3.5071 -16.473,2.596 -22.54,13.6026 -2.276,4.1274 -3.656,8.3719 -4.168,12.2397 -3.338,-5.2865 -4.033,-13.1457 -1.965,-21.4916 -3.504,-2.2165 -21.245,-13.6423 -23.064,-19.0017 -2.011,-5.9221 8.046,-9.5663 8.046,-9.5663 l 1.992,-3.6431 c -1.897,-4.4709 2.739,-7.8403 9.225,-10.3002 -3.504,-2.6776 -6.5,-5.3515 -7.05,-6.9716 -1.462,-4.3112 5.871,-6.9454 5.871,-6.9454 l 1.441,-2.6472 c -2.711,-6.39 12.865,-9.6809 21.099,-10.9554 4.823,-34.2449 34.734,-60.6481 70.738,-60.6481 17.287,0 33.172,6.077 45.552,16.1972 -2.312,-6.5723 -3.931,-11.9252 -3.931,-11.9252 -8.56,1.8841 -17.115,-20.7576 -17.115,-20.7576 -7.418,1.6328 -36.247,-7.5745 -36.247,-7.5745 0,0 -9.517,9.8505 -14.127,2.4899 -4.611,-7.359 -14.127,0.131 -14.127,0.131 21.988,-30.5632 28.018,-8.5704 28.018,-8.5704 l 6.106,-4.9273 c 4.641,-5.6299 9.699,-7.6363 14.625,-7.5483 z m -0.209,3.25 c -9.462,-0.2965 -12.921,8.6754 -12.921,8.6752 4.341,2.7761 33.102,2.0443 33.102,2.0443 -8.629,-7.8802 -15.225,-10.5642 -20.181,-10.7195 z m 32.368,13.2618 c -2.071,-0.064 -3.538,0.7077 -3.538,0.7077 l 10.483,15.8827 c 2.531,2.7463 1.086,5.8603 -0.524,7.9677 -1.258,1.0029 -2.253,1.9364 -2.306,2.4374 0,0 1.189,-0.9745 2.306,-2.4374 2.339,-1.8651 5.609,-3.9576 5.609,-3.9576 -1.975,-17.3168 -8.077,-20.4773 -12.03,-20.6005 z m 14.284,26.6286 c 4.636,4.1103 1.415,27.6504 1.415,27.6507 l 10.379,4.7176 c 1.475,-20.8446 -11.794,-32.3683 -11.794,-32.3683 z m -55.197,8.9111 c -34.252,0 -61.853,27.2299 -61.853,60.8054 0,0.4848 0.01,0.9593 0.03,1.4415 16.811,24.8547 61.552,9.2986 87.538,-8.9635 24.66,-17.3302 33.893,1.4263 36.169,7.653 0,-0.044 0,-0.087 0,-0.131 0,-33.5755 -27.628,-60.8054 -61.88,-60.8054 z m 7.496,39.2614 -33.521,25.5802 c -7.472,-12.6793 33.521,-25.5802 33.521,-25.5802 z m -56.271,2.0705 c 5.811,-0.1859 8.046,24.0077 8.046,24.0077 l -9.959,-23.0904 c 0.679,-0.5942 1.312,-0.898 1.913,-0.9173 z m -21.963,11.4535 c -11.747,-0.047 -19.264,8.2559 -19.264,8.2559 l 0.183,4.141 c 3.839,0 22.304,-7.6269 22.304,-7.6269 l 0.551,-4.4818 c -1.302,-0.202 -2.559,-0.2834 -3.774,-0.2882 z m 105.675,13.1045 c -4.418,-0.1097 -10.667,4.1935 -10.667,4.1935 -54.904,21.896 -83.974,0.7601 -83.974,0.7601 8.074,20.3847 87.201,16.6122 92.047,15.8565 4.845,-0.7556 8.868,-11.3413 6.447,-18.1367 -0.681,-1.9112 -2.124,-2.6304 -3.853,-2.6734 z m -127.665,0.7863 c 0,0 -8.422,2.1524 -3.669,3.6431 l 3.669,-3.6431 z m 21.702,1.4677 c -7.127,3.239 -17.141,4.4818 -17.141,4.4818 l 2.437,3.9838 c 5.755,-1.5365 11.529,-2.4879 15.464,-3.0403 -0.334,-1.7831 -0.567,-3.5981 -0.76,-5.4253 z m 141.948,4.875 c -1.514,0.01 -3.068,0.1417 -4.691,0.4193 l 0.681,6.133 c 0,0 23,10.4837 27.782,10.4837 l 0.236,-5.6875 c 0,0 -9.371,-11.4131 -24.008,-11.3485 z m -143.259,3.1713 c -16.143,-0.065 -26.471,11.3485 -26.471,11.3485 l 0.262,5.6875 c 5.276,0 30.638,-10.4575 30.638,-10.4575 l 0.761,-6.1592 c -1.79,-0.2776 -3.52,-0.4127 -5.19,-0.4193 z m 15.411,6.4736 c 9.028,11.6149 65.968,29.3788 67.358,30.062 1.389,0.6832 10.405,-3.4209 10.405,-8.2035 0,-4.7826 -4.849,-8.2035 -4.849,-8.2035 -11.805,6.1491 -72.914,-13.655 -72.914,-13.655 z m 122.03,7.129 c -0.967,2.0971 -2.06,4.1252 -3.224,6.1067 12.868,2.4977 28.052,7.1003 24.611,14.651 l 0.236,0.3931 5.923,-10.641 c 0,0 -20.313,-2.813 -27.546,-10.5098 z m -129.526,1.389 c -0.06,0.086 -0.1,0.1775 -0.157,0.2621 0.08,-0.031 0.155,-0.074 0.236,-0.1048 -0.03,-0.052 -0.05,-0.1046 -0.08,-0.1573 z m 162.759,0.9173 4.561,5.006 c 5.922,-2.0497 -4.561,-5.006 -4.561,-5.006 z m -200.919,3.1976 c 0,0 -11.538,2.9562 -5.006,5.0059 l 5.006,-5.0059 z m 155.735,1.6249 c -1.922,0.01 -3.916,0.1482 -5.976,0.4456 l 0.865,6.6047 c 0,0 29.18,11.2175 35.251,11.2175 l 0.289,-6.1067 c 0,0 -11.851,-12.2305 -30.429,-12.1611 z m -101.613,0.026 c 3.981,10.4745 -5.924,38.58 -5.924,38.58 0,0 5.149,-7.3226 8.964,-20.0762 3.815,-12.7537 -3.04,-18.5038 -3.04,-18.5038 z m -26.576,1.3367 c -9.512,3.7354 -21.256,5.1895 -21.256,5.1895 l 8.308,16.4593 c 0.942,-3.393 2.301,-6.8361 4.168,-10.2216 2.47,-4.4822 5.5,-8.3376 8.78,-11.4272 z m 97.681,16.1711 c -1.514,0.01 -3.069,0.1418 -4.691,0.4193 l 0.681,6.1592 c 0,0 22.999,10.4575 27.782,10.4575 l 0.21,-5.6874 c 0,0 -9.345,-11.4132 -23.982,-11.3486 z m -101.849,0.8125 c -0.217,-0.011 -0.429,-0.01 -0.655,0 -0.835,0.015 -1.719,0.149 -2.647,0.4456 -3.743,8.4314 -2.49,16.3807 -2.49,16.3807 0,0 1.654,-7.0466 4.796,-10.6147 3.143,-3.5681 6.081,-4.5342 6.081,-4.5342 0.392,0.2981 -1.825,-1.5062 -5.085,-1.6774 z m 167.136,2.1229 5.766,5.3467 c 7.517,-2.1972 -5.766,-5.3467 -5.766,-5.3467 z m -107.457,9.9595 c -0.31,-0.01 -0.63,-0.012 -0.97,0 -10.88,0.403 -13.708,5.6612 -13.708,5.6612 0,0 8.872,-2.0311 13.708,-0.4194 4.835,1.6119 6.447,4.4294 6.447,4.4294 -0.39,0.7808 4.131,-9.4002 -5.477,-9.6712 z m 38.92,2.0182 c -5.727,22.5124 -53.178,50.7934 -53.178,50.7934 0,0 16.342,-3.355 36.797,-17.2457 20.456,-13.8906 16.381,-33.5477 16.381,-33.5477 z m 30.665,4.1934 4.56,5.006 c 5.923,-2.0497 -4.56,-5.006 -4.56,-5.006 z"
         id="use7262"
         inkscape:connector-curvature="0" />
      <path
         style="color:#000000;fill:url(#linearGradient3141);fill-opacity:1;stroke:none;stroke-width:7;marker:none;visibility:visible;display:inline;overflow:visible;enable-background:new"
         d="m 760.82794,392.90661 c 13.619,0.2434 26.21,16.5118 26.21,16.5118 20.756,-17.1303 20.626,22.9855 20.626,22.9855 19.31,8.9117 14.31,40.5194 14.31,40.5194 l -6.028,1.3367 c 4.84,9.4804 7.575,20.1819 7.575,31.5035 0,3.3425 -0.248,6.6095 -0.708,9.8284 10.213,1.7302 29.868,6.2648 26.471,15.0965 l 1.809,3.6431 c 0,0 9.109,3.6441 7.286,9.5664 -1.093,3.5513 -9.859,10.6714 -16.722,15.8304 2.503,0.988 10.422,4.5648 8.466,9.9332 -2.313,6.3458 -31.792,23.4311 -31.792,23.4311 l 14.441,-21.9634 c 0,0 -25.899,-3.0513 -35.015,-11.3485 -1.154,0.9481 -2.325,1.8756 -3.538,2.7519 5.017,2.386 8.322,5.5365 6.762,9.5926 l 1.834,3.643 c 0,0 9.109,3.6442 7.287,9.5664 -1.823,5.9222 -25.056,21.8585 -25.056,21.8585 l 11.401,-20.4956 c 0,0 -12.88,-1.7829 -21.78,-6.3951 0.935,12.7408 -9.375,28.3466 -26.472,38.1869 -16.562,9.5333 -34.569,10.7783 -45.263,4.2983 5.316,-0.8029 11.146,-2.8147 16.774,-6.0544 15.009,-8.639 23.13,-22.6973 18.137,-31.3724 -4.977,-8.6461 -21.123,-8.6837 -36.09,-0.131 4.517,-5.8468 10.742,-11.3004 18.294,-15.647 0.297,-0.1712 0.592,-0.332 0.891,-0.4979 -4.266,-2.0441 -8.287,-4.507 -12.03,-7.3124 -0.905,4.1569 -2.485,8.4663 -4.796,12.6591 -3.053,5.5377 -6.931,10.1153 -11.113,13.4716 6.006,-10.9751 5.79,-22.6877 -0.55,-26.1831 -6.362,-3.5071 -16.473,2.596 -22.54,13.6026 -2.276,4.1274 -3.656,8.3719 -4.168,12.2397 -3.338,-5.2865 -4.033,-13.1457 -1.965,-21.4916 -3.504,-2.2165 -21.245,-13.6423 -23.064,-19.0017 -2.011,-5.9221 8.046,-9.5663 8.046,-9.5663 l 1.992,-3.6431 c -1.897,-4.4709 2.739,-7.8403 9.225,-10.3002 -3.504,-2.6776 -6.5,-5.3515 -7.05,-6.9716 -1.462,-4.3112 5.871,-6.9454 5.871,-6.9454 l 1.441,-2.6472 c -2.711,-6.39 12.865,-9.6809 21.099,-10.9554 4.823,-34.2449 34.734,-60.6481 70.738,-60.6481 17.287,0 33.172,6.077 45.552,16.1972 -2.312,-6.5723 -3.931,-11.9252 -3.931,-11.9252 -8.56,1.8841 -17.115,-20.7576 -17.115,-20.7576 -7.418,1.6328 -36.247,-7.5745 -36.247,-7.5745 0,0 -9.517,9.8505 -14.127,2.4899 -4.611,-7.359 -14.127,0.131 -14.127,0.131 21.988,-30.5632 28.018,-8.5704 28.018,-8.5704 l 6.106,-4.9273 c 4.641,-5.6299 9.699,-7.6363 14.625,-7.5483 z m -0.209,3.25 c -9.462,-0.2965 -12.921,8.6754 -12.921,8.6752 4.341,2.7761 33.102,2.0443 33.102,2.0443 -8.629,-7.8802 -15.225,-10.5642 -20.181,-10.7195 z m 32.368,13.2618 c -2.071,-0.064 -3.538,0.7077 -3.538,0.7077 l 10.483,15.8827 c 2.531,2.7463 1.086,5.8603 -0.524,7.9677 -1.258,1.0029 -2.253,1.9364 -2.306,2.4374 0,0 1.189,-0.9745 2.306,-2.4374 2.339,-1.8651 5.609,-3.9576 5.609,-3.9576 -1.975,-17.3168 -8.077,-20.4773 -12.03,-20.6005 z m 14.284,26.6286 c 4.636,4.1103 1.415,27.6504 1.415,27.6507 l 10.379,4.7176 c 1.475,-20.8446 -11.794,-32.3683 -11.794,-32.3683 z m -55.197,8.9111 c -34.252,0 -61.853,27.2299 -61.853,60.8054 0,0.4848 0.01,0.9593 0.03,1.4415 16.811,24.8547 61.552,9.2986 87.538,-8.9635 24.66,-17.3302 33.893,1.4263 36.169,7.653 0,-0.044 0,-0.087 0,-0.131 0,-33.5755 -27.628,-60.8054 -61.88,-60.8054 z m 7.496,39.2614 -33.521,25.5802 c -7.472,-12.6793 33.521,-25.5802 33.521,-25.5802 z m -56.271,2.0705 c 5.811,-0.1859 8.046,24.0077 8.046,24.0077 l -9.959,-23.0904 c 0.679,-0.5942 1.312,-0.898 1.913,-0.9173 z m -21.963,11.4535 c -11.747,-0.047 -19.264,8.2559 -19.264,8.2559 l 0.183,4.141 c 3.839,0 22.304,-7.6269 22.304,-7.6269 l 0.551,-4.4818 c -1.302,-0.202 -2.559,-0.2834 -3.774,-0.2882 z m 105.675,13.1045 c -4.418,-0.1097 -10.667,4.1935 -10.667,4.1935 -54.904,21.896 -83.974,0.7601 -83.974,0.7601 8.074,20.3847 87.201,16.6122 92.047,15.8565 4.845,-0.7556 8.868,-11.3413 6.447,-18.1367 -0.681,-1.9112 -2.124,-2.6304 -3.853,-2.6734 z m -127.665,0.7863 c 0,0 -8.422,2.1524 -3.669,3.6431 l 3.669,-3.6431 z m 21.702,1.4677 c -7.127,3.239 -17.141,4.4818 -17.141,4.4818 l 2.437,3.9838 c 5.755,-1.5365 11.529,-2.4879 15.464,-3.0403 -0.334,-1.7831 -0.567,-3.5981 -0.76,-5.4253 z m 141.948,4.875 c -1.514,0.01 -3.068,0.1417 -4.691,0.4193 l 0.681,6.133 c 0,0 23,10.4837 27.782,10.4837 l 0.236,-5.6875 c 0,0 -9.371,-11.4131 -24.008,-11.3485 z m -143.259,3.1713 c -16.143,-0.065 -26.471,11.3485 -26.471,11.3485 l 0.262,5.6875 c 5.276,0 30.638,-10.4575 30.638,-10.4575 l 0.761,-6.1592 c -1.79,-0.2776 -3.52,-0.4127 -5.19,-0.4193 z m 15.411,6.4736 c 9.028,11.6149 65.968,29.3788 67.358,30.062 1.389,0.6832 10.405,-3.4209 10.405,-8.2035 0,-4.7826 -4.849,-8.2035 -4.849,-8.2035 -11.805,6.1491 -72.914,-13.655 -72.914,-13.655 z m 122.03,7.129 c -0.967,2.0971 -2.06,4.1252 -3.224,6.1067 12.868,2.4977 28.052,7.1003 24.611,14.651 l 0.236,0.3931 5.923,-10.641 c 0,0 -20.313,-2.813 -27.546,-10.5098 z m -129.526,1.389 c -0.06,0.086 -0.1,0.1775 -0.157,0.2621 0.08,-0.031 0.155,-0.074 0.236,-0.1048 -0.03,-0.052 -0.05,-0.1046 -0.08,-0.1573 z m 162.759,0.9173 4.561,5.006 c 5.922,-2.0497 -4.561,-5.006 -4.561,-5.006 z m -200.919,3.1976 c 0,0 -11.538,2.9562 -5.006,5.0059 l 5.006,-5.0059 z m 155.735,1.6249 c -1.922,0.01 -3.916,0.1482 -5.976,0.4456 l 0.865,6.6047 c 0,0 29.18,11.2175 35.251,11.2175 l 0.289,-6.1067 c 0,0 -11.851,-12.2305 -30.429,-12.1611 z m -101.613,0.026 c 3.981,10.4745 -5.924,38.58 -5.924,38.58 0,0 5.149,-7.3226 8.964,-20.0762 3.815,-12.7537 -3.04,-18.5038 -3.04,-18.5038 z m -26.576,1.3367 c -9.512,3.7354 -21.256,5.1895 -21.256,5.1895 l 8.308,16.4593 c 0.942,-3.393 2.301,-6.8361 4.168,-10.2216 2.47,-4.4822 5.5,-8.3376 8.78,-11.4272 z m 97.681,16.1711 c -1.514,0.01 -3.069,0.1418 -4.691,0.4193 l 0.681,6.1592 c 0,0 22.999,10.4575 27.782,10.4575 l 0.21,-5.6874 c 0,0 -9.345,-11.4132 -23.982,-11.3486 z m -101.849,0.8125 c -0.217,-0.011 -0.429,-0.01 -0.655,0 -0.835,0.015 -1.719,0.149 -2.647,0.4456 -3.743,8.4314 -2.49,16.3807 -2.49,16.3807 0,0 1.654,-7.0466 4.796,-10.6147 3.143,-3.5681 6.081,-4.5342 6.081,-4.5342 0.392,0.2981 -1.825,-1.5062 -5.085,-1.6774 z m 167.136,2.1229 5.766,5.3467 c 7.517,-2.1972 -5.766,-5.3467 -5.766,-5.3467 z m -107.457,9.9595 c -0.31,-0.01 -0.63,-0.012 -0.97,0 -10.88,0.403 -13.708,5.6612 -13.708,5.6612 0,0 8.872,-2.0311 13.708,-0.4194 4.835,1.6119 6.447,4.4294 6.447,4.4294 -0.39,0.7808 4.131,-9.4002 -5.477,-9.6712 z m 38.92,2.0182 c -5.727,22.5124 -53.178,50.7934 -53.178,50.7934 0,0 16.342,-3.355 36.797,-17.2457 20.456,-13.8906 16.381,-33.5477 16.381,-33.5477 z m 30.665,4.1934 4.56,5.006 c 5.923,-2.0497 -4.56,-5.006 -4.56,-5.006 z"
         id="path4901"
         inkscape:connector-curvature="0" />
    </g>
  </g>
</svg>
